secs in Event,TrackName,Event,MidiChannel,Note,
0,main guitar,Program Change,0,c0,
2.531644,main guitar,Note On,0,e4,
0,main guitar,Note On,0,b3,
0,main guitar,Note On,0,e5,

0.632911,main guitar,Note Off,0,e4,
0,main guitar,Note Off,0,b3,
0,main guitar,Note Off,0,e5,

0.3164555,main guitar,Note On,0,d4,
0,main guitar,Note On,0,d5,
0,main guitar,Note On,0,a4,

0.15822775,main guitar,Note Off,0,d4,
0,main guitar,Note Off,0,d5,
0,main guitar,Note Off,0,a4,

0,main guitar,Note On,0,d5,
0,main guitar,Note On,0,a4,
0,main guitar,Note On,0,d4,

0.15822775,main guitar,Note Off,0,d5,
0,main guitar,Note Off,0,a4,
0,main guitar,Note Off,0,d4,

0,main guitar,Note On,0,a4,
0,main guitar,Note On,0,d4,
0,main guitar,Note On,0,d5,

0.632911,main guitar,Note Off,0,d5,
0,main guitar,Note Off,0,a4,
0,main guitar,Note Off,0,d4,

0.3164555,main guitar,Note On,0,a3,
0,main guitar,Note On,0,e4,
0,main guitar,Note On,0,a4,

0.15822775,main guitar,Note Off,0,a3,
0,main guitar,Note Off,0,e4,
0,main guitar,Note Off,0,a4,

0,main guitar,Note On,0,a3,
0,main guitar,Note On,0,e4,
0,Note On,0,a4,

0.15822775,Note Off,0,a3,
0,Note Off,0,e4,
0,Note Off,0,a4,

0,Note On,0,a3,
0,Note On,0,a4,
0,Note On,0,e4,

0.632911,Note Off,0,a3,
0,Note Off,0,a4,
0,Note Off,0,e4,

0.79113875,main guitar,Note On,0,g6,
0,main guitar,Note On,0,g5,
0.105485166666667,main guitar,Note Off,0,g6,
0,main guitar,Note Off,0,g5,
0.0527425833333333,main guitar,Note On,0,e6,
0,main guitar,Note On,0,e5,
0.15822775,main guitar,Note On,0,d6,
0,main guitar,Note On,0,d5,
0.0527425833333333,main guitar,Note Off,0,e6,
0,main guitar,Note Off,0,e5,
0.0527425833333333,main guitar,Note Off,0,d6,
0,main guitar,Note Off,0,d5,
0.0527425833333333,main guitar,Note On,0,b5,
0,main guitar,Note On,0,b4,
0.15822775,main guitar,Note On,0,b5,
0,main guitar,Note On,0,b4,
0.0527425833333333,main guitar,Note Off,0,b5,
0,main guitar,Note Off,0,b4,
0.105485166666667,main guitar,Note On,0,a5,
0,main guitar,Note On,0,a4,
0.01977846875,main guitar,Note Off,0,b5,
0.0131856458333333,main guitar,Note Off,0,b4,
0.0725210520833333,main guitar,Note Off,0,a5,
0,main guitar,Note Off,0,a4,
0.0527425833333333,main guitar,Note On,0,g5,
0,main guitar,Note On,0,g4,
0.105485166666667,main guitar,Note Off,0,g5,
0,main guitar,Note Off,0,g4,
0.0527425833333333,main guitar,Note On,0,e4,
0,main guitar,Note On,0,b3,
0,main guitar,Note On,0,e5,
0,main guitar,Note On,0,b4,
0,main guitar,Note On,0,g#4,
0,main guitar,Note On,0,e3,
0.632911,main guitar,Note Off,0,e4,
0,main guitar,Note Off,0,b3,
0,main guitar,Note Off,0,e5,
0,main guitar,Note Off,0,b4,
0,main guitar,Note Off,0,g#4,
0,main guitar,Note Off,0,e3,
0.3164555,main guitar,Note On,0,d4,
0,main guitar,Note On,0,d5,
0,main guitar,Note On,0,a4,
0,main guitar,Note On,0,f#5,
0.15822775,main guitar,Note Off,0,d4,
0,main guitar,Note Off,0,d5,
0,main guitar,Note Off,0,a4,
0,main guitar,Note Off,0,f#5,
0,main guitar,Note On,0,f#5,
0,main guitar,Note On,0,d5,
0,main guitar,Note On,0,a4,
0,main guitar,Note On,0,d4,
0.15822775,main guitar,Note Off,0,f#5,
0,main guitar,Note Off,0,d5,
0,main guitar,Note Off,0,a4,
0,main guitar,Note Off,0,d4,
0,main guitar,Note On,0,d5,
0,main guitar,Note On,0,f#5,
0,main guitar,Note On,0,a4,
0,main guitar,Note On,0,d4,
0.632911,main guitar,Note Off,0,d5,
0,main guitar,Note Off,0,f#5,
0,main guitar,Note Off,0,a4,
0,main guitar,Note Off,0,d4,
0.3164555,main guitar,Note On,0,a3,
0,main guitar,Note On,0,c#5,
0,main guitar,Note On,0,e4,
0,main guitar,Note On,0,a4,
0.15822775,main guitar,Note Off,0,a3,
0,main guitar,Note Off,0,c#5,
0,main guitar,Note Off,0,e4,
0,main guitar,Note Off,0,a4,
0,main guitar,Note On,0,a3,
0,main guitar,Note On,0,e4,
0,main guitar,Note On,0,a4,
0,main guitar,Note On,0,c#5,
0.15822775,main guitar,Note Off,0,a3,
0,main guitar,Note Off,0,e4,
0,main guitar,Note Off,0,a4,
0,main guitar,Note Off,0,c#5,
0,main guitar,Note On,0,a3,
0,main guitar,Note On,0,c#5,
0,main guitar,Note On,0,e5,
0,main guitar,Note On,0,a4,
0,main guitar,Note On,0,e4,
0.632911,main guitar,Note Off,0,a3,
0,main guitar,Note Off,0,c#5,
0,main guitar,Note Off,0,e5,
0,main guitar,Note Off,0,a4,
0,main guitar,Note Off,0,e4,
0,main guitar,Note On,0,b4,
0,main guitar,Note On,0,b3,
0,main guitar,Note On,0,b5,
0.105485166666667,main guitar,Note Off,0,b4,
0,main guitar,Note Off,0,b3,
0,main guitar,Note Off,0,b5,
0.0527425833333333,main guitar,Note On,0,g#4,
0,main guitar,Note On,0,g#3,
0,main guitar,Note On,0,g#5,
0.210970333333333,main guitar,Note Off,0,g#4,
0,main guitar,Note Off,0,g#3,
0,main guitar,Note Off,0,g#5,
0.105485166666667,main guitar,Note On,0,b4,
0,main guitar,Note On,0,b3,
0,main guitar,Note On,0,b5,
0.105485166666667,main guitar,Note Off,0,b4,
0,main guitar,Note Off,0,b3,
0,main guitar,Note Off,0,b5,
0.0527425833333333,main guitar,Note On,0,a4,
0,main guitar,Note On,0,a3,
0,main guitar,Note On,0,a5,
0.210970333333333,main guitar,Note Off,0,a4,
0,main guitar,Note Off,0,a3,
0,main guitar,Note Off,0,a5,
0.105485166666667,main guitar,Note On,0,b4,
0,main guitar,Note On,0,b3,
0,main guitar,Note On,0,b5,
0.105485166666667,main guitar,Note Off,0,b4,
0,main guitar,Note Off,0,b3,
0,main guitar,Note Off,0,b5,
0.0527425833333333,main guitar,Note On,0,a#4,
0,main guitar,Note On,0,a#3,
0,main guitar,Note On,0,a#5,
0.210970333333333,main guitar,Note Off,0,a#4,
0,main guitar,Note Off,0,a#3,
0,main guitar,Note Off,0,a#5,
0.105485166666667,main guitar,Note On,0,b4,
0,main guitar,Note On,0,b3,
0,main guitar,Note On,0,b5,
0.105485166666667,main guitar,Note Off,0,b4,
0,main guitar,Note Off,0,b3,
0,main guitar,Note Off,0,b5,
0.0527425833333333,main guitar,Note On,0,a#4,
0,main guitar,Note On,0,a#3,
0,main guitar,Note On,0,a#5,
0.105485166666667,main guitar,Note Off,0,a#4,
0,main guitar,Note Off,0,a#3,
0,main guitar,Note Off,0,a#5,
0.0527425833333333,main guitar,Note On,0,b4,
0,main guitar,Note On,0,b3,
0,main guitar,Note On,0,b5,
0.105485166666667,main guitar,Note Off,0,b4,
0,main guitar,Note Off,0,b3,
0,main guitar,Note Off,0,b5,
0.0527425833333333,main guitar,Note On,0,e4,
0,main guitar,Note On,0,b3,
0,main guitar,Note On,0,e5,
0,main guitar,Note On,0,g#4,
0,main guitar,Note On,0,e3,
0,main guitar,Note On,0,e5,
0,main guitar,Note On,0,b4,
0,main guitar,Note On,0,e6,
0,main guitar,Note On,0,b5,
0,main guitar,Note On,0,g#5,
0,main guitar,Note On,0,e4,
0,main guitar,Note On,0,b4,
0.632911,main guitar,Note Off,0,e4,
0,main guitar,Note Off,0,b3,
0,main guitar,Note Off,0,e5,
0,main guitar,Note Off,0,g#4,
0,main guitar,Note Off,0,e3,
0,main guitar,Note Off,0,e5,
0,main guitar,Note Off,0,b4,
0,main guitar,Note Off,0,e6,
0,main guitar,Note Off,0,b5,
0,main guitar,Note Off,0,g#5,
0,main guitar,Note Off,0,e4,
0,main guitar,Note Off,0,b4,
0.3164555,main guitar,Note On,0,d4,
0,main guitar,Note On,0,d5,
0,main guitar,Note On,0,a4,
0,main guitar,Note On,0,f#5,
0,main guitar,Note On,0,d5,
0,main guitar,Note On,0,d6,
0,main guitar,Note On,0,a5,
0,main guitar,Note On,0,f#6,
0.15822775,main guitar,Note Off,0,d4,
0,main guitar,Note Off,0,d5,
0,main guitar,Note Off,0,a4,
0,main guitar,Note Off,0,f#5,
0,main guitar,Note Off,0,d5,
0,main guitar,Note Off,0,d6,
0,main guitar,Note Off,0,a5,
0,main guitar,Note Off,0,f#6,
0,main guitar,Note On,0,f#5,
0,main guitar,Note On,0,d5,
0,main guitar,Note On,0,a4,
0,main guitar,Note On,0,d4,
0,main guitar,Note On,0,f#6,
0,main guitar,Note On,0,d6,
0,main guitar,Note On,0,a5,
0,main guitar,Note On,0,d5,
0.15822775,main guitar,Note Off,0,f#5,
0,main guitar,Note Off,0,d5,
0,main guitar,Note Off,0,a4,
0,main guitar,Note Off,0,d4,
0,main guitar,Note Off,0,f#6,
0,main guitar,Note Off,0,d6,
0,main guitar,Note Off,0,a5,
0,main guitar,Note Off,0,d5,
0,main guitar,Note On,0,d5,
0,main guitar,Note On,0,f#5,
0,main guitar,Note On,0,a4,
0,main guitar,Note On,0,d4,
0,main guitar,Note On,0,d6,
0,main guitar,Note On,0,f#6,
0,main guitar,Note On,0,a5,
0,main guitar,Note On,0,d5,
0.632911,main guitar,Note Off,0,d5,
0,main guitar,Note Off,0,f#5,
0,main guitar,Note Off,0,a4,
0,main guitar,Note Off,0,d4,
0,main guitar,Note Off,0,d6,
0,main guitar,Note Off,0,f#6,
0,main guitar,Note Off,0,a5,
0,main guitar,Note Off,0,d5,
0.3164555,main guitar,Note On,0,a3,
0,main guitar,Note On,0,c#5,
0,main guitar,Note On,0,e4,
0,main guitar,Note On,0,a4,
0,main guitar,Note On,0,a4,
0,main guitar,Note On,0,c#6,
0,main guitar,Note On,0,e5,
0,main guitar,Note On,0,a5,
0.15822775,main guitar,Note Off,0,a3,
0,main guitar,Note Off,0,c#5,
0,main guitar,Note Off,0,e4,
0,main guitar,Note Off,0,a4,
0,main guitar,Note Off,0,a4,
0,main guitar,Note Off,0,c#6,
0,main guitar,Note Off,0,e5,
0,main guitar,Note Off,0,a5,
0,main guitar,Note On,0,a3,
0,main guitar,Note On,0,e4,
0,main guitar,Note On,0,a4,
0,main guitar,Note On,0,c#5,
0,main guitar,Note On,0,a4,
0,main guitar,Note On,0,e5,
0,main guitar,Note On,0,a5,
0,main guitar,Note On,0,c#6,
0.15822775,main guitar,Note Off,0,a3,
0,main guitar,Note Off,0,e4,
0,main guitar,Note Off,0,a4,
0,main guitar,Note Off,0,c#5,
0,main guitar,Note Off,0,a4,
0,main guitar,Note Off,0,e5,
0,main guitar,Note Off,0,a5,
0,main guitar,Note Off,0,c#6,
0,main guitar,Note On,0,a3,
0,main guitar,Note On,0,c#5,
0,main guitar,Note On,0,e5,
0,main guitar,Note On,0,a4,
0,main guitar,Note On,0,e4,
0,main guitar,Note On,0,a4,
0,main guitar,Note On,0,c#6,
0,main guitar,Note On,0,e6,
0,main guitar,Note On,0,a5,
0,main guitar,Note On,0,e5,
0.632911,main guitar,Note Off,0,a3,
0,main guitar,Note Off,0,c#5,
0,main guitar,Note Off,0,e5,
0,main guitar,Note Off,0,a4,
0,main guitar,Note Off,0,e4,
0,main guitar,Note Off,0,a4,
0,main guitar,Note Off,0,c#6,
0,main guitar,Note Off,0,e6,
0,main guitar,Note Off,0,a5,
0,main guitar,Note Off,0,e5,
0.79113875,main guitar,Note On,0,g6,
0,main guitar,Note On,0,g5,
0.105485166666667,main guitar,Note Off,0,g6,
0,main guitar,Note Off,0,g5,
0.0527425833333333,main guitar,Note On,0,e6,
0,main guitar,Note On,0,e5,
0.15822775,main guitar,Note On,0,d6,
0,main guitar,Note On,0,d5,
0.0527425833333333,main guitar,Note Off,0,e6,
0,main guitar,Note Off,0,e5,
0.0527425833333333,main guitar,Note Off,0,d6,
0,main guitar,Note Off,0,d5,
0.0527425833333333,main guitar,Note On,0,b5,
0,main guitar,Note On,0,b4,
0.15822775,main guitar,Note On,0,b5,
0,main guitar,Note On,0,b4,
0.0527425833333333,main guitar,Note Off,0,b5,
0,main guitar,Note Off,0,b4,
0.105485166666667,main guitar,Note On,0,a5,
0,main guitar,Note On,0,a4,
0.01977846875,main guitar,Note Off,0,b5,
0.0131856458333333,main guitar,Note Off,0,b4,
0.0725210520833333,main guitar,Note Off,0,a5,
0,main guitar,Note Off,0,a4,
0.0527425833333333,main guitar,Note On,0,g5,
0,main guitar,Note On,0,g4,
0.105485166666667,main guitar,Note Off,0,g5,
0,main guitar,Note Off,0,g4,
0.0527425833333333,main guitar,Note On,0,e4,
0,main guitar,Note On,0,b3,
0,main guitar,Note On,0,e5,
0,main guitar,Note On,0,b4,
0,main guitar,Note On,0,g#4,
0,main guitar,Note On,0,e3,
0.632911,main guitar,Note Off,0,e4,
0,main guitar,Note Off,0,b3,
0,main guitar,Note Off,0,e5,
0,main guitar,Note Off,0,b4,
0,main guitar,Note Off,0,g#4,
0,main guitar,Note Off,0,e3,
0.3164555,main guitar,Note On,0,d4,
0,main guitar,Note On,0,d5,
0,main guitar,Note On,0,a4,
0,main guitar,Note On,0,f#5,
0.15822775,main guitar,Note Off,0,d4,
0,main guitar,Note Off,0,d5,
0,main guitar,Note Off,0,a4,
0,main guitar,Note Off,0,f#5,
0,main guitar,Note On,0,f#5,
0,main guitar,Note On,0,d5,
0,main guitar,Note On,0,a4,
0,main guitar,Note On,0,d4,
0.15822775,main guitar,Note Off,0,f#5,
0,main guitar,Note Off,0,d5,
0,main guitar,Note Off,0,a4,
0,main guitar,Note Off,0,d4,
0,main guitar,Note On,0,d5,
0,main guitar,Note On,0,f#5,
0,main guitar,Note On,0,a4,
0,main guitar,Note On,0,d4,
0.632911,main guitar,Note Off,0,d5,
0,main guitar,Note Off,0,f#5,
0,main guitar,Note Off,0,a4,
0,main guitar,Note Off,0,d4,
0.3164555,main guitar,Note On,0,a3,
0,main guitar,Note On,0,c#5,
0,main guitar,Note On,0,e4,
0,main guitar,Note On,0,a4,
0.15822775,main guitar,Note Off,0,a3,
0,main guitar,Note Off,0,c#5,
0,main guitar,Note Off,0,e4,
0,main guitar,Note Off,0,a4,
0,main guitar,Note On,0,a3,
0,main guitar,Note On,0,e4,
0,main guitar,Note On,0,a4,
0,main guitar,Note On,0,c#5,
0.15822775,main guitar,Note Off,0,a3,
0,main guitar,Note Off,0,e4,
0,main guitar,Note Off,0,a4,
0,main guitar,Note Off,0,c#5,
0,main guitar,Note On,0,a3,
0,main guitar,Note On,0,c#5,
0,main guitar,Note On,0,e5,
0,main guitar,Note On,0,a4,
0,main guitar,Note On,0,e4,
0.632911,main guitar,Note Off,0,a3,
0,main guitar,Note Off,0,c#5,
0,main guitar,Note Off,0,e5,
0,main guitar,Note Off,0,a4,
0,main guitar,Note Off,0,e4,
0,main guitar,Note On,0,b4,
0,main guitar,Note On,0,b3,
0,main guitar,Note On,0,b5,
0.105485166666667,main guitar,Note Off,0,b4,
0,main guitar,Note Off,0,b3,
0,main guitar,Note Off,0,b5,
0.0527425833333333,main guitar,Note On,0,g#4,
0,main guitar,Note On,0,g#3,
0,main guitar,Note On,0,g#5,
0.210970333333333,main guitar,Note Off,0,g#4,
0,main guitar,Note Off,0,g#3,
0,main guitar,Note Off,0,g#5,
0.105485166666667,main guitar,Note On,0,b4,
0,main guitar,Note On,0,b3,
0,main guitar,Note On,0,b5,
0.105485166666667,main guitar,Note Off,0,b4,
0,main guitar,Note Off,0,b3,
0,main guitar,Note Off,0,b5,
0.0527425833333333,main guitar,Note On,0,a4,
0,main guitar,Note On,0,a3,
0,main guitar,Note On,0,a5,
0.210970333333333,main guitar,Note Off,0,a4,
0,main guitar,Note Off,0,a3,
0,main guitar,Note Off,0,a5,
0.105485166666667,main guitar,Note On,0,b4,
0,main guitar,Note On,0,b3,
0,main guitar,Note On,0,b5,
0.105485166666667,main guitar,Note Off,0,b4,
0,main guitar,Note Off,0,b3,
0,main guitar,Note Off,0,b5,
0.0527425833333333,main guitar,Note On,0,a#4,
0,main guitar,Note On,0,a#3,
0,main guitar,Note On,0,a#5,
0.210970333333333,main guitar,Note Off,0,a#4,
0,main guitar,Note Off,0,a#3,
0,main guitar,Note Off,0,a#5,
0.105485166666667,main guitar,Note On,0,b4,
0,main guitar,Note On,0,b3,
0,main guitar,Note On,0,b5,
0.105485166666667,main guitar,Note Off,0,b4,
0,main guitar,Note Off,0,b3,
0,main guitar,Note Off,0,b5,
0.0527425833333333,main guitar,Note On,0,a#4,
0,main guitar,Note On,0,a#3,
0,main guitar,Note On,0,a#5,
0.105485166666667,main guitar,Note Off,0,a#4,
0,main guitar,Note Off,0,a#3,
0,main guitar,Note Off,0,a#5,
0.0527425833333333,main guitar,Note On,0,b4,
0,main guitar,Note On,0,b3,
0,main guitar,Note On,0,b5,
0.105485166666667,main guitar,Note Off,0,b4,
0,main guitar,Note Off,0,b3,
0,main guitar,Note Off,0,b5,
0.0527425833333333,main guitar,Note On,0,e4,
0,main guitar,Note On,0,b3,
0,main guitar,Note On,0,e5,
0,main guitar,Note On,0,g#4,
0,main guitar,Note On,0,e3,
0,main guitar,Note On,0,e5,
0,main guitar,Note On,0,b4,
0,main guitar,Note On,0,e6,
0,main guitar,Note On,0,b5,
0,main guitar,Note On,0,g#5,
0,main guitar,Note On,0,e4,
0,main guitar,Note On,0,b4,
0.632911,main guitar,Note Off,0,e4,
0,main guitar,Note Off,0,b3,
0,main guitar,Note Off,0,e5,
0,main guitar,Note Off,0,g#4,
0,main guitar,Note Off,0,e3,
0,main guitar,Note Off,0,e5,
0,main guitar,Note Off,0,b4,
0,main guitar,Note Off,0,e6,
0,main guitar,Note Off,0,b5,
0,main guitar,Note Off,0,g#5,
0,main guitar,Note Off,0,e4,
0,main guitar,Note Off,0,b4,
0.3164555,main guitar,Note On,0,d4,
0,main guitar,Note On,0,d5,
0,main guitar,Note On,0,a4,
0,main guitar,Note On,0,f#5,
0,main guitar,Note On,0,d5,
0,main guitar,Note On,0,d6,
0,main guitar,Note On,0,a5,
0,main guitar,Note On,0,f#6,
0.15822775,main guitar,Note Off,0,d4,
0,main guitar,Note Off,0,d5,
0,main guitar,Note Off,0,a4,
0,main guitar,Note Off,0,f#5,
0,main guitar,Note Off,0,d5,
0,main guitar,Note Off,0,d6,
0,main guitar,Note Off,0,a5,
0,main guitar,Note Off,0,f#6,
0,main guitar,Note On,0,f#5,
0,main guitar,Note On,0,d5,
0,main guitar,Note On,0,a4,
0,main guitar,Note On,0,d4,
0,main guitar,Note On,0,f#6,
0,main guitar,Note On,0,d6,
0,main guitar,Note On,0,a5,
0,main guitar,Note On,0,d5,
0.15822775,main guitar,Note Off,0,f#5,
0,main guitar,Note Off,0,d5,
0,main guitar,Note Off,0,a4,
0,main guitar,Note Off,0,d4,
0,main guitar,Note Off,0,f#6,
0,main guitar,Note Off,0,d6,
0,main guitar,Note Off,0,a5,
0,main guitar,Note Off,0,d5,
0,main guitar,Note On,0,d5,
0,main guitar,Note On,0,f#5,
0,main guitar,Note On,0,a4,
0,main guitar,Note On,0,d4,
0,main guitar,Note On,0,d6,
0,main guitar,Note On,0,f#6,
0,main guitar,Note On,0,a5,
0,main guitar,Note On,0,d5,
0.632911,main guitar,Note Off,0,d5,
0,main guitar,Note Off,0,f#5,
0,main guitar,Note Off,0,a4,
0,main guitar,Note Off,0,d4,
0,main guitar,Note Off,0,d6,
0,main guitar,Note Off,0,f#6,
0,main guitar,Note Off,0,a5,
0,main guitar,Note Off,0,d5,
0.3164555,main guitar,Note On,0,a3,
0,main guitar,Note On,0,c#5,
0,main guitar,Note On,0,e4,
0,main guitar,Note On,0,a4,
0,main guitar,Note On,0,a4,
0,main guitar,Note On,0,c#6,
0,main guitar,Note On,0,e5,
0,main guitar,Note On,0,a5,
0.15822775,main guitar,Note Off,0,a3,
0,main guitar,Note Off,0,c#5,
0,main guitar,Note Off,0,e4,
0,main guitar,Note Off,0,a4,
0,main guitar,Note Off,0,a4,
0,main guitar,Note Off,0,c#6,
0,main guitar,Note Off,0,e5,
0,main guitar,Note Off,0,a5,
0,main guitar,Note On,0,a3,
0,main guitar,Note On,0,e4,
0,main guitar,Note On,0,a4,
0,main guitar,Note On,0,c#5,
0,main guitar,Note On,0,a4,
0,main guitar,Note On,0,e5,
0,main guitar,Note On,0,a5,
0,main guitar,Note On,0,c#6,
0.15822775,main guitar,Note Off,0,a3,
0,main guitar,Note Off,0,e4,
0,main guitar,Note Off,0,a4,
0,main guitar,Note Off,0,c#5,
0,main guitar,Note Off,0,a4,
0,main guitar,Note Off,0,e5,
0,main guitar,Note Off,0,a5,
0,main guitar,Note Off,0,c#6,
0,main guitar,Note On,0,a3,
0,main guitar,Note On,0,c#5,
0,main guitar,Note On,0,e5,
0,main guitar,Note On,0,a4,
0,main guitar,Note On,0,e4,
0,main guitar,Note On,0,a4,
0,main guitar,Note On,0,c#6,
0,main guitar,Note On,0,e6,
0,main guitar,Note On,0,a5,
0,main guitar,Note On,0,e5,
0.632911,main guitar,Note Off,0,a3,
0,main guitar,Note Off,0,c#5,
0,main guitar,Note Off,0,e5,
0,main guitar,Note Off,0,a4,
0,main guitar,Note Off,0,e4,
0,main guitar,Note Off,0,a4,
0,main guitar,Note Off,0,c#6,
0,main guitar,Note Off,0,e6,
0,main guitar,Note Off,0,a5,
0,main guitar,Note Off,0,e5,
0.79113875,main guitar,Note On,0,g6,
0,main guitar,Note On,0,g5,
0.105485166666667,main guitar,Note Off,0,g6,
0,main guitar,Note Off,0,g5,
0.0527425833333333,main guitar,Note On,0,e6,
0,main guitar,Note On,0,e5,
0.15822775,main guitar,Note On,0,d6,
0,main guitar,Note On,0,d5,
0.0527425833333333,main guitar,Note Off,0,e6,
0,main guitar,Note Off,0,e5,
0.0527425833333333,main guitar,Note Off,0,d6,
0,main guitar,Note Off,0,d5,
0.0527425833333333,main guitar,Note On,0,b5,
0,main guitar,Note On,0,b4,
0.15822775,main guitar,Note On,0,b5,
0,main guitar,Note On,0,b4,
0.0527425833333333,main guitar,Note Off,0,b5,
0,main guitar,Note Off,0,b4,
0.105485166666667,main guitar,Note On,0,a5,
0,main guitar,Note On,0,a4,
0.01977846875,main guitar,Note Off,0,b5,
0.0131856458333333,main guitar,Note Off,0,b4,
0.0725210520833333,main guitar,Note Off,0,a5,
0,main guitar,Note Off,0,a4,
0.0527425833333333,main guitar,Note On,0,g5,
0,main guitar,Note On,0,g4,
0.105485166666667,main guitar,Note Off,0,g5,
0,main guitar,Note Off,0,g4,
0.0527425833333333,main guitar,Note On,0,e4,
0,main guitar,Note On,0,b3,
0,main guitar,Note On,0,e5,
0,main guitar,Note On,0,b4,
0,main guitar,Note On,0,g#4,
0,main guitar,Note On,0,e3,
0.632911,main guitar,Note Off,0,e4,
0,main guitar,Note Off,0,b3,
0,main guitar,Note Off,0,e5,
0,main guitar,Note Off,0,b4,
0,main guitar,Note Off,0,g#4,
0,main guitar,Note Off,0,e3,
0.3164555,main guitar,Note On,0,d4,
0,main guitar,Note On,0,d5,
0,main guitar,Note On,0,a4,
0,main guitar,Note On,0,f#5,
0.15822775,main guitar,Note Off,0,d4,
0,main guitar,Note Off,0,d5,
0,main guitar,Note Off,0,a4,
0,main guitar,Note Off,0,f#5,
0,main guitar,Note On,0,f#5,
0,main guitar,Note On,0,d5,
0,main guitar,Note On,0,a4,
0,main guitar,Note On,0,d4,
0.15822775,main guitar,Note Off,0,f#5,
0,main guitar,Note Off,0,d5,
0,main guitar,Note Off,0,a4,
0,main guitar,Note Off,0,d4,
0,main guitar,Note On,0,d5,
0,main guitar,Note On,0,f#5,
0,main guitar,Note On,0,a4,
0,main guitar,Note On,0,d4,
0.632911,main guitar,Note Off,0,d5,
0,main guitar,Note Off,0,f#5,
0,main guitar,Note Off,0,a4,
0,main guitar,Note Off,0,d4,
0.3164555,main guitar,Note On,0,a3,
0,main guitar,Note On,0,c#5,
0,main guitar,Note On,0,e4,
0,main guitar,Note On,0,a4,
0.15822775,main guitar,Note Off,0,a3,
0,main guitar,Note Off,0,c#5,
0,main guitar,Note Off,0,e4,
0,main guitar,Note Off,0,a4,
0,main guitar,Note On,0,a3,
0,main guitar,Note On,0,e4,
0,main guitar,Note On,0,a4,
0,main guitar,Note On,0,c#5,
0.15822775,main guitar,Note Off,0,a3,
0,main guitar,Note Off,0,e4,
0,main guitar,Note Off,0,a4,
0,main guitar,Note Off,0,c#5,
0,main guitar,Note On,0,a3,
0,main guitar,Note On,0,c#5,
0,main guitar,Note On,0,e5,
0,main guitar,Note On,0,a4,
0,main guitar,Note On,0,e4,
0.632911,main guitar,Note Off,0,a3,
0,main guitar,Note Off,0,c#5,
0,main guitar,Note Off,0,e5,
0,main guitar,Note Off,0,a4,
0,main guitar,Note Off,0,e4,
0,main guitar,Note On,0,b4,
0,main guitar,Note On,0,b3,
0,main guitar,Note On,0,b5,
0.105485166666667,main guitar,Note Off,0,b4,
0,main guitar,Note Off,0,b3,
0,main guitar,Note Off,0,b5,
0.0527425833333333,main guitar,Note On,0,g#4,
0,main guitar,Note On,0,g#3,
0,main guitar,Note On,0,g#5,
0.210970333333333,main guitar,Note Off,0,g#4,
0,main guitar,Note Off,0,g#3,
0,main guitar,Note Off,0,g#5,
0.105485166666667,main guitar,Note On,0,b4,
0,main guitar,Note On,0,b3,
0,main guitar,Note On,0,b5,
0.105485166666667,main guitar,Note Off,0,b4,
0,main guitar,Note Off,0,b3,
0,main guitar,Note Off,0,b5,
0.0527425833333333,main guitar,Note On,0,a4,
0,main guitar,Note On,0,a3,
0,main guitar,Note On,0,a5,
0.210970333333333,main guitar,Note Off,0,a4,
0,main guitar,Note Off,0,a3,
0,main guitar,Note Off,0,a5,
0.105485166666667,main guitar,Note On,0,b4,
0,main guitar,Note On,0,b3,
0,main guitar,Note On,0,b5,
0.105485166666667,main guitar,Note Off,0,b4,
0,main guitar,Note Off,0,b3,
0,main guitar,Note Off,0,b5,
0.0527425833333333,main guitar,Note On,0,a#4,
0,main guitar,Note On,0,a#3,
0,main guitar,Note On,0,a#5,
0.210970333333333,main guitar,Note Off,0,a#4,
0,main guitar,Note Off,0,a#3,
0,main guitar,Note Off,0,a#5,
0.105485166666667,main guitar,Note On,0,b4,
0,main guitar,Note On,0,b3,
0,main guitar,Note On,0,b5,
0.105485166666667,main guitar,Note Off,0,b4,
0,main guitar,Note Off,0,b3,
0,main guitar,Note Off,0,b5,
0.0527425833333333,main guitar,Note On,0,a#4,
0,main guitar,Note On,0,a#3,
0,main guitar,Note On,0,a#5,
0.105485166666667,main guitar,Note Off,0,a#4,
0,main guitar,Note Off,0,a#3,
0,main guitar,Note Off,0,a#5,
0.0527425833333333,main guitar,Note On,0,b4,
0,main guitar,Note On,0,b3,
0,main guitar,Note On,0,b5,
0.105485166666667,main guitar,Note Off,0,b4,
0,main guitar,Note Off,0,b3,
0,main guitar,Note Off,0,b5,
0.0461497604166667,main guitar,Note On,0,a5,
0,main guitar,Note On,0,e6,
0.00659282291666667,main guitar,Note Off,0,a5,
0,main guitar,Note Off,0,e6,
0.3560124375,main guitar,Note On,0,a5,
0,main guitar,Note On,0,e5,
0,main guitar,Note On,0,a6,
0,main guitar,Note On,0,e6,
0.0263712916666667,main guitar,Note On,0,a4,
0,main guitar,Note On,0,a5,
0.309862677083333,main guitar,Note Off,0,a5,
0,main guitar,Note Off,0,a6,
0.0131856458333333,main guitar,Note Off,0,e5,
0,main guitar,Note Off,0,e6,
0.13844928125,main guitar,Note Off,0,a4,
0,main guitar,Note Off,0,a5,
0,main guitar,Note On,0,b4,
0,main guitar,Note On,0,b5,
0.0263712916666667,main guitar,Note Off,0,b4,
0,main guitar,Note Off,0,b5,
0.00659282291666667,main guitar,Note On,0,e4,
0,main guitar,Note On,0,b4,
0,main guitar,Note On,0,e5,
0,main guitar,Note On,0,b5,
0.17800621875,main guitar,Note Off,0,b4,
0,main guitar,Note Off,0,b5,
0.112077989583333,main guitar,Note On,0,b4,
0,main guitar,Note On,0,b5,
0.00659282291666667,main guitar,Note On,0,f#5,
0,main guitar,Note On,0,b5,
0,main guitar,Note On,0,f#6,
0,main guitar,Note On,0,b6,
0.0725210520833333,main guitar,Note Off,0,e4,
0,main guitar,Note Off,0,e5,
0.37579090625,main guitar,Note Off,0,b4,
0,main guitar,Note Off,0,b5,
0.09889234375,main guitar,Note Off,0,f#5,
0,main guitar,Note Off,0,f#6,
0.00659282291666667,main guitar,Note Off,0,b5,
0,main guitar,Note Off,0,b6,
0,main guitar,Note On,0,a5,
0,main guitar,Note On,0,a6,
0.01977846875,main guitar,Note On,0,e5,
0,main guitar,Note On,0,e6,
0.0329641145833333,main guitar,Note On,0,a4,
0,main guitar,Note On,0,a5,
0.184599041666667,main guitar,Note Off,0,e5,
0,main guitar,Note Off,0,e6,
0.0131856458333333,main guitar,Note Off,0,a5,
0,main guitar,Note Off,0,a6,
0,main guitar,Note On,0,g5,
0,main guitar,Note On,0,g6,
0.125263635416667,main guitar,Note Off,0,g5,
0,main guitar,Note Off,0,g6,
0.00659282291666667,main guitar,Note On,0,f#5,
0,main guitar,Note On,0,g5,
0,main guitar,Note On,0,f#6,
0,main guitar,Note On,0,g6,
0.0329641145833333,main guitar,Note Off,0,a4,
0,main guitar,Note Off,0,a5,
0,main guitar,Note Off,0,g5,
0,main guitar,Note Off,0,g6,
0,main guitar,Note On,0,b4,
0,main guitar,Note On,0,b5,
0,main guitar,Note On,0,b5,
0,main guitar,Note On,0,b6,
0.184599041666667,main guitar,Note Off,0,b4,
0,main guitar,Note Off,0,b5,
0,main guitar,Note Off,0,b5,
0,main guitar,Note Off,0,b6,
0.00659282291666667,main guitar,Note Off,0,f#5,
0,main guitar,Note Off,0,f#6,
0.553797125,main guitar,Note On,0,a5,
0,main guitar,Note On,0,e5,
0,main guitar,Note On,0,a6,
0,main guitar,Note On,0,e6,
0.0263712916666667,main guitar,Note On,0,a4,
0,main guitar,Note On,0,a5,
0.309862677083333,main guitar,Note Off,0,a5,
0,main guitar,Note Off,0,a6,
0.0131856458333333,main guitar,Note Off,0,e5,
0,main guitar,Note Off,0,e6,
0.13844928125,main guitar,Note Off,0,a4,
0,main guitar,Note Off,0,a5,
0,main guitar,Note On,0,b4,
0,main guitar,Note On,0,b5,
0.0263712916666667,main guitar,Note Off,0,b4,
0,main guitar,Note Off,0,b5,
0.00659282291666667,main guitar,Note On,0,e4,
0,main guitar,Note On,0,b4,
0,main guitar,Note On,0,e5,
0,main guitar,Note On,0,b5,
0.17800621875,main guitar,Note Off,0,b4,
0,main guitar,Note Off,0,b5,
0.112077989583333,main guitar,Note On,0,b4,
0,main guitar,Note On,0,b5,
0.00659282291666667,main guitar,Note On,0,f#5,
0,main guitar,Note On,0,b5,
0,main guitar,Note On,0,f#6,
0,main guitar,Note On,0,b6,
0.0725210520833333,main guitar,Note Off,0,e4,
0,main guitar,Note Off,0,e5,
0.37579090625,main guitar,Note Off,0,b4,
0,main guitar,Note Off,0,b5,
0.09889234375,main guitar,Note Off,0,f#5,
0,main guitar,Note Off,0,f#6,
0.00659282291666667,main guitar,Note Off,0,b5,
0,main guitar,Note Off,0,b6,
0,main guitar,Note On,0,a5,
0,main guitar,Note On,0,a6,
0.01977846875,main guitar,Note On,0,e5,
0,main guitar,Note On,0,e6,
0.0329641145833333,main guitar,Note On,0,a4,
0,main guitar,Note On,0,a5,
0.184599041666667,main guitar,Note Off,0,e5,
0,main guitar,Note Off,0,e6,
0.0131856458333333,main guitar,Note Off,0,a5,
0,main guitar,Note Off,0,a6,
0,main guitar,Note On,0,g5,
0,main guitar,Note On,0,g6,
0.125263635416667,main guitar,Note Off,0,g5,
0,main guitar,Note Off,0,g6,
0.00659282291666667,main guitar,Note On,0,f#5,
0,main guitar,Note On,0,g5,
0,main guitar,Note On,0,f#6,
0,main guitar,Note On,0,g6,
0.0329641145833333,main guitar,Note Off,0,a4,
0,main guitar,Note Off,0,a5,
0,main guitar,Note Off,0,g5,
0,main guitar,Note Off,0,g6,
0,main guitar,Note On,0,b4,
0,main guitar,Note On,0,b5,
0,main guitar,Note On,0,b5,
0,main guitar,Note On,0,b6,
0.184599041666667,main guitar,Note Off,0,b4,
0,main guitar,Note Off,0,b5,
0,main guitar,Note Off,0,b5,
0,main guitar,Note Off,0,b6,
0.00659282291666667,main guitar,Note Off,0,f#5,
0,main guitar,Note Off,0,f#6,
0.4351263125,main guitar,Note On,0,d6,
0.0395569375,main guitar,Note On,0,g5,
0.0131856458333333,main guitar,Note On,0,g6,
0.05933540625,main guitar,Note On,0,d5,
0.184599041666667,main guitar,Note Off,0,g6,
0.0131856458333333,main guitar,Note Off,0,d6,
0.1977846875,main guitar,Note Off,0,g5,
0.0527425833333333,main guitar,Note Off,0,d5,
0.00659282291666667,main guitar,Note On,0,d5,
0.0263712916666667,main guitar,Note On,0,f#6,
0,main guitar,Note On,0,d6,
0.01977846875,main guitar,Note On,0,a5,
0.17800621875,main guitar,Note Off,0,a5,
0.0131856458333333,main guitar,Note Off,0,f#6,
0.01977846875,main guitar,Note Off,0,d6,
0.1977846875,main guitar,Note Off,0,d5,
0.00659282291666667,main guitar,Note On,0,d5,
0.01977846875,main guitar,Note On,0,a4,
0.01977846875,main guitar,Note On,0,a5,
0.0461497604166667,main guitar,Note Off,0,d5,
0,main guitar,Note On,0,e5,
0.37579090625,main guitar,Note Off,0,a4,
0.05933540625,main guitar,Note Off,0,e5,
0.00659282291666667,main guitar,Note On,0,g4,
0.0263712916666667,main guitar,Note On,0,c5,
0,main guitar,Note Off,0,c5,
0.191191864583333,main guitar,Note Off,0,g4,
0.01977846875,main guitar,Note Off,0,a5,
0.00659282291666667,main guitar,Note On,0,a5,
0.01977846875,main guitar,Note On,0,a4,
0.0131856458333333,main guitar,Note On,0,e5,
0.461497604166667,main guitar,Note On,0,a4,
0.131856458333333,main guitar,Note Off,0,a5,
0.00659282291666667,main guitar,Note Off,0,e5,
0.112077989583333,main guitar,Note On,0,g6,
0.00659282291666667,main guitar,Note Off,0,a4,
0.00659282291666667,main guitar,Note On,0,d6,
0,main guitar,Note On,0,g4,
0.0131856458333333,main guitar,Note On,0,d5,
0.0461497604166667,main guitar,Note On,0,g5,
0.15822775,main guitar,Note Off,0,g4,
0.0329641145833333,main guitar,Note Off,0,d6,
0.00659282291666667,main guitar,Note Off,0,g6,
0.210970333333333,main guitar,Note Off,0,a4,
0,main guitar,Note Off,0,g5,
0.0527425833333333,main guitar,Note On,0,f#6,
0,main guitar,Note On,0,d6,
0,main guitar,Note On,0,a5,
0.00659282291666667,main guitar,Note On,0,d5,
0.210970333333333,main guitar,Note Off,0,d5,
0.0329641145833333,main guitar,Note Off,0,a5,
0.0329641145833333,main guitar,Note Off,0,f#6,
0.0395569375,main guitar,Note Off,0,d6,
0.13844928125,main guitar,Note Off,0,d5,
0,main guitar,Note On,0,e5,
0.01977846875,main guitar,Note On,0,a4,
0.0395569375,main guitar,Note On,0,a5,
0.45490478125,main guitar,Note Off,0,e5,
0,main guitar,Note Off,0,a4,
0.01977846875,main guitar,Note On,0,g4,
0.237341625,main guitar,Note Off,0,g4,
0.0131856458333333,main guitar,Note Off,0,a5,
0.0131856458333333,main guitar,Note On,0,a5,
0,main guitar,Note On,0,a#4,
0.01977846875,main guitar,Note On,0,f5,
0.09889234375,main guitar,Note Off,0,a#4,
0,main guitar,Note On,0,a4,
0.0395569375,main guitar,Note Off,0,f5,
0.00659282291666667,main guitar,Note On,0,e5,
0.619725354166667,main guitar,Note Off,0,a5,
0,main guitar,Note Off,0,e5,
0.05933540625,main guitar,Note On,0,a5,
0,main guitar,Note On,0,e5,
0,main guitar,Note On,0,a6,
0,main guitar,Note On,0,e6,
0.0263712916666667,main guitar,Note On,0,a4,
0,main guitar,Note On,0,a5,
0.0263712916666667,main guitar,Note Off,0,a4,
0.283491385416667,main guitar,Note Off,0,a5,
0,main guitar,Note Off,0,a6,
0.0131856458333333,main guitar,Note Off,0,e5,
0,main guitar,Note Off,0,e6,
0.13844928125,main guitar,Note Off,0,a4,
0,main guitar,Note Off,0,a5,
0,main guitar,Note On,0,b4,
0,main guitar,Note On,0,b5,
0.0263712916666667,main guitar,Note Off,0,b4,
0,main guitar,Note Off,0,b5,
0.00659282291666667,main guitar,Note On,0,e4,
0,main guitar,Note On,0,b4,
0,main guitar,Note On,0,e5,
0,main guitar,Note On,0,b5,
0.17800621875,main guitar,Note Off,0,b4,
0,main guitar,Note Off,0,b5,
0.112077989583333,main guitar,Note On,0,b4,
0,main guitar,Note On,0,b5,
0.00659282291666667,main guitar,Note On,0,f#5,
0,main guitar,Note On,0,b5,
0,main guitar,Note On,0,f#6,
0,main guitar,Note On,0,b6,
0.0725210520833333,main guitar,Note Off,0,e4,
0,main guitar,Note Off,0,e5,
0.37579090625,main guitar,Note Off,0,b4,
0,main guitar,Note Off,0,b5,
0.09889234375,main guitar,Note Off,0,f#5,
0,main guitar,Note Off,0,f#6,
0.00659282291666667,main guitar,Note Off,0,b5,
0,main guitar,Note Off,0,b6,
0,main guitar,Note On,0,a5,
0,main guitar,Note On,0,a6,
0.01977846875,main guitar,Note On,0,e5,
0,main guitar,Note On,0,e6,
0.0329641145833333,main guitar,Note On,0,a4,
0,main guitar,Note On,0,a5,
0.184599041666667,main guitar,Note Off,0,e5,
0,main guitar,Note Off,0,e6,
0.0131856458333333,main guitar,Note Off,0,a5,
0,main guitar,Note Off,0,a6,
0,main guitar,Note On,0,g5,
0,main guitar,Note On,0,g6,
0.125263635416667,main guitar,Note Off,0,g5,
0,main guitar,Note Off,0,g6,
0.00659282291666667,main guitar,Note On,0,f#5,
0,main guitar,Note On,0,g5,
0,main guitar,Note On,0,f#6,
0,main guitar,Note On,0,g6,
0.0329641145833333,main guitar,Note Off,0,a4,
0,main guitar,Note Off,0,a5,
0,main guitar,Note Off,0,g5,
0,main guitar,Note Off,0,g6,
0,main guitar,Note On,0,b4,
0,main guitar,Note On,0,b5,
0,main guitar,Note On,0,b5,
0,main guitar,Note On,0,b6,
0.184599041666667,main guitar,Note Off,0,b4,
0,main guitar,Note Off,0,b5,
0,main guitar,Note Off,0,b5,
0,main guitar,Note Off,0,b6,
0.00659282291666667,main guitar,Note Off,0,f#5,
0,main guitar,Note Off,0,f#6,
0.553797125,main guitar,Note On,0,a5,
0,main guitar,Note On,0,e5,
0,main guitar,Note On,0,a6,
0,main guitar,Note On,0,e6,
0.0263712916666667,main guitar,Note On,0,a4,
0,main guitar,Note On,0,a5,
0.309862677083333,main guitar,Note Off,0,a5,
0,main guitar,Note Off,0,a6,
0.0131856458333333,main guitar,Note Off,0,e5,
0,main guitar,Note Off,0,e6,
0.13844928125,main guitar,Note Off,0,a4,
0,main guitar,Note Off,0,a5,
0,main guitar,Note On,0,b4,
0,main guitar,Note On,0,b5,
0.0263712916666667,main guitar,Note Off,0,b4,
0,main guitar,Note Off,0,b5,
0.00659282291666667,main guitar,Note On,0,e4,
0,main guitar,Note On,0,b4,
0,main guitar,Note On,0,e5,
0,main guitar,Note On,0,b5,
0.17800621875,main guitar,Note Off,0,b4,
0,main guitar,Note Off,0,b5,
0.112077989583333,main guitar,Note On,0,b4,
0,main guitar,Note On,0,b5,
0.00659282291666667,main guitar,Note On,0,f#5,
0,main guitar,Note On,0,b5,
0,main guitar,Note On,0,f#6,
0,main guitar,Note On,0,b6,
0.0725210520833333,main guitar,Note Off,0,e4,
0,main guitar,Note Off,0,e5,
0.37579090625,main guitar,Note Off,0,b4,
0,main guitar,Note Off,0,b5,
0.09889234375,main guitar,Note Off,0,f#5,
0,main guitar,Note Off,0,f#6,
0.00659282291666667,main guitar,Note Off,0,b5,
0,main guitar,Note Off,0,b6,
0,main guitar,Note On,0,a5,
0,main guitar,Note On,0,a6,
0.01977846875,main guitar,Note On,0,e5,
0,main guitar,Note On,0,e6,
0.0329641145833333,main guitar,Note On,0,a4,
0,main guitar,Note On,0,a5,
0.184599041666667,main guitar,Note Off,0,e5,
0,main guitar,Note Off,0,e6,
0.0131856458333333,main guitar,Note Off,0,a5,
0,main guitar,Note Off,0,a6,
0,main guitar,Note On,0,g5,
0,main guitar,Note On,0,g6,
0.125263635416667,main guitar,Note Off,0,g5,
0,main guitar,Note Off,0,g6,
0.00659282291666667,main guitar,Note On,0,f#5,
0,main guitar,Note On,0,g5,
0,main guitar,Note On,0,f#6,
0,main guitar,Note On,0,g6,
0.0329641145833333,main guitar,Note Off,0,a4,
0,main guitar,Note Off,0,a5,
0,main guitar,Note Off,0,g5,
0,main guitar,Note Off,0,g6,
0,main guitar,Note On,0,b4,
0,main guitar,Note On,0,b5,
0,main guitar,Note On,0,b5,
0,main guitar,Note On,0,b6,
0.184599041666667,main guitar,Note Off,0,b4,
0,main guitar,Note Off,0,b5,
0,main guitar,Note Off,0,b5,
0,main guitar,Note Off,0,b6,
0.00659282291666667,main guitar,Note Off,0,f#5,
0,main guitar,Note Off,0,f#6,
0.1977846875,main guitar,Note On,0,d4,
0,main guitar,Note On,0,g4,
0,main guitar,Note On,0,g5,
0,main guitar,Note On,0,d5,
0,main guitar,Note On,0,b4,
0.3164555,main guitar,Note Off,0,d4,
0,main guitar,Note Off,0,g4,
0,main guitar,Note Off,0,g5,
0,main guitar,Note Off,0,d5,
0,main guitar,Note Off,0,b4,
0.15822775,main guitar,Note On,0,d4,
0,main guitar,Note On,0,g4,
0,main guitar,Note On,0,g5,
0,main guitar,Note On,0,d5,
0,main guitar,Note On,0,b4,
0.3164555,main guitar,Note Off,0,d4,
0,main guitar,Note Off,0,g4,
0,main guitar,Note Off,0,g5,
0,main guitar,Note Off,0,d5,
0,main guitar,Note Off,0,b4,
0.15822775,main guitar,Note On,0,d4,
0,main guitar,Note On,0,g4,
0,main guitar,Note On,0,g5,
0,main guitar,Note On,0,d5,
0,main guitar,Note On,0,b4,
0.3164555,main guitar,Note Off,0,d4,
0,main guitar,Note Off,0,g4,
0,main guitar,Note Off,0,g5,
0,main guitar,Note Off,0,d5,
0,main guitar,Note Off,0,b4,
0.15822775,main guitar,Note On,0,d4,
0,main guitar,Note On,0,g4,
0,main guitar,Note On,0,b4,
0,main guitar,Note On,0,d5,
0,main guitar,Note On,0,g5,
0.105485166666667,main guitar,Note Off,0,d4,
0,main guitar,Note Off,0,g4,
0,main guitar,Note Off,0,b4,
0,main guitar,Note Off,0,d5,
0,main guitar,Note Off,0,g5,
0.0527425833333333,main guitar,Note On,0,b4,
0,main guitar,Note On,0,g5,
0,main guitar,Note On,0,c#4,
0.105485166666667,main guitar,Note Off,0,b4,
0,main guitar,Note Off,0,g5,
0,main guitar,Note Off,0,c#4,
0.0527425833333333,main guitar,Note On,0,d4,
0,main guitar,Note On,0,b4,
0,main guitar,Note On,0,g4,
0,main guitar,Note On,0,d5,
0,main guitar,Note On,0,g5,
0.105485166666667,main guitar,Note Off,0,d4,
0,main guitar,Note Off,0,b4,
0,main guitar,Note Off,0,g4,
0,main guitar,Note Off,0,d5,
0,main guitar,Note Off,0,g5,
0.0527425833333333,main guitar,Note On,0,d4,
0,main guitar,Note On,0,g4,
0,main guitar,Note On,0,b4,
0,main guitar,Note On,0,d5,
0,main guitar,Note On,0,g5,
0.210970333333333,main guitar,Note Off,0,d4,
0,main guitar,Note Off,0,g4,
0,main guitar,Note Off,0,b4,
0,main guitar,Note Off,0,d5,
0,main guitar,Note Off,0,g5,
0.105485166666667,main guitar,Note On,0,d4,
0,main guitar,Note On,0,g4,
0,main guitar,Note On,0,b4,
0,main guitar,Note On,0,d5,
0,main guitar,Note On,0,g5,
0.210970333333333,main guitar,Note Off,0,d4,
0,main guitar,Note Off,0,g4,
0,main guitar,Note Off,0,b4,
0,main guitar,Note Off,0,d5,
0,main guitar,Note Off,0,g5,
0.105485166666667,main guitar,Note On,0,d4,
0,main guitar,Note On,0,f#5,
0,main guitar,Note On,0,a4,
0,main guitar,Note On,0,d5,
0.3164555,main guitar,Note Off,0,d4,
0,main guitar,Note Off,0,f#5,
0,main guitar,Note Off,0,a4,
0,main guitar,Note Off,0,d5,
0.15822775,main guitar,Note On,0,d4,
0,main guitar,Note On,0,d5,
0,main guitar,Note On,0,f#5,
0,main guitar,Note On,0,a4,
0.3164555,main guitar,Note Off,0,d4,
0,main guitar,Note Off,0,d5,
0,main guitar,Note Off,0,f#5,
0,main guitar,Note Off,0,a4,
0.15822775,main guitar,Note On,0,d4,
0,main guitar,Note On,0,d5,
0,main guitar,Note On,0,f#5,
0,main guitar,Note On,0,a4,
0.843881333333333,main guitar,Note Off,0,d4,
0,main guitar,Note Off,0,d5,
0,main guitar,Note Off,0,f#5,
0,main guitar,Note Off,0,a4,
0.738396166666667,main guitar,Note On,0,e4,
0,main guitar,Note On,0,b3,
0,main guitar,Note On,0,e5,
0,main guitar,Note On,0,g#4,
0,main guitar,Note On,0,e3,
0,main guitar,Note On,0,e5,
0,main guitar,Note On,0,b4,
0,main guitar,Note On,0,e6,
0,main guitar,Note On,0,b5,
0,main guitar,Note On,0,g#5,
0,main guitar,Note On,0,e4,
0,main guitar,Note On,0,b4,
0.632911,main guitar,Note Off,0,e4,
0,main guitar,Note Off,0,b3,
0,main guitar,Note Off,0,e5,
0,main guitar,Note Off,0,g#4,
0,main guitar,Note Off,0,e3,
0,main guitar,Note Off,0,e5,
0,main guitar,Note Off,0,b4,
0,main guitar,Note Off,0,e6,
0,main guitar,Note Off,0,b5,
0,main guitar,Note Off,0,g#5,
0,main guitar,Note Off,0,e4,
0,main guitar,Note Off,0,b4,
0.3164555,main guitar,Note On,0,d4,
0,main guitar,Note On,0,d5,
0,main guitar,Note On,0,a4,
0,main guitar,Note On,0,f#5,
0,main guitar,Note On,0,d5,
0,main guitar,Note On,0,d6,
0,main guitar,Note On,0,a5,
0,main guitar,Note On,0,f#6,
0.15822775,main guitar,Note Off,0,d4,
0,main guitar,Note Off,0,d5,
0,main guitar,Note Off,0,a4,
0,main guitar,Note Off,0,f#5,
0,main guitar,Note Off,0,d5,
0,main guitar,Note Off,0,d6,
0,main guitar,Note Off,0,a5,
0,main guitar,Note Off,0,f#6,
0,main guitar,Note On,0,f#5,
0,main guitar,Note On,0,d5,
0,main guitar,Note On,0,a4,
0,main guitar,Note On,0,d4,
0,main guitar,Note On,0,f#6,
0,main guitar,Note On,0,d6,
0,main guitar,Note On,0,a5,
0,main guitar,Note On,0,d5,
0.15822775,main guitar,Note Off,0,f#5,
0,main guitar,Note Off,0,d5,
0,main guitar,Note Off,0,a4,
0,main guitar,Note Off,0,d4,
0,main guitar,Note Off,0,f#6,
0,main guitar,Note Off,0,d6,
0,main guitar,Note Off,0,a5,
0,main guitar,Note Off,0,d5,
0,main guitar,Note On,0,d5,
0,main guitar,Note On,0,f#5,
0,main guitar,Note On,0,a4,
0,main guitar,Note On,0,d4,
0,main guitar,Note On,0,d6,
0,main guitar,Note On,0,f#6,
0,main guitar,Note On,0,a5,
0,main guitar,Note On,0,d5,
0.632911,main guitar,Note Off,0,d5,
0,main guitar,Note Off,0,f#5,
0,main guitar,Note Off,0,a4,
0,main guitar,Note Off,0,d4,
0,main guitar,Note Off,0,d6,
0,main guitar,Note Off,0,f#6,
0,main guitar,Note Off,0,a5,
0,main guitar,Note Off,0,d5,
0.3164555,main guitar,Note On,0,a3,
0,main guitar,Note On,0,c#5,
0,main guitar,Note On,0,e4,
0,main guitar,Note On,0,a4,
0,main guitar,Note On,0,a4,
0,main guitar,Note On,0,c#6,
0,main guitar,Note On,0,e5,
0,main guitar,Note On,0,a5,
0.15822775,main guitar,Note Off,0,a3,
0,main guitar,Note Off,0,c#5,
0,main guitar,Note Off,0,e4,
0,main guitar,Note Off,0,a4,
0,main guitar,Note Off,0,a4,
0,main guitar,Note Off,0,c#6,
0,main guitar,Note Off,0,e5,
0,main guitar,Note Off,0,a5,
0,main guitar,Note On,0,a3,
0,main guitar,Note On,0,e4,
0,main guitar,Note On,0,a4,
0,main guitar,Note On,0,c#5,
0,main guitar,Note On,0,a4,
0,main guitar,Note On,0,e5,
0,main guitar,Note On,0,a5,
0,main guitar,Note On,0,c#6,
0.15822775,main guitar,Note Off,0,a3,
0,main guitar,Note Off,0,e4,
0,main guitar,Note Off,0,a4,
0,main guitar,Note Off,0,c#5,
0,main guitar,Note Off,0,a4,
0,main guitar,Note Off,0,e5,
0,main guitar,Note Off,0,a5,
0,main guitar,Note Off,0,c#6,
0,main guitar,Note On,0,a3,
0,main guitar,Note On,0,c#5,
0,main guitar,Note On,0,e5,
0,main guitar,Note On,0,a4,
0,main guitar,Note On,0,e4,
0,main guitar,Note On,0,a4,
0,main guitar,Note On,0,c#6,
0,main guitar,Note On,0,e6,
0,main guitar,Note On,0,a5,
0,main guitar,Note On,0,e5,
0.632911,main guitar,Note Off,0,a3,
0,main guitar,Note Off,0,c#5,
0,main guitar,Note Off,0,e5,
0,main guitar,Note Off,0,a4,
0,main guitar,Note Off,0,e4,
0,main guitar,Note Off,0,a4,
0,main guitar,Note Off,0,c#6,
0,main guitar,Note Off,0,e6,
0,main guitar,Note Off,0,a5,
0,main guitar,Note Off,0,e5,
0.79113875,main guitar,Note On,0,g6,
0,main guitar,Note On,0,g5,
0.105485166666667,main guitar,Note Off,0,g6,
0,main guitar,Note Off,0,g5,
0.0527425833333333,main guitar,Note On,0,e6,
0,main guitar,Note On,0,e5,
0.15822775,main guitar,Note On,0,d6,
0,main guitar,Note On,0,d5,
0.0527425833333333,main guitar,Note Off,0,e6,
0,main guitar,Note Off,0,e5,
0.0527425833333333,main guitar,Note Off,0,d6,
0,main guitar,Note Off,0,d5,
0.0527425833333333,main guitar,Note On,0,b5,
0,main guitar,Note On,0,b4,
0.15822775,main guitar,Note On,0,b5,
0,main guitar,Note On,0,b4,
0.0527425833333333,main guitar,Note Off,0,b5,
0,main guitar,Note Off,0,b4,
0.105485166666667,main guitar,Note On,0,a5,
0,main guitar,Note On,0,a4,
0.01977846875,main guitar,Note Off,0,b5,
0.0131856458333333,main guitar,Note Off,0,b4,
0.0725210520833333,main guitar,Note Off,0,a5,
0,main guitar,Note Off,0,a4,
0.0527425833333333,main guitar,Note On,0,g5,
0,main guitar,Note On,0,g4,
0.105485166666667,main guitar,Note Off,0,g5,
0,main guitar,Note Off,0,g4,
0.0527425833333333,main guitar,Note On,0,e4,
0,main guitar,Note On,0,b3,
0,main guitar,Note On,0,e5,
0,main guitar,Note On,0,b4,
0,main guitar,Note On,0,g#4,
0,main guitar,Note On,0,e3,
0.632911,main guitar,Note Off,0,e4,
0,main guitar,Note Off,0,b3,
0,main guitar,Note Off,0,e5,
0,main guitar,Note Off,0,b4,
0,main guitar,Note Off,0,g#4,
0,main guitar,Note Off,0,e3,
0.3164555,main guitar,Note On,0,d4,
0,main guitar,Note On,0,d5,
0,main guitar,Note On,0,a4,
0,main guitar,Note On,0,f#5,
0.15822775,main guitar,Note Off,0,d4,
0,main guitar,Note Off,0,d5,
0,main guitar,Note Off,0,a4,
0,main guitar,Note Off,0,f#5,
0,main guitar,Note On,0,f#5,
0,main guitar,Note On,0,d5,
0,main guitar,Note On,0,a4,
0,main guitar,Note On,0,d4,
0.15822775,main guitar,Note Off,0,f#5,
0,main guitar,Note Off,0,d5,
0,main guitar,Note Off,0,a4,
0,main guitar,Note Off,0,d4,
0,main guitar,Note On,0,d5,
0,main guitar,Note On,0,f#5,
0,main guitar,Note On,0,a4,
0,main guitar,Note On,0,d4,
0.632911,main guitar,Note Off,0,d5,
0,main guitar,Note Off,0,f#5,
0,main guitar,Note Off,0,a4,
0,main guitar,Note Off,0,d4,
0.3164555,main guitar,Note On,0,a3,
0,main guitar,Note On,0,c#5,
0,main guitar,Note On,0,e4,
0,main guitar,Note On,0,a4,
0.15822775,main guitar,Note Off,0,a3,
0,main guitar,Note Off,0,c#5,
0,main guitar,Note Off,0,e4,
0,main guitar,Note Off,0,a4,
0,main guitar,Note On,0,a3,
0,main guitar,Note On,0,e4,
0,main guitar,Note On,0,a4,
0,main guitar,Note On,0,c#5,
0.15822775,main guitar,Note Off,0,a3,
0,main guitar,Note Off,0,e4,
0,main guitar,Note Off,0,a4,
0,main guitar,Note Off,0,c#5,
0,main guitar,Note On,0,a3,
0,main guitar,Note On,0,c#5,
0,main guitar,Note On,0,e5,
0,main guitar,Note On,0,a4,
0,main guitar,Note On,0,e4,
0.632911,main guitar,Note Off,0,a3,
0,main guitar,Note Off,0,c#5,
0,main guitar,Note Off,0,e5,
0,main guitar,Note Off,0,a4,
0,main guitar,Note Off,0,e4,
0,main guitar,Note On,0,b4,
0,main guitar,Note On,0,b3,
0,main guitar,Note On,0,b5,
0.105485166666667,main guitar,Note Off,0,b4,
0,main guitar,Note Off,0,b3,
0,main guitar,Note Off,0,b5,
0.0527425833333333,main guitar,Note On,0,g#4,
0,main guitar,Note On,0,g#3,
0,main guitar,Note On,0,g#5,
0.210970333333333,main guitar,Note Off,0,g#4,
0,main guitar,Note Off,0,g#3,
0,main guitar,Note Off,0,g#5,
0.105485166666667,main guitar,Note On,0,b4,
0,main guitar,Note On,0,b3,
0,main guitar,Note On,0,b5,
0.105485166666667,main guitar,Note Off,0,b4,
0,main guitar,Note Off,0,b3,
0,main guitar,Note Off,0,b5,
0.0527425833333333,main guitar,Note On,0,a4,
0,main guitar,Note On,0,a3,
0,main guitar,Note On,0,a5,
0.210970333333333,main guitar,Note Off,0,a4,
0,main guitar,Note Off,0,a3,
0,main guitar,Note Off,0,a5,
0.105485166666667,main guitar,Note On,0,b4,
0,main guitar,Note On,0,b3,
0,main guitar,Note On,0,b5,
0.105485166666667,main guitar,Note Off,0,b4,
0,main guitar,Note Off,0,b3,
0,main guitar,Note Off,0,b5,
0.0527425833333333,main guitar,Note On,0,a#4,
0,main guitar,Note On,0,a#3,
0,main guitar,Note On,0,a#5,
0.210970333333333,main guitar,Note Off,0,a#4,
0,main guitar,Note Off,0,a#3,
0,main guitar,Note Off,0,a#5,
0.105485166666667,main guitar,Note On,0,b4,
0,main guitar,Note On,0,b3,
0,main guitar,Note On,0,b5,
0.105485166666667,main guitar,Note Off,0,b4,
0,main guitar,Note Off,0,b3,
0,main guitar,Note Off,0,b5,
0.0527425833333333,main guitar,Note On,0,a#4,
0,main guitar,Note On,0,a#3,
0,main guitar,Note On,0,a#5,
0.105485166666667,main guitar,Note Off,0,a#4,
0,main guitar,Note Off,0,a#3,
0,main guitar,Note Off,0,a#5,
0.0527425833333333,main guitar,Note On,0,b4,
0,main guitar,Note On,0,b3,
0,main guitar,Note On,0,b5,
0.105485166666667,main guitar,Note Off,0,b4,
0,main guitar,Note Off,0,b3,
0,main guitar,Note Off,0,b5,
0.0527425833333333,main guitar,Note On,0,e4,
0,main guitar,Note On,0,b3,
0,main guitar,Note On,0,e5,
0,main guitar,Note On,0,g#4,
0,main guitar,Note On,0,e3,
0,main guitar,Note On,0,e5,
0,main guitar,Note On,0,b4,
0,main guitar,Note On,0,e6,
0,main guitar,Note On,0,b5,
0,main guitar,Note On,0,g#5,
0,main guitar,Note On,0,e4,
0,main guitar,Note On,0,b4,
0.632911,main guitar,Note Off,0,e4,
0,main guitar,Note Off,0,b3,
0,main guitar,Note Off,0,e5,
0,main guitar,Note Off,0,g#4,
0,main guitar,Note Off,0,e3,
0,main guitar,Note Off,0,e5,
0,main guitar,Note Off,0,b4,
0,main guitar,Note Off,0,e6,
0,main guitar,Note Off,0,b5,
0,main guitar,Note Off,0,g#5,
0,main guitar,Note Off,0,e4,
0,main guitar,Note Off,0,b4,
0.3164555,main guitar,Note On,0,d4,
0,main guitar,Note On,0,d5,
0,main guitar,Note On,0,a4,
0,main guitar,Note On,0,f#5,
0,main guitar,Note On,0,d5,
0,main guitar,Note On,0,d6,
0,main guitar,Note On,0,a5,
0,main guitar,Note On,0,f#6,
0.15822775,main guitar,Note Off,0,d4,
0,main guitar,Note Off,0,d5,
0,main guitar,Note Off,0,a4,
0,main guitar,Note Off,0,f#5,
0,main guitar,Note Off,0,d5,
0,main guitar,Note Off,0,d6,
0,main guitar,Note Off,0,a5,
0,main guitar,Note Off,0,f#6,
0,main guitar,Note On,0,f#5,
0,main guitar,Note On,0,d5,
0,main guitar,Note On,0,a4,
0,main guitar,Note On,0,d4,
0,main guitar,Note On,0,f#6,
0,main guitar,Note On,0,d6,
0,main guitar,Note On,0,a5,
0,main guitar,Note On,0,d5,
0.15822775,main guitar,Note Off,0,f#5,
0,main guitar,Note Off,0,d5,
0,main guitar,Note Off,0,a4,
0,main guitar,Note Off,0,d4,
0,main guitar,Note Off,0,f#6,
0,main guitar,Note Off,0,d6,
0,main guitar,Note Off,0,a5,
0,main guitar,Note Off,0,d5,
0,main guitar,Note On,0,d5,
0,main guitar,Note On,0,f#5,
0,main guitar,Note On,0,a4,
0,main guitar,Note On,0,d4,
0,main guitar,Note On,0,d6,
0,main guitar,Note On,0,f#6,
0,main guitar,Note On,0,a5,
0,main guitar,Note On,0,d5,
0.632911,main guitar,Note Off,0,d5,
0,main guitar,Note Off,0,f#5,
0,main guitar,Note Off,0,a4,
0,main guitar,Note Off,0,d4,
0,main guitar,Note Off,0,d6,
0,main guitar,Note Off,0,f#6,
0,main guitar,Note Off,0,a5,
0,main guitar,Note Off,0,d5,
0.3164555,main guitar,Note On,0,a3,
0,main guitar,Note On,0,c#5,
0,main guitar,Note On,0,e4,
0,main guitar,Note On,0,a4,
0,main guitar,Note On,0,a4,
0,main guitar,Note On,0,c#6,
0,main guitar,Note On,0,e5,
0,main guitar,Note On,0,a5,
0.15822775,main guitar,Note Off,0,a3,
0,main guitar,Note Off,0,c#5,
0,main guitar,Note Off,0,e4,
0,main guitar,Note Off,0,a4,
0,main guitar,Note Off,0,a4,
0,main guitar,Note Off,0,c#6,
0,main guitar,Note Off,0,e5,
0,main guitar,Note Off,0,a5,
0,main guitar,Note On,0,a3,
0,main guitar,Note On,0,e4,
0,main guitar,Note On,0,a4,
0,main guitar,Note On,0,c#5,
0,main guitar,Note On,0,a4,
0,main guitar,Note On,0,e5,
0,main guitar,Note On,0,a5,
0,main guitar,Note On,0,c#6,
0.15822775,main guitar,Note Off,0,a3,
0,main guitar,Note Off,0,e4,
0,main guitar,Note Off,0,a4,
0,main guitar,Note Off,0,c#5,
0,main guitar,Note Off,0,a4,
0,main guitar,Note Off,0,e5,
0,main guitar,Note Off,0,a5,
0,main guitar,Note Off,0,c#6,
0,main guitar,Note On,0,a3,
0,main guitar,Note On,0,c#5,
0,main guitar,Note On,0,e5,
0,main guitar,Note On,0,a4,
0,main guitar,Note On,0,e4,
0,main guitar,Note On,0,a4,
0,main guitar,Note On,0,c#6,
0,main guitar,Note On,0,e6,
0,main guitar,Note On,0,a5,
0,main guitar,Note On,0,e5,
0.632911,main guitar,Note Off,0,a3,
0,main guitar,Note Off,0,c#5,
0,main guitar,Note Off,0,e5,
0,main guitar,Note Off,0,a4,
0,main guitar,Note Off,0,e4,
0,main guitar,Note Off,0,a4,
0,main guitar,Note Off,0,c#6,
0,main guitar,Note Off,0,e6,
0,main guitar,Note Off,0,a5,
0,main guitar,Note Off,0,e5,
0.79113875,main guitar,Note On,0,g6,
0,main guitar,Note On,0,g5,
0.105485166666667,main guitar,Note Off,0,g6,
0,main guitar,Note Off,0,g5,
0.0527425833333333,main guitar,Note On,0,e6,
0,main guitar,Note On,0,e5,
0.15822775,main guitar,Note On,0,d6,
0,main guitar,Note On,0,d5,
0.0527425833333333,main guitar,Note Off,0,e6,
0,main guitar,Note Off,0,e5,
0.0527425833333333,main guitar,Note Off,0,d6,
0,main guitar,Note Off,0,d5,
0.0527425833333333,main guitar,Note On,0,b5,
0,main guitar,Note On,0,b4,
0.15822775,main guitar,Note On,0,b5,
0,main guitar,Note On,0,b4,
0.0527425833333333,main guitar,Note Off,0,b5,
0,main guitar,Note Off,0,b4,
0.105485166666667,main guitar,Note On,0,a5,
0,main guitar,Note On,0,a4,
0.01977846875,main guitar,Note Off,0,b5,
0.0131856458333333,main guitar,Note Off,0,b4,
0.0725210520833333,main guitar,Note Off,0,a5,
0,main guitar,Note Off,0,a4,
0.0527425833333333,main guitar,Note On,0,g5,
0,main guitar,Note On,0,g4,
0.105485166666667,main guitar,Note Off,0,g5,
0,main guitar,Note Off,0,g4,
0.0527425833333333,main guitar,Note On,0,e4,
0,main guitar,Note On,0,b3,
0,main guitar,Note On,0,e5,
0,main guitar,Note On,0,b4,
0,main guitar,Note On,0,g#4,
0,main guitar,Note On,0,e3,
0.632911,main guitar,Note Off,0,e4,
0,main guitar,Note Off,0,b3,
0,main guitar,Note Off,0,e5,
0,main guitar,Note Off,0,b4,
0,main guitar,Note Off,0,g#4,
0,main guitar,Note Off,0,e3,
0.3164555,main guitar,Note On,0,d4,
0,main guitar,Note On,0,d5,
0,main guitar,Note On,0,a4,
0,main guitar,Note On,0,f#5,
0.15822775,main guitar,Note Off,0,d4,
0,main guitar,Note Off,0,d5,
0,main guitar,Note Off,0,a4,
0,main guitar,Note Off,0,f#5,
0,main guitar,Note On,0,f#5,
0,main guitar,Note On,0,d5,
0,main guitar,Note On,0,a4,
0,main guitar,Note On,0,d4,
0.15822775,main guitar,Note Off,0,f#5,
0,main guitar,Note Off,0,d5,
0,main guitar,Note Off,0,a4,
0,main guitar,Note Off,0,d4,
0,main guitar,Note On,0,d5,
0,main guitar,Note On,0,f#5,
0,main guitar,Note On,0,a4,
0,main guitar,Note On,0,d4,
0.632911,main guitar,Note Off,0,d5,
0,main guitar,Note Off,0,f#5,
0,main guitar,Note Off,0,a4,
0,main guitar,Note Off,0,d4,
0.3164555,main guitar,Note On,0,a3,
0,main guitar,Note On,0,c#5,
0,main guitar,Note On,0,e4,
0,main guitar,Note On,0,a4,
0.15822775,main guitar,Note Off,0,a3,
0,main guitar,Note Off,0,c#5,
0,main guitar,Note Off,0,e4,
0,main guitar,Note Off,0,a4,
0,main guitar,Note On,0,a3,
0,main guitar,Note On,0,e4,
0,main guitar,Note On,0,a4,
0,main guitar,Note On,0,c#5,
0.15822775,main guitar,Note Off,0,a3,
0,main guitar,Note Off,0,e4,
0,main guitar,Note Off,0,a4,
0,main guitar,Note Off,0,c#5,
0,main guitar,Note On,0,a3,
0,main guitar,Note On,0,c#5,
0,main guitar,Note On,0,e5,
0,main guitar,Note On,0,a4,
0,main guitar,Note On,0,e4,
0.632911,main guitar,Note Off,0,a3,
0,main guitar,Note Off,0,c#5,
0,main guitar,Note Off,0,e5,
0,main guitar,Note Off,0,a4,
0,main guitar,Note Off,0,e4,
0,main guitar,Note On,0,b4,
0,main guitar,Note On,0,b3,
0,main guitar,Note On,0,b5,
0.105485166666667,main guitar,Note Off,0,b4,
0,main guitar,Note Off,0,b3,
0,main guitar,Note Off,0,b5,
0.0527425833333333,main guitar,Note On,0,g#4,
0,main guitar,Note On,0,g#3,
0,main guitar,Note On,0,g#5,
0.210970333333333,main guitar,Note Off,0,g#4,
0,main guitar,Note Off,0,g#3,
0,main guitar,Note Off,0,g#5,
0.105485166666667,main guitar,Note On,0,b4,
0,main guitar,Note On,0,b3,
0,main guitar,Note On,0,b5,
0.105485166666667,main guitar,Note Off,0,b4,
0,main guitar,Note Off,0,b3,
0,main guitar,Note Off,0,b5,
0.0527425833333333,main guitar,Note On,0,a4,
0,main guitar,Note On,0,a3,
0,main guitar,Note On,0,a5,
0.210970333333333,main guitar,Note Off,0,a4,
0,main guitar,Note Off,0,a3,
0,main guitar,Note Off,0,a5,
0.105485166666667,main guitar,Note On,0,b4,
0,main guitar,Note On,0,b3,
0,main guitar,Note On,0,b5,
0.105485166666667,main guitar,Note Off,0,b4,
0,main guitar,Note Off,0,b3,
0,main guitar,Note Off,0,b5,
0.0527425833333333,main guitar,Note On,0,a#4,
0,main guitar,Note On,0,a#3,
0,main guitar,Note On,0,a#5,
0.210970333333333,main guitar,Note Off,0,a#4,
0,main guitar,Note Off,0,a#3,
0,main guitar,Note Off,0,a#5,
0.105485166666667,main guitar,Note On,0,b4,
0,main guitar,Note On,0,b3,
0,main guitar,Note On,0,b5,
0.105485166666667,main guitar,Note Off,0,b4,
0,main guitar,Note Off,0,b3,
0,main guitar,Note Off,0,b5,
0.0527425833333333,main guitar,Note On,0,a#4,
0,main guitar,Note On,0,a#3,
0,main guitar,Note On,0,a#5,
0.105485166666667,main guitar,Note Off,0,a#4,
0,main guitar,Note Off,0,a#3,
0,main guitar,Note Off,0,a#5,
0.0527425833333333,main guitar,Note On,0,b4,
0,main guitar,Note On,0,b3,
0,main guitar,Note On,0,b5,
0.105485166666667,main guitar,Note Off,0,b4,
0,main guitar,Note Off,0,b3,
0,main guitar,Note Off,0,b5,
0.0461497604166667,main guitar,Note On,0,a5,
0,main guitar,Note On,0,e6,
0.00659282291666667,main guitar,Note Off,0,a5,
0,main guitar,Note Off,0,e6,
0.3560124375,main guitar,Note On,0,a5,
0,main guitar,Note On,0,e5,
0,main guitar,Note On,0,a6,
0,main guitar,Note On,0,e6,
0.0263712916666667,main guitar,Note On,0,a4,
0,main guitar,Note On,0,a5,
0.309862677083333,main guitar,Note Off,0,a5,
0,main guitar,Note Off,0,a6,
0.0131856458333333,main guitar,Note Off,0,e5,
0,main guitar,Note Off,0,e6,
0.13844928125,main guitar,Note Off,0,a4,
0,main guitar,Note Off,0,a5,
0,main guitar,Note On,0,b4,
0,main guitar,Note On,0,b5,
0.0263712916666667,main guitar,Note Off,0,b4,
0,main guitar,Note Off,0,b5,
0.00659282291666667,main guitar,Note On,0,e4,
0,main guitar,Note On,0,b4,
0,main guitar,Note On,0,e5,
0,main guitar,Note On,0,b5,
0.17800621875,main guitar,Note Off,0,b4,
0,main guitar,Note Off,0,b5,
0.112077989583333,main guitar,Note On,0,b4,
0,main guitar,Note On,0,b5,
0.00659282291666667,main guitar,Note On,0,f#5,
0,main guitar,Note On,0,b5,
0,main guitar,Note On,0,f#6,
0,main guitar,Note On,0,b6,
0.0725210520833333,main guitar,Note Off,0,e4,
0,main guitar,Note Off,0,e5,
0.37579090625,main guitar,Note Off,0,b4,
0,main guitar,Note Off,0,b5,
0.09889234375,main guitar,Note Off,0,f#5,
0,main guitar,Note Off,0,f#6,
0.00659282291666667,main guitar,Note Off,0,b5,
0,main guitar,Note Off,0,b6,
0,main guitar,Note On,0,a5,
0,main guitar,Note On,0,a6,
0.01977846875,main guitar,Note On,0,e5,
0,main guitar,Note On,0,e6,
0.0329641145833333,main guitar,Note On,0,a4,
0,main guitar,Note On,0,a5,
0.184599041666667,main guitar,Note Off,0,e5,
0,main guitar,Note Off,0,e6,
0.0131856458333333,main guitar,Note Off,0,a5,
0,main guitar,Note Off,0,a6,
0,main guitar,Note On,0,g5,
0,main guitar,Note On,0,g6,
0.125263635416667,main guitar,Note Off,0,g5,
0,main guitar,Note Off,0,g6,
0.00659282291666667,main guitar,Note On,0,f#5,
0,main guitar,Note On,0,g5,
0,main guitar,Note On,0,f#6,
0,main guitar,Note On,0,g6,
0.0329641145833333,main guitar,Note Off,0,a4,
0,main guitar,Note Off,0,a5,
0,main guitar,Note Off,0,g5,
0,main guitar,Note Off,0,g6,
0,main guitar,Note On,0,b4,
0,main guitar,Note On,0,b5,
0,main guitar,Note On,0,b5,
0,main guitar,Note On,0,b6,
0.184599041666667,main guitar,Note Off,0,b4,
0,main guitar,Note Off,0,b5,
0,main guitar,Note Off,0,b5,
0,main guitar,Note Off,0,b6,
0.00659282291666667,main guitar,Note Off,0,f#5,
0,main guitar,Note Off,0,f#6,
0.553797125,main guitar,Note On,0,a5,
0,main guitar,Note On,0,e5,
0,main guitar,Note On,0,a6,
0,main guitar,Note On,0,e6,
0.0263712916666667,main guitar,Note On,0,a4,
0,main guitar,Note On,0,a5,
0.309862677083333,main guitar,Note Off,0,a5,
0,main guitar,Note Off,0,a6,
0.0131856458333333,main guitar,Note Off,0,e5,
0,main guitar,Note Off,0,e6,
0.13844928125,main guitar,Note Off,0,a4,
0,main guitar,Note Off,0,a5,
0,main guitar,Note On,0,b4,
0,main guitar,Note On,0,b5,
0.0263712916666667,main guitar,Note Off,0,b4,
0,main guitar,Note Off,0,b5,
0.00659282291666667,main guitar,Note On,0,e4,
0,main guitar,Note On,0,b4,
0,main guitar,Note On,0,e5,
0,main guitar,Note On,0,b5,
0.17800621875,main guitar,Note Off,0,b4,
0,main guitar,Note Off,0,b5,
0.112077989583333,main guitar,Note On,0,b4,
0,main guitar,Note On,0,b5,
0.00659282291666667,main guitar,Note On,0,f#5,
0,main guitar,Note On,0,b5,
0,main guitar,Note On,0,f#6,
0,main guitar,Note On,0,b6,
0.0725210520833333,main guitar,Note Off,0,e4,
0,main guitar,Note Off,0,e5,
0.37579090625,main guitar,Note Off,0,b4,
0,main guitar,Note Off,0,b5,
0.09889234375,main guitar,Note Off,0,f#5,
0,main guitar,Note Off,0,f#6,
0.00659282291666667,main guitar,Note Off,0,b5,
0,main guitar,Note Off,0,b6,
0,main guitar,Note On,0,a5,
0,main guitar,Note On,0,a6,
0.01977846875,main guitar,Note On,0,e5,
0,main guitar,Note On,0,e6,
0.0329641145833333,main guitar,Note On,0,a4,
0,main guitar,Note On,0,a5,
0.184599041666667,main guitar,Note Off,0,e5,
0,main guitar,Note Off,0,e6,
0.0131856458333333,main guitar,Note Off,0,a5,
0,main guitar,Note Off,0,a6,
0,main guitar,Note On,0,g5,
0,main guitar,Note On,0,g6,
0.125263635416667,main guitar,Note Off,0,g5,
0,main guitar,Note Off,0,g6,
0.00659282291666667,main guitar,Note On,0,f#5,
0,main guitar,Note On,0,g5,
0,main guitar,Note On,0,f#6,
0,main guitar,Note On,0,g6,
0.0329641145833333,main guitar,Note Off,0,a4,
0,main guitar,Note Off,0,a5,
0,main guitar,Note Off,0,g5,
0,main guitar,Note Off,0,g6,
0,main guitar,Note On,0,b4,
0,main guitar,Note On,0,b5,
0,main guitar,Note On,0,b5,
0,main guitar,Note On,0,b6,
0.184599041666667,main guitar,Note Off,0,b4,
0,main guitar,Note Off,0,b5,
0,main guitar,Note Off,0,b5,
0,main guitar,Note Off,0,b6,
0.00659282291666667,main guitar,Note Off,0,f#5,
0,main guitar,Note Off,0,f#6,
0.4351263125,main guitar,Note On,0,d6,
0.0395569375,main guitar,Note On,0,g5,
0.0131856458333333,main guitar,Note On,0,g6,
0.05933540625,main guitar,Note On,0,d5,
0.184599041666667,main guitar,Note Off,0,g6,
0.0131856458333333,main guitar,Note Off,0,d6,
0.1977846875,main guitar,Note Off,0,g5,
0.0527425833333333,main guitar,Note Off,0,d5,
0.00659282291666667,main guitar,Note On,0,d5,
0.0263712916666667,main guitar,Note On,0,f#6,
0,main guitar,Note On,0,d6,
0.01977846875,main guitar,Note On,0,a5,
0.17800621875,main guitar,Note Off,0,a5,
0.0131856458333333,main guitar,Note Off,0,f#6,
0.01977846875,main guitar,Note Off,0,d6,
0.1977846875,main guitar,Note Off,0,d5,
0.00659282291666667,main guitar,Note On,0,d5,
0.01977846875,main guitar,Note On,0,a4,
0.01977846875,main guitar,Note On,0,a5,
0.0461497604166667,main guitar,Note Off,0,d5,
0,main guitar,Note On,0,e5,
0.37579090625,main guitar,Note Off,0,a4,
0.05933540625,main guitar,Note Off,0,e5,
0.00659282291666667,main guitar,Note On,0,g4,
0.0263712916666667,main guitar,Note On,0,c5,
0,main guitar,Note Off,0,c5,
0.191191864583333,main guitar,Note Off,0,g4,
0.01977846875,main guitar,Note Off,0,a5,
0.00659282291666667,main guitar,Note On,0,a5,
0.01977846875,main guitar,Note On,0,a4,
0.0131856458333333,main guitar,Note On,0,e5,
0.461497604166667,main guitar,Note On,0,a4,
0.131856458333333,main guitar,Note Off,0,a5,
0.00659282291666667,main guitar,Note Off,0,e5,
0.112077989583333,main guitar,Note On,0,g6,
0.00659282291666667,main guitar,Note Off,0,a4,
0.00659282291666667,main guitar,Note On,0,d6,
0,main guitar,Note On,0,g4,
0.0131856458333333,main guitar,Note On,0,d5,
0.0461497604166667,main guitar,Note On,0,g5,
0.15822775,main guitar,Note Off,0,g4,
0.0329641145833333,main guitar,Note Off,0,d6,
0.00659282291666667,main guitar,Note Off,0,g6,
0.210970333333333,main guitar,Note Off,0,a4,
0,main guitar,Note Off,0,g5,
0.0527425833333333,main guitar,Note On,0,f#6,
0,main guitar,Note On,0,d6,
0,main guitar,Note On,0,a5,
0.00659282291666667,main guitar,Note On,0,d5,
0.210970333333333,main guitar,Note Off,0,d5,
0.0329641145833333,main guitar,Note Off,0,a5,
0.0329641145833333,main guitar,Note Off,0,f#6,
0.0395569375,main guitar,Note Off,0,d6,
0.13844928125,main guitar,Note Off,0,d5,
0,main guitar,Note On,0,e5,
0.01977846875,main guitar,Note On,0,a4,
0.0395569375,main guitar,Note On,0,a5,
0.45490478125,main guitar,Note Off,0,e5,
0,main guitar,Note Off,0,a4,
0.01977846875,main guitar,Note On,0,g4,
0.237341625,main guitar,Note Off,0,g4,
0.0131856458333333,main guitar,Note Off,0,a5,
0.0131856458333333,main guitar,Note On,0,a5,
0,main guitar,Note On,0,a#4,
0.01977846875,main guitar,Note On,0,f5,
0.09889234375,main guitar,Note Off,0,a#4,
0,main guitar,Note On,0,a4,
0.0395569375,main guitar,Note Off,0,f5,
0.00659282291666667,main guitar,Note On,0,e5,
0.619725354166667,main guitar,Note Off,0,a5,
0,main guitar,Note Off,0,e5,
0.05933540625,main guitar,Note On,0,a5,
0,main guitar,Note On,0,e5,
0,main guitar,Note On,0,a6,
0,main guitar,Note On,0,e6,
0.0263712916666667,main guitar,Note On,0,a4,
0,main guitar,Note On,0,a5,
0.0263712916666667,main guitar,Note Off,0,a4,
0.283491385416667,main guitar,Note Off,0,a5,
0,main guitar,Note Off,0,a6,
0.0131856458333333,main guitar,Note Off,0,e5,
0,main guitar,Note Off,0,e6,
0.13844928125,main guitar,Note Off,0,a4,
0,main guitar,Note Off,0,a5,
0,main guitar,Note On,0,b4,
0,main guitar,Note On,0,b5,
0.0263712916666667,main guitar,Note Off,0,b4,
0,main guitar,Note Off,0,b5,
0.00659282291666667,main guitar,Note On,0,e4,
0,main guitar,Note On,0,b4,
0,main guitar,Note On,0,e5,
0,main guitar,Note On,0,b5,
0.17800621875,main guitar,Note Off,0,b4,
0,main guitar,Note Off,0,b5,
0.112077989583333,main guitar,Note On,0,b4,
0,main guitar,Note On,0,b5,
0.00659282291666667,main guitar,Note On,0,f#5,
0,main guitar,Note On,0,b5,
0,main guitar,Note On,0,f#6,
0,main guitar,Note On,0,b6,
0.0725210520833333,main guitar,Note Off,0,e4,
0,main guitar,Note Off,0,e5,
0.37579090625,main guitar,Note Off,0,b4,
0,main guitar,Note Off,0,b5,
0.09889234375,main guitar,Note Off,0,f#5,
0,main guitar,Note Off,0,f#6,
0.00659282291666667,main guitar,Note Off,0,b5,
0,main guitar,Note Off,0,b6,
0,main guitar,Note On,0,a5,
0,main guitar,Note On,0,a6,
0.01977846875,main guitar,Note On,0,e5,
0,main guitar,Note On,0,e6,
0.0329641145833333,main guitar,Note On,0,a4,
0,main guitar,Note On,0,a5,
0.184599041666667,main guitar,Note Off,0,e5,
0,main guitar,Note Off,0,e6,
0.0131856458333333,main guitar,Note Off,0,a5,
0,main guitar,Note Off,0,a6,
0,main guitar,Note On,0,g5,
0,main guitar,Note On,0,g6,
0.125263635416667,main guitar,Note Off,0,g5,
0,main guitar,Note Off,0,g6,
0.00659282291666667,main guitar,Note On,0,f#5,
0,main guitar,Note On,0,g5,
0,main guitar,Note On,0,f#6,
0,main guitar,Note On,0,g6,
0.0329641145833333,main guitar,Note Off,0,a4,
0,main guitar,Note Off,0,a5,
0,main guitar,Note Off,0,g5,
0,main guitar,Note Off,0,g6,
0,main guitar,Note On,0,b4,
0,main guitar,Note On,0,b5,
0,main guitar,Note On,0,b5,
0,main guitar,Note On,0,b6,
0.184599041666667,main guitar,Note Off,0,b4,
0,main guitar,Note Off,0,b5,
0,main guitar,Note Off,0,b5,
0,main guitar,Note Off,0,b6,
0.00659282291666667,main guitar,Note Off,0,f#5,
0,main guitar,Note Off,0,f#6,
0.553797125,main guitar,Note On,0,a5,
0,main guitar,Note On,0,e5,
0,main guitar,Note On,0,a6,
0,main guitar,Note On,0,e6,
0.0263712916666667,main guitar,Note On,0,a4,
0,main guitar,Note On,0,a5,
0.309862677083333,main guitar,Note Off,0,a5,
0,main guitar,Note Off,0,a6,
0.0131856458333333,main guitar,Note Off,0,e5,
0,main guitar,Note Off,0,e6,
0.13844928125,main guitar,Note Off,0,a4,
0,main guitar,Note Off,0,a5,
0,main guitar,Note On,0,b4,
0,main guitar,Note On,0,b5,
0.0263712916666667,main guitar,Note Off,0,b4,
0,main guitar,Note Off,0,b5,
0.00659282291666667,main guitar,Note On,0,e4,
0,main guitar,Note On,0,b4,
0,main guitar,Note On,0,e5,
0,main guitar,Note On,0,b5,
0.17800621875,main guitar,Note Off,0,b4,
0,main guitar,Note Off,0,b5,
0.112077989583333,main guitar,Note On,0,b4,
0,main guitar,Note On,0,b5,
0.00659282291666667,main guitar,Note On,0,f#5,
0,main guitar,Note On,0,b5,
0,main guitar,Note On,0,f#6,
0,main guitar,Note On,0,b6,
0.0725210520833333,main guitar,Note Off,0,e4,
0,main guitar,Note Off,0,e5,
0.37579090625,main guitar,Note Off,0,b4,
0,main guitar,Note Off,0,b5,
0.09889234375,main guitar,Note Off,0,f#5,
0,main guitar,Note Off,0,f#6,
0.00659282291666667,main guitar,Note Off,0,b5,
0,main guitar,Note Off,0,b6,
0,main guitar,Note On,0,a5,
0,main guitar,Note On,0,a6,
0.01977846875,main guitar,Note On,0,e5,
0,main guitar,Note On,0,e6,
0.0329641145833333,main guitar,Note On,0,a4,
0,main guitar,Note On,0,a5,
0.184599041666667,main guitar,Note Off,0,e5,
0,main guitar,Note Off,0,e6,
0.0131856458333333,main guitar,Note Off,0,a5,
0,main guitar,Note Off,0,a6,
0,main guitar,Note On,0,g5,
0,main guitar,Note On,0,g6,
0.125263635416667,main guitar,Note Off,0,g5,
0,main guitar,Note Off,0,g6,
0.00659282291666667,main guitar,Note On,0,f#5,
0,main guitar,Note On,0,g5,
0,main guitar,Note On,0,f#6,
0,main guitar,Note On,0,g6,
0.0329641145833333,main guitar,Note Off,0,a4,
0,main guitar,Note Off,0,a5,
0,main guitar,Note Off,0,g5,
0,main guitar,Note Off,0,g6,
0,main guitar,Note On,0,b4,
0,main guitar,Note On,0,b5,
0,main guitar,Note On,0,b5,
0,main guitar,Note On,0,b6,
0.184599041666667,main guitar,Note Off,0,b4,
0,main guitar,Note Off,0,b5,
0,main guitar,Note Off,0,b5,
0,main guitar,Note Off,0,b6,
0.00659282291666667,main guitar,Note Off,0,f#5,
0,main guitar,Note Off,0,f#6,
0.1977846875,main guitar,Note On,0,d4,
0,main guitar,Note On,0,g4,
0,main guitar,Note On,0,g5,
0,main guitar,Note On,0,d5,
0,main guitar,Note On,0,b4,
0.3164555,main guitar,Note Off,0,d4,
0,main guitar,Note Off,0,g4,
0,main guitar,Note Off,0,g5,
0,main guitar,Note Off,0,d5,
0,main guitar,Note Off,0,b4,
0.15822775,main guitar,Note On,0,d4,
0,main guitar,Note On,0,g4,
0,main guitar,Note On,0,g5,
0,main guitar,Note On,0,d5,
0,main guitar,Note On,0,b4,
0.3164555,main guitar,Note Off,0,d4,
0,main guitar,Note Off,0,g4,
0,main guitar,Note Off,0,g5,
0,main guitar,Note Off,0,d5,
0,main guitar,Note Off,0,b4,
0.15822775,main guitar,Note On,0,d4,
0,main guitar,Note On,0,g4,
0,main guitar,Note On,0,g5,
0,main guitar,Note On,0,d5,
0,main guitar,Note On,0,b4,
0.3164555,main guitar,Note Off,0,d4,
0,main guitar,Note Off,0,g4,
0,main guitar,Note Off,0,g5,
0,main guitar,Note Off,0,d5,
0,main guitar,Note Off,0,b4,
0.15822775,main guitar,Note On,0,d4,
0,main guitar,Note On,0,g4,
0,main guitar,Note On,0,b4,
0,main guitar,Note On,0,d5,
0,main guitar,Note On,0,g5,
0.105485166666667,main guitar,Note Off,0,d4,
0,main guitar,Note Off,0,g4,
0,main guitar,Note Off,0,b4,
0,main guitar,Note Off,0,d5,
0,main guitar,Note Off,0,g5,
0.0527425833333333,main guitar,Note On,0,b4,
0,main guitar,Note On,0,g5,
0,main guitar,Note On,0,c#4,
0.105485166666667,main guitar,Note Off,0,b4,
0,main guitar,Note Off,0,g5,
0,main guitar,Note Off,0,c#4,
0.0527425833333333,main guitar,Note On,0,d4,
0,main guitar,Note On,0,b4,
0,main guitar,Note On,0,g4,
0,main guitar,Note On,0,d5,
0,main guitar,Note On,0,g5,
0.105485166666667,main guitar,Note Off,0,d4,
0,main guitar,Note Off,0,b4,
0,main guitar,Note Off,0,g4,
0,main guitar,Note Off,0,d5,
0,main guitar,Note Off,0,g5,
0.0527425833333333,main guitar,Note On,0,d4,
0,main guitar,Note On,0,g4,
0,main guitar,Note On,0,b4,
0,main guitar,Note On,0,d5,
0,main guitar,Note On,0,g5,
0.210970333333333,main guitar,Note Off,0,d4,
0,main guitar,Note Off,0,g4,
0,main guitar,Note Off,0,b4,
0,main guitar,Note Off,0,d5,
0,main guitar,Note Off,0,g5,
0.105485166666667,main guitar,Note On,0,d4,
0,main guitar,Note On,0,g4,
0,main guitar,Note On,0,b4,
0,main guitar,Note On,0,d5,
0,main guitar,Note On,0,g5,
0.210970333333333,main guitar,Note Off,0,d4,
0,main guitar,Note Off,0,g4,
0,main guitar,Note Off,0,b4,
0,main guitar,Note Off,0,d5,
0,main guitar,Note Off,0,g5,
0.105485166666667,main guitar,Note On,0,d4,
0,main guitar,Note On,0,f#5,
0,main guitar,Note On,0,a4,
0,main guitar,Note On,0,d5,
0.3164555,main guitar,Note Off,0,d4,
0,main guitar,Note Off,0,f#5,
0,main guitar,Note Off,0,a4,
0,main guitar,Note Off,0,d5,
0.15822775,main guitar,Note On,0,d4,
0,main guitar,Note On,0,d5,
0,main guitar,Note On,0,f#5,
0,main guitar,Note On,0,a4,
0.3164555,main guitar,Note Off,0,d4,
0,main guitar,Note Off,0,d5,
0,main guitar,Note Off,0,f#5,
0,main guitar,Note Off,0,a4,
0.15822775,main guitar,Note On,0,d4,
0,main guitar,Note On,0,d5,
0,main guitar,Note On,0,f#5,
0,main guitar,Note On,0,a4,
0.843881333333333,main guitar,Note Off,0,d4,
0,main guitar,Note Off,0,d5,
0,main guitar,Note Off,0,f#5,
0,main guitar,Note Off,0,a4,
0.738396166666667,main guitar,Note On,0,e5,
0,main guitar,Note On,0,e4,
0.00659282291666667,main guitar,Note On,0,b4,
0.309862677083333,main guitar,Note Off,0,e4,
0.0131856458333333,main guitar,Note Off,0,b4,
0.00659282291666667,main guitar,Note Off,0,e5,
0.679060760416667,main guitar,Note On,0,d4,
0,main guitar,Note On,0,a4,
0.00659282291666667,main guitar,Note On,0,e3,
0,main guitar,Note On,0,d5,
0.13844928125,main guitar,Note Off,0,a4,
0,main guitar,Note On,0,a4,
0.13844928125,main guitar,Note Off,0,d4,
0.00659282291666667,main guitar,Note Off,0,a4,
0,main guitar,Note On,0,d4,
0.0131856458333333,main guitar,Note Off,0,d5,
0,main guitar,Note On,0,a4,
0.00659282291666667,main guitar,Note On,0,d5,
0.290084208333333,main guitar,Note Off,0,d4,
0.01977846875,main guitar,Note Off,0,a4,
0.00659282291666667,main guitar,Note Off,0,d5,
0.0461497604166667,main guitar,Note Off,0,e3,
0.560389947916667,main guitar,Note On,0,c#4,
0.00659282291666667,main guitar,Note On,0,d5,
0,main guitar,Note On,0,a4,
0,main guitar,Note On,0,e3,
0.15822775,main guitar,Note Off,0,a4,
0.00659282291666667,main guitar,Note On,0,a4,
0.09889234375,main guitar,Note On,0,e3,
0.0131856458333333,main guitar,Note Off,0,e3,
0.0395569375,main guitar,Note On,0,f#5,
0.3164555,main guitar,Note Off,0,c#4,
0,main guitar,Note Off,0,f#5,
0.01977846875,main guitar,Note Off,0,d5,
0,main guitar,Note Off,0,a4,
0.224155979166667,main guitar,Note Off,0,e3,
0.388976552083333,main guitar,Note On,0,b4,
0,main guitar,Note On,0,e4,
0,main guitar,Note On,0,e3,
0.0329641145833333,main guitar,Note On,0,e5,
0.09889234375,main guitar,Note Off,0,b4,
0.00659282291666667,main guitar,Note On,0,b4,
0.079113875,main guitar,Note Off,0,e3,
0.0395569375,main guitar,Note Off,0,e4,
0.00659282291666667,main guitar,Note Off,0,e5,
0.0461497604166667,main guitar,Note On,0,e5,
0.0131856458333333,main guitar,Note On,0,g#5,
0.237341625,main guitar,Note Off,0,g#5,
0.01977846875,main guitar,Note Off,0,e5,
0.0131856458333333,main guitar,Note Off,0,b4,
0.0395569375,main guitar,Note On,0,b4,
0,main guitar,Note On,0,e4,
0,main guitar,Note On,0,e3,
0.0329641145833333,main guitar,Note On,0,e5,
0.09889234375,main guitar,Note Off,0,b4,
0.00659282291666667,main guitar,Note On,0,b4,
0.171413395833333,main guitar,Note Off,0,e5,
0,main guitar,Note On,0,e5,
0.0131856458333333,main guitar,Note On,0,g#5,
0.237341625,main guitar,Note Off,0,g#5,
0.01977846875,main guitar,Note Off,0,e5,
0.00659282291666667,main guitar,Note Off,0,e4,
0.00659282291666667,main guitar,Note Off,0,b4,
0.0395569375,main guitar,Note On,0,b4,
0,main guitar,Note On,0,e4,
0,main guitar,Note On,0,e3,
0.0329641145833333,main guitar,Note On,0,e5,
0.09889234375,main guitar,Note Off,0,b4,
0.00659282291666667,main guitar,Note On,0,b4,
0.0131856458333333,main guitar,Note Off,0,e3,
0.125263635416667,main guitar,Note On,0,e3,
0,main guitar,Note On,0,e5,
0,main guitar,Note On,0,e4,
0.00659282291666667,main guitar,Note On,0,b4,
0.0263712916666667,main guitar,Note Off,0,e5,
0.263712916666667,main guitar,Note Off,0,e3,
0.0131856458333333,main guitar,Note Off,0,e4,
0.00659282291666667,main guitar,Note Off,0,b4,
0,main guitar,Note Off,0,e4,
0.0131856458333333,main guitar,Note Off,0,b4,
0.00659282291666667,main guitar,Note Off,0,e5,
0.171413395833333,main guitar,Note Off,0,e3,
0.507647364583333,main guitar,Note On,0,d4,
0,main guitar,Note On,0,a4,
0.00659282291666667,main guitar,Note On,0,e3,
0,main guitar,Note On,0,d5,
0.13844928125,main guitar,Note Off,0,a4,
0,main guitar,Note On,0,a4,
0.13844928125,main guitar,Note Off,0,d4,
0.00659282291666667,main guitar,Note Off,0,a4,
0,main guitar,Note On,0,d4,
0.0131856458333333,main guitar,Note Off,0,d5,
0,main guitar,Note On,0,a4,
0.00659282291666667,main guitar,Note On,0,d5,
0.290084208333333,main guitar,Note Off,0,d4,
0.01977846875,main guitar,Note Off,0,a4,
0.00659282291666667,main guitar,Note Off,0,d5,
0.0461497604166667,main guitar,Note Off,0,e3,
0.560389947916667,main guitar,Note On,0,c#4,
0.00659282291666667,main guitar,Note On,0,d5,
0,main guitar,Note On,0,a4,
0.15822775,main guitar,Note Off,0,a4,
0.00659282291666667,main guitar,Note On,0,a4,
0.09889234375,main guitar,Note On,0,e3,
0.0131856458333333,main guitar,Note Off,0,e3,
0.0395569375,main guitar,Note On,0,f#5,
0.3164555,main guitar,Note Off,0,c#4,
0,main guitar,Note Off,0,f#5,
0.01977846875,main guitar,Note Off,0,d5,
0,main guitar,Note Off,0,a4,
0.61313253125,main guitar,Note On,0,e4,
0.00659282291666667,main guitar,Note On,0,b4,
0.270305739583333,main guitar,Note On,0,a4,
0,main guitar,Note On,0,c#6,
0,main guitar,Note On,0,a5,
0,main guitar,Note On,0,e5,
0.0395569375,main guitar,Note Off,0,e4,
0.0131856458333333,main guitar,Note Off,0,b4,
0.382383729166667,main guitar,Note Off,0,e5,
0.0131856458333333,main guitar,Note Off,0,c#6,
0.01977846875,main guitar,Note Off,0,a5,
0,main guitar,Note On,0,e4,
0,main guitar,Note On,0,g#5,
0,main guitar,Note On,0,b5,
0,main guitar,Note On,0,b4,
0,main guitar,Note On,0,e5,
0.00659282291666667,main guitar,Note Off,0,a4,
0.408755020833333,main guitar,Note Off,0,b4,
0.0263712916666667,main guitar,Note Off,0,b5,
0,main guitar,Note Off,0,e5,
0.0395569375,main guitar,Note Off,0,e4,
0.00659282291666667,main guitar,Note Off,0,g#5,
0.0263712916666667,main guitar,Note On,0,e4,
0,main guitar,Note On,0,a4,
0.0131856458333333,main guitar,Note On,0,c#6,
0,main guitar,Note On,0,a5,
0,main guitar,Note On,0,f#6,
0.00659282291666667,main guitar,Note On,0,e5,
0.263712916666667,main guitar,Note On,0,e3,
0,main guitar,Note On,0,e5,
0,main guitar,Note On,0,e4,
0.00659282291666667,main guitar,Note On,0,b4,
0.0263712916666667,main guitar,Note Off,0,e4,
0,main guitar,Note Off,0,a4,
0.00659282291666667,main guitar,Note Off,0,f#6,
0,main guitar,Note Off,0,e5,
0.0329641145833333,main guitar,Note Off,0,a5,
0.00659282291666667,main guitar,Note Off,0,c#6,
0.21756315625,main guitar,Note Off,0,e3,
0.01977846875,main guitar,Note Off,0,e4,
0.0131856458333333,main guitar,Note Off,0,b4,
0.00659282291666667,main guitar,Note Off,0,e5,
0.679060760416667,main guitar,Note On,0,d4,
0,main guitar,Note On,0,a4,
0.00659282291666667,main guitar,Note On,0,e3,
0,main guitar,Note On,0,d5,
0.13844928125,main guitar,Note Off,0,a4,
0,main guitar,Note On,0,a4,
0.13844928125,main guitar,Note Off,0,d4,
0.00659282291666667,main guitar,Note Off,0,a4,
0,main guitar,Note On,0,d4,
0.0131856458333333,main guitar,Note Off,0,d5,
0,main guitar,Note On,0,a4,
0.00659282291666667,main guitar,Note On,0,d5,
0.290084208333333,main guitar,Note Off,0,d4,
0.01977846875,main guitar,Note Off,0,a4,
0.00659282291666667,main guitar,Note Off,0,d5,
0.0461497604166667,main guitar,Note Off,0,e3,
0.560389947916667,main guitar,Note On,0,c#4,
0.00659282291666667,main guitar,Note On,0,d5,
0,main guitar,Note On,0,a4,
0,main guitar,Note On,0,e3,
0.15822775,main guitar,Note Off,0,a4,
0.00659282291666667,main guitar,Note On,0,a4,
0.09889234375,main guitar,Note On,0,e3,
0.0131856458333333,main guitar,Note Off,0,e3,
0.0395569375,main guitar,Note On,0,f#5,
0.3164555,main guitar,Note Off,0,c#4,
0,main guitar,Note Off,0,f#5,
0.01977846875,main guitar,Note Off,0,d5,
0,main guitar,Note Off,0,a4,
0.224155979166667,main guitar,Note Off,0,e3,
0.388976552083333,main guitar,Note On,0,b4,
0,main guitar,Note On,0,e4,
0,main guitar,Note On,0,e3,
0.0329641145833333,main guitar,Note On,0,e5,
0.09889234375,main guitar,Note Off,0,b4,
0.00659282291666667,main guitar,Note On,0,b4,
0.079113875,main guitar,Note Off,0,e3,
0.0395569375,main guitar,Note Off,0,e4,
0.00659282291666667,main guitar,Note Off,0,e5,
0.0461497604166667,main guitar,Note On,0,e5,
0.0131856458333333,main guitar,Note On,0,g#5,
0.237341625,main guitar,Note Off,0,g#5,
0.01977846875,main guitar,Note Off,0,e5,
0.0131856458333333,main guitar,Note Off,0,b4,
0.0395569375,main guitar,Note On,0,b4,
0,main guitar,Note On,0,e4,
0,main guitar,Note On,0,e3,
0.0329641145833333,main guitar,Note On,0,e5,
0.09889234375,main guitar,Note Off,0,b4,
0.00659282291666667,main guitar,Note On,0,b4,
0.171413395833333,main guitar,Note Off,0,e5,
0,main guitar,Note On,0,e5,
0.0131856458333333,main guitar,Note On,0,g#5,
0.237341625,main guitar,Note Off,0,g#5,
0.01977846875,main guitar,Note Off,0,e5,
0.00659282291666667,main guitar,Note Off,0,e4,
0.00659282291666667,main guitar,Note Off,0,b4,
0.0395569375,main guitar,Note On,0,b4,
0,main guitar,Note On,0,e4,
0,main guitar,Note On,0,e3,
0.0329641145833333,main guitar,Note On,0,e5,
0.09889234375,main guitar,Note Off,0,b4,
0.00659282291666667,main guitar,Note On,0,b4,
0.0131856458333333,main guitar,Note Off,0,e3,
0.125263635416667,main guitar,Note On,0,e3,
0,main guitar,Note On,0,e5,
0,main guitar,Note On,0,e4,
0.00659282291666667,main guitar,Note On,0,b4,
0.0263712916666667,main guitar,Note Off,0,e5,
0.263712916666667,main guitar,Note Off,0,e3,
0.0131856458333333,main guitar,Note Off,0,e4,
0.00659282291666667,main guitar,Note Off,0,b4,
0,main guitar,Note Off,0,e4,
0.0131856458333333,main guitar,Note Off,0,b4,
0.00659282291666667,main guitar,Note Off,0,e5,
0.171413395833333,main guitar,Note Off,0,e3,
0.507647364583333,main guitar,Note On,0,d4,
0,main guitar,Note On,0,a4,
0.00659282291666667,main guitar,Note On,0,e3,
0,main guitar,Note On,0,d5,
0.13844928125,main guitar,Note Off,0,a4,
0,main guitar,Note On,0,a4,
0.13844928125,main guitar,Note Off,0,d4,
0.00659282291666667,main guitar,Note Off,0,a4,
0,main guitar,Note On,0,d4,
0.0131856458333333,main guitar,Note Off,0,d5,
0,main guitar,Note On,0,a4,
0.00659282291666667,main guitar,Note On,0,d5,
0.290084208333333,main guitar,Note Off,0,d4,
0.01977846875,main guitar,Note Off,0,a4,
0.00659282291666667,main guitar,Note Off,0,d5,
0.0461497604166667,main guitar,Note Off,0,e3,
0.560389947916667,main guitar,Note On,0,c#4,
0.00659282291666667,main guitar,Note On,0,d5,
0,main guitar,Note On,0,a4,
0,main guitar,Note On,0,e3,
0.15822775,main guitar,Note Off,0,a4,
0.00659282291666667,main guitar,Note On,0,a4,
0.09889234375,main guitar,Note On,0,e3,
0.0131856458333333,main guitar,Note Off,0,e3,
0.0395569375,main guitar,Note On,0,f#5,
0.3164555,main guitar,Note Off,0,c#4,
0,main guitar,Note Off,0,f#5,
0.01977846875,main guitar,Note Off,0,d5,
0,main guitar,Note Off,0,a4,
0.224155979166667,main guitar,Note Off,0,e3,
0.388976552083333,main guitar,Note On,0,e4,
0.00659282291666667,main guitar,Note On,0,b4,
0.270305739583333,main guitar,Note On,0,a4,
0,main guitar,Note On,0,c#6,
0,main guitar,Note On,0,a5,
0,main guitar,Note On,0,e5,
0.0395569375,main guitar,Note Off,0,e4,
0.0131856458333333,main guitar,Note Off,0,b4,
0.382383729166667,main guitar,Note Off,0,e5,
0.0131856458333333,main guitar,Note Off,0,c#6,
0.01977846875,main guitar,Note Off,0,a5,
0,main guitar,Note On,0,e4,
0,main guitar,Note On,0,g#5,
0,main guitar,Note On,0,b5,
0,main guitar,Note On,0,b4,
0,main guitar,Note On,0,e5,
0.00659282291666667,main guitar,Note Off,0,a4,
0.408755020833333,main guitar,Note Off,0,b4,
0.0263712916666667,main guitar,Note Off,0,b5,
0,main guitar,Note Off,0,e5,
0.0395569375,main guitar,Note Off,0,e4,
0.00659282291666667,main guitar,Note Off,0,g#5,
0.0263712916666667,main guitar,Note On,0,e4,
0,main guitar,Note On,0,a4,
0.0131856458333333,main guitar,Note On,0,c#6,
0,main guitar,Note On,0,a5,
0,main guitar,Note On,0,f#6,
0.00659282291666667,main guitar,Note On,0,e5,
0.263712916666667,main guitar,Note On,0,e3,
0,main guitar,Note On,0,e5,
0,main guitar,Note On,0,e4,
0.00659282291666667,main guitar,Note On,0,b4,
0.0263712916666667,main guitar,Note Off,0,e4,
0,main guitar,Note Off,0,a4,
0.00659282291666667,main guitar,Note Off,0,f#6,
0,main guitar,Note Off,0,e5,
0.0329641145833333,main guitar,Note Off,0,a5,
0.00659282291666667,main guitar,Note Off,0,c#6,
0.21756315625,main guitar,Note Off,0,e3,
0.01977846875,main guitar,Note Off,0,e4,
0.0131856458333333,main guitar,Note Off,0,b4,
0.00659282291666667,main guitar,Note Off,0,e5,
0.679060760416667,main guitar,Note On,0,d4,
0,main guitar,Note On,0,a4,
0.00659282291666667,main guitar,Note On,0,e3,
0,main guitar,Note On,0,d5,
0.13844928125,main guitar,Note Off,0,a4,
0,main guitar,Note On,0,a4,
0.13844928125,main guitar,Note Off,0,d4,
0.00659282291666667,main guitar,Note Off,0,a4,
0,main guitar,Note On,0,d4,
0.0131856458333333,main guitar,Note Off,0,d5,
0,main guitar,Note On,0,a4,
0.00659282291666667,main guitar,Note On,0,d5,
0.290084208333333,main guitar,Note Off,0,d4,
0.01977846875,main guitar,Note Off,0,a4,
0.00659282291666667,main guitar,Note Off,0,d5,
0.0461497604166667,main guitar,Note Off,0,e3,
0.560389947916667,main guitar,Note On,0,c#4,
0.00659282291666667,main guitar,Note On,0,d5,
0,main guitar,Note On,0,a4,
0,main guitar,Note On,0,e3,
0.15822775,main guitar,Note Off,0,a4,
0.00659282291666667,main guitar,Note On,0,a4,
0.09889234375,main guitar,Note On,0,e3,
0.0131856458333333,main guitar,Note Off,0,e3,
0.0395569375,main guitar,Note On,0,f#5,
0.3164555,main guitar,Note Off,0,c#4,
0,main guitar,Note Off,0,f#5,
0.01977846875,main guitar,Note Off,0,d5,
0,main guitar,Note Off,0,a4,
0.224155979166667,main guitar,Note Off,0,e3,
0.388976552083333,main guitar,Note On,0,b4,
0,main guitar,Note On,0,e4,
0,main guitar,Note On,0,e3,
0.0329641145833333,main guitar,Note On,0,e5,
0.09889234375,main guitar,Note Off,0,b4,
0.00659282291666667,main guitar,Note On,0,b4,
0.079113875,main guitar,Note Off,0,e3,
0.0395569375,main guitar,Note Off,0,e4,
0.00659282291666667,main guitar,Note Off,0,e5,
0.0461497604166667,main guitar,Note On,0,e5,
0.0131856458333333,main guitar,Note On,0,g#5,
0.237341625,main guitar,Note Off,0,g#5,
0.01977846875,main guitar,Note Off,0,e5,
0.0131856458333333,main guitar,Note Off,0,b4,
0.0395569375,main guitar,Note On,0,b4,
0,main guitar,Note On,0,e4,
0,main guitar,Note On,0,e3,
0.0329641145833333,main guitar,Note On,0,e5,
0.09889234375,main guitar,Note Off,0,b4,
0.00659282291666667,main guitar,Note On,0,b4,
0.171413395833333,main guitar,Note Off,0,e5,
0,main guitar,Note On,0,e5,
0.0131856458333333,main guitar,Note On,0,g#5,
0.237341625,main guitar,Note Off,0,g#5,
0.01977846875,main guitar,Note Off,0,e5,
0.00659282291666667,main guitar,Note Off,0,e4,
0.00659282291666667,main guitar,Note Off,0,b4,
0.0395569375,main guitar,Note On,0,b4,
0,main guitar,Note On,0,e4,
0,main guitar,Note On,0,e3,
0.0329641145833333,main guitar,Note On,0,e5,
0.09889234375,main guitar,Note Off,0,b4,
0.00659282291666667,main guitar,Note On,0,b4,
0.0131856458333333,main guitar,Note Off,0,e3,
0.125263635416667,main guitar,Note On,0,e3,
0,main guitar,Note On,0,e5,
0,main guitar,Note On,0,e4,
0.00659282291666667,main guitar,Note On,0,b4,
0.0263712916666667,main guitar,Note Off,0,e5,
0.263712916666667,main guitar,Note Off,0,e3,
0.0131856458333333,main guitar,Note Off,0,e4,
0.00659282291666667,main guitar,Note Off,0,b4,
0,main guitar,Note Off,0,e4,
0.0131856458333333,main guitar,Note Off,0,b4,
0.00659282291666667,main guitar,Note Off,0,e5,
0.171413395833333,main guitar,Note Off,0,e3,
0.507647364583333,main guitar,Note On,0,d4,
0,main guitar,Note On,0,a4,
0.00659282291666667,main guitar,Note On,0,e3,
0,main guitar,Note On,0,d5,
0.13844928125,main guitar,Note Off,0,a4,
0,main guitar,Note On,0,a4,
0.13844928125,main guitar,Note Off,0,d4,
0.00659282291666667,main guitar,Note Off,0,a4,
0,main guitar,Note On,0,d4,
0.0131856458333333,main guitar,Note Off,0,d5,
0,main guitar,Note On,0,a4,
0.00659282291666667,main guitar,Note On,0,d5,
0.290084208333333,main guitar,Note Off,0,d4,
0.01977846875,main guitar,Note Off,0,a4,
0.00659282291666667,main guitar,Note Off,0,d5,
0.0461497604166667,main guitar,Note Off,0,e3,
0.560389947916667,main guitar,Note On,0,c#4,
0.00659282291666667,main guitar,Note On,0,d5,
0,main guitar,Note On,0,a4,
0,main guitar,Note On,0,e3,
0.15822775,main guitar,Note Off,0,a4,
0.00659282291666667,main guitar,Note On,0,a4,
0.09889234375,main guitar,Note On,0,e3,
0.0131856458333333,main guitar,Note Off,0,e3,
0.0395569375,main guitar,Note On,0,f#5,
0.3164555,main guitar,Note Off,0,c#4,
0,main guitar,Note Off,0,f#5,
0.01977846875,main guitar,Note Off,0,d5,
0,main guitar,Note Off,0,a4,
0.224155979166667,main guitar,Note Off,0,e3,
0.388976552083333,main guitar,Note On,0,e4,
0.00659282291666667,main guitar,Note On,0,b4,
0.270305739583333,main guitar,Note On,0,a4,
0,main guitar,Note On,0,c#6,
0,main guitar,Note On,0,a5,
0,main guitar,Note On,0,e5,
0.0395569375,main guitar,Note Off,0,e4,
0.0131856458333333,main guitar,Note Off,0,b4,
0.382383729166667,main guitar,Note Off,0,e5,
0.0131856458333333,main guitar,Note Off,0,c#6,
0.01977846875,main guitar,Note Off,0,a5,
0,main guitar,Note On,0,e4,
0,main guitar,Note On,0,g#5,
0,main guitar,Note On,0,b5,
0,main guitar,Note On,0,b4,
0,main guitar,Note On,0,e5,
0.00659282291666667,main guitar,Note Off,0,a4,
0.408755020833333,main guitar,Note Off,0,b4,
0.0263712916666667,main guitar,Note Off,0,b5,
0,main guitar,Note Off,0,e5,
0.0395569375,main guitar,Note Off,0,e4,
0.00659282291666667,main guitar,Note Off,0,g#5,
0.0263712916666667,main guitar,Note On,0,e4,
0,main guitar,Note On,0,a4,
0.0131856458333333,main guitar,Note On,0,c#6,
0,main guitar,Note On,0,a5,
0,main guitar,Note On,0,f#6,
0.00659282291666667,main guitar,Note On,0,e5,
0.263712916666667,main guitar,Note On,0,e3,
0,main guitar,Note On,0,e5,
0,main guitar,Note On,0,e4,
0.00659282291666667,main guitar,Note On,0,b4,
0.0263712916666667,main guitar,Note Off,0,e4,
0,main guitar,Note Off,0,a4,
0.00659282291666667,main guitar,Note Off,0,f#6,
0,main guitar,Note Off,0,e5,
0.0329641145833333,main guitar,Note Off,0,a5,
0.00659282291666667,main guitar,Note Off,0,c#6,
0.21756315625,main guitar,Note Off,0,e3,
0.01977846875,main guitar,Note Off,0,e4,
0.0131856458333333,main guitar,Note Off,0,b4,
0.00659282291666667,main guitar,Note Off,0,e5,
0.679060760416667,main guitar,Note On,0,d4,
0,main guitar,Note On,0,a4,
0.00659282291666667,main guitar,Note On,0,e3,
0,main guitar,Note On,0,d5,
0.13844928125,main guitar,Note Off,0,a4,
0,main guitar,Note On,0,a4,
0.13844928125,main guitar,Note Off,0,d4,
0.00659282291666667,main guitar,Note Off,0,a4,
0,main guitar,Note On,0,d4,
0.0131856458333333,main guitar,Note Off,0,d5,
0,main guitar,Note On,0,a4,
0.00659282291666667,main guitar,Note On,0,d5,
0.290084208333333,main guitar,Note Off,0,d4,
0.01977846875,main guitar,Note Off,0,a4,
0.00659282291666667,main guitar,Note Off,0,d5,
0.0461497604166667,main guitar,Note Off,0,e3,
0.560389947916667,main guitar,Note On,0,c#4,
0.00659282291666667,main guitar,Note On,0,d5,
0,main guitar,Note On,0,a4,
0,main guitar,Note On,0,e3,
0.15822775,main guitar,Note Off,0,a4,
0.00659282291666667,main guitar,Note On,0,a4,
0.09889234375,main guitar,Note On,0,e3,
0.0131856458333333,main guitar,Note Off,0,e3,
0.0395569375,main guitar,Note On,0,f#5,
0.3164555,main guitar,Note Off,0,c#4,
0,main guitar,Note Off,0,f#5,
0.01977846875,main guitar,Note Off,0,d5,
0,main guitar,Note Off,0,a4,
0.224155979166667,main guitar,Note Off,0,e3,
0.388976552083333,main guitar,Note On,0,b4,
0,main guitar,Note On,0,e4,
0,main guitar,Note On,0,e3,
0.0329641145833333,main guitar,Note On,0,e5,
0.09889234375,main guitar,Note Off,0,b4,
0.00659282291666667,main guitar,Note On,0,b4,
0.079113875,main guitar,Note Off,0,e3,
0.0395569375,main guitar,Note Off,0,e4,
0.00659282291666667,main guitar,Note Off,0,e5,
0.0461497604166667,main guitar,Note On,0,e5,
0.0131856458333333,main guitar,Note On,0,g#5,
0.237341625,main guitar,Note Off,0,g#5,
0.01977846875,main guitar,Note Off,0,e5,
0.0131856458333333,main guitar,Note Off,0,b4,
0.0395569375,main guitar,Note On,0,b4,
0,main guitar,Note On,0,e4,
0,main guitar,Note On,0,e3,
0.0329641145833333,main guitar,Note On,0,e5,
0.09889234375,main guitar,Note Off,0,b4,
0.00659282291666667,main guitar,Note On,0,b4,
0.171413395833333,main guitar,Note Off,0,e5,
0,main guitar,Note On,0,e5,
0.0131856458333333,main guitar,Note On,0,g#5,
0.237341625,main guitar,Note Off,0,g#5,
0.01977846875,main guitar,Note Off,0,e5,
0.00659282291666667,main guitar,Note Off,0,e4,
0.00659282291666667,main guitar,Note Off,0,b4,
0.0395569375,main guitar,Note On,0,b4,
0,main guitar,Note On,0,e4,
0,main guitar,Note On,0,e3,
0.0329641145833333,main guitar,Note On,0,e5,
0.09889234375,main guitar,Note Off,0,b4,
0.00659282291666667,main guitar,Note On,0,b4,
0.0131856458333333,main guitar,Note Off,0,e3,
0.125263635416667,main guitar,Note On,0,e3,
0,main guitar,Note On,0,e5,
0,main guitar,Note On,0,e4,
0.00659282291666667,main guitar,Note On,0,b4,
0.0263712916666667,main guitar,Note Off,0,e5,
0.263712916666667,main guitar,Note Off,0,e3,
0.0131856458333333,main guitar,Note Off,0,e4,
0.00659282291666667,main guitar,Note Off,0,b4,
0,main guitar,Note Off,0,e4,
0.0131856458333333,main guitar,Note Off,0,b4,
0.00659282291666667,main guitar,Note Off,0,e5,
0.171413395833333,main guitar,Note Off,0,e3,
0.507647364583333,main guitar,Note On,0,d4,
0,main guitar,Note On,0,a4,
0.00659282291666667,main guitar,Note On,0,e3,
0,main guitar,Note On,0,d5,
0.13844928125,main guitar,Note Off,0,a4,
0,main guitar,Note On,0,a4,
0.13844928125,main guitar,Note Off,0,d4,
0.00659282291666667,main guitar,Note Off,0,a4,
0,main guitar,Note On,0,d4,
0.0131856458333333,main guitar,Note Off,0,d5,
0,main guitar,Note On,0,a4,
0.00659282291666667,main guitar,Note On,0,d5,
0.290084208333333,main guitar,Note Off,0,d4,
0.01977846875,main guitar,Note Off,0,a4,
0.00659282291666667,main guitar,Note Off,0,d5,
0.0461497604166667,main guitar,Note Off,0,e3,
0.560389947916667,main guitar,Note On,0,c#4,
0.00659282291666667,main guitar,Note On,0,d5,
0,main guitar,Note On,0,a4,
0,main guitar,Note On,0,e3,
0.15822775,main guitar,Note Off,0,a4,
0.00659282291666667,main guitar,Note On,0,a4,
0.09889234375,main guitar,Note On,0,e3,
0.0131856458333333,main guitar,Note Off,0,e3,
0.0395569375,main guitar,Note On,0,f#5,
0.3164555,main guitar,Note Off,0,c#4,
0,main guitar,Note Off,0,f#5,
0.01977846875,main guitar,Note Off,0,d5,
0,main guitar,Note Off,0,a4,
0.224155979166667,main guitar,Note Off,0,e3,
0.388976552083333,main guitar,Note On,0,e4,
0.00659282291666667,main guitar,Note On,0,b4,
0.270305739583333,main guitar,Note On,0,a4,
0,main guitar,Note On,0,c#6,
0,main guitar,Note On,0,a5,
0,main guitar,Note On,0,e5,
0.0395569375,main guitar,Note Off,0,e4,
0.0131856458333333,main guitar,Note Off,0,b4,
0.382383729166667,main guitar,Note Off,0,e5,
0.0131856458333333,main guitar,Note Off,0,c#6,
0.01977846875,main guitar,Note Off,0,a5,
0,main guitar,Note On,0,e4,
0,main guitar,Note On,0,g#5,
0,main guitar,Note On,0,b5,
0,main guitar,Note On,0,b4,
0,main guitar,Note On,0,e5,
0.00659282291666667,main guitar,Note Off,0,a4,
0.408755020833333,main guitar,Note Off,0,b4,
0.0263712916666667,main guitar,Note Off,0,b5,
0,main guitar,Note Off,0,e5,
0.0395569375,main guitar,Note Off,0,e4,
0.00659282291666667,main guitar,Note Off,0,g#5,
0.0263712916666667,main guitar,Note On,0,e4,
0,main guitar,Note On,0,a4,
0.0131856458333333,main guitar,Note On,0,c#6,
0,main guitar,Note On,0,a5,
0,main guitar,Note On,0,f#6,
0.00659282291666667,main guitar,Note On,0,e5,
0.29667703125,main guitar,Note Off,0,e4,
0,main guitar,Note Off,0,a4,
0.00659282291666667,main guitar,Note Off,0,f#6,
0,main guitar,Note Off,0,e5,
0.0329641145833333,main guitar,Note Off,0,a5,
0.00659282291666667,main guitar,Note Off,0,c#6,
0.2768985625,main guitar,Note On,0,a5,
0,main guitar,Note On,0,e5,
0,main guitar,Note On,0,a6,
0,main guitar,Note On,0,e6,
0.0263712916666667,main guitar,Note On,0,a4,
0,main guitar,Note On,0,a5,
0.309862677083333,main guitar,Note Off,0,a5,
0,main guitar,Note Off,0,a6,
0.0131856458333333,main guitar,Note Off,0,e5,
0,main guitar,Note Off,0,e6,
0.13844928125,main guitar,Note Off,0,a4,
0,main guitar,Note Off,0,a5,
0,main guitar,Note On,0,b4,
0,main guitar,Note On,0,b5,
0.0263712916666667,main guitar,Note Off,0,b4,
0,main guitar,Note Off,0,b5,
0.00659282291666667,main guitar,Note On,0,e4,
0,main guitar,Note On,0,b4,
0,main guitar,Note On,0,e5,
0,main guitar,Note On,0,b5,
0.17800621875,main guitar,Note Off,0,b4,
0,main guitar,Note Off,0,b5,
0.112077989583333,main guitar,Note On,0,b4,
0,main guitar,Note On,0,b5,
0.00659282291666667,main guitar,Note On,0,f#5,
0,main guitar,Note On,0,b5,
0,main guitar,Note On,0,f#6,
0,main guitar,Note On,0,b6,
0.0725210520833333,main guitar,Note Off,0,e4,
0,main guitar,Note Off,0,e5,
0.37579090625,main guitar,Note Off,0,b4,
0,main guitar,Note Off,0,b5,
0.09889234375,main guitar,Note Off,0,f#5,
0,main guitar,Note Off,0,f#6,
0.00659282291666667,main guitar,Note Off,0,b5,
0,main guitar,Note Off,0,b6,
0,main guitar,Note On,0,a5,
0,main guitar,Note On,0,a6,
0.01977846875,main guitar,Note On,0,e5,
0,main guitar,Note On,0,e6,
0.0329641145833333,main guitar,Note On,0,a4,
0,main guitar,Note On,0,a5,
0.184599041666667,main guitar,Note Off,0,e5,
0,main guitar,Note Off,0,e6,
0.0131856458333333,main guitar,Note Off,0,a5,
0,main guitar,Note Off,0,a6,
0,main guitar,Note On,0,g5,
0,main guitar,Note On,0,g6,
0.125263635416667,main guitar,Note Off,0,g5,
0,main guitar,Note Off,0,g6,
0.00659282291666667,main guitar,Note On,0,f#5,
0,main guitar,Note On,0,g5,
0,main guitar,Note On,0,f#6,
0,main guitar,Note On,0,g6,
0.0329641145833333,main guitar,Note Off,0,a4,
0,main guitar,Note Off,0,a5,
0,main guitar,Note Off,0,g5,
0,main guitar,Note Off,0,g6,
0,main guitar,Note On,0,b4,
0,main guitar,Note On,0,b5,
0,main guitar,Note On,0,b5,
0,main guitar,Note On,0,b6,
0.184599041666667,main guitar,Note Off,0,b4,
0,main guitar,Note Off,0,b5,
0,main guitar,Note Off,0,b5,
0,main guitar,Note Off,0,b6,
0.00659282291666667,main guitar,Note Off,0,f#5,
0,main guitar,Note Off,0,f#6,
0.553797125,main guitar,Note On,0,a5,
0,main guitar,Note On,0,e5,
0,main guitar,Note On,0,a6,
0,main guitar,Note On,0,e6,
0.0263712916666667,main guitar,Note On,0,a4,
0,main guitar,Note On,0,a5,
0.309862677083333,main guitar,Note Off,0,a5,
0,main guitar,Note Off,0,a6,
0.0131856458333333,main guitar,Note Off,0,e5,
0,main guitar,Note Off,0,e6,
0.13844928125,main guitar,Note Off,0,a4,
0,main guitar,Note Off,0,a5,
0,main guitar,Note On,0,b4,
0,main guitar,Note On,0,b5,
0.0263712916666667,main guitar,Note Off,0,b4,
0,main guitar,Note Off,0,b5,
0.00659282291666667,main guitar,Note On,0,e4,
0,main guitar,Note On,0,b4,
0,main guitar,Note On,0,e5,
0,main guitar,Note On,0,b5,
0.17800621875,main guitar,Note Off,0,b4,
0,main guitar,Note Off,0,b5,
0.112077989583333,main guitar,Note On,0,b4,
0,main guitar,Note On,0,b5,
0.00659282291666667,main guitar,Note On,0,f#5,
0,main guitar,Note On,0,b5,
0,main guitar,Note On,0,f#6,
0,main guitar,Note On,0,b6,
0.0725210520833333,main guitar,Note Off,0,e4,
0,main guitar,Note Off,0,e5,
0.37579090625,main guitar,Note Off,0,b4,
0,main guitar,Note Off,0,b5,
0.09889234375,main guitar,Note Off,0,f#5,
0,main guitar,Note Off,0,f#6,
0.00659282291666667,main guitar,Note Off,0,b5,
0,main guitar,Note Off,0,b6,
0,main guitar,Note On,0,a5,
0,main guitar,Note On,0,a6,
0.01977846875,main guitar,Note On,0,e5,
0,main guitar,Note On,0,e6,
0.0329641145833333,main guitar,Note On,0,a4,
0,main guitar,Note On,0,a5,
0.184599041666667,main guitar,Note Off,0,e5,
0,main guitar,Note Off,0,e6,
0.0131856458333333,main guitar,Note Off,0,a5,
0,main guitar,Note Off,0,a6,
0,main guitar,Note On,0,g5,
0,main guitar,Note On,0,g6,
0.125263635416667,main guitar,Note Off,0,g5,
0,main guitar,Note Off,0,g6,
0.00659282291666667,main guitar,Note On,0,f#5,
0,main guitar,Note On,0,g5,
0,main guitar,Note On,0,f#6,
0,main guitar,Note On,0,g6,
0.0329641145833333,main guitar,Note Off,0,a4,
0,main guitar,Note Off,0,a5,
0,main guitar,Note Off,0,g5,
0,main guitar,Note Off,0,g6,
0,main guitar,Note On,0,b4,
0,main guitar,Note On,0,b5,
0,main guitar,Note On,0,b5,
0,main guitar,Note On,0,b6,
0.184599041666667,main guitar,Note Off,0,b4,
0,main guitar,Note Off,0,b5,
0,main guitar,Note Off,0,b5,
0,main guitar,Note Off,0,b6,
0.00659282291666667,main guitar,Note Off,0,f#5,
0,main guitar,Note Off,0,f#6,
0.4351263125,main guitar,Note On,0,d6,
0.0395569375,main guitar,Note On,0,g5,
0.0131856458333333,main guitar,Note On,0,g6,
0.05933540625,main guitar,Note On,0,d5,
0.184599041666667,main guitar,Note Off,0,g6,
0.0131856458333333,main guitar,Note Off,0,d6,
0.1977846875,main guitar,Note Off,0,g5,
0.0527425833333333,main guitar,Note Off,0,d5,
0.00659282291666667,main guitar,Note On,0,d5,
0.0263712916666667,main guitar,Note On,0,f#6,
0,main guitar,Note On,0,d6,
0.01977846875,main guitar,Note On,0,a5,
0.17800621875,main guitar,Note Off,0,a5,
0.0131856458333333,main guitar,Note Off,0,f#6,
0.01977846875,main guitar,Note Off,0,d6,
0.1977846875,main guitar,Note Off,0,d5,
0.00659282291666667,main guitar,Note On,0,d5,
0.01977846875,main guitar,Note On,0,a4,
0.01977846875,main guitar,Note On,0,a5,
0.0461497604166667,main guitar,Note Off,0,d5,
0,main guitar,Note On,0,e5,
0.37579090625,main guitar,Note Off,0,a4,
0.05933540625,main guitar,Note Off,0,e5,
0.00659282291666667,main guitar,Note On,0,g4,
0.0263712916666667,main guitar,Note On,0,c5,
0,main guitar,Note Off,0,c5,
0.191191864583333,main guitar,Note Off,0,g4,
0.01977846875,main guitar,Note Off,0,a5,
0.00659282291666667,main guitar,Note On,0,a5,
0.01977846875,main guitar,Note On,0,a4,
0.0131856458333333,main guitar,Note On,0,e5,
0.461497604166667,main guitar,Note On,0,a4,
0.131856458333333,main guitar,Note Off,0,a5,
0.00659282291666667,main guitar,Note Off,0,e5,
0.112077989583333,main guitar,Note On,0,g6,
0.00659282291666667,main guitar,Note Off,0,a4,
0.00659282291666667,main guitar,Note On,0,d6,
0,main guitar,Note On,0,g4,
0.0131856458333333,main guitar,Note On,0,d5,
0.0461497604166667,main guitar,Note On,0,g5,
0.15822775,main guitar,Note Off,0,g4,
0.0329641145833333,main guitar,Note Off,0,d6,
0.00659282291666667,main guitar,Note Off,0,g6,
0.210970333333333,main guitar,Note Off,0,a4,
0,main guitar,Note Off,0,g5,
0.0527425833333333,main guitar,Note On,0,f#6,
0,main guitar,Note On,0,d6,
0,main guitar,Note On,0,a5,
0.00659282291666667,main guitar,Note On,0,d5,
0.210970333333333,main guitar,Note Off,0,d5,
0.0329641145833333,main guitar,Note Off,0,a5,
0.0329641145833333,main guitar,Note Off,0,f#6,
0.0395569375,main guitar,Note Off,0,d6,
0.13844928125,main guitar,Note Off,0,d5,
0,main guitar,Note On,0,e5,
0.01977846875,main guitar,Note On,0,a4,
0.0395569375,main guitar,Note On,0,a5,
0.45490478125,main guitar,Note Off,0,e5,
0,main guitar,Note Off,0,a4,
0.01977846875,main guitar,Note On,0,g4,
0.237341625,main guitar,Note Off,0,g4,
0.0131856458333333,main guitar,Note Off,0,a5,
0.0131856458333333,main guitar,Note On,0,a5,
0,main guitar,Note On,0,a#4,
0.01977846875,main guitar,Note On,0,f5,
0.09889234375,main guitar,Note Off,0,a#4,
0,main guitar,Note On,0,a4,
0.0395569375,main guitar,Note Off,0,f5,
0.00659282291666667,main guitar,Note On,0,e5,
0.619725354166667,main guitar,Note Off,0,a5,
0,main guitar,Note Off,0,e5,
0.05933540625,main guitar,Note On,0,a5,
0,main guitar,Note On,0,e5,
0,main guitar,Note On,0,a6,
0,main guitar,Note On,0,e6,
0.0263712916666667,main guitar,Note On,0,a4,
0,main guitar,Note On,0,a5,
0.0263712916666667,main guitar,Note Off,0,a4,
0.283491385416667,main guitar,Note Off,0,a5,
0,main guitar,Note Off,0,a6,
0.0131856458333333,main guitar,Note Off,0,e5,
0,main guitar,Note Off,0,e6,
0.13844928125,main guitar,Note Off,0,a4,
0,main guitar,Note Off,0,a5,
0,main guitar,Note On,0,b4,
0,main guitar,Note On,0,b5,
0.0263712916666667,main guitar,Note Off,0,b4,
0,main guitar,Note Off,0,b5,
0.00659282291666667,main guitar,Note On,0,e4,
0,main guitar,Note On,0,b4,
0,main guitar,Note On,0,e5,
0,main guitar,Note On,0,b5,
0.17800621875,main guitar,Note Off,0,b4,
0,main guitar,Note Off,0,b5,
0.112077989583333,main guitar,Note On,0,b4,
0,main guitar,Note On,0,b5,
0.00659282291666667,main guitar,Note On,0,f#5,
0,main guitar,Note On,0,b5,
0,main guitar,Note On,0,f#6,
0,main guitar,Note On,0,b6,
0.0725210520833333,main guitar,Note Off,0,e4,
0,main guitar,Note Off,0,e5,
0.37579090625,main guitar,Note Off,0,b4,
0,main guitar,Note Off,0,b5,
0.09889234375,main guitar,Note Off,0,f#5,
0,main guitar,Note Off,0,f#6,
0.00659282291666667,main guitar,Note Off,0,b5,
0,main guitar,Note Off,0,b6,
0,main guitar,Note On,0,a5,
0,main guitar,Note On,0,a6,
0.01977846875,main guitar,Note On,0,e5,
0,main guitar,Note On,0,e6,
0.0329641145833333,main guitar,Note On,0,a4,
0,main guitar,Note On,0,a5,
0.184599041666667,main guitar,Note Off,0,e5,
0,main guitar,Note Off,0,e6,
0.0131856458333333,main guitar,Note Off,0,a5,
0,main guitar,Note Off,0,a6,
0,main guitar,Note On,0,g5,
0,main guitar,Note On,0,g6,
0.125263635416667,main guitar,Note Off,0,g5,
0,main guitar,Note Off,0,g6,
0.00659282291666667,main guitar,Note On,0,f#5,
0,main guitar,Note On,0,g5,
0,main guitar,Note On,0,f#6,
0,main guitar,Note On,0,g6,
0.0329641145833333,main guitar,Note Off,0,a4,
0,main guitar,Note Off,0,a5,
0,main guitar,Note Off,0,g5,
0,main guitar,Note Off,0,g6,
0,main guitar,Note On,0,b4,
0,main guitar,Note On,0,b5,
0,main guitar,Note On,0,b5,
0,main guitar,Note On,0,b6,
0.184599041666667,main guitar,Note Off,0,b4,
0,main guitar,Note Off,0,b5,
0,main guitar,Note Off,0,b5,
0,main guitar,Note Off,0,b6,
0.00659282291666667,main guitar,Note Off,0,f#5,
0,main guitar,Note Off,0,f#6,
0.553797125,main guitar,Note On,0,a5,
0,main guitar,Note On,0,e5,
0,main guitar,Note On,0,a6,
0,main guitar,Note On,0,e6,
0.0263712916666667,main guitar,Note On,0,a4,
0,main guitar,Note On,0,a5,
0.309862677083333,main guitar,Note Off,0,a5,
0,main guitar,Note Off,0,a6,
0.0131856458333333,main guitar,Note Off,0,e5,
0,main guitar,Note Off,0,e6,
0.13844928125,main guitar,Note Off,0,a4,
0,main guitar,Note Off,0,a5,
0,main guitar,Note On,0,b4,
0,main guitar,Note On,0,b5,
0.0263712916666667,main guitar,Note Off,0,b4,
0,main guitar,Note Off,0,b5,
0.00659282291666667,main guitar,Note On,0,e4,
0,main guitar,Note On,0,b4,
0,main guitar,Note On,0,e5,
0,main guitar,Note On,0,b5,
0.17800621875,main guitar,Note Off,0,b4,
0,main guitar,Note Off,0,b5,
0.112077989583333,main guitar,Note On,0,b4,
0,main guitar,Note On,0,b5,
0.00659282291666667,main guitar,Note On,0,f#5,
0,main guitar,Note On,0,b5,
0,main guitar,Note On,0,f#6,
0,main guitar,Note On,0,b6,
0.0725210520833333,main guitar,Note Off,0,e4,
0,main guitar,Note Off,0,e5,
0.37579090625,main guitar,Note Off,0,b4,
0,main guitar,Note Off,0,b5,
0.09889234375,main guitar,Note Off,0,f#5,
0,main guitar,Note Off,0,f#6,
0.00659282291666667,main guitar,Note Off,0,b5,
0,main guitar,Note Off,0,b6,
0,main guitar,Note On,0,a5,
0,main guitar,Note On,0,a6,
0.01977846875,main guitar,Note On,0,e5,
0,main guitar,Note On,0,e6,
0.0329641145833333,main guitar,Note On,0,a4,
0,main guitar,Note On,0,a5,
0.184599041666667,main guitar,Note Off,0,e5,
0,main guitar,Note Off,0,e6,
0.0131856458333333,main guitar,Note Off,0,a5,
0,main guitar,Note Off,0,a6,
0,main guitar,Note On,0,g5,
0,main guitar,Note On,0,g6,
0.125263635416667,main guitar,Note Off,0,g5,
0,main guitar,Note Off,0,g6,
0.00659282291666667,main guitar,Note On,0,f#5,
0,main guitar,Note On,0,g5,
0,main guitar,Note On,0,f#6,
0,main guitar,Note On,0,g6,
0.0329641145833333,main guitar,Note Off,0,a4,
0,main guitar,Note Off,0,a5,
0,main guitar,Note Off,0,g5,
0,main guitar,Note Off,0,g6,
0,main guitar,Note On,0,b4,
0,main guitar,Note On,0,b5,
0,main guitar,Note On,0,b5,
0,main guitar,Note On,0,b6,
0.184599041666667,main guitar,Note Off,0,b4,
0,main guitar,Note Off,0,b5,
0,main guitar,Note Off,0,b5,
0,main guitar,Note Off,0,b6,
0.00659282291666667,main guitar,Note Off,0,f#5,
0,main guitar,Note Off,0,f#6,
0.1977846875,main guitar,Note On,0,d4,
0,main guitar,Note On,0,g4,
0,main guitar,Note On,0,g5,
0,main guitar,Note On,0,d5,
0,main guitar,Note On,0,b4,
0.3164555,main guitar,Note Off,0,d4,
0,main guitar,Note Off,0,g4,
0,main guitar,Note Off,0,g5,
0,main guitar,Note Off,0,d5,
0,main guitar,Note Off,0,b4,
0.15822775,main guitar,Note On,0,d4,
0,main guitar,Note On,0,g4,
0,main guitar,Note On,0,g5,
0,main guitar,Note On,0,d5,
0,main guitar,Note On,0,b4,
0.3164555,main guitar,Note Off,0,d4,
0,main guitar,Note Off,0,g4,
0,main guitar,Note Off,0,g5,
0,main guitar,Note Off,0,d5,
0,main guitar,Note Off,0,b4,
0.15822775,main guitar,Note On,0,d4,
0,main guitar,Note On,0,g4,
0,main guitar,Note On,0,g5,
0,main guitar,Note On,0,d5,
0,main guitar,Note On,0,b4,
0.3164555,main guitar,Note Off,0,d4,
0,main guitar,Note Off,0,g4,
0,main guitar,Note Off,0,g5,
0,main guitar,Note Off,0,d5,
0,main guitar,Note Off,0,b4,
0.15822775,main guitar,Note On,0,d4,
0,main guitar,Note On,0,g4,
0,main guitar,Note On,0,b4,
0,main guitar,Note On,0,d5,
0,main guitar,Note On,0,g5,
0.105485166666667,main guitar,Note Off,0,d4,
0,main guitar,Note Off,0,g4,
0,main guitar,Note Off,0,b4,
0,main guitar,Note Off,0,d5,
0,main guitar,Note Off,0,g5,
0.0527425833333333,main guitar,Note On,0,b4,
0,main guitar,Note On,0,g5,
0,main guitar,Note On,0,c#4,
0.105485166666667,main guitar,Note Off,0,b4,
0,main guitar,Note Off,0,g5,
0,main guitar,Note Off,0,c#4,
0.0527425833333333,main guitar,Note On,0,d4,
0,main guitar,Note On,0,b4,
0,main guitar,Note On,0,g4,
0,main guitar,Note On,0,d5,
0,main guitar,Note On,0,g5,
0.105485166666667,main guitar,Note Off,0,d4,
0,main guitar,Note Off,0,b4,
0,main guitar,Note Off,0,g4,
0,main guitar,Note Off,0,d5,
0,main guitar,Note Off,0,g5,
0.0527425833333333,main guitar,Note On,0,d4,
0,main guitar,Note On,0,g4,
0,main guitar,Note On,0,b4,
0,main guitar,Note On,0,d5,
0,main guitar,Note On,0,g5,
0.210970333333333,main guitar,Note Off,0,d4,
0,main guitar,Note Off,0,g4,
0,main guitar,Note Off,0,b4,
0,main guitar,Note Off,0,d5,
0,main guitar,Note Off,0,g5,
0.105485166666667,main guitar,Note On,0,d4,
0,main guitar,Note On,0,g4,
0,main guitar,Note On,0,b4,
0,main guitar,Note On,0,d5,
0,main guitar,Note On,0,g5,
0.210970333333333,main guitar,Note Off,0,d4,
0,main guitar,Note Off,0,g4,
0,main guitar,Note Off,0,b4,
0,main guitar,Note Off,0,d5,
0,main guitar,Note Off,0,g5,
0.105485166666667,main guitar,Note On,0,d5,
0,main guitar,Note On,0,a5,
0,main guitar,Note On,0,d6,
0,main guitar,Note On,0,f#6,
0.3164555,main guitar,Note Off,0,d5,
0,main guitar,Note Off,0,a5,
0,main guitar,Note Off,0,d6,
0,main guitar,Note Off,0,f#6,
0.15822775,main guitar,Note On,0,d5,
0,main guitar,Note On,0,a5,
0,main guitar,Note On,0,d6,
0,main guitar,Note On,0,f#6,
0.3164555,main guitar,Note Off,0,d5,
0,main guitar,Note Off,0,a5,
0,main guitar,Note Off,0,d6,
0,main guitar,Note Off,0,f#6,
0.15822775,main guitar,Note On,0,d5,
0,main guitar,Note On,0,a5,
0,main guitar,Note On,0,d6,
0,main guitar,Note On,0,f#6,
1.265822,main guitar,Note Off,0,d5,
0,main guitar,Note Off,0,a5,
0,main guitar,Note Off,0,d6,
0,main guitar,Note Off,0,f#6,
0.3164555,main guitar,Note On,0,e4,
0,main guitar,Note On,0,e5,
0.105485166666667,main guitar,Note Off,0,e4,
0,main guitar,Note Off,0,e5,
0.0527425833333333,main guitar,Note On,0,d5,
0,main guitar,Note On,0,d6,
0.105485166666667,main guitar,Note Off,0,d5,
0,main guitar,Note Off,0,d6,
0.0527425833333333,main guitar,Note On,0,c#5,
0,main guitar,Note On,0,c#6,
0.105485166666667,main guitar,Note Off,0,c#5,
0,main guitar,Note Off,0,c#6,
0.0527425833333333,main guitar,Note On,0,b4,
0,main guitar,Note On,0,b5,
0.105485166666667,main guitar,Note Off,0,b4,
0,main guitar,Note Off,0,b5,
0.0527425833333333,main guitar,Note On,0,c#5,
0,main guitar,Note On,0,c#6,
0.105485166666667,main guitar,Note Off,0,c#5,
0,main guitar,Note Off,0,c#6,
0.0527425833333333,main guitar,Note On,0,g4,
0,main guitar,Note On,0,g5,
0.210970333333333,main guitar,Note Off,0,g4,
0,main guitar,Note Off,0,g5,
0.105485166666667,main guitar,Note On,0,b4,
0,main guitar,Note On,0,b5,
0.105485166666667,main guitar,Note Off,0,b4,
0,main guitar,Note Off,0,b5,
0.0527425833333333,main guitar,Note On,0,a4,
0,main guitar,Note On,0,a5,
0.210970333333333,main guitar,Note Off,0,a4,
0,main guitar,Note Off,0,a5,
0.105485166666667,main guitar,Note On,0,b4,
0,main guitar,Note On,0,b5,
0.105485166666667,main guitar,Note Off,0,b4,
0,main guitar,Note Off,0,b5,
0.0527425833333333,main guitar,Note On,0,a#4,
0,main guitar,Note On,0,a#5,
0.210970333333333,main guitar,Note Off,0,a#4,
0,main guitar,Note Off,0,a#5,
0.105485166666667,main guitar,Note On,0,b4,
0,main guitar,Note On,0,b5,
0.105485166666667,main guitar,Note Off,0,b4,
0,main guitar,Note Off,0,b5,
0.0527425833333333,main guitar,Note On,0,b4,
0,main guitar,Note On,0,b5,
0.210970333333333,main guitar,Note Off,0,b4,
0,main guitar,Note Off,0,b5,
0.105485166666667,main guitar,Note On,0,e4,
0,main guitar,Note On,0,e5,
0.105485166666667,main guitar,Note Off,0,e4,
0,main guitar,Note Off,0,e5,
0.0527425833333333,main guitar,Note On,0,d5,
0,main guitar,Note On,0,d6,
0.105485166666667,main guitar,Note Off,0,d5,
0,main guitar,Note Off,0,d6,
0.0527425833333333,main guitar,Note On,0,c#5,
0,main guitar,Note On,0,c#6,
0.105485166666667,main guitar,Note Off,0,c#5,
0,main guitar,Note Off,0,c#6,
0.0527425833333333,main guitar,Note On,0,b4,
0,main guitar,Note On,0,b5,
0.105485166666667,main guitar,Note Off,0,b4,
0,main guitar,Note Off,0,b5,
0.0527425833333333,main guitar,Note On,0,c#5,
0,main guitar,Note On,0,c#6,
0.105485166666667,main guitar,Note Off,0,c#5,
0,main guitar,Note Off,0,c#6,
0.0527425833333333,main guitar,Note On,0,g4,
0,main guitar,Note On,0,g5,
0.210970333333333,main guitar,Note Off,0,g4,
0,main guitar,Note Off,0,g5,
0.105485166666667,main guitar,Note On,0,b4,
0,main guitar,Note On,0,b5,
0.105485166666667,main guitar,Note Off,0,b4,
0,main guitar,Note Off,0,b5,
0.0527425833333333,main guitar,Note On,0,a4,
0,main guitar,Note On,0,a5,
0.210970333333333,main guitar,Note Off,0,a4,
0,main guitar,Note Off,0,a5,
0.105485166666667,main guitar,Note On,0,b4,
0,main guitar,Note On,0,b5,
0.105485166666667,main guitar,Note Off,0,b4,
0,main guitar,Note Off,0,b5,
0.0527425833333333,main guitar,Note On,0,a#4,
0,main guitar,Note On,0,a#5,
0.210970333333333,main guitar,Note Off,0,a#4,
0,main guitar,Note Off,0,a#5,
0.105485166666667,main guitar,Note On,0,b4,
0,main guitar,Note On,0,b5,
0.105485166666667,main guitar,Note Off,0,b4,
0,main guitar,Note Off,0,b5,
0.0527425833333333,main guitar,Note On,0,b4,
0,main guitar,Note On,0,b5,
0.210970333333333,main guitar,Note Off,0,b4,
0,main guitar,Note Off,0,b5,
0.105485166666667,main guitar,Note On,0,e4,
0,main guitar,Note On,0,e5,
0.105485166666667,main guitar,Note Off,0,e4,
0,main guitar,Note Off,0,e5,
0.0527425833333333,main guitar,Note On,0,d5,
0,main guitar,Note On,0,d6,
0.105485166666667,main guitar,Note Off,0,d5,
0,main guitar,Note Off,0,d6,
0.0527425833333333,main guitar,Note On,0,c#5,
0,main guitar,Note On,0,c#6,
0.105485166666667,main guitar,Note Off,0,c#5,
0,main guitar,Note Off,0,c#6,
0.0527425833333333,main guitar,Note On,0,b4,
0,main guitar,Note On,0,b5,
0.105485166666667,main guitar,Note Off,0,b4,
0,main guitar,Note Off,0,b5,
0.0527425833333333,main guitar,Note On,0,c#5,
0,main guitar,Note On,0,c#6,
0.105485166666667,main guitar,Note Off,0,c#5,
0,main guitar,Note Off,0,c#6,
0.0527425833333333,main guitar,Note On,0,g4,
0,main guitar,Note On,0,g5,
0.210970333333333,main guitar,Note Off,0,g4,
0,main guitar,Note Off,0,g5,
0.105485166666667,main guitar,Note On,0,b4,
0,main guitar,Note On,0,b5,
0.105485166666667,main guitar,Note Off,0,b4,
0,main guitar,Note Off,0,b5,
0.0527425833333333,main guitar,Note On,0,a4,
0,main guitar,Note On,0,a5,
0.210970333333333,main guitar,Note Off,0,a4,
0,main guitar,Note Off,0,a5,
0.105485166666667,main guitar,Note On,0,b4,
0,main guitar,Note On,0,b5,
0.105485166666667,main guitar,Note Off,0,b4,
0,main guitar,Note Off,0,b5,
0.0527425833333333,main guitar,Note On,0,a#4,
0,main guitar,Note On,0,a#5,
0.210970333333333,main guitar,Note Off,0,a#4,
0,main guitar,Note Off,0,a#5,
0.105485166666667,main guitar,Note On,0,b4,
0,main guitar,Note On,0,b5,
0.105485166666667,main guitar,Note Off,0,b4,
0,main guitar,Note Off,0,b5,
0.0527425833333333,main guitar,Note On,0,b4,
0,main guitar,Note On,0,b5,
0.210970333333333,main guitar,Note Off,0,b4,
0,main guitar,Note Off,0,b5,
0.105485166666667,main guitar,Note On,0,e4,
0,main guitar,Note On,0,e5,
0.105485166666667,main guitar,Note Off,0,e4,
0,main guitar,Note Off,0,e5,
0.0527425833333333,main guitar,Note On,0,d5,
0,main guitar,Note On,0,d6,
0.105485166666667,main guitar,Note Off,0,d5,
0,main guitar,Note Off,0,d6,
0.0527425833333333,main guitar,Note On,0,c#5,
0,main guitar,Note On,0,c#6,
0.105485166666667,main guitar,Note Off,0,c#5,
0,main guitar,Note Off,0,c#6,
0.0527425833333333,main guitar,Note On,0,b4,
0,main guitar,Note On,0,b5,
0.105485166666667,main guitar,Note Off,0,b4,
0,main guitar,Note Off,0,b5,
0.0527425833333333,main guitar,Note On,0,c#5,
0,main guitar,Note On,0,c#6,
0.105485166666667,main guitar,Note Off,0,c#5,
0,main guitar,Note Off,0,c#6,
0.0527425833333333,main guitar,Note On,0,g4,
0,main guitar,Note On,0,g5,
0.210970333333333,main guitar,Note Off,0,g4,
0,main guitar,Note Off,0,g5,
0.105485166666667,main guitar,Note On,0,b4,
0,main guitar,Note On,0,b5,
0.105485166666667,main guitar,Note Off,0,b4,
0,main guitar,Note Off,0,b5,
0.0527425833333333,main guitar,Note On,0,a4,
0,main guitar,Note On,0,a5,
0.210970333333333,main guitar,Note Off,0,a4,
0,main guitar,Note Off,0,a5,
0.105485166666667,main guitar,Note On,0,b4,
0,main guitar,Note On,0,b5,
0.105485166666667,main guitar,Note Off,0,b4,
0,main guitar,Note Off,0,b5,
0.0527425833333333,main guitar,Note On,0,a#4,
0,main guitar,Note On,0,a#5,
0.210970333333333,main guitar,Note Off,0,a#4,
0,main guitar,Note Off,0,a#5,
0.105485166666667,main guitar,Note On,0,b4,
0,main guitar,Note On,0,b5,
0.105485166666667,main guitar,Note Off,0,b4,
0,main guitar,Note Off,0,b5,
0.0527425833333333,main guitar,Note On,0,b4,
0,main guitar,Note On,0,b5,
0.210970333333333,main guitar,Note Off,0,b4,
0,main guitar,Note Off,0,b5,
0.105485166666667,main guitar,Note On,0,a4,
0,main guitar,Note On,0,a5,
0.105485166666667,main guitar,Note Off,0,a4,
0,main guitar,Note Off,0,a5,
0.0527425833333333,main guitar,Note On,0,g5,
0,main guitar,Note On,0,g6,
0.105485166666667,main guitar,Note Off,0,g5,
0,main guitar,Note Off,0,g6,
0.0527425833333333,main guitar,Note On,0,f#5,
0,main guitar,Note On,0,f#6,
0.105485166666667,main guitar,Note Off,0,f#5,
0,main guitar,Note Off,0,f#6,
0.0527425833333333,main guitar,Note On,0,e5,
0,main guitar,Note On,0,e6,
0.105485166666667,main guitar,Note Off,0,e5,
0,main guitar,Note Off,0,e6,
0.0527425833333333,main guitar,Note On,0,f#5,
0,main guitar,Note On,0,f#6,
0.105485166666667,main guitar,Note Off,0,f#5,
0,main guitar,Note Off,0,f#6,
0.0527425833333333,main guitar,Note On,0,c5,
0,main guitar,Note On,0,c6,
0.210970333333333,main guitar,Note Off,0,c5,
0,main guitar,Note Off,0,c6,
0.105485166666667,main guitar,Note On,0,e5,
0,main guitar,Note On,0,e6,
0.105485166666667,main guitar,Note Off,0,e5,
0,main guitar,Note Off,0,e6,
0.0527425833333333,main guitar,Note On,0,d5,
0,main guitar,Note On,0,d6,
0.210970333333333,main guitar,Note Off,0,d5,
0,main guitar,Note Off,0,d6,
0.105485166666667,main guitar,Note On,0,e5,
0,main guitar,Note On,0,e6,
0.105485166666667,main guitar,Note Off,0,e5,
0,main guitar,Note Off,0,e6,
0.0527425833333333,main guitar,Note On,0,d#5,
0,main guitar,Note On,0,d#6,
0.210970333333333,main guitar,Note Off,0,d#5,
0,main guitar,Note Off,0,d#6,
0.105485166666667,main guitar,Note On,0,e5,
0,main guitar,Note On,0,e6,
0.105485166666667,main guitar,Note Off,0,e5,
0,main guitar,Note Off,0,e6,
0.0527425833333333,main guitar,Note On,0,e5,
0,main guitar,Note On,0,e6,
0.210970333333333,main guitar,Note Off,0,e5,
0,main guitar,Note Off,0,e6,
0.105485166666667,main guitar,Note On,0,a4,
0,main guitar,Note On,0,a5,
0.105485166666667,main guitar,Note Off,0,a4,
0,main guitar,Note Off,0,a5,
0.0527425833333333,main guitar,Note On,0,g5,
0,main guitar,Note On,0,g6,
0.105485166666667,main guitar,Note Off,0,g5,
0,main guitar,Note Off,0,g6,
0.0527425833333333,main guitar,Note On,0,f#5,
0,main guitar,Note On,0,f#6,
0.105485166666667,main guitar,Note Off,0,f#5,
0,main guitar,Note Off,0,f#6,
0.0527425833333333,main guitar,Note On,0,e5,
0,main guitar,Note On,0,e6,
0.105485166666667,main guitar,Note Off,0,e5,
0,main guitar,Note Off,0,e6,
0.0527425833333333,main guitar,Note On,0,f#5,
0,main guitar,Note On,0,f#6,
0.105485166666667,main guitar,Note Off,0,f#5,
0,main guitar,Note Off,0,f#6,
0.0527425833333333,main guitar,Note On,0,c5,
0,main guitar,Note On,0,c6,
0.210970333333333,main guitar,Note Off,0,c5,
0,main guitar,Note Off,0,c6,
0.105485166666667,main guitar,Note On,0,e5,
0,main guitar,Note On,0,e6,
0.105485166666667,main guitar,Note Off,0,e5,
0,main guitar,Note Off,0,e6,
0.0527425833333333,main guitar,Note On,0,d5,
0,main guitar,Note On,0,d6,
0.210970333333333,main guitar,Note Off,0,d5,
0,main guitar,Note Off,0,d6,
0.105485166666667,main guitar,Note On,0,e5,
0,main guitar,Note On,0,e6,
0.105485166666667,main guitar,Note Off,0,e5,
0,main guitar,Note Off,0,e6,
0.0527425833333333,main guitar,Note On,0,d#5,
0,main guitar,Note On,0,d#6,
0.210970333333333,main guitar,Note Off,0,d#5,
0,main guitar,Note Off,0,d#6,
0.105485166666667,main guitar,Note On,0,e5,
0,main guitar,Note On,0,e6,
0.105485166666667,main guitar,Note Off,0,e5,
0,main guitar,Note Off,0,e6,
0.0527425833333333,main guitar,Note On,0,e5,
0,main guitar,Note On,0,e6,
0.210970333333333,main guitar,Note Off,0,e5,
0,main guitar,Note Off,0,e6,
0.105485166666667,main guitar,Note On,0,e4,
0,main guitar,Note On,0,e4,
0,main guitar,Note On,0,e5,
0.105485166666667,main guitar,Note Off,0,e4,
0,main guitar,Note Off,0,e4,
0,main guitar,Note Off,0,e5,
0.0527425833333333,main guitar,Note On,0,d5,
0,main guitar,Note On,0,d5,
0,main guitar,Note On,0,d6,
0.105485166666667,main guitar,Note Off,0,d5,
0,main guitar,Note Off,0,d5,
0,main guitar,Note Off,0,d6,
0.0527425833333333,main guitar,Note On,0,c#5,
0,main guitar,Note On,0,c#5,
0,main guitar,Note On,0,c#6,
0.105485166666667,main guitar,Note Off,0,c#5,
0,main guitar,Note Off,0,c#5,
0,main guitar,Note Off,0,c#6,
0.0527425833333333,main guitar,Note On,0,b4,
0,main guitar,Note On,0,b4,
0,main guitar,Note On,0,b5,
0.105485166666667,main guitar,Note Off,0,b4,
0,main guitar,Note Off,0,b4,
0,main guitar,Note Off,0,b5,
0.0527425833333333,main guitar,Note On,0,c#5,
0,main guitar,Note On,0,c#5,
0,main guitar,Note On,0,c#6,
0.105485166666667,main guitar,Note Off,0,c#5,
0,main guitar,Note Off,0,c#5,
0,main guitar,Note Off,0,c#6,
0.0527425833333333,main guitar,Note On,0,g4,
0,main guitar,Note On,0,g4,
0,main guitar,Note On,0,g5,
0.210970333333333,main guitar,Note Off,0,g4,
0,main guitar,Note Off,0,g4,
0,main guitar,Note Off,0,g5,
0.105485166666667,main guitar,Note On,0,b4,
0,main guitar,Note On,0,b4,
0,main guitar,Note On,0,b5,
0.105485166666667,main guitar,Note Off,0,b4,
0,main guitar,Note Off,0,b4,
0,main guitar,Note Off,0,b5,
0.0527425833333333,main guitar,Note On,0,a4,
0,main guitar,Note On,0,a4,
0,main guitar,Note On,0,a5,
0.210970333333333,main guitar,Note Off,0,a4,
0,main guitar,Note Off,0,a4,
0,main guitar,Note Off,0,a5,
0.105485166666667,main guitar,Note On,0,b4,
0,main guitar,Note On,0,b4,
0,main guitar,Note On,0,b5,
0.105485166666667,main guitar,Note Off,0,b4,
0,main guitar,Note Off,0,b4,
0,main guitar,Note Off,0,b5,
0.0527425833333333,main guitar,Note On,0,a#4,
0,main guitar,Note On,0,a#4,
0,main guitar,Note On,0,a#5,
0.210970333333333,main guitar,Note Off,0,a#4,
0,main guitar,Note Off,0,a#4,
0,main guitar,Note Off,0,a#5,
0.105485166666667,main guitar,Note On,0,b4,
0,main guitar,Note On,0,b4,
0,main guitar,Note On,0,b5,
0.105485166666667,main guitar,Note Off,0,b4,
0,main guitar,Note Off,0,b4,
0,main guitar,Note Off,0,b5,
0.0527425833333333,main guitar,Note On,0,b4,
0,main guitar,Note On,0,b4,
0,main guitar,Note On,0,b5,
0.210970333333333,main guitar,Note Off,0,b4,
0,main guitar,Note Off,0,b4,
0,main guitar,Note Off,0,b5,
0.105485166666667,main guitar,Note On,0,e4,
0,main guitar,Note On,0,e4,
0,main guitar,Note On,0,e5,
0.105485166666667,main guitar,Note Off,0,e4,
0,main guitar,Note Off,0,e4,
0,main guitar,Note Off,0,e5,
0.0527425833333333,main guitar,Note On,0,d5,
0,main guitar,Note On,0,d5,
0,main guitar,Note On,0,d6,
0.105485166666667,main guitar,Note Off,0,d5,
0,main guitar,Note Off,0,d5,
0,main guitar,Note Off,0,d6,
0.0527425833333333,main guitar,Note On,0,c#5,
0,main guitar,Note On,0,c#5,
0,main guitar,Note On,0,c#6,
0.105485166666667,main guitar,Note Off,0,c#5,
0,main guitar,Note Off,0,c#5,
0,main guitar,Note Off,0,c#6,
0.0527425833333333,main guitar,Note On,0,b4,
0,main guitar,Note On,0,b4,
0,main guitar,Note On,0,b5,
0.105485166666667,main guitar,Note Off,0,b4,
0,main guitar,Note Off,0,b4,
0,main guitar,Note Off,0,b5,
0.0527425833333333,main guitar,Note On,0,c#5,
0,main guitar,Note On,0,c#5,
0,main guitar,Note On,0,c#6,
0.105485166666667,main guitar,Note Off,0,c#5,
0,main guitar,Note Off,0,c#5,
0,main guitar,Note Off,0,c#6,
0.0527425833333333,main guitar,Note On,0,g4,
0,main guitar,Note On,0,g4,
0,main guitar,Note On,0,g5,
0.210970333333333,main guitar,Note Off,0,g4,
0,main guitar,Note Off,0,g4,
0,main guitar,Note Off,0,g5,
0.105485166666667,main guitar,Note On,0,b4,
0,main guitar,Note On,0,b4,
0,main guitar,Note On,0,b5,
0.105485166666667,main guitar,Note Off,0,b4,
0,main guitar,Note Off,0,b4,
0,main guitar,Note Off,0,b5,
0.0527425833333333,main guitar,Note On,0,a4,
0,main guitar,Note On,0,a4,
0,main guitar,Note On,0,a5,
0.210970333333333,main guitar,Note Off,0,a4,
0,main guitar,Note Off,0,a4,
0,main guitar,Note Off,0,a5,
0.105485166666667,main guitar,Note On,0,b4,
0,main guitar,Note On,0,b4,
0,main guitar,Note On,0,b5,
0.105485166666667,main guitar,Note Off,0,b4,
0,main guitar,Note Off,0,b4,
0,main guitar,Note Off,0,b5,
0.0527425833333333,main guitar,Note On,0,a#4,
0,main guitar,Note On,0,a#4,
0,main guitar,Note On,0,a#5,
0.210970333333333,main guitar,Note Off,0,a#4,
0,main guitar,Note Off,0,a#4,
0,main guitar,Note Off,0,a#5,
0.105485166666667,main guitar,Note On,0,b4,
0,main guitar,Note On,0,b4,
0,main guitar,Note On,0,b5,
0.105485166666667,main guitar,Note Off,0,b4,
0,main guitar,Note Off,0,b4,
0,main guitar,Note Off,0,b5,
0.0527425833333333,main guitar,Note On,0,b4,
0,main guitar,Note On,0,b4,
0,main guitar,Note On,0,b5,
0.210970333333333,main guitar,Note Off,0,b4,
0,main guitar,Note Off,0,b4,
0,main guitar,Note Off,0,b5,
0.461497604166667,main guitar,Note On,0,a5,
0,main guitar,Note On,0,e5,
0,main guitar,Note On,0,a6,
0,main guitar,Note On,0,e6,
0.0263712916666667,main guitar,Note On,0,a4,
0,main guitar,Note On,0,a5,
0.309862677083333,main guitar,Note Off,0,a5,
0,main guitar,Note Off,0,a6,
0.0131856458333333,main guitar,Note Off,0,e5,
0,main guitar,Note Off,0,e6,
0.13844928125,main guitar,Note Off,0,a4,
0,main guitar,Note Off,0,a5,
0,main guitar,Note On,0,b4,
0,main guitar,Note On,0,b5,
0.0263712916666667,main guitar,Note Off,0,b4,
0,main guitar,Note Off,0,b5,
0.00659282291666667,main guitar,Note On,0,e4,
0,main guitar,Note On,0,b4,
0,main guitar,Note On,0,e5,
0,main guitar,Note On,0,b5,
0.17800621875,main guitar,Note Off,0,b4,
0,main guitar,Note Off,0,b5,
0.112077989583333,main guitar,Note On,0,b4,
0,main guitar,Note On,0,b5,
0.00659282291666667,main guitar,Note On,0,f#5,
0,main guitar,Note On,0,b5,
0,main guitar,Note On,0,f#6,
0,main guitar,Note On,0,b6,
0.0725210520833333,main guitar,Note Off,0,e4,
0,main guitar,Note Off,0,e5,
0.37579090625,main guitar,Note Off,0,b4,
0,main guitar,Note Off,0,b5,
0.09889234375,main guitar,Note Off,0,f#5,
0,main guitar,Note Off,0,f#6,
0.00659282291666667,main guitar,Note Off,0,b5,
0,main guitar,Note Off,0,b6,
0,main guitar,Note On,0,a5,
0,main guitar,Note On,0,a6,
0.01977846875,main guitar,Note On,0,e5,
0,main guitar,Note On,0,e6,
0.0329641145833333,main guitar,Note On,0,a4,
0,main guitar,Note On,0,a5,
0.184599041666667,main guitar,Note Off,0,e5,
0,main guitar,Note Off,0,e6,
0.0131856458333333,main guitar,Note Off,0,a5,
0,main guitar,Note Off,0,a6,
0,main guitar,Note On,0,g5,
0,main guitar,Note On,0,g6,
0.125263635416667,main guitar,Note Off,0,g5,
0,main guitar,Note Off,0,g6,
0.00659282291666667,main guitar,Note On,0,f#5,
0,main guitar,Note On,0,g5,
0,main guitar,Note On,0,f#6,
0,main guitar,Note On,0,g6,
0.0329641145833333,main guitar,Note Off,0,a4,
0,main guitar,Note Off,0,a5,
0,main guitar,Note Off,0,g5,
0,main guitar,Note Off,0,g6,
0,main guitar,Note On,0,b4,
0,main guitar,Note On,0,b5,
0,main guitar,Note On,0,b5,
0,main guitar,Note On,0,b6,
0.184599041666667,main guitar,Note Off,0,b4,
0,main guitar,Note Off,0,b5,
0,main guitar,Note Off,0,b5,
0,main guitar,Note Off,0,b6,
0.00659282291666667,main guitar,Note Off,0,f#5,
0,main guitar,Note Off,0,f#6,
0.553797125,main guitar,Note On,0,a5,
0,main guitar,Note On,0,e5,
0,main guitar,Note On,0,a6,
0,main guitar,Note On,0,e6,
0.0263712916666667,main guitar,Note On,0,a4,
0,main guitar,Note On,0,a5,
0.309862677083333,main guitar,Note Off,0,a5,
0,main guitar,Note Off,0,a6,
0.0131856458333333,main guitar,Note Off,0,e5,
0,main guitar,Note Off,0,e6,
0.13844928125,main guitar,Note Off,0,a4,
0,main guitar,Note Off,0,a5,
0,main guitar,Note On,0,b4,
0,main guitar,Note On,0,b5,
0.0263712916666667,main guitar,Note Off,0,b4,
0,main guitar,Note Off,0,b5,
0.00659282291666667,main guitar,Note On,0,e4,
0,main guitar,Note On,0,b4,
0,main guitar,Note On,0,e5,
0,main guitar,Note On,0,b5,
0.17800621875,main guitar,Note Off,0,b4,
0,main guitar,Note Off,0,b5,
0.112077989583333,main guitar,Note On,0,b4,
0,main guitar,Note On,0,b5,
0.00659282291666667,main guitar,Note On,0,f#5,
0,main guitar,Note On,0,b5,
0,main guitar,Note On,0,f#6,
0,main guitar,Note On,0,b6,
0.0725210520833333,main guitar,Note Off,0,e4,
0,main guitar,Note Off,0,e5,
0.37579090625,main guitar,Note Off,0,b4,
0,main guitar,Note Off,0,b5,
0.09889234375,main guitar,Note Off,0,f#5,
0,main guitar,Note Off,0,f#6,
0.00659282291666667,main guitar,Note Off,0,b5,
0,main guitar,Note Off,0,b6,
0,main guitar,Note On,0,a5,
0,main guitar,Note On,0,a6,
0.01977846875,main guitar,Note On,0,e5,
0,main guitar,Note On,0,e6,
0.0329641145833333,main guitar,Note On,0,a4,
0,main guitar,Note On,0,a5,
0.184599041666667,main guitar,Note Off,0,e5,
0,main guitar,Note Off,0,e6,
0.0131856458333333,main guitar,Note Off,0,a5,
0,main guitar,Note Off,0,a6,
0,main guitar,Note On,0,g5,
0,main guitar,Note On,0,g6,
0.125263635416667,main guitar,Note Off,0,g5,
0,main guitar,Note Off,0,g6,
0.00659282291666667,main guitar,Note On,0,f#5,
0,main guitar,Note On,0,g5,
0,main guitar,Note On,0,f#6,
0,main guitar,Note On,0,g6,
0.0329641145833333,main guitar,Note Off,0,a4,
0,main guitar,Note Off,0,a5,
0,main guitar,Note Off,0,g5,
0,main guitar,Note Off,0,g6,
0,main guitar,Note On,0,b4,
0,main guitar,Note On,0,b5,
0,main guitar,Note On,0,b5,
0,main guitar,Note On,0,b6,
0.184599041666667,main guitar,Note Off,0,b4,
0,main guitar,Note Off,0,b5,
0,main guitar,Note Off,0,b5,
0,main guitar,Note Off,0,b6,
0.00659282291666667,main guitar,Note Off,0,f#5,
0,main guitar,Note Off,0,f#6,
0.4351263125,main guitar,Note On,0,d6,
0.0395569375,main guitar,Note On,0,g5,
0.0131856458333333,main guitar,Note On,0,g6,
0.05933540625,main guitar,Note On,0,d5,
0.184599041666667,main guitar,Note Off,0,g6,
0.0131856458333333,main guitar,Note Off,0,d6,
0.1977846875,main guitar,Note Off,0,g5,
0.0527425833333333,main guitar,Note Off,0,d5,
0.00659282291666667,main guitar,Note On,0,d5,
0.0263712916666667,main guitar,Note On,0,f#6,
0,main guitar,Note On,0,d6,
0.01977846875,main guitar,Note On,0,a5,
0.17800621875,main guitar,Note Off,0,a5,
0.0131856458333333,main guitar,Note Off,0,f#6,
0.01977846875,main guitar,Note Off,0,d6,
0.1977846875,main guitar,Note Off,0,d5,
0.00659282291666667,main guitar,Note On,0,d5,
0.01977846875,main guitar,Note On,0,a4,
0.01977846875,main guitar,Note On,0,a5,
0.0461497604166667,main guitar,Note Off,0,d5,
0,main guitar,Note On,0,e5,
0.37579090625,main guitar,Note Off,0,a4,
0.05933540625,main guitar,Note Off,0,e5,
0.00659282291666667,main guitar,Note On,0,g4,
0.0263712916666667,main guitar,Note On,0,c5,
0,main guitar,Note Off,0,c5,
0.191191864583333,main guitar,Note Off,0,g4,
0.01977846875,main guitar,Note Off,0,a5,
0.00659282291666667,main guitar,Note On,0,a5,
0.01977846875,main guitar,Note On,0,a4,
0.0131856458333333,main guitar,Note On,0,e5,
0.461497604166667,main guitar,Note On,0,a5,
0,main guitar,Note On,0,a4,
0,main guitar,Note On,0,e5,
0,main guitar,Note On,0,a5,
0,main guitar,Note On,0,a4,
0,main guitar,Note On,0,e5,
0,main guitar,Note On,0,a4,
0.131856458333333,main guitar,Note Off,0,a5,
0,main guitar,Note Off,0,a5,
0,main guitar,Note Off,0,a5,
0.00659282291666667,main guitar,Note Off,0,e5,
0,main guitar,Note Off,0,e5,
0,main guitar,Note Off,0,e5,
0.112077989583333,main guitar,Note On,0,g6,
0.00659282291666667,main guitar,Note Off,0,a4,
0.00659282291666667,main guitar,Note On,0,d6,
0,main guitar,Note On,0,g4,
0.0131856458333333,main guitar,Note On,0,d5,
0.0461497604166667,main guitar,Note On,0,g5,
0.15822775,main guitar,Note Off,0,g4,
0.0329641145833333,main guitar,Note Off,0,d6,
0.00659282291666667,main guitar,Note Off,0,g6,
0.210970333333333,main guitar,Note Off,0,a4,
0,main guitar,Note Off,0,a4,
0,main guitar,Note Off,0,a4,
0,main guitar,Note Off,0,g5,
0.0527425833333333,main guitar,Note On,0,f#6,
0,main guitar,Note On,0,d6,
0,main guitar,Note On,0,a5,
0.00659282291666667,main guitar,Note On,0,d5,
0.210970333333333,main guitar,Note Off,0,d5,
0.0329641145833333,main guitar,Note Off,0,a5,
0.0329641145833333,main guitar,Note Off,0,f#6,
0.0395569375,main guitar,Note Off,0,d6,
0.13844928125,main guitar,Note Off,0,d5,
0,main guitar,Note On,0,e5,
0.01977846875,main guitar,Note On,0,a4,
0.0395569375,main guitar,Note On,0,a5,
0.45490478125,main guitar,Note Off,0,e5,
0,main guitar,Note Off,0,a4,
0.01977846875,main guitar,Note On,0,g4,
0.237341625,main guitar,Note Off,0,g4,
0.0131856458333333,main guitar,Note Off,0,a5,
0.0131856458333333,main guitar,Note On,0,a5,
0,main guitar,Note On,0,a#4,
0.01977846875,main guitar,Note On,0,f5,
0.09889234375,main guitar,Note Off,0,a#4,
0,main guitar,Note On,0,a4,
0.0395569375,main guitar,Note Off,0,f5,
0.00659282291666667,main guitar,Note On,0,e5,
0.619725354166667,main guitar,Note Off,0,a5,
0,main guitar,Note Off,0,e5,
0.05933540625,main guitar,Note On,0,a5,
0,main guitar,Note On,0,e5,
0,main guitar,Note On,0,a6,
0,main guitar,Note On,0,e6,
0.0263712916666667,main guitar,Note On,0,a4,
0,main guitar,Note On,0,a5,
0.0263712916666667,main guitar,Note Off,0,a4,
0.283491385416667,main guitar,Note Off,0,a5,
0,main guitar,Note Off,0,a6,
0.0131856458333333,main guitar,Note Off,0,e5,
0,main guitar,Note Off,0,e6,
0.13844928125,main guitar,Note Off,0,a4,
0,main guitar,Note Off,0,a5,
0,main guitar,Note On,0,b4,
0,main guitar,Note On,0,b5,
0.0263712916666667,main guitar,Note Off,0,b4,
0,main guitar,Note Off,0,b5,
0.00659282291666667,main guitar,Note On,0,e4,
0,main guitar,Note On,0,b4,
0,main guitar,Note On,0,e5,
0,main guitar,Note On,0,b5,
0.17800621875,main guitar,Note Off,0,b4,
0,main guitar,Note Off,0,b5,
0.112077989583333,main guitar,Note On,0,b4,
0,main guitar,Note On,0,b5,
0.00659282291666667,main guitar,Note On,0,f#5,
0,main guitar,Note On,0,b5,
0,main guitar,Note On,0,f#6,
0,main guitar,Note On,0,b6,
0.0725210520833333,main guitar,Note Off,0,e4,
0,main guitar,Note Off,0,e5,
0.37579090625,main guitar,Note Off,0,b4,
0,main guitar,Note Off,0,b5,
0.09889234375,main guitar,Note Off,0,f#5,
0,main guitar,Note Off,0,f#6,
0.00659282291666667,main guitar,Note Off,0,b5,
0,main guitar,Note Off,0,b6,
0,main guitar,Note On,0,a5,
0,main guitar,Note On,0,a6,
0.01977846875,main guitar,Note On,0,e5,
0,main guitar,Note On,0,e6,
0.0329641145833333,main guitar,Note On,0,a4,
0,main guitar,Note On,0,a5,
0.184599041666667,main guitar,Note Off,0,e5,
0,main guitar,Note Off,0,e6,
0.0131856458333333,main guitar,Note Off,0,a5,
0,main guitar,Note Off,0,a6,
0,main guitar,Note On,0,g5,
0,main guitar,Note On,0,g6,
0.125263635416667,main guitar,Note Off,0,g5,
0,main guitar,Note Off,0,g6,
0.00659282291666667,main guitar,Note On,0,f#5,
0,main guitar,Note On,0,g5,
0,main guitar,Note On,0,f#6,
0,main guitar,Note On,0,g6,
0.0329641145833333,main guitar,Note Off,0,a4,
0,main guitar,Note Off,0,a5,
0,main guitar,Note Off,0,g5,
0,main guitar,Note Off,0,g6,
0,main guitar,Note On,0,b4,
0,main guitar,Note On,0,b5,
0,main guitar,Note On,0,b5,
0,main guitar,Note On,0,b6,
0.184599041666667,main guitar,Note Off,0,b4,
0,main guitar,Note Off,0,b5,
0,main guitar,Note Off,0,b5,
0,main guitar,Note Off,0,b6,
0.00659282291666667,main guitar,Note Off,0,f#5,
0,main guitar,Note Off,0,f#6,
0.553797125,main guitar,Note On,0,a5,
0,main guitar,Note On,0,e5,
0,main guitar,Note On,0,a6,
0,main guitar,Note On,0,e6,
0.0263712916666667,main guitar,Note On,0,a4,
0,main guitar,Note On,0,a5,
0.309862677083333,main guitar,Note Off,0,a5,
0,main guitar,Note Off,0,a6,
0.0131856458333333,main guitar,Note Off,0,e5,
0,main guitar,Note Off,0,e6,
0.13844928125,main guitar,Note Off,0,a4,
0,main guitar,Note Off,0,a5,
0,main guitar,Note On,0,b4,
0,main guitar,Note On,0,b5,
0.0263712916666667,main guitar,Note Off,0,b4,
0,main guitar,Note Off,0,b5,
0.00659282291666667,main guitar,Note On,0,e4,
0,main guitar,Note On,0,b4,
0,main guitar,Note On,0,e5,
0,main guitar,Note On,0,b5,
0.17800621875,main guitar,Note Off,0,b4,
0,main guitar,Note Off,0,b5,
0.112077989583333,main guitar,Note On,0,b4,
0,main guitar,Note On,0,b5,
0.00659282291666667,main guitar,Note On,0,f#5,
0,main guitar,Note On,0,b5,
0,main guitar,Note On,0,f#6,
0,main guitar,Note On,0,b6,
0.0725210520833333,main guitar,Note Off,0,e4,
0,main guitar,Note Off,0,e5,
0.37579090625,main guitar,Note Off,0,b4,
0,main guitar,Note Off,0,b5,
0.09889234375,main guitar,Note Off,0,f#5,
0,main guitar,Note Off,0,f#6,
0.00659282291666667,main guitar,Note Off,0,b5,
0,main guitar,Note Off,0,b6,
0,main guitar,Note On,0,a5,
0,main guitar,Note On,0,a6,
0.01977846875,main guitar,Note On,0,e5,
0,main guitar,Note On,0,e6,
0.0329641145833333,main guitar,Note On,0,a4,
0,main guitar,Note On,0,a5,
0.184599041666667,main guitar,Note Off,0,e5,
0,main guitar,Note Off,0,e6,
0.0131856458333333,main guitar,Note Off,0,a5,
0,main guitar,Note Off,0,a6,
0,main guitar,Note On,0,g5,
0,main guitar,Note On,0,g6,
0.125263635416667,main guitar,Note Off,0,g5,
0,main guitar,Note Off,0,g6,
0.00659282291666667,main guitar,Note On,0,f#5,
0,main guitar,Note On,0,g5,
0,main guitar,Note On,0,f#6,
0,main guitar,Note On,0,g6,
0.0329641145833333,main guitar,Note Off,0,a4,
0,main guitar,Note Off,0,a5,
0,main guitar,Note Off,0,g5,
0,main guitar,Note Off,0,g6,
0,main guitar,Note On,0,b4,
0,main guitar,Note On,0,b5,
0,main guitar,Note On,0,b5,
0,main guitar,Note On,0,b6,
0.184599041666667,main guitar,Note Off,0,b4,
0,main guitar,Note Off,0,b5,
0,main guitar,Note Off,0,b5,
0,main guitar,Note Off,0,b6,
0.00659282291666667,main guitar,Note Off,0,f#5,
0,main guitar,Note Off,0,f#6,
0.1977846875,main guitar,Note On,0,g4,
0,main guitar,Note On,0,c5,
0,main guitar,Note On,0,d5,
0,main guitar,Note On,0,g5,
0,main guitar,Note On,0,b5,
0,main guitar,Note On,0,g6,
1.265822,main guitar,Note Off,0,g4,
0,main guitar,Note Off,0,c5,
0,main guitar,Note Off,0,d5,
0,main guitar,Note Off,0,g5,
0,main guitar,Note Off,0,b5,
0,main guitar,Note Off,0,g6,
0.632911,main guitar,Note On,0,d5,
0,main guitar,Note On,0,b5,
0,main guitar,Note On,0,g5,
0,main guitar,Note On,0,g6,
0.105485166666667,main guitar,Note Off,0,d5,
0,main guitar,Note Off,0,b5,
0,main guitar,Note Off,0,g5,
0,main guitar,Note Off,0,g6,
0.0527425833333333,main guitar,Note On,0,d5,
0,main guitar,Note On,0,g5,
0,main guitar,Note On,0,b5,
0,main guitar,Note On,0,g6,
0.105485166666667,main guitar,Note Off,0,d5,
0,main guitar,Note Off,0,g5,
0,main guitar,Note Off,0,b5,
0,main guitar,Note Off,0,g6,
0.0527425833333333,main guitar,Note On,0,g4,
0,main guitar,Note On,0,d5,
0,main guitar,Note On,0,g5,
0,main guitar,Note On,0,b5,
0,main guitar,Note On,0,g6,
0.210970333333333,main guitar,Note Off,0,g4,
0,main guitar,Note Off,0,d5,
0,main guitar,Note Off,0,g5,
0,main guitar,Note Off,0,b5,
0,main guitar,Note Off,0,g6,
0.105485166666667,main guitar,Note On,0,d5,
0,main guitar,Note On,0,a6,
0,main guitar,Note On,0,d5,
0,main guitar,Note On,0,a5,
0,main guitar,Note On,0,d6,
0,main guitar,Note On,0,f#6,
1.265822,main guitar,Note On,0,d7,
0.428533489583333,main guitar,Note Off,0,d5,
0,main guitar,Note Off,0,a6,
0,main guitar,Note Off,0,d5,
0,main guitar,Note Off,0,a5,
0,main guitar,Note Off,0,d6,
0,main guitar,Note Off,0,f#6,
0.41534784375,main guitar,Note Off,0,d7,
0.421940666666667,main guitar,Note On,0,c7,
1.265822,main guitar,Note Off,0,c7,
1.10759425,main guitar,Note On,0,b6,
0.105485166666667,main guitar,Note Off,0,b6,
0.0527425833333333,main guitar,Note On,0,a6,
0.843881333333333,main guitar,Note Off,0,a6,
0.421940666666667,main guitar,Note On,0,e6,
0.843881333333333,main guitar,Note Off,0,e6,
0.421940666666667,main guitar,Note On,0,e6,
0.105485166666667,main guitar,Note Off,0,e6,
0.0527425833333333,main guitar,Note On,0,d6,
0.105485166666667,main guitar,Note Off,0,d6,
0.0527425833333333,main guitar,Note On,0,d6,
0.105485166666667,main guitar,Note Off,0,d6,
0.0527425833333333,main guitar,Note On,0,e6,
0.421940666666667,main guitar,Note Off,0,e6,
0.369198083333333,main guitar,Note On,0,d6,
0.105485166666667,main guitar,Note Off,0,d6,
0.0527425833333333,main guitar,Note On,0,c#6,
0.105485166666667,main guitar,Note Off,0,c#6,
0.0527425833333333,main guitar,Note On,0,c#6,
0.105485166666667,main guitar,Note Off,0,c#6,
0.0527425833333333,main guitar,Note On,0,d6,
0.421940666666667,main guitar,Note Off,0,d6,
0.369198083333333,main guitar,Note On,0,e6,
0,main guitar,Note On,0,c#6,
0.105485166666667,main guitar,Note Off,0,e6,
0,main guitar,Note Off,0,c#6,
0.0527425833333333,main guitar,Note On,0,b5,
0.105485166666667,main guitar,Note Off,0,b5,
0.0527425833333333,main guitar,Note On,0,b5,
0.105485166666667,main guitar,Note Off,0,b5,
0.0527425833333333,main guitar,Note On,0,e6,
0,main guitar,Note On,0,c#6,
0.421940666666667,main guitar,Note Off,0,e6,
0,main guitar,Note Off,0,c#6,
0.527425833333333,main guitar,Note On,0,g6,
0,main guitar,Note On,0,b6,
0.3164555,main guitar,Note Off,0,g6,
0,main guitar,Note Off,0,b6,
0.15822775,main guitar,Note On,0,e6,
0.421940666666667,main guitar,Note Off,0,e6,
0.210970333333333,main guitar,Note On,0,e6,
0.105485166666667,main guitar,Note Off,0,e6,
0.0527425833333333,main guitar,Note On,0,d6,
0.105485166666667,main guitar,Note Off,0,d6,
0.0527425833333333,main guitar,Note On,0,d6,
0.105485166666667,main guitar,Note Off,0,d6,
0.0527425833333333,main guitar,Note On,0,e6,
0.421940666666667,main guitar,Note Off,0,e6,
0.369198083333333,main guitar,Note On,0,d6,
0.105485166666667,main guitar,Note Off,0,d6,
0.0527425833333333,main guitar,Note On,0,c#6,
0.105485166666667,main guitar,Note Off,0,c#6,
0.0527425833333333,main guitar,Note On,0,c#6,
0.105485166666667,main guitar,Note Off,0,c#6,
0.0527425833333333,main guitar,Note On,0,d6,
0.421940666666667,main guitar,Note Off,0,d6,
0.369198083333333,main guitar,Note On,0,c#6,
0.105485166666667,main guitar,Note Off,0,c#6,
0.0527425833333333,main guitar,Note On,0,b5,
0.105485166666667,main guitar,Note Off,0,b5,
0.0527425833333333,main guitar,Note On,0,b5,
0.105485166666667,main guitar,Note Off,0,b5,
0.0527425833333333,main guitar,Note On,0,c#6,
0.421940666666667,main guitar,Note Off,0,c#6,
0.527425833333333,main guitar,Note On,0,e7,
0.210970333333333,main guitar,Note Off,0,e7,
0.263712916666667,main guitar,Note On,0,e7,
0.105485166666667,main guitar,Note Off,0,e7,
0.0527425833333333,main guitar,Note On,0,b6,
0.105485166666667,main guitar,Note Off,0,b6,
0.0527425833333333,main guitar,Note On,0,e7,
0.210970333333333,main guitar,Note Off,0,e7,
0.105485166666667,main guitar,Note On,0,e6,
0.105485166666667,main guitar,Note Off,0,e6,
0.0527425833333333,main guitar,Note On,0,d6,
0.105485166666667,main guitar,Note Off,0,d6,
0.0527425833333333,main guitar,Note On,0,d6,
0.105485166666667,main guitar,Note Off,0,d6,
0.0527425833333333,main guitar,Note On,0,e6,
0.421940666666667,main guitar,Note Off,0,e6,
0.369198083333333,main guitar,Note On,0,d6,
0.105485166666667,main guitar,Note Off,0,d6,
0.0527425833333333,main guitar,Note On,0,c#6,
0.105485166666667,main guitar,Note Off,0,c#6,
0.0527425833333333,main guitar,Note On,0,c#6,
0.105485166666667,main guitar,Note Off,0,c#6,
0.0527425833333333,main guitar,Note On,0,d6,
0.421940666666667,main guitar,Note Off,0,d6,
0.369198083333333,main guitar,Note On,0,e6,
0,main guitar,Note On,0,c#6,
0.105485166666667,main guitar,Note Off,0,e6,
0,main guitar,Note Off,0,c#6,
0.0527425833333333,main guitar,Note On,0,b5,
0.105485166666667,main guitar,Note Off,0,b5,
0.0527425833333333,main guitar,Note On,0,b5,
0.105485166666667,main guitar,Note Off,0,b5,
0.0527425833333333,main guitar,Note On,0,e6,
0,main guitar,Note On,0,c#6,
0.421940666666667,main guitar,Note Off,0,e6,
0,main guitar,Note Off,0,c#6,
0.527425833333333,main guitar,Note On,0,g6,
0,main guitar,Note On,0,b6,
0.3164555,main guitar,Note Off,0,g6,
0,main guitar,Note Off,0,b6,
0.15822775,main guitar,Note On,0,e6,
0.421940666666667,main guitar,Note Off,0,e6,
0.210970333333333,main guitar,Note On,0,e6,
0.105485166666667,main guitar,Note Off,0,e6,
0.0527425833333333,main guitar,Note On,0,d6,
0.105485166666667,main guitar,Note Off,0,d6,
0.0527425833333333,main guitar,Note On,0,d6,
0.105485166666667,main guitar,Note Off,0,d6,
0.0527425833333333,main guitar,Note On,0,e6,
0.421940666666667,main guitar,Note Off,0,e6,
0.369198083333333,main guitar,Note On,0,d6,
0.105485166666667,main guitar,Note Off,0,d6,
0.0527425833333333,main guitar,Note On,0,c#6,
0.105485166666667,main guitar,Note Off,0,c#6,
0.0527425833333333,main guitar,Note On,0,c#6,
0.105485166666667,main guitar,Note Off,0,c#6,
0.0527425833333333,main guitar,Note On,0,d6,
0.421940666666667,main guitar,Note Off,0,d6,
0.369198083333333,main guitar,Note On,0,c#6,
0.105485166666667,main guitar,Note Off,0,c#6,
0.0527425833333333,main guitar,Note On,0,b5,
0.105485166666667,main guitar,Note Off,0,b5,
0.0527425833333333,main guitar,Note On,0,b5,
0.105485166666667,main guitar,Note Off,0,b5,
0.0527425833333333,main guitar,Note On,0,c#6,
0.421940666666667,main guitar,Note Off,0,c#6,
0.527425833333333,main guitar,Note On,0,e7,
0.210970333333333,main guitar,Note Off,0,e7,
0.263712916666667,main guitar,Note On,0,e7,
0.105485166666667,main guitar,Note Off,0,e7,
0.0527425833333333,main guitar,Note On,0,b6,
0.105485166666667,main guitar,Note Off,0,b6,
0.0527425833333333,main guitar,Note On,0,e7,
0.210970333333333,main guitar,Note Off,0,e7,
0.105485166666667,main guitar,Note On,0,e6,
0.105485166666667,main guitar,Note Off,0,e6,
0.0527425833333333,main guitar,Note On,0,d6,
0.105485166666667,main guitar,Note Off,0,d6,
0.0527425833333333,main guitar,Note On,0,d6,
0.105485166666667,main guitar,Note Off,0,d6,
0.0527425833333333,main guitar,Note On,0,e6,
0.421940666666667,main guitar,Note Off,0,e6,
0.369198083333333,main guitar,Note On,0,d6,
0.105485166666667,main guitar,Note Off,0,d6,
0.0527425833333333,main guitar,Note On,0,c#6,
0.105485166666667,main guitar,Note Off,0,c#6,
0.0527425833333333,main guitar,Note On,0,c#6,
0.105485166666667,main guitar,Note Off,0,c#6,
0.0527425833333333,main guitar,Note On,0,d6,
0.421940666666667,main guitar,Note Off,0,d6,
0.369198083333333,main guitar,Note On,0,e6,
0,main guitar,Note On,0,c#6,
0.105485166666667,main guitar,Note Off,0,e6,
0,main guitar,Note Off,0,c#6,
0.0527425833333333,main guitar,Note On,0,b5,
0.105485166666667,main guitar,Note Off,0,b5,
0.0527425833333333,main guitar,Note On,0,b5,
0.105485166666667,main guitar,Note Off,0,b5,
0.0527425833333333,main guitar,Note On,0,e6,
0,main guitar,Note On,0,c#6,
0.421940666666667,main guitar,Note Off,0,e6,
0,main guitar,Note Off,0,c#6,
0.527425833333333,main guitar,Note On,0,g6,
0,main guitar,Note On,0,b6,
0.3164555,main guitar,Note Off,0,g6,
0,main guitar,Note Off,0,b6,
0.15822775,main guitar,Note On,0,e6,
0.421940666666667,main guitar,Note Off,0,e6,
0.210970333333333,main guitar,Note On,0,e6,
0.105485166666667,main guitar,Note Off,0,e6,
0.0527425833333333,main guitar,Note On,0,d6,
0.105485166666667,main guitar,Note Off,0,d6,
0.0527425833333333,main guitar,Note On,0,d6,
0.105485166666667,main guitar,Note Off,0,d6,
0.0527425833333333,main guitar,Note On,0,e6,
0.421940666666667,main guitar,Note Off,0,e6,
0.369198083333333,main guitar,Note On,0,d6,
0.105485166666667,main guitar,Note Off,0,d6,
0.0527425833333333,main guitar,Note On,0,c#6,
0.105485166666667,main guitar,Note Off,0,c#6,
0.0527425833333333,main guitar,Note On,0,c#6,
0.105485166666667,main guitar,Note Off,0,c#6,
0.0527425833333333,main guitar,Note On,0,d6,
0.421940666666667,main guitar,Note Off,0,d6,
0.369198083333333,main guitar,Note On,0,c#6,
0.105485166666667,main guitar,Note Off,0,c#6,
0.0527425833333333,main guitar,Note On,0,b5,
0.105485166666667,main guitar,Note Off,0,b5,
0.0527425833333333,main guitar,Note On,0,b5,
0.105485166666667,main guitar,Note Off,0,b5,
0.0527425833333333,main guitar,Note On,0,c#6,
0.421940666666667,main guitar,Note Off,0,c#6,
0.527425833333333,main guitar,Note On,0,e7,
0.210970333333333,main guitar,Note Off,0,e7,
0.263712916666667,main guitar,Note On,0,e7,
0.105485166666667,main guitar,Note Off,0,e7,
0.0527425833333333,main guitar,Note On,0,b6,
0.105485166666667,main guitar,Note Off,0,b6,
0.0527425833333333,main guitar,Note On,0,e7,
0.210970333333333,main guitar,Note Off,0,e7,
0, 3,Program Change,1,c0,
2.531644, 3,Note On,1,e4,
0, 3,Note On,1,b3,
0, 3,Note On,1,e5,
0, 3,Note On,1,g#4,
0, 3,Note On,1,e3,
0, 3,Note On,1,e5,
0, 3,Note On,1,b4,
0, 3,Note On,1,e6,
0, 3,Note On,1,b5,
0, 3,Note On,1,g#5,
0, 3,Note On,1,e4,
0, 3,Note On,1,b4,
0.632911, 3,Note Off,1,e4,
0, 3,Note Off,1,b3,
0, 3,Note Off,1,e5,
0, 3,Note Off,1,g#4,
0, 3,Note Off,1,e3,
0, 3,Note Off,1,e5,
0, 3,Note Off,1,b4,
0, 3,Note Off,1,e6,
0, 3,Note Off,1,b5,
0, 3,Note Off,1,g#5,
0, 3,Note Off,1,e4,
0, 3,Note Off,1,b4,
0.3164555, 3,Note On,1,d4,
0, 3,Note On,1,d5,
0, 3,Note On,1,a4,
0, 3,Note On,1,f#5,
0, 3,Note On,1,d5,
0, 3,Note On,1,d6,
0, 3,Note On,1,a5,
0, 3,Note On,1,f#6,
0.15822775, 3,Note Off,1,d4,
0, 3,Note Off,1,d5,
0, 3,Note Off,1,a4,
0, 3,Note Off,1,f#5,
0, 3,Note Off,1,d5,
0, 3,Note Off,1,d6,
0, 3,Note Off,1,a5,
0, 3,Note Off,1,f#6,
0, 3,Note On,1,f#5,
0, 3,Note On,1,d5,
0, 3,Note On,1,a4,
0, 3,Note On,1,d4,
0, 3,Note On,1,f#6,
0, 3,Note On,1,d6,
0, 3,Note On,1,a5,
0, 3,Note On,1,d5,
0.15822775, 3,Note Off,1,f#5,
0, 3,Note Off,1,d5,
0, 3,Note Off,1,a4,
0, 3,Note Off,1,d4,
0, 3,Note Off,1,f#6,
0, 3,Note Off,1,d6,
0, 3,Note Off,1,a5,
0, 3,Note Off,1,d5,
0, 3,Note On,1,d5,
0, 3,Note On,1,f#5,
0, 3,Note On,1,a4,
0, 3,Note On,1,d4,
0, 3,Note On,1,d6,
0, 3,Note On,1,f#6,
0, 3,Note On,1,a5,
0, 3,Note On,1,d5,
0.632911, 3,Note Off,1,d5,
0, 3,Note Off,1,f#5,
0, 3,Note Off,1,a4,
0, 3,Note Off,1,d4,
0, 3,Note Off,1,d6,
0, 3,Note Off,1,f#6,
0, 3,Note Off,1,a5,
0, 3,Note Off,1,d5,
0.3164555, 3,Note On,1,a3,
0, 3,Note On,1,c#5,
0, 3,Note On,1,e4,
0, 3,Note On,1,a4,
0, 3,Note On,1,a4,
0, 3,Note On,1,c#6,
0, 3,Note On,1,e5,
0, 3,Note On,1,a5,
0.15822775, 3,Note Off,1,a3,
0, 3,Note Off,1,c#5,
0, 3,Note Off,1,e4,
0, 3,Note Off,1,a4,
0, 3,Note Off,1,a4,
0, 3,Note Off,1,c#6,
0, 3,Note Off,1,e5,
0, 3,Note Off,1,a5,
0, 3,Note On,1,a3,
0, 3,Note On,1,e4,
0, 3,Note On,1,a4,
0, 3,Note On,1,c#5,
0, 3,Note On,1,a4,
0, 3,Note On,1,e5,
0, 3,Note On,1,a5,
0, 3,Note On,1,c#6,
0.15822775, 3,Note Off,1,a3,
0, 3,Note Off,1,e4,
0, 3,Note Off,1,a4,
0, 3,Note Off,1,c#5,
0, 3,Note Off,1,a4,
0, 3,Note Off,1,e5,
0, 3,Note Off,1,a5,
0, 3,Note Off,1,c#6,
0, 3,Note On,1,a3,
0, 3,Note On,1,c#5,
0, 3,Note On,1,e5,
0, 3,Note On,1,a4,
0, 3,Note On,1,e4,
0, 3,Note On,1,a4,
0, 3,Note On,1,c#6,
0, 3,Note On,1,e6,
0, 3,Note On,1,a5,
0, 3,Note On,1,e5,
0.632911, 3,Note Off,1,a3,
0, 3,Note Off,1,c#5,
0, 3,Note Off,1,e5,
0, 3,Note Off,1,a4,
0, 3,Note Off,1,e4,
0, 3,Note Off,1,a4,
0, 3,Note Off,1,c#6,
0, 3,Note Off,1,e6,
0, 3,Note Off,1,a5,
0, 3,Note Off,1,e5,
0.79113875, 3,Note On,1,g6,
0, 3,Note On,1,g5,
0.105485166666667, 3,Note Off,1,g6,
0, 3,Note Off,1,g5,
0.0527425833333333, 3,Note On,1,e6,
0, 3,Note On,1,e5,
0.15822775, 3,Note On,1,d6,
0, 3,Note On,1,d5,
0.0527425833333333, 3,Note Off,1,e6,
0, 3,Note Off,1,e5,
0.0527425833333333, 3,Note Off,1,d6,
0, 3,Note Off,1,d5,
0.0527425833333333, 3,Note On,1,b5,
0, 3,Note On,1,b4,
0.15822775, 3,Note On,1,b5,
0, 3,Note On,1,b4,
0.0527425833333333, 3,Note Off,1,b5,
0, 3,Note Off,1,b4,
0.105485166666667, 3,Note On,1,a5,
0, 3,Note On,1,a4,
0.01977846875, 3,Note Off,1,b5,
0.0131856458333333, 3,Note Off,1,b4,
0.0725210520833333, 3,Note Off,1,a5,
0, 3,Note Off,1,a4,
0.0527425833333333, 3,Note On,1,g5,
0, 3,Note On,1,g4,
0.105485166666667, 3,Note Off,1,g5,
0, 3,Note Off,1,g4,
0.0527425833333333, 3,Note On,1,e4,
0, 3,Note On,1,b3,
0, 3,Note On,1,e5,
0, 3,Note On,1,b4,
0, 3,Note On,1,g#4,
0, 3,Note On,1,e3,
0.632911, 3,Note Off,1,e4,
0, 3,Note Off,1,b3,
0, 3,Note Off,1,e5,
0, 3,Note Off,1,b4,
0, 3,Note Off,1,g#4,
0, 3,Note Off,1,e3,
0.3164555, 3,Note On,1,d4,
0, 3,Note On,1,d5,
0, 3,Note On,1,a4,
0, 3,Note On,1,f#5,
0.15822775, 3,Note Off,1,d4,
0, 3,Note Off,1,d5,
0, 3,Note Off,1,a4,
0, 3,Note Off,1,f#5,
0, 3,Note On,1,f#5,
0, 3,Note On,1,d5,
0, 3,Note On,1,a4,
0, 3,Note On,1,d4,
0.15822775, 3,Note Off,1,f#5,
0, 3,Note Off,1,d5,
0, 3,Note Off,1,a4,
0, 3,Note Off,1,d4,
0, 3,Note On,1,d5,
0, 3,Note On,1,f#5,
0, 3,Note On,1,a4,
0, 3,Note On,1,d4,
0.632911, 3,Note Off,1,d5,
0, 3,Note Off,1,f#5,
0, 3,Note Off,1,a4,
0, 3,Note Off,1,d4,
0.3164555, 3,Note On,1,a3,
0, 3,Note On,1,c#5,
0, 3,Note On,1,e4,
0, 3,Note On,1,a4,
0.15822775, 3,Note Off,1,a3,
0, 3,Note Off,1,c#5,
0, 3,Note Off,1,e4,
0, 3,Note Off,1,a4,
0, 3,Note On,1,a3,
0, 3,Note On,1,e4,
0, 3,Note On,1,a4,
0, 3,Note On,1,c#5,
0.15822775, 3,Note Off,1,a3,
0, 3,Note Off,1,e4,
0, 3,Note Off,1,a4,
0, 3,Note Off,1,c#5,
0, 3,Note On,1,a3,
0, 3,Note On,1,c#5,
0, 3,Note On,1,e5,
0, 3,Note On,1,a4,
0, 3,Note On,1,e4,
0.632911, 3,Note Off,1,a3,
0, 3,Note Off,1,c#5,
0, 3,Note Off,1,e5,
0, 3,Note Off,1,a4,
0, 3,Note Off,1,e4,
0, 3,Note On,1,b4,
0, 3,Note On,1,b3,
0, 3,Note On,1,b5,
0.105485166666667, 3,Note Off,1,b4,
0, 3,Note Off,1,b3,
0, 3,Note Off,1,b5,
0.0527425833333333, 3,Note On,1,g#4,
0, 3,Note On,1,g#3,
0, 3,Note On,1,g#5,
0.210970333333333, 3,Note Off,1,g#4,
0, 3,Note Off,1,g#3,
0, 3,Note Off,1,g#5,
0.105485166666667, 3,Note On,1,b4,
0, 3,Note On,1,b3,
0, 3,Note On,1,b5,
0.105485166666667, 3,Note Off,1,b4,
0, 3,Note Off,1,b3,
0, 3,Note Off,1,b5,
0.0527425833333333, 3,Note On,1,a4,
0, 3,Note On,1,a3,
0, 3,Note On,1,a5,
0.210970333333333, 3,Note Off,1,a4,
0, 3,Note Off,1,a3,
0, 3,Note Off,1,a5,
0.105485166666667, 3,Note On,1,b4,
0, 3,Note On,1,b3,
0, 3,Note On,1,b5,
0.105485166666667, 3,Note Off,1,b4,
0, 3,Note Off,1,b3,
0, 3,Note Off,1,b5,
0.0527425833333333, 3,Note On,1,a#4,
0, 3,Note On,1,a#3,
0, 3,Note On,1,a#5,
0.210970333333333, 3,Note Off,1,a#4,
0, 3,Note Off,1,a#3,
0, 3,Note Off,1,a#5,
0.105485166666667, 3,Note On,1,b4,
0, 3,Note On,1,b3,
0, 3,Note On,1,b5,
0.105485166666667, 3,Note Off,1,b4,
0, 3,Note Off,1,b3,
0, 3,Note Off,1,b5,
0.0527425833333333, 3,Note On,1,a#4,
0, 3,Note On,1,a#3,
0, 3,Note On,1,a#5,
0.105485166666667, 3,Note Off,1,a#4,
0, 3,Note Off,1,a#3,
0, 3,Note Off,1,a#5,
0.0527425833333333, 3,Note On,1,b4,
0, 3,Note On,1,b3,
0, 3,Note On,1,b5,
0.105485166666667, 3,Note Off,1,b4,
0, 3,Note Off,1,b3,
0, 3,Note Off,1,b5,
0.0527425833333333, 3,Note On,1,e4,
0, 3,Note On,1,b3,
0, 3,Note On,1,e5,
0, 3,Note On,1,g#4,
0, 3,Note On,1,e3,
0, 3,Note On,1,e5,
0, 3,Note On,1,b4,
0, 3,Note On,1,e6,
0, 3,Note On,1,b5,
0, 3,Note On,1,g#5,
0, 3,Note On,1,e4,
0, 3,Note On,1,b4,
0.632911, 3,Note Off,1,e4,
0, 3,Note Off,1,b3,
0, 3,Note Off,1,e5,
0, 3,Note Off,1,g#4,
0, 3,Note Off,1,e3,
0, 3,Note Off,1,e5,
0, 3,Note Off,1,b4,
0, 3,Note Off,1,e6,
0, 3,Note Off,1,b5,
0, 3,Note Off,1,g#5,
0, 3,Note Off,1,e4,
0, 3,Note Off,1,b4,
0.3164555, 3,Note On,1,d4,
0, 3,Note On,1,d5,
0, 3,Note On,1,a4,
0, 3,Note On,1,f#5,
0, 3,Note On,1,d5,
0, 3,Note On,1,d6,
0, 3,Note On,1,a5,
0, 3,Note On,1,f#6,
0.15822775, 3,Note Off,1,d4,
0, 3,Note Off,1,d5,
0, 3,Note Off,1,a4,
0, 3,Note Off,1,f#5,
0, 3,Note Off,1,d5,
0, 3,Note Off,1,d6,
0, 3,Note Off,1,a5,
0, 3,Note Off,1,f#6,
0, 3,Note On,1,f#5,
0, 3,Note On,1,d5,
0, 3,Note On,1,a4,
0, 3,Note On,1,d4,
0, 3,Note On,1,f#6,
0, 3,Note On,1,d6,
0, 3,Note On,1,a5,
0, 3,Note On,1,d5,
0.15822775, 3,Note Off,1,f#5,
0, 3,Note Off,1,d5,
0, 3,Note Off,1,a4,
0, 3,Note Off,1,d4,
0, 3,Note Off,1,f#6,
0, 3,Note Off,1,d6,
0, 3,Note Off,1,a5,
0, 3,Note Off,1,d5,
0, 3,Note On,1,d5,
0, 3,Note On,1,f#5,
0, 3,Note On,1,a4,
0, 3,Note On,1,d4,
0, 3,Note On,1,d6,
0, 3,Note On,1,f#6,
0, 3,Note On,1,a5,
0, 3,Note On,1,d5,
0.632911, 3,Note Off,1,d5,
0, 3,Note Off,1,f#5,
0, 3,Note Off,1,a4,
0, 3,Note Off,1,d4,
0, 3,Note Off,1,d6,
0, 3,Note Off,1,f#6,
0, 3,Note Off,1,a5,
0, 3,Note Off,1,d5,
0.3164555, 3,Note On,1,a3,
0, 3,Note On,1,c#5,
0, 3,Note On,1,e4,
0, 3,Note On,1,a4,
0, 3,Note On,1,a4,
0, 3,Note On,1,c#6,
0, 3,Note On,1,e5,
0, 3,Note On,1,a5,
0.15822775, 3,Note Off,1,a3,
0, 3,Note Off,1,c#5,
0, 3,Note Off,1,e4,
0, 3,Note Off,1,a4,
0, 3,Note Off,1,a4,
0, 3,Note Off,1,c#6,
0, 3,Note Off,1,e5,
0, 3,Note Off,1,a5,
0, 3,Note On,1,a3,
0, 3,Note On,1,e4,
0, 3,Note On,1,a4,
0, 3,Note On,1,c#5,
0, 3,Note On,1,a4,
0, 3,Note On,1,e5,
0, 3,Note On,1,a5,
0, 3,Note On,1,c#6,
0.15822775, 3,Note Off,1,a3,
0, 3,Note Off,1,e4,
0, 3,Note Off,1,a4,
0, 3,Note Off,1,c#5,
0, 3,Note Off,1,a4,
0, 3,Note Off,1,e5,
0, 3,Note Off,1,a5,
0, 3,Note Off,1,c#6,
0, 3,Note On,1,a3,
0, 3,Note On,1,c#5,
0, 3,Note On,1,e5,
0, 3,Note On,1,a4,
0, 3,Note On,1,e4,
0, 3,Note On,1,a4,
0, 3,Note On,1,c#6,
0, 3,Note On,1,e6,
0, 3,Note On,1,a5,
0, 3,Note On,1,e5,
0.632911, 3,Note Off,1,a3,
0, 3,Note Off,1,c#5,
0, 3,Note Off,1,e5,
0, 3,Note Off,1,a4,
0, 3,Note Off,1,e4,
0, 3,Note Off,1,a4,
0, 3,Note Off,1,c#6,
0, 3,Note Off,1,e6,
0, 3,Note Off,1,a5,
0, 3,Note Off,1,e5,
0.79113875, 3,Note On,1,g6,
0, 3,Note On,1,g5,
0.105485166666667, 3,Note Off,1,g6,
0, 3,Note Off,1,g5,
0.0527425833333333, 3,Note On,1,e6,
0, 3,Note On,1,e5,
0.15822775, 3,Note On,1,d6,
0, 3,Note On,1,d5,
0.0527425833333333, 3,Note Off,1,e6,
0, 3,Note Off,1,e5,
0.0527425833333333, 3,Note Off,1,d6,
0, 3,Note Off,1,d5,
0.0527425833333333, 3,Note On,1,b5,
0, 3,Note On,1,b4,
0.15822775, 3,Note On,1,b5,
0, 3,Note On,1,b4,
0.0527425833333333, 3,Note Off,1,b5,
0, 3,Note Off,1,b4,
0.105485166666667, 3,Note On,1,a5,
0, 3,Note On,1,a4,
0.01977846875, 3,Note Off,1,b5,
0.0131856458333333, 3,Note Off,1,b4,
0.0725210520833333, 3,Note Off,1,a5,
0, 3,Note Off,1,a4,
0.0527425833333333, 3,Note On,1,g5,
0, 3,Note On,1,g4,
0.105485166666667, 3,Note Off,1,g5,
0, 3,Note Off,1,g4,
0.0527425833333333, 3,Note On,1,e4,
0, 3,Note On,1,b3,
0, 3,Note On,1,e5,
0, 3,Note On,1,b4,
0, 3,Note On,1,g#4,
0, 3,Note On,1,e3,
0.632911, 3,Note Off,1,e4,
0, 3,Note Off,1,b3,
0, 3,Note Off,1,e5,
0, 3,Note Off,1,b4,
0, 3,Note Off,1,g#4,
0, 3,Note Off,1,e3,
0.3164555, 3,Note On,1,d4,
0, 3,Note On,1,d5,
0, 3,Note On,1,a4,
0, 3,Note On,1,f#5,
0.15822775, 3,Note Off,1,d4,
0, 3,Note Off,1,d5,
0, 3,Note Off,1,a4,
0, 3,Note Off,1,f#5,
0, 3,Note On,1,f#5,
0, 3,Note On,1,d5,
0, 3,Note On,1,a4,
0, 3,Note On,1,d4,
0.15822775, 3,Note Off,1,f#5,
0, 3,Note Off,1,d5,
0, 3,Note Off,1,a4,
0, 3,Note Off,1,d4,
0, 3,Note On,1,d5,
0, 3,Note On,1,f#5,
0, 3,Note On,1,a4,
0, 3,Note On,1,d4,
0.632911, 3,Note Off,1,d5,
0, 3,Note Off,1,f#5,
0, 3,Note Off,1,a4,
0, 3,Note Off,1,d4,
0.3164555, 3,Note On,1,a3,
0, 3,Note On,1,c#5,
0, 3,Note On,1,e4,
0, 3,Note On,1,a4,
0.15822775, 3,Note Off,1,a3,
0, 3,Note Off,1,c#5,
0, 3,Note Off,1,e4,
0, 3,Note Off,1,a4,
0, 3,Note On,1,a3,
0, 3,Note On,1,e4,
0, 3,Note On,1,a4,
0, 3,Note On,1,c#5,
0.15822775, 3,Note Off,1,a3,
0, 3,Note Off,1,e4,
0, 3,Note Off,1,a4,
0, 3,Note Off,1,c#5,
0, 3,Note On,1,a3,
0, 3,Note On,1,c#5,
0, 3,Note On,1,e5,
0, 3,Note On,1,a4,
0, 3,Note On,1,e4,
0.632911, 3,Note Off,1,a3,
0, 3,Note Off,1,c#5,
0, 3,Note Off,1,e5,
0, 3,Note Off,1,a4,
0, 3,Note Off,1,e4,
0, 3,Note On,1,b4,
0, 3,Note On,1,b3,
0, 3,Note On,1,b5,
0.105485166666667, 3,Note Off,1,b4,
0, 3,Note Off,1,b3,
0, 3,Note Off,1,b5,
0.0527425833333333, 3,Note On,1,g#4,
0, 3,Note On,1,g#3,
0, 3,Note On,1,g#5,
0.210970333333333, 3,Note Off,1,g#4,
0, 3,Note Off,1,g#3,
0, 3,Note Off,1,g#5,
0.105485166666667, 3,Note On,1,b4,
0, 3,Note On,1,b3,
0, 3,Note On,1,b5,
0.105485166666667, 3,Note Off,1,b4,
0, 3,Note Off,1,b3,
0, 3,Note Off,1,b5,
0.0527425833333333, 3,Note On,1,a4,
0, 3,Note On,1,a3,
0, 3,Note On,1,a5,
0.210970333333333, 3,Note Off,1,a4,
0, 3,Note Off,1,a3,
0, 3,Note Off,1,a5,
0.105485166666667, 3,Note On,1,b4,
0, 3,Note On,1,b3,
0, 3,Note On,1,b5,
0.105485166666667, 3,Note Off,1,b4,
0, 3,Note Off,1,b3,
0, 3,Note Off,1,b5,
0.0527425833333333, 3,Note On,1,a#4,
0, 3,Note On,1,a#3,
0, 3,Note On,1,a#5,
0.210970333333333, 3,Note Off,1,a#4,
0, 3,Note Off,1,a#3,
0, 3,Note Off,1,a#5,
0.105485166666667, 3,Note On,1,b4,
0, 3,Note On,1,b3,
0, 3,Note On,1,b5,
0.105485166666667, 3,Note Off,1,b4,
0, 3,Note Off,1,b3,
0, 3,Note Off,1,b5,
0.0527425833333333, 3,Note On,1,a#4,
0, 3,Note On,1,a#3,
0, 3,Note On,1,a#5,
0.105485166666667, 3,Note Off,1,a#4,
0, 3,Note Off,1,a#3,
0, 3,Note Off,1,a#5,
0.0527425833333333, 3,Note On,1,b4,
0, 3,Note On,1,b3,
0, 3,Note On,1,b5,
0.105485166666667, 3,Note Off,1,b4,
0, 3,Note Off,1,b3,
0, 3,Note Off,1,b5,
0.0527425833333333, 3,Note On,1,e4,
0, 3,Note On,1,b3,
0, 3,Note On,1,e5,
0, 3,Note On,1,g#4,
0, 3,Note On,1,e3,
0, 3,Note On,1,e5,
0, 3,Note On,1,b4,
0, 3,Note On,1,e6,
0, 3,Note On,1,b5,
0, 3,Note On,1,g#5,
0, 3,Note On,1,e4,
0, 3,Note On,1,b4,
0.632911, 3,Note Off,1,e4,
0, 3,Note Off,1,b3,
0, 3,Note Off,1,e5,
0, 3,Note Off,1,g#4,
0, 3,Note Off,1,e3,
0, 3,Note Off,1,e5,
0, 3,Note Off,1,b4,
0, 3,Note Off,1,e6,
0, 3,Note Off,1,b5,
0, 3,Note Off,1,g#5,
0, 3,Note Off,1,e4,
0, 3,Note Off,1,b4,
0.3164555, 3,Note On,1,d4,
0, 3,Note On,1,d5,
0, 3,Note On,1,a4,
0, 3,Note On,1,f#5,
0, 3,Note On,1,d5,
0, 3,Note On,1,d6,
0, 3,Note On,1,a5,
0, 3,Note On,1,f#6,
0.15822775, 3,Note Off,1,d4,
0, 3,Note Off,1,d5,
0, 3,Note Off,1,a4,
0, 3,Note Off,1,f#5,
0, 3,Note Off,1,d5,
0, 3,Note Off,1,d6,
0, 3,Note Off,1,a5,
0, 3,Note Off,1,f#6,
0, 3,Note On,1,f#5,
0, 3,Note On,1,d5,
0, 3,Note On,1,a4,
0, 3,Note On,1,d4,
0, 3,Note On,1,f#6,
0, 3,Note On,1,d6,
0, 3,Note On,1,a5,
0, 3,Note On,1,d5,
0.15822775, 3,Note Off,1,f#5,
0, 3,Note Off,1,d5,
0, 3,Note Off,1,a4,
0, 3,Note Off,1,d4,
0, 3,Note Off,1,f#6,
0, 3,Note Off,1,d6,
0, 3,Note Off,1,a5,
0, 3,Note Off,1,d5,
0, 3,Note On,1,d5,
0, 3,Note On,1,f#5,
0, 3,Note On,1,a4,
0, 3,Note On,1,d4,
0, 3,Note On,1,d6,
0, 3,Note On,1,f#6,
0, 3,Note On,1,a5,
0, 3,Note On,1,d5,
0.632911, 3,Note Off,1,d5,
0, 3,Note Off,1,f#5,
0, 3,Note Off,1,a4,
0, 3,Note Off,1,d4,
0, 3,Note Off,1,d6,
0, 3,Note Off,1,f#6,
0, 3,Note Off,1,a5,
0, 3,Note Off,1,d5,
0.3164555, 3,Note On,1,a3,
0, 3,Note On,1,c#5,
0, 3,Note On,1,e4,
0, 3,Note On,1,a4,
0, 3,Note On,1,a4,
0, 3,Note On,1,c#6,
0, 3,Note On,1,e5,
0, 3,Note On,1,a5,
0.15822775, 3,Note Off,1,a3,
0, 3,Note Off,1,c#5,
0, 3,Note Off,1,e4,
0, 3,Note Off,1,a4,
0, 3,Note Off,1,a4,
0, 3,Note Off,1,c#6,
0, 3,Note Off,1,e5,
0, 3,Note Off,1,a5,
0, 3,Note On,1,a3,
0, 3,Note On,1,e4,
0, 3,Note On,1,a4,
0, 3,Note On,1,c#5,
0, 3,Note On,1,a4,
0, 3,Note On,1,e5,
0, 3,Note On,1,a5,
0, 3,Note On,1,c#6,
0.15822775, 3,Note Off,1,a3,
0, 3,Note Off,1,e4,
0, 3,Note Off,1,a4,
0, 3,Note Off,1,c#5,
0, 3,Note Off,1,a4,
0, 3,Note Off,1,e5,
0, 3,Note Off,1,a5,
0, 3,Note Off,1,c#6,
0, 3,Note On,1,a3,
0, 3,Note On,1,c#5,
0, 3,Note On,1,e5,
0, 3,Note On,1,a4,
0, 3,Note On,1,e4,
0, 3,Note On,1,a4,
0, 3,Note On,1,c#6,
0, 3,Note On,1,e6,
0, 3,Note On,1,a5,
0, 3,Note On,1,e5,
0.632911, 3,Note Off,1,a3,
0, 3,Note Off,1,c#5,
0, 3,Note Off,1,e5,
0, 3,Note Off,1,a4,
0, 3,Note Off,1,e4,
0, 3,Note Off,1,a4,
0, 3,Note Off,1,c#6,
0, 3,Note Off,1,e6,
0, 3,Note Off,1,a5,
0, 3,Note Off,1,e5,
0.79113875, 3,Note On,1,g6,
0, 3,Note On,1,g5,
0.105485166666667, 3,Note Off,1,g6,
0, 3,Note Off,1,g5,
0.0527425833333333, 3,Note On,1,e6,
0, 3,Note On,1,e5,
0.15822775, 3,Note On,1,d6,
0, 3,Note On,1,d5,
0.0527425833333333, 3,Note Off,1,e6,
0, 3,Note Off,1,e5,
0.0527425833333333, 3,Note Off,1,d6,
0, 3,Note Off,1,d5,
0.0527425833333333, 3,Note On,1,b5,
0, 3,Note On,1,b4,
0.15822775, 3,Note On,1,b5,
0, 3,Note On,1,b4,
0.0527425833333333, 3,Note Off,1,b5,
0, 3,Note Off,1,b4,
0.105485166666667, 3,Note On,1,a5,
0, 3,Note On,1,a4,
0.01977846875, 3,Note Off,1,b5,
0.0131856458333333, 3,Note Off,1,b4,
0.0725210520833333, 3,Note Off,1,a5,
0, 3,Note Off,1,a4,
0.0527425833333333, 3,Note On,1,g5,
0, 3,Note On,1,g4,
0.105485166666667, 3,Note Off,1,g5,
0, 3,Note Off,1,g4,
0.0527425833333333, 3,Note On,1,e4,
0, 3,Note On,1,b3,
0, 3,Note On,1,e5,
0, 3,Note On,1,b4,
0, 3,Note On,1,g#4,
0, 3,Note On,1,e3,
0.632911, 3,Note Off,1,e4,
0, 3,Note Off,1,b3,
0, 3,Note Off,1,e5,
0, 3,Note Off,1,b4,
0, 3,Note Off,1,g#4,
0, 3,Note Off,1,e3,
0.3164555, 3,Note On,1,d4,
0, 3,Note On,1,d5,
0, 3,Note On,1,a4,
0, 3,Note On,1,f#5,
0.15822775, 3,Note Off,1,d4,
0, 3,Note Off,1,d5,
0, 3,Note Off,1,a4,
0, 3,Note Off,1,f#5,
0, 3,Note On,1,f#5,
0, 3,Note On,1,d5,
0, 3,Note On,1,a4,
0, 3,Note On,1,d4,
0.15822775, 3,Note Off,1,f#5,
0, 3,Note Off,1,d5,
0, 3,Note Off,1,a4,
0, 3,Note Off,1,d4,
0, 3,Note On,1,d5,
0, 3,Note On,1,f#5,
0, 3,Note On,1,a4,
0, 3,Note On,1,d4,
0.632911, 3,Note Off,1,d5,
0, 3,Note Off,1,f#5,
0, 3,Note Off,1,a4,
0, 3,Note Off,1,d4,
0.3164555, 3,Note On,1,a3,
0, 3,Note On,1,c#5,
0, 3,Note On,1,e4,
0, 3,Note On,1,a4,
0.15822775, 3,Note Off,1,a3,
0, 3,Note Off,1,c#5,
0, 3,Note Off,1,e4,
0, 3,Note Off,1,a4,
0, 3,Note On,1,a3,
0, 3,Note On,1,e4,
0, 3,Note On,1,a4,
0, 3,Note On,1,c#5,
0.15822775, 3,Note Off,1,a3,
0, 3,Note Off,1,e4,
0, 3,Note Off,1,a4,
0, 3,Note Off,1,c#5,
0, 3,Note On,1,a3,
0, 3,Note On,1,c#5,
0, 3,Note On,1,e5,
0, 3,Note On,1,a4,
0, 3,Note On,1,e4,
0.632911, 3,Note Off,1,a3,
0, 3,Note Off,1,c#5,
0, 3,Note Off,1,e5,
0, 3,Note Off,1,a4,
0, 3,Note Off,1,e4,
0, 3,Note On,1,b4,
0, 3,Note On,1,b3,
0, 3,Note On,1,b5,
0.105485166666667, 3,Note Off,1,b4,
0, 3,Note Off,1,b3,
0, 3,Note Off,1,b5,
0.0527425833333333, 3,Note On,1,g#4,
0, 3,Note On,1,g#3,
0, 3,Note On,1,g#5,
0.210970333333333, 3,Note Off,1,g#4,
0, 3,Note Off,1,g#3,
0, 3,Note Off,1,g#5,
0.105485166666667, 3,Note On,1,b4,
0, 3,Note On,1,b3,
0, 3,Note On,1,b5,
0.105485166666667, 3,Note Off,1,b4,
0, 3,Note Off,1,b3,
0, 3,Note Off,1,b5,
0.0527425833333333, 3,Note On,1,a4,
0, 3,Note On,1,a3,
0, 3,Note On,1,a5,
0.210970333333333, 3,Note Off,1,a4,
0, 3,Note Off,1,a3,
0, 3,Note Off,1,a5,
0.105485166666667, 3,Note On,1,b4,
0, 3,Note On,1,b3,
0, 3,Note On,1,b5,
0.105485166666667, 3,Note Off,1,b4,
0, 3,Note Off,1,b3,
0, 3,Note Off,1,b5,
0.0527425833333333, 3,Note On,1,a#4,
0, 3,Note On,1,a#3,
0, 3,Note On,1,a#5,
0.210970333333333, 3,Note Off,1,a#4,
0, 3,Note Off,1,a#3,
0, 3,Note Off,1,a#5,
0.105485166666667, 3,Note On,1,b4,
0, 3,Note On,1,b3,
0, 3,Note On,1,b5,
0.105485166666667, 3,Note Off,1,b4,
0, 3,Note Off,1,b3,
0, 3,Note Off,1,b5,
0.0527425833333333, 3,Note On,1,a#4,
0, 3,Note On,1,a#3,
0, 3,Note On,1,a#5,
0.105485166666667, 3,Note Off,1,a#4,
0, 3,Note Off,1,a#3,
0, 3,Note Off,1,a#5,
0.0527425833333333, 3,Note On,1,b4,
0, 3,Note On,1,b3,
0, 3,Note On,1,b5,
0.105485166666667, 3,Note Off,1,b4,
0, 3,Note Off,1,b3,
0, 3,Note Off,1,b5,
0.0461497604166667, 3,Note On,1,a5,
0, 3,Note On,1,e6,
0.00659282291666667, 3,Note Off,1,a5,
0, 3,Note Off,1,e6,
0.3560124375, 3,Note On,1,a5,
0, 3,Note On,1,e5,
0, 3,Note On,1,a6,
0, 3,Note On,1,e6,
0.0263712916666667, 3,Note On,1,a4,
0, 3,Note On,1,a5,
0.309862677083333, 3,Note Off,1,a5,
0, 3,Note Off,1,a6,
0.0131856458333333, 3,Note Off,1,e5,
0, 3,Note Off,1,e6,
0.13844928125, 3,Note Off,1,a4,
0, 3,Note Off,1,a5,
0, 3,Note On,1,b4,
0, 3,Note On,1,b5,
0.0263712916666667, 3,Note Off,1,b4,
0, 3,Note Off,1,b5,
0.00659282291666667, 3,Note On,1,e4,
0, 3,Note On,1,b4,
0, 3,Note On,1,e5,
0, 3,Note On,1,b5,
0.17800621875, 3,Note Off,1,b4,
0, 3,Note Off,1,b5,
0.112077989583333, 3,Note On,1,b4,
0, 3,Note On,1,b5,
0.00659282291666667, 3,Note On,1,f#5,
0, 3,Note On,1,b5,
0, 3,Note On,1,f#6,
0, 3,Note On,1,b6,
0.0725210520833333, 3,Note Off,1,e4,
0, 3,Note Off,1,e5,
0.37579090625, 3,Note Off,1,b4,
0, 3,Note Off,1,b5,
0.09889234375, 3,Note Off,1,f#5,
0, 3,Note Off,1,f#6,
0.00659282291666667, 3,Note Off,1,b5,
0, 3,Note Off,1,b6,
0, 3,Note On,1,a5,
0, 3,Note On,1,a6,
0.01977846875, 3,Note On,1,e5,
0, 3,Note On,1,e6,
0.0329641145833333, 3,Note On,1,a4,
0, 3,Note On,1,a5,
0.184599041666667, 3,Note Off,1,e5,
0, 3,Note Off,1,e6,
0.0131856458333333, 3,Note Off,1,a5,
0, 3,Note Off,1,a6,
0, 3,Note On,1,g5,
0, 3,Note On,1,g6,
0.125263635416667, 3,Note Off,1,g5,
0, 3,Note Off,1,g6,
0.00659282291666667, 3,Note On,1,f#5,
0, 3,Note On,1,g5,
0, 3,Note On,1,f#6,
0, 3,Note On,1,g6,
0.0329641145833333, 3,Note Off,1,a4,
0, 3,Note Off,1,a5,
0, 3,Note Off,1,g5,
0, 3,Note Off,1,g6,
0, 3,Note On,1,b4,
0, 3,Note On,1,b5,
0, 3,Note On,1,b5,
0, 3,Note On,1,b6,
0.184599041666667, 3,Note Off,1,b4,
0, 3,Note Off,1,b5,
0, 3,Note Off,1,b5,
0, 3,Note Off,1,b6,
0.00659282291666667, 3,Note Off,1,f#5,
0, 3,Note Off,1,f#6,
0.553797125, 3,Note On,1,a5,
0, 3,Note On,1,e5,
0, 3,Note On,1,a6,
0, 3,Note On,1,e6,
0.0263712916666667, 3,Note On,1,a4,
0, 3,Note On,1,a5,
0.309862677083333, 3,Note Off,1,a5,
0, 3,Note Off,1,a6,
0.0131856458333333, 3,Note Off,1,e5,
0, 3,Note Off,1,e6,
0.13844928125, 3,Note Off,1,a4,
0, 3,Note Off,1,a5,
0, 3,Note On,1,b4,
0, 3,Note On,1,b5,
0.0263712916666667, 3,Note Off,1,b4,
0, 3,Note Off,1,b5,
0.00659282291666667, 3,Note On,1,e4,
0, 3,Note On,1,b4,
0, 3,Note On,1,e5,
0, 3,Note On,1,b5,
0.17800621875, 3,Note Off,1,b4,
0, 3,Note Off,1,b5,
0.112077989583333, 3,Note On,1,b4,
0, 3,Note On,1,b5,
0.00659282291666667, 3,Note On,1,f#5,
0, 3,Note On,1,b5,
0, 3,Note On,1,f#6,
0, 3,Note On,1,b6,
0.0725210520833333, 3,Note Off,1,e4,
0, 3,Note Off,1,e5,
0.37579090625, 3,Note Off,1,b4,
0, 3,Note Off,1,b5,
0.09889234375, 3,Note Off,1,f#5,
0, 3,Note Off,1,f#6,
0.00659282291666667, 3,Note Off,1,b5,
0, 3,Note Off,1,b6,
0, 3,Note On,1,a5,
0, 3,Note On,1,a6,
0.01977846875, 3,Note On,1,e5,
0, 3,Note On,1,e6,
0.0329641145833333, 3,Note On,1,a4,
0, 3,Note On,1,a5,
0.184599041666667, 3,Note Off,1,e5,
0, 3,Note Off,1,e6,
0.0131856458333333, 3,Note Off,1,a5,
0, 3,Note Off,1,a6,
0, 3,Note On,1,g5,
0, 3,Note On,1,g6,
0.125263635416667, 3,Note Off,1,g5,
0, 3,Note Off,1,g6,
0.00659282291666667, 3,Note On,1,f#5,
0, 3,Note On,1,g5,
0, 3,Note On,1,f#6,
0, 3,Note On,1,g6,
0.0329641145833333, 3,Note Off,1,a4,
0, 3,Note Off,1,a5,
0, 3,Note Off,1,g5,
0, 3,Note Off,1,g6,
0, 3,Note On,1,b4,
0, 3,Note On,1,b5,
0, 3,Note On,1,b5,
0, 3,Note On,1,b6,
0.184599041666667, 3,Note Off,1,b4,
0, 3,Note Off,1,b5,
0, 3,Note Off,1,b5,
0, 3,Note Off,1,b6,
0.00659282291666667, 3,Note Off,1,f#5,
0, 3,Note Off,1,f#6,
0.4351263125, 3,Note On,1,d6,
0.0395569375, 3,Note On,1,g5,
0.0131856458333333, 3,Note On,1,g6,
0.05933540625, 3,Note On,1,d5,
0.184599041666667, 3,Note Off,1,g6,
0.0131856458333333, 3,Note Off,1,d6,
0.1977846875, 3,Note Off,1,g5,
0.0527425833333333, 3,Note Off,1,d5,
0.00659282291666667, 3,Note On,1,d5,
0.0263712916666667, 3,Note On,1,f#6,
0, 3,Note On,1,d6,
0.01977846875, 3,Note On,1,a5,
0.17800621875, 3,Note Off,1,a5,
0.0131856458333333, 3,Note Off,1,f#6,
0.01977846875, 3,Note Off,1,d6,
0.1977846875, 3,Note Off,1,d5,
0.00659282291666667, 3,Note On,1,d5,
0.01977846875, 3,Note On,1,a4,
0.01977846875, 3,Note On,1,a5,
0.0461497604166667, 3,Note Off,1,d5,
0, 3,Note On,1,e5,
0.37579090625, 3,Note Off,1,a4,
0.05933540625, 3,Note Off,1,e5,
0.00659282291666667, 3,Note On,1,g4,
0.0263712916666667, 3,Note On,1,c5,
0, 3,Note Off,1,c5,
0.191191864583333, 3,Note Off,1,g4,
0.01977846875, 3,Note Off,1,a5,
0.00659282291666667, 3,Note On,1,a5,
0.01977846875, 3,Note On,1,a4,
0.0131856458333333, 3,Note On,1,e5,
0.461497604166667, 3,Note On,1,a4,
0.131856458333333, 3,Note Off,1,a5,
0.00659282291666667, 3,Note Off,1,e5,
0.112077989583333, 3,Note On,1,g6,
0.00659282291666667, 3,Note Off,1,a4,
0.00659282291666667, 3,Note On,1,d6,
0, 3,Note On,1,g4,
0.0131856458333333, 3,Note On,1,d5,
0.0461497604166667, 3,Note On,1,g5,
0.15822775, 3,Note Off,1,g4,
0.0329641145833333, 3,Note Off,1,d6,
0.00659282291666667, 3,Note Off,1,g6,
0.210970333333333, 3,Note Off,1,a4,
0, 3,Note Off,1,g5,
0.0527425833333333, 3,Note On,1,f#6,
0, 3,Note On,1,d6,
0, 3,Note On,1,a5,
0.00659282291666667, 3,Note On,1,d5,
0.210970333333333, 3,Note Off,1,d5,
0.0329641145833333, 3,Note Off,1,a5,
0.0329641145833333, 3,Note Off,1,f#6,
0.0395569375, 3,Note Off,1,d6,
0.13844928125, 3,Note Off,1,d5,
0, 3,Note On,1,e5,
0.01977846875, 3,Note On,1,a4,
0.0395569375, 3,Note On,1,a5,
0.45490478125, 3,Note Off,1,e5,
0, 3,Note Off,1,a4,
0.01977846875, 3,Note On,1,g4,
0.237341625, 3,Note Off,1,g4,
0.0131856458333333, 3,Note Off,1,a5,
0.0131856458333333, 3,Note On,1,a5,
0, 3,Note On,1,a#4,
0.01977846875, 3,Note On,1,f5,
0.09889234375, 3,Note Off,1,a#4,
0, 3,Note On,1,a4,
0.0395569375, 3,Note Off,1,f5,
0.00659282291666667, 3,Note On,1,e5,
0.619725354166667, 3,Note Off,1,a5,
0, 3,Note Off,1,e5,
0.05933540625, 3,Note On,1,a5,
0, 3,Note On,1,e5,
0, 3,Note On,1,a6,
0, 3,Note On,1,e6,
0.0263712916666667, 3,Note On,1,a4,
0, 3,Note On,1,a5,
0.0263712916666667, 3,Note Off,1,a4,
0.283491385416667, 3,Note Off,1,a5,
0, 3,Note Off,1,a6,
0.0131856458333333, 3,Note Off,1,e5,
0, 3,Note Off,1,e6,
0.13844928125, 3,Note Off,1,a4,
0, 3,Note Off,1,a5,
0, 3,Note On,1,b4,
0, 3,Note On,1,b5,
0.0263712916666667, 3,Note Off,1,b4,
0, 3,Note Off,1,b5,
0.00659282291666667, 3,Note On,1,e4,
0, 3,Note On,1,b4,
0, 3,Note On,1,e5,
0, 3,Note On,1,b5,
0.17800621875, 3,Note Off,1,b4,
0, 3,Note Off,1,b5,
0.112077989583333, 3,Note On,1,b4,
0, 3,Note On,1,b5,
0.00659282291666667, 3,Note On,1,f#5,
0, 3,Note On,1,b5,
0, 3,Note On,1,f#6,
0, 3,Note On,1,b6,
0.0725210520833333, 3,Note Off,1,e4,
0, 3,Note Off,1,e5,
0.37579090625, 3,Note Off,1,b4,
0, 3,Note Off,1,b5,
0.09889234375, 3,Note Off,1,f#5,
0, 3,Note Off,1,f#6,
0.00659282291666667, 3,Note Off,1,b5,
0, 3,Note Off,1,b6,
0, 3,Note On,1,a5,
0, 3,Note On,1,a6,
0.01977846875, 3,Note On,1,e5,
0, 3,Note On,1,e6,
0.0329641145833333, 3,Note On,1,a4,
0, 3,Note On,1,a5,
0.184599041666667, 3,Note Off,1,e5,
0, 3,Note Off,1,e6,
0.0131856458333333, 3,Note Off,1,a5,
0, 3,Note Off,1,a6,
0, 3,Note On,1,g5,
0, 3,Note On,1,g6,
0.125263635416667, 3,Note Off,1,g5,
0, 3,Note Off,1,g6,
0.00659282291666667, 3,Note On,1,f#5,
0, 3,Note On,1,g5,
0, 3,Note On,1,f#6,
0, 3,Note On,1,g6,
0.0329641145833333, 3,Note Off,1,a4,
0, 3,Note Off,1,a5,
0, 3,Note Off,1,g5,
0, 3,Note Off,1,g6,
0, 3,Note On,1,b4,
0, 3,Note On,1,b5,
0, 3,Note On,1,b5,
0, 3,Note On,1,b6,
0.184599041666667, 3,Note Off,1,b4,
0, 3,Note Off,1,b5,
0, 3,Note Off,1,b5,
0, 3,Note Off,1,b6,
0.00659282291666667, 3,Note Off,1,f#5,
0, 3,Note Off,1,f#6,
0.553797125, 3,Note On,1,a5,
0, 3,Note On,1,e5,
0, 3,Note On,1,a6,
0, 3,Note On,1,e6,
0.0263712916666667, 3,Note On,1,a4,
0, 3,Note On,1,a5,
0.309862677083333, 3,Note Off,1,a5,
0, 3,Note Off,1,a6,
0.0131856458333333, 3,Note Off,1,e5,
0, 3,Note Off,1,e6,
0.13844928125, 3,Note Off,1,a4,
0, 3,Note Off,1,a5,
0, 3,Note On,1,b4,
0, 3,Note On,1,b5,
0.0263712916666667, 3,Note Off,1,b4,
0, 3,Note Off,1,b5,
0.00659282291666667, 3,Note On,1,e4,
0, 3,Note On,1,b4,
0, 3,Note On,1,e5,
0, 3,Note On,1,b5,
0.17800621875, 3,Note Off,1,b4,
0, 3,Note Off,1,b5,
0.112077989583333, 3,Note On,1,b4,
0, 3,Note On,1,b5,
0.00659282291666667, 3,Note On,1,f#5,
0, 3,Note On,1,b5,
0, 3,Note On,1,f#6,
0, 3,Note On,1,b6,
0.0725210520833333, 3,Note Off,1,e4,
0, 3,Note Off,1,e5,
0.37579090625, 3,Note Off,1,b4,
0, 3,Note Off,1,b5,
0.09889234375, 3,Note Off,1,f#5,
0, 3,Note Off,1,f#6,
0.00659282291666667, 3,Note Off,1,b5,
0, 3,Note Off,1,b6,
0, 3,Note On,1,a5,
0, 3,Note On,1,a6,
0.01977846875, 3,Note On,1,e5,
0, 3,Note On,1,e6,
0.0329641145833333, 3,Note On,1,a4,
0, 3,Note On,1,a5,
0.184599041666667, 3,Note Off,1,e5,
0, 3,Note Off,1,e6,
0.0131856458333333, 3,Note Off,1,a5,
0, 3,Note Off,1,a6,
0, 3,Note On,1,g5,
0, 3,Note On,1,g6,
0.125263635416667, 3,Note Off,1,g5,
0, 3,Note Off,1,g6,
0.00659282291666667, 3,Note On,1,f#5,
0, 3,Note On,1,g5,
0, 3,Note On,1,f#6,
0, 3,Note On,1,g6,
0.0329641145833333, 3,Note Off,1,a4,
0, 3,Note Off,1,a5,
0, 3,Note Off,1,g5,
0, 3,Note Off,1,g6,
0, 3,Note On,1,b4,
0, 3,Note On,1,b5,
0, 3,Note On,1,b5,
0, 3,Note On,1,b6,
0.184599041666667, 3,Note Off,1,b4,
0, 3,Note Off,1,b5,
0, 3,Note Off,1,b5,
0, 3,Note Off,1,b6,
0.00659282291666667, 3,Note Off,1,f#5,
0, 3,Note Off,1,f#6,
0.1977846875, 3,Note On,1,d4,
0, 3,Note On,1,g4,
0, 3,Note On,1,g5,
0, 3,Note On,1,d5,
0, 3,Note On,1,b4,
0.3164555, 3,Note Off,1,d4,
0, 3,Note Off,1,g4,
0, 3,Note Off,1,g5,
0, 3,Note Off,1,d5,
0, 3,Note Off,1,b4,
0.15822775, 3,Note On,1,d4,
0, 3,Note On,1,g4,
0, 3,Note On,1,g5,
0, 3,Note On,1,d5,
0, 3,Note On,1,b4,
0.3164555, 3,Note Off,1,d4,
0, 3,Note Off,1,g4,
0, 3,Note Off,1,g5,
0, 3,Note Off,1,d5,
0, 3,Note Off,1,b4,
0.15822775, 3,Note On,1,d4,
0, 3,Note On,1,g4,
0, 3,Note On,1,g5,
0, 3,Note On,1,d5,
0, 3,Note On,1,b4,
0.3164555, 3,Note Off,1,d4,
0, 3,Note Off,1,g4,
0, 3,Note Off,1,g5,
0, 3,Note Off,1,d5,
0, 3,Note Off,1,b4,
0.15822775, 3,Note On,1,d4,
0, 3,Note On,1,g4,
0, 3,Note On,1,b4,
0, 3,Note On,1,d5,
0, 3,Note On,1,g5,
0.105485166666667, 3,Note Off,1,d4,
0, 3,Note Off,1,g4,
0, 3,Note Off,1,b4,
0, 3,Note Off,1,d5,
0, 3,Note Off,1,g5,
0.0527425833333333, 3,Note On,1,b4,
0, 3,Note On,1,g5,
0, 3,Note On,1,c#4,
0.105485166666667, 3,Note Off,1,b4,
0, 3,Note Off,1,g5,
0, 3,Note Off,1,c#4,
0.0527425833333333, 3,Note On,1,d4,
0, 3,Note On,1,b4,
0, 3,Note On,1,g4,
0, 3,Note On,1,d5,
0, 3,Note On,1,g5,
0.105485166666667, 3,Note Off,1,d4,
0, 3,Note Off,1,b4,
0, 3,Note Off,1,g4,
0, 3,Note Off,1,d5,
0, 3,Note Off,1,g5,
0.0527425833333333, 3,Note On,1,d4,
0, 3,Note On,1,g4,
0, 3,Note On,1,b4,
0, 3,Note On,1,d5,
0, 3,Note On,1,g5,
0.210970333333333, 3,Note Off,1,d4,
0, 3,Note Off,1,g4,
0, 3,Note Off,1,b4,
0, 3,Note Off,1,d5,
0, 3,Note Off,1,g5,
0.105485166666667, 3,Note On,1,d4,
0, 3,Note On,1,g4,
0, 3,Note On,1,b4,
0, 3,Note On,1,d5,
0, 3,Note On,1,g5,
0.210970333333333, 3,Note Off,1,d4,
0, 3,Note Off,1,g4,
0, 3,Note Off,1,b4,
0, 3,Note Off,1,d5,
0, 3,Note Off,1,g5,
0.105485166666667, 3,Note On,1,d4,
0, 3,Note On,1,f#5,
0, 3,Note On,1,a4,
0, 3,Note On,1,d5,
0.3164555, 3,Note Off,1,d4,
0, 3,Note Off,1,f#5,
0, 3,Note Off,1,a4,
0, 3,Note Off,1,d5,
0.15822775, 3,Note On,1,d4,
0, 3,Note On,1,d5,
0, 3,Note On,1,f#5,
0, 3,Note On,1,a4,
0.3164555, 3,Note Off,1,d4,
0, 3,Note Off,1,d5,
0, 3,Note Off,1,f#5,
0, 3,Note Off,1,a4,
0.15822775, 3,Note On,1,d4,
0, 3,Note On,1,d5,
0, 3,Note On,1,f#5,
0, 3,Note On,1,a4,
0.843881333333333, 3,Note Off,1,d4,
0, 3,Note Off,1,d5,
0, 3,Note Off,1,f#5,
0, 3,Note Off,1,a4,
0.738396166666667, 3,Note On,1,e4,
0, 3,Note On,1,b3,
0, 3,Note On,1,e5,
0, 3,Note On,1,g#4,
0, 3,Note On,1,e3,
0, 3,Note On,1,e5,
0, 3,Note On,1,b4,
0, 3,Note On,1,e6,
0, 3,Note On,1,b5,
0, 3,Note On,1,g#5,
0, 3,Note On,1,e4,
0, 3,Note On,1,b4,
0.632911, 3,Note Off,1,e4,
0, 3,Note Off,1,b3,
0, 3,Note Off,1,e5,
0, 3,Note Off,1,g#4,
0, 3,Note Off,1,e3,
0, 3,Note Off,1,e5,
0, 3,Note Off,1,b4,
0, 3,Note Off,1,e6,
0, 3,Note Off,1,b5,
0, 3,Note Off,1,g#5,
0, 3,Note Off,1,e4,
0, 3,Note Off,1,b4,
0.3164555, 3,Note On,1,d4,
0, 3,Note On,1,d5,
0, 3,Note On,1,a4,
0, 3,Note On,1,f#5,
0, 3,Note On,1,d5,
0, 3,Note On,1,d6,
0, 3,Note On,1,a5,
0, 3,Note On,1,f#6,
0.15822775, 3,Note Off,1,d4,
0, 3,Note Off,1,d5,
0, 3,Note Off,1,a4,
0, 3,Note Off,1,f#5,
0, 3,Note Off,1,d5,
0, 3,Note Off,1,d6,
0, 3,Note Off,1,a5,
0, 3,Note Off,1,f#6,
0, 3,Note On,1,f#5,
0, 3,Note On,1,d5,
0, 3,Note On,1,a4,
0, 3,Note On,1,d4,
0, 3,Note On,1,f#6,
0, 3,Note On,1,d6,
0, 3,Note On,1,a5,
0, 3,Note On,1,d5,
0.15822775, 3,Note Off,1,f#5,
0, 3,Note Off,1,d5,
0, 3,Note Off,1,a4,
0, 3,Note Off,1,d4,
0, 3,Note Off,1,f#6,
0, 3,Note Off,1,d6,
0, 3,Note Off,1,a5,
0, 3,Note Off,1,d5,
0, 3,Note On,1,d5,
0, 3,Note On,1,f#5,
0, 3,Note On,1,a4,
0, 3,Note On,1,d4,
0, 3,Note On,1,d6,
0, 3,Note On,1,f#6,
0, 3,Note On,1,a5,
0, 3,Note On,1,d5,
0.632911, 3,Note Off,1,d5,
0, 3,Note Off,1,f#5,
0, 3,Note Off,1,a4,
0, 3,Note Off,1,d4,
0, 3,Note Off,1,d6,
0, 3,Note Off,1,f#6,
0, 3,Note Off,1,a5,
0, 3,Note Off,1,d5,
0.3164555, 3,Note On,1,a3,
0, 3,Note On,1,c#5,
0, 3,Note On,1,e4,
0, 3,Note On,1,a4,
0, 3,Note On,1,a4,
0, 3,Note On,1,c#6,
0, 3,Note On,1,e5,
0, 3,Note On,1,a5,
0.15822775, 3,Note Off,1,a3,
0, 3,Note Off,1,c#5,
0, 3,Note Off,1,e4,
0, 3,Note Off,1,a4,
0, 3,Note Off,1,a4,
0, 3,Note Off,1,c#6,
0, 3,Note Off,1,e5,
0, 3,Note Off,1,a5,
0, 3,Note On,1,a3,
0, 3,Note On,1,e4,
0, 3,Note On,1,a4,
0, 3,Note On,1,c#5,
0, 3,Note On,1,a4,
0, 3,Note On,1,e5,
0, 3,Note On,1,a5,
0, 3,Note On,1,c#6,
0.15822775, 3,Note Off,1,a3,
0, 3,Note Off,1,e4,
0, 3,Note Off,1,a4,
0, 3,Note Off,1,c#5,
0, 3,Note Off,1,a4,
0, 3,Note Off,1,e5,
0, 3,Note Off,1,a5,
0, 3,Note Off,1,c#6,
0, 3,Note On,1,a3,
0, 3,Note On,1,c#5,
0, 3,Note On,1,e5,
0, 3,Note On,1,a4,
0, 3,Note On,1,e4,
0, 3,Note On,1,a4,
0, 3,Note On,1,c#6,
0, 3,Note On,1,e6,
0, 3,Note On,1,a5,
0, 3,Note On,1,e5,
0.632911, 3,Note Off,1,a3,
0, 3,Note Off,1,c#5,
0, 3,Note Off,1,e5,
0, 3,Note Off,1,a4,
0, 3,Note Off,1,e4,
0, 3,Note Off,1,a4,
0, 3,Note Off,1,c#6,
0, 3,Note Off,1,e6,
0, 3,Note Off,1,a5,
0, 3,Note Off,1,e5,
0.79113875, 3,Note On,1,g6,
0, 3,Note On,1,g5,
0.105485166666667, 3,Note Off,1,g6,
0, 3,Note Off,1,g5,
0.0527425833333333, 3,Note On,1,e6,
0, 3,Note On,1,e5,
0.15822775, 3,Note On,1,d6,
0, 3,Note On,1,d5,
0.0527425833333333, 3,Note Off,1,e6,
0, 3,Note Off,1,e5,
0.0527425833333333, 3,Note Off,1,d6,
0, 3,Note Off,1,d5,
0.0527425833333333, 3,Note On,1,b5,
0, 3,Note On,1,b4,
0.15822775, 3,Note On,1,b5,
0, 3,Note On,1,b4,
0.0527425833333333, 3,Note Off,1,b5,
0, 3,Note Off,1,b4,
0.105485166666667, 3,Note On,1,a5,
0, 3,Note On,1,a4,
0.01977846875, 3,Note Off,1,b5,
0.0131856458333333, 3,Note Off,1,b4,
0.0725210520833333, 3,Note Off,1,a5,
0, 3,Note Off,1,a4,
0.0527425833333333, 3,Note On,1,g5,
0, 3,Note On,1,g4,
0.105485166666667, 3,Note Off,1,g5,
0, 3,Note Off,1,g4,
0.0527425833333333, 3,Note On,1,e4,
0, 3,Note On,1,b3,
0, 3,Note On,1,e5,
0, 3,Note On,1,b4,
0, 3,Note On,1,g#4,
0, 3,Note On,1,e3,
0.632911, 3,Note Off,1,e4,
0, 3,Note Off,1,b3,
0, 3,Note Off,1,e5,
0, 3,Note Off,1,b4,
0, 3,Note Off,1,g#4,
0, 3,Note Off,1,e3,
0.3164555, 3,Note On,1,d4,
0, 3,Note On,1,d5,
0, 3,Note On,1,a4,
0, 3,Note On,1,f#5,
0.15822775, 3,Note Off,1,d4,
0, 3,Note Off,1,d5,
0, 3,Note Off,1,a4,
0, 3,Note Off,1,f#5,
0, 3,Note On,1,f#5,
0, 3,Note On,1,d5,
0, 3,Note On,1,a4,
0, 3,Note On,1,d4,
0.15822775, 3,Note Off,1,f#5,
0, 3,Note Off,1,d5,
0, 3,Note Off,1,a4,
0, 3,Note Off,1,d4,
0, 3,Note On,1,d5,
0, 3,Note On,1,f#5,
0, 3,Note On,1,a4,
0, 3,Note On,1,d4,
0.632911, 3,Note Off,1,d5,
0, 3,Note Off,1,f#5,
0, 3,Note Off,1,a4,
0, 3,Note Off,1,d4,
0.3164555, 3,Note On,1,a3,
0, 3,Note On,1,c#5,
0, 3,Note On,1,e4,
0, 3,Note On,1,a4,
0.15822775, 3,Note Off,1,a3,
0, 3,Note Off,1,c#5,
0, 3,Note Off,1,e4,
0, 3,Note Off,1,a4,
0, 3,Note On,1,a3,
0, 3,Note On,1,e4,
0, 3,Note On,1,a4,
0, 3,Note On,1,c#5,
0.15822775, 3,Note Off,1,a3,
0, 3,Note Off,1,e4,
0, 3,Note Off,1,a4,
0, 3,Note Off,1,c#5,
0, 3,Note On,1,a3,
0, 3,Note On,1,c#5,
0, 3,Note On,1,e5,
0, 3,Note On,1,a4,
0, 3,Note On,1,e4,
0.632911, 3,Note Off,1,a3,
0, 3,Note Off,1,c#5,
0, 3,Note Off,1,e5,
0, 3,Note Off,1,a4,
0, 3,Note Off,1,e4,
0, 3,Note On,1,b4,
0, 3,Note On,1,b3,
0, 3,Note On,1,b5,
0.105485166666667, 3,Note Off,1,b4,
0, 3,Note Off,1,b3,
0, 3,Note Off,1,b5,
0.0527425833333333, 3,Note On,1,g#4,
0, 3,Note On,1,g#3,
0, 3,Note On,1,g#5,
0.210970333333333, 3,Note Off,1,g#4,
0, 3,Note Off,1,g#3,
0, 3,Note Off,1,g#5,
0.105485166666667, 3,Note On,1,b4,
0, 3,Note On,1,b3,
0, 3,Note On,1,b5,
0.105485166666667, 3,Note Off,1,b4,
0, 3,Note Off,1,b3,
0, 3,Note Off,1,b5,
0.0527425833333333, 3,Note On,1,a4,
0, 3,Note On,1,a3,
0, 3,Note On,1,a5,
0.210970333333333, 3,Note Off,1,a4,
0, 3,Note Off,1,a3,
0, 3,Note Off,1,a5,
0.105485166666667, 3,Note On,1,b4,
0, 3,Note On,1,b3,
0, 3,Note On,1,b5,
0.105485166666667, 3,Note Off,1,b4,
0, 3,Note Off,1,b3,
0, 3,Note Off,1,b5,
0.0527425833333333, 3,Note On,1,a#4,
0, 3,Note On,1,a#3,
0, 3,Note On,1,a#5,
0.210970333333333, 3,Note Off,1,a#4,
0, 3,Note Off,1,a#3,
0, 3,Note Off,1,a#5,
0.105485166666667, 3,Note On,1,b4,
0, 3,Note On,1,b3,
0, 3,Note On,1,b5,
0.105485166666667, 3,Note Off,1,b4,
0, 3,Note Off,1,b3,
0, 3,Note Off,1,b5,
0.0527425833333333, 3,Note On,1,a#4,
0, 3,Note On,1,a#3,
0, 3,Note On,1,a#5,
0.105485166666667, 3,Note Off,1,a#4,
0, 3,Note Off,1,a#3,
0, 3,Note Off,1,a#5,
0.0527425833333333, 3,Note On,1,b4,
0, 3,Note On,1,b3,
0, 3,Note On,1,b5,
0.105485166666667, 3,Note Off,1,b4,
0, 3,Note Off,1,b3,
0, 3,Note Off,1,b5,
0.0527425833333333, 3,Note On,1,e4,
0, 3,Note On,1,b3,
0, 3,Note On,1,e5,
0, 3,Note On,1,g#4,
0, 3,Note On,1,e3,
0, 3,Note On,1,e5,
0, 3,Note On,1,b4,
0, 3,Note On,1,e6,
0, 3,Note On,1,b5,
0, 3,Note On,1,g#5,
0, 3,Note On,1,e4,
0, 3,Note On,1,b4,
0.632911, 3,Note Off,1,e4,
0, 3,Note Off,1,b3,
0, 3,Note Off,1,e5,
0, 3,Note Off,1,g#4,
0, 3,Note Off,1,e3,
0, 3,Note Off,1,e5,
0, 3,Note Off,1,b4,
0, 3,Note Off,1,e6,
0, 3,Note Off,1,b5,
0, 3,Note Off,1,g#5,
0, 3,Note Off,1,e4,
0, 3,Note Off,1,b4,
0.3164555, 3,Note On,1,d4,
0, 3,Note On,1,d5,
0, 3,Note On,1,a4,
0, 3,Note On,1,f#5,
0, 3,Note On,1,d5,
0, 3,Note On,1,d6,
0, 3,Note On,1,a5,
0, 3,Note On,1,f#6,
0.15822775, 3,Note Off,1,d4,
0, 3,Note Off,1,d5,
0, 3,Note Off,1,a4,
0, 3,Note Off,1,f#5,
0, 3,Note Off,1,d5,
0, 3,Note Off,1,d6,
0, 3,Note Off,1,a5,
0, 3,Note Off,1,f#6,
0, 3,Note On,1,f#5,
0, 3,Note On,1,d5,
0, 3,Note On,1,a4,
0, 3,Note On,1,d4,
0, 3,Note On,1,f#6,
0, 3,Note On,1,d6,
0, 3,Note On,1,a5,
0, 3,Note On,1,d5,
0.15822775, 3,Note Off,1,f#5,
0, 3,Note Off,1,d5,
0, 3,Note Off,1,a4,
0, 3,Note Off,1,d4,
0, 3,Note Off,1,f#6,
0, 3,Note Off,1,d6,
0, 3,Note Off,1,a5,
0, 3,Note Off,1,d5,
0, 3,Note On,1,d5,
0, 3,Note On,1,f#5,
0, 3,Note On,1,a4,
0, 3,Note On,1,d4,
0, 3,Note On,1,d6,
0, 3,Note On,1,f#6,
0, 3,Note On,1,a5,
0, 3,Note On,1,d5,
0.632911, 3,Note Off,1,d5,
0, 3,Note Off,1,f#5,
0, 3,Note Off,1,a4,
0, 3,Note Off,1,d4,
0, 3,Note Off,1,d6,
0, 3,Note Off,1,f#6,
0, 3,Note Off,1,a5,
0, 3,Note Off,1,d5,
0.3164555, 3,Note On,1,a3,
0, 3,Note On,1,c#5,
0, 3,Note On,1,e4,
0, 3,Note On,1,a4,
0, 3,Note On,1,a4,
0, 3,Note On,1,c#6,
0, 3,Note On,1,e5,
0, 3,Note On,1,a5,
0.15822775, 3,Note Off,1,a3,
0, 3,Note Off,1,c#5,
0, 3,Note Off,1,e4,
0, 3,Note Off,1,a4,
0, 3,Note Off,1,a4,
0, 3,Note Off,1,c#6,
0, 3,Note Off,1,e5,
0, 3,Note Off,1,a5,
0, 3,Note On,1,a3,
0, 3,Note On,1,e4,
0, 3,Note On,1,a4,
0, 3,Note On,1,c#5,
0, 3,Note On,1,a4,
0, 3,Note On,1,e5,
0, 3,Note On,1,a5,
0, 3,Note On,1,c#6,
0.15822775, 3,Note Off,1,a3,
0, 3,Note Off,1,e4,
0, 3,Note Off,1,a4,
0, 3,Note Off,1,c#5,
0, 3,Note Off,1,a4,
0, 3,Note Off,1,e5,
0, 3,Note Off,1,a5,
0, 3,Note Off,1,c#6,
0, 3,Note On,1,a3,
0, 3,Note On,1,c#5,
0, 3,Note On,1,e5,
0, 3,Note On,1,a4,
0, 3,Note On,1,e4,
0, 3,Note On,1,a4,
0, 3,Note On,1,c#6,
0, 3,Note On,1,e6,
0, 3,Note On,1,a5,
0, 3,Note On,1,e5,
0.632911, 3,Note Off,1,a3,
0, 3,Note Off,1,c#5,
0, 3,Note Off,1,e5,
0, 3,Note Off,1,a4,
0, 3,Note Off,1,e4,
0, 3,Note Off,1,a4,
0, 3,Note Off,1,c#6,
0, 3,Note Off,1,e6,
0, 3,Note Off,1,a5,
0, 3,Note Off,1,e5,
0.79113875, 3,Note On,1,g6,
0, 3,Note On,1,g5,
0.105485166666667, 3,Note Off,1,g6,
0, 3,Note Off,1,g5,
0.0527425833333333, 3,Note On,1,e6,
0, 3,Note On,1,e5,
0.15822775, 3,Note On,1,d6,
0, 3,Note On,1,d5,
0.0527425833333333, 3,Note Off,1,e6,
0, 3,Note Off,1,e5,
0.0527425833333333, 3,Note Off,1,d6,
0, 3,Note Off,1,d5,
0.0527425833333333, 3,Note On,1,b5,
0, 3,Note On,1,b4,
0.15822775, 3,Note On,1,b5,
0, 3,Note On,1,b4,
0.0527425833333333, 3,Note Off,1,b5,
0, 3,Note Off,1,b4,
0.105485166666667, 3,Note On,1,a5,
0, 3,Note On,1,a4,
0.01977846875, 3,Note Off,1,b5,
0.0131856458333333, 3,Note Off,1,b4,
0.0725210520833333, 3,Note Off,1,a5,
0, 3,Note Off,1,a4,
0.0527425833333333, 3,Note On,1,g5,
0, 3,Note On,1,g4,
0.105485166666667, 3,Note Off,1,g5,
0, 3,Note Off,1,g4,
0.0527425833333333, 3,Note On,1,e4,
0, 3,Note On,1,b3,
0, 3,Note On,1,e5,
0, 3,Note On,1,b4,
0, 3,Note On,1,g#4,
0, 3,Note On,1,e3,
0.632911, 3,Note Off,1,e4,
0, 3,Note Off,1,b3,
0, 3,Note Off,1,e5,
0, 3,Note Off,1,b4,
0, 3,Note Off,1,g#4,
0, 3,Note Off,1,e3,
0.3164555, 3,Note On,1,d4,
0, 3,Note On,1,d5,
0, 3,Note On,1,a4,
0, 3,Note On,1,f#5,
0.15822775, 3,Note Off,1,d4,
0, 3,Note Off,1,d5,
0, 3,Note Off,1,a4,
0, 3,Note Off,1,f#5,
0, 3,Note On,1,f#5,
0, 3,Note On,1,d5,
0, 3,Note On,1,a4,
0, 3,Note On,1,d4,
0.15822775, 3,Note Off,1,f#5,
0, 3,Note Off,1,d5,
0, 3,Note Off,1,a4,
0, 3,Note Off,1,d4,
0, 3,Note On,1,d5,
0, 3,Note On,1,f#5,
0, 3,Note On,1,a4,
0, 3,Note On,1,d4,
0.632911, 3,Note Off,1,d5,
0, 3,Note Off,1,f#5,
0, 3,Note Off,1,a4,
0, 3,Note Off,1,d4,
0.3164555, 3,Note On,1,a3,
0, 3,Note On,1,c#5,
0, 3,Note On,1,e4,
0, 3,Note On,1,a4,
0.15822775, 3,Note Off,1,a3,
0, 3,Note Off,1,c#5,
0, 3,Note Off,1,e4,
0, 3,Note Off,1,a4,
0, 3,Note On,1,a3,
0, 3,Note On,1,e4,
0, 3,Note On,1,a4,
0, 3,Note On,1,c#5,
0.15822775, 3,Note Off,1,a3,
0, 3,Note Off,1,e4,
0, 3,Note Off,1,a4,
0, 3,Note Off,1,c#5,
0, 3,Note On,1,a3,
0, 3,Note On,1,c#5,
0, 3,Note On,1,e5,
0, 3,Note On,1,a4,
0, 3,Note On,1,e4,
0.632911, 3,Note Off,1,a3,
0, 3,Note Off,1,c#5,
0, 3,Note Off,1,e5,
0, 3,Note Off,1,a4,
0, 3,Note Off,1,e4,
0, 3,Note On,1,b4,
0, 3,Note On,1,b3,
0, 3,Note On,1,b5,
0.105485166666667, 3,Note Off,1,b4,
0, 3,Note Off,1,b3,
0, 3,Note Off,1,b5,
0.0527425833333333, 3,Note On,1,g#4,
0, 3,Note On,1,g#3,
0, 3,Note On,1,g#5,
0.210970333333333, 3,Note Off,1,g#4,
0, 3,Note Off,1,g#3,
0, 3,Note Off,1,g#5,
0.105485166666667, 3,Note On,1,b4,
0, 3,Note On,1,b3,
0, 3,Note On,1,b5,
0.105485166666667, 3,Note Off,1,b4,
0, 3,Note Off,1,b3,
0, 3,Note Off,1,b5,
0.0527425833333333, 3,Note On,1,a4,
0, 3,Note On,1,a3,
0, 3,Note On,1,a5,
0.210970333333333, 3,Note Off,1,a4,
0, 3,Note Off,1,a3,
0, 3,Note Off,1,a5,
0.105485166666667, 3,Note On,1,b4,
0, 3,Note On,1,b3,
0, 3,Note On,1,b5,
0.105485166666667, 3,Note Off,1,b4,
0, 3,Note Off,1,b3,
0, 3,Note Off,1,b5,
0.0527425833333333, 3,Note On,1,a#4,
0, 3,Note On,1,a#3,
0, 3,Note On,1,a#5,
0.210970333333333, 3,Note Off,1,a#4,
0, 3,Note Off,1,a#3,
0, 3,Note Off,1,a#5,
0.105485166666667, 3,Note On,1,b4,
0, 3,Note On,1,b3,
0, 3,Note On,1,b5,
0.105485166666667, 3,Note Off,1,b4,
0, 3,Note Off,1,b3,
0, 3,Note Off,1,b5,
0.0527425833333333, 3,Note On,1,a#4,
0, 3,Note On,1,a#3,
0, 3,Note On,1,a#5,
0.105485166666667, 3,Note Off,1,a#4,
0, 3,Note Off,1,a#3,
0, 3,Note Off,1,a#5,
0.0527425833333333, 3,Note On,1,b4,
0, 3,Note On,1,b3,
0, 3,Note On,1,b5,
0.105485166666667, 3,Note Off,1,b4,
0, 3,Note Off,1,b3,
0, 3,Note Off,1,b5,
0.0461497604166667, 3,Note On,1,a5,
0, 3,Note On,1,e6,
0.00659282291666667, 3,Note Off,1,a5,
0, 3,Note Off,1,e6,
0.3560124375, 3,Note On,1,a5,
0, 3,Note On,1,e5,
0, 3,Note On,1,a6,
0, 3,Note On,1,e6,
0.0263712916666667, 3,Note On,1,a4,
0, 3,Note On,1,a5,
0.309862677083333, 3,Note Off,1,a5,
0, 3,Note Off,1,a6,
0.0131856458333333, 3,Note Off,1,e5,
0, 3,Note Off,1,e6,
0.13844928125, 3,Note Off,1,a4,
0, 3,Note Off,1,a5,
0, 3,Note On,1,b4,
0, 3,Note On,1,b5,
0.0263712916666667, 3,Note Off,1,b4,
0, 3,Note Off,1,b5,
0.00659282291666667, 3,Note On,1,e4,
0, 3,Note On,1,b4,
0, 3,Note On,1,e5,
0, 3,Note On,1,b5,
0.17800621875, 3,Note Off,1,b4,
0, 3,Note Off,1,b5,
0.112077989583333, 3,Note On,1,b4,
0, 3,Note On,1,b5,
0.00659282291666667, 3,Note On,1,f#5,
0, 3,Note On,1,b5,
0, 3,Note On,1,f#6,
0, 3,Note On,1,b6,
0.0725210520833333, 3,Note Off,1,e4,
0, 3,Note Off,1,e5,
0.37579090625, 3,Note Off,1,b4,
0, 3,Note Off,1,b5,
0.09889234375, 3,Note Off,1,f#5,
0, 3,Note Off,1,f#6,
0.00659282291666667, 3,Note Off,1,b5,
0, 3,Note Off,1,b6,
0, 3,Note On,1,a5,
0, 3,Note On,1,a6,
0.01977846875, 3,Note On,1,e5,
0, 3,Note On,1,e6,
0.0329641145833333, 3,Note On,1,a4,
0, 3,Note On,1,a5,
0.184599041666667, 3,Note Off,1,e5,
0, 3,Note Off,1,e6,
0.0131856458333333, 3,Note Off,1,a5,
0, 3,Note Off,1,a6,
0, 3,Note On,1,g5,
0, 3,Note On,1,g6,
0.125263635416667, 3,Note Off,1,g5,
0, 3,Note Off,1,g6,
0.00659282291666667, 3,Note On,1,f#5,
0, 3,Note On,1,g5,
0, 3,Note On,1,f#6,
0, 3,Note On,1,g6,
0.0329641145833333, 3,Note Off,1,a4,
0, 3,Note Off,1,a5,
0, 3,Note Off,1,g5,
0, 3,Note Off,1,g6,
0, 3,Note On,1,b4,
0, 3,Note On,1,b5,
0, 3,Note On,1,b5,
0, 3,Note On,1,b6,
0.184599041666667, 3,Note Off,1,b4,
0, 3,Note Off,1,b5,
0, 3,Note Off,1,b5,
0, 3,Note Off,1,b6,
0.00659282291666667, 3,Note Off,1,f#5,
0, 3,Note Off,1,f#6,
0.553797125, 3,Note On,1,a5,
0, 3,Note On,1,e5,
0, 3,Note On,1,a6,
0, 3,Note On,1,e6,
0.0263712916666667, 3,Note On,1,a4,
0, 3,Note On,1,a5,
0.309862677083333, 3,Note Off,1,a5,
0, 3,Note Off,1,a6,
0.0131856458333333, 3,Note Off,1,e5,
0, 3,Note Off,1,e6,
0.13844928125, 3,Note Off,1,a4,
0, 3,Note Off,1,a5,
0, 3,Note On,1,b4,
0, 3,Note On,1,b5,
0.0263712916666667, 3,Note Off,1,b4,
0, 3,Note Off,1,b5,
0.00659282291666667, 3,Note On,1,e4,
0, 3,Note On,1,b4,
0, 3,Note On,1,e5,
0, 3,Note On,1,b5,
0.17800621875, 3,Note Off,1,b4,
0, 3,Note Off,1,b5,
0.112077989583333, 3,Note On,1,b4,
0, 3,Note On,1,b5,
0.00659282291666667, 3,Note On,1,f#5,
0, 3,Note On,1,b5,
0, 3,Note On,1,f#6,
0, 3,Note On,1,b6,
0.0725210520833333, 3,Note Off,1,e4,
0, 3,Note Off,1,e5,
0.37579090625, 3,Note Off,1,b4,
0, 3,Note Off,1,b5,
0.09889234375, 3,Note Off,1,f#5,
0, 3,Note Off,1,f#6,
0.00659282291666667, 3,Note Off,1,b5,
0, 3,Note Off,1,b6,
0, 3,Note On,1,a5,
0, 3,Note On,1,a6,
0.01977846875, 3,Note On,1,e5,
0, 3,Note On,1,e6,
0.0329641145833333, 3,Note On,1,a4,
0, 3,Note On,1,a5,
0.184599041666667, 3,Note Off,1,e5,
0, 3,Note Off,1,e6,
0.0131856458333333, 3,Note Off,1,a5,
0, 3,Note Off,1,a6,
0, 3,Note On,1,g5,
0, 3,Note On,1,g6,
0.125263635416667, 3,Note Off,1,g5,
0, 3,Note Off,1,g6,
0.00659282291666667, 3,Note On,1,f#5,
0, 3,Note On,1,g5,
0, 3,Note On,1,f#6,
0, 3,Note On,1,g6,
0.0329641145833333, 3,Note Off,1,a4,
0, 3,Note Off,1,a5,
0, 3,Note Off,1,g5,
0, 3,Note Off,1,g6,
0, 3,Note On,1,b4,
0, 3,Note On,1,b5,
0, 3,Note On,1,b5,
0, 3,Note On,1,b6,
0.184599041666667, 3,Note Off,1,b4,
0, 3,Note Off,1,b5,
0, 3,Note Off,1,b5,
0, 3,Note Off,1,b6,
0.00659282291666667, 3,Note Off,1,f#5,
0, 3,Note Off,1,f#6,
0.4351263125, 3,Note On,1,d6,
0.0395569375, 3,Note On,1,g5,
0.0131856458333333, 3,Note On,1,g6,
0.05933540625, 3,Note On,1,d5,
0.184599041666667, 3,Note Off,1,g6,
0.0131856458333333, 3,Note Off,1,d6,
0.1977846875, 3,Note Off,1,g5,
0.0527425833333333, 3,Note Off,1,d5,
0.00659282291666667, 3,Note On,1,d5,
0.0263712916666667, 3,Note On,1,f#6,
0, 3,Note On,1,d6,
0.01977846875, 3,Note On,1,a5,
0.17800621875, 3,Note Off,1,a5,
0.0131856458333333, 3,Note Off,1,f#6,
0.01977846875, 3,Note Off,1,d6,
0.1977846875, 3,Note Off,1,d5,
0.00659282291666667, 3,Note On,1,d5,
0.01977846875, 3,Note On,1,a4,
0.01977846875, 3,Note On,1,a5,
0.0461497604166667, 3,Note Off,1,d5,
0, 3,Note On,1,e5,
0.37579090625, 3,Note Off,1,a4,
0.05933540625, 3,Note Off,1,e5,
0.00659282291666667, 3,Note On,1,g4,
0.0263712916666667, 3,Note On,1,c5,
0, 3,Note Off,1,c5,
0.191191864583333, 3,Note Off,1,g4,
0.01977846875, 3,Note Off,1,a5,
0.00659282291666667, 3,Note On,1,a5,
0.01977846875, 3,Note On,1,a4,
0.0131856458333333, 3,Note On,1,e5,
0.461497604166667, 3,Note On,1,a4,
0.131856458333333, 3,Note Off,1,a5,
0.00659282291666667, 3,Note Off,1,e5,
0.112077989583333, 3,Note On,1,g6,
0.00659282291666667, 3,Note Off,1,a4,
0.00659282291666667, 3,Note On,1,d6,
0, 3,Note On,1,g4,
0.0131856458333333, 3,Note On,1,d5,
0.0461497604166667, 3,Note On,1,g5,
0.15822775, 3,Note Off,1,g4,
0.0329641145833333, 3,Note Off,1,d6,
0.00659282291666667, 3,Note Off,1,g6,
0.210970333333333, 3,Note Off,1,a4,
0, 3,Note Off,1,g5,
0.0527425833333333, 3,Note On,1,f#6,
0, 3,Note On,1,d6,
0, 3,Note On,1,a5,
0.00659282291666667, 3,Note On,1,d5,
0.210970333333333, 3,Note Off,1,d5,
0.0329641145833333, 3,Note Off,1,a5,
0.0329641145833333, 3,Note Off,1,f#6,
0.0395569375, 3,Note Off,1,d6,
0.13844928125, 3,Note Off,1,d5,
0, 3,Note On,1,e5,
0.01977846875, 3,Note On,1,a4,
0.0395569375, 3,Note On,1,a5,
0.45490478125, 3,Note Off,1,e5,
0, 3,Note Off,1,a4,
0.01977846875, 3,Note On,1,g4,
0.237341625, 3,Note Off,1,g4,
0.0131856458333333, 3,Note Off,1,a5,
0.0131856458333333, 3,Note On,1,a5,
0, 3,Note On,1,a#4,
0.01977846875, 3,Note On,1,f5,
0.09889234375, 3,Note Off,1,a#4,
0, 3,Note On,1,a4,
0.0395569375, 3,Note Off,1,f5,
0.00659282291666667, 3,Note On,1,e5,
0.619725354166667, 3,Note Off,1,a5,
0, 3,Note Off,1,e5,
0.05933540625, 3,Note On,1,a5,
0, 3,Note On,1,e5,
0, 3,Note On,1,a6,
0, 3,Note On,1,e6,
0.0263712916666667, 3,Note On,1,a4,
0, 3,Note On,1,a5,
0.0263712916666667, 3,Note Off,1,a4,
0.283491385416667, 3,Note Off,1,a5,
0, 3,Note Off,1,a6,
0.0131856458333333, 3,Note Off,1,e5,
0, 3,Note Off,1,e6,
0.13844928125, 3,Note Off,1,a4,
0, 3,Note Off,1,a5,
0, 3,Note On,1,b4,
0, 3,Note On,1,b5,
0.0263712916666667, 3,Note Off,1,b4,
0, 3,Note Off,1,b5,
0.00659282291666667, 3,Note On,1,e4,
0, 3,Note On,1,b4,
0, 3,Note On,1,e5,
0, 3,Note On,1,b5,
0.17800621875, 3,Note Off,1,b4,
0, 3,Note Off,1,b5,
0.112077989583333, 3,Note On,1,b4,
0, 3,Note On,1,b5,
0.00659282291666667, 3,Note On,1,f#5,
0, 3,Note On,1,b5,
0, 3,Note On,1,f#6,
0, 3,Note On,1,b6,
0.0725210520833333, 3,Note Off,1,e4,
0, 3,Note Off,1,e5,
0.37579090625, 3,Note Off,1,b4,
0, 3,Note Off,1,b5,
0.09889234375, 3,Note Off,1,f#5,
0, 3,Note Off,1,f#6,
0.00659282291666667, 3,Note Off,1,b5,
0, 3,Note Off,1,b6,
0, 3,Note On,1,a5,
0, 3,Note On,1,a6,
0.01977846875, 3,Note On,1,e5,
0, 3,Note On,1,e6,
0.0329641145833333, 3,Note On,1,a4,
0, 3,Note On,1,a5,
0.184599041666667, 3,Note Off,1,e5,
0, 3,Note Off,1,e6,
0.0131856458333333, 3,Note Off,1,a5,
0, 3,Note Off,1,a6,
0, 3,Note On,1,g5,
0, 3,Note On,1,g6,
0.125263635416667, 3,Note Off,1,g5,
0, 3,Note Off,1,g6,
0.00659282291666667, 3,Note On,1,f#5,
0, 3,Note On,1,g5,
0, 3,Note On,1,f#6,
0, 3,Note On,1,g6,
0.0329641145833333, 3,Note Off,1,a4,
0, 3,Note Off,1,a5,
0, 3,Note Off,1,g5,
0, 3,Note Off,1,g6,
0, 3,Note On,1,b4,
0, 3,Note On,1,b5,
0, 3,Note On,1,b5,
0, 3,Note On,1,b6,
0.184599041666667, 3,Note Off,1,b4,
0, 3,Note Off,1,b5,
0, 3,Note Off,1,b5,
0, 3,Note Off,1,b6,
0.00659282291666667, 3,Note Off,1,f#5,
0, 3,Note Off,1,f#6,
0.553797125, 3,Note On,1,a5,
0, 3,Note On,1,e5,
0, 3,Note On,1,a6,
0, 3,Note On,1,e6,
0.0263712916666667, 3,Note On,1,a4,
0, 3,Note On,1,a5,
0.309862677083333, 3,Note Off,1,a5,
0, 3,Note Off,1,a6,
0.0131856458333333, 3,Note Off,1,e5,
0, 3,Note Off,1,e6,
0.13844928125, 3,Note Off,1,a4,
0, 3,Note Off,1,a5,
0, 3,Note On,1,b4,
0, 3,Note On,1,b5,
0.0263712916666667, 3,Note Off,1,b4,
0, 3,Note Off,1,b5,
0.00659282291666667, 3,Note On,1,e4,
0, 3,Note On,1,b4,
0, 3,Note On,1,e5,
0, 3,Note On,1,b5,
0.17800621875, 3,Note Off,1,b4,
0, 3,Note Off,1,b5,
0.112077989583333, 3,Note On,1,b4,
0, 3,Note On,1,b5,
0.00659282291666667, 3,Note On,1,f#5,
0, 3,Note On,1,b5,
0, 3,Note On,1,f#6,
0, 3,Note On,1,b6,
0.0725210520833333, 3,Note Off,1,e4,
0, 3,Note Off,1,e5,
0.37579090625, 3,Note Off,1,b4,
0, 3,Note Off,1,b5,
0.09889234375, 3,Note Off,1,f#5,
0, 3,Note Off,1,f#6,
0.00659282291666667, 3,Note Off,1,b5,
0, 3,Note Off,1,b6,
0, 3,Note On,1,a5,
0, 3,Note On,1,a6,
0.01977846875, 3,Note On,1,e5,
0, 3,Note On,1,e6,
0.0329641145833333, 3,Note On,1,a4,
0, 3,Note On,1,a5,
0.184599041666667, 3,Note Off,1,e5,
0, 3,Note Off,1,e6,
0.0131856458333333, 3,Note Off,1,a5,
0, 3,Note Off,1,a6,
0, 3,Note On,1,g5,
0, 3,Note On,1,g6,
0.125263635416667, 3,Note Off,1,g5,
0, 3,Note Off,1,g6,
0.00659282291666667, 3,Note On,1,f#5,
0, 3,Note On,1,g5,
0, 3,Note On,1,f#6,
0, 3,Note On,1,g6,
0.0329641145833333, 3,Note Off,1,a4,
0, 3,Note Off,1,a5,
0, 3,Note Off,1,g5,
0, 3,Note Off,1,g6,
0, 3,Note On,1,b4,
0, 3,Note On,1,b5,
0, 3,Note On,1,b5,
0, 3,Note On,1,b6,
0.184599041666667, 3,Note Off,1,b4,
0, 3,Note Off,1,b5,
0, 3,Note Off,1,b5,
0, 3,Note Off,1,b6,
0.00659282291666667, 3,Note Off,1,f#5,
0, 3,Note Off,1,f#6,
0.1977846875, 3,Note On,1,d4,
0, 3,Note On,1,g4,
0, 3,Note On,1,g5,
0, 3,Note On,1,d5,
0, 3,Note On,1,b4,
0.3164555, 3,Note Off,1,d4,
0, 3,Note Off,1,g4,
0, 3,Note Off,1,g5,
0, 3,Note Off,1,d5,
0, 3,Note Off,1,b4,
0.15822775, 3,Note On,1,d4,
0, 3,Note On,1,g4,
0, 3,Note On,1,g5,
0, 3,Note On,1,d5,
0, 3,Note On,1,b4,
0.3164555, 3,Note Off,1,d4,
0, 3,Note Off,1,g4,
0, 3,Note Off,1,g5,
0, 3,Note Off,1,d5,
0, 3,Note Off,1,b4,
0.15822775, 3,Note On,1,d4,
0, 3,Note On,1,g4,
0, 3,Note On,1,g5,
0, 3,Note On,1,d5,
0, 3,Note On,1,b4,
0.3164555, 3,Note Off,1,d4,
0, 3,Note Off,1,g4,
0, 3,Note Off,1,g5,
0, 3,Note Off,1,d5,
0, 3,Note Off,1,b4,
0.15822775, 3,Note On,1,d4,
0, 3,Note On,1,g4,
0, 3,Note On,1,b4,
0, 3,Note On,1,d5,
0, 3,Note On,1,g5,
0.105485166666667, 3,Note Off,1,d4,
0, 3,Note Off,1,g4,
0, 3,Note Off,1,b4,
0, 3,Note Off,1,d5,
0, 3,Note Off,1,g5,
0.0527425833333333, 3,Note On,1,b4,
0, 3,Note On,1,g5,
0, 3,Note On,1,c#4,
0.105485166666667, 3,Note Off,1,b4,
0, 3,Note Off,1,g5,
0, 3,Note Off,1,c#4,
0.0527425833333333, 3,Note On,1,d4,
0, 3,Note On,1,b4,
0, 3,Note On,1,g4,
0, 3,Note On,1,d5,
0, 3,Note On,1,g5,
0.105485166666667, 3,Note Off,1,d4,
0, 3,Note Off,1,b4,
0, 3,Note Off,1,g4,
0, 3,Note Off,1,d5,
0, 3,Note Off,1,g5,
0.0527425833333333, 3,Note On,1,d4,
0, 3,Note On,1,g4,
0, 3,Note On,1,b4,
0, 3,Note On,1,d5,
0, 3,Note On,1,g5,
0.210970333333333, 3,Note Off,1,d4,
0, 3,Note Off,1,g4,
0, 3,Note Off,1,b4,
0, 3,Note Off,1,d5,
0, 3,Note Off,1,g5,
0.105485166666667, 3,Note On,1,d4,
0, 3,Note On,1,g4,
0, 3,Note On,1,b4,
0, 3,Note On,1,d5,
0, 3,Note On,1,g5,
0.210970333333333, 3,Note Off,1,d4,
0, 3,Note Off,1,g4,
0, 3,Note Off,1,b4,
0, 3,Note Off,1,d5,
0, 3,Note Off,1,g5,
0.105485166666667, 3,Note On,1,d4,
0, 3,Note On,1,f#5,
0, 3,Note On,1,a4,
0, 3,Note On,1,d5,
0.3164555, 3,Note Off,1,d4,
0, 3,Note Off,1,f#5,
0, 3,Note Off,1,a4,
0, 3,Note Off,1,d5,
0.15822775, 3,Note On,1,d4,
0, 3,Note On,1,d5,
0, 3,Note On,1,f#5,
0, 3,Note On,1,a4,
0.3164555, 3,Note Off,1,d4,
0, 3,Note Off,1,d5,
0, 3,Note Off,1,f#5,
0, 3,Note Off,1,a4,
0.15822775, 3,Note On,1,d4,
0, 3,Note On,1,d5,
0, 3,Note On,1,f#5,
0, 3,Note On,1,a4,
0.843881333333333, 3,Note Off,1,d4,
0, 3,Note Off,1,d5,
0, 3,Note Off,1,f#5,
0, 3,Note Off,1,a4,
0.738396166666667, 3,Note On,1,e3,
0, 3,Note On,1,e5,
0, 3,Note On,1,e4,
0.00659282291666667, 3,Note On,1,b4,
0.290084208333333, 3,Note Off,1,e3,
0.01977846875, 3,Note Off,1,e4,
0.0131856458333333, 3,Note Off,1,b4,
0.00659282291666667, 3,Note Off,1,e5,
0.679060760416667, 3,Note On,1,d4,
0, 3,Note On,1,a4,
0.00659282291666667, 3,Note On,1,e3,
0, 3,Note On,1,d5,
0.13844928125, 3,Note Off,1,a4,
0, 3,Note On,1,a4,
0.13844928125, 3,Note Off,1,d4,
0.00659282291666667, 3,Note Off,1,a4,
0, 3,Note On,1,d4,
0.0131856458333333, 3,Note Off,1,d5,
0, 3,Note On,1,a4,
0.00659282291666667, 3,Note On,1,d5,
0.290084208333333, 3,Note Off,1,d4,
0.01977846875, 3,Note Off,1,a4,
0.00659282291666667, 3,Note Off,1,d5,
0.0461497604166667, 3,Note Off,1,e3,
0.560389947916667, 3,Note On,1,c#4,
0.00659282291666667, 3,Note On,1,d5,
0, 3,Note On,1,a4,
0, 3,Note On,1,e3,
0.15822775, 3,Note Off,1,a4,
0.00659282291666667, 3,Note On,1,a4,
0.09889234375, 3,Note On,1,e3,
0.0131856458333333, 3,Note Off,1,e3,
0.0395569375, 3,Note On,1,f#5,
0.3164555, 3,Note Off,1,c#4,
0, 3,Note Off,1,f#5,
0.01977846875, 3,Note Off,1,d5,
0, 3,Note Off,1,a4,
0.224155979166667, 3,Note Off,1,e3,
0.388976552083333, 3,Note On,1,b4,
0, 3,Note On,1,e4,
0, 3,Note On,1,e3,
0.0329641145833333, 3,Note On,1,e5,
0.09889234375, 3,Note Off,1,b4,
0.00659282291666667, 3,Note On,1,b4,
0.079113875, 3,Note Off,1,e3,
0.0395569375, 3,Note Off,1,e4,
0.00659282291666667, 3,Note Off,1,e5,
0.0461497604166667, 3,Note On,1,e5,
0.0131856458333333, 3,Note On,1,g#5,
0.237341625, 3,Note Off,1,g#5,
0.01977846875, 3,Note Off,1,e5,
0.0131856458333333, 3,Note Off,1,b4,
0.0395569375, 3,Note On,1,b4,
0, 3,Note On,1,e4,
0, 3,Note On,1,e3,
0.0329641145833333, 3,Note On,1,e5,
0.09889234375, 3,Note Off,1,b4,
0.00659282291666667, 3,Note On,1,b4,
0.171413395833333, 3,Note Off,1,e5,
0, 3,Note On,1,e5,
0.0131856458333333, 3,Note On,1,g#5,
0.237341625, 3,Note Off,1,g#5,
0.01977846875, 3,Note Off,1,e5,
0.00659282291666667, 3,Note Off,1,e4,
0.00659282291666667, 3,Note Off,1,b4,
0.0395569375, 3,Note On,1,b4,
0, 3,Note On,1,e4,
0, 3,Note On,1,e3,
0.0329641145833333, 3,Note On,1,e5,
0.09889234375, 3,Note Off,1,b4,
0.00659282291666667, 3,Note On,1,b4,
0.0131856458333333, 3,Note Off,1,e3,
0.125263635416667, 3,Note On,1,e3,
0, 3,Note On,1,e5,
0, 3,Note On,1,e4,
0.00659282291666667, 3,Note On,1,b4,
0.0263712916666667, 3,Note Off,1,e5,
0.263712916666667, 3,Note Off,1,e3,
0.0131856458333333, 3,Note Off,1,e4,
0.00659282291666667, 3,Note Off,1,b4,
0, 3,Note Off,1,e4,
0.0131856458333333, 3,Note Off,1,b4,
0.00659282291666667, 3,Note Off,1,e5,
0.171413395833333, 3,Note Off,1,e3,
0.507647364583333, 3,Note On,1,d4,
0, 3,Note On,1,a4,
0.00659282291666667, 3,Note On,1,e3,
0, 3,Note On,1,d5,
0.13844928125, 3,Note Off,1,a4,
0, 3,Note On,1,a4,
0.13844928125, 3,Note Off,1,d4,
0.00659282291666667, 3,Note Off,1,a4,
0, 3,Note On,1,d4,
0.0131856458333333, 3,Note Off,1,d5,
0, 3,Note On,1,a4,
0.00659282291666667, 3,Note On,1,d5,
0.290084208333333, 3,Note Off,1,d4,
0.01977846875, 3,Note Off,1,a4,
0.00659282291666667, 3,Note Off,1,d5,
0.0461497604166667, 3,Note Off,1,e3,
0.560389947916667, 3,Note On,1,c#4,
0.00659282291666667, 3,Note On,1,d5,
0, 3,Note On,1,a4,
0, 3,Note On,1,e3,
0.15822775, 3,Note Off,1,a4,
0.00659282291666667, 3,Note On,1,a4,
0.09889234375, 3,Note On,1,e3,
0.0131856458333333, 3,Note Off,1,e3,
0.0395569375, 3,Note On,1,f#5,
0.3164555, 3,Note Off,1,c#4,
0, 3,Note Off,1,f#5,
0.01977846875, 3,Note Off,1,d5,
0, 3,Note Off,1,a4,
0.224155979166667, 3,Note Off,1,e3,
0.388976552083333, 3,Note On,1,e4,
0.00659282291666667, 3,Note On,1,b4,
0.270305739583333, 3,Note On,1,a4,
0, 3,Note On,1,c#6,
0, 3,Note On,1,a5,
0, 3,Note On,1,e5,
0.0395569375, 3,Note Off,1,e4,
0.0131856458333333, 3,Note Off,1,b4,
0.382383729166667, 3,Note Off,1,e5,
0.0131856458333333, 3,Note Off,1,c#6,
0.01977846875, 3,Note Off,1,a5,
0, 3,Note On,1,e4,
0, 3,Note On,1,g#5,
0, 3,Note On,1,b5,
0, 3,Note On,1,b4,
0, 3,Note On,1,e5,
0.00659282291666667, 3,Note Off,1,a4,
0.408755020833333, 3,Note Off,1,b4,
0.0263712916666667, 3,Note Off,1,b5,
0, 3,Note Off,1,e5,
0.0395569375, 3,Note Off,1,e4,
0.00659282291666667, 3,Note Off,1,g#5,
0.0263712916666667, 3,Note On,1,e4,
0, 3,Note On,1,a4,
0.0131856458333333, 3,Note On,1,c#6,
0, 3,Note On,1,a5,
0, 3,Note On,1,f#6,
0.00659282291666667, 3,Note On,1,e5,
0.263712916666667, 3,Note On,1,e3,
0, 3,Note On,1,e5,
0, 3,Note On,1,e4,
0.00659282291666667, 3,Note On,1,b4,
0.0263712916666667, 3,Note Off,1,e4,
0, 3,Note Off,1,a4,
0.00659282291666667, 3,Note Off,1,f#6,
0, 3,Note Off,1,e5,
0.0329641145833333, 3,Note Off,1,a5,
0.00659282291666667, 3,Note Off,1,c#6,
0.21756315625, 3,Note Off,1,e3,
0.01977846875, 3,Note Off,1,e4,
0.0131856458333333, 3,Note Off,1,b4,
0.00659282291666667, 3,Note Off,1,e5,
0.679060760416667, 3,Note On,1,d4,
0, 3,Note On,1,a4,
0.00659282291666667, 3,Note On,1,e3,
0, 3,Note On,1,d5,
0.13844928125, 3,Note Off,1,a4,
0, 3,Note On,1,a4,
0.13844928125, 3,Note Off,1,d4,
0.00659282291666667, 3,Note Off,1,a4,
0, 3,Note On,1,d4,
0.0131856458333333, 3,Note Off,1,d5,
0, 3,Note On,1,a4,
0.00659282291666667, 3,Note On,1,d5,
0.290084208333333, 3,Note Off,1,d4,
0.01977846875, 3,Note Off,1,a4,
0.00659282291666667, 3,Note Off,1,d5,
0.0461497604166667, 3,Note Off,1,e3,
0.560389947916667, 3,Note On,1,c#4,
0.00659282291666667, 3,Note On,1,d5,
0, 3,Note On,1,a4,
0, 3,Note On,1,e3,
0.15822775, 3,Note Off,1,a4,
0.00659282291666667, 3,Note On,1,a4,
0.09889234375, 3,Note On,1,e3,
0.0131856458333333, 3,Note Off,1,e3,
0.0395569375, 3,Note On,1,f#5,
0.3164555, 3,Note Off,1,c#4,
0, 3,Note Off,1,f#5,
0.01977846875, 3,Note Off,1,d5,
0, 3,Note Off,1,a4,
0.224155979166667, 3,Note Off,1,e3,
0.388976552083333, 3,Note On,1,b4,
0, 3,Note On,1,e4,
0, 3,Note On,1,e3,
0.0329641145833333, 3,Note On,1,e5,
0.09889234375, 3,Note Off,1,b4,
0.00659282291666667, 3,Note On,1,b4,
0.079113875, 3,Note Off,1,e3,
0.0395569375, 3,Note Off,1,e4,
0.00659282291666667, 3,Note Off,1,e5,
0.0461497604166667, 3,Note On,1,e5,
0.0131856458333333, 3,Note On,1,g#5,
0.237341625, 3,Note Off,1,g#5,
0.01977846875, 3,Note Off,1,e5,
0.0131856458333333, 3,Note Off,1,b4,
0.0395569375, 3,Note On,1,b4,
0, 3,Note On,1,e4,
0, 3,Note On,1,e3,
0.0329641145833333, 3,Note On,1,e5,
0.09889234375, 3,Note Off,1,b4,
0.00659282291666667, 3,Note On,1,b4,
0.171413395833333, 3,Note Off,1,e5,
0, 3,Note On,1,e5,
0.0131856458333333, 3,Note On,1,g#5,
0.237341625, 3,Note Off,1,g#5,
0.01977846875, 3,Note Off,1,e5,
0.00659282291666667, 3,Note Off,1,e4,
0.00659282291666667, 3,Note Off,1,b4,
0.0395569375, 3,Note On,1,b4,
0, 3,Note On,1,e4,
0, 3,Note On,1,e3,
0.0329641145833333, 3,Note On,1,e5,
0.09889234375, 3,Note Off,1,b4,
0.00659282291666667, 3,Note On,1,b4,
0.0131856458333333, 3,Note Off,1,e3,
0.125263635416667, 3,Note On,1,e3,
0, 3,Note On,1,e5,
0, 3,Note On,1,e4,
0.00659282291666667, 3,Note On,1,b4,
0.0263712916666667, 3,Note Off,1,e5,
0.263712916666667, 3,Note Off,1,e3,
0.0131856458333333, 3,Note Off,1,e4,
0.00659282291666667, 3,Note Off,1,b4,
0, 3,Note Off,1,e4,
0.0131856458333333, 3,Note Off,1,b4,
0.00659282291666667, 3,Note Off,1,e5,
0.171413395833333, 3,Note Off,1,e3,
0.507647364583333, 3,Note On,1,d4,
0, 3,Note On,1,a4,
0.00659282291666667, 3,Note On,1,e3,
0, 3,Note On,1,d5,
0.13844928125, 3,Note Off,1,a4,
0, 3,Note On,1,a4,
0.13844928125, 3,Note Off,1,d4,
0.00659282291666667, 3,Note Off,1,a4,
0, 3,Note On,1,d4,
0.0131856458333333, 3,Note Off,1,d5,
0, 3,Note On,1,a4,
0.00659282291666667, 3,Note On,1,d5,
0.290084208333333, 3,Note Off,1,d4,
0.01977846875, 3,Note Off,1,a4,
0.00659282291666667, 3,Note Off,1,d5,
0.0461497604166667, 3,Note Off,1,e3,
0.560389947916667, 3,Note On,1,c#4,
0.00659282291666667, 3,Note On,1,d5,
0, 3,Note On,1,a4,
0, 3,Note On,1,e3,
0.15822775, 3,Note Off,1,a4,
0.00659282291666667, 3,Note On,1,a4,
0.09889234375, 3,Note On,1,e3,
0.0131856458333333, 3,Note Off,1,e3,
0.0395569375, 3,Note On,1,f#5,
0.3164555, 3,Note Off,1,c#4,
0, 3,Note Off,1,f#5,
0.01977846875, 3,Note Off,1,d5,
0, 3,Note Off,1,a4,
0.224155979166667, 3,Note Off,1,e3,
0.388976552083333, 3,Note On,1,e4,
0.00659282291666667, 3,Note On,1,b4,
0.270305739583333, 3,Note On,1,a4,
0, 3,Note On,1,c#6,
0, 3,Note On,1,a5,
0, 3,Note On,1,e5,
0.0395569375, 3,Note Off,1,e4,
0.0131856458333333, 3,Note Off,1,b4,
0.382383729166667, 3,Note Off,1,e5,
0.0131856458333333, 3,Note Off,1,c#6,
0.01977846875, 3,Note Off,1,a5,
0, 3,Note On,1,e4,
0, 3,Note On,1,g#5,
0, 3,Note On,1,b5,
0, 3,Note On,1,b4,
0, 3,Note On,1,e5,
0.00659282291666667, 3,Note Off,1,a4,
0.408755020833333, 3,Note Off,1,b4,
0.0263712916666667, 3,Note Off,1,b5,
0, 3,Note Off,1,e5,
0.0395569375, 3,Note Off,1,e4,
0.00659282291666667, 3,Note Off,1,g#5,
0.0263712916666667, 3,Note On,1,e4,
0, 3,Note On,1,a4,
0.0131856458333333, 3,Note On,1,c#6,
0, 3,Note On,1,a5,
0, 3,Note On,1,f#6,
0.00659282291666667, 3,Note On,1,e5,
0.263712916666667, 3,Note On,1,e3,
0, 3,Note On,1,e5,
0, 3,Note On,1,e4,
0.00659282291666667, 3,Note On,1,b4,
0.0263712916666667, 3,Note Off,1,e4,
0, 3,Note Off,1,a4,
0.00659282291666667, 3,Note Off,1,f#6,
0, 3,Note Off,1,e5,
0.0329641145833333, 3,Note Off,1,a5,
0.00659282291666667, 3,Note Off,1,c#6,
0.21756315625, 3,Note Off,1,e3,
0.01977846875, 3,Note Off,1,e4,
0.0131856458333333, 3,Note Off,1,b4,
0.00659282291666667, 3,Note Off,1,e5,
0.679060760416667, 3,Note On,1,d4,
0, 3,Note On,1,a4,
0.00659282291666667, 3,Note On,1,e3,
0, 3,Note On,1,d5,
0.13844928125, 3,Note Off,1,a4,
0, 3,Note On,1,a4,
0.13844928125, 3,Note Off,1,d4,
0.00659282291666667, 3,Note Off,1,a4,
0, 3,Note On,1,d4,
0.0131856458333333, 3,Note Off,1,d5,
0, 3,Note On,1,a4,
0.00659282291666667, 3,Note On,1,d5,
0.290084208333333, 3,Note Off,1,d4,
0.01977846875, 3,Note Off,1,a4,
0.00659282291666667, 3,Note Off,1,d5,
0.0461497604166667, 3,Note Off,1,e3,
0.560389947916667, 3,Note On,1,c#4,
0.00659282291666667, 3,Note On,1,d5,
0, 3,Note On,1,a4,
0, 3,Note On,1,e3,
0.15822775, 3,Note Off,1,a4,
0.00659282291666667, 3,Note On,1,a4,
0.09889234375, 3,Note On,1,e3,
0.0131856458333333, 3,Note Off,1,e3,
0.0395569375, 3,Note On,1,f#5,
0.3164555, 3,Note Off,1,c#4,
0, 3,Note Off,1,f#5,
0.01977846875, 3,Note Off,1,d5,
0, 3,Note Off,1,a4,
0.224155979166667, 3,Note Off,1,e3,
0.388976552083333, 3,Note On,1,b4,
0, 3,Note On,1,e4,
0, 3,Note On,1,e3,
0.0329641145833333, 3,Note On,1,e5,
0.09889234375, 3,Note Off,1,b4,
0.00659282291666667, 3,Note On,1,b4,
0.079113875, 3,Note Off,1,e3,
0.0395569375, 3,Note Off,1,e4,
0.00659282291666667, 3,Note Off,1,e5,
0.0461497604166667, 3,Note On,1,e5,
0.0131856458333333, 3,Note On,1,g#5,
0.237341625, 3,Note Off,1,g#5,
0.01977846875, 3,Note Off,1,e5,
0.0131856458333333, 3,Note Off,1,b4,
0.0395569375, 3,Note On,1,b4,
0, 3,Note On,1,e4,
0, 3,Note On,1,e3,
0.0329641145833333, 3,Note On,1,e5,
0.09889234375, 3,Note Off,1,b4,
0.00659282291666667, 3,Note On,1,b4,
0.171413395833333, 3,Note Off,1,e5,
0, 3,Note On,1,e5,
0.0131856458333333, 3,Note On,1,g#5,
0.237341625, 3,Note Off,1,g#5,
0.01977846875, 3,Note Off,1,e5,
0.00659282291666667, 3,Note Off,1,e4,
0.00659282291666667, 3,Note Off,1,b4,
0.0395569375, 3,Note On,1,b4,
0, 3,Note On,1,e4,
0, 3,Note On,1,e3,
0.0329641145833333, 3,Note On,1,e5,
0.09889234375, 3,Note Off,1,b4,
0.00659282291666667, 3,Note On,1,b4,
0.0131856458333333, 3,Note Off,1,e3,
0.125263635416667, 3,Note On,1,e3,
0, 3,Note On,1,e5,
0, 3,Note On,1,e4,
0.00659282291666667, 3,Note On,1,b4,
0.0263712916666667, 3,Note Off,1,e5,
0.263712916666667, 3,Note Off,1,e3,
0.0131856458333333, 3,Note Off,1,e4,
0.00659282291666667, 3,Note Off,1,b4,
0, 3,Note Off,1,e4,
0.0131856458333333, 3,Note Off,1,b4,
0.00659282291666667, 3,Note Off,1,e5,
0.171413395833333, 3,Note Off,1,e3,
0.507647364583333, 3,Note On,1,d4,
0, 3,Note On,1,a4,
0.00659282291666667, 3,Note On,1,e3,
0, 3,Note On,1,d5,
0.13844928125, 3,Note Off,1,a4,
0, 3,Note On,1,a4,
0.13844928125, 3,Note Off,1,d4,
0.00659282291666667, 3,Note Off,1,a4,
0, 3,Note On,1,d4,
0.0131856458333333, 3,Note Off,1,d5,
0, 3,Note On,1,a4,
0.00659282291666667, 3,Note On,1,d5,
0.290084208333333, 3,Note Off,1,d4,
0.01977846875, 3,Note Off,1,a4,
0.00659282291666667, 3,Note Off,1,d5,
0.0461497604166667, 3,Note Off,1,e3,
0.560389947916667, 3,Note On,1,c#4,
0.00659282291666667, 3,Note On,1,d5,
0, 3,Note On,1,a4,
0, 3,Note On,1,e3,
0.15822775, 3,Note Off,1,a4,
0.00659282291666667, 3,Note On,1,a4,
0.09889234375, 3,Note On,1,e3,
0.0131856458333333, 3,Note Off,1,e3,
0.0395569375, 3,Note On,1,f#5,
0.3164555, 3,Note Off,1,c#4,
0, 3,Note Off,1,f#5,
0.01977846875, 3,Note Off,1,d5,
0, 3,Note Off,1,a4,
0.224155979166667, 3,Note Off,1,e3,
0.388976552083333, 3,Note On,1,e4,
0.00659282291666667, 3,Note On,1,b4,
0.270305739583333, 3,Note On,1,a4,
0, 3,Note On,1,c#6,
0, 3,Note On,1,a5,
0, 3,Note On,1,e5,
0.0395569375, 3,Note Off,1,e4,
0.0131856458333333, 3,Note Off,1,b4,
0.382383729166667, 3,Note Off,1,e5,
0.0131856458333333, 3,Note Off,1,c#6,
0.01977846875, 3,Note Off,1,a5,
0, 3,Note On,1,e4,
0, 3,Note On,1,g#5,
0, 3,Note On,1,b5,
0, 3,Note On,1,b4,
0, 3,Note On,1,e5,
0.00659282291666667, 3,Note Off,1,a4,
0.408755020833333, 3,Note Off,1,b4,
0.0263712916666667, 3,Note Off,1,b5,
0, 3,Note Off,1,e5,
0.0395569375, 3,Note Off,1,e4,
0.00659282291666667, 3,Note Off,1,g#5,
0.0263712916666667, 3,Note On,1,e4,
0, 3,Note On,1,a4,
0.0131856458333333, 3,Note On,1,c#6,
0, 3,Note On,1,a5,
0, 3,Note On,1,f#6,
0.00659282291666667, 3,Note On,1,e5,
0.263712916666667, 3,Note On,1,e3,
0, 3,Note On,1,e5,
0, 3,Note On,1,e4,
0.00659282291666667, 3,Note On,1,b4,
0.0263712916666667, 3,Note Off,1,e4,
0, 3,Note Off,1,a4,
0.00659282291666667, 3,Note Off,1,f#6,
0, 3,Note Off,1,e5,
0.0329641145833333, 3,Note Off,1,a5,
0.00659282291666667, 3,Note Off,1,c#6,
0.21756315625, 3,Note Off,1,e3,
0.01977846875, 3,Note Off,1,e4,
0.0131856458333333, 3,Note Off,1,b4,
0.00659282291666667, 3,Note Off,1,e5,
0.679060760416667, 3,Note On,1,d4,
0, 3,Note On,1,a4,
0.00659282291666667, 3,Note On,1,e3,
0, 3,Note On,1,d5,
0.13844928125, 3,Note Off,1,a4,
0, 3,Note On,1,a4,
0.13844928125, 3,Note Off,1,d4,
0.00659282291666667, 3,Note Off,1,a4,
0, 3,Note On,1,d4,
0.0131856458333333, 3,Note Off,1,d5,
0, 3,Note On,1,a4,
0.00659282291666667, 3,Note On,1,d5,
0.290084208333333, 3,Note Off,1,d4,
0.01977846875, 3,Note Off,1,a4,
0.00659282291666667, 3,Note Off,1,d5,
0.0461497604166667, 3,Note Off,1,e3,
0.560389947916667, 3,Note On,1,c#4,
0.00659282291666667, 3,Note On,1,d5,
0, 3,Note On,1,a4,
0, 3,Note On,1,e3,
0.15822775, 3,Note Off,1,a4,
0.00659282291666667, 3,Note On,1,a4,
0.09889234375, 3,Note On,1,e3,
0.0131856458333333, 3,Note Off,1,e3,
0.0395569375, 3,Note On,1,f#5,
0.3164555, 3,Note Off,1,c#4,
0, 3,Note Off,1,f#5,
0.01977846875, 3,Note Off,1,d5,
0, 3,Note Off,1,a4,
0.224155979166667, 3,Note Off,1,e3,
0.388976552083333, 3,Note On,1,b4,
0, 3,Note On,1,e4,
0, 3,Note On,1,e3,
0.0329641145833333, 3,Note On,1,e5,
0.09889234375, 3,Note Off,1,b4,
0.00659282291666667, 3,Note On,1,b4,
0.079113875, 3,Note Off,1,e3,
0.0395569375, 3,Note Off,1,e4,
0.00659282291666667, 3,Note Off,1,e5,
0.0461497604166667, 3,Note On,1,e5,
0.0131856458333333, 3,Note On,1,g#5,
0.237341625, 3,Note Off,1,g#5,
0.01977846875, 3,Note Off,1,e5,
0.0131856458333333, 3,Note Off,1,b4,
0.0395569375, 3,Note On,1,b4,
0, 3,Note On,1,e4,
0, 3,Note On,1,e3,
0.0329641145833333, 3,Note On,1,e5,
0.09889234375, 3,Note Off,1,b4,
0.00659282291666667, 3,Note On,1,b4,
0.171413395833333, 3,Note Off,1,e5,
0, 3,Note On,1,e5,
0.0131856458333333, 3,Note On,1,g#5,
0.237341625, 3,Note Off,1,g#5,
0.01977846875, 3,Note Off,1,e5,
0.00659282291666667, 3,Note Off,1,e4,
0.00659282291666667, 3,Note Off,1,b4,
0.0395569375, 3,Note On,1,b4,
0, 3,Note On,1,e4,
0, 3,Note On,1,e3,
0.0329641145833333, 3,Note On,1,e5,
0.09889234375, 3,Note Off,1,b4,
0.00659282291666667, 3,Note On,1,b4,
0.0131856458333333, 3,Note Off,1,e3,
0.125263635416667, 3,Note On,1,e3,
0, 3,Note On,1,e5,
0, 3,Note On,1,e4,
0.00659282291666667, 3,Note On,1,b4,
0.0263712916666667, 3,Note Off,1,e5,
0.263712916666667, 3,Note Off,1,e3,
0.0131856458333333, 3,Note Off,1,e4,
0.00659282291666667, 3,Note Off,1,b4,
0, 3,Note Off,1,e4,
0.0131856458333333, 3,Note Off,1,b4,
0.00659282291666667, 3,Note Off,1,e5,
0.171413395833333, 3,Note Off,1,e3,
0.507647364583333, 3,Note On,1,d4,
0, 3,Note On,1,a4,
0.00659282291666667, 3,Note On,1,e3,
0, 3,Note On,1,d5,
0.13844928125, 3,Note Off,1,a4,
0, 3,Note On,1,a4,
0.13844928125, 3,Note Off,1,d4,
0.00659282291666667, 3,Note Off,1,a4,
0, 3,Note On,1,d4,
0.0131856458333333, 3,Note Off,1,d5,
0, 3,Note On,1,a4,
0.00659282291666667, 3,Note On,1,d5,
0.290084208333333, 3,Note Off,1,d4,
0.01977846875, 3,Note Off,1,a4,
0.00659282291666667, 3,Note Off,1,d5,
0.0461497604166667, 3,Note Off,1,e3,
0.560389947916667, 3,Note On,1,c#4,
0.00659282291666667, 3,Note On,1,d5,
0, 3,Note On,1,a4,
0, 3,Note On,1,e3,
0.15822775, 3,Note Off,1,a4,
0.00659282291666667, 3,Note On,1,a4,
0.09889234375, 3,Note On,1,e3,
0.0131856458333333, 3,Note Off,1,e3,
0.0395569375, 3,Note On,1,f#5,
0.3164555, 3,Note Off,1,c#4,
0, 3,Note Off,1,f#5,
0.01977846875, 3,Note Off,1,d5,
0, 3,Note Off,1,a4,
0.224155979166667, 3,Note Off,1,e3,
2.28770955208333, 3,Note On,1,a5,
0, 3,Note On,1,e5,
0, 3,Note On,1,a6,
0, 3,Note On,1,e6,
0.0263712916666667, 3,Note On,1,a4,
0, 3,Note On,1,a5,
0.309862677083333, 3,Note Off,1,a5,
0, 3,Note Off,1,a6,
0.0131856458333333, 3,Note Off,1,e5,
0, 3,Note Off,1,e6,
0.13844928125, 3,Note Off,1,a4,
0, 3,Note Off,1,a5,
0, 3,Note On,1,b4,
0, 3,Note On,1,b5,
0.0263712916666667, 3,Note Off,1,b4,
0, 3,Note Off,1,b5,
0.00659282291666667, 3,Note On,1,e4,
0, 3,Note On,1,b4,
0, 3,Note On,1,e5,
0, 3,Note On,1,b5,
0.17800621875, 3,Note Off,1,b4,
0, 3,Note Off,1,b5,
0.112077989583333, 3,Note On,1,b4,
0, 3,Note On,1,b5,
0.00659282291666667, 3,Note On,1,f#5,
0, 3,Note On,1,b5,
0, 3,Note On,1,f#6,
0, 3,Note On,1,b6,
0.0725210520833333, 3,Note Off,1,e4,
0, 3,Note Off,1,e5,
0.37579090625, 3,Note Off,1,b4,
0, 3,Note Off,1,b5,
0.09889234375, 3,Note Off,1,f#5,
0, 3,Note Off,1,f#6,
0.00659282291666667, 3,Note Off,1,b5,
0, 3,Note Off,1,b6,
0, 3,Note On,1,a5,
0, 3,Note On,1,a6,
0.01977846875, 3,Note On,1,e5,
0, 3,Note On,1,e6,
0.0329641145833333, 3,Note On,1,a4,
0, 3,Note On,1,a5,
0.184599041666667, 3,Note Off,1,e5,
0, 3,Note Off,1,e6,
0.0131856458333333, 3,Note Off,1,a5,
0, 3,Note Off,1,a6,
0, 3,Note On,1,g5,
0, 3,Note On,1,g6,
0.125263635416667, 3,Note Off,1,g5,
0, 3,Note Off,1,g6,
0.00659282291666667, 3,Note On,1,f#5,
0, 3,Note On,1,g5,
0, 3,Note On,1,f#6,
0, 3,Note On,1,g6,
0.0329641145833333, 3,Note Off,1,a4,
0, 3,Note Off,1,a5,
0, 3,Note Off,1,g5,
0, 3,Note Off,1,g6,
0, 3,Note On,1,b4,
0, 3,Note On,1,b5,
0, 3,Note On,1,b5,
0, 3,Note On,1,b6,
0.184599041666667, 3,Note Off,1,b4,
0, 3,Note Off,1,b5,
0, 3,Note Off,1,b5,
0, 3,Note Off,1,b6,
0.00659282291666667, 3,Note Off,1,f#5,
0, 3,Note Off,1,f#6,
0.553797125, 3,Note On,1,a5,
0, 3,Note On,1,e5,
0, 3,Note On,1,a6,
0, 3,Note On,1,e6,
0.0263712916666667, 3,Note On,1,a4,
0, 3,Note On,1,a5,
0.309862677083333, 3,Note Off,1,a5,
0, 3,Note Off,1,a6,
0.0131856458333333, 3,Note Off,1,e5,
0, 3,Note Off,1,e6,
0.13844928125, 3,Note Off,1,a4,
0, 3,Note Off,1,a5,
0, 3,Note On,1,b4,
0, 3,Note On,1,b5,
0.0263712916666667, 3,Note Off,1,b4,
0, 3,Note Off,1,b5,
0.00659282291666667, 3,Note On,1,e4,
0, 3,Note On,1,b4,
0, 3,Note On,1,e5,
0, 3,Note On,1,b5,
0.17800621875, 3,Note Off,1,b4,
0, 3,Note Off,1,b5,
0.112077989583333, 3,Note On,1,b4,
0, 3,Note On,1,b5,
0.00659282291666667, 3,Note On,1,f#5,
0, 3,Note On,1,b5,
0, 3,Note On,1,f#6,
0, 3,Note On,1,b6,
0.0725210520833333, 3,Note Off,1,e4,
0, 3,Note Off,1,e5,
0.37579090625, 3,Note Off,1,b4,
0, 3,Note Off,1,b5,
0.09889234375, 3,Note Off,1,f#5,
0, 3,Note Off,1,f#6,
0.00659282291666667, 3,Note Off,1,b5,
0, 3,Note Off,1,b6,
0, 3,Note On,1,a5,
0, 3,Note On,1,a6,
0.01977846875, 3,Note On,1,e5,
0, 3,Note On,1,e6,
0.0329641145833333, 3,Note On,1,a4,
0, 3,Note On,1,a5,
0.184599041666667, 3,Note Off,1,e5,
0, 3,Note Off,1,e6,
0.0131856458333333, 3,Note Off,1,a5,
0, 3,Note Off,1,a6,
0, 3,Note On,1,g5,
0, 3,Note On,1,g6,
0.125263635416667, 3,Note Off,1,g5,
0, 3,Note Off,1,g6,
0.00659282291666667, 3,Note On,1,f#5,
0, 3,Note On,1,g5,
0, 3,Note On,1,f#6,
0, 3,Note On,1,g6,
0.0329641145833333, 3,Note Off,1,a4,
0, 3,Note Off,1,a5,
0, 3,Note Off,1,g5,
0, 3,Note Off,1,g6,
0, 3,Note On,1,b4,
0, 3,Note On,1,b5,
0, 3,Note On,1,b5,
0, 3,Note On,1,b6,
0.184599041666667, 3,Note Off,1,b4,
0, 3,Note Off,1,b5,
0, 3,Note Off,1,b5,
0, 3,Note Off,1,b6,
0.00659282291666667, 3,Note Off,1,f#5,
0, 3,Note Off,1,f#6,
0.4351263125, 3,Note On,1,d6,
0.0395569375, 3,Note On,1,g5,
0.0131856458333333, 3,Note On,1,g6,
0.05933540625, 3,Note On,1,d5,
0.184599041666667, 3,Note Off,1,g6,
0.0131856458333333, 3,Note Off,1,d6,
0.1977846875, 3,Note Off,1,g5,
0.0527425833333333, 3,Note Off,1,d5,
0.00659282291666667, 3,Note On,1,d5,
0.0263712916666667, 3,Note On,1,f#6,
0, 3,Note On,1,d6,
0.01977846875, 3,Note On,1,a5,
0.17800621875, 3,Note Off,1,a5,
0.0131856458333333, 3,Note Off,1,f#6,
0.01977846875, 3,Note Off,1,d6,
0.1977846875, 3,Note Off,1,d5,
0.00659282291666667, 3,Note On,1,d5,
0.01977846875, 3,Note On,1,a4,
0.01977846875, 3,Note On,1,a5,
0.0461497604166667, 3,Note Off,1,d5,
0, 3,Note On,1,e5,
0.37579090625, 3,Note Off,1,a4,
0.05933540625, 3,Note Off,1,e5,
0.00659282291666667, 3,Note On,1,g4,
0.0263712916666667, 3,Note On,1,c5,
0, 3,Note Off,1,c5,
0.191191864583333, 3,Note Off,1,g4,
0.01977846875, 3,Note Off,1,a5,
0.00659282291666667, 3,Note On,1,a5,
0.01977846875, 3,Note On,1,a4,
0.0131856458333333, 3,Note On,1,e5,
0.461497604166667, 3,Note On,1,a4,
0.131856458333333, 3,Note Off,1,a5,
0.00659282291666667, 3,Note Off,1,e5,
0.112077989583333, 3,Note On,1,g6,
0.00659282291666667, 3,Note Off,1,a4,
0.00659282291666667, 3,Note On,1,d6,
0, 3,Note On,1,g4,
0.0131856458333333, 3,Note On,1,d5,
0.0461497604166667, 3,Note On,1,g5,
0.15822775, 3,Note Off,1,g4,
0.0329641145833333, 3,Note Off,1,d6,
0.00659282291666667, 3,Note Off,1,g6,
0.210970333333333, 3,Note Off,1,a4,
0, 3,Note Off,1,g5,
0.0527425833333333, 3,Note On,1,f#6,
0, 3,Note On,1,d6,
0, 3,Note On,1,a5,
0.00659282291666667, 3,Note On,1,d5,
0.210970333333333, 3,Note Off,1,d5,
0.0329641145833333, 3,Note Off,1,a5,
0.0329641145833333, 3,Note Off,1,f#6,
0.0395569375, 3,Note Off,1,d6,
0.13844928125, 3,Note Off,1,d5,
0, 3,Note On,1,e5,
0.01977846875, 3,Note On,1,a4,
0.0395569375, 3,Note On,1,a5,
0.45490478125, 3,Note Off,1,e5,
0, 3,Note Off,1,a4,
0.01977846875, 3,Note On,1,g4,
0.237341625, 3,Note Off,1,g4,
0.0131856458333333, 3,Note Off,1,a5,
0.0131856458333333, 3,Note On,1,a5,
0, 3,Note On,1,a#4,
0.01977846875, 3,Note On,1,f5,
0.09889234375, 3,Note Off,1,a#4,
0, 3,Note On,1,a4,
0.0395569375, 3,Note Off,1,f5,
0.00659282291666667, 3,Note On,1,e5,
0.619725354166667, 3,Note Off,1,a5,
0, 3,Note Off,1,e5,
0.05933540625, 3,Note On,1,a5,
0, 3,Note On,1,e5,
0, 3,Note On,1,a6,
0, 3,Note On,1,e6,
0.0263712916666667, 3,Note On,1,a4,
0, 3,Note On,1,a5,
0.0263712916666667, 3,Note Off,1,a4,
0.283491385416667, 3,Note Off,1,a5,
0, 3,Note Off,1,a6,
0.0131856458333333, 3,Note Off,1,e5,
0, 3,Note Off,1,e6,
0.13844928125, 3,Note Off,1,a4,
0, 3,Note Off,1,a5,
0, 3,Note On,1,b4,
0, 3,Note On,1,b5,
0.0263712916666667, 3,Note Off,1,b4,
0, 3,Note Off,1,b5,
0.00659282291666667, 3,Note On,1,e4,
0, 3,Note On,1,b4,
0, 3,Note On,1,e5,
0, 3,Note On,1,b5,
0.17800621875, 3,Note Off,1,b4,
0, 3,Note Off,1,b5,
0.112077989583333, 3,Note On,1,b4,
0, 3,Note On,1,b5,
0.00659282291666667, 3,Note On,1,f#5,
0, 3,Note On,1,b5,
0, 3,Note On,1,f#6,
0, 3,Note On,1,b6,
0.0725210520833333, 3,Note Off,1,e4,
0, 3,Note Off,1,e5,
0.37579090625, 3,Note Off,1,b4,
0, 3,Note Off,1,b5,
0.09889234375, 3,Note Off,1,f#5,
0, 3,Note Off,1,f#6,
0.00659282291666667, 3,Note Off,1,b5,
0, 3,Note Off,1,b6,
0, 3,Note On,1,a5,
0, 3,Note On,1,a6,
0.01977846875, 3,Note On,1,e5,
0, 3,Note On,1,e6,
0.0329641145833333, 3,Note On,1,a4,
0, 3,Note On,1,a5,
0.184599041666667, 3,Note Off,1,e5,
0, 3,Note Off,1,e6,
0.0131856458333333, 3,Note Off,1,a5,
0, 3,Note Off,1,a6,
0, 3,Note On,1,g5,
0, 3,Note On,1,g6,
0.125263635416667, 3,Note Off,1,g5,
0, 3,Note Off,1,g6,
0.00659282291666667, 3,Note On,1,f#5,
0, 3,Note On,1,g5,
0, 3,Note On,1,f#6,
0, 3,Note On,1,g6,
0.0329641145833333, 3,Note Off,1,a4,
0, 3,Note Off,1,a5,
0, 3,Note Off,1,g5,
0, 3,Note Off,1,g6,
0, 3,Note On,1,b4,
0, 3,Note On,1,b5,
0, 3,Note On,1,b5,
0, 3,Note On,1,b6,
0.184599041666667, 3,Note Off,1,b4,
0, 3,Note Off,1,b5,
0, 3,Note Off,1,b5,
0, 3,Note Off,1,b6,
0.00659282291666667, 3,Note Off,1,f#5,
0, 3,Note Off,1,f#6,
0.553797125, 3,Note On,1,a5,
0, 3,Note On,1,e5,
0, 3,Note On,1,a6,
0, 3,Note On,1,e6,
0.0263712916666667, 3,Note On,1,a4,
0, 3,Note On,1,a5,
0.309862677083333, 3,Note Off,1,a5,
0, 3,Note Off,1,a6,
0.0131856458333333, 3,Note Off,1,e5,
0, 3,Note Off,1,e6,
0.13844928125, 3,Note Off,1,a4,
0, 3,Note Off,1,a5,
0, 3,Note On,1,b4,
0, 3,Note On,1,b5,
0.0263712916666667, 3,Note Off,1,b4,
0, 3,Note Off,1,b5,
0.00659282291666667, 3,Note On,1,e4,
0, 3,Note On,1,b4,
0, 3,Note On,1,e5,
0, 3,Note On,1,b5,
0.17800621875, 3,Note Off,1,b4,
0, 3,Note Off,1,b5,
0.112077989583333, 3,Note On,1,b4,
0, 3,Note On,1,b5,
0.00659282291666667, 3,Note On,1,f#5,
0, 3,Note On,1,b5,
0, 3,Note On,1,f#6,
0, 3,Note On,1,b6,
0.0725210520833333, 3,Note Off,1,e4,
0, 3,Note Off,1,e5,
0.37579090625, 3,Note Off,1,b4,
0, 3,Note Off,1,b5,
0.09889234375, 3,Note Off,1,f#5,
0, 3,Note Off,1,f#6,
0.00659282291666667, 3,Note Off,1,b5,
0, 3,Note Off,1,b6,
0, 3,Note On,1,a5,
0, 3,Note On,1,a6,
0.01977846875, 3,Note On,1,e5,
0, 3,Note On,1,e6,
0.0329641145833333, 3,Note On,1,a4,
0, 3,Note On,1,a5,
0.184599041666667, 3,Note Off,1,e5,
0, 3,Note Off,1,e6,
0.0131856458333333, 3,Note Off,1,a5,
0, 3,Note Off,1,a6,
0, 3,Note On,1,g5,
0, 3,Note On,1,g6,
0.125263635416667, 3,Note Off,1,g5,
0, 3,Note Off,1,g6,
0.00659282291666667, 3,Note On,1,f#5,
0, 3,Note On,1,g5,
0, 3,Note On,1,f#6,
0, 3,Note On,1,g6,
0.0329641145833333, 3,Note Off,1,a4,
0, 3,Note Off,1,a5,
0, 3,Note Off,1,g5,
0, 3,Note Off,1,g6,
0, 3,Note On,1,b4,
0, 3,Note On,1,b5,
0, 3,Note On,1,b5,
0, 3,Note On,1,b6,
0.184599041666667, 3,Note Off,1,b4,
0, 3,Note Off,1,b5,
0, 3,Note Off,1,b5,
0, 3,Note Off,1,b6,
0.00659282291666667, 3,Note Off,1,f#5,
0, 3,Note Off,1,f#6,
0.1977846875, 3,Note On,1,d4,
0, 3,Note On,1,g4,
0, 3,Note On,1,g5,
0, 3,Note On,1,d5,
0, 3,Note On,1,b4,
0.3164555, 3,Note Off,1,d4,
0, 3,Note Off,1,g4,
0, 3,Note Off,1,g5,
0, 3,Note Off,1,d5,
0, 3,Note Off,1,b4,
0.15822775, 3,Note On,1,d4,
0, 3,Note On,1,g4,
0, 3,Note On,1,g5,
0, 3,Note On,1,d5,
0, 3,Note On,1,b4,
0.3164555, 3,Note Off,1,d4,
0, 3,Note Off,1,g4,
0, 3,Note Off,1,g5,
0, 3,Note Off,1,d5,
0, 3,Note Off,1,b4,
0.15822775, 3,Note On,1,d4,
0, 3,Note On,1,g4,
0, 3,Note On,1,g5,
0, 3,Note On,1,d5,
0, 3,Note On,1,b4,
0.3164555, 3,Note Off,1,d4,
0, 3,Note Off,1,g4,
0, 3,Note Off,1,g5,
0, 3,Note Off,1,d5,
0, 3,Note Off,1,b4,
0.15822775, 3,Note On,1,d4,
0, 3,Note On,1,g4,
0, 3,Note On,1,b4,
0, 3,Note On,1,d5,
0, 3,Note On,1,g5,
0.105485166666667, 3,Note Off,1,d4,
0, 3,Note Off,1,g4,
0, 3,Note Off,1,b4,
0, 3,Note Off,1,d5,
0, 3,Note Off,1,g5,
0.0527425833333333, 3,Note On,1,b4,
0, 3,Note On,1,g5,
0, 3,Note On,1,c#4,
0.105485166666667, 3,Note Off,1,b4,
0, 3,Note Off,1,g5,
0, 3,Note Off,1,c#4,
0.0527425833333333, 3,Note On,1,d4,
0, 3,Note On,1,b4,
0, 3,Note On,1,g4,
0, 3,Note On,1,d5,
0, 3,Note On,1,g5,
0.105485166666667, 3,Note Off,1,d4,
0, 3,Note Off,1,b4,
0, 3,Note Off,1,g4,
0, 3,Note Off,1,d5,
0, 3,Note Off,1,g5,
0.0527425833333333, 3,Note On,1,d4,
0, 3,Note On,1,g4,
0, 3,Note On,1,b4,
0, 3,Note On,1,d5,
0, 3,Note On,1,g5,
0.210970333333333, 3,Note Off,1,d4,
0, 3,Note Off,1,g4,
0, 3,Note Off,1,b4,
0, 3,Note Off,1,d5,
0, 3,Note Off,1,g5,
0.105485166666667, 3,Note On,1,d4,
0, 3,Note On,1,g4,
0, 3,Note On,1,b4,
0, 3,Note On,1,d5,
0, 3,Note On,1,g5,
0.210970333333333, 3,Note Off,1,d4,
0, 3,Note Off,1,g4,
0, 3,Note Off,1,b4,
0, 3,Note Off,1,d5,
0, 3,Note Off,1,g5,
0.105485166666667, 3,Note On,1,d5,
0, 3,Note On,1,a5,
0, 3,Note On,1,d6,
0, 3,Note On,1,f#6,
0.3164555, 3,Note Off,1,d5,
0, 3,Note Off,1,a5,
0, 3,Note Off,1,d6,
0, 3,Note Off,1,f#6,
0.15822775, 3,Note On,1,d5,
0, 3,Note On,1,a5,
0, 3,Note On,1,d6,
0, 3,Note On,1,f#6,
0.3164555, 3,Note Off,1,d5,
0, 3,Note Off,1,a5,
0, 3,Note Off,1,d6,
0, 3,Note Off,1,f#6,
0.15822775, 3,Note On,1,d5,
0, 3,Note On,1,a5,
0, 3,Note On,1,d6,
0, 3,Note On,1,f#6,
1.265822, 3,Note Off,1,d5,
0, 3,Note Off,1,a5,
0, 3,Note Off,1,d6,
0, 3,Note Off,1,f#6,
0.3164555, 3,Note On,1,e4,
0, 3,Note On,1,b4,
0, 3,Note On,1,e5,
0, 3,Note On,1,g#5,
0, 3,Note On,1,b5,
0, 3,Note On,1,e6,
1.69435548958333, 3,Note Off,1,e4,
0, 3,Note Off,1,b4,
0, 3,Note Off,1,e5,
0, 3,Note Off,1,g#5,
0, 3,Note Off,1,b5,
0, 3,Note Off,1,e6,
0.837288510416667, 3,Note On,1,e4,
0, 3,Note On,1,b4,
0, 3,Note On,1,e5,
0, 3,Note On,1,g#5,
0, 3,Note On,1,b5,
0, 3,Note On,1,e6,
1.69435548958333, 3,Note Off,1,e4,
0, 3,Note Off,1,b4,
0, 3,Note Off,1,e5,
0, 3,Note Off,1,g#5,
0, 3,Note Off,1,b5,
0, 3,Note Off,1,e6,
0.837288510416667, 3,Note On,1,e4,
0, 3,Note On,1,b4,
0, 3,Note On,1,e5,
0, 3,Note On,1,g#5,
0, 3,Note On,1,b5,
0, 3,Note On,1,e6,
1.69435548958333, 3,Note Off,1,e4,
0, 3,Note Off,1,b4,
0, 3,Note Off,1,e5,
0, 3,Note Off,1,g#5,
0, 3,Note Off,1,b5,
0, 3,Note Off,1,e6,
0.837288510416667, 3,Note On,1,e4,
0, 3,Note On,1,b4,
0, 3,Note On,1,e5,
0, 3,Note On,1,g#5,
0, 3,Note On,1,b5,
0, 3,Note On,1,e6,
1.69435548958333, 3,Note Off,1,e4,
0, 3,Note Off,1,b4,
0, 3,Note Off,1,e5,
0, 3,Note Off,1,g#5,
0, 3,Note Off,1,b5,
0, 3,Note Off,1,e6,
0.837288510416667, 3,Note On,1,a4,
0, 3,Note On,1,e5,
0, 3,Note On,1,a5,
0, 3,Note On,1,c#6,
0, 3,Note On,1,e6,
1.69435548958333, 3,Note Off,1,a4,
0, 3,Note Off,1,e5,
0, 3,Note Off,1,a5,
0, 3,Note Off,1,c#6,
0, 3,Note Off,1,e6,
0.837288510416667, 3,Note On,1,a4,
0, 3,Note On,1,e5,
0, 3,Note On,1,a5,
0, 3,Note On,1,c#6,
0, 3,Note On,1,e6,
1.69435548958333, 3,Note Off,1,a4,
0, 3,Note Off,1,e5,
0, 3,Note Off,1,a5,
0, 3,Note Off,1,c#6,
0, 3,Note Off,1,e6,
0.837288510416667, 3,Note On,1,e4,
0, 3,Note On,1,b4,
0, 3,Note On,1,e5,
0, 3,Note On,1,g#5,
0, 3,Note On,1,b5,
0, 3,Note On,1,e6,
1.69435548958333, 3,Note Off,1,e4,
0, 3,Note Off,1,b4,
0, 3,Note Off,1,e5,
0, 3,Note Off,1,g#5,
0, 3,Note Off,1,b5,
0, 3,Note Off,1,e6,
0.837288510416667, 3,Note On,1,e4,
0, 3,Note On,1,b4,
0, 3,Note On,1,e5,
0, 3,Note On,1,g#5,
0, 3,Note On,1,b5,
0, 3,Note On,1,e6,
1.69435548958333, 3,Note Off,1,e4,
0, 3,Note Off,1,b4,
0, 3,Note Off,1,e5,
0, 3,Note Off,1,g#5,
0, 3,Note Off,1,b5,
0, 3,Note Off,1,e6,
1.19330094791667, 3,Note On,1,a5,
0, 3,Note On,1,e5,
0, 3,Note On,1,a6,
0, 3,Note On,1,e6,
0.0263712916666667, 3,Note On,1,a4,
0, 3,Note On,1,a5,
0.309862677083333, 3,Note Off,1,a5,
0, 3,Note Off,1,a6,
0.0131856458333333, 3,Note Off,1,e5,
0, 3,Note Off,1,e6,
0.13844928125, 3,Note Off,1,a4,
0, 3,Note Off,1,a5,
0, 3,Note On,1,b4,
0, 3,Note On,1,b5,
0.0263712916666667, 3,Note Off,1,b4,
0, 3,Note Off,1,b5,
0.00659282291666667, 3,Note On,1,e4,
0, 3,Note On,1,b4,
0, 3,Note On,1,e5,
0, 3,Note On,1,b5,
0.17800621875, 3,Note Off,1,b4,
0, 3,Note Off,1,b5,
0.112077989583333, 3,Note On,1,b4,
0, 3,Note On,1,b5,
0.00659282291666667, 3,Note On,1,f#5,
0, 3,Note On,1,b5,
0, 3,Note On,1,f#6,
0, 3,Note On,1,b6,
0.0725210520833333, 3,Note Off,1,e4,
0, 3,Note Off,1,e5,
0.37579090625, 3,Note Off,1,b4,
0, 3,Note Off,1,b5,
0.09889234375, 3,Note Off,1,f#5,
0, 3,Note Off,1,f#6,
0.00659282291666667, 3,Note Off,1,b5,
0, 3,Note Off,1,b6,
0, 3,Note On,1,a5,
0, 3,Note On,1,a6,
0.01977846875, 3,Note On,1,e5,
0, 3,Note On,1,e6,
0.0329641145833333, 3,Note On,1,a4,
0, 3,Note On,1,a5,
0.184599041666667, 3,Note Off,1,e5,
0, 3,Note Off,1,e6,
0.0131856458333333, 3,Note Off,1,a5,
0, 3,Note Off,1,a6,
0, 3,Note On,1,g5,
0, 3,Note On,1,g6,
0.125263635416667, 3,Note Off,1,g5,
0, 3,Note Off,1,g6,
0.00659282291666667, 3,Note On,1,f#5,
0, 3,Note On,1,g5,
0, 3,Note On,1,f#6,
0, 3,Note On,1,g6,
0.0329641145833333, 3,Note Off,1,a4,
0, 3,Note Off,1,a5,
0, 3,Note Off,1,g5,
0, 3,Note Off,1,g6,
0, 3,Note On,1,b4,
0, 3,Note On,1,b5,
0, 3,Note On,1,b5,
0, 3,Note On,1,b6,
0.184599041666667, 3,Note Off,1,b4,
0, 3,Note Off,1,b5,
0, 3,Note Off,1,b5,
0, 3,Note Off,1,b6,
0.00659282291666667, 3,Note Off,1,f#5,
0, 3,Note Off,1,f#6,
0.553797125, 3,Note On,1,a5,
0, 3,Note On,1,e5,
0, 3,Note On,1,a6,
0, 3,Note On,1,e6,
0.0263712916666667, 3,Note On,1,a4,
0, 3,Note On,1,a5,
0.309862677083333, 3,Note Off,1,a5,
0, 3,Note Off,1,a6,
0.0131856458333333, 3,Note Off,1,e5,
0, 3,Note Off,1,e6,
0.13844928125, 3,Note Off,1,a4,
0, 3,Note Off,1,a5,
0, 3,Note On,1,b4,
0, 3,Note On,1,b5,
0.0263712916666667, 3,Note Off,1,b4,
0, 3,Note Off,1,b5,
0.00659282291666667, 3,Note On,1,e4,
0, 3,Note On,1,b4,
0, 3,Note On,1,e5,
0, 3,Note On,1,b5,
0.17800621875, 3,Note Off,1,b4,
0, 3,Note Off,1,b5,
0.112077989583333, 3,Note On,1,b4,
0, 3,Note On,1,b5,
0.00659282291666667, 3,Note On,1,f#5,
0, 3,Note On,1,b5,
0, 3,Note On,1,f#6,
0, 3,Note On,1,b6,
0.0725210520833333, 3,Note Off,1,e4,
0, 3,Note Off,1,e5,
0.37579090625, 3,Note Off,1,b4,
0, 3,Note Off,1,b5,
0.09889234375, 3,Note Off,1,f#5,
0, 3,Note Off,1,f#6,
0.00659282291666667, 3,Note Off,1,b5,
0, 3,Note Off,1,b6,
0, 3,Note On,1,a5,
0, 3,Note On,1,a6,
0.01977846875, 3,Note On,1,e5,
0, 3,Note On,1,e6,
0.0329641145833333, 3,Note On,1,a4,
0, 3,Note On,1,a5,
0.184599041666667, 3,Note Off,1,e5,
0, 3,Note Off,1,e6,
0.0131856458333333, 3,Note Off,1,a5,
0, 3,Note Off,1,a6,
0, 3,Note On,1,g5,
0, 3,Note On,1,g6,
0.125263635416667, 3,Note Off,1,g5,
0, 3,Note Off,1,g6,
0.00659282291666667, 3,Note On,1,f#5,
0, 3,Note On,1,g5,
0, 3,Note On,1,f#6,
0, 3,Note On,1,g6,
0.0329641145833333, 3,Note Off,1,a4,
0, 3,Note Off,1,a5,
0, 3,Note Off,1,g5,
0, 3,Note Off,1,g6,
0, 3,Note On,1,b4,
0, 3,Note On,1,b5,
0, 3,Note On,1,b5,
0, 3,Note On,1,b6,
0.184599041666667, 3,Note Off,1,b4,
0, 3,Note Off,1,b5,
0, 3,Note Off,1,b5,
0, 3,Note Off,1,b6,
0.00659282291666667, 3,Note Off,1,f#5,
0, 3,Note Off,1,f#6,
0.4351263125, 3,Note On,1,d6,
0.0395569375, 3,Note On,1,g5,
0.0131856458333333, 3,Note On,1,g6,
0.05933540625, 3,Note On,1,d5,
0.184599041666667, 3,Note Off,1,g6,
0.0131856458333333, 3,Note Off,1,d6,
0.1977846875, 3,Note Off,1,g5,
0.0527425833333333, 3,Note Off,1,d5,
0.00659282291666667, 3,Note On,1,d5,
0.0263712916666667, 3,Note On,1,f#6,
0, 3,Note On,1,d6,
0.01977846875, 3,Note On,1,a5,
0.17800621875, 3,Note Off,1,a5,
0.0131856458333333, 3,Note Off,1,f#6,
0.01977846875, 3,Note Off,1,d6,
0.1977846875, 3,Note Off,1,d5,
0.00659282291666667, 3,Note On,1,d5,
0.01977846875, 3,Note On,1,a4,
0.01977846875, 3,Note On,1,a5,
0.0461497604166667, 3,Note Off,1,d5,
0, 3,Note On,1,e5,
0.37579090625, 3,Note Off,1,a4,
0.05933540625, 3,Note Off,1,e5,
0.00659282291666667, 3,Note On,1,g4,
0.0263712916666667, 3,Note On,1,c5,
0, 3,Note Off,1,c5,
0.191191864583333, 3,Note Off,1,g4,
0.01977846875, 3,Note Off,1,a5,
0.00659282291666667, 3,Note On,1,a5,
0.01977846875, 3,Note On,1,a4,
0.0131856458333333, 3,Note On,1,e5,
0.461497604166667, 3,Note On,1,a5,
0, 3,Note On,1,a4,
0, 3,Note On,1,e5,
0, 3,Note On,1,a4,
0.131856458333333, 3,Note Off,1,a5,
0, 3,Note Off,1,a5,
0.00659282291666667, 3,Note Off,1,e5,
0, 3,Note Off,1,e5,
0.112077989583333, 3,Note On,1,g6,
0.00659282291666667, 3,Note Off,1,a4,
0.00659282291666667, 3,Note On,1,d6,
0, 3,Note On,1,g4,
0.0131856458333333, 3,Note On,1,d5,
0.0461497604166667, 3,Note On,1,g5,
0.15822775, 3,Note Off,1,g4,
0.0329641145833333, 3,Note Off,1,d6,
0.00659282291666667, 3,Note Off,1,g6,
0.210970333333333, 3,Note Off,1,a4,
0, 3,Note Off,1,a4,
0, 3,Note Off,1,g5,
0.0527425833333333, 3,Note On,1,f#6,
0, 3,Note On,1,d6,
0, 3,Note On,1,a5,
0.00659282291666667, 3,Note On,1,d5,
0.210970333333333, 3,Note Off,1,d5,
0.0329641145833333, 3,Note Off,1,a5,
0.0329641145833333, 3,Note Off,1,f#6,
0.0395569375, 3,Note Off,1,d6,
0.13844928125, 3,Note Off,1,d5,
0, 3,Note On,1,e5,
0.01977846875, 3,Note On,1,a4,
0.0395569375, 3,Note On,1,a5,
0.45490478125, 3,Note Off,1,e5,
0, 3,Note Off,1,a4,
0.01977846875, 3,Note On,1,g4,
0.237341625, 3,Note Off,1,g4,
0.0131856458333333, 3,Note Off,1,a5,
0.0131856458333333, 3,Note On,1,a5,
0, 3,Note On,1,a#4,
0.01977846875, 3,Note On,1,f5,
0.09889234375, 3,Note Off,1,a#4,
0, 3,Note On,1,a4,
0.0395569375, 3,Note Off,1,f5,
0.00659282291666667, 3,Note On,1,e5,
0.619725354166667, 3,Note Off,1,a5,
0, 3,Note Off,1,e5,
0.05933540625, 3,Note On,1,a5,
0, 3,Note On,1,e5,
0, 3,Note On,1,a6,
0, 3,Note On,1,e6,
0.0263712916666667, 3,Note On,1,a4,
0, 3,Note On,1,a5,
0.0263712916666667, 3,Note Off,1,a4,
0.283491385416667, 3,Note Off,1,a5,
0, 3,Note Off,1,a6,
0.0131856458333333, 3,Note Off,1,e5,
0, 3,Note Off,1,e6,
0.13844928125, 3,Note Off,1,a4,
0, 3,Note Off,1,a5,
0, 3,Note On,1,b4,
0, 3,Note On,1,b5,
0.0263712916666667, 3,Note Off,1,b4,
0, 3,Note Off,1,b5,
0.00659282291666667, 3,Note On,1,e4,
0, 3,Note On,1,b4,
0, 3,Note On,1,e5,
0, 3,Note On,1,b5,
0.17800621875, 3,Note Off,1,b4,
0, 3,Note Off,1,b5,
0.112077989583333, 3,Note On,1,b4,
0, 3,Note On,1,b5,
0.00659282291666667, 3,Note On,1,f#5,
0, 3,Note On,1,b5,
0, 3,Note On,1,f#6,
0, 3,Note On,1,b6,
0.0725210520833333, 3,Note Off,1,e4,
0, 3,Note Off,1,e5,
0.37579090625, 3,Note Off,1,b4,
0, 3,Note Off,1,b5,
0.09889234375, 3,Note Off,1,f#5,
0, 3,Note Off,1,f#6,
0.00659282291666667, 3,Note Off,1,b5,
0, 3,Note Off,1,b6,
0, 3,Note On,1,a5,
0, 3,Note On,1,a6,
0.01977846875, 3,Note On,1,e5,
0, 3,Note On,1,e6,
0.0329641145833333, 3,Note On,1,a4,
0, 3,Note On,1,a5,
0.184599041666667, 3,Note Off,1,e5,
0, 3,Note Off,1,e6,
0.0131856458333333, 3,Note Off,1,a5,
0, 3,Note Off,1,a6,
0, 3,Note On,1,g5,
0, 3,Note On,1,g6,
0.125263635416667, 3,Note Off,1,g5,
0, 3,Note Off,1,g6,
0.00659282291666667, 3,Note On,1,f#5,
0, 3,Note On,1,g5,
0, 3,Note On,1,f#6,
0, 3,Note On,1,g6,
0.0329641145833333, 3,Note Off,1,a4,
0, 3,Note Off,1,a5,
0, 3,Note Off,1,g5,
0, 3,Note Off,1,g6,
0, 3,Note On,1,b4,
0, 3,Note On,1,b5,
0, 3,Note On,1,b5,
0, 3,Note On,1,b6,
0.184599041666667, 3,Note Off,1,b4,
0, 3,Note Off,1,b5,
0, 3,Note Off,1,b5,
0, 3,Note Off,1,b6,
0.00659282291666667, 3,Note Off,1,f#5,
0, 3,Note Off,1,f#6,
0.553797125, 3,Note On,1,a5,
0, 3,Note On,1,e5,
0, 3,Note On,1,a6,
0, 3,Note On,1,e6,
0.0263712916666667, 3,Note On,1,a4,
0, 3,Note On,1,a5,
0.309862677083333, 3,Note Off,1,a5,
0, 3,Note Off,1,a6,
0.0131856458333333, 3,Note Off,1,e5,
0, 3,Note Off,1,e6,
0.13844928125, 3,Note Off,1,a4,
0, 3,Note Off,1,a5,
0, 3,Note On,1,b4,
0, 3,Note On,1,b5,
0.0263712916666667, 3,Note Off,1,b4,
0, 3,Note Off,1,b5,
0.00659282291666667, 3,Note On,1,e4,
0, 3,Note On,1,b4,
0, 3,Note On,1,e5,
0, 3,Note On,1,b5,
0.17800621875, 3,Note Off,1,b4,
0, 3,Note Off,1,b5,
0.112077989583333, 3,Note On,1,b4,
0, 3,Note On,1,b5,
0.00659282291666667, 3,Note On,1,f#5,
0, 3,Note On,1,b5,
0, 3,Note On,1,f#6,
0, 3,Note On,1,b6,
0.0725210520833333, 3,Note Off,1,e4,
0, 3,Note Off,1,e5,
0.37579090625, 3,Note Off,1,b4,
0, 3,Note Off,1,b5,
0.09889234375, 3,Note Off,1,f#5,
0, 3,Note Off,1,f#6,
0.00659282291666667, 3,Note Off,1,b5,
0, 3,Note Off,1,b6,
0, 3,Note On,1,a5,
0, 3,Note On,1,a6,
0.01977846875, 3,Note On,1,e5,
0, 3,Note On,1,e6,
0.0329641145833333, 3,Note On,1,a4,
0, 3,Note On,1,a5,
0.184599041666667, 3,Note Off,1,e5,
0, 3,Note Off,1,e6,
0.0131856458333333, 3,Note Off,1,a5,
0, 3,Note Off,1,a6,
0, 3,Note On,1,g5,
0, 3,Note On,1,g6,
0.125263635416667, 3,Note Off,1,g5,
0, 3,Note Off,1,g6,
0.00659282291666667, 3,Note On,1,f#5,
0, 3,Note On,1,g5,
0, 3,Note On,1,f#6,
0, 3,Note On,1,g6,
0.0329641145833333, 3,Note Off,1,a4,
0, 3,Note Off,1,a5,
0, 3,Note Off,1,g5,
0, 3,Note Off,1,g6,
0, 3,Note On,1,b4,
0, 3,Note On,1,b5,
0, 3,Note On,1,b5,
0, 3,Note On,1,b6,
0.184599041666667, 3,Note Off,1,b4,
0, 3,Note Off,1,b5,
0, 3,Note Off,1,b5,
0, 3,Note Off,1,b6,
0.00659282291666667, 3,Note Off,1,f#5,
0, 3,Note Off,1,f#6,
0.1977846875, 3,Note On,1,g4,
0, 3,Note On,1,c5,
0, 3,Note On,1,d5,
0, 3,Note On,1,g5,
0, 3,Note On,1,b5,
0, 3,Note On,1,g6,
1.265822, 3,Note Off,1,g4,
0, 3,Note Off,1,c5,
0, 3,Note Off,1,d5,
0, 3,Note Off,1,g5,
0, 3,Note Off,1,b5,
0, 3,Note Off,1,g6,
0.632911, 3,Note On,1,d5,
0, 3,Note On,1,b5,
0, 3,Note On,1,g5,
0, 3,Note On,1,g6,
0.105485166666667, 3,Note Off,1,d5,
0, 3,Note Off,1,b5,
0, 3,Note Off,1,g5,
0, 3,Note Off,1,g6,
0.0527425833333333, 3,Note On,1,d5,
0, 3,Note On,1,g5,
0, 3,Note On,1,b5,
0, 3,Note On,1,g6,
0.105485166666667, 3,Note Off,1,d5,
0, 3,Note Off,1,g5,
0, 3,Note Off,1,b5,
0, 3,Note Off,1,g6,
0.0527425833333333, 3,Note On,1,g4,
0, 3,Note On,1,d5,
0, 3,Note On,1,g5,
0, 3,Note On,1,b5,
0, 3,Note On,1,g6,
0.210970333333333, 3,Note Off,1,g4,
0, 3,Note Off,1,d5,
0, 3,Note Off,1,g5,
0, 3,Note Off,1,b5,
0, 3,Note Off,1,g6,
0.105485166666667, 3,Note On,1,d5,
0, 3,Note On,1,a6,
0, 3,Note On,1,d5,
0, 3,Note On,1,a5,
0, 3,Note On,1,d6,
0, 3,Note On,1,f#6,
1.69435548958333, 3,Note Off,1,d5,
0, 3,Note Off,1,a6,
0, 3,Note Off,1,d5,
0, 3,Note Off,1,a5,
0, 3,Note Off,1,d6,
0, 3,Note Off,1,f#6,
0.837288510416667, 3,Note On,1,a4,
0, 3,Note On,1,e5,
0, 3,Note On,1,a6,
0, 3,Note On,1,a4,
0, 3,Note On,1,e5,
1.69435548958333, 3,Note Off,1,a4,
0, 3,Note Off,1,e5,
0, 3,Note Off,1,a6,
0.843881333333333, 3,Note Off,1,a4,
0, 3,Note Off,1,e5,
2.52505117708333, 3,Note On,1,e3,
0, 3,Note On,1,e5,
0, 3,Note On,1,e4,
0.00659282291666667, 3,Note On,1,b4,
0.290084208333333, 3,Note Off,1,e3,
0.01977846875, 3,Note Off,1,e4,
0.0131856458333333, 3,Note Off,1,b4,
0.00659282291666667, 3,Note Off,1,e5,
0.679060760416667, 3,Note On,1,d4,
0, 3,Note On,1,a4,
0.00659282291666667, 3,Note On,1,e3,
0, 3,Note On,1,d5,
0.13844928125, 3,Note Off,1,a4,
0, 3,Note On,1,a4,
0.13844928125, 3,Note Off,1,d4,
0.00659282291666667, 3,Note Off,1,a4,
0, 3,Note On,1,d4,
0.0131856458333333, 3,Note Off,1,d5,
0, 3,Note On,1,a4,
0.00659282291666667, 3,Note On,1,d5,
0.290084208333333, 3,Note Off,1,d4,
0.01977846875, 3,Note Off,1,a4,
0.00659282291666667, 3,Note Off,1,d5,
0.0461497604166667, 3,Note Off,1,e3,
0.560389947916667, 3,Note On,1,c#4,
0.00659282291666667, 3,Note On,1,d5,
0, 3,Note On,1,a4,
0, 3,Note On,1,e3,
0.15822775, 3,Note Off,1,a4,
0.00659282291666667, 3,Note On,1,a4,
0.09889234375, 3,Note On,1,e3,
0.0131856458333333, 3,Note Off,1,e3,
0.0395569375, 3,Note On,1,f#5,
0.3164555, 3,Note Off,1,c#4,
0, 3,Note Off,1,f#5,
0.01977846875, 3,Note Off,1,d5,
0, 3,Note Off,1,a4,
0.224155979166667, 3,Note Off,1,e3,
0.388976552083333, 3,Note On,1,b4,
0, 3,Note On,1,e4,
0, 3,Note On,1,e3,
0.0329641145833333, 3,Note On,1,e5,
0.09889234375, 3,Note Off,1,b4,
0.00659282291666667, 3,Note On,1,b4,
0.079113875, 3,Note Off,1,e3,
0.0395569375, 3,Note Off,1,e4,
0.00659282291666667, 3,Note Off,1,e5,
0.0461497604166667, 3,Note On,1,e5,
0.0131856458333333, 3,Note On,1,g#5,
0.237341625, 3,Note Off,1,g#5,
0.01977846875, 3,Note Off,1,e5,
0.0131856458333333, 3,Note Off,1,b4,
0.0395569375, 3,Note On,1,b4,
0, 3,Note On,1,e4,
0, 3,Note On,1,e3,
0.0329641145833333, 3,Note On,1,e5,
0.09889234375, 3,Note Off,1,b4,
0.00659282291666667, 3,Note On,1,b4,
0.171413395833333, 3,Note Off,1,e5,
0, 3,Note On,1,e5,
0.0131856458333333, 3,Note On,1,g#5,
0.237341625, 3,Note Off,1,g#5,
0.01977846875, 3,Note Off,1,e5,
0.00659282291666667, 3,Note Off,1,e4,
0.00659282291666667, 3,Note Off,1,b4,
0.0395569375, 3,Note On,1,b4,
0, 3,Note On,1,e4,
0, 3,Note On,1,e3,
0.0329641145833333, 3,Note On,1,e5,
0.09889234375, 3,Note Off,1,b4,
0.00659282291666667, 3,Note On,1,b4,
0.0131856458333333, 3,Note Off,1,e3,
0.125263635416667, 3,Note On,1,e3,
0, 3,Note On,1,e5,
0, 3,Note On,1,e4,
0.00659282291666667, 3,Note On,1,b4,
0.0263712916666667, 3,Note Off,1,e5,
0.263712916666667, 3,Note Off,1,e3,
0.0131856458333333, 3,Note Off,1,e4,
0.00659282291666667, 3,Note Off,1,b4,
0, 3,Note Off,1,e4,
0.0131856458333333, 3,Note Off,1,b4,
0.00659282291666667, 3,Note Off,1,e5,
0.171413395833333, 3,Note Off,1,e3,
0.507647364583333, 3,Note On,1,d4,
0, 3,Note On,1,a4,
0.00659282291666667, 3,Note On,1,e3,
0, 3,Note On,1,d5,
0.13844928125, 3,Note Off,1,a4,
0, 3,Note On,1,a4,
0.13844928125, 3,Note Off,1,d4,
0.00659282291666667, 3,Note Off,1,a4,
0, 3,Note On,1,d4,
0.0131856458333333, 3,Note Off,1,d5,
0, 3,Note On,1,a4,
0.00659282291666667, 3,Note On,1,d5,
0.290084208333333, 3,Note Off,1,d4,
0.01977846875, 3,Note Off,1,a4,
0.00659282291666667, 3,Note Off,1,d5,
0.0461497604166667, 3,Note Off,1,e3,
0.560389947916667, 3,Note On,1,c#4,
0.00659282291666667, 3,Note On,1,d5,
0, 3,Note On,1,a4,
0, 3,Note On,1,e3,
0.15822775, 3,Note Off,1,a4,
0.00659282291666667, 3,Note On,1,a4,
0.09889234375, 3,Note On,1,e3,
0.0131856458333333, 3,Note Off,1,e3,
0, 3,Note Off,1,e3,
0.0395569375, 3,Note On,1,f#5,
0.3164555, 3,Note Off,1,c#4,
0, 3,Note Off,1,f#5,
0.01977846875, 3,Note Off,1,d5,
0, 3,Note Off,1,a4,
0.61313253125, 3,Note On,1,e4,
0.00659282291666667, 3,Note On,1,b4,
0.270305739583333, 3,Note On,1,a4,
0, 3,Note On,1,c#6,
0, 3,Note On,1,a5,
0, 3,Note On,1,e5,
0.0395569375, 3,Note Off,1,e4,
0.0131856458333333, 3,Note Off,1,b4,
0.382383729166667, 3,Note Off,1,e5,
0.0131856458333333, 3,Note Off,1,c#6,
0.01977846875, 3,Note Off,1,a5,
0, 3,Note On,1,e4,
0, 3,Note On,1,g#5,
0, 3,Note On,1,b5,
0, 3,Note On,1,b4,
0, 3,Note On,1,e5,
0.00659282291666667, 3,Note Off,1,a4,
0.408755020833333, 3,Note Off,1,b4,
0.0263712916666667, 3,Note Off,1,b5,
0, 3,Note Off,1,e5,
0.0395569375, 3,Note Off,1,e4,
0.00659282291666667, 3,Note Off,1,g#5,
0.0263712916666667, 3,Note On,1,e4,
0, 3,Note On,1,a4,
0.0131856458333333, 3,Note On,1,c#6,
0, 3,Note On,1,a5,
0, 3,Note On,1,f#6,
0.00659282291666667, 3,Note On,1,e5,
0.263712916666667, 3,Note On,1,e3,
0, 3,Note On,1,e5,
0, 3,Note On,1,e4,
0.00659282291666667, 3,Note On,1,b4,
0.0263712916666667, 3,Note Off,1,e4,
0, 3,Note Off,1,a4,
0.00659282291666667, 3,Note Off,1,f#6,
0, 3,Note Off,1,e5,
0.0329641145833333, 3,Note Off,1,a5,
0.00659282291666667, 3,Note Off,1,c#6,
0.21756315625, 3,Note Off,1,e3,
0.01977846875, 3,Note Off,1,e4,
0.0131856458333333, 3,Note Off,1,b4,
0.00659282291666667, 3,Note Off,1,e5,
0.679060760416667, 3,Note On,1,d4,
0, 3,Note On,1,a4,
0.00659282291666667, 3,Note On,1,e3,
0, 3,Note On,1,d5,
0.13844928125, 3,Note Off,1,a4,
0, 3,Note On,1,a4,
0.13844928125, 3,Note Off,1,d4,
0.00659282291666667, 3,Note Off,1,a4,
0, 3,Note On,1,d4,
0.0131856458333333, 3,Note Off,1,d5,
0, 3,Note On,1,a4,
0.00659282291666667, 3,Note On,1,d5,
0.290084208333333, 3,Note Off,1,d4,
0.01977846875, 3,Note Off,1,a4,
0.00659282291666667, 3,Note Off,1,d5,
0.0461497604166667, 3,Note Off,1,e3,
0.560389947916667, 3,Note On,1,c#4,
0.00659282291666667, 3,Note On,1,d5,
0, 3,Note On,1,a4,
0, 3,Note On,1,e3,
0.15822775, 3,Note Off,1,a4,
0.00659282291666667, 3,Note On,1,a4,
0.09889234375, 3,Note On,1,e3,
0.0131856458333333, 3,Note Off,1,e3,
0.0395569375, 3,Note On,1,f#5,
0.3164555, 3,Note Off,1,c#4,
0, 3,Note Off,1,f#5,
0.01977846875, 3,Note Off,1,d5,
0, 3,Note Off,1,a4,
0.224155979166667, 3,Note Off,1,e3,
0.388976552083333, 3,Note On,1,b4,
0, 3,Note On,1,e4,
0, 3,Note On,1,e3,
0.0329641145833333, 3,Note On,1,e5,
0.09889234375, 3,Note Off,1,b4,
0.00659282291666667, 3,Note On,1,b4,
0.079113875, 3,Note Off,1,e3,
0.0395569375, 3,Note Off,1,e4,
0.00659282291666667, 3,Note Off,1,e5,
0.0461497604166667, 3,Note On,1,e5,
0.0131856458333333, 3,Note On,1,g#5,
0.237341625, 3,Note Off,1,g#5,
0.01977846875, 3,Note Off,1,e5,
0.0131856458333333, 3,Note Off,1,b4,
0.0395569375, 3,Note On,1,b4,
0, 3,Note On,1,e4,
0, 3,Note On,1,e3,
0.0329641145833333, 3,Note On,1,e5,
0.09889234375, 3,Note Off,1,b4,
0.00659282291666667, 3,Note On,1,b4,
0.171413395833333, 3,Note Off,1,e5,
0, 3,Note On,1,e5,
0.0131856458333333, 3,Note On,1,g#5,
0.237341625, 3,Note Off,1,g#5,
0.01977846875, 3,Note Off,1,e5,
0.00659282291666667, 3,Note Off,1,e4,
0.00659282291666667, 3,Note Off,1,b4,
0.0395569375, 3,Note On,1,b4,
0, 3,Note On,1,e4,
0, 3,Note On,1,e3,
0.0329641145833333, 3,Note On,1,e5,
0.09889234375, 3,Note Off,1,b4,
0.00659282291666667, 3,Note On,1,b4,
0.0131856458333333, 3,Note Off,1,e3,
0.125263635416667, 3,Note On,1,e3,
0, 3,Note On,1,e5,
0, 3,Note On,1,e4,
0.00659282291666667, 3,Note On,1,b4,
0.0263712916666667, 3,Note Off,1,e5,
0.263712916666667, 3,Note Off,1,e3,
0.0131856458333333, 3,Note Off,1,e4,
0.00659282291666667, 3,Note Off,1,b4,
0, 3,Note Off,1,e4,
0.0131856458333333, 3,Note Off,1,b4,
0.00659282291666667, 3,Note Off,1,e5,
0.171413395833333, 3,Note Off,1,e3,
0.507647364583333, 3,Note On,1,d4,
0, 3,Note On,1,a4,
0.00659282291666667, 3,Note On,1,e3,
0, 3,Note On,1,d5,
0.13844928125, 3,Note Off,1,a4,
0, 3,Note On,1,a4,
0.13844928125, 3,Note Off,1,d4,
0.00659282291666667, 3,Note Off,1,a4,
0, 3,Note On,1,d4,
0.0131856458333333, 3,Note Off,1,d5,
0, 3,Note On,1,a4,
0.00659282291666667, 3,Note On,1,d5,
0.290084208333333, 3,Note Off,1,d4,
0.01977846875, 3,Note Off,1,a4,
0.00659282291666667, 3,Note Off,1,d5,
0.0461497604166667, 3,Note Off,1,e3,
0.560389947916667, 3,Note On,1,c#4,
0.00659282291666667, 3,Note On,1,d5,
0, 3,Note On,1,a4,
0, 3,Note On,1,e3,
0.15822775, 3,Note Off,1,a4,
0.00659282291666667, 3,Note On,1,a4,
0.09889234375, 3,Note On,1,e3,
0.0131856458333333, 3,Note Off,1,e3,
0, 3,Note On,1,c#4,
0, 3,Note On,1,d5,
0, 3,Note On,1,a4,
0.0395569375, 3,Note On,1,f#5,
0.3164555, 3,Note Off,1,c#4,
0, 3,Note Off,1,c#4,
0, 3,Note Off,1,f#5,
0.01977846875, 3,Note Off,1,d5,
0, 3,Note Off,1,a4,
0, 3,Note Off,1,d5,
0, 3,Note Off,1,a4,
0.224155979166667, 3,Note Off,1,e3,
0.388976552083333, 3,Note On,1,e4,
0.00659282291666667, 3,Note On,1,b4,
0.270305739583333, 3,Note On,1,a4,
0, 3,Note On,1,c#6,
0, 3,Note On,1,a5,
0, 3,Note On,1,e5,
0.0395569375, 3,Note Off,1,e4,
0.0131856458333333, 3,Note Off,1,b4,
0.382383729166667, 3,Note Off,1,e5,
0.0131856458333333, 3,Note Off,1,c#6,
0.01977846875, 3,Note Off,1,a5,
0, 3,Note On,1,e4,
0, 3,Note On,1,g#5,
0, 3,Note On,1,b5,
0, 3,Note On,1,b4,
0, 3,Note On,1,e5,
0.00659282291666667, 3,Note Off,1,a4,
0.408755020833333, 3,Note Off,1,b4,
0.0263712916666667, 3,Note Off,1,b5,
0, 3,Note Off,1,e5,
0.0395569375, 3,Note Off,1,e4,
0.00659282291666667, 3,Note Off,1,g#5,
0.0263712916666667, 3,Note On,1,e4,
0, 3,Note On,1,a4,
0.0131856458333333, 3,Note On,1,c#6,
0, 3,Note On,1,a5,
0, 3,Note On,1,f#6,
0.00659282291666667, 3,Note On,1,e5,
0.263712916666667, 3,Note On,1,e3,
0, 3,Note On,1,e5,
0, 3,Note On,1,e4,
0.00659282291666667, 3,Note On,1,b4,
0.0263712916666667, 3,Note Off,1,e4,
0, 3,Note Off,1,a4,
0.00659282291666667, 3,Note Off,1,f#6,
0, 3,Note Off,1,e5,
0.0329641145833333, 3,Note Off,1,a5,
0.00659282291666667, 3,Note Off,1,c#6,
0.21756315625, 3,Note Off,1,e3,
0.01977846875, 3,Note Off,1,e4,
0.0131856458333333, 3,Note Off,1,b4,
0.00659282291666667, 3,Note Off,1,e5,
0.679060760416667, 3,Note On,1,d4,
0, 3,Note On,1,a4,
0.00659282291666667, 3,Note On,1,e3,
0, 3,Note On,1,d5,
0.13844928125, 3,Note Off,1,a4,
0, 3,Note On,1,a4,
0.13844928125, 3,Note Off,1,d4,
0.00659282291666667, 3,Note Off,1,a4,
0, 3,Note On,1,d4,
0.0131856458333333, 3,Note Off,1,d5,
0, 3,Note On,1,a4,
0.00659282291666667, 3,Note On,1,d5,
0.290084208333333, 3,Note Off,1,d4,
0.01977846875, 3,Note Off,1,a4,
0.00659282291666667, 3,Note Off,1,d5,
0.0461497604166667, 3,Note Off,1,e3,
0.560389947916667, 3,Note On,1,c#4,
0.00659282291666667, 3,Note On,1,d5,
0, 3,Note On,1,a4,
0, 3,Note On,1,e3,
0.15822775, 3,Note Off,1,a4,
0.00659282291666667, 3,Note On,1,a4,
0.09889234375, 3,Note On,1,e3,
0.0131856458333333, 3,Note Off,1,e3,
0.0395569375, 3,Note On,1,f#5,
0.3164555, 3,Note Off,1,c#4,
0, 3,Note Off,1,f#5,
0.01977846875, 3,Note Off,1,d5,
0, 3,Note Off,1,a4,
0.224155979166667, 3,Note Off,1,e3,
0.388976552083333, 3,Note On,1,b4,
0, 3,Note On,1,e4,
0, 3,Note On,1,e3,
0.0329641145833333, 3,Note On,1,e5,
0.09889234375, 3,Note Off,1,b4,
0.00659282291666667, 3,Note On,1,b4,
0.079113875, 3,Note Off,1,e3,
0.0395569375, 3,Note Off,1,e4,
0.00659282291666667, 3,Note Off,1,e5,
0.0461497604166667, 3,Note On,1,e5,
0.0131856458333333, 3,Note On,1,g#5,
0.237341625, 3,Note Off,1,g#5,
0.01977846875, 3,Note Off,1,e5,
0.0131856458333333, 3,Note Off,1,b4,
0.0395569375, 3,Note On,1,b4,
0, 3,Note On,1,e4,
0, 3,Note On,1,e3,
0.0329641145833333, 3,Note On,1,e5,
0.09889234375, 3,Note Off,1,b4,
0.00659282291666667, 3,Note On,1,b4,
0.171413395833333, 3,Note Off,1,e5,
0, 3,Note On,1,e5,
0.0131856458333333, 3,Note On,1,g#5,
0.237341625, 3,Note Off,1,g#5,
0.01977846875, 3,Note Off,1,e5,
0.00659282291666667, 3,Note Off,1,e4,
0.00659282291666667, 3,Note Off,1,b4,
0.0395569375, 3,Note On,1,b4,
0, 3,Note On,1,e4,
0, 3,Note On,1,e3,
0.0329641145833333, 3,Note On,1,e5,
0.09889234375, 3,Note Off,1,b4,
0.00659282291666667, 3,Note On,1,b4,
0.0131856458333333, 3,Note Off,1,e3,
0.125263635416667, 3,Note On,1,e3,
0, 3,Note On,1,e5,
0, 3,Note On,1,e4,
0.00659282291666667, 3,Note On,1,b4,
0.0263712916666667, 3,Note Off,1,e5,
0.263712916666667, 3,Note Off,1,e3,
0.0131856458333333, 3,Note Off,1,e4,
0.00659282291666667, 3,Note Off,1,b4,
0, 3,Note Off,1,e4,
0.0131856458333333, 3,Note Off,1,b4,
0.00659282291666667, 3,Note Off,1,e5,
0.171413395833333, 3,Note Off,1,e3,
0.507647364583333, 3,Note On,1,d4,
0, 3,Note On,1,a4,
0.00659282291666667, 3,Note On,1,e3,
0, 3,Note On,1,d5,
0.13844928125, 3,Note Off,1,a4,
0, 3,Note On,1,a4,
0.13844928125, 3,Note Off,1,d4,
0.00659282291666667, 3,Note Off,1,a4,
0, 3,Note On,1,d4,
0.0131856458333333, 3,Note Off,1,d5,
0, 3,Note On,1,a4,
0.00659282291666667, 3,Note On,1,d5,
0.290084208333333, 3,Note Off,1,d4,
0.01977846875, 3,Note Off,1,a4,
0.00659282291666667, 3,Note Off,1,d5,
0.0461497604166667, 3,Note Off,1,e3,
0.560389947916667, 3,Note On,1,c#4,
0.00659282291666667, 3,Note On,1,d5,
0, 3,Note On,1,a4,
0, 3,Note On,1,e3,
0.15822775, 3,Note Off,1,a4,
0.00659282291666667, 3,Note On,1,a4,
0.09889234375, 3,Note On,1,e3,
0.0131856458333333, 3,Note Off,1,e3,
0, 3,Note On,1,c#4,
0, 3,Note On,1,d5,
0, 3,Note On,1,a4,
0.0395569375, 3,Note On,1,f#5,
0.3164555, 3,Note Off,1,c#4,
0, 3,Note Off,1,c#4,
0, 3,Note Off,1,f#5,
0.01977846875, 3,Note Off,1,d5,
0, 3,Note Off,1,a4,
0, 3,Note Off,1,d5,
0, 3,Note Off,1,a4,
0.224155979166667, 3,Note Off,1,e3,
0.388976552083333, 3,Note On,1,e4,
0.00659282291666667, 3,Note On,1,b4,
0.270305739583333, 3,Note On,1,a4,
0, 3,Note On,1,c#6,
0, 3,Note On,1,a5,
0, 3,Note On,1,e5,
0.0395569375, 3,Note Off,1,e4,
0.0131856458333333, 3,Note Off,1,b4,
0.382383729166667, 3,Note Off,1,e5,
0.0131856458333333, 3,Note Off,1,c#6,
0.01977846875, 3,Note Off,1,a5,
0, 3,Note On,1,e4,
0, 3,Note On,1,g#5,
0, 3,Note On,1,b5,
0, 3,Note On,1,b4,
0, 3,Note On,1,e5,
0.00659282291666667, 3,Note Off,1,a4,
0.408755020833333, 3,Note Off,1,b4,
0.0263712916666667, 3,Note Off,1,b5,
0, 3,Note Off,1,e5,
0.0395569375, 3,Note Off,1,e4,
0.00659282291666667, 3,Note Off,1,g#5,
0.0263712916666667, 3,Note On,1,e4,
0, 3,Note On,1,a4,
0.0131856458333333, 3,Note On,1,c#6,
0, 3,Note On,1,a5,
0, 3,Note On,1,f#6,
0.00659282291666667, 3,Note On,1,e5,
0.29667703125, 3,Note Off,1,e4,
0, 3,Note Off,1,a4,
0.00659282291666667, 3,Note Off,1,f#6,
0, 3,Note Off,1,e5,
0.0329641145833333, 3,Note Off,1,a5,
0.00659282291666667, 3,Note Off,1,c#6,
0,bass,Program Change,2,c0,
2.531644,bass,Note On,2,e3,
0.632911,bass,Note Off,2,e3,
0.3164555,bass,Note On,2,a3,
0.15822775,bass,Note Off,2,a3,
0,bass,Note On,2,d3,
0.15822775,bass,Note Off,2,d3,
0,bass,Note On,2,a3,
0.632911,bass,Note Off,2,a3,
0.3164555,bass,Note On,2,a3,
0,bass,Note On,2,a3,
0.15822775,bass,Note Off,2,a3,
0,bass,Note Off,2,a3,
0,bass,Note On,2,e3,
0.15822775,bass,Note Off,2,e3,
0,bass,Note On,2,e3,
0.632911,bass,Note Off,2,e3,
0.79113875,bass,Note On,2,g4,
0.105485166666667,bass,Note Off,2,g4,
0.0527425833333333,bass,Note On,2,e4,
0.15822775,bass,Note On,2,d4,
0.0527425833333333,bass,Note Off,2,e4,
0.0527425833333333,bass,Note Off,2,d4,
0.0527425833333333,bass,Note On,2,b3,
0.15822775,bass,Note On,2,b3,
0.0527425833333333,bass,Note Off,2,b3,
0.105485166666667,bass,Note On,2,a4,
0,bass,Note On,2,a3,
0.0329641145833333,bass,Note Off,2,b3,
0.0725210520833333,bass,Note Off,2,a4,
0,bass,Note Off,2,a3,
0.0527425833333333,bass,Note On,2,g4,
0,bass,Note On,2,g3,
0.105485166666667,bass,Note Off,2,g4,
0,bass,Note Off,2,g3,
0.0527425833333333,bass,Note On,2,e3,
0.632911,bass,Note Off,2,e3,
0.3164555,bass,Note On,2,a3,
0.15822775,bass,Note Off,2,a3,
0,bass,Note On,2,d3,
0.15822775,bass,Note Off,2,d3,
0,bass,Note On,2,a3,
0.632911,bass,Note Off,2,a3,
0.3164555,bass,Note On,2,a3,
0,bass,Note On,2,a3,
0.15822775,bass,Note Off,2,a3,
0,bass,Note Off,2,a3,
0,bass,Note On,2,e3,
0.15822775,bass,Note Off,2,e3,
0,bass,Note On,2,e3,
0.632911,bass,Note Off,2,e3,
0,bass,Note On,2,b3,
0,bass,Note On,2,b2,
0.105485166666667,bass,Note Off,2,b3,
0,bass,Note Off,2,b2,
0.0527425833333333,bass,Note On,2,g#3,
0,bass,Note On,2,g#2,
0.210970333333333,bass,Note Off,2,g#3,
0,bass,Note Off,2,g#2,
0.105485166666667,bass,Note On,2,b3,
0,bass,Note On,2,b2,
0.105485166666667,bass,Note Off,2,b3,
0,bass,Note Off,2,b2,
0.0527425833333333,bass,Note On,2,a3,
0,bass,Note On,2,a2,
0.210970333333333,bass,Note Off,2,a3,
0,bass,Note Off,2,a2,
0.105485166666667,bass,Note On,2,b3,
0,bass,Note On,2,b2,
0.105485166666667,bass,Note Off,2,b3,
0,bass,Note Off,2,b2,
0.0527425833333333,bass,Note On,2,a#3,
0,bass,Note On,2,a#2,
0.210970333333333,bass,Note Off,2,a#3,
0,bass,Note Off,2,a#2,
0.105485166666667,bass,Note On,2,b3,
0,bass,Note On,2,b2,
0.105485166666667,bass,Note Off,2,b3,
0,bass,Note Off,2,b2,
0.0527425833333333,bass,Note On,2,a#3,
0,bass,Note On,2,a#2,
0.105485166666667,bass,Note Off,2,a#3,
0,bass,Note Off,2,a#2,
0.0527425833333333,bass,Note On,2,b3,
0,bass,Note On,2,b2,
0.105485166666667,bass,Note Off,2,b3,
0,bass,Note Off,2,b2,
0.0527425833333333,bass,Note On,2,e3,
0.632911,bass,Note Off,2,e3,
0.3164555,bass,Note On,2,a3,
0.15822775,bass,Note Off,2,a3,
0,bass,Note On,2,d3,
0.15822775,bass,Note Off,2,d3,
0,bass,Note On,2,a3,
0.632911,bass,Note Off,2,a3,
0.3164555,bass,Note On,2,a3,
0,bass,Note On,2,a3,
0.15822775,bass,Note Off,2,a3,
0,bass,Note Off,2,a3,
0,bass,Note On,2,e3,
0.15822775,bass,Note Off,2,e3,
0,bass,Note On,2,e3,
0.632911,bass,Note Off,2,e3,
0.79113875,bass,Note On,2,g4,
0.105485166666667,bass,Note Off,2,g4,
0.0527425833333333,bass,Note On,2,e4,
0.15822775,bass,Note On,2,d4,
0.0527425833333333,bass,Note Off,2,e4,
0.0527425833333333,bass,Note Off,2,d4,
0.0527425833333333,bass,Note On,2,b3,
0.15822775,bass,Note On,2,b3,
0.0527425833333333,bass,Note Off,2,b3,
0.105485166666667,bass,Note On,2,a4,
0,bass,Note On,2,a3,
0.0329641145833333,bass,Note Off,2,b3,
0.0725210520833333,bass,Note Off,2,a4,
0,bass,Note Off,2,a3,
0.0527425833333333,bass,Note On,2,g4,
0,bass,Note On,2,g3,
0.105485166666667,bass,Note Off,2,g4,
0,bass,Note Off,2,g3,
0.0527425833333333,bass,Note On,2,e3,
0.632911,bass,Note Off,2,e3,
0.3164555,bass,Note On,2,a3,
0.15822775,bass,Note Off,2,a3,
0,bass,Note On,2,d3,
0.15822775,bass,Note Off,2,d3,
0,bass,Note On,2,a3,
0.632911,bass,Note Off,2,a3,
0.3164555,bass,Note On,2,a3,
0,bass,Note On,2,a3,
0.15822775,bass,Note Off,2,a3,
0,bass,Note Off,2,a3,
0,bass,Note On,2,e3,
0.15822775,bass,Note Off,2,e3,
0,bass,Note On,2,e3,
0.632911,bass,Note Off,2,e3,
0,bass,Note On,2,b3,
0,bass,Note On,2,b2,
0.105485166666667,bass,Note Off,2,b3,
0,bass,Note Off,2,b2,
0.0527425833333333,bass,Note On,2,g#3,
0,bass,Note On,2,g#2,
0.210970333333333,bass,Note Off,2,g#3,
0,bass,Note Off,2,g#2,
0.105485166666667,bass,Note On,2,b3,
0,bass,Note On,2,b2,
0.105485166666667,bass,Note Off,2,b3,
0,bass,Note Off,2,b2,
0.0527425833333333,bass,Note On,2,a3,
0,bass,Note On,2,a2,
0.210970333333333,bass,Note Off,2,a3,
0,bass,Note Off,2,a2,
0.105485166666667,bass,Note On,2,b3,
0,bass,Note On,2,b2,
0.105485166666667,bass,Note Off,2,b3,
0,bass,Note Off,2,b2,
0.0527425833333333,bass,Note On,2,a#3,
0,bass,Note On,2,a#2,
0.210970333333333,bass,Note Off,2,a#3,
0,bass,Note Off,2,a#2,
0.105485166666667,bass,Note On,2,b3,
0,bass,Note On,2,b2,
0.105485166666667,bass,Note Off,2,b3,
0,bass,Note Off,2,b2,
0.0527425833333333,bass,Note On,2,a#3,
0,bass,Note On,2,a#2,
0.105485166666667,bass,Note Off,2,a#3,
0,bass,Note Off,2,a#2,
0.0527425833333333,bass,Note On,2,b3,
0,bass,Note On,2,b2,
0.105485166666667,bass,Note Off,2,b3,
0,bass,Note Off,2,b2,
0.0527425833333333,bass,Note On,2,e3,
0.632911,bass,Note Off,2,e3,
0.3164555,bass,Note On,2,a3,
0.15822775,bass,Note Off,2,a3,
0,bass,Note On,2,d3,
0.15822775,bass,Note Off,2,d3,
0,bass,Note On,2,a3,
0.632911,bass,Note Off,2,a3,
0.3164555,bass,Note On,2,a3,
0,bass,Note On,2,a3,
0.15822775,bass,Note Off,2,a3,
0,bass,Note Off,2,a3,
0,bass,Note On,2,e3,
0.15822775,bass,Note Off,2,e3,
0,bass,Note On,2,e3,
0.632911,bass,Note Off,2,e3,
0.79113875,bass,Note On,2,g4,
0.105485166666667,bass,Note Off,2,g4,
0.0527425833333333,bass,Note On,2,e4,
0.15822775,bass,Note On,2,d4,
0.0527425833333333,bass,Note Off,2,e4,
0.0527425833333333,bass,Note Off,2,d4,
0.0527425833333333,bass,Note On,2,b3,
0.15822775,bass,Note On,2,b3,
0.0527425833333333,bass,Note Off,2,b3,
0.105485166666667,bass,Note On,2,a4,
0,bass,Note On,2,a3,
0.0329641145833333,bass,Note Off,2,b3,
0.0725210520833333,bass,Note Off,2,a4,
0,bass,Note Off,2,a3,
0.0527425833333333,bass,Note On,2,g4,
0,bass,Note On,2,g3,
0.105485166666667,bass,Note Off,2,g4,
0,bass,Note Off,2,g3,
0.0527425833333333,bass,Note On,2,e3,
0.632911,bass,Note Off,2,e3,
0.3164555,bass,Note On,2,a3,
0.15822775,bass,Note Off,2,a3,
0,bass,Note On,2,d3,
0.15822775,bass,Note Off,2,d3,
0,bass,Note On,2,a3,
0.632911,bass,Note Off,2,a3,
0.3164555,bass,Note On,2,a3,
0,bass,Note On,2,a3,
0.15822775,bass,Note Off,2,a3,
0,bass,Note Off,2,a3,
0,bass,Note On,2,e3,
0.15822775,bass,Note Off,2,e3,
0,bass,Note On,2,e3,
0.632911,bass,Note Off,2,e3,
0,bass,Note On,2,b3,
0,bass,Note On,2,b2,
0.105485166666667,bass,Note Off,2,b3,
0,bass,Note Off,2,b2,
0.0527425833333333,bass,Note On,2,g#3,
0,bass,Note On,2,g#2,
0.210970333333333,bass,Note Off,2,g#3,
0,bass,Note Off,2,g#2,
0.105485166666667,bass,Note On,2,b3,
0,bass,Note On,2,b2,
0.105485166666667,bass,Note Off,2,b3,
0,bass,Note Off,2,b2,
0.0527425833333333,bass,Note On,2,a3,
0,bass,Note On,2,a2,
0.210970333333333,bass,Note Off,2,a3,
0,bass,Note Off,2,a2,
0.105485166666667,bass,Note On,2,b3,
0,bass,Note On,2,b2,
0.105485166666667,bass,Note Off,2,b3,
0,bass,Note Off,2,b2,
0.0527425833333333,bass,Note On,2,a#3,
0,bass,Note On,2,a#2,
0.210970333333333,bass,Note Off,2,a#3,
0,bass,Note Off,2,a#2,
0.105485166666667,bass,Note On,2,b3,
0,bass,Note On,2,b2,
0.105485166666667,bass,Note Off,2,b3,
0,bass,Note Off,2,b2,
0.0527425833333333,bass,Note On,2,a#3,
0,bass,Note On,2,a#2,
0.105485166666667,bass,Note Off,2,a#3,
0,bass,Note Off,2,a#2,
0.0527425833333333,bass,Note On,2,b3,
0,bass,Note On,2,b2,
0.105485166666667,bass,Note Off,2,b3,
0,bass,Note Off,2,b2,
0.4351263125,bass,Note On,2,a3,
0,bass,Note On,2,a2,
0.461497604166667,bass,Note Off,2,a3,
0,bass,Note Off,2,a2,
0.0329641145833333,bass,Note On,2,e3,
0,bass,Note On,2,e2,
0.290084208333333,bass,Note On,2,b3,
0,bass,Note On,2,b2,
0.079113875,bass,Note Off,2,e3,
0,bass,Note Off,2,e2,
0.37579090625,bass,Note Off,2,b3,
0,bass,Note Off,2,b2,
0.15822775,bass,Note On,2,a3,
0,bass,Note On,2,a2,
0.362605260416667,bass,Note Off,2,a3,
0,bass,Note Off,2,a2,
0,bass,Note On,2,b3,
0,bass,Note On,2,b2,
0.184599041666667,bass,Note Off,2,b3,
0,bass,Note Off,2,b2,
0.586761239583333,bass,Note On,2,a3,
0,bass,Note On,2,a2,
0.461497604166667,bass,Note Off,2,a3,
0,bass,Note Off,2,a2,
0.0329641145833333,bass,Note On,2,e3,
0,bass,Note On,2,e2,
0.290084208333333,bass,Note On,2,b3,
0,bass,Note On,2,b2,
0.079113875,bass,Note Off,2,e3,
0,bass,Note Off,2,e2,
0.37579090625,bass,Note Off,2,b3,
0,bass,Note Off,2,b2,
0.15822775,bass,Note On,2,a3,
0,bass,Note On,2,a2,
0.362605260416667,bass,Note Off,2,a3,
0,bass,Note Off,2,a2,
0,bass,Note On,2,b3,
0,bass,Note On,2,b2,
0.184599041666667,bass,Note Off,2,b3,
0,bass,Note Off,2,b2,
0.553797125,bass,Note On,2,g3,
0.309862677083333,bass,Note Off,2,g3,
0.13844928125,bass,Note On,2,d3,
0.402162197916667,bass,Note On,2,a2,
0.01977846875,bass,Note Off,2,d3,
0.507647364583333,bass,Note Off,2,a2,
0,bass,Note On,2,g2,
0.342826791666667,bass,Note Off,2,g2,
0.00659282291666667,bass,Note On,2,a2,
0.626318177083333,bass,Note Off,2,a2,
0.17800621875,bass,Note On,2,g3,
0.309862677083333,bass,Note Off,2,g3,
0.13844928125,bass,Note On,2,d3,
0.402162197916667,bass,Note On,2,a2,
0.01977846875,bass,Note Off,2,d3,
0.507647364583333,bass,Note Off,2,a2,
0,bass,Note On,2,g2,
0.342826791666667,bass,Note Off,2,g2,
0.00659282291666667,bass,Note On,2,a2,
0.45490478125,bass,Note On,2,a2,
0.171413395833333,bass,Note Off,2,a2,
0,bass,Note Off,2,a2,
0.210970333333333,bass,Note On,2,a3,
0,bass,Note On,2,a2,
0.461497604166667,bass,Note Off,2,a3,
0,bass,Note Off,2,a2,
0.0329641145833333,bass,Note On,2,e3,
0,bass,Note On,2,e2,
0.290084208333333,bass,Note On,2,b3,
0,bass,Note On,2,b2,
0.079113875,bass,Note Off,2,e3,
0,bass,Note Off,2,e2,
0.37579090625,bass,Note Off,2,b3,
0,bass,Note Off,2,b2,
0.15822775,bass,Note On,2,a3,
0,bass,Note On,2,a2,
0.362605260416667,bass,Note Off,2,a3,
0,bass,Note Off,2,a2,
0,bass,Note On,2,b3,
0,bass,Note On,2,b2,
0.184599041666667,bass,Note Off,2,b3,
0,bass,Note Off,2,b2,
0.586761239583333,bass,Note On,2,a3,
0,bass,Note On,2,a2,
0.461497604166667,bass,Note Off,2,a3,
0,bass,Note Off,2,a2,
0.0329641145833333,bass,Note On,2,e3,
0,bass,Note On,2,e2,
0.290084208333333,bass,Note On,2,b3,
0,bass,Note On,2,b2,
0.079113875,bass,Note Off,2,e3,
0,bass,Note Off,2,e2,
0.37579090625,bass,Note Off,2,b3,
0,bass,Note Off,2,b2,
0.15822775,bass,Note On,2,a3,
0,bass,Note On,2,a2,
0.362605260416667,bass,Note Off,2,a3,
0,bass,Note Off,2,a2,
0,bass,Note On,2,b3,
0,bass,Note On,2,b2,
0.184599041666667,bass,Note Off,2,b3,
0,bass,Note Off,2,b2,
0.204377510416667,bass,Note On,2,d3,
0,bass,Note On,2,g3,
0.3164555,bass,Note Off,2,d3,
0,bass,Note Off,2,g3,
0.15822775,bass,Note On,2,d3,
0,bass,Note On,2,g3,
0.3164555,bass,Note Off,2,d3,
0,bass,Note Off,2,g3,
0.15822775,bass,Note On,2,d3,
0,bass,Note On,2,g3,
0.3164555,bass,Note Off,2,d3,
0,bass,Note Off,2,g3,
0.15822775,bass,Note On,2,d3,
0,bass,Note On,2,g3,
0.105485166666667,bass,Note Off,2,d3,
0,bass,Note Off,2,g3,
0.0527425833333333,bass,Note On,2,c#3,
0.105485166666667,bass,Note Off,2,c#3,
0.0527425833333333,bass,Note On,2,d3,
0,bass,Note On,2,g3,
0.105485166666667,bass,Note Off,2,d3,
0,bass,Note Off,2,g3,
0.0527425833333333,bass,Note On,2,d3,
0,bass,Note On,2,g3,
0.210970333333333,bass,Note Off,2,d3,
0,bass,Note Off,2,g3,
0.105485166666667,bass,Note On,2,d3,
0,bass,Note On,2,g3,
0.210970333333333,bass,Note Off,2,d3,
0,bass,Note Off,2,g3,
0.105485166666667,bass,Note On,2,d3,
0,bass,Note On,2,a3,
0.3164555,bass,Note Off,2,d3,
0,bass,Note Off,2,a3,
0.15822775,bass,Note On,2,d3,
0,bass,Note On,2,a3,
0.3164555,bass,Note Off,2,d3,
0,bass,Note Off,2,a3,
0.15822775,bass,Note On,2,d3,
0,bass,Note On,2,a3,
0.843881333333333,bass,Note Off,2,d3,
0,bass,Note Off,2,a3,
0.738396166666667,bass,Note On,2,e3,
0.632911,bass,Note Off,2,e3,
0.3164555,bass,Note On,2,a3,
0.15822775,bass,Note Off,2,a3,
0,bass,Note On,2,d3,
0.15822775,bass,Note Off,2,d3,
0,bass,Note On,2,a3,
0.632911,bass,Note Off,2,a3,
0.3164555,bass,Note On,2,a3,
0,bass,Note On,2,a3,
0.15822775,bass,Note Off,2,a3,
0,bass,Note Off,2,a3,
0,bass,Note On,2,e3,
0.15822775,bass,Note Off,2,e3,
0,bass,Note On,2,e3,
0.632911,bass,Note Off,2,e3,
0.79113875,bass,Note On,2,g4,
0.105485166666667,bass,Note Off,2,g4,
0.0527425833333333,bass,Note On,2,e4,
0.15822775,bass,Note On,2,d4,
0.0527425833333333,bass,Note Off,2,e4,
0.0527425833333333,bass,Note Off,2,d4,
0.0527425833333333,bass,Note On,2,b3,
0.15822775,bass,Note On,2,b3,
0.0527425833333333,bass,Note Off,2,b3,
0.105485166666667,bass,Note On,2,a4,
0,bass,Note On,2,a3,
0.0329641145833333,bass,Note Off,2,b3,
0.0725210520833333,bass,Note Off,2,a4,
0,bass,Note Off,2,a3,
0.0527425833333333,bass,Note On,2,g4,
0,bass,Note On,2,g3,
0.105485166666667,bass,Note Off,2,g4,
0,bass,Note Off,2,g3,
0.0527425833333333,bass,Note On,2,e3,
0.632911,bass,Note Off,2,e3,
0.3164555,bass,Note On,2,a3,
0.15822775,bass,Note Off,2,a3,
0,bass,Note On,2,d3,
0.15822775,bass,Note Off,2,d3,
0,bass,Note On,2,a3,
0.632911,bass,Note Off,2,a3,
0.3164555,bass,Note On,2,a3,
0,bass,Note On,2,a3,
0.15822775,bass,Note Off,2,a3,
0,bass,Note Off,2,a3,
0,bass,Note On,2,e3,
0.15822775,bass,Note Off,2,e3,
0,bass,Note On,2,e3,
0.632911,bass,Note Off,2,e3,
0,bass,Note On,2,b3,
0,bass,Note On,2,b2,
0.105485166666667,bass,Note Off,2,b3,
0,bass,Note Off,2,b2,
0.0527425833333333,bass,Note On,2,g#3,
0,bass,Note On,2,g#2,
0.210970333333333,bass,Note Off,2,g#3,
0,bass,Note Off,2,g#2,
0.105485166666667,bass,Note On,2,b3,
0,bass,Note On,2,b2,
0.105485166666667,bass,Note Off,2,b3,
0,bass,Note Off,2,b2,
0.0527425833333333,bass,Note On,2,a3,
0,bass,Note On,2,a2,
0.210970333333333,bass,Note Off,2,a3,
0,bass,Note Off,2,a2,
0.105485166666667,bass,Note On,2,b3,
0,bass,Note On,2,b2,
0.105485166666667,bass,Note Off,2,b3,
0,bass,Note Off,2,b2,
0.0527425833333333,bass,Note On,2,a#3,
0,bass,Note On,2,a#2,
0.210970333333333,bass,Note Off,2,a#3,
0,bass,Note Off,2,a#2,
0.105485166666667,bass,Note On,2,b3,
0,bass,Note On,2,b2,
0.105485166666667,bass,Note Off,2,b3,
0,bass,Note Off,2,b2,
0.0527425833333333,bass,Note On,2,a#3,
0,bass,Note On,2,a#2,
0.105485166666667,bass,Note Off,2,a#3,
0,bass,Note Off,2,a#2,
0.0527425833333333,bass,Note On,2,b3,
0,bass,Note On,2,b2,
0.105485166666667,bass,Note Off,2,b3,
0,bass,Note Off,2,b2,
0.0527425833333333,bass,Note On,2,e3,
0.632911,bass,Note Off,2,e3,
0.3164555,bass,Note On,2,a3,
0.15822775,bass,Note Off,2,a3,
0,bass,Note On,2,d3,
0.15822775,bass,Note Off,2,d3,
0,bass,Note On,2,a3,
0.632911,bass,Note Off,2,a3,
0.3164555,bass,Note On,2,a3,
0,bass,Note On,2,a3,
0.15822775,bass,Note Off,2,a3,
0,bass,Note Off,2,a3,
0,bass,Note On,2,e3,
0.15822775,bass,Note Off,2,e3,
0,bass,Note On,2,e3,
0.632911,bass,Note Off,2,e3,
0.79113875,bass,Note On,2,g4,
0.105485166666667,bass,Note Off,2,g4,
0.0527425833333333,bass,Note On,2,e4,
0.15822775,bass,Note On,2,d4,
0.0527425833333333,bass,Note Off,2,e4,
0.0527425833333333,bass,Note Off,2,d4,
0.0527425833333333,bass,Note On,2,b3,
0.15822775,bass,Note On,2,b3,
0.0527425833333333,bass,Note Off,2,b3,
0.105485166666667,bass,Note On,2,a4,
0,bass,Note On,2,a3,
0.0329641145833333,bass,Note Off,2,b3,
0.0725210520833333,bass,Note Off,2,a4,
0,bass,Note Off,2,a3,
0.0527425833333333,bass,Note On,2,g4,
0,bass,Note On,2,g3,
0.105485166666667,bass,Note Off,2,g4,
0,bass,Note Off,2,g3,
0.0527425833333333,bass,Note On,2,e3,
0.632911,bass,Note Off,2,e3,
0.3164555,bass,Note On,2,a3,
0.15822775,bass,Note Off,2,a3,
0,bass,Note On,2,d3,
0.15822775,bass,Note Off,2,d3,
0,bass,Note On,2,a3,
0.632911,bass,Note Off,2,a3,
0.3164555,bass,Note On,2,a3,
0,bass,Note On,2,a3,
0.15822775,bass,Note Off,2,a3,
0,bass,Note Off,2,a3,
0,bass,Note On,2,e3,
0.15822775,bass,Note Off,2,e3,
0,bass,Note On,2,e3,
0.632911,bass,Note Off,2,e3,
0,bass,Note On,2,b3,
0,bass,Note On,2,b2,
0.105485166666667,bass,Note Off,2,b3,
0,bass,Note Off,2,b2,
0.0527425833333333,bass,Note On,2,g#3,
0,bass,Note On,2,g#2,
0.210970333333333,bass,Note Off,2,g#3,
0,bass,Note Off,2,g#2,
0.105485166666667,bass,Note On,2,b3,
0,bass,Note On,2,b2,
0.105485166666667,bass,Note Off,2,b3,
0,bass,Note Off,2,b2,
0.0527425833333333,bass,Note On,2,a3,
0,bass,Note On,2,a2,
0.210970333333333,bass,Note Off,2,a3,
0,bass,Note Off,2,a2,
0.105485166666667,bass,Note On,2,b3,
0,bass,Note On,2,b2,
0.105485166666667,bass,Note Off,2,b3,
0,bass,Note Off,2,b2,
0.0527425833333333,bass,Note On,2,a#3,
0,bass,Note On,2,a#2,
0.210970333333333,bass,Note Off,2,a#3,
0,bass,Note Off,2,a#2,
0.105485166666667,bass,Note On,2,b3,
0,bass,Note On,2,b2,
0.105485166666667,bass,Note Off,2,b3,
0,bass,Note Off,2,b2,
0.0527425833333333,bass,Note On,2,a#3,
0,bass,Note On,2,a#2,
0.105485166666667,bass,Note Off,2,a#3,
0,bass,Note Off,2,a#2,
0.0527425833333333,bass,Note On,2,b3,
0,bass,Note On,2,b2,
0.105485166666667,bass,Note Off,2,b3,
0,bass,Note Off,2,b2,
0.4351263125,bass,Note On,2,a3,
0,bass,Note On,2,a2,
0.461497604166667,bass,Note Off,2,a3,
0,bass,Note Off,2,a2,
0.0329641145833333,bass,Note On,2,e3,
0,bass,Note On,2,e2,
0.290084208333333,bass,Note On,2,b3,
0,bass,Note On,2,b2,
0.079113875,bass,Note Off,2,e3,
0,bass,Note Off,2,e2,
0.37579090625,bass,Note Off,2,b3,
0,bass,Note Off,2,b2,
0.15822775,bass,Note On,2,a3,
0,bass,Note On,2,a2,
0.362605260416667,bass,Note Off,2,a3,
0,bass,Note Off,2,a2,
0,bass,Note On,2,b3,
0,bass,Note On,2,b2,
0.184599041666667,bass,Note Off,2,b3,
0,bass,Note Off,2,b2,
0.586761239583333,bass,Note On,2,a3,
0,bass,Note On,2,a2,
0.461497604166667,bass,Note Off,2,a3,
0,bass,Note Off,2,a2,
0.0329641145833333,bass,Note On,2,e3,
0,bass,Note On,2,e2,
0.290084208333333,bass,Note On,2,b3,
0,bass,Note On,2,b2,
0.079113875,bass,Note Off,2,e3,
0,bass,Note Off,2,e2,
0.37579090625,bass,Note Off,2,b3,
0,bass,Note Off,2,b2,
0.15822775,bass,Note On,2,a3,
0,bass,Note On,2,a2,
0.362605260416667,bass,Note Off,2,a3,
0,bass,Note Off,2,a2,
0,bass,Note On,2,b3,
0,bass,Note On,2,b2,
0.184599041666667,bass,Note Off,2,b3,
0,bass,Note Off,2,b2,
0.553797125,bass,Note On,2,g3,
0.309862677083333,bass,Note Off,2,g3,
0.13844928125,bass,Note On,2,d3,
0.402162197916667,bass,Note On,2,a2,
0.01977846875,bass,Note Off,2,d3,
0.507647364583333,bass,Note Off,2,a2,
0,bass,Note On,2,g2,
0.342826791666667,bass,Note Off,2,g2,
0.00659282291666667,bass,Note On,2,a2,
0.626318177083333,bass,Note Off,2,a2,
0.17800621875,bass,Note On,2,g3,
0.309862677083333,bass,Note Off,2,g3,
0.13844928125,bass,Note On,2,d3,
0.402162197916667,bass,Note On,2,a2,
0.01977846875,bass,Note Off,2,d3,
0.507647364583333,bass,Note Off,2,a2,
0,bass,Note On,2,g2,
0.342826791666667,bass,Note Off,2,g2,
0.00659282291666667,bass,Note On,2,a2,
0.45490478125,bass,Note On,2,a2,
0.171413395833333,bass,Note Off,2,a2,
0,bass,Note Off,2,a2,
0.210970333333333,bass,Note On,2,a3,
0,bass,Note On,2,a2,
0.461497604166667,bass,Note Off,2,a3,
0,bass,Note Off,2,a2,
0.0329641145833333,bass,Note On,2,e3,
0,bass,Note On,2,e2,
0.290084208333333,bass,Note On,2,b3,
0,bass,Note On,2,b2,
0.079113875,bass,Note Off,2,e3,
0,bass,Note Off,2,e2,
0.37579090625,bass,Note Off,2,b3,
0,bass,Note Off,2,b2,
0.15822775,bass,Note On,2,a3,
0,bass,Note On,2,a2,
0.362605260416667,bass,Note Off,2,a3,
0,bass,Note Off,2,a2,
0,bass,Note On,2,b3,
0,bass,Note On,2,b2,
0.184599041666667,bass,Note Off,2,b3,
0,bass,Note Off,2,b2,
0.586761239583333,bass,Note On,2,a3,
0,bass,Note On,2,a2,
0.461497604166667,bass,Note Off,2,a3,
0,bass,Note Off,2,a2,
0.0329641145833333,bass,Note On,2,e3,
0,bass,Note On,2,e2,
0.290084208333333,bass,Note On,2,b3,
0,bass,Note On,2,b2,
0.079113875,bass,Note Off,2,e3,
0,bass,Note Off,2,e2,
0.37579090625,bass,Note Off,2,b3,
0,bass,Note Off,2,b2,
0.15822775,bass,Note On,2,a3,
0,bass,Note On,2,a2,
0.362605260416667,bass,Note Off,2,a3,
0,bass,Note Off,2,a2,
0,bass,Note On,2,b3,
0,bass,Note On,2,b2,
0.184599041666667,bass,Note Off,2,b3,
0,bass,Note Off,2,b2,
0.204377510416667,bass,Note On,2,d3,
0,bass,Note On,2,g3,
0.3164555,bass,Note Off,2,d3,
0,bass,Note Off,2,g3,
0.15822775,bass,Note On,2,d3,
0,bass,Note On,2,g3,
0.3164555,bass,Note Off,2,d3,
0,bass,Note Off,2,g3,
0.15822775,bass,Note On,2,d3,
0,bass,Note On,2,g3,
0.3164555,bass,Note Off,2,d3,
0,bass,Note Off,2,g3,
0.15822775,bass,Note On,2,d3,
0,bass,Note On,2,g3,
0.105485166666667,bass,Note Off,2,d3,
0,bass,Note Off,2,g3,
0.0527425833333333,bass,Note On,2,c#3,
0.105485166666667,bass,Note Off,2,c#3,
0.0527425833333333,bass,Note On,2,d3,
0,bass,Note On,2,g3,
0.105485166666667,bass,Note Off,2,d3,
0,bass,Note Off,2,g3,
0.0527425833333333,bass,Note On,2,d3,
0,bass,Note On,2,g3,
0.210970333333333,bass,Note Off,2,d3,
0,bass,Note Off,2,g3,
0.105485166666667,bass,Note On,2,d3,
0,bass,Note On,2,g3,
0.210970333333333,bass,Note Off,2,d3,
0,bass,Note Off,2,g3,
0.105485166666667,bass,Note On,2,d3,
0,bass,Note On,2,a3,
0.3164555,bass,Note Off,2,d3,
0,bass,Note Off,2,a3,
0.15822775,bass,Note On,2,d3,
0,bass,Note On,2,a3,
0.3164555,bass,Note Off,2,d3,
0,bass,Note Off,2,a3,
0.15822775,bass,Note On,2,d3,
0,bass,Note On,2,a3,
0.843881333333333,bass,Note Off,2,d3,
0,bass,Note Off,2,a3,
0.738396166666667,bass,Note On,2,e2,
0,bass,Note On,2,e2,
0,bass,Note On,2,e2,
0,bass,Note On,2,e3,
0,bass,Note On,2,e3,
0,bass,Note On,2,e3,
0.210970333333333,bass,Note Off,2,e2,
0,bass,Note Off,2,e2,
0,bass,Note Off,2,e2,
0,bass,Note Off,2,e3,
0,bass,Note Off,2,e3,
0,bass,Note Off,2,e3,
0.105485166666667,bass,Note On,2,e3,
0,bass,Note On,2,e3,
0,bass,Note On,2,e3,
0,bass,Note On,2,e4,
0,bass,Note On,2,e4,
0,bass,Note On,2,e4,
0.632911,bass,Note Off,2,e3,
0,bass,Note Off,2,e3,
0,bass,Note Off,2,e3,
0,bass,Note Off,2,e4,
0,bass,Note Off,2,e4,
0,bass,Note Off,2,e4,
0.3164555,bass,Note On,2,d3,
0,bass,Note On,2,d3,
0,bass,Note On,2,d3,
0,bass,Note On,2,d4,
0,bass,Note On,2,d4,
0,bass,Note On,2,d4,
0.210970333333333,bass,Note Off,2,d3,
0,bass,Note Off,2,d3,
0,bass,Note Off,2,d3,
0,bass,Note Off,2,d4,
0,bass,Note Off,2,d4,
0,bass,Note Off,2,d4,
0.105485166666667,bass,Note On,2,d3,
0,bass,Note On,2,d3,
0,bass,Note On,2,d3,
0,bass,Note On,2,d4,
0,bass,Note On,2,d4,
0,bass,Note On,2,d4,
0.632911,bass,Note Off,2,d3,
0,bass,Note Off,2,d3,
0,bass,Note Off,2,d3,
0,bass,Note Off,2,d4,
0,bass,Note Off,2,d4,
0,bass,Note Off,2,d4,
0.3164555,bass,Note On,2,c#3,
0,bass,Note On,2,c#3,
0,bass,Note On,2,c#3,
0,bass,Note On,2,c#4,
0,bass,Note On,2,c#4,
0,bass,Note On,2,c#4,
0.210970333333333,bass,Note Off,2,c#3,
0,bass,Note Off,2,c#3,
0,bass,Note Off,2,c#3,
0,bass,Note Off,2,c#4,
0,bass,Note Off,2,c#4,
0,bass,Note Off,2,c#4,
0.105485166666667,bass,Note On,2,c#3,
0,bass,Note On,2,c#3,
0,bass,Note On,2,c#3,
0,bass,Note On,2,c#4,
0,bass,Note On,2,c#4,
0,bass,Note On,2,c#4,
0.632911,bass,Note Off,2,c#3,
0,bass,Note Off,2,c#3,
0,bass,Note Off,2,c#3,
0,bass,Note Off,2,c#4,
0,bass,Note Off,2,c#4,
0,bass,Note Off,2,c#4,
0.3164555,bass,Note On,2,b2,
0,bass,Note On,2,b2,
0,bass,Note On,2,b2,
0,bass,Note On,2,b3,
0,bass,Note On,2,b3,
0,bass,Note On,2,b3,
0.210970333333333,bass,Note Off,2,b2,
0,bass,Note Off,2,b2,
0,bass,Note Off,2,b2,
0,bass,Note Off,2,b3,
0,bass,Note Off,2,b3,
0,bass,Note Off,2,b3,
0.105485166666667,bass,Note On,2,g3,
0,bass,Note On,2,g3,
0,bass,Note On,2,g3,
0,bass,Note On,2,g4,
0,bass,Note On,2,g4,
0,bass,Note On,2,g4,
0.105485166666667,bass,Note Off,2,g3,
0,bass,Note Off,2,g3,
0,bass,Note Off,2,g3,
0,bass,Note Off,2,g4,
0,bass,Note Off,2,g4,
0,bass,Note Off,2,g4,
0.0527425833333333,bass,Note On,2,a3,
0,bass,Note On,2,a3,
0,bass,Note On,2,a3,
0,bass,Note On,2,a4,
0,bass,Note On,2,a4,
0,bass,Note On,2,a4,
0.105485166666667,bass,Note Off,2,a3,
0,bass,Note Off,2,a3,
0,bass,Note Off,2,a3,
0,bass,Note Off,2,a4,
0,bass,Note Off,2,a4,
0,bass,Note Off,2,a4,
0.0527425833333333,bass,Note On,2,a#3,
0,bass,Note On,2,a#3,
0,bass,Note On,2,a#3,
0,bass,Note On,2,a#4,
0,bass,Note On,2,a#4,
0,bass,Note On,2,a#4,
0.0659282291666667,bass,Note Off,2,a#3,
0,bass,Note Off,2,a#3,
0,bass,Note Off,2,a#3,
0,bass,Note Off,2,a#4,
0,bass,Note Off,2,a#4,
0,bass,Note Off,2,a#4,
0.0395569375,bass,Note On,2,a3,
0,bass,Note On,2,a3,
0,bass,Note On,2,a3,
0,bass,Note On,2,a4,
0,bass,Note On,2,a4,
0,bass,Note On,2,a4,
0.0659282291666667,bass,Note Off,2,a3,
0,bass,Note Off,2,a3,
0,bass,Note Off,2,a3,
0,bass,Note Off,2,a4,
0,bass,Note Off,2,a4,
0,bass,Note Off,2,a4,
0.0395569375,bass,Note On,2,g3,
0,bass,Note On,2,g3,
0,bass,Note On,2,g3,
0,bass,Note On,2,g4,
0,bass,Note On,2,g4,
0,bass,Note On,2,g4,
0.0659282291666667,bass,Note Off,2,g3,
0,bass,Note Off,2,g3,
0,bass,Note Off,2,g3,
0,bass,Note Off,2,g4,
0,bass,Note Off,2,g4,
0,bass,Note Off,2,g4,
0.0395569375,bass,Note On,2,a3,
0,bass,Note On,2,a3,
0,bass,Note On,2,a3,
0,bass,Note On,2,a4,
0,bass,Note On,2,a4,
0,bass,Note On,2,a4,
0.105485166666667,bass,Note Off,2,a3,
0,bass,Note Off,2,a3,
0,bass,Note Off,2,a3,
0,bass,Note Off,2,a4,
0,bass,Note Off,2,a4,
0,bass,Note Off,2,a4,
0.0527425833333333,bass,Note On,2,e3,
0,bass,Note On,2,e3,
0,bass,Note On,2,e3,
0,bass,Note On,2,e4,
0,bass,Note On,2,e4,
0,bass,Note On,2,e4,
0.105485166666667,bass,Note Off,2,e3,
0,bass,Note Off,2,e3,
0,bass,Note Off,2,e3,
0,bass,Note Off,2,e4,
0,bass,Note Off,2,e4,
0,bass,Note Off,2,e4,
0.0527425833333333,bass,Note On,2,e2,
0,bass,Note On,2,e2,
0,bass,Note On,2,e2,
0,bass,Note On,2,e3,
0,bass,Note On,2,e3,
0,bass,Note On,2,e3,
0.210970333333333,bass,Note Off,2,e2,
0,bass,Note Off,2,e2,
0,bass,Note Off,2,e2,
0,bass,Note Off,2,e3,
0,bass,Note Off,2,e3,
0,bass,Note Off,2,e3,
0.105485166666667,bass,Note On,2,e3,
0,bass,Note On,2,e3,
0,bass,Note On,2,e3,
0,bass,Note On,2,e4,
0,bass,Note On,2,e4,
0,bass,Note On,2,e4,
0.632911,bass,Note Off,2,e3,
0,bass,Note Off,2,e3,
0,bass,Note Off,2,e3,
0,bass,Note Off,2,e4,
0,bass,Note Off,2,e4,
0,bass,Note Off,2,e4,
0.3164555,bass,Note On,2,d3,
0,bass,Note On,2,d3,
0,bass,Note On,2,d3,
0,bass,Note On,2,d4,
0,bass,Note On,2,d4,
0,bass,Note On,2,d4,
0.210970333333333,bass,Note Off,2,d3,
0,bass,Note Off,2,d3,
0,bass,Note Off,2,d3,
0,bass,Note Off,2,d4,
0,bass,Note Off,2,d4,
0,bass,Note Off,2,d4,
0.105485166666667,bass,Note On,2,d3,
0,bass,Note On,2,d3,
0,bass,Note On,2,d3,
0,bass,Note On,2,d4,
0,bass,Note On,2,d4,
0,bass,Note On,2,d4,
0.632911,bass,Note Off,2,d3,
0,bass,Note Off,2,d3,
0,bass,Note Off,2,d3,
0,bass,Note Off,2,d4,
0,bass,Note Off,2,d4,
0,bass,Note Off,2,d4,
0.3164555,bass,Note On,2,c#3,
0,bass,Note On,2,c#3,
0,bass,Note On,2,c#3,
0,bass,Note On,2,c#4,
0,bass,Note On,2,c#4,
0,bass,Note On,2,c#4,
0.210970333333333,bass,Note Off,2,c#3,
0,bass,Note Off,2,c#3,
0,bass,Note Off,2,c#3,
0,bass,Note Off,2,c#4,
0,bass,Note Off,2,c#4,
0,bass,Note Off,2,c#4,
0.105485166666667,bass,Note On,2,c#3,
0,bass,Note On,2,c#3,
0,bass,Note On,2,c#3,
0,bass,Note On,2,c#4,
0,bass,Note On,2,c#4,
0,bass,Note On,2,c#4,
0.632911,bass,Note Off,2,c#3,
0,bass,Note Off,2,c#3,
0,bass,Note Off,2,c#3,
0,bass,Note Off,2,c#4,
0,bass,Note Off,2,c#4,
0,bass,Note Off,2,c#4,
0.3164555,bass,Note On,2,d3,
0,bass,Note On,2,d3,
0,bass,Note On,2,d3,
0.210970333333333,bass,Note Off,2,d3,
0,bass,Note Off,2,d3,
0,bass,Note Off,2,d3,
0.105485166666667,bass,Note On,2,d4,
0.210970333333333,bass,Note Off,2,d4,
0.105485166666667,bass,Note On,2,d3,
0,bass,Note On,2,d3,
0,bass,Note On,2,d3,
0.210970333333333,bass,Note Off,2,d3,
0,bass,Note Off,2,d3,
0,bass,Note Off,2,d3,
0.105485166666667,bass,Note On,2,d4,
0.210970333333333,bass,Note Off,2,d4,
0.105485166666667,bass,Note On,2,e2,
0,bass,Note On,2,e2,
0,bass,Note On,2,e2,
0,bass,Note On,2,e3,
0,bass,Note On,2,e3,
0,bass,Note On,2,e3,
0.210970333333333,bass,Note Off,2,e2,
0,bass,Note Off,2,e2,
0,bass,Note Off,2,e2,
0,bass,Note Off,2,e3,
0,bass,Note Off,2,e3,
0,bass,Note Off,2,e3,
0.105485166666667,bass,Note On,2,e3,
0,bass,Note On,2,e3,
0,bass,Note On,2,e3,
0,bass,Note On,2,e4,
0,bass,Note On,2,e4,
0,bass,Note On,2,e4,
0.632911,bass,Note Off,2,e3,
0,bass,Note Off,2,e3,
0,bass,Note Off,2,e3,
0,bass,Note Off,2,e4,
0,bass,Note Off,2,e4,
0,bass,Note Off,2,e4,
0.3164555,bass,Note On,2,d3,
0,bass,Note On,2,d3,
0,bass,Note On,2,d3,
0,bass,Note On,2,d4,
0,bass,Note On,2,d4,
0,bass,Note On,2,d4,
0.210970333333333,bass,Note Off,2,d3,
0,bass,Note Off,2,d3,
0,bass,Note Off,2,d3,
0,bass,Note Off,2,d4,
0,bass,Note Off,2,d4,
0,bass,Note Off,2,d4,
0.105485166666667,bass,Note On,2,d3,
0,bass,Note On,2,d3,
0,bass,Note On,2,d3,
0,bass,Note On,2,d4,
0,bass,Note On,2,d4,
0,bass,Note On,2,d4,
0.632911,bass,Note Off,2,d3,
0,bass,Note Off,2,d3,
0,bass,Note Off,2,d3,
0,bass,Note Off,2,d4,
0,bass,Note Off,2,d4,
0,bass,Note Off,2,d4,
0.3164555,bass,Note On,2,c#3,
0,bass,Note On,2,c#3,
0,bass,Note On,2,c#3,
0,bass,Note On,2,c#4,
0,bass,Note On,2,c#4,
0,bass,Note On,2,c#4,
0.210970333333333,bass,Note Off,2,c#3,
0,bass,Note Off,2,c#3,
0,bass,Note Off,2,c#3,
0,bass,Note Off,2,c#4,
0,bass,Note Off,2,c#4,
0,bass,Note Off,2,c#4,
0.105485166666667,bass,Note On,2,c#3,
0,bass,Note On,2,c#3,
0,bass,Note On,2,c#3,
0,bass,Note On,2,c#4,
0,bass,Note On,2,c#4,
0,bass,Note On,2,c#4,
0.632911,bass,Note Off,2,c#3,
0,bass,Note Off,2,c#3,
0,bass,Note Off,2,c#3,
0,bass,Note Off,2,c#4,
0,bass,Note Off,2,c#4,
0,bass,Note Off,2,c#4,
0.3164555,bass,Note On,2,b2,
0,bass,Note On,2,b2,
0,bass,Note On,2,b2,
0,bass,Note On,2,b3,
0,bass,Note On,2,b3,
0,bass,Note On,2,b3,
0.210970333333333,bass,Note Off,2,b2,
0,bass,Note Off,2,b2,
0,bass,Note Off,2,b2,
0,bass,Note Off,2,b3,
0,bass,Note Off,2,b3,
0,bass,Note Off,2,b3,
0.105485166666667,bass,Note On,2,g3,
0,bass,Note On,2,g3,
0,bass,Note On,2,g3,
0,bass,Note On,2,g4,
0,bass,Note On,2,g4,
0,bass,Note On,2,g4,
0.105485166666667,bass,Note Off,2,g3,
0,bass,Note Off,2,g3,
0,bass,Note Off,2,g3,
0,bass,Note Off,2,g4,
0,bass,Note Off,2,g4,
0,bass,Note Off,2,g4,
0.0527425833333333,bass,Note On,2,a3,
0,bass,Note On,2,a3,
0,bass,Note On,2,a3,
0,bass,Note On,2,a4,
0,bass,Note On,2,a4,
0,bass,Note On,2,a4,
0.105485166666667,bass,Note Off,2,a3,
0,bass,Note Off,2,a3,
0,bass,Note Off,2,a3,
0,bass,Note Off,2,a4,
0,bass,Note Off,2,a4,
0,bass,Note Off,2,a4,
0.0527425833333333,bass,Note On,2,a#3,
0,bass,Note On,2,a#3,
0,bass,Note On,2,a#3,
0,bass,Note On,2,a#4,
0,bass,Note On,2,a#4,
0,bass,Note On,2,a#4,
0.0659282291666667,bass,Note Off,2,a#3,
0,bass,Note Off,2,a#3,
0,bass,Note Off,2,a#3,
0,bass,Note Off,2,a#4,
0,bass,Note Off,2,a#4,
0,bass,Note Off,2,a#4,
0.0395569375,bass,Note On,2,a3,
0,bass,Note On,2,a3,
0,bass,Note On,2,a3,
0,bass,Note On,2,a4,
0,bass,Note On,2,a4,
0,bass,Note On,2,a4,
0.0659282291666667,bass,Note Off,2,a3,
0,bass,Note Off,2,a3,
0,bass,Note Off,2,a3,
0,bass,Note Off,2,a4,
0,bass,Note Off,2,a4,
0,bass,Note Off,2,a4,
0.0395569375,bass,Note On,2,g3,
0,bass,Note On,2,g3,
0,bass,Note On,2,g3,
0,bass,Note On,2,g4,
0,bass,Note On,2,g4,
0,bass,Note On,2,g4,
0.0659282291666667,bass,Note Off,2,g3,
0,bass,Note Off,2,g3,
0,bass,Note Off,2,g3,
0,bass,Note Off,2,g4,
0,bass,Note Off,2,g4,
0,bass,Note Off,2,g4,
0.0395569375,bass,Note On,2,a3,
0,bass,Note On,2,a3,
0,bass,Note On,2,a3,
0,bass,Note On,2,a4,
0,bass,Note On,2,a4,
0,bass,Note On,2,a4,
0.105485166666667,bass,Note Off,2,a3,
0,bass,Note Off,2,a3,
0,bass,Note Off,2,a3,
0,bass,Note Off,2,a4,
0,bass,Note Off,2,a4,
0,bass,Note Off,2,a4,
0.0527425833333333,bass,Note On,2,e3,
0,bass,Note On,2,e3,
0,bass,Note On,2,e3,
0,bass,Note On,2,e4,
0,bass,Note On,2,e4,
0,bass,Note On,2,e4,
0.105485166666667,bass,Note Off,2,e3,
0,bass,Note Off,2,e3,
0,bass,Note Off,2,e3,
0,bass,Note Off,2,e4,
0,bass,Note Off,2,e4,
0,bass,Note Off,2,e4,
0.0527425833333333,bass,Note On,2,e2,
0,bass,Note On,2,e2,
0,bass,Note On,2,e2,
0,bass,Note On,2,e3,
0,bass,Note On,2,e3,
0,bass,Note On,2,e3,
0.210970333333333,bass,Note Off,2,e2,
0,bass,Note Off,2,e2,
0,bass,Note Off,2,e2,
0,bass,Note Off,2,e3,
0,bass,Note Off,2,e3,
0,bass,Note Off,2,e3,
0.105485166666667,bass,Note On,2,e3,
0,bass,Note On,2,e3,
0,bass,Note On,2,e3,
0,bass,Note On,2,e4,
0,bass,Note On,2,e4,
0,bass,Note On,2,e4,
0.632911,bass,Note Off,2,e3,
0,bass,Note Off,2,e3,
0,bass,Note Off,2,e3,
0,bass,Note Off,2,e4,
0,bass,Note Off,2,e4,
0,bass,Note Off,2,e4,
0.3164555,bass,Note On,2,d3,
0,bass,Note On,2,d3,
0,bass,Note On,2,d3,
0,bass,Note On,2,d4,
0,bass,Note On,2,d4,
0,bass,Note On,2,d4,
0.210970333333333,bass,Note Off,2,d3,
0,bass,Note Off,2,d3,
0,bass,Note Off,2,d3,
0,bass,Note Off,2,d4,
0,bass,Note Off,2,d4,
0,bass,Note Off,2,d4,
0.105485166666667,bass,Note On,2,d3,
0,bass,Note On,2,d3,
0,bass,Note On,2,d3,
0,bass,Note On,2,d4,
0,bass,Note On,2,d4,
0,bass,Note On,2,d4,
0.632911,bass,Note Off,2,d3,
0,bass,Note Off,2,d3,
0,bass,Note Off,2,d3,
0,bass,Note Off,2,d4,
0,bass,Note Off,2,d4,
0,bass,Note Off,2,d4,
0.3164555,bass,Note On,2,c#3,
0,bass,Note On,2,c#3,
0,bass,Note On,2,c#3,
0,bass,Note On,2,c#4,
0,bass,Note On,2,c#4,
0,bass,Note On,2,c#4,
0.210970333333333,bass,Note Off,2,c#3,
0,bass,Note Off,2,c#3,
0,bass,Note Off,2,c#3,
0,bass,Note Off,2,c#4,
0,bass,Note Off,2,c#4,
0,bass,Note Off,2,c#4,
0.105485166666667,bass,Note On,2,c#3,
0,bass,Note On,2,c#3,
0,bass,Note On,2,c#3,
0,bass,Note On,2,c#4,
0,bass,Note On,2,c#4,
0,bass,Note On,2,c#4,
0.632911,bass,Note Off,2,c#3,
0,bass,Note Off,2,c#3,
0,bass,Note Off,2,c#3,
0,bass,Note Off,2,c#4,
0,bass,Note Off,2,c#4,
0,bass,Note Off,2,c#4,
1.5822775,bass,Note On,2,e2,
0,bass,Note On,2,e2,
0,bass,Note On,2,e2,
0,bass,Note On,2,e3,
0,bass,Note On,2,e3,
0,bass,Note On,2,e3,
0.210970333333333,bass,Note Off,2,e2,
0,bass,Note Off,2,e2,
0,bass,Note Off,2,e2,
0,bass,Note Off,2,e3,
0,bass,Note Off,2,e3,
0,bass,Note Off,2,e3,
0.105485166666667,bass,Note On,2,e3,
0,bass,Note On,2,e3,
0,bass,Note On,2,e3,
0,bass,Note On,2,e4,
0,bass,Note On,2,e4,
0,bass,Note On,2,e4,
0.632911,bass,Note Off,2,e3,
0,bass,Note Off,2,e3,
0,bass,Note Off,2,e3,
0,bass,Note Off,2,e4,
0,bass,Note Off,2,e4,
0,bass,Note Off,2,e4,
0.3164555,bass,Note On,2,d3,
0,bass,Note On,2,d3,
0,bass,Note On,2,d3,
0,bass,Note On,2,d4,
0,bass,Note On,2,d4,
0,bass,Note On,2,d4,
0.210970333333333,bass,Note Off,2,d3,
0,bass,Note Off,2,d3,
0,bass,Note Off,2,d3,
0,bass,Note Off,2,d4,
0,bass,Note Off,2,d4,
0,bass,Note Off,2,d4,
0.105485166666667,bass,Note On,2,d3,
0,bass,Note On,2,d3,
0,bass,Note On,2,d3,
0,bass,Note On,2,d4,
0,bass,Note On,2,d4,
0,bass,Note On,2,d4,
0.632911,bass,Note Off,2,d3,
0,bass,Note Off,2,d3,
0,bass,Note Off,2,d3,
0,bass,Note Off,2,d4,
0,bass,Note Off,2,d4,
0,bass,Note Off,2,d4,
0.3164555,bass,Note On,2,c#3,
0,bass,Note On,2,c#3,
0,bass,Note On,2,c#3,
0,bass,Note On,2,c#4,
0,bass,Note On,2,c#4,
0,bass,Note On,2,c#4,
0.210970333333333,bass,Note Off,2,c#3,
0,bass,Note Off,2,c#3,
0,bass,Note Off,2,c#3,
0,bass,Note Off,2,c#4,
0,bass,Note Off,2,c#4,
0,bass,Note Off,2,c#4,
0.105485166666667,bass,Note On,2,c#3,
0,bass,Note On,2,c#3,
0,bass,Note On,2,c#3,
0,bass,Note On,2,c#4,
0,bass,Note On,2,c#4,
0,bass,Note On,2,c#4,
0.632911,bass,Note Off,2,c#3,
0,bass,Note Off,2,c#3,
0,bass,Note Off,2,c#3,
0,bass,Note Off,2,c#4,
0,bass,Note Off,2,c#4,
0,bass,Note Off,2,c#4,
0.3164555,bass,Note On,2,b2,
0,bass,Note On,2,b2,
0,bass,Note On,2,b2,
0,bass,Note On,2,b3,
0,bass,Note On,2,b3,
0,bass,Note On,2,b3,
0.210970333333333,bass,Note Off,2,b2,
0,bass,Note Off,2,b2,
0,bass,Note Off,2,b2,
0,bass,Note Off,2,b3,
0,bass,Note Off,2,b3,
0,bass,Note Off,2,b3,
0.105485166666667,bass,Note On,2,g3,
0,bass,Note On,2,g3,
0,bass,Note On,2,g3,
0,bass,Note On,2,g4,
0,bass,Note On,2,g4,
0,bass,Note On,2,g4,
0.105485166666667,bass,Note Off,2,g3,
0,bass,Note Off,2,g3,
0,bass,Note Off,2,g3,
0,bass,Note Off,2,g4,
0,bass,Note Off,2,g4,
0,bass,Note Off,2,g4,
0.0527425833333333,bass,Note On,2,a3,
0,bass,Note On,2,a3,
0,bass,Note On,2,a3,
0,bass,Note On,2,a4,
0,bass,Note On,2,a4,
0,bass,Note On,2,a4,
0.105485166666667,bass,Note Off,2,a3,
0,bass,Note Off,2,a3,
0,bass,Note Off,2,a3,
0,bass,Note Off,2,a4,
0,bass,Note Off,2,a4,
0,bass,Note Off,2,a4,
0.0527425833333333,bass,Note On,2,a#3,
0,bass,Note On,2,a#3,
0,bass,Note On,2,a#3,
0,bass,Note On,2,a#4,
0,bass,Note On,2,a#4,
0,bass,Note On,2,a#4,
0.0659282291666667,bass,Note Off,2,a#3,
0,bass,Note Off,2,a#3,
0,bass,Note Off,2,a#3,
0,bass,Note Off,2,a#4,
0,bass,Note Off,2,a#4,
0,bass,Note Off,2,a#4,
0.0395569375,bass,Note On,2,a3,
0,bass,Note On,2,a3,
0,bass,Note On,2,a3,
0,bass,Note On,2,a4,
0,bass,Note On,2,a4,
0,bass,Note On,2,a4,
0.0659282291666667,bass,Note Off,2,a3,
0,bass,Note Off,2,a3,
0,bass,Note Off,2,a3,
0,bass,Note Off,2,a4,
0,bass,Note Off,2,a4,
0,bass,Note Off,2,a4,
0.0395569375,bass,Note On,2,g3,
0,bass,Note On,2,g3,
0,bass,Note On,2,g3,
0,bass,Note On,2,g4,
0,bass,Note On,2,g4,
0,bass,Note On,2,g4,
0.0659282291666667,bass,Note Off,2,g3,
0,bass,Note Off,2,g3,
0,bass,Note Off,2,g3,
0,bass,Note Off,2,g4,
0,bass,Note Off,2,g4,
0,bass,Note Off,2,g4,
0.0395569375,bass,Note On,2,a3,
0,bass,Note On,2,a3,
0,bass,Note On,2,a3,
0,bass,Note On,2,a4,
0,bass,Note On,2,a4,
0,bass,Note On,2,a4,
0.105485166666667,bass,Note Off,2,a3,
0,bass,Note Off,2,a3,
0,bass,Note Off,2,a3,
0,bass,Note Off,2,a4,
0,bass,Note Off,2,a4,
0,bass,Note Off,2,a4,
0.0527425833333333,bass,Note On,2,e3,
0,bass,Note On,2,e3,
0,bass,Note On,2,e3,
0,bass,Note On,2,e4,
0,bass,Note On,2,e4,
0,bass,Note On,2,e4,
0.105485166666667,bass,Note Off,2,e3,
0,bass,Note Off,2,e3,
0,bass,Note Off,2,e3,
0,bass,Note Off,2,e4,
0,bass,Note Off,2,e4,
0,bass,Note Off,2,e4,
0.0527425833333333,bass,Note On,2,e2,
0,bass,Note On,2,e2,
0,bass,Note On,2,e2,
0,bass,Note On,2,e3,
0,bass,Note On,2,e3,
0,bass,Note On,2,e3,
0.210970333333333,bass,Note Off,2,e2,
0,bass,Note Off,2,e2,
0,bass,Note Off,2,e2,
0,bass,Note Off,2,e3,
0,bass,Note Off,2,e3,
0,bass,Note Off,2,e3,
0.105485166666667,bass,Note On,2,e3,
0,bass,Note On,2,e3,
0,bass,Note On,2,e3,
0,bass,Note On,2,e4,
0,bass,Note On,2,e4,
0,bass,Note On,2,e4,
0.632911,bass,Note Off,2,e3,
0,bass,Note Off,2,e3,
0,bass,Note Off,2,e3,
0,bass,Note Off,2,e4,
0,bass,Note Off,2,e4,
0,bass,Note Off,2,e4,
0.3164555,bass,Note On,2,d3,
0,bass,Note On,2,d3,
0,bass,Note On,2,d3,
0,bass,Note On,2,d4,
0,bass,Note On,2,d4,
0,bass,Note On,2,d4,
0.210970333333333,bass,Note Off,2,d3,
0,bass,Note Off,2,d3,
0,bass,Note Off,2,d3,
0,bass,Note Off,2,d4,
0,bass,Note Off,2,d4,
0,bass,Note Off,2,d4,
0.105485166666667,bass,Note On,2,d3,
0,bass,Note On,2,d3,
0,bass,Note On,2,d3,
0,bass,Note On,2,d4,
0,bass,Note On,2,d4,
0,bass,Note On,2,d4,
0.632911,bass,Note Off,2,d3,
0,bass,Note Off,2,d3,
0,bass,Note Off,2,d3,
0,bass,Note Off,2,d4,
0,bass,Note Off,2,d4,
0,bass,Note Off,2,d4,
0.3164555,bass,Note On,2,c#3,
0,bass,Note On,2,c#3,
0,bass,Note On,2,c#3,
0,bass,Note On,2,c#4,
0,bass,Note On,2,c#4,
0,bass,Note On,2,c#4,
0.210970333333333,bass,Note Off,2,c#3,
0,bass,Note Off,2,c#3,
0,bass,Note Off,2,c#3,
0,bass,Note Off,2,c#4,
0,bass,Note Off,2,c#4,
0,bass,Note Off,2,c#4,
0.105485166666667,bass,Note On,2,c#3,
0,bass,Note On,2,c#3,
0,bass,Note On,2,c#3,
0,bass,Note On,2,c#4,
0,bass,Note On,2,c#4,
0,bass,Note On,2,c#4,
0.632911,bass,Note Off,2,c#3,
0,bass,Note Off,2,c#3,
0,bass,Note Off,2,c#3,
0,bass,Note Off,2,c#4,
0,bass,Note Off,2,c#4,
0,bass,Note Off,2,c#4,
1.5822775,bass,Note On,2,e2,
0,bass,Note On,2,e2,
0,bass,Note On,2,e2,
0,bass,Note On,2,e3,
0,bass,Note On,2,e3,
0,bass,Note On,2,e3,
0.210970333333333,bass,Note Off,2,e2,
0,bass,Note Off,2,e2,
0,bass,Note Off,2,e2,
0,bass,Note Off,2,e3,
0,bass,Note Off,2,e3,
0,bass,Note Off,2,e3,
0.105485166666667,bass,Note On,2,e3,
0,bass,Note On,2,e3,
0,bass,Note On,2,e3,
0,bass,Note On,2,e4,
0,bass,Note On,2,e4,
0,bass,Note On,2,e4,
0.632911,bass,Note Off,2,e3,
0,bass,Note Off,2,e3,
0,bass,Note Off,2,e3,
0,bass,Note Off,2,e4,
0,bass,Note Off,2,e4,
0,bass,Note Off,2,e4,
0.3164555,bass,Note On,2,d3,
0,bass,Note On,2,d3,
0,bass,Note On,2,d3,
0,bass,Note On,2,d4,
0,bass,Note On,2,d4,
0,bass,Note On,2,d4,
0.210970333333333,bass,Note Off,2,d3,
0,bass,Note Off,2,d3,
0,bass,Note Off,2,d3,
0,bass,Note Off,2,d4,
0,bass,Note Off,2,d4,
0,bass,Note Off,2,d4,
0.105485166666667,bass,Note On,2,d3,
0,bass,Note On,2,d3,
0,bass,Note On,2,d3,
0,bass,Note On,2,d4,
0,bass,Note On,2,d4,
0,bass,Note On,2,d4,
0.632911,bass,Note Off,2,d3,
0,bass,Note Off,2,d3,
0,bass,Note Off,2,d3,
0,bass,Note Off,2,d4,
0,bass,Note Off,2,d4,
0,bass,Note Off,2,d4,
0.3164555,bass,Note On,2,c#3,
0,bass,Note On,2,c#3,
0,bass,Note On,2,c#3,
0,bass,Note On,2,c#4,
0,bass,Note On,2,c#4,
0,bass,Note On,2,c#4,
0.210970333333333,bass,Note Off,2,c#3,
0,bass,Note Off,2,c#3,
0,bass,Note Off,2,c#3,
0,bass,Note Off,2,c#4,
0,bass,Note Off,2,c#4,
0,bass,Note Off,2,c#4,
0.105485166666667,bass,Note On,2,c#3,
0,bass,Note On,2,c#3,
0,bass,Note On,2,c#3,
0,bass,Note On,2,c#4,
0,bass,Note On,2,c#4,
0,bass,Note On,2,c#4,
0.632911,bass,Note Off,2,c#3,
0,bass,Note Off,2,c#3,
0,bass,Note Off,2,c#3,
0,bass,Note Off,2,c#4,
0,bass,Note Off,2,c#4,
0,bass,Note Off,2,c#4,
0.3164555,bass,Note On,2,b2,
0,bass,Note On,2,b2,
0,bass,Note On,2,b2,
0,bass,Note On,2,b3,
0,bass,Note On,2,b3,
0,bass,Note On,2,b3,
0.210970333333333,bass,Note Off,2,b2,
0,bass,Note Off,2,b2,
0,bass,Note Off,2,b2,
0,bass,Note Off,2,b3,
0,bass,Note Off,2,b3,
0,bass,Note Off,2,b3,
0.105485166666667,bass,Note On,2,g3,
0,bass,Note On,2,g3,
0,bass,Note On,2,g3,
0,bass,Note On,2,g4,
0,bass,Note On,2,g4,
0,bass,Note On,2,g4,
0.105485166666667,bass,Note Off,2,g3,
0,bass,Note Off,2,g3,
0,bass,Note Off,2,g3,
0,bass,Note Off,2,g4,
0,bass,Note Off,2,g4,
0,bass,Note Off,2,g4,
0.0527425833333333,bass,Note On,2,a3,
0,bass,Note On,2,a3,
0,bass,Note On,2,a3,
0,bass,Note On,2,a4,
0,bass,Note On,2,a4,
0,bass,Note On,2,a4,
0.105485166666667,bass,Note Off,2,a3,
0,bass,Note Off,2,a3,
0,bass,Note Off,2,a3,
0,bass,Note Off,2,a4,
0,bass,Note Off,2,a4,
0,bass,Note Off,2,a4,
0.0527425833333333,bass,Note On,2,a#3,
0,bass,Note On,2,a#3,
0,bass,Note On,2,a#3,
0,bass,Note On,2,a#4,
0,bass,Note On,2,a#4,
0,bass,Note On,2,a#4,
0.0659282291666667,bass,Note Off,2,a#3,
0,bass,Note Off,2,a#3,
0,bass,Note Off,2,a#3,
0,bass,Note Off,2,a#4,
0,bass,Note Off,2,a#4,
0,bass,Note Off,2,a#4,
0.0395569375,bass,Note On,2,a3,
0,bass,Note On,2,a3,
0,bass,Note On,2,a3,
0,bass,Note On,2,a4,
0,bass,Note On,2,a4,
0,bass,Note On,2,a4,
0.0659282291666667,bass,Note Off,2,a3,
0,bass,Note Off,2,a3,
0,bass,Note Off,2,a3,
0,bass,Note Off,2,a4,
0,bass,Note Off,2,a4,
0,bass,Note Off,2,a4,
0.0395569375,bass,Note On,2,g3,
0,bass,Note On,2,g3,
0,bass,Note On,2,g3,
0,bass,Note On,2,g4,
0,bass,Note On,2,g4,
0,bass,Note On,2,g4,
0.0659282291666667,bass,Note Off,2,g3,
0,bass,Note Off,2,g3,
0,bass,Note Off,2,g3,
0,bass,Note Off,2,g4,
0,bass,Note Off,2,g4,
0,bass,Note Off,2,g4,
0.0395569375,bass,Note On,2,a3,
0,bass,Note On,2,a3,
0,bass,Note On,2,a3,
0,bass,Note On,2,a4,
0,bass,Note On,2,a4,
0,bass,Note On,2,a4,
0.105485166666667,bass,Note Off,2,a3,
0,bass,Note Off,2,a3,
0,bass,Note Off,2,a3,
0,bass,Note Off,2,a4,
0,bass,Note Off,2,a4,
0,bass,Note Off,2,a4,
0.0527425833333333,bass,Note On,2,e3,
0,bass,Note On,2,e3,
0,bass,Note On,2,e3,
0,bass,Note On,2,e4,
0,bass,Note On,2,e4,
0,bass,Note On,2,e4,
0.105485166666667,bass,Note Off,2,e3,
0,bass,Note Off,2,e3,
0,bass,Note Off,2,e3,
0,bass,Note Off,2,e4,
0,bass,Note Off,2,e4,
0,bass,Note Off,2,e4,
0.0527425833333333,bass,Note On,2,e2,
0,bass,Note On,2,e2,
0,bass,Note On,2,e2,
0,bass,Note On,2,e3,
0,bass,Note On,2,e3,
0,bass,Note On,2,e3,
0.210970333333333,bass,Note Off,2,e2,
0,bass,Note Off,2,e2,
0,bass,Note Off,2,e2,
0,bass,Note Off,2,e3,
0,bass,Note Off,2,e3,
0,bass,Note Off,2,e3,
0.105485166666667,bass,Note On,2,e3,
0,bass,Note On,2,e3,
0,bass,Note On,2,e3,
0,bass,Note On,2,e4,
0,bass,Note On,2,e4,
0,bass,Note On,2,e4,
0.632911,bass,Note Off,2,e3,
0,bass,Note Off,2,e3,
0,bass,Note Off,2,e3,
0,bass,Note Off,2,e4,
0,bass,Note Off,2,e4,
0,bass,Note Off,2,e4,
0.3164555,bass,Note On,2,d3,
0,bass,Note On,2,d3,
0,bass,Note On,2,d3,
0,bass,Note On,2,d4,
0,bass,Note On,2,d4,
0,bass,Note On,2,d4,
0.210970333333333,bass,Note Off,2,d3,
0,bass,Note Off,2,d3,
0,bass,Note Off,2,d3,
0,bass,Note Off,2,d4,
0,bass,Note Off,2,d4,
0,bass,Note Off,2,d4,
0.105485166666667,bass,Note On,2,d3,
0,bass,Note On,2,d3,
0,bass,Note On,2,d3,
0,bass,Note On,2,d4,
0,bass,Note On,2,d4,
0,bass,Note On,2,d4,
0.632911,bass,Note Off,2,d3,
0,bass,Note Off,2,d3,
0,bass,Note Off,2,d3,
0,bass,Note Off,2,d4,
0,bass,Note Off,2,d4,
0,bass,Note Off,2,d4,
0.3164555,bass,Note On,2,c#3,
0,bass,Note On,2,c#3,
0,bass,Note On,2,c#3,
0,bass,Note On,2,c#4,
0,bass,Note On,2,c#4,
0,bass,Note On,2,c#4,
0.210970333333333,bass,Note Off,2,c#3,
0,bass,Note Off,2,c#3,
0,bass,Note Off,2,c#3,
0,bass,Note Off,2,c#4,
0,bass,Note Off,2,c#4,
0,bass,Note Off,2,c#4,
0.105485166666667,bass,Note On,2,c#3,
0,bass,Note On,2,c#3,
0,bass,Note On,2,c#3,
0,bass,Note On,2,c#4,
0,bass,Note On,2,c#4,
0,bass,Note On,2,c#4,
0.632911,bass,Note Off,2,c#3,
0,bass,Note Off,2,c#3,
0,bass,Note Off,2,c#3,
0,bass,Note Off,2,c#4,
0,bass,Note Off,2,c#4,
0,bass,Note Off,2,c#4,
1.96466122916667,bass,Note On,2,a3,
0,bass,Note On,2,a2,
0.461497604166667,bass,Note Off,2,a3,
0,bass,Note Off,2,a2,
0.0329641145833333,bass,Note On,2,e3,
0,bass,Note On,2,e2,
0.290084208333333,bass,Note On,2,b3,
0,bass,Note On,2,b2,
0.079113875,bass,Note Off,2,e3,
0,bass,Note Off,2,e2,
0.37579090625,bass,Note Off,2,b3,
0,bass,Note Off,2,b2,
0.15822775,bass,Note On,2,a3,
0,bass,Note On,2,a2,
0.362605260416667,bass,Note Off,2,a3,
0,bass,Note Off,2,a2,
0,bass,Note On,2,b3,
0,bass,Note On,2,b2,
0.184599041666667,bass,Note Off,2,b3,
0,bass,Note Off,2,b2,
0.586761239583333,bass,Note On,2,a3,
0,bass,Note On,2,a2,
0.461497604166667,bass,Note Off,2,a3,
0,bass,Note Off,2,a2,
0.0329641145833333,bass,Note On,2,e3,
0,bass,Note On,2,e2,
0.290084208333333,bass,Note On,2,b3,
0,bass,Note On,2,b2,
0.079113875,bass,Note Off,2,e3,
0,bass,Note Off,2,e2,
0.37579090625,bass,Note Off,2,b3,
0,bass,Note Off,2,b2,
0.15822775,bass,Note On,2,a3,
0,bass,Note On,2,a2,
0.362605260416667,bass,Note Off,2,a3,
0,bass,Note Off,2,a2,
0,bass,Note On,2,b3,
0,bass,Note On,2,b2,
0.184599041666667,bass,Note Off,2,b3,
0,bass,Note Off,2,b2,
0.553797125,bass,Note On,2,g3,
0.309862677083333,bass,Note Off,2,g3,
0.13844928125,bass,Note On,2,d3,
0.402162197916667,bass,Note On,2,a2,
0.01977846875,bass,Note Off,2,d3,
0.507647364583333,bass,Note Off,2,a2,
0,bass,Note On,2,g2,
0.342826791666667,bass,Note Off,2,g2,
0.00659282291666667,bass,Note On,2,a2,
0.626318177083333,bass,Note Off,2,a2,
0.17800621875,bass,Note On,2,g3,
0.309862677083333,bass,Note Off,2,g3,
0.13844928125,bass,Note On,2,d3,
0.402162197916667,bass,Note On,2,a2,
0.01977846875,bass,Note Off,2,d3,
0.507647364583333,bass,Note Off,2,a2,
0,bass,Note On,2,g2,
0.342826791666667,bass,Note Off,2,g2,
0.00659282291666667,bass,Note On,2,a2,
0.45490478125,bass,Note On,2,a2,
0.171413395833333,bass,Note Off,2,a2,
0,bass,Note Off,2,a2,
0.210970333333333,bass,Note On,2,a3,
0,bass,Note On,2,a2,
0.461497604166667,bass,Note Off,2,a3,
0,bass,Note Off,2,a2,
0.0329641145833333,bass,Note On,2,e3,
0,bass,Note On,2,e2,
0.290084208333333,bass,Note On,2,b3,
0,bass,Note On,2,b2,
0.079113875,bass,Note Off,2,e3,
0,bass,Note Off,2,e2,
0.37579090625,bass,Note Off,2,b3,
0,bass,Note Off,2,b2,
0.15822775,bass,Note On,2,a3,
0,bass,Note On,2,a2,
0.362605260416667,bass,Note Off,2,a3,
0,bass,Note Off,2,a2,
0,bass,Note On,2,b3,
0,bass,Note On,2,b2,
0.184599041666667,bass,Note Off,2,b3,
0,bass,Note Off,2,b2,
0.586761239583333,bass,Note On,2,a3,
0,bass,Note On,2,a2,
0.461497604166667,bass,Note Off,2,a3,
0,bass,Note Off,2,a2,
0.0329641145833333,bass,Note On,2,e3,
0,bass,Note On,2,e2,
0.290084208333333,bass,Note On,2,b3,
0,bass,Note On,2,b2,
0.079113875,bass,Note Off,2,e3,
0,bass,Note Off,2,e2,
0.37579090625,bass,Note Off,2,b3,
0,bass,Note Off,2,b2,
0.15822775,bass,Note On,2,a3,
0,bass,Note On,2,a2,
0.362605260416667,bass,Note Off,2,a3,
0,bass,Note Off,2,a2,
0,bass,Note On,2,b3,
0,bass,Note On,2,b2,
0.184599041666667,bass,Note Off,2,b3,
0,bass,Note Off,2,b2,
0.204377510416667,bass,Note On,2,d3,
0,bass,Note On,2,g3,
0.3164555,bass,Note Off,2,d3,
0,bass,Note Off,2,g3,
0.15822775,bass,Note On,2,d3,
0,bass,Note On,2,g3,
0.3164555,bass,Note Off,2,d3,
0,bass,Note Off,2,g3,
0.15822775,bass,Note On,2,d3,
0,bass,Note On,2,g3,
0.3164555,bass,Note Off,2,d3,
0,bass,Note Off,2,g3,
0.15822775,bass,Note On,2,d3,
0,bass,Note On,2,g3,
0.105485166666667,bass,Note Off,2,d3,
0,bass,Note Off,2,g3,
0.0527425833333333,bass,Note On,2,c#3,
0.105485166666667,bass,Note Off,2,c#3,
0.0527425833333333,bass,Note On,2,d3,
0,bass,Note On,2,g3,
0.105485166666667,bass,Note Off,2,d3,
0,bass,Note Off,2,g3,
0.0527425833333333,bass,Note On,2,d3,
0,bass,Note On,2,g3,
0.210970333333333,bass,Note Off,2,d3,
0,bass,Note Off,2,g3,
0.105485166666667,bass,Note On,2,d3,
0,bass,Note On,2,g3,
0.210970333333333,bass,Note Off,2,d3,
0,bass,Note Off,2,g3,
0.105485166666667,bass,Note On,2,a3,
0,bass,Note On,2,d4,
0,bass,Note On,2,f#4,
0.3164555,bass,Note Off,2,a3,
0,bass,Note Off,2,d4,
0,bass,Note Off,2,f#4,
0.15822775,bass,Note On,2,a3,
0,bass,Note On,2,d4,
0,bass,Note On,2,f#4,
0.3164555,bass,Note Off,2,a3,
0,bass,Note Off,2,d4,
0,bass,Note Off,2,f#4,
0.15822775,bass,Note On,2,d3,
0,bass,Note On,2,a3,
0,bass,Note On,2,d4,
1.265822,bass,Note Off,2,d3,
0,bass,Note Off,2,a3,
0,bass,Note Off,2,d4,
0.3164555,bass,Note On,2,e2,
0,bass,Note On,2,e3,
0.105485166666667,bass,Note Off,2,e2,
0,bass,Note Off,2,e3,
0.0527425833333333,bass,Note On,2,d3,
0,bass,Note On,2,d4,
0.105485166666667,bass,Note Off,2,d3,
0,bass,Note Off,2,d4,
0.0527425833333333,bass,Note On,2,c#3,
0,bass,Note On,2,c#4,
0.105485166666667,bass,Note Off,2,c#3,
0,bass,Note Off,2,c#4,
0.0527425833333333,bass,Note On,2,b2,
0,bass,Note On,2,b3,
0.105485166666667,bass,Note Off,2,b2,
0,bass,Note Off,2,b3,
0.0527425833333333,bass,Note On,2,c#3,
0,bass,Note On,2,c#4,
0.105485166666667,bass,Note Off,2,c#3,
0,bass,Note Off,2,c#4,
0.0527425833333333,bass,Note On,2,g2,
0,bass,Note On,2,g3,
0.210970333333333,bass,Note Off,2,g2,
0,bass,Note Off,2,g3,
0.105485166666667,bass,Note On,2,b2,
0,bass,Note On,2,b3,
0.105485166666667,bass,Note Off,2,b2,
0,bass,Note Off,2,b3,
0.0527425833333333,bass,Note On,2,a2,
0,bass,Note On,2,a3,
0.210970333333333,bass,Note Off,2,a2,
0,bass,Note Off,2,a3,
0.105485166666667,bass,Note On,2,b2,
0,bass,Note On,2,b3,
0.105485166666667,bass,Note Off,2,b2,
0,bass,Note Off,2,b3,
0.0527425833333333,bass,Note On,2,a#2,
0,bass,Note On,2,a#3,
0.210970333333333,bass,Note Off,2,a#2,
0,bass,Note Off,2,a#3,
0.105485166666667,bass,Note On,2,b2,
0,bass,Note On,2,b3,
0.105485166666667,bass,Note Off,2,b2,
0,bass,Note Off,2,b3,
0.0527425833333333,bass,Note On,2,b2,
0,bass,Note On,2,b3,
0.210970333333333,bass,Note Off,2,b2,
0,bass,Note Off,2,b3,
0.105485166666667,bass,Note On,2,e2,
0,bass,Note On,2,e3,
0.105485166666667,bass,Note Off,2,e2,
0,bass,Note Off,2,e3,
0.0527425833333333,bass,Note On,2,d3,
0,bass,Note On,2,d4,
0.105485166666667,bass,Note Off,2,d3,
0,bass,Note Off,2,d4,
0.0527425833333333,bass,Note On,2,c#3,
0,bass,Note On,2,c#4,
0.105485166666667,bass,Note Off,2,c#3,
0,bass,Note Off,2,c#4,
0.0527425833333333,bass,Note On,2,b2,
0,bass,Note On,2,b3,
0.105485166666667,bass,Note Off,2,b2,
0,bass,Note Off,2,b3,
0.0527425833333333,bass,Note On,2,c#3,
0,bass,Note On,2,c#4,
0.105485166666667,bass,Note Off,2,c#3,
0,bass,Note Off,2,c#4,
0.0527425833333333,bass,Note On,2,g2,
0,bass,Note On,2,g3,
0.210970333333333,bass,Note Off,2,g2,
0,bass,Note Off,2,g3,
0.105485166666667,bass,Note On,2,b2,
0,bass,Note On,2,b3,
0.105485166666667,bass,Note Off,2,b2,
0,bass,Note Off,2,b3,
0.0527425833333333,bass,Note On,2,a2,
0,bass,Note On,2,a3,
0.210970333333333,bass,Note Off,2,a2,
0,bass,Note Off,2,a3,
0.105485166666667,bass,Note On,2,b2,
0,bass,Note On,2,b3,
0.105485166666667,bass,Note Off,2,b2,
0,bass,Note Off,2,b3,
0.0527425833333333,bass,Note On,2,a#2,
0,bass,Note On,2,a#3,
0.210970333333333,bass,Note Off,2,a#2,
0,bass,Note Off,2,a#3,
0.105485166666667,bass,Note On,2,b2,
0,bass,Note On,2,b3,
0.105485166666667,bass,Note Off,2,b2,
0,bass,Note Off,2,b3,
0.0527425833333333,bass,Note On,2,b2,
0,bass,Note On,2,b3,
0.210970333333333,bass,Note Off,2,b2,
0,bass,Note Off,2,b3,
0.105485166666667,bass,Note On,2,e2,
0,bass,Note On,2,e3,
0.105485166666667,bass,Note Off,2,e2,
0,bass,Note Off,2,e3,
0.0527425833333333,bass,Note On,2,d3,
0,bass,Note On,2,d4,
0.105485166666667,bass,Note Off,2,d3,
0,bass,Note Off,2,d4,
0.0527425833333333,bass,Note On,2,c#3,
0,bass,Note On,2,c#4,
0.105485166666667,bass,Note Off,2,c#3,
0,bass,Note Off,2,c#4,
0.0527425833333333,bass,Note On,2,b2,
0,bass,Note On,2,b3,
0.105485166666667,bass,Note Off,2,b2,
0,bass,Note Off,2,b3,
0.0527425833333333,bass,Note On,2,c#3,
0,bass,Note On,2,c#4,
0.105485166666667,bass,Note Off,2,c#3,
0,bass,Note Off,2,c#4,
0.0527425833333333,bass,Note On,2,g2,
0,bass,Note On,2,g3,
0.210970333333333,bass,Note Off,2,g2,
0,bass,Note Off,2,g3,
0.105485166666667,bass,Note On,2,b2,
0,bass,Note On,2,b3,
0.105485166666667,bass,Note Off,2,b2,
0,bass,Note Off,2,b3,
0.0527425833333333,bass,Note On,2,a2,
0,bass,Note On,2,a3,
0.210970333333333,bass,Note Off,2,a2,
0,bass,Note Off,2,a3,
0.105485166666667,bass,Note On,2,b2,
0,bass,Note On,2,b3,
0.105485166666667,bass,Note Off,2,b2,
0,bass,Note Off,2,b3,
0.0527425833333333,bass,Note On,2,a#2,
0,bass,Note On,2,a#3,
0.210970333333333,bass,Note Off,2,a#2,
0,bass,Note Off,2,a#3,
0.105485166666667,bass,Note On,2,b2,
0,bass,Note On,2,b3,
0.105485166666667,bass,Note Off,2,b2,
0,bass,Note Off,2,b3,
0.0527425833333333,bass,Note On,2,b2,
0,bass,Note On,2,b3,
0.210970333333333,bass,Note Off,2,b2,
0,bass,Note Off,2,b3,
0.105485166666667,bass,Note On,2,e2,
0,bass,Note On,2,e3,
0.105485166666667,bass,Note Off,2,e2,
0,bass,Note Off,2,e3,
0.0527425833333333,bass,Note On,2,d3,
0,bass,Note On,2,d4,
0.105485166666667,bass,Note Off,2,d3,
0,bass,Note Off,2,d4,
0.0527425833333333,bass,Note On,2,c#3,
0,bass,Note On,2,c#4,
0.105485166666667,bass,Note Off,2,c#3,
0,bass,Note Off,2,c#4,
0.0527425833333333,bass,Note On,2,b2,
0,bass,Note On,2,b3,
0.105485166666667,bass,Note Off,2,b2,
0,bass,Note Off,2,b3,
0.0527425833333333,bass,Note On,2,c#3,
0,bass,Note On,2,c#4,
0.105485166666667,bass,Note Off,2,c#3,
0,bass,Note Off,2,c#4,
0.0527425833333333,bass,Note On,2,g2,
0,bass,Note On,2,g3,
0.210970333333333,bass,Note Off,2,g2,
0,bass,Note Off,2,g3,
0.105485166666667,bass,Note On,2,b2,
0,bass,Note On,2,b3,
0.105485166666667,bass,Note Off,2,b2,
0,bass,Note Off,2,b3,
0.0527425833333333,bass,Note On,2,a2,
0,bass,Note On,2,a3,
0.210970333333333,bass,Note Off,2,a2,
0,bass,Note Off,2,a3,
0.105485166666667,bass,Note On,2,b2,
0,bass,Note On,2,b3,
0.105485166666667,bass,Note Off,2,b2,
0,bass,Note Off,2,b3,
0.0527425833333333,bass,Note On,2,a#2,
0,bass,Note On,2,a#3,
0.210970333333333,bass,Note Off,2,a#2,
0,bass,Note Off,2,a#3,
0.105485166666667,bass,Note On,2,b2,
0,bass,Note On,2,b3,
0.105485166666667,bass,Note Off,2,b2,
0,bass,Note Off,2,b3,
0.0527425833333333,bass,Note On,2,b2,
0,bass,Note On,2,b3,
0.210970333333333,bass,Note Off,2,b2,
0,bass,Note Off,2,b3,
0.105485166666667,bass,Note On,2,a2,
0,bass,Note On,2,a3,
0.105485166666667,bass,Note Off,2,a2,
0,bass,Note Off,2,a3,
0.0527425833333333,bass,Note On,2,g3,
0,bass,Note On,2,g4,
0.105485166666667,bass,Note Off,2,g3,
0,bass,Note Off,2,g4,
0.0527425833333333,bass,Note On,2,f#3,
0,bass,Note On,2,f#4,
0.105485166666667,bass,Note Off,2,f#3,
0,bass,Note Off,2,f#4,
0.0527425833333333,bass,Note On,2,e3,
0,bass,Note On,2,e4,
0.105485166666667,bass,Note Off,2,e3,
0,bass,Note Off,2,e4,
0.0527425833333333,bass,Note On,2,f#3,
0,bass,Note On,2,f#4,
0.105485166666667,bass,Note Off,2,f#3,
0,bass,Note Off,2,f#4,
0.0527425833333333,bass,Note On,2,c3,
0,bass,Note On,2,c4,
0.210970333333333,bass,Note Off,2,c3,
0,bass,Note Off,2,c4,
0.105485166666667,bass,Note On,2,e3,
0,bass,Note On,2,e4,
0.105485166666667,bass,Note Off,2,e3,
0,bass,Note Off,2,e4,
0.0527425833333333,bass,Note On,2,d3,
0,bass,Note On,2,d4,
0.210970333333333,bass,Note Off,2,d3,
0,bass,Note Off,2,d4,
0.105485166666667,bass,Note On,2,e3,
0,bass,Note On,2,e4,
0.105485166666667,bass,Note Off,2,e3,
0,bass,Note Off,2,e4,
0.0527425833333333,bass,Note On,2,d#3,
0,bass,Note On,2,d#4,
0.210970333333333,bass,Note Off,2,d#3,
0,bass,Note Off,2,d#4,
0.105485166666667,bass,Note On,2,e3,
0,bass,Note On,2,e4,
0.105485166666667,bass,Note Off,2,e3,
0,bass,Note Off,2,e4,
0.0527425833333333,bass,Note On,2,e3,
0,bass,Note On,2,e4,
0.210970333333333,bass,Note Off,2,e3,
0,bass,Note Off,2,e4,
0.105485166666667,bass,Note On,2,a2,
0,bass,Note On,2,a3,
0.105485166666667,bass,Note Off,2,a2,
0,bass,Note Off,2,a3,
0.0527425833333333,bass,Note On,2,g3,
0,bass,Note On,2,g4,
0.105485166666667,bass,Note Off,2,g3,
0,bass,Note Off,2,g4,
0.0527425833333333,bass,Note On,2,f#3,
0,bass,Note On,2,f#4,
0.105485166666667,bass,Note Off,2,f#3,
0,bass,Note Off,2,f#4,
0.0527425833333333,bass,Note On,2,e3,
0,bass,Note On,2,e4,
0.105485166666667,bass,Note Off,2,e3,
0,bass,Note Off,2,e4,
0.0527425833333333,bass,Note On,2,f#3,
0,bass,Note On,2,f#4,
0.105485166666667,bass,Note Off,2,f#3,
0,bass,Note Off,2,f#4,
0.0527425833333333,bass,Note On,2,c3,
0,bass,Note On,2,c4,
0.210970333333333,bass,Note Off,2,c3,
0,bass,Note Off,2,c4,
0.105485166666667,bass,Note On,2,e3,
0,bass,Note On,2,e4,
0.105485166666667,bass,Note Off,2,e3,
0,bass,Note Off,2,e4,
0.0527425833333333,bass,Note On,2,d3,
0,bass,Note On,2,d4,
0.210970333333333,bass,Note Off,2,d3,
0,bass,Note Off,2,d4,
0.105485166666667,bass,Note On,2,e3,
0,bass,Note On,2,e4,
0.105485166666667,bass,Note Off,2,e3,
0,bass,Note Off,2,e4,
0.0527425833333333,bass,Note On,2,d#3,
0,bass,Note On,2,d#4,
0.210970333333333,bass,Note Off,2,d#3,
0,bass,Note Off,2,d#4,
0.105485166666667,bass,Note On,2,e3,
0,bass,Note On,2,e4,
0.105485166666667,bass,Note Off,2,e3,
0,bass,Note Off,2,e4,
0.0527425833333333,bass,Note On,2,e3,
0,bass,Note On,2,e4,
0.210970333333333,bass,Note Off,2,e3,
0,bass,Note Off,2,e4,
0.105485166666667,bass,Note On,2,e2,
0,bass,Note On,2,e3,
0.105485166666667,bass,Note Off,2,e2,
0,bass,Note Off,2,e3,
0.0527425833333333,bass,Note On,2,d3,
0,bass,Note On,2,d4,
0.105485166666667,bass,Note Off,2,d3,
0,bass,Note Off,2,d4,
0.0527425833333333,bass,Note On,2,c#3,
0,bass,Note On,2,c#4,
0.105485166666667,bass,Note Off,2,c#3,
0,bass,Note Off,2,c#4,
0.0527425833333333,bass,Note On,2,b2,
0,bass,Note On,2,b3,
0.105485166666667,bass,Note Off,2,b2,
0,bass,Note Off,2,b3,
0.0527425833333333,bass,Note On,2,c#3,
0,bass,Note On,2,c#4,
0.105485166666667,bass,Note Off,2,c#3,
0,bass,Note Off,2,c#4,
0.0527425833333333,bass,Note On,2,g2,
0,bass,Note On,2,g3,
0.210970333333333,bass,Note Off,2,g2,
0,bass,Note Off,2,g3,
0.105485166666667,bass,Note On,2,b2,
0,bass,Note On,2,b3,
0.105485166666667,bass,Note Off,2,b2,
0,bass,Note Off,2,b3,
0.0527425833333333,bass,Note On,2,a2,
0,bass,Note On,2,a3,
0.210970333333333,bass,Note Off,2,a2,
0,bass,Note Off,2,a3,
0.105485166666667,bass,Note On,2,b2,
0,bass,Note On,2,b3,
0.105485166666667,bass,Note Off,2,b2,
0,bass,Note Off,2,b3,
0.0527425833333333,bass,Note On,2,a#2,
0,bass,Note On,2,a#3,
0.210970333333333,bass,Note Off,2,a#2,
0,bass,Note Off,2,a#3,
0.105485166666667,bass,Note On,2,b2,
0,bass,Note On,2,b3,
0.105485166666667,bass,Note Off,2,b2,
0,bass,Note Off,2,b3,
0.0527425833333333,bass,Note On,2,b2,
0,bass,Note On,2,b3,
0.210970333333333,bass,Note Off,2,b2,
0,bass,Note Off,2,b3,
0.105485166666667,bass,Note On,2,e2,
0,bass,Note On,2,e3,
0.105485166666667,bass,Note Off,2,e2,
0,bass,Note Off,2,e3,
0.0527425833333333,bass,Note On,2,d3,
0,bass,Note On,2,d4,
0.105485166666667,bass,Note Off,2,d3,
0,bass,Note Off,2,d4,
0.0527425833333333,bass,Note On,2,c#3,
0,bass,Note On,2,c#4,
0.105485166666667,bass,Note Off,2,c#3,
0,bass,Note Off,2,c#4,
0.0527425833333333,bass,Note On,2,b2,
0,bass,Note On,2,b3,
0.105485166666667,bass,Note Off,2,b2,
0,bass,Note Off,2,b3,
0.0527425833333333,bass,Note On,2,c#3,
0,bass,Note On,2,c#4,
0.105485166666667,bass,Note Off,2,c#3,
0,bass,Note Off,2,c#4,
0.0527425833333333,bass,Note On,2,g2,
0,bass,Note On,2,g3,
0.210970333333333,bass,Note Off,2,g2,
0,bass,Note Off,2,g3,
0.105485166666667,bass,Note On,2,b2,
0,bass,Note On,2,b3,
0.105485166666667,bass,Note Off,2,b2,
0,bass,Note Off,2,b3,
0.0527425833333333,bass,Note On,2,a2,
0,bass,Note On,2,a3,
0.210970333333333,bass,Note Off,2,a2,
0,bass,Note Off,2,a3,
0.105485166666667,bass,Note On,2,b2,
0,bass,Note On,2,b3,
0.105485166666667,bass,Note Off,2,b2,
0,bass,Note Off,2,b3,
0.0527425833333333,bass,Note On,2,a#2,
0,bass,Note On,2,a#3,
0.210970333333333,bass,Note Off,2,a#2,
0,bass,Note Off,2,a#3,
0.105485166666667,bass,Note On,2,b2,
0,bass,Note On,2,b3,
0.105485166666667,bass,Note Off,2,b2,
0,bass,Note Off,2,b3,
0.0527425833333333,bass,Note On,2,b2,
0,bass,Note On,2,b3,
0.210970333333333,bass,Note Off,2,b2,
0,bass,Note Off,2,b3,
0.487868895833333,bass,Note On,2,a3,
0,bass,Note On,2,a2,
0.461497604166667,bass,Note Off,2,a3,
0,bass,Note Off,2,a2,
0.0329641145833333,bass,Note On,2,e3,
0,bass,Note On,2,e2,
0.290084208333333,bass,Note On,2,b3,
0,bass,Note On,2,b2,
0.079113875,bass,Note Off,2,e3,
0,bass,Note Off,2,e2,
0.37579090625,bass,Note Off,2,b3,
0,bass,Note Off,2,b2,
0.15822775,bass,Note On,2,a3,
0,bass,Note On,2,a2,
0.362605260416667,bass,Note Off,2,a3,
0,bass,Note Off,2,a2,
0,bass,Note On,2,b3,
0,bass,Note On,2,b2,
0.184599041666667,bass,Note Off,2,b3,
0,bass,Note Off,2,b2,
0.586761239583333,bass,Note On,2,a3,
0,bass,Note On,2,a2,
0.461497604166667,bass,Note Off,2,a3,
0,bass,Note Off,2,a2,
0.0329641145833333,bass,Note On,2,e3,
0,bass,Note On,2,e2,
0.290084208333333,bass,Note On,2,b3,
0,bass,Note On,2,b2,
0.079113875,bass,Note Off,2,e3,
0,bass,Note Off,2,e2,
0.37579090625,bass,Note Off,2,b3,
0,bass,Note Off,2,b2,
0.15822775,bass,Note On,2,a3,
0,bass,Note On,2,a2,
0.362605260416667,bass,Note Off,2,a3,
0,bass,Note Off,2,a2,
0,bass,Note On,2,b3,
0,bass,Note On,2,b2,
0.184599041666667,bass,Note Off,2,b3,
0,bass,Note Off,2,b2,
0.553797125,bass,Note On,2,g3,
0.309862677083333,bass,Note Off,2,g3,
0.13844928125,bass,Note On,2,d3,
0.402162197916667,bass,Note On,2,a2,
0.01977846875,bass,Note Off,2,d3,
0.507647364583333,bass,Note Off,2,a2,
0,bass,Note On,2,g2,
0.342826791666667,bass,Note Off,2,g2,
0.00659282291666667,bass,Note On,2,a2,
0.45490478125,bass,Note On,2,a2,
0.171413395833333,bass,Note Off,2,a2,
0,bass,Note Off,2,a2,
0.17800621875,bass,Note On,2,g3,
0.309862677083333,bass,Note Off,2,g3,
0.13844928125,bass,Note On,2,d3,
0.402162197916667,bass,Note On,2,a2,
0.01977846875,bass,Note Off,2,d3,
0.507647364583333,bass,Note Off,2,a2,
0,bass,Note On,2,g2,
0.342826791666667,bass,Note Off,2,g2,
0.00659282291666667,bass,Note On,2,a2,
0.45490478125,bass,Note On,2,a2,
0.171413395833333,bass,Note Off,2,a2,
0,bass,Note Off,2,a2,
0.210970333333333,bass,Note On,2,a3,
0,bass,Note On,2,a2,
0.461497604166667,bass,Note Off,2,a3,
0,bass,Note Off,2,a2,
0.0329641145833333,bass,Note On,2,e3,
0,bass,Note On,2,e2,
0.290084208333333,bass,Note On,2,b3,
0,bass,Note On,2,b2,
0.079113875,bass,Note Off,2,e3,
0,bass,Note Off,2,e2,
0.37579090625,bass,Note Off,2,b3,
0,bass,Note Off,2,b2,
0.15822775,bass,Note On,2,a3,
0,bass,Note On,2,a2,
0.362605260416667,bass,Note Off,2,a3,
0,bass,Note Off,2,a2,
0,bass,Note On,2,b3,
0,bass,Note On,2,b2,
0.184599041666667,bass,Note Off,2,b3,
0,bass,Note Off,2,b2,
0.586761239583333,bass,Note On,2,a3,
0,bass,Note On,2,a2,
0.461497604166667,bass,Note Off,2,a3,
0,bass,Note Off,2,a2,
0.0329641145833333,bass,Note On,2,e3,
0,bass,Note On,2,e2,
0.290084208333333,bass,Note On,2,b3,
0,bass,Note On,2,b2,
0.079113875,bass,Note Off,2,e3,
0,bass,Note Off,2,e2,
0.37579090625,bass,Note Off,2,b3,
0,bass,Note Off,2,b2,
0.15822775,bass,Note On,2,a3,
0,bass,Note On,2,a2,
0.362605260416667,bass,Note Off,2,a3,
0,bass,Note Off,2,a2,
0,bass,Note On,2,b3,
0,bass,Note On,2,b2,
0.184599041666667,bass,Note Off,2,b3,
0,bass,Note Off,2,b2,
0.204377510416667,bass,Note On,2,d3,
1.265822,bass,Note Off,2,d3,
0.632911,bass,Note On,2,d3,
0.105485166666667,bass,Note Off,2,d3,
0.0527425833333333,bass,Note On,2,d3,
0.105485166666667,bass,Note Off,2,d3,
0.0527425833333333,bass,Note On,2,g2,
0.210970333333333,bass,Note Off,2,g2,
0.105485166666667,bass,Note On,2,d3,
0,bass,Note On,2,d3,
1.69435548958333,bass,Note Off,2,d3,
0,bass,Note Off,2,d3,
5.90057651041667,bass,Note On,2,e2,
0,bass,Note On,2,e2,
0,bass,Note On,2,e2,
0,bass,Note On,2,e3,
0,bass,Note On,2,e3,
0,bass,Note On,2,e3,
0.210970333333333,bass,Note Off,2,e2,
0,bass,Note Off,2,e2,
0,bass,Note Off,2,e2,
0,bass,Note Off,2,e3,
0,bass,Note Off,2,e3,
0,bass,Note Off,2,e3,
0.105485166666667,bass,Note On,2,e3,
0,bass,Note On,2,e3,
0,bass,Note On,2,e3,
0,bass,Note On,2,e4,
0,bass,Note On,2,e4,
0,bass,Note On,2,e4,
0.632911,bass,Note Off,2,e3,
0,bass,Note Off,2,e3,
0,bass,Note Off,2,e3,
0,bass,Note Off,2,e4,
0,bass,Note Off,2,e4,
0,bass,Note Off,2,e4,
0.3164555,bass,Note On,2,d3,
0,bass,Note On,2,d3,
0,bass,Note On,2,d3,
0,bass,Note On,2,d4,
0,bass,Note On,2,d4,
0,bass,Note On,2,d4,
0.210970333333333,bass,Note Off,2,d3,
0,bass,Note Off,2,d3,
0,bass,Note Off,2,d3,
0,bass,Note Off,2,d4,
0,bass,Note Off,2,d4,
0,bass,Note Off,2,d4,
0.105485166666667,bass,Note On,2,d3,
0,bass,Note On,2,d3,
0,bass,Note On,2,d3,
0,bass,Note On,2,d4,
0,bass,Note On,2,d4,
0,bass,Note On,2,d4,
0.632911,bass,Note Off,2,d3,
0,bass,Note Off,2,d3,
0,bass,Note Off,2,d3,
0,bass,Note Off,2,d4,
0,bass,Note Off,2,d4,
0,bass,Note Off,2,d4,
0.3164555,bass,Note On,2,c#3,
0,bass,Note On,2,c#3,
0,bass,Note On,2,c#3,
0,bass,Note On,2,c#4,
0,bass,Note On,2,c#4,
0,bass,Note On,2,c#4,
0.210970333333333,bass,Note Off,2,c#3,
0,bass,Note Off,2,c#3,
0,bass,Note Off,2,c#3,
0,bass,Note Off,2,c#4,
0,bass,Note Off,2,c#4,
0,bass,Note Off,2,c#4,
0.105485166666667,bass,Note On,2,c#3,
0,bass,Note On,2,c#3,
0,bass,Note On,2,c#3,
0,bass,Note On,2,c#4,
0,bass,Note On,2,c#4,
0,bass,Note On,2,c#4,
0.632911,bass,Note Off,2,c#3,
0,bass,Note Off,2,c#3,
0,bass,Note Off,2,c#3,
0,bass,Note Off,2,c#4,
0,bass,Note Off,2,c#4,
0,bass,Note Off,2,c#4,
0.3164555,bass,Note On,2,b2,
0,bass,Note On,2,b2,
0,bass,Note On,2,b2,
0,bass,Note On,2,b3,
0,bass,Note On,2,b3,
0,bass,Note On,2,b3,
0.210970333333333,bass,Note Off,2,b2,
0,bass,Note Off,2,b2,
0,bass,Note Off,2,b2,
0,bass,Note Off,2,b3,
0,bass,Note Off,2,b3,
0,bass,Note Off,2,b3,
0.105485166666667,bass,Note On,2,g3,
0,bass,Note On,2,g3,
0,bass,Note On,2,g3,
0,bass,Note On,2,g4,
0,bass,Note On,2,g4,
0,bass,Note On,2,g4,
0.105485166666667,bass,Note Off,2,g3,
0,bass,Note Off,2,g3,
0,bass,Note Off,2,g3,
0,bass,Note Off,2,g4,
0,bass,Note Off,2,g4,
0,bass,Note Off,2,g4,
0.0527425833333333,bass,Note On,2,a3,
0,bass,Note On,2,a3,
0,bass,Note On,2,a3,
0,bass,Note On,2,a4,
0,bass,Note On,2,a4,
0,bass,Note On,2,a4,
0.105485166666667,bass,Note Off,2,a3,
0,bass,Note Off,2,a3,
0,bass,Note Off,2,a3,
0,bass,Note Off,2,a4,
0,bass,Note Off,2,a4,
0,bass,Note Off,2,a4,
0.0527425833333333,bass,Note On,2,a#3,
0,bass,Note On,2,a#3,
0,bass,Note On,2,a#3,
0,bass,Note On,2,a#4,
0,bass,Note On,2,a#4,
0,bass,Note On,2,a#4,
0.0659282291666667,bass,Note Off,2,a#3,
0,bass,Note Off,2,a#3,
0,bass,Note Off,2,a#3,
0,bass,Note Off,2,a#4,
0,bass,Note Off,2,a#4,
0,bass,Note Off,2,a#4,
0.0395569375,bass,Note On,2,a3,
0,bass,Note On,2,a3,
0,bass,Note On,2,a3,
0,bass,Note On,2,a4,
0,bass,Note On,2,a4,
0,bass,Note On,2,a4,
0.0659282291666667,bass,Note Off,2,a3,
0,bass,Note Off,2,a3,
0,bass,Note Off,2,a3,
0,bass,Note Off,2,a4,
0,bass,Note Off,2,a4,
0,bass,Note Off,2,a4,
0.0395569375,bass,Note On,2,g3,
0,bass,Note On,2,g3,
0,bass,Note On,2,g3,
0,bass,Note On,2,g4,
0,bass,Note On,2,g4,
0,bass,Note On,2,g4,
0.0659282291666667,bass,Note Off,2,g3,
0,bass,Note Off,2,g3,
0,bass,Note Off,2,g3,
0,bass,Note Off,2,g4,
0,bass,Note Off,2,g4,
0,bass,Note Off,2,g4,
0.0395569375,bass,Note On,2,a3,
0,bass,Note On,2,a3,
0,bass,Note On,2,a3,
0,bass,Note On,2,a4,
0,bass,Note On,2,a4,
0,bass,Note On,2,a4,
0.105485166666667,bass,Note Off,2,a3,
0,bass,Note Off,2,a3,
0,bass,Note Off,2,a3,
0,bass,Note Off,2,a4,
0,bass,Note Off,2,a4,
0,bass,Note Off,2,a4,
0.0527425833333333,bass,Note On,2,e3,
0,bass,Note On,2,e3,
0,bass,Note On,2,e3,
0,bass,Note On,2,e4,
0,bass,Note On,2,e4,
0,bass,Note On,2,e4,
0.105485166666667,bass,Note Off,2,e3,
0,bass,Note Off,2,e3,
0,bass,Note Off,2,e3,
0,bass,Note Off,2,e4,
0,bass,Note Off,2,e4,
0,bass,Note Off,2,e4,
0.0527425833333333,bass,Note On,2,e2,
0,bass,Note On,2,e2,
0,bass,Note On,2,e2,
0,bass,Note On,2,e3,
0,bass,Note On,2,e3,
0,bass,Note On,2,e3,
0.210970333333333,bass,Note Off,2,e2,
0,bass,Note Off,2,e2,
0,bass,Note Off,2,e2,
0,bass,Note Off,2,e3,
0,bass,Note Off,2,e3,
0,bass,Note Off,2,e3,
0.105485166666667,bass,Note On,2,e3,
0,bass,Note On,2,e3,
0,bass,Note On,2,e3,
0,bass,Note On,2,e4,
0,bass,Note On,2,e4,
0,bass,Note On,2,e4,
0.632911,bass,Note Off,2,e3,
0,bass,Note Off,2,e3,
0,bass,Note Off,2,e3,
0,bass,Note Off,2,e4,
0,bass,Note Off,2,e4,
0,bass,Note Off,2,e4,
0.3164555,bass,Note On,2,d3,
0,bass,Note On,2,d3,
0,bass,Note On,2,d3,
0,bass,Note On,2,d4,
0,bass,Note On,2,d4,
0,bass,Note On,2,d4,
0.210970333333333,bass,Note Off,2,d3,
0,bass,Note Off,2,d3,
0,bass,Note Off,2,d3,
0,bass,Note Off,2,d4,
0,bass,Note Off,2,d4,
0,bass,Note Off,2,d4,
0.105485166666667,bass,Note On,2,d3,
0,bass,Note On,2,d3,
0,bass,Note On,2,d3,
0,bass,Note On,2,d4,
0,bass,Note On,2,d4,
0,bass,Note On,2,d4,
0.632911,bass,Note Off,2,d3,
0,bass,Note Off,2,d3,
0,bass,Note Off,2,d3,
0,bass,Note Off,2,d4,
0,bass,Note Off,2,d4,
0,bass,Note Off,2,d4,
0.3164555,bass,Note On,2,c#3,
0,bass,Note On,2,c#3,
0,bass,Note On,2,c#3,
0,bass,Note On,2,c#4,
0,bass,Note On,2,c#4,
0,bass,Note On,2,c#4,
0.210970333333333,bass,Note Off,2,c#3,
0,bass,Note Off,2,c#3,
0,bass,Note Off,2,c#3,
0,bass,Note Off,2,c#4,
0,bass,Note Off,2,c#4,
0,bass,Note Off,2,c#4,
0.105485166666667,bass,Note On,2,c#3,
0,bass,Note On,2,c#3,
0,bass,Note On,2,c#3,
0,bass,Note On,2,c#4,
0,bass,Note On,2,c#4,
0,bass,Note On,2,c#4,
0.632911,bass,Note Off,2,c#3,
0,bass,Note Off,2,c#3,
0,bass,Note Off,2,c#3,
0,bass,Note Off,2,c#4,
0,bass,Note Off,2,c#4,
0,bass,Note Off,2,c#4,
0.3164555,bass,Note On,2,d3,
0,bass,Note On,2,d3,
0,bass,Note On,2,d3,
0.210970333333333,bass,Note Off,2,d3,
0,bass,Note Off,2,d3,
0,bass,Note Off,2,d3,
0.105485166666667,bass,Note On,2,d4,
0.210970333333333,bass,Note Off,2,d4,
0.105485166666667,bass,Note On,2,d3,
0,bass,Note On,2,d3,
0,bass,Note On,2,d3,
0.210970333333333,bass,Note Off,2,d3,
0,bass,Note Off,2,d3,
0,bass,Note Off,2,d3,
0.105485166666667,bass,Note On,2,d4,
0.210970333333333,bass,Note Off,2,d4,
0.105485166666667,bass,Note On,2,e2,
0,bass,Note On,2,e2,
0,bass,Note On,2,e2,
0,bass,Note On,2,e3,
0,bass,Note On,2,e3,
0,bass,Note On,2,e3,
0.210970333333333,bass,Note Off,2,e2,
0,bass,Note Off,2,e2,
0,bass,Note Off,2,e2,
0,bass,Note Off,2,e3,
0,bass,Note Off,2,e3,
0,bass,Note Off,2,e3,
0.105485166666667,bass,Note On,2,e3,
0,bass,Note On,2,e3,
0,bass,Note On,2,e3,
0,bass,Note On,2,e4,
0,bass,Note On,2,e4,
0,bass,Note On,2,e4,
0.632911,bass,Note Off,2,e3,
0,bass,Note Off,2,e3,
0,bass,Note Off,2,e3,
0,bass,Note Off,2,e4,
0,bass,Note Off,2,e4,
0,bass,Note Off,2,e4,
0.3164555,bass,Note On,2,d3,
0,bass,Note On,2,d3,
0,bass,Note On,2,d3,
0,bass,Note On,2,d4,
0,bass,Note On,2,d4,
0,bass,Note On,2,d4,
0.210970333333333,bass,Note Off,2,d3,
0,bass,Note Off,2,d3,
0,bass,Note Off,2,d3,
0,bass,Note Off,2,d4,
0,bass,Note Off,2,d4,
0,bass,Note Off,2,d4,
0.105485166666667,bass,Note On,2,d3,
0,bass,Note On,2,d3,
0,bass,Note On,2,d3,
0,bass,Note On,2,d4,
0,bass,Note On,2,d4,
0,bass,Note On,2,d4,
0.632911,bass,Note Off,2,d3,
0,bass,Note Off,2,d3,
0,bass,Note Off,2,d3,
0,bass,Note Off,2,d4,
0,bass,Note Off,2,d4,
0,bass,Note Off,2,d4,
0.3164555,bass,Note On,2,c#3,
0,bass,Note On,2,c#3,
0,bass,Note On,2,c#3,
0,bass,Note On,2,c#4,
0,bass,Note On,2,c#4,
0,bass,Note On,2,c#4,
0.210970333333333,bass,Note Off,2,c#3,
0,bass,Note Off,2,c#3,
0,bass,Note Off,2,c#3,
0,bass,Note Off,2,c#4,
0,bass,Note Off,2,c#4,
0,bass,Note Off,2,c#4,
0.105485166666667,bass,Note On,2,c#3,
0,bass,Note On,2,c#3,
0,bass,Note On,2,c#3,
0,bass,Note On,2,c#4,
0,bass,Note On,2,c#4,
0,bass,Note On,2,c#4,
0.632911,bass,Note Off,2,c#3,
0,bass,Note Off,2,c#3,
0,bass,Note Off,2,c#3,
0,bass,Note Off,2,c#4,
0,bass,Note Off,2,c#4,
0,bass,Note Off,2,c#4,
0.3164555,bass,Note On,2,b2,
0,bass,Note On,2,b2,
0,bass,Note On,2,b2,
0,bass,Note On,2,b3,
0,bass,Note On,2,b3,
0,bass,Note On,2,b3,
0.210970333333333,bass,Note Off,2,b2,
0,bass,Note Off,2,b2,
0,bass,Note Off,2,b2,
0,bass,Note Off,2,b3,
0,bass,Note Off,2,b3,
0,bass,Note Off,2,b3,
0.105485166666667,bass,Note On,2,g3,
0,bass,Note On,2,g3,
0,bass,Note On,2,g3,
0,bass,Note On,2,g4,
0,bass,Note On,2,g4,
0,bass,Note On,2,g4,
0.105485166666667,bass,Note Off,2,g3,
0,bass,Note Off,2,g3,
0,bass,Note Off,2,g3,
0,bass,Note Off,2,g4,
0,bass,Note Off,2,g4,
0,bass,Note Off,2,g4,
0.0527425833333333,bass,Note On,2,a3,
0,bass,Note On,2,a3,
0,bass,Note On,2,a3,
0,bass,Note On,2,a4,
0,bass,Note On,2,a4,
0,bass,Note On,2,a4,
0.105485166666667,bass,Note Off,2,a3,
0,bass,Note Off,2,a3,
0,bass,Note Off,2,a3,
0,bass,Note Off,2,a4,
0,bass,Note Off,2,a4,
0,bass,Note Off,2,a4,
0.0527425833333333,bass,Note On,2,a#3,
0,bass,Note On,2,a#3,
0,bass,Note On,2,a#3,
0,bass,Note On,2,a#4,
0,bass,Note On,2,a#4,
0,bass,Note On,2,a#4,
0.0659282291666667,bass,Note Off,2,a#3,
0,bass,Note Off,2,a#3,
0,bass,Note Off,2,a#3,
0,bass,Note Off,2,a#4,
0,bass,Note Off,2,a#4,
0,bass,Note Off,2,a#4,
0.0395569375,bass,Note On,2,a3,
0,bass,Note On,2,a3,
0,bass,Note On,2,a3,
0,bass,Note On,2,a4,
0,bass,Note On,2,a4,
0,bass,Note On,2,a4,
0.0659282291666667,bass,Note Off,2,a3,
0,bass,Note Off,2,a3,
0,bass,Note Off,2,a3,
0,bass,Note Off,2,a4,
0,bass,Note Off,2,a4,
0,bass,Note Off,2,a4,
0.0395569375,bass,Note On,2,g3,
0,bass,Note On,2,g3,
0,bass,Note On,2,g3,
0,bass,Note On,2,g4,
0,bass,Note On,2,g4,
0,bass,Note On,2,g4,
0.0659282291666667,bass,Note Off,2,g3,
0,bass,Note Off,2,g3,
0,bass,Note Off,2,g3,
0,bass,Note Off,2,g4,
0,bass,Note Off,2,g4,
0,bass,Note Off,2,g4,
0.0395569375,bass,Note On,2,a3,
0,bass,Note On,2,a3,
0,bass,Note On,2,a3,
0,bass,Note On,2,a4,
0,bass,Note On,2,a4,
0,bass,Note On,2,a4,
0.105485166666667,bass,Note Off,2,a3,
0,bass,Note Off,2,a3,
0,bass,Note Off,2,a3,
0,bass,Note Off,2,a4,
0,bass,Note Off,2,a4,
0,bass,Note Off,2,a4,
0.0527425833333333,bass,Note On,2,e3,
0,bass,Note On,2,e3,
0,bass,Note On,2,e3,
0,bass,Note On,2,e4,
0,bass,Note On,2,e4,
0,bass,Note On,2,e4,
0.105485166666667,bass,Note Off,2,e3,
0,bass,Note Off,2,e3,
0,bass,Note Off,2,e3,
0,bass,Note Off,2,e4,
0,bass,Note Off,2,e4,
0,bass,Note Off,2,e4,
0.0527425833333333,bass,Note On,2,e2,
0,bass,Note On,2,e2,
0,bass,Note On,2,e2,
0,bass,Note On,2,e3,
0,bass,Note On,2,e3,
0,bass,Note On,2,e3,
0.210970333333333,bass,Note Off,2,e2,
0,bass,Note Off,2,e2,
0,bass,Note Off,2,e2,
0,bass,Note Off,2,e3,
0,bass,Note Off,2,e3,
0,bass,Note Off,2,e3,
0.105485166666667,bass,Note On,2,e3,
0,bass,Note On,2,e3,
0,bass,Note On,2,e3,
0,bass,Note On,2,e4,
0,bass,Note On,2,e4,
0,bass,Note On,2,e4,
0.632911,bass,Note Off,2,e3,
0,bass,Note Off,2,e3,
0,bass,Note Off,2,e3,
0,bass,Note Off,2,e4,
0,bass,Note Off,2,e4,
0,bass,Note Off,2,e4,
0.3164555,bass,Note On,2,d3,
0,bass,Note On,2,d3,
0,bass,Note On,2,d3,
0,bass,Note On,2,d4,
0,bass,Note On,2,d4,
0,bass,Note On,2,d4,
0.210970333333333,bass,Note Off,2,d3,
0,bass,Note Off,2,d3,
0,bass,Note Off,2,d3,
0,bass,Note Off,2,d4,
0,bass,Note Off,2,d4,
0,bass,Note Off,2,d4,
0.105485166666667,bass,Note On,2,d3,
0,bass,Note On,2,d3,
0,bass,Note On,2,d3,
0,bass,Note On,2,d4,
0,bass,Note On,2,d4,
0,bass,Note On,2,d4,
0.632911,bass,Note Off,2,d3,
0,bass,Note Off,2,d3,
0,bass,Note Off,2,d3,
0,bass,Note Off,2,d4,
0,bass,Note Off,2,d4,
0,bass,Note Off,2,d4,
0.3164555,bass,Note On,2,c#3,
0,bass,Note On,2,c#3,
0,bass,Note On,2,c#3,
0,bass,Note On,2,c#4,
0,bass,Note On,2,c#4,
0,bass,Note On,2,c#4,
0.210970333333333,bass,Note Off,2,c#3,
0,bass,Note Off,2,c#3,
0,bass,Note Off,2,c#3,
0,bass,Note Off,2,c#4,
0,bass,Note Off,2,c#4,
0,bass,Note Off,2,c#4,
0.105485166666667,bass,Note On,2,c#3,
0,bass,Note On,2,c#3,
0,bass,Note On,2,c#3,
0,bass,Note On,2,c#4,
0,bass,Note On,2,c#4,
0,bass,Note On,2,c#4,
0.632911,bass,Note Off,2,c#3,
0,bass,Note Off,2,c#3,
0,bass,Note Off,2,c#3,
0,bass,Note Off,2,c#4,
0,bass,Note Off,2,c#4,
0,bass,Note Off,2,c#4,
0.3164555,bass,Note On,2,d3,
0,bass,Note On,2,d3,
0,bass,Note On,2,d3,
0.210970333333333,bass,Note Off,2,d3,
0,bass,Note Off,2,d3,
0,bass,Note Off,2,d3,
0.105485166666667,bass,Note On,2,d4,
0.210970333333333,bass,Note Off,2,d4,
0.105485166666667,bass,Note On,2,d3,
0,bass,Note On,2,d3,
0,bass,Note On,2,d3,
0.210970333333333,bass,Note Off,2,d3,
0,bass,Note Off,2,d3,
0,bass,Note Off,2,d3,
0.105485166666667,bass,Note On,2,d4,
0.210970333333333,bass,Note Off,2,d4,
0.105485166666667,bass,Note On,2,e2,
0,bass,Note On,2,e2,
0,bass,Note On,2,e2,
0,bass,Note On,2,e3,
0,bass,Note On,2,e3,
0,bass,Note On,2,e3,
0.210970333333333,bass,Note Off,2,e2,
0,bass,Note Off,2,e2,
0,bass,Note Off,2,e2,
0,bass,Note Off,2,e3,
0,bass,Note Off,2,e3,
0,bass,Note Off,2,e3,
0.105485166666667,bass,Note On,2,e3,
0,bass,Note On,2,e3,
0,bass,Note On,2,e3,
0,bass,Note On,2,e4,
0,bass,Note On,2,e4,
0,bass,Note On,2,e4,
0.632911,bass,Note Off,2,e3,
0,bass,Note Off,2,e3,
0,bass,Note Off,2,e3,
0,bass,Note Off,2,e4,
0,bass,Note Off,2,e4,
0,bass,Note Off,2,e4,
0.3164555,bass,Note On,2,d3,
0,bass,Note On,2,d3,
0,bass,Note On,2,d3,
0,bass,Note On,2,d4,
0,bass,Note On,2,d4,
0,bass,Note On,2,d4,
0.210970333333333,bass,Note Off,2,d3,
0,bass,Note Off,2,d3,
0,bass,Note Off,2,d3,
0,bass,Note Off,2,d4,
0,bass,Note Off,2,d4,
0,bass,Note Off,2,d4,
0.105485166666667,bass,Note On,2,d3,
0,bass,Note On,2,d3,
0,bass,Note On,2,d3,
0,bass,Note On,2,d4,
0,bass,Note On,2,d4,
0,bass,Note On,2,d4,
0.632911,bass,Note Off,2,d3,
0,bass,Note Off,2,d3,
0,bass,Note Off,2,d3,
0,bass,Note Off,2,d4,
0,bass,Note Off,2,d4,
0,bass,Note Off,2,d4,
0.3164555,bass,Note On,2,c#3,
0,bass,Note On,2,c#3,
0,bass,Note On,2,c#3,
0,bass,Note On,2,c#4,
0,bass,Note On,2,c#4,
0,bass,Note On,2,c#4,
0.210970333333333,bass,Note Off,2,c#3,
0,bass,Note Off,2,c#3,
0,bass,Note Off,2,c#3,
0,bass,Note Off,2,c#4,
0,bass,Note Off,2,c#4,
0,bass,Note Off,2,c#4,
0.105485166666667,bass,Note On,2,c#3,
0,bass,Note On,2,c#3,
0,bass,Note On,2,c#3,
0,bass,Note On,2,c#4,
0,bass,Note On,2,c#4,
0,bass,Note On,2,c#4,
0.632911,bass,Note Off,2,c#3,
0,bass,Note Off,2,c#3,
0,bass,Note Off,2,c#3,
0,bass,Note Off,2,c#4,
0,bass,Note Off,2,c#4,
0,bass,Note Off,2,c#4,
0.3164555,bass,Note On,2,b2,
0,bass,Note On,2,b2,
0,bass,Note On,2,b2,
0,bass,Note On,2,b3,
0,bass,Note On,2,b3,
0,bass,Note On,2,b3,
0.210970333333333,bass,Note Off,2,b2,
0,bass,Note Off,2,b2,
0,bass,Note Off,2,b2,
0,bass,Note Off,2,b3,
0,bass,Note Off,2,b3,
0,bass,Note Off,2,b3,
0.105485166666667,bass,Note On,2,g3,
0,bass,Note On,2,g3,
0,bass,Note On,2,g3,
0,bass,Note On,2,g4,
0,bass,Note On,2,g4,
0,bass,Note On,2,g4,
0.105485166666667,bass,Note Off,2,g3,
0,bass,Note Off,2,g3,
0,bass,Note Off,2,g3,
0,bass,Note Off,2,g4,
0,bass,Note Off,2,g4,
0,bass,Note Off,2,g4,
0.0527425833333333,bass,Note On,2,a3,
0,bass,Note On,2,a3,
0,bass,Note On,2,a3,
0,bass,Note On,2,a4,
0,bass,Note On,2,a4,
0,bass,Note On,2,a4,
0.105485166666667,bass,Note Off,2,a3,
0,bass,Note Off,2,a3,
0,bass,Note Off,2,a3,
0,bass,Note Off,2,a4,
0,bass,Note Off,2,a4,
0,bass,Note Off,2,a4,
0.0527425833333333,bass,Note On,2,a#3,
0,bass,Note On,2,a#3,
0,bass,Note On,2,a#3,
0,bass,Note On,2,a#4,
0,bass,Note On,2,a#4,
0,bass,Note On,2,a#4,
0.0659282291666667,bass,Note Off,2,a#3,
0,bass,Note Off,2,a#3,
0,bass,Note Off,2,a#3,
0,bass,Note Off,2,a#4,
0,bass,Note Off,2,a#4,
0,bass,Note Off,2,a#4,
0.0395569375,bass,Note On,2,a3,
0,bass,Note On,2,a3,
0,bass,Note On,2,a3,
0,bass,Note On,2,a4,
0,bass,Note On,2,a4,
0,bass,Note On,2,a4,
0.0659282291666667,bass,Note Off,2,a3,
0,bass,Note Off,2,a3,
0,bass,Note Off,2,a3,
0,bass,Note Off,2,a4,
0,bass,Note Off,2,a4,
0,bass,Note Off,2,a4,
0.0395569375,bass,Note On,2,g3,
0,bass,Note On,2,g3,
0,bass,Note On,2,g3,
0,bass,Note On,2,g4,
0,bass,Note On,2,g4,
0,bass,Note On,2,g4,
0.0659282291666667,bass,Note Off,2,g3,
0,bass,Note Off,2,g3,
0,bass,Note Off,2,g3,
0,bass,Note Off,2,g4,
0,bass,Note Off,2,g4,
0,bass,Note Off,2,g4,
0.0395569375,bass,Note On,2,a3,
0,bass,Note On,2,a3,
0,bass,Note On,2,a3,
0,bass,Note On,2,a4,
0,bass,Note On,2,a4,
0,bass,Note On,2,a4,
0.105485166666667,bass,Note Off,2,a3,
0,bass,Note Off,2,a3,
0,bass,Note Off,2,a3,
0,bass,Note Off,2,a4,
0,bass,Note Off,2,a4,
0,bass,Note Off,2,a4,
0.0527425833333333,bass,Note On,2,e3,
0,bass,Note On,2,e3,
0,bass,Note On,2,e3,
0,bass,Note On,2,e4,
0,bass,Note On,2,e4,
0,bass,Note On,2,e4,
0.105485166666667,bass,Note Off,2,e3,
0,bass,Note Off,2,e3,
0,bass,Note Off,2,e3,
0,bass,Note Off,2,e4,
0,bass,Note Off,2,e4,
0,bass,Note Off,2,e4,
0.0527425833333333,bass,Note On,2,e2,
0,bass,Note On,2,e2,
0,bass,Note On,2,e2,
0,bass,Note On,2,e3,
0,bass,Note On,2,e3,
0,bass,Note On,2,e3,
0.210970333333333,bass,Note Off,2,e2,
0,bass,Note Off,2,e2,
0,bass,Note Off,2,e2,
0,bass,Note Off,2,e3,
0,bass,Note Off,2,e3,
0,bass,Note Off,2,e3,
0.105485166666667,bass,Note On,2,e3,
0,bass,Note On,2,e3,
0,bass,Note On,2,e3,
0,bass,Note On,2,e4,
0,bass,Note On,2,e4,
0,bass,Note On,2,e4,
0.632911,bass,Note Off,2,e3,
0,bass,Note Off,2,e3,
0,bass,Note Off,2,e3,
0,bass,Note Off,2,e4,
0,bass,Note Off,2,e4,
0,bass,Note Off,2,e4,
0.3164555,bass,Note On,2,d3,
0,bass,Note On,2,d3,
0,bass,Note On,2,d3,
0,bass,Note On,2,d4,
0,bass,Note On,2,d4,
0,bass,Note On,2,d4,
0.210970333333333,bass,Note Off,2,d3,
0,bass,Note Off,2,d3,
0,bass,Note Off,2,d3,
0,bass,Note Off,2,d4,
0,bass,Note Off,2,d4,
0,bass,Note Off,2,d4,
0.105485166666667,bass,Note On,2,d3,
0,bass,Note On,2,d3,
0,bass,Note On,2,d3,
0,bass,Note On,2,d4,
0,bass,Note On,2,d4,
0,bass,Note On,2,d4,
0.632911,bass,Note Off,2,d3,
0,bass,Note Off,2,d3,
0,bass,Note Off,2,d3,
0,bass,Note Off,2,d4,
0,bass,Note Off,2,d4,
0,bass,Note Off,2,d4,
0.3164555,bass,Note On,2,c#3,
0,bass,Note On,2,c#3,
0,bass,Note On,2,c#3,
0,bass,Note On,2,c#4,
0,bass,Note On,2,c#4,
0,bass,Note On,2,c#4,
0.210970333333333,bass,Note Off,2,c#3,
0,bass,Note Off,2,c#3,
0,bass,Note Off,2,c#3,
0,bass,Note Off,2,c#4,
0,bass,Note Off,2,c#4,
0,bass,Note Off,2,c#4,
0.105485166666667,bass,Note On,2,c#3,
0,bass,Note On,2,c#3,
0,bass,Note On,2,c#3,
0,bass,Note On,2,c#4,
0,bass,Note On,2,c#4,
0,bass,Note On,2,c#4,
0.632911,bass,Note Off,2,c#3,
0,bass,Note Off,2,c#3,
0,bass,Note Off,2,c#3,
0,bass,Note Off,2,c#4,
0,bass,Note Off,2,c#4,
0,bass,Note Off,2,c#4,
0.3164555,bass,Note On,2,d3,
0,bass,Note On,2,d3,
0,bass,Note On,2,d3,
0.210970333333333,bass,Note Off,2,d3,
0,bass,Note Off,2,d3,
0,bass,Note Off,2,d3,
0.105485166666667,bass,Note On,2,d4,
0.210970333333333,bass,Note Off,2,d4,
0.105485166666667,bass,Note On,2,d3,
0,bass,Note On,2,d3,
0,bass,Note On,2,d3,
0.210970333333333,bass,Note Off,2,d3,
0,bass,Note Off,2,d3,
0,bass,Note Off,2,d3,
0.105485166666667,bass,Note On,2,d4,
0.210970333333333,bass,Note Off,2,d4,
0,vocal,Program Change,3,c0,
12.65822,vocal,Note On,3,e6,
0,vocal,Note On,3,e6,
0,vocal,Note On,3,e6,
0,vocal,Note On,3,e6,
0,vocal,Note On,3,e6,
0.105485166666667,vocal,Note Off,3,e6,
0,vocal,Note Off,3,e6,
0,vocal,Note Off,3,e6,
0,vocal,Note Off,3,e6,
0,vocal,Note Off,3,e6,
0.0527425833333333,vocal,Note On,3,e6,
0,vocal,Note On,3,e6,
0,vocal,Note On,3,e6,
0,vocal,Note On,3,e6,
0,vocal,Note On,3,e6,
0.210970333333333,vocal,Note Off,3,e6,
0,vocal,Note Off,3,e6,
0,vocal,Note Off,3,e6,
0,vocal,Note Off,3,e6,
0,vocal,Note Off,3,e6,
0.105485166666667,vocal,Note On,3,e6,
0,vocal,Note On,3,e6,
0,vocal,Note On,3,e6,
0,vocal,Note On,3,e6,
0,vocal,Note On,3,e6,
0.421940666666667,vocal,Note Off,3,e6,
0,vocal,Note Off,3,e6,
0,vocal,Note Off,3,e6,
0,vocal,Note Off,3,e6,
0,vocal,Note Off,3,e6,
0.527425833333333,vocal,Note On,3,d6,
0,vocal,Note On,3,d6,
0,vocal,Note On,3,d6,
0,vocal,Note On,3,d6,
0,vocal,Note On,3,d6,
0.105485166666667,vocal,Note Off,3,d6,
0,vocal,Note Off,3,d6,
0,vocal,Note Off,3,d6,
0,vocal,Note Off,3,d6,
0,vocal,Note Off,3,d6,
0.0527425833333333,vocal,Note On,3,d6,
0,vocal,Note On,3,d6,
0,vocal,Note On,3,d6,
0,vocal,Note On,3,d6,
0,vocal,Note On,3,d6,
0.105485166666667,vocal,Note Off,3,d6,
0,vocal,Note Off,3,d6,
0,vocal,Note Off,3,d6,
0,vocal,Note Off,3,d6,
0,vocal,Note Off,3,d6,
0.0527425833333333,vocal,Note On,3,d6,
0,vocal,Note On,3,d6,
0,vocal,Note On,3,d6,
0,vocal,Note On,3,d6,
0,vocal,Note On,3,d6,
0.105485166666667,vocal,Note Off,3,d6,
0,vocal,Note Off,3,d6,
0,vocal,Note Off,3,d6,
0,vocal,Note Off,3,d6,
0,vocal,Note Off,3,d6,
0.0527425833333333,vocal,Note On,3,d6,
0,vocal,Note On,3,d6,
0,vocal,Note On,3,d6,
0,vocal,Note On,3,d6,
0,vocal,Note On,3,d6,
0.421940666666667,vocal,Note Off,3,d6,
0,vocal,Note Off,3,d6,
0,vocal,Note Off,3,d6,
0,vocal,Note Off,3,d6,
0,vocal,Note Off,3,d6,
0.369198083333333,vocal,Note On,3,e6,
0,vocal,Note On,3,e6,
0,vocal,Note On,3,e6,
0,vocal,Note On,3,e6,
0,vocal,Note On,3,e6,
0.105485166666667,vocal,Note Off,3,e6,
0,vocal,Note Off,3,e6,
0,vocal,Note Off,3,e6,
0,vocal,Note Off,3,e6,
0,vocal,Note Off,3,e6,
0.0527425833333333,vocal,Note On,3,e6,
0,vocal,Note On,3,e6,
0,vocal,Note On,3,e6,
0,vocal,Note On,3,e6,
0,vocal,Note On,3,e6,
0.105485166666667,vocal,Note Off,3,e6,
0,vocal,Note Off,3,e6,
0,vocal,Note Off,3,e6,
0,vocal,Note Off,3,e6,
0,vocal,Note Off,3,e6,
0.0527425833333333,vocal,Note On,3,e6,
0,vocal,Note On,3,e6,
0,vocal,Note On,3,e6,
0,vocal,Note On,3,e6,
0,vocal,Note On,3,e6,
0.105485166666667,vocal,Note Off,3,e6,
0,vocal,Note Off,3,e6,
0,vocal,Note Off,3,e6,
0,vocal,Note Off,3,e6,
0,vocal,Note Off,3,e6,
0.0527425833333333,vocal,Note On,3,e6,
0,vocal,Note On,3,e6,
0,vocal,Note On,3,e6,
0,vocal,Note On,3,e6,
0,vocal,Note On,3,e6,
0.210970333333333,vocal,Note Off,3,e6,
0,vocal,Note Off,3,e6,
0,vocal,Note Off,3,e6,
0,vocal,Note Off,3,e6,
0,vocal,Note Off,3,e6,
0.105485166666667,vocal,Note On,3,b5,
0,vocal,Note On,3,b5,
0,vocal,Note On,3,b5,
0,vocal,Note On,3,b5,
0,vocal,Note On,3,b5,
0.210970333333333,vocal,Note Off,3,b5,
0,vocal,Note Off,3,b5,
0,vocal,Note Off,3,b5,
0,vocal,Note Off,3,b5,
0,vocal,Note Off,3,b5,
0.105485166666667,vocal,Note On,3,a5,
0,vocal,Note On,3,a5,
0,vocal,Note On,3,a5,
0,vocal,Note On,3,a5,
0,vocal,Note On,3,a5,
0.105485166666667,vocal,Note Off,3,a5,
0,vocal,Note Off,3,a5,
0,vocal,Note Off,3,a5,
0,vocal,Note Off,3,a5,
0,vocal,Note Off,3,a5,
0.0527425833333333,vocal,Note On,3,g#5,
0,vocal,Note On,3,g#5,
0,vocal,Note On,3,g#5,
0,vocal,Note On,3,g#5,
0,vocal,Note On,3,g#5,
0.105485166666667,vocal,Note Off,3,g#5,
0,vocal,Note Off,3,g#5,
0,vocal,Note Off,3,g#5,
0,vocal,Note Off,3,g#5,
0,vocal,Note Off,3,g#5,
0.0527425833333333,vocal,Note On,3,b5,
0,vocal,Note On,3,b5,
0,vocal,Note On,3,b5,
0,vocal,Note On,3,b5,
0,vocal,Note On,3,b5,
0.210970333333333,vocal,Note Off,3,b5,
0,vocal,Note Off,3,b5,
0,vocal,Note Off,3,b5,
0,vocal,Note Off,3,b5,
0,vocal,Note Off,3,b5,
0.105485166666667,vocal,Note On,3,a5,
0,vocal,Note On,3,a5,
0,vocal,Note On,3,a5,
0,vocal,Note On,3,a5,
0,vocal,Note On,3,a5,
0.210970333333333,vocal,Note Off,3,a5,
0,vocal,Note Off,3,a5,
0,vocal,Note Off,3,a5,
0,vocal,Note Off,3,a5,
0,vocal,Note Off,3,a5,
0.105485166666667,vocal,Note On,3,e5,
0,vocal,Note On,3,e5,
0,vocal,Note On,3,e5,
0,vocal,Note On,3,e5,
0,vocal,Note On,3,e5,
0.421940666666667,vocal,Note Off,3,e5,
0,vocal,Note Off,3,e5,
0,vocal,Note Off,3,e5,
0,vocal,Note Off,3,e5,
0,vocal,Note Off,3,e5,
0.210970333333333,vocal,Note On,3,d6,
0,vocal,Note On,3,d6,
0,vocal,Note On,3,d6,
0,vocal,Note On,3,d6,
0,vocal,Note On,3,d6,
0.210970333333333,vocal,Note Off,3,d6,
0,vocal,Note Off,3,d6,
0,vocal,Note Off,3,d6,
0,vocal,Note Off,3,d6,
0,vocal,Note Off,3,d6,
0.105485166666667,vocal,Note On,3,d6,
0,vocal,Note On,3,d6,
0,vocal,Note On,3,d6,
0,vocal,Note On,3,d6,
0,vocal,Note On,3,d6,
0.421940666666667,vocal,Note Off,3,d6,
0,vocal,Note Off,3,d6,
0,vocal,Note Off,3,d6,
0,vocal,Note Off,3,d6,
0,vocal,Note Off,3,d6,
0.369198083333333,vocal,Note On,3,d6,
0,vocal,Note On,3,d6,
0,vocal,Note On,3,d6,
0,vocal,Note On,3,d6,
0,vocal,Note On,3,d6,
0.105485166666667,vocal,Note Off,3,d6,
0,vocal,Note Off,3,d6,
0,vocal,Note Off,3,d6,
0,vocal,Note Off,3,d6,
0,vocal,Note Off,3,d6,
0.0527425833333333,vocal,Note On,3,d6,
0,vocal,Note On,3,d6,
0,vocal,Note On,3,d6,
0,vocal,Note On,3,d6,
0,vocal,Note On,3,d6,
0.105485166666667,vocal,Note Off,3,d6,
0,vocal,Note Off,3,d6,
0,vocal,Note Off,3,d6,
0,vocal,Note Off,3,d6,
0,vocal,Note Off,3,d6,
0.0527425833333333,vocal,Note On,3,d6,
0,vocal,Note On,3,d6,
0,vocal,Note On,3,d6,
0,vocal,Note On,3,d6,
0,vocal,Note On,3,d6,
0.421940666666667,vocal,Note Off,3,d6,
0,vocal,Note Off,3,d6,
0,vocal,Note Off,3,d6,
0,vocal,Note Off,3,d6,
0,vocal,Note Off,3,d6,
0.685653583333333,vocal,Note On,3,b5,
0,vocal,Note On,3,b5,
0,vocal,Note On,3,b5,
0,vocal,Note On,3,b5,
0,vocal,Note On,3,b5,
0.210970333333333,vocal,Note Off,3,b5,
0,vocal,Note Off,3,b5,
0,vocal,Note Off,3,b5,
0,vocal,Note Off,3,b5,
0,vocal,Note Off,3,b5,
0.105485166666667,vocal,Note On,3,b5,
0,vocal,Note On,3,b5,
0,vocal,Note On,3,b5,
0,vocal,Note On,3,b5,
0,vocal,Note On,3,b5,
0.210970333333333,vocal,Note Off,3,b5,
0,vocal,Note Off,3,b5,
0,vocal,Note Off,3,b5,
0,vocal,Note Off,3,b5,
0,vocal,Note Off,3,b5,
0.105485166666667,vocal,Note On,3,b5,
0,vocal,Note On,3,b5,
0,vocal,Note On,3,b5,
0,vocal,Note On,3,b5,
0,vocal,Note On,3,b5,
0.210970333333333,vocal,Note Off,3,b5,
0,vocal,Note Off,3,b5,
0,vocal,Note Off,3,b5,
0,vocal,Note Off,3,b5,
0,vocal,Note Off,3,b5,
0.105485166666667,vocal,Note On,3,d6,
0,vocal,Note On,3,d6,
0,vocal,Note On,3,d6,
0,vocal,Note On,3,d6,
0,vocal,Note On,3,d6,
0.105485166666667,vocal,Note Off,3,d6,
0,vocal,Note Off,3,d6,
0,vocal,Note Off,3,d6,
0,vocal,Note Off,3,d6,
0,vocal,Note Off,3,d6,
0.0527425833333333,vocal,Note On,3,c#6,
0,vocal,Note On,3,c#6,
0,vocal,Note On,3,c#6,
0,vocal,Note On,3,c#6,
0,vocal,Note On,3,c#6,
0.105485166666667,vocal,Note Off,3,c#6,
0,vocal,Note Off,3,c#6,
0,vocal,Note Off,3,c#6,
0,vocal,Note Off,3,c#6,
0,vocal,Note Off,3,c#6,
0.0527425833333333,vocal,Note On,3,b5,
0,vocal,Note On,3,b5,
0,vocal,Note On,3,b5,
0,vocal,Note On,3,b5,
0,vocal,Note On,3,b5,
0.105485166666667,vocal,Note Off,3,b5,
0,vocal,Note Off,3,b5,
0,vocal,Note Off,3,b5,
0,vocal,Note Off,3,b5,
0,vocal,Note Off,3,b5,
0.0527425833333333,vocal,Note On,3,b5,
0,vocal,Note On,3,b5,
0,vocal,Note On,3,b5,
0,vocal,Note On,3,b5,
0,vocal,Note On,3,b5,
0.210970333333333,vocal,Note Off,3,b5,
0,vocal,Note Off,3,b5,
0,vocal,Note Off,3,b5,
0,vocal,Note Off,3,b5,
0,vocal,Note Off,3,b5,
0.105485166666667,vocal,Note On,3,b5,
0,vocal,Note On,3,b5,
0,vocal,Note On,3,b5,
0,vocal,Note On,3,b5,
0,vocal,Note On,3,b5,
0.105485166666667,vocal,Note Off,3,b5,
0,vocal,Note Off,3,b5,
0,vocal,Note Off,3,b5,
0,vocal,Note Off,3,b5,
0,vocal,Note Off,3,b5,
0.0527425833333333,vocal,Note On,3,b5,
0,vocal,Note On,3,b5,
0,vocal,Note On,3,b5,
0,vocal,Note On,3,b5,
0,vocal,Note On,3,b5,
0.210970333333333,vocal,Note Off,3,b5,
0,vocal,Note Off,3,b5,
0,vocal,Note Off,3,b5,
0,vocal,Note Off,3,b5,
0,vocal,Note Off,3,b5,
0.105485166666667,vocal,Note On,3,d6,
0,vocal,Note On,3,d6,
0,vocal,Note On,3,d6,
0,vocal,Note On,3,d6,
0,vocal,Note On,3,d6,
0.105485166666667,vocal,Note Off,3,d6,
0,vocal,Note Off,3,d6,
0,vocal,Note Off,3,d6,
0,vocal,Note Off,3,d6,
0,vocal,Note Off,3,d6,
0.0527425833333333,vocal,Note On,3,d6,
0,vocal,Note On,3,d6,
0,vocal,Note On,3,d6,
0,vocal,Note On,3,d6,
0,vocal,Note On,3,d6,
0.105485166666667,vocal,Note Off,3,d6,
0,vocal,Note Off,3,d6,
0,vocal,Note Off,3,d6,
0,vocal,Note Off,3,d6,
0,vocal,Note Off,3,d6,
0.0527425833333333,vocal,Note On,3,d6,
0,vocal,Note On,3,d6,
0,vocal,Note On,3,d6,
0,vocal,Note On,3,d6,
0,vocal,Note On,3,d6,
0.105485166666667,vocal,Note Off,3,d6,
0,vocal,Note Off,3,d6,
0,vocal,Note Off,3,d6,
0,vocal,Note Off,3,d6,
0,vocal,Note Off,3,d6,
0.0527425833333333,vocal,Note On,3,d6,
0,vocal,Note On,3,d6,
0,vocal,Note On,3,d6,
0,vocal,Note On,3,d6,
0,vocal,Note On,3,d6,
0.105485166666667,vocal,Note Off,3,d6,
0,vocal,Note Off,3,d6,
0,vocal,Note Off,3,d6,
0,vocal,Note Off,3,d6,
0,vocal,Note Off,3,d6,
0.0527425833333333,vocal,Note On,3,d6,
0,vocal,Note On,3,d6,
0,vocal,Note On,3,d6,
0,vocal,Note On,3,d6,
0,vocal,Note On,3,d6,
0.210970333333333,vocal,Note Off,3,d6,
0,vocal,Note Off,3,d6,
0,vocal,Note Off,3,d6,
0,vocal,Note Off,3,d6,
0,vocal,Note Off,3,d6,
0.105485166666667,vocal,Note On,3,a5,
0,vocal,Note On,3,a5,
0,vocal,Note On,3,a5,
0,vocal,Note On,3,a5,
0,vocal,Note On,3,a5,
0.105485166666667,vocal,Note Off,3,a5,
0,vocal,Note Off,3,a5,
0,vocal,Note Off,3,a5,
0,vocal,Note Off,3,a5,
0,vocal,Note Off,3,a5,
0.0527425833333333,vocal,Note On,3,g5,
0,vocal,Note On,3,g5,
0,vocal,Note On,3,g5,
0,vocal,Note On,3,g5,
0,vocal,Note On,3,g5,
0.105485166666667,vocal,Note Off,3,g5,
0,vocal,Note Off,3,g5,
0,vocal,Note Off,3,g5,
0,vocal,Note Off,3,g5,
0,vocal,Note Off,3,g5,
0.0527425833333333,vocal,Note On,3,a5,
0,vocal,Note On,3,a5,
0,vocal,Note On,3,a5,
0,vocal,Note On,3,a5,
0,vocal,Note On,3,a5,
0.105485166666667,vocal,Note Off,3,a5,
0,vocal,Note Off,3,a5,
0,vocal,Note Off,3,a5,
0,vocal,Note Off,3,a5,
0,vocal,Note Off,3,a5,
0.0527425833333333,vocal,Note On,3,g5,
0,vocal,Note On,3,g5,
0,vocal,Note On,3,g5,
0,vocal,Note On,3,g5,
0,vocal,Note On,3,g5,
0.105485166666667,vocal,Note Off,3,g5,
0,vocal,Note Off,3,g5,
0,vocal,Note Off,3,g5,
0,vocal,Note Off,3,g5,
0,vocal,Note Off,3,g5,
0.0527425833333333,vocal,Note On,3,b5,
0,vocal,Note On,3,b5,
0,vocal,Note On,3,b5,
0,vocal,Note On,3,b5,
0,vocal,Note On,3,b5,
0.210970333333333,vocal,Note Off,3,b5,
0,vocal,Note Off,3,b5,
0,vocal,Note Off,3,b5,
0,vocal,Note Off,3,b5,
0,vocal,Note Off,3,b5,
0.105485166666667,vocal,Note On,3,g5,
0,vocal,Note On,3,g5,
0,vocal,Note On,3,g5,
0,vocal,Note On,3,g5,
0,vocal,Note On,3,g5,
0.15822775,vocal,Note On,3,e5,
0,vocal,Note On,3,e5,
0,vocal,Note On,3,e5,
0,vocal,Note On,3,e5,
0,vocal,Note On,3,e5,
0.263712916666667,vocal,Note Off,3,g5,
0,vocal,Note Off,3,g5,
0,vocal,Note Off,3,g5,
0,vocal,Note Off,3,g5,
0,vocal,Note Off,3,g5,
0.0527425833333333,vocal,Note Off,3,e5,
0,vocal,Note Off,3,e5,
0,vocal,Note Off,3,e5,
0,vocal,Note Off,3,e5,
0,vocal,Note Off,3,e5,
0.3164555,vocal,Note On,3,b5,
0,vocal,Note On,3,b5,
0,vocal,Note On,3,b5,
0,vocal,Note On,3,b5,
0,vocal,Note On,3,b5,
0.105485166666667,vocal,Note Off,3,b5,
0,vocal,Note Off,3,b5,
0,vocal,Note Off,3,b5,
0,vocal,Note Off,3,b5,
0,vocal,Note Off,3,b5,
0.0527425833333333,vocal,Note On,3,b5,
0,vocal,Note On,3,b5,
0,vocal,Note On,3,b5,
0,vocal,Note On,3,b5,
0,vocal,Note On,3,b5,
0.105485166666667,vocal,Note Off,3,b5,
0,vocal,Note Off,3,b5,
0,vocal,Note Off,3,b5,
0,vocal,Note Off,3,b5,
0,vocal,Note Off,3,b5,
0.0527425833333333,vocal,Note On,3,b5,
0,vocal,Note On,3,b5,
0,vocal,Note On,3,b5,
0,vocal,Note On,3,b5,
0,vocal,Note On,3,b5,
0.105485166666667,vocal,Note Off,3,b5,
0,vocal,Note Off,3,b5,
0,vocal,Note Off,3,b5,
0,vocal,Note Off,3,b5,
0,vocal,Note Off,3,b5,
0.0527425833333333,vocal,Note On,3,a5,
0,vocal,Note On,3,a5,
0,vocal,Note On,3,a5,
0,vocal,Note On,3,a5,
0,vocal,Note On,3,a5,
0.210970333333333,vocal,Note Off,3,a5,
0,vocal,Note Off,3,a5,
0,vocal,Note Off,3,a5,
0,vocal,Note Off,3,a5,
0,vocal,Note Off,3,a5,
0.105485166666667,vocal,Note On,3,b5,
0,vocal,Note On,3,b5,
0,vocal,Note On,3,b5,
0,vocal,Note On,3,b5,
0,vocal,Note On,3,b5,
0.105485166666667,vocal,Note Off,3,b5,
0,vocal,Note Off,3,b5,
0,vocal,Note Off,3,b5,
0,vocal,Note Off,3,b5,
0,vocal,Note Off,3,b5,
0.0527425833333333,vocal,Note On,3,b5,
0,vocal,Note On,3,b5,
0,vocal,Note On,3,b5,
0,vocal,Note On,3,b5,
0,vocal,Note On,3,b5,
0.105485166666667,vocal,Note Off,3,b5,
0,vocal,Note Off,3,b5,
0,vocal,Note Off,3,b5,
0,vocal,Note Off,3,b5,
0,vocal,Note Off,3,b5,
0.0527425833333333,vocal,Note On,3,d6,
0,vocal,Note On,3,d6,
0,vocal,Note On,3,d6,
0,vocal,Note On,3,d6,
0,vocal,Note On,3,d6,
0.105485166666667,vocal,Note Off,3,d6,
0,vocal,Note Off,3,d6,
0,vocal,Note Off,3,d6,
0,vocal,Note Off,3,d6,
0,vocal,Note Off,3,d6,
0.0527425833333333,vocal,Note On,3,d6,
0,vocal,Note On,3,d6,
0,vocal,Note On,3,d6,
0,vocal,Note On,3,d6,
0,vocal,Note On,3,d6,
0.105485166666667,vocal,Note Off,3,d6,
0,vocal,Note Off,3,d6,
0,vocal,Note Off,3,d6,
0,vocal,Note Off,3,d6,
0,vocal,Note Off,3,d6,
0.0527425833333333,vocal,Note On,3,d6,
0,vocal,Note On,3,d6,
0,vocal,Note On,3,d6,
0,vocal,Note On,3,d6,
0,vocal,Note On,3,d6,
0.210970333333333,vocal,Note Off,3,d6,
0,vocal,Note Off,3,d6,
0,vocal,Note Off,3,d6,
0,vocal,Note Off,3,d6,
0,vocal,Note Off,3,d6,
0.263712916666667,vocal,Note On,3,e6,
0,vocal,Note On,3,e6,
0,vocal,Note On,3,e6,
0,vocal,Note On,3,e6,
0,vocal,Note On,3,e6,
0.105485166666667,vocal,Note Off,3,e6,
0,vocal,Note Off,3,e6,
0,vocal,Note Off,3,e6,
0,vocal,Note Off,3,e6,
0,vocal,Note Off,3,e6,
0.0527425833333333,vocal,Note On,3,e6,
0,vocal,Note On,3,e6,
0,vocal,Note On,3,e6,
0,vocal,Note On,3,e6,
0,vocal,Note On,3,e6,
0.210970333333333,vocal,Note Off,3,e6,
0,vocal,Note Off,3,e6,
0,vocal,Note Off,3,e6,
0,vocal,Note Off,3,e6,
0,vocal,Note Off,3,e6,
0.421940666666667,vocal,Note On,3,e6,
0,vocal,Note On,3,e6,
0,vocal,Note On,3,e6,
0,vocal,Note On,3,e6,
0,vocal,Note On,3,e6,
0.210970333333333,vocal,Note Off,3,e6,
0,vocal,Note Off,3,e6,
0,vocal,Note Off,3,e6,
0,vocal,Note Off,3,e6,
0,vocal,Note Off,3,e6,
0.105485166666667,vocal,Note On,3,e6,
0,vocal,Note On,3,e6,
0,vocal,Note On,3,e6,
0,vocal,Note On,3,e6,
0,vocal,Note On,3,e6,
0.421940666666667,vocal,Note Off,3,e6,
0,vocal,Note Off,3,e6,
0,vocal,Note Off,3,e6,
0,vocal,Note Off,3,e6,
0,vocal,Note Off,3,e6,
0.527425833333333,vocal,Note On,3,d6,
0,vocal,Note On,3,d6,
0,vocal,Note On,3,d6,
0,vocal,Note On,3,d6,
0,vocal,Note On,3,d6,
0.210970333333333,vocal,Note Off,3,d6,
0,vocal,Note Off,3,d6,
0,vocal,Note Off,3,d6,
0,vocal,Note Off,3,d6,
0,vocal,Note Off,3,d6,
0.105485166666667,vocal,Note On,3,e6,
0,vocal,Note On,3,e6,
0,vocal,Note On,3,e6,
0,vocal,Note On,3,e6,
0,vocal,Note On,3,e6,
0.210970333333333,vocal,Note Off,3,e6,
0,vocal,Note Off,3,e6,
0,vocal,Note Off,3,e6,
0,vocal,Note Off,3,e6,
0,vocal,Note Off,3,e6,
0.105485166666667,vocal,Note On,3,b5,
0,vocal,Note On,3,b5,
0,vocal,Note On,3,b5,
0,vocal,Note On,3,b5,
0,vocal,Note On,3,b5,
0.210970333333333,vocal,Note Off,3,b5,
0,vocal,Note Off,3,b5,
0,vocal,Note Off,3,b5,
0,vocal,Note Off,3,b5,
0,vocal,Note Off,3,b5,
0.105485166666667,vocal,Note On,3,b5,
0,vocal,Note On,3,b5,
0,vocal,Note On,3,b5,
0,vocal,Note On,3,b5,
0,vocal,Note On,3,b5,
0.105485166666667,vocal,Note Off,3,b5,
0,vocal,Note Off,3,b5,
0,vocal,Note Off,3,b5,
0,vocal,Note Off,3,b5,
0,vocal,Note Off,3,b5,
0.0527425833333333,vocal,Note On,3,b5,
0,vocal,Note On,3,b5,
0,vocal,Note On,3,b5,
0,vocal,Note On,3,b5,
0,vocal,Note On,3,b5,
0.105485166666667,vocal,Note Off,3,b5,
0,vocal,Note Off,3,b5,
0,vocal,Note Off,3,b5,
0,vocal,Note Off,3,b5,
0,vocal,Note Off,3,b5,
0.0527425833333333,vocal,Note On,3,b5,
0,vocal,Note On,3,b5,
0,vocal,Note On,3,b5,
0,vocal,Note On,3,b5,
0,vocal,Note On,3,b5,
0.105485166666667,vocal,Note Off,3,b5,
0,vocal,Note Off,3,b5,
0,vocal,Note Off,3,b5,
0,vocal,Note Off,3,b5,
0,vocal,Note Off,3,b5,
0.0527425833333333,vocal,Note On,3,b5,
0,vocal,Note On,3,b5,
0,vocal,Note On,3,b5,
0,vocal,Note On,3,b5,
0,vocal,Note On,3,b5,
0.105485166666667,vocal,Note Off,3,b5,
0,vocal,Note Off,3,b5,
0,vocal,Note Off,3,b5,
0,vocal,Note Off,3,b5,
0,vocal,Note Off,3,b5,
0.0527425833333333,vocal,Note On,3,b5,
0,vocal,Note On,3,b5,
0,vocal,Note On,3,b5,
0,vocal,Note On,3,b5,
0,vocal,Note On,3,b5,
0.105485166666667,vocal,Note Off,3,b5,
0,vocal,Note Off,3,b5,
0,vocal,Note Off,3,b5,
0,vocal,Note Off,3,b5,
0,vocal,Note Off,3,b5,
0.0527425833333333,vocal,Note On,3,b5,
0,vocal,Note On,3,b5,
0,vocal,Note On,3,b5,
0,vocal,Note On,3,b5,
0,vocal,Note On,3,b5,
0.105485166666667,vocal,Note Off,3,b5,
0,vocal,Note Off,3,b5,
0,vocal,Note Off,3,b5,
0,vocal,Note Off,3,b5,
0,vocal,Note Off,3,b5,
0.0527425833333333,vocal,Note On,3,b5,
0,vocal,Note On,3,b5,
0,vocal,Note On,3,b5,
0,vocal,Note On,3,b5,
0,vocal,Note On,3,b5,
0.105485166666667,vocal,Note Off,3,b5,
0,vocal,Note Off,3,b5,
0,vocal,Note Off,3,b5,
0,vocal,Note Off,3,b5,
0,vocal,Note Off,3,b5,
0.0527425833333333,vocal,Note On,3,b5,
0,vocal,Note On,3,b5,
0,vocal,Note On,3,b5,
0,vocal,Note On,3,b5,
0,vocal,Note On,3,b5,
0.105485166666667,vocal,Note Off,3,b5,
0,vocal,Note Off,3,b5,
0,vocal,Note Off,3,b5,
0,vocal,Note Off,3,b5,
0,vocal,Note Off,3,b5,
0.0527425833333333,vocal,Note On,3,d6,
0,vocal,Note On,3,d6,
0,vocal,Note On,3,d6,
0,vocal,Note On,3,d6,
0,vocal,Note On,3,d6,
0.105485166666667,vocal,Note Off,3,d6,
0,vocal,Note Off,3,d6,
0,vocal,Note Off,3,d6,
0,vocal,Note Off,3,d6,
0,vocal,Note Off,3,d6,
0.0527425833333333,vocal,Note On,3,d6,
0,vocal,Note On,3,d6,
0,vocal,Note On,3,d6,
0,vocal,Note On,3,d6,
0,vocal,Note On,3,d6,
0.105485166666667,vocal,Note Off,3,d6,
0,vocal,Note Off,3,d6,
0,vocal,Note Off,3,d6,
0,vocal,Note Off,3,d6,
0,vocal,Note Off,3,d6,
0.0527425833333333,vocal,Note On,3,b5,
0,vocal,Note On,3,b5,
0,vocal,Note On,3,b5,
0,vocal,Note On,3,b5,
0,vocal,Note On,3,b5,
0.210970333333333,vocal,Note Off,3,b5,
0,vocal,Note Off,3,b5,
0,vocal,Note Off,3,b5,
0,vocal,Note Off,3,b5,
0,vocal,Note Off,3,b5,
0.263712916666667,vocal,Note On,3,b5,
0,vocal,Note On,3,b5,
0,vocal,Note On,3,b5,
0,vocal,Note On,3,b5,
0,vocal,Note On,3,b5,
0.105485166666667,vocal,Note Off,3,b5,
0,vocal,Note Off,3,b5,
0,vocal,Note Off,3,b5,
0,vocal,Note Off,3,b5,
0,vocal,Note Off,3,b5,
0.0527425833333333,vocal,Note On,3,d6,
0,vocal,Note On,3,d6,
0,vocal,Note On,3,d6,
0,vocal,Note On,3,d6,
0,vocal,Note On,3,d6,
0.210970333333333,vocal,Note Off,3,d6,
0,vocal,Note Off,3,d6,
0,vocal,Note Off,3,d6,
0,vocal,Note Off,3,d6,
0,vocal,Note Off,3,d6,
0.105485166666667,vocal,Note On,3,b5,
0,vocal,Note On,3,b5,
0,vocal,Note On,3,b5,
0,vocal,Note On,3,b5,
0,vocal,Note On,3,b5,
0.421940666666667,vocal,Note Off,3,b5,
0,vocal,Note Off,3,b5,
0,vocal,Note Off,3,b5,
0,vocal,Note Off,3,b5,
0,vocal,Note Off,3,b5,
1.47679233333333,vocal,Note On,3,b5,
0,vocal,Note On,3,b5,
0,vocal,Note On,3,b5,
0,vocal,Note On,3,b5,
0,vocal,Note On,3,b5,
0.105485166666667,vocal,Note Off,3,b5,
0,vocal,Note Off,3,b5,
0,vocal,Note Off,3,b5,
0,vocal,Note Off,3,b5,
0,vocal,Note Off,3,b5,
0.0527425833333333,vocal,Note On,3,b5,
0,vocal,Note On,3,b5,
0,vocal,Note On,3,b5,
0,vocal,Note On,3,b5,
0,vocal,Note On,3,b5,
0.3164555,vocal,Note Off,3,b5,
0,vocal,Note Off,3,b5,
0,vocal,Note Off,3,b5,
0,vocal,Note Off,3,b5,
0,vocal,Note Off,3,b5,
0.15822775,vocal,Note On,3,d6,
0,vocal,Note On,3,d6,
0,vocal,Note On,3,d6,
0,vocal,Note On,3,d6,
0,vocal,Note On,3,d6,
0.15822775,vocal,Note On,3,b5,
0,vocal,Note On,3,b5,
0,vocal,Note On,3,b5,
0,vocal,Note On,3,b5,
0,vocal,Note On,3,b5,
0.263712916666667,vocal,Note Off,3,d6,
0,vocal,Note Off,3,d6,
0,vocal,Note Off,3,d6,
0,vocal,Note Off,3,d6,
0,vocal,Note Off,3,d6,
0.0527425833333333,vocal,Note Off,3,b5,
0,vocal,Note Off,3,b5,
0,vocal,Note Off,3,b5,
0,vocal,Note Off,3,b5,
0,vocal,Note Off,3,b5,
1.42404975,vocal,Note On,3,e6,
0,vocal,Note On,3,e6,
0,vocal,Note On,3,e6,
0,vocal,Note On,3,e6,
0,vocal,Note On,3,e6,
0.105485166666667,vocal,Note Off,3,e6,
0,vocal,Note Off,3,e6,
0,vocal,Note Off,3,e6,
0,vocal,Note Off,3,e6,
0,vocal,Note Off,3,e6,
0.0527425833333333,vocal,Note On,3,e6,
0,vocal,Note On,3,e6,
0,vocal,Note On,3,e6,
0,vocal,Note On,3,e6,
0,vocal,Note On,3,e6,
0.3164555,vocal,Note Off,3,e6,
0,vocal,Note Off,3,e6,
0,vocal,Note Off,3,e6,
0,vocal,Note Off,3,e6,
0,vocal,Note Off,3,e6,
0.15822775,vocal,Note On,3,b5,
0,vocal,Note On,3,b5,
0,vocal,Note On,3,b5,
0,vocal,Note On,3,b5,
0,vocal,Note On,3,b5,
0.421940666666667,vocal,Note Off,3,b5,
0,vocal,Note Off,3,b5,
0,vocal,Note Off,3,b5,
0,vocal,Note Off,3,b5,
0,vocal,Note Off,3,b5,
1.47679233333333,vocal,Note On,3,b5,
0,vocal,Note On,3,b5,
0,vocal,Note On,3,b5,
0,vocal,Note On,3,b5,
0,vocal,Note On,3,b5,
0.105485166666667,vocal,Note Off,3,b5,
0,vocal,Note Off,3,b5,
0,vocal,Note Off,3,b5,
0,vocal,Note Off,3,b5,
0,vocal,Note Off,3,b5,
0.0527425833333333,vocal,Note On,3,b5,
0,vocal,Note On,3,b5,
0,vocal,Note On,3,b5,
0,vocal,Note On,3,b5,
0,vocal,Note On,3,b5,
0.3164555,vocal,Note Off,3,b5,
0,vocal,Note Off,3,b5,
0,vocal,Note Off,3,b5,
0,vocal,Note Off,3,b5,
0,vocal,Note Off,3,b5,
0.15822775,vocal,Note On,3,d6,
0,vocal,Note On,3,d6,
0,vocal,Note On,3,d6,
0,vocal,Note On,3,d6,
0,vocal,Note On,3,d6,
0.421940666666667,vocal,Note Off,3,d6,
0,vocal,Note Off,3,d6,
0,vocal,Note Off,3,d6,
0,vocal,Note Off,3,d6,
0,vocal,Note Off,3,d6,
2.42615883333333,vocal,Note On,3,a5,
0,vocal,Note On,3,a5,
0,vocal,Note On,3,a5,
0,vocal,Note On,3,a5,
0,vocal,Note On,3,a5,
0.632911,vocal,Note Off,3,a5,
0,vocal,Note Off,3,a5,
0,vocal,Note Off,3,a5,
0,vocal,Note Off,3,a5,
0,vocal,Note Off,3,a5,
0,vocal,Note On,3,b5,
0,vocal,Note On,3,b5,
0,vocal,Note On,3,b5,
0,vocal,Note On,3,b5,
0,vocal,Note On,3,b5,
0.210970333333333,vocal,Note Off,3,b5,
0,vocal,Note Off,3,b5,
0,vocal,Note Off,3,b5,
0,vocal,Note Off,3,b5,
0,vocal,Note Off,3,b5,
0.105485166666667,vocal,Note On,3,c#6,
0,vocal,Note On,3,c#6,
0,vocal,Note On,3,c#6,
0,vocal,Note On,3,c#6,
0,vocal,Note On,3,c#6,
0.3164555,vocal,Note Off,3,c#6,
0,vocal,Note Off,3,c#6,
0,vocal,Note Off,3,c#6,
0,vocal,Note Off,3,c#6,
0,vocal,Note Off,3,c#6,
0.15822775,vocal,Note On,3,b5,
0,vocal,Note On,3,b5,
0,vocal,Note On,3,b5,
0,vocal,Note On,3,b5,
0,vocal,Note On,3,b5,
0.210970333333333,vocal,Note Off,3,b5,
0,vocal,Note Off,3,b5,
0,vocal,Note Off,3,b5,
0,vocal,Note Off,3,b5,
0,vocal,Note Off,3,b5,
0.263712916666667,vocal,Note On,3,c#6,
0,vocal,Note On,3,c#6,
0,vocal,Note On,3,c#6,
0,vocal,Note On,3,c#6,
0,vocal,Note On,3,c#6,
0.210970333333333,vocal,Note Off,3,c#6,
0,vocal,Note Off,3,c#6,
0,vocal,Note Off,3,c#6,
0,vocal,Note Off,3,c#6,
0,vocal,Note Off,3,c#6,
0.421940666666667,vocal,Note On,3,a5,
0,vocal,Note On,3,a5,
0,vocal,Note On,3,a5,
0,vocal,Note On,3,a5,
0,vocal,Note On,3,a5,
0.632911,vocal,Note Off,3,a5,
0,vocal,Note Off,3,a5,
0,vocal,Note Off,3,a5,
0,vocal,Note Off,3,a5,
0,vocal,Note Off,3,a5,
0,vocal,Note On,3,b5,
0,vocal,Note On,3,b5,
0,vocal,Note On,3,b5,
0,vocal,Note On,3,b5,
0,vocal,Note On,3,b5,
0.210970333333333,vocal,Note Off,3,b5,
0,vocal,Note Off,3,b5,
0,vocal,Note Off,3,b5,
0,vocal,Note Off,3,b5,
0,vocal,Note Off,3,b5,
0.105485166666667,vocal,Note On,3,c#6,
0,vocal,Note On,3,c#6,
0,vocal,Note On,3,c#6,
0,vocal,Note On,3,c#6,
0,vocal,Note On,3,c#6,
0.3164555,vocal,Note Off,3,c#6,
0,vocal,Note Off,3,c#6,
0,vocal,Note Off,3,c#6,
0,vocal,Note Off,3,c#6,
0,vocal,Note Off,3,c#6,
0.15822775,vocal,Note On,3,b5,
0,vocal,Note On,3,b5,
0,vocal,Note On,3,b5,
0,vocal,Note On,3,b5,
0,vocal,Note On,3,b5,
0.210970333333333,vocal,Note Off,3,b5,
0,vocal,Note Off,3,b5,
0,vocal,Note Off,3,b5,
0,vocal,Note Off,3,b5,
0,vocal,Note Off,3,b5,
0.105485166666667,vocal,Note On,3,c#6,
0,vocal,Note On,3,c#6,
0,vocal,Note On,3,c#6,
0,vocal,Note On,3,c#6,
0,vocal,Note On,3,c#6,
0.105485166666667,vocal,Note Off,3,c#6,
0,vocal,Note Off,3,c#6,
0,vocal,Note Off,3,c#6,
0,vocal,Note Off,3,c#6,
0,vocal,Note Off,3,c#6,
0.0527425833333333,vocal,Note On,3,c#6,
0,vocal,Note On,3,c#6,
0,vocal,Note On,3,c#6,
0,vocal,Note On,3,c#6,
0,vocal,Note On,3,c#6,
0.210970333333333,vocal,Note Off,3,c#6,
0,vocal,Note Off,3,c#6,
0,vocal,Note Off,3,c#6,
0,vocal,Note Off,3,c#6,
0,vocal,Note Off,3,c#6,
0.105485166666667,vocal,Note On,3,d6,
0,vocal,Note On,3,d6,
0,vocal,Note On,3,d6,
0,vocal,Note On,3,d6,
0,vocal,Note On,3,d6,
0.105485166666667,vocal,Note Off,3,d6,
0,vocal,Note Off,3,d6,
0,vocal,Note Off,3,d6,
0,vocal,Note Off,3,d6,
0,vocal,Note Off,3,d6,
0.0527425833333333,vocal,Note On,3,d6,
0,vocal,Note On,3,d6,
0,vocal,Note On,3,d6,
0,vocal,Note On,3,d6,
0,vocal,Note On,3,d6,
0.210970333333333,vocal,Note Off,3,d6,
0,vocal,Note Off,3,d6,
0,vocal,Note Off,3,d6,
0,vocal,Note Off,3,d6,
0,vocal,Note Off,3,d6,
0.105485166666667,vocal,Note On,3,d6,
0,vocal,Note On,3,d6,
0,vocal,Note On,3,d6,
0,vocal,Note On,3,d6,
0,vocal,Note On,3,d6,
0.421940666666667,vocal,Note Off,3,d6,
0,vocal,Note Off,3,d6,
0,vocal,Note Off,3,d6,
0,vocal,Note Off,3,d6,
0,vocal,Note Off,3,d6,
1.16033683333333,vocal,Note On,3,d6,
0,vocal,Note On,3,d6,
0,vocal,Note On,3,d6,
0,vocal,Note On,3,d6,
0,vocal,Note On,3,d6,
0.105485166666667,vocal,Note Off,3,d6,
0,vocal,Note Off,3,d6,
0,vocal,Note Off,3,d6,
0,vocal,Note Off,3,d6,
0,vocal,Note Off,3,d6,
0.0527425833333333,vocal,Note On,3,d6,
0,vocal,Note On,3,d6,
0,vocal,Note On,3,d6,
0,vocal,Note On,3,d6,
0,vocal,Note On,3,d6,
0.210970333333333,vocal,Note Off,3,d6,
0,vocal,Note Off,3,d6,
0,vocal,Note Off,3,d6,
0,vocal,Note Off,3,d6,
0,vocal,Note Off,3,d6,
0.105485166666667,vocal,Note On,3,f#6,
0,vocal,Note On,3,f#6,
0,vocal,Note On,3,f#6,
0,vocal,Note On,3,f#6,
0,vocal,Note On,3,f#6,
0.3164555,vocal,Note Off,3,f#6,
0,vocal,Note Off,3,f#6,
0,vocal,Note Off,3,f#6,
0,vocal,Note Off,3,f#6,
0,vocal,Note Off,3,f#6,
0.15822775,vocal,Note On,3,d6,
0,vocal,Note On,3,d6,
0,vocal,Note On,3,d6,
0,vocal,Note On,3,d6,
0,vocal,Note On,3,d6,
0.3164555,vocal,Note Off,3,d6,
0,vocal,Note Off,3,d6,
0,vocal,Note Off,3,d6,
0,vocal,Note Off,3,d6,
0,vocal,Note Off,3,d6,
0.15822775,vocal,Note On,3,d6,
0,vocal,Note On,3,d6,
0,vocal,Note On,3,d6,
0,vocal,Note On,3,d6,
0,vocal,Note On,3,d6,
0.632911,vocal,Note Off,3,d6,
0,vocal,Note Off,3,d6,
0,vocal,Note Off,3,d6,
0,vocal,Note Off,3,d6,
0,vocal,Note Off,3,d6,
0.9493665,vocal,Note On,3,e6,
0,vocal,Note On,3,e6,
0,vocal,Note On,3,e6,
0,vocal,Note On,3,e6,
0,vocal,Note On,3,e6,
0.105485166666667,vocal,Note Off,3,e6,
0,vocal,Note Off,3,e6,
0,vocal,Note Off,3,e6,
0,vocal,Note Off,3,e6,
0,vocal,Note Off,3,e6,
0.0527425833333333,vocal,Note On,3,e6,
0,vocal,Note On,3,e6,
0,vocal,Note On,3,e6,
0,vocal,Note On,3,e6,
0,vocal,Note On,3,e6,
0.210970333333333,vocal,Note Off,3,e6,
0,vocal,Note Off,3,e6,
0,vocal,Note Off,3,e6,
0,vocal,Note Off,3,e6,
0,vocal,Note Off,3,e6,
0.105485166666667,vocal,Note On,3,e6,
0,vocal,Note On,3,e6,
0,vocal,Note On,3,e6,
0,vocal,Note On,3,e6,
0,vocal,Note On,3,e6,
0.421940666666667,vocal,Note Off,3,e6,
0,vocal,Note Off,3,e6,
0,vocal,Note Off,3,e6,
0,vocal,Note Off,3,e6,
0,vocal,Note Off,3,e6,
0.527425833333333,vocal,Note On,3,d6,
0,vocal,Note On,3,d6,
0,vocal,Note On,3,d6,
0,vocal,Note On,3,d6,
0,vocal,Note On,3,d6,
0.105485166666667,vocal,Note Off,3,d6,
0,vocal,Note Off,3,d6,
0,vocal,Note Off,3,d6,
0,vocal,Note Off,3,d6,
0,vocal,Note Off,3,d6,
0.0527425833333333,vocal,Note On,3,d6,
0,vocal,Note On,3,d6,
0,vocal,Note On,3,d6,
0,vocal,Note On,3,d6,
0,vocal,Note On,3,d6,
0.105485166666667,vocal,Note Off,3,d6,
0,vocal,Note Off,3,d6,
0,vocal,Note Off,3,d6,
0,vocal,Note Off,3,d6,
0,vocal,Note Off,3,d6,
0.0527425833333333,vocal,Note On,3,d6,
0,vocal,Note On,3,d6,
0,vocal,Note On,3,d6,
0,vocal,Note On,3,d6,
0,vocal,Note On,3,d6,
0.105485166666667,vocal,Note Off,3,d6,
0,vocal,Note Off,3,d6,
0,vocal,Note Off,3,d6,
0,vocal,Note Off,3,d6,
0,vocal,Note Off,3,d6,
0.0527425833333333,vocal,Note On,3,d6,
0,vocal,Note On,3,d6,
0,vocal,Note On,3,d6,
0,vocal,Note On,3,d6,
0,vocal,Note On,3,d6,
0.421940666666667,vocal,Note Off,3,d6,
0,vocal,Note Off,3,d6,
0,vocal,Note Off,3,d6,
0,vocal,Note Off,3,d6,
0,vocal,Note Off,3,d6,
0.369198083333333,vocal,Note On,3,e6,
0,vocal,Note On,3,e6,
0,vocal,Note On,3,e6,
0,vocal,Note On,3,e6,
0,vocal,Note On,3,e6,
0.105485166666667,vocal,Note Off,3,e6,
0,vocal,Note Off,3,e6,
0,vocal,Note Off,3,e6,
0,vocal,Note Off,3,e6,
0,vocal,Note Off,3,e6,
0.0527425833333333,vocal,Note On,3,e6,
0,vocal,Note On,3,e6,
0,vocal,Note On,3,e6,
0,vocal,Note On,3,e6,
0,vocal,Note On,3,e6,
0.105485166666667,vocal,Note Off,3,e6,
0,vocal,Note Off,3,e6,
0,vocal,Note Off,3,e6,
0,vocal,Note Off,3,e6,
0,vocal,Note Off,3,e6,
0.0527425833333333,vocal,Note On,3,e6,
0,vocal,Note On,3,e6,
0,vocal,Note On,3,e6,
0,vocal,Note On,3,e6,
0,vocal,Note On,3,e6,
0.105485166666667,vocal,Note Off,3,e6,
0,vocal,Note Off,3,e6,
0,vocal,Note Off,3,e6,
0,vocal,Note Off,3,e6,
0,vocal,Note Off,3,e6,
0.0527425833333333,vocal,Note On,3,e6,
0,vocal,Note On,3,e6,
0,vocal,Note On,3,e6,
0,vocal,Note On,3,e6,
0,vocal,Note On,3,e6,
0.210970333333333,vocal,Note Off,3,e6,
0,vocal,Note Off,3,e6,
0,vocal,Note Off,3,e6,
0,vocal,Note Off,3,e6,
0,vocal,Note Off,3,e6,
0.105485166666667,vocal,Note On,3,b5,
0,vocal,Note On,3,b5,
0,vocal,Note On,3,b5,
0,vocal,Note On,3,b5,
0,vocal,Note On,3,b5,
0.210970333333333,vocal,Note Off,3,b5,
0,vocal,Note Off,3,b5,
0,vocal,Note Off,3,b5,
0,vocal,Note Off,3,b5,
0,vocal,Note Off,3,b5,
0.105485166666667,vocal,Note On,3,a5,
0,vocal,Note On,3,a5,
0,vocal,Note On,3,a5,
0,vocal,Note On,3,a5,
0,vocal,Note On,3,a5,
0.105485166666667,vocal,Note Off,3,a5,
0,vocal,Note Off,3,a5,
0,vocal,Note Off,3,a5,
0,vocal,Note Off,3,a5,
0,vocal,Note Off,3,a5,
0.0527425833333333,vocal,Note On,3,g#5,
0,vocal,Note On,3,g#5,
0,vocal,Note On,3,g#5,
0,vocal,Note On,3,g#5,
0,vocal,Note On,3,g#5,
0.105485166666667,vocal,Note Off,3,g#5,
0,vocal,Note Off,3,g#5,
0,vocal,Note Off,3,g#5,
0,vocal,Note Off,3,g#5,
0,vocal,Note Off,3,g#5,
0.0527425833333333,vocal,Note On,3,b5,
0,vocal,Note On,3,b5,
0,vocal,Note On,3,b5,
0,vocal,Note On,3,b5,
0,vocal,Note On,3,b5,
0.210970333333333,vocal,Note Off,3,b5,
0,vocal,Note Off,3,b5,
0,vocal,Note Off,3,b5,
0,vocal,Note Off,3,b5,
0,vocal,Note Off,3,b5,
0.105485166666667,vocal,Note On,3,a5,
0,vocal,Note On,3,a5,
0,vocal,Note On,3,a5,
0,vocal,Note On,3,a5,
0,vocal,Note On,3,a5,
0.210970333333333,vocal,Note Off,3,a5,
0,vocal,Note Off,3,a5,
0,vocal,Note Off,3,a5,
0,vocal,Note Off,3,a5,
0,vocal,Note Off,3,a5,
0.105485166666667,vocal,Note On,3,e5,
0,vocal,Note On,3,e5,
0,vocal,Note On,3,e5,
0,vocal,Note On,3,e5,
0,vocal,Note On,3,e5,
0.421940666666667,vocal,Note Off,3,e5,
0,vocal,Note Off,3,e5,
0,vocal,Note Off,3,e5,
0,vocal,Note Off,3,e5,
0,vocal,Note Off,3,e5,
0.210970333333333,vocal,Note On,3,d6,
0,vocal,Note On,3,d6,
0,vocal,Note On,3,d6,
0,vocal,Note On,3,d6,
0,vocal,Note On,3,d6,
0.210970333333333,vocal,Note Off,3,d6,
0,vocal,Note Off,3,d6,
0,vocal,Note Off,3,d6,
0,vocal,Note Off,3,d6,
0,vocal,Note Off,3,d6,
0.105485166666667,vocal,Note On,3,d6,
0,vocal,Note On,3,d6,
0,vocal,Note On,3,d6,
0,vocal,Note On,3,d6,
0,vocal,Note On,3,d6,
0.421940666666667,vocal,Note Off,3,d6,
0,vocal,Note Off,3,d6,
0,vocal,Note Off,3,d6,
0,vocal,Note Off,3,d6,
0,vocal,Note Off,3,d6,
0.369198083333333,vocal,Note On,3,d6,
0,vocal,Note On,3,d6,
0,vocal,Note On,3,d6,
0,vocal,Note On,3,d6,
0,vocal,Note On,3,d6,
0.105485166666667,vocal,Note Off,3,d6,
0,vocal,Note Off,3,d6,
0,vocal,Note Off,3,d6,
0,vocal,Note Off,3,d6,
0,vocal,Note Off,3,d6,
0.0527425833333333,vocal,Note On,3,d6,
0,vocal,Note On,3,d6,
0,vocal,Note On,3,d6,
0,vocal,Note On,3,d6,
0,vocal,Note On,3,d6,
0.105485166666667,vocal,Note Off,3,d6,
0,vocal,Note Off,3,d6,
0,vocal,Note Off,3,d6,
0,vocal,Note Off,3,d6,
0,vocal,Note Off,3,d6,
0.0527425833333333,vocal,Note On,3,d6,
0,vocal,Note On,3,d6,
0,vocal,Note On,3,d6,
0,vocal,Note On,3,d6,
0,vocal,Note On,3,d6,
0.421940666666667,vocal,Note Off,3,d6,
0,vocal,Note Off,3,d6,
0,vocal,Note Off,3,d6,
0,vocal,Note Off,3,d6,
0,vocal,Note Off,3,d6,
0.685653583333333,vocal,Note On,3,b5,
0,vocal,Note On,3,b5,
0,vocal,Note On,3,b5,
0,vocal,Note On,3,b5,
0,vocal,Note On,3,b5,
0.210970333333333,vocal,Note Off,3,b5,
0,vocal,Note Off,3,b5,
0,vocal,Note Off,3,b5,
0,vocal,Note Off,3,b5,
0,vocal,Note Off,3,b5,
0.105485166666667,vocal,Note On,3,b5,
0,vocal,Note On,3,b5,
0,vocal,Note On,3,b5,
0,vocal,Note On,3,b5,
0,vocal,Note On,3,b5,
0.210970333333333,vocal,Note Off,3,b5,
0,vocal,Note Off,3,b5,
0,vocal,Note Off,3,b5,
0,vocal,Note Off,3,b5,
0,vocal,Note Off,3,b5,
0.105485166666667,vocal,Note On,3,b5,
0,vocal,Note On,3,b5,
0,vocal,Note On,3,b5,
0,vocal,Note On,3,b5,
0,vocal,Note On,3,b5,
0.210970333333333,vocal,Note Off,3,b5,
0,vocal,Note Off,3,b5,
0,vocal,Note Off,3,b5,
0,vocal,Note Off,3,b5,
0,vocal,Note Off,3,b5,
0.105485166666667,vocal,Note On,3,d6,
0,vocal,Note On,3,d6,
0,vocal,Note On,3,d6,
0,vocal,Note On,3,d6,
0,vocal,Note On,3,d6,
0.105485166666667,vocal,Note Off,3,d6,
0,vocal,Note Off,3,d6,
0,vocal,Note Off,3,d6,
0,vocal,Note Off,3,d6,
0,vocal,Note Off,3,d6,
0.0527425833333333,vocal,Note On,3,c#6,
0,vocal,Note On,3,c#6,
0,vocal,Note On,3,c#6,
0,vocal,Note On,3,c#6,
0,vocal,Note On,3,c#6,
0.105485166666667,vocal,Note Off,3,c#6,
0,vocal,Note Off,3,c#6,
0,vocal,Note Off,3,c#6,
0,vocal,Note Off,3,c#6,
0,vocal,Note Off,3,c#6,
0.0527425833333333,vocal,Note On,3,b5,
0,vocal,Note On,3,b5,
0,vocal,Note On,3,b5,
0,vocal,Note On,3,b5,
0,vocal,Note On,3,b5,
0.105485166666667,vocal,Note Off,3,b5,
0,vocal,Note Off,3,b5,
0,vocal,Note Off,3,b5,
0,vocal,Note Off,3,b5,
0,vocal,Note Off,3,b5,
0.0527425833333333,vocal,Note On,3,b5,
0,vocal,Note On,3,b5,
0,vocal,Note On,3,b5,
0,vocal,Note On,3,b5,
0,vocal,Note On,3,b5,
0.210970333333333,vocal,Note Off,3,b5,
0,vocal,Note Off,3,b5,
0,vocal,Note Off,3,b5,
0,vocal,Note Off,3,b5,
0,vocal,Note Off,3,b5,
0.105485166666667,vocal,Note On,3,b5,
0,vocal,Note On,3,b5,
0,vocal,Note On,3,b5,
0,vocal,Note On,3,b5,
0,vocal,Note On,3,b5,
0.105485166666667,vocal,Note Off,3,b5,
0,vocal,Note Off,3,b5,
0,vocal,Note Off,3,b5,
0,vocal,Note Off,3,b5,
0,vocal,Note Off,3,b5,
0.0527425833333333,vocal,Note On,3,b5,
0,vocal,Note On,3,b5,
0,vocal,Note On,3,b5,
0,vocal,Note On,3,b5,
0,vocal,Note On,3,b5,
0.210970333333333,vocal,Note Off,3,b5,
0,vocal,Note Off,3,b5,
0,vocal,Note Off,3,b5,
0,vocal,Note Off,3,b5,
0,vocal,Note Off,3,b5,
0.105485166666667,vocal,Note On,3,d6,
0,vocal,Note On,3,d6,
0,vocal,Note On,3,d6,
0,vocal,Note On,3,d6,
0,vocal,Note On,3,d6,
0.105485166666667,vocal,Note Off,3,d6,
0,vocal,Note Off,3,d6,
0,vocal,Note Off,3,d6,
0,vocal,Note Off,3,d6,
0,vocal,Note Off,3,d6,
0.0527425833333333,vocal,Note On,3,d6,
0,vocal,Note On,3,d6,
0,vocal,Note On,3,d6,
0,vocal,Note On,3,d6,
0,vocal,Note On,3,d6,
0.105485166666667,vocal,Note Off,3,d6,
0,vocal,Note Off,3,d6,
0,vocal,Note Off,3,d6,
0,vocal,Note Off,3,d6,
0,vocal,Note Off,3,d6,
0.0527425833333333,vocal,Note On,3,d6,
0,vocal,Note On,3,d6,
0,vocal,Note On,3,d6,
0,vocal,Note On,3,d6,
0,vocal,Note On,3,d6,
0.105485166666667,vocal,Note Off,3,d6,
0,vocal,Note Off,3,d6,
0,vocal,Note Off,3,d6,
0,vocal,Note Off,3,d6,
0,vocal,Note Off,3,d6,
0.0527425833333333,vocal,Note On,3,d6,
0,vocal,Note On,3,d6,
0,vocal,Note On,3,d6,
0,vocal,Note On,3,d6,
0,vocal,Note On,3,d6,
0.105485166666667,vocal,Note Off,3,d6,
0,vocal,Note Off,3,d6,
0,vocal,Note Off,3,d6,
0,vocal,Note Off,3,d6,
0,vocal,Note Off,3,d6,
0.0527425833333333,vocal,Note On,3,d6,
0,vocal,Note On,3,d6,
0,vocal,Note On,3,d6,
0,vocal,Note On,3,d6,
0,vocal,Note On,3,d6,
0.210970333333333,vocal,Note Off,3,d6,
0,vocal,Note Off,3,d6,
0,vocal,Note Off,3,d6,
0,vocal,Note Off,3,d6,
0,vocal,Note Off,3,d6,
0.105485166666667,vocal,Note On,3,a5,
0,vocal,Note On,3,a5,
0,vocal,Note On,3,a5,
0,vocal,Note On,3,a5,
0,vocal,Note On,3,a5,
0.105485166666667,vocal,Note Off,3,a5,
0,vocal,Note Off,3,a5,
0,vocal,Note Off,3,a5,
0,vocal,Note Off,3,a5,
0,vocal,Note Off,3,a5,
0.0527425833333333,vocal,Note On,3,g5,
0,vocal,Note On,3,g5,
0,vocal,Note On,3,g5,
0,vocal,Note On,3,g5,
0,vocal,Note On,3,g5,
0.105485166666667,vocal,Note Off,3,g5,
0,vocal,Note Off,3,g5,
0,vocal,Note Off,3,g5,
0,vocal,Note Off,3,g5,
0,vocal,Note Off,3,g5,
0.0527425833333333,vocal,Note On,3,a5,
0,vocal,Note On,3,a5,
0,vocal,Note On,3,a5,
0,vocal,Note On,3,a5,
0,vocal,Note On,3,a5,
0.105485166666667,vocal,Note Off,3,a5,
0,vocal,Note Off,3,a5,
0,vocal,Note Off,3,a5,
0,vocal,Note Off,3,a5,
0,vocal,Note Off,3,a5,
0.0527425833333333,vocal,Note On,3,g5,
0,vocal,Note On,3,g5,
0,vocal,Note On,3,g5,
0,vocal,Note On,3,g5,
0,vocal,Note On,3,g5,
0.105485166666667,vocal,Note Off,3,g5,
0,vocal,Note Off,3,g5,
0,vocal,Note Off,3,g5,
0,vocal,Note Off,3,g5,
0,vocal,Note Off,3,g5,
0.0527425833333333,vocal,Note On,3,b5,
0,vocal,Note On,3,b5,
0,vocal,Note On,3,b5,
0,vocal,Note On,3,b5,
0,vocal,Note On,3,b5,
0.210970333333333,vocal,Note Off,3,b5,
0,vocal,Note Off,3,b5,
0,vocal,Note Off,3,b5,
0,vocal,Note Off,3,b5,
0,vocal,Note Off,3,b5,
0.105485166666667,vocal,Note On,3,g5,
0,vocal,Note On,3,g5,
0,vocal,Note On,3,g5,
0,vocal,Note On,3,g5,
0,vocal,Note On,3,g5,
0.15822775,vocal,Note On,3,e5,
0,vocal,Note On,3,e5,
0,vocal,Note On,3,e5,
0,vocal,Note On,3,e5,
0,vocal,Note On,3,e5,
0.263712916666667,vocal,Note Off,3,g5,
0,vocal,Note Off,3,g5,
0,vocal,Note Off,3,g5,
0,vocal,Note Off,3,g5,
0,vocal,Note Off,3,g5,
0.0527425833333333,vocal,Note Off,3,e5,
0,vocal,Note Off,3,e5,
0,vocal,Note Off,3,e5,
0,vocal,Note Off,3,e5,
0,vocal,Note Off,3,e5,
0.3164555,vocal,Note On,3,b5,
0,vocal,Note On,3,b5,
0,vocal,Note On,3,b5,
0,vocal,Note On,3,b5,
0,vocal,Note On,3,b5,
0.105485166666667,vocal,Note Off,3,b5,
0,vocal,Note Off,3,b5,
0,vocal,Note Off,3,b5,
0,vocal,Note Off,3,b5,
0,vocal,Note Off,3,b5,
0.0527425833333333,vocal,Note On,3,b5,
0,vocal,Note On,3,b5,
0,vocal,Note On,3,b5,
0,vocal,Note On,3,b5,
0,vocal,Note On,3,b5,
0.105485166666667,vocal,Note Off,3,b5,
0,vocal,Note Off,3,b5,
0,vocal,Note Off,3,b5,
0,vocal,Note Off,3,b5,
0,vocal,Note Off,3,b5,
0.0527425833333333,vocal,Note On,3,b5,
0,vocal,Note On,3,b5,
0,vocal,Note On,3,b5,
0,vocal,Note On,3,b5,
0,vocal,Note On,3,b5,
0.105485166666667,vocal,Note Off,3,b5,
0,vocal,Note Off,3,b5,
0,vocal,Note Off,3,b5,
0,vocal,Note Off,3,b5,
0,vocal,Note Off,3,b5,
0.0527425833333333,vocal,Note On,3,a5,
0,vocal,Note On,3,a5,
0,vocal,Note On,3,a5,
0,vocal,Note On,3,a5,
0,vocal,Note On,3,a5,
0.210970333333333,vocal,Note Off,3,a5,
0,vocal,Note Off,3,a5,
0,vocal,Note Off,3,a5,
0,vocal,Note Off,3,a5,
0,vocal,Note Off,3,a5,
0.105485166666667,vocal,Note On,3,b5,
0,vocal,Note On,3,b5,
0,vocal,Note On,3,b5,
0,vocal,Note On,3,b5,
0,vocal,Note On,3,b5,
0.105485166666667,vocal,Note Off,3,b5,
0,vocal,Note Off,3,b5,
0,vocal,Note Off,3,b5,
0,vocal,Note Off,3,b5,
0,vocal,Note Off,3,b5,
0.0527425833333333,vocal,Note On,3,b5,
0,vocal,Note On,3,b5,
0,vocal,Note On,3,b5,
0,vocal,Note On,3,b5,
0,vocal,Note On,3,b5,
0.105485166666667,vocal,Note Off,3,b5,
0,vocal,Note Off,3,b5,
0,vocal,Note Off,3,b5,
0,vocal,Note Off,3,b5,
0,vocal,Note Off,3,b5,
0.0527425833333333,vocal,Note On,3,d6,
0,vocal,Note On,3,d6,
0,vocal,Note On,3,d6,
0,vocal,Note On,3,d6,
0,vocal,Note On,3,d6,
0.105485166666667,vocal,Note Off,3,d6,
0,vocal,Note Off,3,d6,
0,vocal,Note Off,3,d6,
0,vocal,Note Off,3,d6,
0,vocal,Note Off,3,d6,
0.0527425833333333,vocal,Note On,3,d6,
0,vocal,Note On,3,d6,
0,vocal,Note On,3,d6,
0,vocal,Note On,3,d6,
0,vocal,Note On,3,d6,
0.105485166666667,vocal,Note Off,3,d6,
0,vocal,Note Off,3,d6,
0,vocal,Note Off,3,d6,
0,vocal,Note Off,3,d6,
0,vocal,Note Off,3,d6,
0.0527425833333333,vocal,Note On,3,d6,
0,vocal,Note On,3,d6,
0,vocal,Note On,3,d6,
0,vocal,Note On,3,d6,
0,vocal,Note On,3,d6,
0.210970333333333,vocal,Note Off,3,d6,
0,vocal,Note Off,3,d6,
0,vocal,Note Off,3,d6,
0,vocal,Note Off,3,d6,
0,vocal,Note Off,3,d6,
0.263712916666667,vocal,Note On,3,e6,
0,vocal,Note On,3,e6,
0,vocal,Note On,3,e6,
0,vocal,Note On,3,e6,
0,vocal,Note On,3,e6,
0.105485166666667,vocal,Note Off,3,e6,
0,vocal,Note Off,3,e6,
0,vocal,Note Off,3,e6,
0,vocal,Note Off,3,e6,
0,vocal,Note Off,3,e6,
0.0527425833333333,vocal,Note On,3,e6,
0,vocal,Note On,3,e6,
0,vocal,Note On,3,e6,
0,vocal,Note On,3,e6,
0,vocal,Note On,3,e6,
0.210970333333333,vocal,Note Off,3,e6,
0,vocal,Note Off,3,e6,
0,vocal,Note Off,3,e6,
0,vocal,Note Off,3,e6,
0,vocal,Note Off,3,e6,
0.421940666666667,vocal,Note On,3,e6,
0,vocal,Note On,3,e6,
0,vocal,Note On,3,e6,
0,vocal,Note On,3,e6,
0,vocal,Note On,3,e6,
0.210970333333333,vocal,Note Off,3,e6,
0,vocal,Note Off,3,e6,
0,vocal,Note Off,3,e6,
0,vocal,Note Off,3,e6,
0,vocal,Note Off,3,e6,
0.105485166666667,vocal,Note On,3,e6,
0,vocal,Note On,3,e6,
0,vocal,Note On,3,e6,
0,vocal,Note On,3,e6,
0,vocal,Note On,3,e6,
0.421940666666667,vocal,Note Off,3,e6,
0,vocal,Note Off,3,e6,
0,vocal,Note Off,3,e6,
0,vocal,Note Off,3,e6,
0,vocal,Note Off,3,e6,
0.527425833333333,vocal,Note On,3,d6,
0,vocal,Note On,3,d6,
0,vocal,Note On,3,d6,
0,vocal,Note On,3,d6,
0,vocal,Note On,3,d6,
0.210970333333333,vocal,Note Off,3,d6,
0,vocal,Note Off,3,d6,
0,vocal,Note Off,3,d6,
0,vocal,Note Off,3,d6,
0,vocal,Note Off,3,d6,
0.105485166666667,vocal,Note On,3,e6,
0,vocal,Note On,3,e6,
0,vocal,Note On,3,e6,
0,vocal,Note On,3,e6,
0,vocal,Note On,3,e6,
0.210970333333333,vocal,Note Off,3,e6,
0,vocal,Note Off,3,e6,
0,vocal,Note Off,3,e6,
0,vocal,Note Off,3,e6,
0,vocal,Note Off,3,e6,
0.105485166666667,vocal,Note On,3,b5,
0,vocal,Note On,3,b5,
0,vocal,Note On,3,b5,
0,vocal,Note On,3,b5,
0,vocal,Note On,3,b5,
0.210970333333333,vocal,Note Off,3,b5,
0,vocal,Note Off,3,b5,
0,vocal,Note Off,3,b5,
0,vocal,Note Off,3,b5,
0,vocal,Note Off,3,b5,
0.105485166666667,vocal,Note On,3,b5,
0,vocal,Note On,3,b5,
0,vocal,Note On,3,b5,
0,vocal,Note On,3,b5,
0,vocal,Note On,3,b5,
0.105485166666667,vocal,Note Off,3,b5,
0,vocal,Note Off,3,b5,
0,vocal,Note Off,3,b5,
0,vocal,Note Off,3,b5,
0,vocal,Note Off,3,b5,
0.0527425833333333,vocal,Note On,3,b5,
0,vocal,Note On,3,b5,
0,vocal,Note On,3,b5,
0,vocal,Note On,3,b5,
0,vocal,Note On,3,b5,
0.105485166666667,vocal,Note Off,3,b5,
0,vocal,Note Off,3,b5,
0,vocal,Note Off,3,b5,
0,vocal,Note Off,3,b5,
0,vocal,Note Off,3,b5,
0.0527425833333333,vocal,Note On,3,b5,
0,vocal,Note On,3,b5,
0,vocal,Note On,3,b5,
0,vocal,Note On,3,b5,
0,vocal,Note On,3,b5,
0.105485166666667,vocal,Note Off,3,b5,
0,vocal,Note Off,3,b5,
0,vocal,Note Off,3,b5,
0,vocal,Note Off,3,b5,
0,vocal,Note Off,3,b5,
0.0527425833333333,vocal,Note On,3,b5,
0,vocal,Note On,3,b5,
0,vocal,Note On,3,b5,
0,vocal,Note On,3,b5,
0,vocal,Note On,3,b5,
0.105485166666667,vocal,Note Off,3,b5,
0,vocal,Note Off,3,b5,
0,vocal,Note Off,3,b5,
0,vocal,Note Off,3,b5,
0,vocal,Note Off,3,b5,
0.0527425833333333,vocal,Note On,3,b5,
0,vocal,Note On,3,b5,
0,vocal,Note On,3,b5,
0,vocal,Note On,3,b5,
0,vocal,Note On,3,b5,
0.105485166666667,vocal,Note Off,3,b5,
0,vocal,Note Off,3,b5,
0,vocal,Note Off,3,b5,
0,vocal,Note Off,3,b5,
0,vocal,Note Off,3,b5,
0.0527425833333333,vocal,Note On,3,b5,
0,vocal,Note On,3,b5,
0,vocal,Note On,3,b5,
0,vocal,Note On,3,b5,
0,vocal,Note On,3,b5,
0.105485166666667,vocal,Note Off,3,b5,
0,vocal,Note Off,3,b5,
0,vocal,Note Off,3,b5,
0,vocal,Note Off,3,b5,
0,vocal,Note Off,3,b5,
0.0527425833333333,vocal,Note On,3,b5,
0,vocal,Note On,3,b5,
0,vocal,Note On,3,b5,
0,vocal,Note On,3,b5,
0,vocal,Note On,3,b5,
0.105485166666667,vocal,Note Off,3,b5,
0,vocal,Note Off,3,b5,
0,vocal,Note Off,3,b5,
0,vocal,Note Off,3,b5,
0,vocal,Note Off,3,b5,
0.0527425833333333,vocal,Note On,3,b5,
0,vocal,Note On,3,b5,
0,vocal,Note On,3,b5,
0,vocal,Note On,3,b5,
0,vocal,Note On,3,b5,
0.105485166666667,vocal,Note Off,3,b5,
0,vocal,Note Off,3,b5,
0,vocal,Note Off,3,b5,
0,vocal,Note Off,3,b5,
0,vocal,Note Off,3,b5,
0.0527425833333333,vocal,Note On,3,d6,
0,vocal,Note On,3,d6,
0,vocal,Note On,3,d6,
0,vocal,Note On,3,d6,
0,vocal,Note On,3,d6,
0.105485166666667,vocal,Note Off,3,d6,
0,vocal,Note Off,3,d6,
0,vocal,Note Off,3,d6,
0,vocal,Note Off,3,d6,
0,vocal,Note Off,3,d6,
0.0527425833333333,vocal,Note On,3,d6,
0,vocal,Note On,3,d6,
0,vocal,Note On,3,d6,
0,vocal,Note On,3,d6,
0,vocal,Note On,3,d6,
0.105485166666667,vocal,Note Off,3,d6,
0,vocal,Note Off,3,d6,
0,vocal,Note Off,3,d6,
0,vocal,Note Off,3,d6,
0,vocal,Note Off,3,d6,
0.0527425833333333,vocal,Note On,3,b5,
0,vocal,Note On,3,b5,
0,vocal,Note On,3,b5,
0,vocal,Note On,3,b5,
0,vocal,Note On,3,b5,
0.210970333333333,vocal,Note Off,3,b5,
0,vocal,Note Off,3,b5,
0,vocal,Note Off,3,b5,
0,vocal,Note Off,3,b5,
0,vocal,Note Off,3,b5,
0.263712916666667,vocal,Note On,3,b5,
0,vocal,Note On,3,b5,
0,vocal,Note On,3,b5,
0,vocal,Note On,3,b5,
0,vocal,Note On,3,b5,
0.105485166666667,vocal,Note Off,3,b5,
0,vocal,Note Off,3,b5,
0,vocal,Note Off,3,b5,
0,vocal,Note Off,3,b5,
0,vocal,Note Off,3,b5,
0.0527425833333333,vocal,Note On,3,d6,
0,vocal,Note On,3,d6,
0,vocal,Note On,3,d6,
0,vocal,Note On,3,d6,
0,vocal,Note On,3,d6,
0.210970333333333,vocal,Note Off,3,d6,
0,vocal,Note Off,3,d6,
0,vocal,Note Off,3,d6,
0,vocal,Note Off,3,d6,
0,vocal,Note Off,3,d6,
0.105485166666667,vocal,Note On,3,b5,
0,vocal,Note On,3,b5,
0,vocal,Note On,3,b5,
0,vocal,Note On,3,b5,
0,vocal,Note On,3,b5,
0.421940666666667,vocal,Note Off,3,b5,
0,vocal,Note Off,3,b5,
0,vocal,Note Off,3,b5,
0,vocal,Note Off,3,b5,
0,vocal,Note Off,3,b5,
1.47679233333333,vocal,Note On,3,b5,
0,vocal,Note On,3,b5,
0,vocal,Note On,3,b5,
0,vocal,Note On,3,b5,
0,vocal,Note On,3,b5,
0.105485166666667,vocal,Note Off,3,b5,
0,vocal,Note Off,3,b5,
0,vocal,Note Off,3,b5,
0,vocal,Note Off,3,b5,
0,vocal,Note Off,3,b5,
0.0527425833333333,vocal,Note On,3,b5,
0,vocal,Note On,3,b5,
0,vocal,Note On,3,b5,
0,vocal,Note On,3,b5,
0,vocal,Note On,3,b5,
0.3164555,vocal,Note Off,3,b5,
0,vocal,Note Off,3,b5,
0,vocal,Note Off,3,b5,
0,vocal,Note Off,3,b5,
0,vocal,Note Off,3,b5,
0.15822775,vocal,Note On,3,d6,
0,vocal,Note On,3,d6,
0,vocal,Note On,3,d6,
0,vocal,Note On,3,d6,
0,vocal,Note On,3,d6,
0.15822775,vocal,Note On,3,b5,
0,vocal,Note On,3,b5,
0,vocal,Note On,3,b5,
0,vocal,Note On,3,b5,
0,vocal,Note On,3,b5,
0.263712916666667,vocal,Note Off,3,d6,
0,vocal,Note Off,3,d6,
0,vocal,Note Off,3,d6,
0,vocal,Note Off,3,d6,
0,vocal,Note Off,3,d6,
0.0527425833333333,vocal,Note Off,3,b5,
0,vocal,Note Off,3,b5,
0,vocal,Note Off,3,b5,
0,vocal,Note Off,3,b5,
0,vocal,Note Off,3,b5,
1.42404975,vocal,Note On,3,e6,
0,vocal,Note On,3,e6,
0,vocal,Note On,3,e6,
0,vocal,Note On,3,e6,
0,vocal,Note On,3,e6,
0.105485166666667,vocal,Note Off,3,e6,
0,vocal,Note Off,3,e6,
0,vocal,Note Off,3,e6,
0,vocal,Note Off,3,e6,
0,vocal,Note Off,3,e6,
0.0527425833333333,vocal,Note On,3,e6,
0,vocal,Note On,3,e6,
0,vocal,Note On,3,e6,
0,vocal,Note On,3,e6,
0,vocal,Note On,3,e6,
0.3164555,vocal,Note Off,3,e6,
0,vocal,Note Off,3,e6,
0,vocal,Note Off,3,e6,
0,vocal,Note Off,3,e6,
0,vocal,Note Off,3,e6,
0.15822775,vocal,Note On,3,b5,
0,vocal,Note On,3,b5,
0,vocal,Note On,3,b5,
0,vocal,Note On,3,b5,
0,vocal,Note On,3,b5,
0.421940666666667,vocal,Note Off,3,b5,
0,vocal,Note Off,3,b5,
0,vocal,Note Off,3,b5,
0,vocal,Note Off,3,b5,
0,vocal,Note Off,3,b5,
1.47679233333333,vocal,Note On,3,b5,
0,vocal,Note On,3,b5,
0,vocal,Note On,3,b5,
0,vocal,Note On,3,b5,
0,vocal,Note On,3,b5,
0.105485166666667,vocal,Note Off,3,b5,
0,vocal,Note Off,3,b5,
0,vocal,Note Off,3,b5,
0,vocal,Note Off,3,b5,
0,vocal,Note Off,3,b5,
0.0527425833333333,vocal,Note On,3,b5,
0,vocal,Note On,3,b5,
0,vocal,Note On,3,b5,
0,vocal,Note On,3,b5,
0,vocal,Note On,3,b5,
0.3164555,vocal,Note Off,3,b5,
0,vocal,Note Off,3,b5,
0,vocal,Note Off,3,b5,
0,vocal,Note Off,3,b5,
0,vocal,Note Off,3,b5,
0.15822775,vocal,Note On,3,d6,
0,vocal,Note On,3,d6,
0,vocal,Note On,3,d6,
0,vocal,Note On,3,d6,
0,vocal,Note On,3,d6,
0.421940666666667,vocal,Note Off,3,d6,
0,vocal,Note Off,3,d6,
0,vocal,Note Off,3,d6,
0,vocal,Note Off,3,d6,
0,vocal,Note Off,3,d6,
2.42615883333333,vocal,Note On,3,a5,
0,vocal,Note On,3,a5,
0,vocal,Note On,3,a5,
0,vocal,Note On,3,a5,
0,vocal,Note On,3,a5,
0.632911,vocal,Note Off,3,a5,
0,vocal,Note Off,3,a5,
0,vocal,Note Off,3,a5,
0,vocal,Note Off,3,a5,
0,vocal,Note Off,3,a5,
0,vocal,Note On,3,b5,
0,vocal,Note On,3,b5,
0,vocal,Note On,3,b5,
0,vocal,Note On,3,b5,
0,vocal,Note On,3,b5,
0.210970333333333,vocal,Note Off,3,b5,
0,vocal,Note Off,3,b5,
0,vocal,Note Off,3,b5,
0,vocal,Note Off,3,b5,
0,vocal,Note Off,3,b5,
0.105485166666667,vocal,Note On,3,c#6,
0,vocal,Note On,3,c#6,
0,vocal,Note On,3,c#6,
0,vocal,Note On,3,c#6,
0,vocal,Note On,3,c#6,
0.3164555,vocal,Note Off,3,c#6,
0,vocal,Note Off,3,c#6,
0,vocal,Note Off,3,c#6,
0,vocal,Note Off,3,c#6,
0,vocal,Note Off,3,c#6,
0.15822775,vocal,Note On,3,b5,
0,vocal,Note On,3,b5,
0,vocal,Note On,3,b5,
0,vocal,Note On,3,b5,
0,vocal,Note On,3,b5,
0.210970333333333,vocal,Note Off,3,b5,
0,vocal,Note Off,3,b5,
0,vocal,Note Off,3,b5,
0,vocal,Note Off,3,b5,
0,vocal,Note Off,3,b5,
0.263712916666667,vocal,Note On,3,c#6,
0,vocal,Note On,3,c#6,
0,vocal,Note On,3,c#6,
0,vocal,Note On,3,c#6,
0,vocal,Note On,3,c#6,
0.210970333333333,vocal,Note Off,3,c#6,
0,vocal,Note Off,3,c#6,
0,vocal,Note Off,3,c#6,
0,vocal,Note Off,3,c#6,
0,vocal,Note Off,3,c#6,
0.421940666666667,vocal,Note On,3,a5,
0,vocal,Note On,3,a5,
0,vocal,Note On,3,a5,
0,vocal,Note On,3,a5,
0,vocal,Note On,3,a5,
0.632911,vocal,Note Off,3,a5,
0,vocal,Note Off,3,a5,
0,vocal,Note Off,3,a5,
0,vocal,Note Off,3,a5,
0,vocal,Note Off,3,a5,
0,vocal,Note On,3,b5,
0,vocal,Note On,3,b5,
0,vocal,Note On,3,b5,
0,vocal,Note On,3,b5,
0,vocal,Note On,3,b5,
0.210970333333333,vocal,Note Off,3,b5,
0,vocal,Note Off,3,b5,
0,vocal,Note Off,3,b5,
0,vocal,Note Off,3,b5,
0,vocal,Note Off,3,b5,
0.105485166666667,vocal,Note On,3,c#6,
0,vocal,Note On,3,c#6,
0,vocal,Note On,3,c#6,
0,vocal,Note On,3,c#6,
0,vocal,Note On,3,c#6,
0.3164555,vocal,Note Off,3,c#6,
0,vocal,Note Off,3,c#6,
0,vocal,Note Off,3,c#6,
0,vocal,Note Off,3,c#6,
0,vocal,Note Off,3,c#6,
0.15822775,vocal,Note On,3,b5,
0,vocal,Note On,3,b5,
0,vocal,Note On,3,b5,
0,vocal,Note On,3,b5,
0,vocal,Note On,3,b5,
0.210970333333333,vocal,Note Off,3,b5,
0,vocal,Note Off,3,b5,
0,vocal,Note Off,3,b5,
0,vocal,Note Off,3,b5,
0,vocal,Note Off,3,b5,
0.105485166666667,vocal,Note On,3,c#6,
0,vocal,Note On,3,c#6,
0,vocal,Note On,3,c#6,
0,vocal,Note On,3,c#6,
0,vocal,Note On,3,c#6,
0.105485166666667,vocal,Note Off,3,c#6,
0,vocal,Note Off,3,c#6,
0,vocal,Note Off,3,c#6,
0,vocal,Note Off,3,c#6,
0,vocal,Note Off,3,c#6,
0.0527425833333333,vocal,Note On,3,c#6,
0,vocal,Note On,3,c#6,
0,vocal,Note On,3,c#6,
0,vocal,Note On,3,c#6,
0,vocal,Note On,3,c#6,
0.210970333333333,vocal,Note Off,3,c#6,
0,vocal,Note Off,3,c#6,
0,vocal,Note Off,3,c#6,
0,vocal,Note Off,3,c#6,
0,vocal,Note Off,3,c#6,
0.105485166666667,vocal,Note On,3,d6,
0,vocal,Note On,3,d6,
0,vocal,Note On,3,d6,
0,vocal,Note On,3,d6,
0,vocal,Note On,3,d6,
0.105485166666667,vocal,Note Off,3,d6,
0,vocal,Note Off,3,d6,
0,vocal,Note Off,3,d6,
0,vocal,Note Off,3,d6,
0,vocal,Note Off,3,d6,
0.0527425833333333,vocal,Note On,3,d6,
0,vocal,Note On,3,d6,
0,vocal,Note On,3,d6,
0,vocal,Note On,3,d6,
0,vocal,Note On,3,d6,
0.210970333333333,vocal,Note Off,3,d6,
0,vocal,Note Off,3,d6,
0,vocal,Note Off,3,d6,
0,vocal,Note Off,3,d6,
0,vocal,Note Off,3,d6,
0.105485166666667,vocal,Note On,3,d6,
0,vocal,Note On,3,d6,
0,vocal,Note On,3,d6,
0,vocal,Note On,3,d6,
0,vocal,Note On,3,d6,
0.421940666666667,vocal,Note Off,3,d6,
0,vocal,Note Off,3,d6,
0,vocal,Note Off,3,d6,
0,vocal,Note Off,3,d6,
0,vocal,Note Off,3,d6,
1.16033683333333,vocal,Note On,3,d6,
0,vocal,Note On,3,d6,
0,vocal,Note On,3,d6,
0,vocal,Note On,3,d6,
0,vocal,Note On,3,d6,
0.105485166666667,vocal,Note Off,3,d6,
0,vocal,Note Off,3,d6,
0,vocal,Note Off,3,d6,
0,vocal,Note Off,3,d6,
0,vocal,Note Off,3,d6,
0.0527425833333333,vocal,Note On,3,d6,
0,vocal,Note On,3,d6,
0,vocal,Note On,3,d6,
0,vocal,Note On,3,d6,
0,vocal,Note On,3,d6,
0.210970333333333,vocal,Note Off,3,d6,
0,vocal,Note Off,3,d6,
0,vocal,Note Off,3,d6,
0,vocal,Note Off,3,d6,
0,vocal,Note Off,3,d6,
0.105485166666667,vocal,Note On,3,f#6,
0,vocal,Note On,3,f#6,
0,vocal,Note On,3,f#6,
0,vocal,Note On,3,f#6,
0,vocal,Note On,3,f#6,
0.3164555,vocal,Note Off,3,f#6,
0,vocal,Note Off,3,f#6,
0,vocal,Note Off,3,f#6,
0,vocal,Note Off,3,f#6,
0,vocal,Note Off,3,f#6,
0.15822775,vocal,Note On,3,d6,
0,vocal,Note On,3,d6,
0,vocal,Note On,3,d6,
0,vocal,Note On,3,d6,
0,vocal,Note On,3,d6,
0.3164555,vocal,Note Off,3,d6,
0,vocal,Note Off,3,d6,
0,vocal,Note Off,3,d6,
0,vocal,Note Off,3,d6,
0,vocal,Note Off,3,d6,
0.15822775,vocal,Note On,3,d6,
0,vocal,Note On,3,d6,
0,vocal,Note On,3,d6,
0,vocal,Note On,3,d6,
0,vocal,Note On,3,d6,
0.632911,vocal,Note Off,3,d6,
0,vocal,Note Off,3,d6,
0,vocal,Note Off,3,d6,
0,vocal,Note Off,3,d6,
0,vocal,Note Off,3,d6,
40.8227595,vocal,Note On,3,b5,
0.3164555,vocal,Note Off,3,b5,
0.15822775,vocal,Note On,3,b5,
0.105485166666667,vocal,Note Off,3,b5,
0.0527425833333333,vocal,Note On,3,b5,
0,vocal,Note On,3,b5,
0,vocal,Note On,3,b5,
0,vocal,Note On,3,b5,
0,vocal,Note On,3,b5,
0.421940666666667,vocal,Note Off,3,b5,
0,vocal,Note Off,3,b5,
0,vocal,Note Off,3,b5,
0,vocal,Note Off,3,b5,
0,vocal,Note Off,3,b5,
1.47679233333333,vocal,Note On,3,b5,
0,vocal,Note On,3,b5,
0,vocal,Note On,3,b5,
0,vocal,Note On,3,b5,
0,vocal,Note On,3,b5,
0.105485166666667,vocal,Note Off,3,b5,
0,vocal,Note Off,3,b5,
0,vocal,Note Off,3,b5,
0,vocal,Note Off,3,b5,
0,vocal,Note Off,3,b5,
0.0527425833333333,vocal,Note On,3,b5,
0,vocal,Note On,3,b5,
0,vocal,Note On,3,b5,
0,vocal,Note On,3,b5,
0,vocal,Note On,3,b5,
0.3164555,vocal,Note Off,3,b5,
0,vocal,Note Off,3,b5,
0,vocal,Note Off,3,b5,
0,vocal,Note Off,3,b5,
0,vocal,Note Off,3,b5,
0.15822775,vocal,Note On,3,d6,
0,vocal,Note On,3,d6,
0,vocal,Note On,3,d6,
0,vocal,Note On,3,d6,
0,vocal,Note On,3,d6,
0.15822775,vocal,Note On,3,b5,
0,vocal,Note On,3,b5,
0,vocal,Note On,3,b5,
0,vocal,Note On,3,b5,
0,vocal,Note On,3,b5,
0.263712916666667,vocal,Note Off,3,d6,
0,vocal,Note Off,3,d6,
0,vocal,Note Off,3,d6,
0,vocal,Note Off,3,d6,
0,vocal,Note Off,3,d6,
0.0527425833333333,vocal,Note Off,3,b5,
0,vocal,Note Off,3,b5,
0,vocal,Note Off,3,b5,
0,vocal,Note Off,3,b5,
0,vocal,Note Off,3,b5,
1.42404975,vocal,Note On,3,e6,
0,vocal,Note On,3,e6,
0,vocal,Note On,3,e6,
0,vocal,Note On,3,e6,
0,vocal,Note On,3,e6,
0.105485166666667,vocal,Note Off,3,e6,
0,vocal,Note Off,3,e6,
0,vocal,Note Off,3,e6,
0,vocal,Note Off,3,e6,
0,vocal,Note Off,3,e6,
0.0527425833333333,vocal,Note On,3,e6,
0,vocal,Note On,3,e6,
0,vocal,Note On,3,e6,
0,vocal,Note On,3,e6,
0,vocal,Note On,3,e6,
0.3164555,vocal,Note Off,3,e6,
0,vocal,Note Off,3,e6,
0,vocal,Note Off,3,e6,
0,vocal,Note Off,3,e6,
0,vocal,Note Off,3,e6,
0.15822775,vocal,Note On,3,b5,
0,vocal,Note On,3,b5,
0,vocal,Note On,3,b5,
0,vocal,Note On,3,b5,
0,vocal,Note On,3,b5,
0.421940666666667,vocal,Note Off,3,b5,
0,vocal,Note Off,3,b5,
0,vocal,Note Off,3,b5,
0,vocal,Note Off,3,b5,
0,vocal,Note Off,3,b5,
1.47679233333333,vocal,Note On,3,b5,
0,vocal,Note On,3,b5,
0,vocal,Note On,3,b5,
0,vocal,Note On,3,b5,
0,vocal,Note On,3,b5,
0.105485166666667,vocal,Note Off,3,b5,
0,vocal,Note Off,3,b5,
0,vocal,Note Off,3,b5,
0,vocal,Note Off,3,b5,
0,vocal,Note Off,3,b5,
0.0527425833333333,vocal,Note On,3,b5,
0,vocal,Note On,3,b5,
0,vocal,Note On,3,b5,
0,vocal,Note On,3,b5,
0,vocal,Note On,3,b5,
0.3164555,vocal,Note Off,3,b5,
0,vocal,Note Off,3,b5,
0,vocal,Note Off,3,b5,
0,vocal,Note Off,3,b5,
0,vocal,Note Off,3,b5,
0.15822775,vocal,Note On,3,d6,
0,vocal,Note On,3,d6,
0,vocal,Note On,3,d6,
0,vocal,Note On,3,d6,
0,vocal,Note On,3,d6,
0.421940666666667,vocal,Note Off,3,d6,
0,vocal,Note Off,3,d6,
0,vocal,Note Off,3,d6,
0,vocal,Note Off,3,d6,
0,vocal,Note Off,3,d6,
2.42615883333333,vocal,Note On,3,a5,
0,vocal,Note On,3,a5,
0,vocal,Note On,3,a5,
0,vocal,Note On,3,a5,
0,vocal,Note On,3,a5,
0.632911,vocal,Note Off,3,a5,
0,vocal,Note Off,3,a5,
0,vocal,Note Off,3,a5,
0,vocal,Note Off,3,a5,
0,vocal,Note Off,3,a5,
0,vocal,Note On,3,b5,
0,vocal,Note On,3,b5,
0,vocal,Note On,3,b5,
0,vocal,Note On,3,b5,
0,vocal,Note On,3,b5,
0.210970333333333,vocal,Note Off,3,b5,
0,vocal,Note Off,3,b5,
0,vocal,Note Off,3,b5,
0,vocal,Note Off,3,b5,
0,vocal,Note Off,3,b5,
0.105485166666667,vocal,Note On,3,c#6,
0,vocal,Note On,3,c#6,
0,vocal,Note On,3,c#6,
0,vocal,Note On,3,c#6,
0,vocal,Note On,3,c#6,
0.3164555,vocal,Note Off,3,c#6,
0,vocal,Note Off,3,c#6,
0,vocal,Note Off,3,c#6,
0,vocal,Note Off,3,c#6,
0,vocal,Note Off,3,c#6,
0.15822775,vocal,Note On,3,b5,
0,vocal,Note On,3,b5,
0,vocal,Note On,3,b5,
0,vocal,Note On,3,b5,
0,vocal,Note On,3,b5,
0.210970333333333,vocal,Note Off,3,b5,
0,vocal,Note Off,3,b5,
0,vocal,Note Off,3,b5,
0,vocal,Note Off,3,b5,
0,vocal,Note Off,3,b5,
0.263712916666667,vocal,Note On,3,c#6,
0,vocal,Note On,3,c#6,
0,vocal,Note On,3,c#6,
0,vocal,Note On,3,c#6,
0,vocal,Note On,3,c#6,
0.210970333333333,vocal,Note Off,3,c#6,
0,vocal,Note Off,3,c#6,
0,vocal,Note Off,3,c#6,
0,vocal,Note Off,3,c#6,
0,vocal,Note Off,3,c#6,
0.421940666666667,vocal,Note On,3,a5,
0,vocal,Note On,3,a5,
0,vocal,Note On,3,a5,
0,vocal,Note On,3,a5,
0,vocal,Note On,3,a5,
0.632911,vocal,Note Off,3,a5,
0,vocal,Note Off,3,a5,
0,vocal,Note Off,3,a5,
0,vocal,Note Off,3,a5,
0,vocal,Note Off,3,a5,
0,vocal,Note On,3,b5,
0,vocal,Note On,3,b5,
0,vocal,Note On,3,b5,
0,vocal,Note On,3,b5,
0,vocal,Note On,3,b5,
0.210970333333333,vocal,Note Off,3,b5,
0,vocal,Note Off,3,b5,
0,vocal,Note Off,3,b5,
0,vocal,Note Off,3,b5,
0,vocal,Note Off,3,b5,
0.105485166666667,vocal,Note On,3,c#6,
0,vocal,Note On,3,c#6,
0,vocal,Note On,3,c#6,
0,vocal,Note On,3,c#6,
0,vocal,Note On,3,c#6,
0.3164555,vocal,Note Off,3,c#6,
0,vocal,Note Off,3,c#6,
0,vocal,Note Off,3,c#6,
0,vocal,Note Off,3,c#6,
0,vocal,Note Off,3,c#6,
0.15822775,vocal,Note On,3,b5,
0,vocal,Note On,3,b5,
0,vocal,Note On,3,b5,
0,vocal,Note On,3,b5,
0,vocal,Note On,3,b5,
0.210970333333333,vocal,Note Off,3,b5,
0,vocal,Note Off,3,b5,
0,vocal,Note Off,3,b5,
0,vocal,Note Off,3,b5,
0,vocal,Note Off,3,b5,
0.105485166666667,vocal,Note On,3,c#6,
0,vocal,Note On,3,c#6,
0,vocal,Note On,3,c#6,
0,vocal,Note On,3,c#6,
0,vocal,Note On,3,c#6,
0.105485166666667,vocal,Note Off,3,c#6,
0,vocal,Note Off,3,c#6,
0,vocal,Note Off,3,c#6,
0,vocal,Note Off,3,c#6,
0,vocal,Note Off,3,c#6,
0.0527425833333333,vocal,Note On,3,c#6,
0,vocal,Note On,3,c#6,
0,vocal,Note On,3,c#6,
0,vocal,Note On,3,c#6,
0,vocal,Note On,3,c#6,
0.210970333333333,vocal,Note Off,3,c#6,
0,vocal,Note Off,3,c#6,
0,vocal,Note Off,3,c#6,
0,vocal,Note Off,3,c#6,
0,vocal,Note Off,3,c#6,
0.105485166666667,vocal,Note On,3,d6,
0,vocal,Note On,3,d6,
0,vocal,Note On,3,d6,
0,vocal,Note On,3,d6,
0,vocal,Note On,3,d6,
0.105485166666667,vocal,Note Off,3,d6,
0,vocal,Note Off,3,d6,
0,vocal,Note Off,3,d6,
0,vocal,Note Off,3,d6,
0,vocal,Note Off,3,d6,
0.0527425833333333,vocal,Note On,3,d6,
0,vocal,Note On,3,d6,
0,vocal,Note On,3,d6,
0,vocal,Note On,3,d6,
0,vocal,Note On,3,d6,
0.210970333333333,vocal,Note Off,3,d6,
0,vocal,Note Off,3,d6,
0,vocal,Note Off,3,d6,
0,vocal,Note Off,3,d6,
0,vocal,Note Off,3,d6,
0.105485166666667,vocal,Note On,3,d6,
0,vocal,Note On,3,d6,
0,vocal,Note On,3,d6,
0,vocal,Note On,3,d6,
0,vocal,Note On,3,d6,
0.421940666666667,vocal,Note Off,3,d6,
0,vocal,Note Off,3,d6,
0,vocal,Note Off,3,d6,
0,vocal,Note Off,3,d6,
0,vocal,Note Off,3,d6,
1.16033683333333,vocal,Note On,3,d6,
0,vocal,Note On,3,d6,
0,vocal,Note On,3,d6,
0,vocal,Note On,3,d6,
0,vocal,Note On,3,d6,
0.105485166666667,vocal,Note Off,3,d6,
0,vocal,Note Off,3,d6,
0,vocal,Note Off,3,d6,
0,vocal,Note Off,3,d6,
0,vocal,Note Off,3,d6,
0.0527425833333333,vocal,Note On,3,d6,
0,vocal,Note On,3,d6,
0,vocal,Note On,3,d6,
0,vocal,Note On,3,d6,
0,vocal,Note On,3,d6,
0.210970333333333,vocal,Note Off,3,d6,
0,vocal,Note Off,3,d6,
0,vocal,Note Off,3,d6,
0,vocal,Note Off,3,d6,
0,vocal,Note Off,3,d6,
22.2573701666667,vocal,Note On,3,e6,
0.105485166666667,vocal,Note Off,3,e6,
0.0527425833333333,vocal,Note On,3,e6,
0.3164555,vocal,Note Off,3,e6,
0.47468325,vocal,Note On,3,a5,
0.632911,vocal,Note On,3,b5,
0.210970333333333,vocal,Note Off,3,b5,
0.105485166666667,vocal,Note On,3,d#6,
0.3164555,vocal,Note Off,3,a5,
0,vocal,Note Off,3,d#6,
0.15822775,vocal,Note On,3,b5,
0.3164555,vocal,Note Off,3,b5,
0.15822775,vocal,Note On,3,d#6,
0.210970333333333,vocal,Note Off,3,d#6,
0.421940666666667,vocal,Note On,3,a5,
0.632911,vocal,Note On,3,b5,
0.210970333333333,vocal,Note Off,3,b5,
0.105485166666667,vocal,Note On,3,d#6,
0.3164555,vocal,Note Off,3,a5,
0,vocal,Note Off,3,d#6,
0.15822775,vocal,Note On,3,b5,
0.3164555,vocal,Note Off,3,b5,
0.15822775,vocal,Note On,3,d#6,
0.210970333333333,vocal,Note Off,3,d#6,
0.421940666666667,vocal,Note On,3,g6,
0.632911,vocal,Note On,3,e6,
0.210970333333333,vocal,Note Off,3,e6,
0.105485166666667,vocal,Note On,3,e6,
0.3164555,vocal,Note Off,3,g6,
0,vocal,Note Off,3,e6,
0.15822775,vocal,Note On,3,e6,
0.3164555,vocal,Note Off,3,e6,
0.15822775,vocal,Note On,3,e6,
0.210970333333333,vocal,Note Off,3,e6,
0.421940666666667,vocal,Note On,3,g6,
0.632911,vocal,Note On,3,e6,
0.210970333333333,vocal,Note Off,3,e6,
0.105485166666667,vocal,Note On,3,e6,
0.3164555,vocal,Note Off,3,g6,
0,vocal,Note Off,3,e6,
0.15822775,vocal,Note On,3,e6,
0.3164555,vocal,Note Off,3,e6,
0.15822775,vocal,Note On,3,e6,
0.210970333333333,vocal,Note Off,3,e6,
0.421940666666667,vocal,Note On,3,a5,
0.632911,vocal,Note On,3,b5,
0.210970333333333,vocal,Note Off,3,b5,
0.105485166666667,vocal,Note On,3,d#6,
0.3164555,vocal,Note Off,3,a5,
0,vocal,Note Off,3,d#6,
0.15822775,vocal,Note On,3,b5,
0.3164555,vocal,Note Off,3,b5,
0.15822775,vocal,Note On,3,d#6,
0.210970333333333,vocal,Note Off,3,d#6,
0,work track,Program Change,1,c0,
0,lead_guit,Program Change,5,c0,
93.670828,lead_guit,Note On,5,e4,
0,lead_guit,Note On,5,e4,
0,lead_guit,Note On,5,e4,
0.210970333333333,lead_guit,Note Off,5,e4,
0,lead_guit,Note Off,5,e4,
0,lead_guit,Note Off,5,e4,
0.105485166666667,lead_guit,Note On,5,e5,
0,lead_guit,Note On,5,e5,
0,lead_guit,Note On,5,e5,
0.632911,lead_guit,Note Off,5,e5,
0,lead_guit,Note Off,5,e5,
0,lead_guit,Note Off,5,e5,
0.3164555,lead_guit,Note On,5,d5,
0,lead_guit,Note On,5,d5,
0,lead_guit,Note On,5,d5,
0.210970333333333,lead_guit,Note Off,5,d5,
0,lead_guit,Note Off,5,d5,
0,lead_guit,Note Off,5,d5,
0.105485166666667,lead_guit,Note On,5,d5,
0,lead_guit,Note On,5,d5,
0,lead_guit,Note On,5,d5,
0.632911,lead_guit,Note Off,5,d5,
0,lead_guit,Note Off,5,d5,
0,lead_guit,Note Off,5,d5,
0.3164555,lead_guit,Note On,5,c#5,
0,lead_guit,Note On,5,c#5,
0,lead_guit,Note On,5,c#5,
0.210970333333333,lead_guit,Note Off,5,c#5,
0,lead_guit,Note Off,5,c#5,
0,lead_guit,Note Off,5,c#5,
0.105485166666667,lead_guit,Note On,5,c#5,
0,lead_guit,Note On,5,c#5,
0,lead_guit,Note On,5,c#5,
0.632911,lead_guit,Note Off,5,c#5,
0,lead_guit,Note Off,5,c#5,
0,lead_guit,Note Off,5,c#5,
0.3164555,lead_guit,Note On,5,b4,
0,lead_guit,Note On,5,b4,
0,lead_guit,Note On,5,b4,
0.210970333333333,lead_guit,Note Off,5,b4,
0,lead_guit,Note Off,5,b4,
0,lead_guit,Note Off,5,b4,
0.105485166666667,lead_guit,Note On,5,g5,
0,lead_guit,Note On,5,g5,
0,lead_guit,Note On,5,g5,
0.105485166666667,lead_guit,Note Off,5,g5,
0,lead_guit,Note Off,5,g5,
0,lead_guit,Note Off,5,g5,
0.0527425833333333,lead_guit,Note On,5,a5,
0,lead_guit,Note On,5,a5,
0,lead_guit,Note On,5,a5,
0.105485166666667,lead_guit,Note Off,5,a5,
0,lead_guit,Note Off,5,a5,
0,lead_guit,Note Off,5,a5,
0.0527425833333333,lead_guit,Note On,5,a#5,
0,lead_guit,Note On,5,a#5,
0,lead_guit,Note On,5,a#5,
0.0659282291666667,lead_guit,Note Off,5,a#5,
0,lead_guit,Note Off,5,a#5,
0,lead_guit,Note Off,5,a#5,
0.0395569375,lead_guit,Note On,5,a5,
0,lead_guit,Note On,5,a5,
0,lead_guit,Note On,5,a5,
0.0659282291666667,lead_guit,Note Off,5,a5,
0,lead_guit,Note Off,5,a5,
0,lead_guit,Note Off,5,a5,
0.0395569375,lead_guit,Note On,5,g5,
0,lead_guit,Note On,5,g5,
0,lead_guit,Note On,5,g5,
0.0659282291666667,lead_guit,Note Off,5,g5,
0,lead_guit,Note Off,5,g5,
0,lead_guit,Note Off,5,g5,
0.0395569375,lead_guit,Note On,5,a5,
0,lead_guit,Note On,5,a5,
0,lead_guit,Note On,5,a5,
0.105485166666667,lead_guit,Note Off,5,a5,
0,lead_guit,Note Off,5,a5,
0,lead_guit,Note Off,5,a5,
0.0527425833333333,lead_guit,Note On,5,e5,
0,lead_guit,Note On,5,e5,
0,lead_guit,Note On,5,e5,
0.105485166666667,lead_guit,Note Off,5,e5,
0,lead_guit,Note Off,5,e5,
0,lead_guit,Note Off,5,e5,
0.0527425833333333,lead_guit,Note On,5,e4,
0,lead_guit,Note On,5,e4,
0,lead_guit,Note On,5,e4,
0.210970333333333,lead_guit,Note Off,5,e4,
0,lead_guit,Note Off,5,e4,
0,lead_guit,Note Off,5,e4,
0.105485166666667,lead_guit,Note On,5,e5,
0,lead_guit,Note On,5,e5,
0,lead_guit,Note On,5,e5,
0.632911,lead_guit,Note Off,5,e5,
0,lead_guit,Note Off,5,e5,
0,lead_guit,Note Off,5,e5,
0.3164555,lead_guit,Note On,5,d5,
0,lead_guit,Note On,5,d5,
0,lead_guit,Note On,5,d5,
0.210970333333333,lead_guit,Note Off,5,d5,
0,lead_guit,Note Off,5,d5,
0,lead_guit,Note Off,5,d5,
0.105485166666667,lead_guit,Note On,5,d5,
0,lead_guit,Note On,5,d5,
0,lead_guit,Note On,5,d5,
0.632911,lead_guit,Note Off,5,d5,
0,lead_guit,Note Off,5,d5,
0,lead_guit,Note Off,5,d5,
0.3164555,lead_guit,Note On,5,c#5,
0,lead_guit,Note On,5,c#5,
0,lead_guit,Note On,5,c#5,
0.210970333333333,lead_guit,Note Off,5,c#5,
0,lead_guit,Note Off,5,c#5,
0,lead_guit,Note Off,5,c#5,
0.105485166666667,lead_guit,Note On,5,c#5,
0,lead_guit,Note On,5,c#5,
0,lead_guit,Note On,5,c#5,
0.632911,lead_guit,Note Off,5,c#5,
0,lead_guit,Note Off,5,c#5,
0,lead_guit,Note Off,5,c#5,
0.632911,lead_guit,Note On,5,d6,
0,lead_guit,Note On,5,d6,
0,lead_guit,Note On,5,d6,
0.210970333333333,lead_guit,Note Off,5,d6,
0,lead_guit,Note Off,5,d6,
0,lead_guit,Note Off,5,d6,
0.421940666666667,lead_guit,Note On,5,d6,
0,lead_guit,Note On,5,d6,
0,lead_guit,Note On,5,d6,
0.210970333333333,lead_guit,Note Off,5,d6,
0,lead_guit,Note Off,5,d6,
0,lead_guit,Note Off,5,d6,
0.105485166666667,lead_guit,Note On,5,e6,
0,lead_guit,Note On,5,e6,
0,lead_guit,Note On,5,e6,
0.843881333333333,lead_guit,Note Off,5,e6,
0,lead_guit,Note Off,5,e6,
0,lead_guit,Note Off,5,e6,
0.421940666666667,lead_guit,Note On,5,e6,
0,lead_guit,Note On,5,e6,
0,lead_guit,Note On,5,e6,
0.105485166666667,lead_guit,Note Off,5,e6,
0,lead_guit,Note Off,5,e6,
0,lead_guit,Note Off,5,e6,
0.0527425833333333,lead_guit,Note On,5,g6,
0,lead_guit,Note On,5,g6,
0,lead_guit,Note On,5,g6,
0.105485166666667,lead_guit,Note Off,5,g6,
0,lead_guit,Note Off,5,g6,
0,lead_guit,Note Off,5,g6,
0.0527425833333333,lead_guit,Note On,5,e6,
0,lead_guit,Note On,5,e6,
0,lead_guit,Note On,5,e6,
0.105485166666667,lead_guit,Note Off,5,e6,
0,lead_guit,Note Off,5,e6,
0,lead_guit,Note Off,5,e6,
0.210970333333333,lead_guit,Note On,5,e6,
0,lead_guit,Note On,5,e6,
0,lead_guit,Note On,5,e6,
0.421940666666667,lead_guit,Note Off,5,e6,
0,lead_guit,Note Off,5,e6,
0,lead_guit,Note Off,5,e6,
0.210970333333333,lead_guit,Note On,5,e6,
0,lead_guit,Note On,5,e6,
0,lead_guit,Note On,5,e6,
0.105485166666667,lead_guit,Note Off,5,e6,
0,lead_guit,Note Off,5,e6,
0,lead_guit,Note Off,5,e6,
0.0527425833333333,lead_guit,Note On,5,g6,
0,lead_guit,Note On,5,g6,
0,lead_guit,Note On,5,g6,
0.105485166666667,lead_guit,Note Off,5,g6,
0,lead_guit,Note Off,5,g6,
0,lead_guit,Note Off,5,g6,
0.0527425833333333,lead_guit,Note On,5,a6,
0,lead_guit,Note On,5,a6,
0,lead_guit,Note On,5,a6,
0.0527425833333333,lead_guit,Note Off,5,a6,
0,lead_guit,Note Off,5,a6,
0,lead_guit,Note Off,5,a6,
0.0263712916666667,lead_guit,Note On,5,a#6,
0,lead_guit,Note On,5,a#6,
0,lead_guit,Note On,5,a#6,
0.0527425833333333,lead_guit,Note Off,5,a#6,
0,lead_guit,Note Off,5,a#6,
0,lead_guit,Note Off,5,a#6,
0.0263712916666667,lead_guit,Note On,5,a6,
0,lead_guit,Note On,5,a6,
0,lead_guit,Note On,5,a6,
0.0527425833333333,lead_guit,Note Off,5,a6,
0,lead_guit,Note Off,5,a6,
0,lead_guit,Note Off,5,a6,
0.0263712916666667,lead_guit,Note On,5,g#6,
0,lead_guit,Note On,5,g#6,
0,lead_guit,Note On,5,g#6,
0.0527425833333333,lead_guit,Note Off,5,g#6,
0,lead_guit,Note Off,5,g#6,
0,lead_guit,Note Off,5,g#6,
0.184599041666667,lead_guit,Note On,5,a6,
0,lead_guit,Note On,5,a6,
0,lead_guit,Note On,5,a6,
0.105485166666667,lead_guit,Note Off,5,a6,
0,lead_guit,Note Off,5,a6,
0,lead_guit,Note Off,5,a6,
0.0527425833333333,lead_guit,Note On,5,e6,
0,lead_guit,Note On,5,e6,
0,lead_guit,Note On,5,e6,
0.105485166666667,lead_guit,Note Off,5,e6,
0,lead_guit,Note Off,5,e6,
0,lead_guit,Note Off,5,e6,
0.0527425833333333,lead_guit,Note On,5,d6,
0,lead_guit,Note On,5,d6,
0,lead_guit,Note On,5,d6,
0.105485166666667,lead_guit,Note Off,5,d6,
0,lead_guit,Note Off,5,d6,
0,lead_guit,Note Off,5,d6,
0.0527425833333333,lead_guit,Note On,5,e6,
0,lead_guit,Note On,5,e6,
0,lead_guit,Note On,5,e6,
0.421940666666667,lead_guit,Note Off,5,e6,
0,lead_guit,Note Off,5,e6,
0,lead_guit,Note Off,5,e6,
0.369198083333333,lead_guit,Note On,5,g#6,
0,lead_guit,Note On,5,g#6,
0,lead_guit,Note On,5,g#6,
0.105485166666667,lead_guit,Note Off,5,g#6,
0,lead_guit,Note Off,5,g#6,
0,lead_guit,Note Off,5,g#6,
0.0527425833333333,lead_guit,Note On,5,e6,
0,lead_guit,Note On,5,e6,
0,lead_guit,Note On,5,e6,
0.105485166666667,lead_guit,Note Off,5,e6,
0,lead_guit,Note Off,5,e6,
0,lead_guit,Note Off,5,e6,
0.0527425833333333,lead_guit,Note On,5,g#6,
0,lead_guit,Note On,5,g#6,
0,lead_guit,Note On,5,g#6,
0.105485166666667,lead_guit,Note Off,5,g#6,
0,lead_guit,Note Off,5,g#6,
0,lead_guit,Note Off,5,g#6,
0.0527425833333333,lead_guit,Note On,5,a6,
0,lead_guit,Note On,5,a6,
0,lead_guit,Note On,5,a6,
0.105485166666667,lead_guit,Note Off,5,a6,
0,lead_guit,Note Off,5,a6,
0,lead_guit,Note Off,5,a6,
0.0527425833333333,lead_guit,Note On,5,b6,
0,lead_guit,Note On,5,b6,
0,lead_guit,Note On,5,b6,
0.105485166666667,lead_guit,Note Off,5,b6,
0,lead_guit,Note Off,5,b6,
0,lead_guit,Note Off,5,b6,
0.0527425833333333,lead_guit,Note On,5,b6,
0,lead_guit,Note On,5,d#7,
0,lead_guit,Note On,5,b6,
0,lead_guit,Note On,5,d#7,
0,lead_guit,Note On,5,b6,
0,lead_guit,Note On,5,d#7,
0.105485166666667,lead_guit,Note Off,5,b6,
0,lead_guit,Note Off,5,d#7,
0,lead_guit,Note Off,5,b6,
0,lead_guit,Note Off,5,d#7,
0,lead_guit,Note Off,5,b6,
0,lead_guit,Note Off,5,d#7,
0.0527425833333333,lead_guit,Note On,5,d#7,
0,lead_guit,Note On,5,b6,
0,lead_guit,Note On,5,d#7,
0,lead_guit,Note On,5,b6,
0,lead_guit,Note On,5,d#7,
0,lead_guit,Note On,5,b6,
0.632911,lead_guit,Note Off,5,d#7,
0,lead_guit,Note Off,5,b6,
0,lead_guit,Note Off,5,d#7,
0,lead_guit,Note Off,5,b6,
0,lead_guit,Note Off,5,d#7,
0,lead_guit,Note Off,5,b6,
0.15822775,lead_guit,Note On,5,b6,
0,lead_guit,Note On,5,d#7,
0,lead_guit,Note On,5,b6,
0,lead_guit,Note On,5,d#7,
0,lead_guit,Note On,5,b6,
0,lead_guit,Note On,5,d#7,
0.0527425833333333,lead_guit,Note Off,5,b6,
0,lead_guit,Note Off,5,d#7,
0,lead_guit,Note Off,5,b6,
0,lead_guit,Note Off,5,d#7,
0,lead_guit,Note Off,5,b6,
0,lead_guit,Note Off,5,d#7,
0.0263712916666667,lead_guit,Note On,5,d#7,
0,lead_guit,Note On,5,d#7,
0,lead_guit,Note On,5,d#7,
0.0527425833333333,lead_guit,Note Off,5,d#7,
0,lead_guit,Note Off,5,d#7,
0,lead_guit,Note Off,5,d#7,
0.0263712916666667,lead_guit,Note On,5,a6,
0,lead_guit,Note On,5,a6,
0,lead_guit,Note On,5,a6,
0.0527425833333333,lead_guit,Note Off,5,a6,
0,lead_guit,Note Off,5,a6,
0,lead_guit,Note Off,5,a6,
0.0263712916666667,lead_guit,Note On,5,b6,
0,lead_guit,Note On,5,b6,
0,lead_guit,Note On,5,b6,
0.0527425833333333,lead_guit,Note Off,5,b6,
0,lead_guit,Note Off,5,b6,
0,lead_guit,Note Off,5,b6,
1.13396554166667,lead_guit,Note On,5,g#6,
0,lead_guit,Note On,5,d#6,
0,lead_guit,Note On,5,g#6,
0,lead_guit,Note On,5,d#6,
0,lead_guit,Note On,5,g#6,
0,lead_guit,Note On,5,d#6,
0.210970333333333,lead_guit,Note Off,5,g#6,
0,lead_guit,Note Off,5,d#6,
0,lead_guit,Note Off,5,g#6,
0,lead_guit,Note Off,5,d#6,
0,lead_guit,Note Off,5,g#6,
0,lead_guit,Note Off,5,d#6,
0.105485166666667,lead_guit,Note On,5,e6,
0,lead_guit,Note On,5,e6,
0,lead_guit,Note On,5,e6,
0.105485166666667,lead_guit,Note Off,5,e6,
0,lead_guit,Note Off,5,e6,
0,lead_guit,Note Off,5,e6,
0.0527425833333333,lead_guit,Note On,5,g#6,
0,lead_guit,Note On,5,g#6,
0,lead_guit,Note On,5,g#6,
0.105485166666667,lead_guit,Note Off,5,g#6,
0,lead_guit,Note Off,5,g#6,
0,lead_guit,Note Off,5,g#6,
0.0527425833333333,lead_guit,Note On,5,e6,
0,lead_guit,Note On,5,e6,
0,lead_guit,Note On,5,e6,
0.105485166666667,lead_guit,Note Off,5,e6,
0,lead_guit,Note Off,5,e6,
0,lead_guit,Note Off,5,e6,
0.0527425833333333,lead_guit,Note On,5,a6,
0,lead_guit,Note On,5,a6,
0,lead_guit,Note On,5,a6,
0.105485166666667,lead_guit,Note Off,5,a6,
0,lead_guit,Note Off,5,a6,
0,lead_guit,Note Off,5,a6,
0.0527425833333333,lead_guit,Note On,5,g#6,
0,lead_guit,Note On,5,g#6,
0,lead_guit,Note On,5,g#6,
0.105485166666667,lead_guit,Note Off,5,g#6,
0,lead_guit,Note Off,5,g#6,
0,lead_guit,Note Off,5,g#6,
0.0527425833333333,lead_guit,Note On,5,a6,
0,lead_guit,Note On,5,a6,
0,lead_guit,Note On,5,a6,
0.105485166666667,lead_guit,Note Off,5,a6,
0,lead_guit,Note Off,5,a6,
0,lead_guit,Note Off,5,a6,
0.0527425833333333,lead_guit,Note On,5,b6,
0,lead_guit,Note On,5,b6,
0,lead_guit,Note On,5,b6,
0.105485166666667,lead_guit,Note Off,5,b6,
0,lead_guit,Note Off,5,b6,
0,lead_guit,Note Off,5,b6,
0.0527425833333333,lead_guit,Note On,5,d7,
0,lead_guit,Note On,5,d7,
0,lead_guit,Note On,5,d7,
0.105485166666667,lead_guit,Note Off,5,d7,
0,lead_guit,Note Off,5,d7,
0,lead_guit,Note Off,5,d7,
0.0527425833333333,lead_guit,Note On,5,b6,
0,lead_guit,Note On,5,b6,
0,lead_guit,Note On,5,b6,
0.632911,lead_guit,Note Off,5,b6,
0,lead_guit,Note Off,5,b6,
0,lead_guit,Note Off,5,b6,
0.3164555,lead_guit,Note On,5,b6,
0,lead_guit,Note On,5,b6,
0,lead_guit,Note On,5,b6,
0.105485166666667,lead_guit,Note Off,5,b6,
0,lead_guit,Note Off,5,b6,
0,lead_guit,Note Off,5,b6,
0.0527425833333333,lead_guit,Note On,5,e7,
0,lead_guit,Note On,5,e7,
0,lead_guit,Note On,5,e7,
0.105485166666667,lead_guit,Note Off,5,e7,
0,lead_guit,Note Off,5,e7,
0,lead_guit,Note Off,5,e7,
0.0527425833333333,lead_guit,Note On,5,e7,
0,lead_guit,Note On,5,e7,
0,lead_guit,Note On,5,e7,
0.105485166666667,lead_guit,Note Off,5,e7,
0,lead_guit,Note Off,5,e7,
0,lead_guit,Note Off,5,e7,
0.0527425833333333,lead_guit,Note On,5,e7,
0,lead_guit,Note On,5,e7,
0,lead_guit,Note On,5,e7,
0.105485166666667,lead_guit,Note Off,5,e7,
0,lead_guit,Note Off,5,e7,
0,lead_guit,Note Off,5,e7,
0.0527425833333333,lead_guit,Note On,5,e7,
0,lead_guit,Note On,5,e7,
0,lead_guit,Note On,5,e7,
0.210970333333333,lead_guit,Note Off,5,e7,
0,lead_guit,Note Off,5,e7,
0,lead_guit,Note Off,5,e7,
0.105485166666667,lead_guit,Note On,5,e7,
0,lead_guit,Note On,5,e7,
0,lead_guit,Note On,5,e7,
0.105485166666667,lead_guit,Note Off,5,e7,
0,lead_guit,Note Off,5,e7,
0,lead_guit,Note Off,5,e7,
0.0527425833333333,lead_guit,Note On,5,e7,
0,lead_guit,Note On,5,e7,
0,lead_guit,Note On,5,e7,
0.210970333333333,lead_guit,Note Off,5,e7,
0,lead_guit,Note Off,5,e7,
0,lead_guit,Note Off,5,e7,
0.105485166666667,lead_guit,Note On,5,e7,
0,lead_guit,Note On,5,e7,
0,lead_guit,Note On,5,e7,
0.0659282291666667,lead_guit,Note Off,5,e7,
0,lead_guit,Note Off,5,e7,
0,lead_guit,Note Off,5,e7,
0.0395569375,lead_guit,Note On,5,d#7,
0,lead_guit,Note On,5,d#7,
0,lead_guit,Note On,5,d#7,
0.0659282291666667,lead_guit,Note Off,5,d#7,
0,lead_guit,Note Off,5,d#7,
0,lead_guit,Note Off,5,d#7,
0.0395569375,lead_guit,Note On,5,b6,
0,lead_guit,Note On,5,b6,
0,lead_guit,Note On,5,b6,
0.0659282291666667,lead_guit,Note Off,5,b6,
0,lead_guit,Note Off,5,b6,
0,lead_guit,Note Off,5,b6,
0.0395569375,lead_guit,Note On,5,a6,
0,lead_guit,Note On,5,a6,
0,lead_guit,Note On,5,a6,
0.0659282291666667,lead_guit,Note Off,5,a6,
0,lead_guit,Note Off,5,a6,
0,lead_guit,Note Off,5,a6,
0.0395569375,lead_guit,Note On,5,b6,
0,lead_guit,Note On,5,b6,
0,lead_guit,Note On,5,b6,
0.0659282291666667,lead_guit,Note Off,5,b6,
0,lead_guit,Note Off,5,b6,
0,lead_guit,Note Off,5,b6,
0.0395569375,lead_guit,Note On,5,g6,
0,lead_guit,Note On,5,g6,
0,lead_guit,Note On,5,g6,
0.0659282291666667,lead_guit,Note Off,5,g6,
0,lead_guit,Note Off,5,g6,
0,lead_guit,Note Off,5,g6,
0.0395569375,lead_guit,Note On,5,b6,
0,lead_guit,Note On,5,b6,
0,lead_guit,Note On,5,b6,
0.210970333333333,lead_guit,Note Off,5,b6,
0,lead_guit,Note Off,5,b6,
0,lead_guit,Note Off,5,b6,
0.105485166666667,lead_guit,Note On,5,d#7,
0,lead_guit,Note On,5,d#7,
0,lead_guit,Note On,5,d#7,
0.105485166666667,lead_guit,Note Off,5,d#7,
0,lead_guit,Note Off,5,d#7,
0,lead_guit,Note Off,5,d#7,
0.0527425833333333,lead_guit,Note On,5,b6,
0,lead_guit,Note On,5,b6,
0,lead_guit,Note On,5,b6,
0.210970333333333,lead_guit,Note Off,5,b6,
0,lead_guit,Note Off,5,b6,
0,lead_guit,Note Off,5,b6,
0.105485166666667,lead_guit,Note On,5,b6,
0,lead_guit,Note On,5,g7,
0,lead_guit,Note On,5,b6,
0,lead_guit,Note On,5,g7,
0,lead_guit,Note On,5,b6,
0,lead_guit,Note On,5,g7,
0.105485166666667,lead_guit,Note Off,5,b6,
0,lead_guit,Note Off,5,g7,
0,lead_guit,Note Off,5,b6,
0,lead_guit,Note Off,5,g7,
0,lead_guit,Note Off,5,b6,
0,lead_guit,Note Off,5,g7,
0.0527425833333333,lead_guit,Note On,5,b6,
0,lead_guit,Note On,5,b6,
0,lead_guit,Note On,5,b6,
0.0659282291666667,lead_guit,Note Off,5,b6,
0,lead_guit,Note Off,5,b6,
0,lead_guit,Note Off,5,b6,
0.0395569375,lead_guit,Note On,5,a6,
0,lead_guit,Note On,5,a6,
0,lead_guit,Note On,5,a6,
0.0659282291666667,lead_guit,Note Off,5,a6,
0,lead_guit,Note Off,5,a6,
0,lead_guit,Note Off,5,a6,
0.0395569375,lead_guit,Note On,5,g6,
0,lead_guit,Note On,5,g6,
0,lead_guit,Note On,5,g6,
0.0659282291666667,lead_guit,Note Off,5,g6,
0,lead_guit,Note Off,5,g6,
0,lead_guit,Note Off,5,g6,
0.0395569375,lead_guit,Note On,5,a6,
0,lead_guit,Note On,5,a6,
0,lead_guit,Note On,5,a6,
0.105485166666667,lead_guit,Note Off,5,a6,
0,lead_guit,Note Off,5,a6,
0,lead_guit,Note Off,5,a6,
0.0527425833333333,lead_guit,Note On,5,e6,
0,lead_guit,Note On,5,e6,
0,lead_guit,Note On,5,e6,
0.105485166666667,lead_guit,Note Off,5,e6,
0,lead_guit,Note Off,5,e6,
0,lead_guit,Note Off,5,e6,
0.0527425833333333,lead_guit,Note On,5,a6,
0,lead_guit,Note On,5,a6,
0,lead_guit,Note On,5,a6,
0.632911,lead_guit,Note Off,5,a6,
0,lead_guit,Note Off,5,a6,
0,lead_guit,Note Off,5,a6,
0.15822775,lead_guit,Note On,5,d6,
0,lead_guit,Note On,5,d6,
0,lead_guit,Note On,5,d6,
0.105485166666667,lead_guit,Note Off,5,d6,
0,lead_guit,Note Off,5,d6,
0,lead_guit,Note Off,5,d6,
0.0527425833333333,lead_guit,Note On,5,d#6,
0,lead_guit,Note On,5,d#6,
0,lead_guit,Note On,5,d#6,
0.105485166666667,lead_guit,Note Off,5,d#6,
0,lead_guit,Note Off,5,d#6,
0,lead_guit,Note Off,5,d#6,
0.0527425833333333,lead_guit,Note On,5,e6,
0,lead_guit,Note On,5,e6,
0,lead_guit,Note On,5,e6,
0.105485166666667,lead_guit,Note Off,5,e6,
0,lead_guit,Note Off,5,e6,
0,lead_guit,Note Off,5,e6,
0.0527425833333333,lead_guit,Note On,5,g6,
0,lead_guit,Note On,5,g6,
0,lead_guit,Note On,5,g6,
0.105485166666667,lead_guit,Note Off,5,g6,
0,lead_guit,Note Off,5,g6,
0,lead_guit,Note Off,5,g6,
0.0527425833333333,lead_guit,Note On,5,e6,
0,lead_guit,Note On,5,e6,
0,lead_guit,Note On,5,e6,
0.105485166666667,lead_guit,Note Off,5,e6,
0,lead_guit,Note Off,5,e6,
0,lead_guit,Note Off,5,e6,
0.0527425833333333,lead_guit,Note On,5,a6,
0,lead_guit,Note On,5,c#7,
0,lead_guit,Note On,5,a6,
0,lead_guit,Note On,5,c#7,
0,lead_guit,Note On,5,a6,
0,lead_guit,Note On,5,c#7,
0.105485166666667,lead_guit,Note Off,5,a6,
0,lead_guit,Note Off,5,c#7,
0,lead_guit,Note Off,5,a6,
0,lead_guit,Note Off,5,c#7,
0,lead_guit,Note Off,5,a6,
0,lead_guit,Note Off,5,c#7,
0.0527425833333333,lead_guit,Note On,5,e6,
0,lead_guit,Note On,5,e6,
0,lead_guit,Note On,5,e6,
0.105485166666667,lead_guit,Note Off,5,e6,
0,lead_guit,Note Off,5,e6,
0,lead_guit,Note Off,5,e6,
0.0527425833333333,lead_guit,Note On,5,g6,
0,lead_guit,Note On,5,g6,
0,lead_guit,Note On,5,g6,
0.105485166666667,lead_guit,Note Off,5,g6,
0,lead_guit,Note Off,5,g6,
0,lead_guit,Note Off,5,g6,
0.0527425833333333,lead_guit,Note On,5,a6,
0,lead_guit,Note On,5,a6,
0,lead_guit,Note On,5,a6,
0.105485166666667,lead_guit,Note Off,5,a6,
0,lead_guit,Note Off,5,a6,
0,lead_guit,Note Off,5,a6,
0.0527425833333333,lead_guit,Note On,5,b6,
0,lead_guit,Note On,5,b6,
0,lead_guit,Note On,5,b6,
0.105485166666667,lead_guit,Note Off,5,b6,
0,lead_guit,Note Off,5,b6,
0,lead_guit,Note Off,5,b6,
0.0527425833333333,lead_guit,Note On,5,d7,
0,lead_guit,Note On,5,d7,
0,lead_guit,Note On,5,d7,
0.105485166666667,lead_guit,Note Off,5,d7,
0,lead_guit,Note Off,5,d7,
0,lead_guit,Note Off,5,d7,
0.0527425833333333,lead_guit,Note On,5,b6,
0,lead_guit,Note On,5,b6,
0,lead_guit,Note On,5,b6,
0.0527425833333333,lead_guit,Note Off,5,b6,
0,lead_guit,Note Off,5,b6,
0,lead_guit,Note Off,5,b6,
0.0263712916666667,lead_guit,Note On,5,a6,
0,lead_guit,Note On,5,a6,
0,lead_guit,Note On,5,a6,
0.0527425833333333,lead_guit,Note Off,5,a6,
0,lead_guit,Note Off,5,a6,
0,lead_guit,Note Off,5,a6,
0.184599041666667,lead_guit,Note On,5,g#6,
0,lead_guit,Note On,5,g#6,
0,lead_guit,Note On,5,g#6,
0.105485166666667,lead_guit,Note Off,5,g#6,
0,lead_guit,Note Off,5,g#6,
0,lead_guit,Note Off,5,g#6,
0.0527425833333333,lead_guit,Note On,5,a6,
0,lead_guit,Note On,5,a6,
0,lead_guit,Note On,5,a6,
0.105485166666667,lead_guit,Note Off,5,a6,
0,lead_guit,Note Off,5,a6,
0,lead_guit,Note Off,5,a6,
0.0527425833333333,lead_guit,Note On,5,e6,
0,lead_guit,Note On,5,e6,
0,lead_guit,Note On,5,e6,
0.3164555,lead_guit,Note Off,5,e6,
0,lead_guit,Note Off,5,e6,
0,lead_guit,Note Off,5,e6,
0.47468325,lead_guit,Note On,5,e7,
0,lead_guit,Note On,5,e7,
0,lead_guit,Note On,5,e7,
0.369198083333333,lead_guit,Note On,5,e7,
0,lead_guit,Note On,5,e7,
0,lead_guit,Note On,5,e7,
0.0659282291666667,lead_guit,Note Off,5,e7,
0,lead_guit,Note Off,5,e7,
0,lead_guit,Note Off,5,e7,
0.145042104166667,lead_guit,Note On,5,d#7,
0,lead_guit,Note On,5,d#7,
0,lead_guit,Note On,5,d#7,
0.0527425833333333,lead_guit,Note Off,5,e7,
0,lead_guit,Note Off,5,e7,
0,lead_guit,Note Off,5,e7,
0.0131856458333333,lead_guit,Note Off,5,d#7,
0,lead_guit,Note Off,5,d#7,
0,lead_guit,Note Off,5,d#7,
0.0395569375,lead_guit,Note On,5,b6,
0,lead_guit,Note On,5,b6,
0,lead_guit,Note On,5,b6,
0.0659282291666667,lead_guit,Note Off,5,b6,
0,lead_guit,Note Off,5,b6,
0,lead_guit,Note Off,5,b6,
0.250527270833333,lead_guit,Note On,5,a6,
0,lead_guit,Note On,5,a6,
0,lead_guit,Note On,5,a6,
0.0659282291666667,lead_guit,Note Off,5,a6,
0,lead_guit,Note Off,5,a6,
0,lead_guit,Note Off,5,a6,
0.145042104166667,lead_guit,Note On,5,b6,
0,lead_guit,Note On,5,b6,
0,lead_guit,Note On,5,b6,
0.0659282291666667,lead_guit,Note Off,5,b6,
0,lead_guit,Note Off,5,b6,
0,lead_guit,Note Off,5,b6,
0.0395569375,lead_guit,Note On,5,g6,
0,lead_guit,Note On,5,g6,
0,lead_guit,Note On,5,g6,
0.0659282291666667,lead_guit,Note Off,5,g6,
0,lead_guit,Note Off,5,g6,
0,lead_guit,Note Off,5,g6,
0.3560124375,lead_guit,Note On,5,e6,
0,lead_guit,Note On,5,e6,
0,lead_guit,Note On,5,e6,
0.421940666666667,lead_guit,Note Off,5,e6,
0,lead_guit,Note Off,5,e6,
0,lead_guit,Note Off,5,e6,
0.210970333333333,lead_guit,Note On,5,b5,
0,lead_guit,Note On,5,b5,
0,lead_guit,Note On,5,b5,
0.105485166666667,lead_guit,Note Off,5,b5,
0,lead_guit,Note Off,5,b5,
0,lead_guit,Note Off,5,b5,
0.0527425833333333,lead_guit,Note On,5,e6,
0,lead_guit,Note On,5,e6,
0,lead_guit,Note On,5,e6,
0.105485166666667,lead_guit,Note Off,5,e6,
0,lead_guit,Note Off,5,e6,
0,lead_guit,Note Off,5,e6,
0.0527425833333333,lead_guit,Note On,5,d6,
0,lead_guit,Note On,5,d6,
0,lead_guit,Note On,5,d6,
0.105485166666667,lead_guit,Note Off,5,d6,
0,lead_guit,Note Off,5,d6,
0,lead_guit,Note Off,5,d6,
0.0527425833333333,lead_guit,Note On,5,b5,
0,lead_guit,Note On,5,e6,
0,lead_guit,Note On,5,b5,
0,lead_guit,Note On,5,e6,
0,lead_guit,Note On,5,b5,
0,lead_guit,Note On,5,e6,
0.632911,lead_guit,Note Off,5,b5,
0,lead_guit,Note Off,5,e6,
0,lead_guit,Note Off,5,b5,
0,lead_guit,Note Off,5,e6,
0,lead_guit,Note Off,5,b5,
0,lead_guit,Note Off,5,e6,
0.3164555,lead_guit,Note On,5,e6,
0,lead_guit,Note On,5,e6,
0,lead_guit,Note On,5,e6,
0.210970333333333,lead_guit,Note Off,5,e6,
0,lead_guit,Note Off,5,e6,
0,lead_guit,Note Off,5,e6,
0.105485166666667,lead_guit,Note On,5,d6,
0,lead_guit,Note On,5,e6,
0,lead_guit,Note On,5,d6,
0,lead_guit,Note On,5,e6,
0,lead_guit,Note On,5,d6,
0,lead_guit,Note On,5,e6,
0.105485166666667,lead_guit,Note Off,5,d6,
0,lead_guit,Note Off,5,e6,
0,lead_guit,Note Off,5,d6,
0,lead_guit,Note Off,5,e6,
0,lead_guit,Note Off,5,d6,
0,lead_guit,Note Off,5,e6,
0.0527425833333333,lead_guit,Note On,5,d6,
0,lead_guit,Note On,5,d6,
0,lead_guit,Note On,5,d6,
0.421940666666667,lead_guit,Note Off,5,d6,
0,lead_guit,Note Off,5,d6,
0,lead_guit,Note Off,5,d6,
0.210970333333333,lead_guit,Note On,5,e6,
0,lead_guit,Note On,5,c#6,
0,lead_guit,Note On,5,e6,
0,lead_guit,Note On,5,c#6,
0,lead_guit,Note On,5,e6,
0,lead_guit,Note On,5,c#6,
0.105485166666667,lead_guit,Note Off,5,c#6,
0,lead_guit,Note Off,5,c#6,
0,lead_guit,Note Off,5,c#6,
0.0527425833333333,lead_guit,Note On,5,b5,
0,lead_guit,Note On,5,b5,
0,lead_guit,Note On,5,b5,
0.0527425833333333,lead_guit,Note Off,5,e6,
0,lead_guit,Note Off,5,e6,
0,lead_guit,Note Off,5,e6,
0.0527425833333333,lead_guit,Note Off,5,b5,
0,lead_guit,Note Off,5,b5,
0,lead_guit,Note Off,5,b5,
0.0527425833333333,lead_guit,Note On,5,c#6,
0,lead_guit,Note On,5,e6,
0,lead_guit,Note On,5,c#6,
0,lead_guit,Note On,5,e6,
0,lead_guit,Note On,5,c#6,
0,lead_guit,Note On,5,e6,
0.105485166666667,lead_guit,Note Off,5,c#6,
0,lead_guit,Note Off,5,e6,
0,lead_guit,Note Off,5,c#6,
0,lead_guit,Note Off,5,e6,
0,lead_guit,Note Off,5,c#6,
0,lead_guit,Note Off,5,e6,
0.0527425833333333,lead_guit,Note On,5,e6,
0,lead_guit,Note On,5,c#6,
0,lead_guit,Note On,5,e6,
0,lead_guit,Note On,5,c#6,
0,lead_guit,Note On,5,e6,
0,lead_guit,Note On,5,c#6,
0.421940666666667,lead_guit,Note Off,5,e6,
0,lead_guit,Note Off,5,c#6,
0,lead_guit,Note Off,5,e6,
0,lead_guit,Note Off,5,c#6,
0,lead_guit,Note Off,5,e6,
0,lead_guit,Note Off,5,c#6,
0.210970333333333,lead_guit,Note On,5,b6,
0,lead_guit,Note On,5,b6,
0,lead_guit,Note On,5,b6,
0.210970333333333,lead_guit,Note Off,5,b6,
0,lead_guit,Note Off,5,b6,
0,lead_guit,Note Off,5,b6,
0.105485166666667,lead_guit,Note On,5,b6,
0,lead_guit,Note On,5,b6,
0,lead_guit,Note On,5,b6,
0.105485166666667,lead_guit,Note Off,5,b6,
0,lead_guit,Note Off,5,b6,
0,lead_guit,Note Off,5,b6,
0.0527425833333333,lead_guit,Note On,5,e7,
0,lead_guit,Note On,5,e7,
0,lead_guit,Note On,5,e7,
0.105485166666667,lead_guit,Note Off,5,e7,
0,lead_guit,Note Off,5,e7,
0,lead_guit,Note Off,5,e7,
0.0527425833333333,lead_guit,Note On,5,e7,
0,lead_guit,Note On,5,e7,
0,lead_guit,Note On,5,e7,
0.3164555,lead_guit,Note Off,5,e7,
0,lead_guit,Note Off,5,e7,
0,lead_guit,Note Off,5,e7,
0.15822775,lead_guit,Note On,5,g#6,
0,lead_guit,Note On,5,g#6,
0,lead_guit,Note On,5,g#6,
0.210970333333333,lead_guit,Note Off,5,g#6,
0,lead_guit,Note Off,5,g#6,
0,lead_guit,Note Off,5,g#6,
0.105485166666667,lead_guit,Note On,5,e6,
0,lead_guit,Note On,5,e6,
0,lead_guit,Note On,5,e6,
0.105485166666667,lead_guit,Note Off,5,e6,
0,lead_guit,Note Off,5,e6,
0,lead_guit,Note Off,5,e6,
0.0527425833333333,lead_guit,Note On,5,d6,
0,lead_guit,Note On,5,d6,
0,lead_guit,Note On,5,d6,
0.105485166666667,lead_guit,Note Off,5,d6,
0,lead_guit,Note Off,5,d6,
0,lead_guit,Note Off,5,d6,
0.0527425833333333,lead_guit,Note On,5,d6,
0,lead_guit,Note On,5,d6,
0,lead_guit,Note On,5,d6,
0.105485166666667,lead_guit,Note Off,5,d6,
0,lead_guit,Note Off,5,d6,
0,lead_guit,Note Off,5,d6,
0.0527425833333333,lead_guit,Note On,5,e6,
0,lead_guit,Note On,5,e6,
0,lead_guit,Note On,5,e6,
0.421940666666667,lead_guit,Note Off,5,e6,
0,lead_guit,Note Off,5,e6,
0,lead_guit,Note Off,5,e6,
0.210970333333333,lead_guit,Note On,5,e6,
0,lead_guit,Note On,5,e6,
0,lead_guit,Note On,5,e6,
0.105485166666667,lead_guit,Note Off,5,e6,
0,lead_guit,Note Off,5,e6,
0,lead_guit,Note Off,5,e6,
0.0527425833333333,lead_guit,Note On,5,b5,
0,lead_guit,Note On,5,b5,
0,lead_guit,Note On,5,b5,
0.105485166666667,lead_guit,Note Off,5,b5,
0,lead_guit,Note Off,5,b5,
0,lead_guit,Note Off,5,b5,
0.0527425833333333,lead_guit,Note On,5,c#6,
0,lead_guit,Note On,5,c#6,
0,lead_guit,Note On,5,c#6,
0.105485166666667,lead_guit,Note Off,5,c#6,
0,lead_guit,Note Off,5,c#6,
0,lead_guit,Note Off,5,c#6,
0.0527425833333333,lead_guit,Note On,5,e6,
0,lead_guit,Note On,5,d6,
0,lead_guit,Note On,5,e6,
0,lead_guit,Note On,5,d6,
0,lead_guit,Note On,5,e6,
0,lead_guit,Note On,5,d6,
0.632911,lead_guit,Note Off,5,e6,
0,lead_guit,Note Off,5,d6,
0,lead_guit,Note Off,5,e6,
0,lead_guit,Note Off,5,d6,
0,lead_guit,Note Off,5,e6,
0,lead_guit,Note Off,5,d6,
0.3164555,lead_guit,Note On,5,e6,
0,lead_guit,Note On,5,c#6,
0,lead_guit,Note On,5,e6,
0,lead_guit,Note On,5,c#6,
0,lead_guit,Note On,5,e6,
0,lead_guit,Note On,5,c#6,
0.105485166666667,lead_guit,Note Off,5,e6,
0,lead_guit,Note Off,5,c#6,
0,lead_guit,Note Off,5,e6,
0,lead_guit,Note Off,5,c#6,
0,lead_guit,Note Off,5,e6,
0,lead_guit,Note Off,5,c#6,
0.0527425833333333,lead_guit,Note On,5,b5,
0,lead_guit,Note On,5,b5,
0,lead_guit,Note On,5,b5,
0.105485166666667,lead_guit,Note Off,5,b5,
0,lead_guit,Note Off,5,b5,
0,lead_guit,Note Off,5,b5,
0.0527425833333333,lead_guit,Note On,5,b5,
0,lead_guit,Note On,5,b5,
0,lead_guit,Note On,5,b5,
0.105485166666667,lead_guit,Note Off,5,b5,
0,lead_guit,Note Off,5,b5,
0,lead_guit,Note Off,5,b5,
0.0527425833333333,lead_guit,Note On,5,c#6,
0,lead_guit,Note On,5,e6,
0,lead_guit,Note On,5,c#6,
0,lead_guit,Note On,5,e6,
0,lead_guit,Note On,5,c#6,
0,lead_guit,Note On,5,e6,
0.421940666666667,lead_guit,Note Off,5,c#6,
0,lead_guit,Note Off,5,e6,
0,lead_guit,Note Off,5,c#6,
0,lead_guit,Note Off,5,e6,
0,lead_guit,Note Off,5,c#6,
0,lead_guit,Note Off,5,e6,
0.527425833333333,lead_guit,Note On,5,a#6,
0,lead_guit,Note On,5,d7,
0,lead_guit,Note On,5,a#6,
0,lead_guit,Note On,5,d7,
0,lead_guit,Note On,5,a#6,
0,lead_guit,Note On,5,d7,
0.210970333333333,lead_guit,Note Off,5,a#6,
0,lead_guit,Note Off,5,d7,
0,lead_guit,Note Off,5,a#6,
0,lead_guit,Note Off,5,d7,
0,lead_guit,Note Off,5,a#6,
0,lead_guit,Note Off,5,d7,
0.105485166666667,lead_guit,Note On,5,a6,
0,lead_guit,Note On,5,c#7,
0,lead_guit,Note On,5,a6,
0,lead_guit,Note On,5,c#7,
0,lead_guit,Note On,5,a6,
0,lead_guit,Note On,5,c#7,
0.105485166666667,lead_guit,Note Off,5,a6,
0,lead_guit,Note Off,5,c#7,
0,lead_guit,Note Off,5,a6,
0,lead_guit,Note Off,5,c#7,
0,lead_guit,Note Off,5,a6,
0,lead_guit,Note Off,5,c#7,
0.0527425833333333,lead_guit,Note On,5,g#6,
0,lead_guit,Note On,5,b6,
0,lead_guit,Note On,5,g#6,
0,lead_guit,Note On,5,b6,
0,lead_guit,Note On,5,g#6,
0,lead_guit,Note On,5,b6,
0.210970333333333,lead_guit,Note Off,5,g#6,
0,lead_guit,Note Off,5,b6,
0,lead_guit,Note Off,5,g#6,
0,lead_guit,Note Off,5,b6,
0,lead_guit,Note Off,5,g#6,
0,lead_guit,Note Off,5,b6,
0.105485166666667,lead_guit,Note On,5,a#6,
0,lead_guit,Note On,5,d7,
0,lead_guit,Note On,5,a#6,
0,lead_guit,Note On,5,d7,
0,lead_guit,Note On,5,a#6,
0,lead_guit,Note On,5,d7,
0.210970333333333,lead_guit,Note Off,5,a#6,
0,lead_guit,Note Off,5,d7,
0,lead_guit,Note Off,5,a#6,
0,lead_guit,Note Off,5,d7,
0,lead_guit,Note Off,5,a#6,
0,lead_guit,Note Off,5,d7,
0,lo_lead,Program Change,6,c0,
93.670828,lo_lead,Note On,6,e3,
0,lo_lead,Note On,6,e3,
0,lo_lead,Note On,6,e3,
0.210970333333333,lo_lead,Note Off,6,e3,
0,lo_lead,Note Off,6,e3,
0,lo_lead,Note Off,6,e3,
0.105485166666667,lo_lead,Note On,6,e4,
0,lo_lead,Note On,6,e4,
0,lo_lead,Note On,6,e4,
0.632911,lo_lead,Note Off,6,e4,
0,lo_lead,Note Off,6,e4,
0,lo_lead,Note Off,6,e4,
0.3164555,lo_lead,Note On,6,d4,
0,lo_lead,Note On,6,d4,
0,lo_lead,Note On,6,d4,
0.210970333333333,lo_lead,Note Off,6,d4,
0,lo_lead,Note Off,6,d4,
0,lo_lead,Note Off,6,d4,
0.105485166666667,lo_lead,Note On,6,d4,
0,lo_lead,Note On,6,d4,
0,lo_lead,Note On,6,d4,
0.632911,lo_lead,Note Off,6,d4,
0,lo_lead,Note Off,6,d4,
0,lo_lead,Note Off,6,d4,
0.3164555,lo_lead,Note On,6,c#4,
0,lo_lead,Note On,6,c#4,
0,lo_lead,Note On,6,c#4,
0.210970333333333,lo_lead,Note Off,6,c#4,
0,lo_lead,Note Off,6,c#4,
0,lo_lead,Note Off,6,c#4,
0.105485166666667,lo_lead,Note On,6,c#4,
0,lo_lead,Note On,6,c#4,
0,lo_lead,Note On,6,c#4,
0.632911,lo_lead,Note Off,6,c#4,
0,lo_lead,Note Off,6,c#4,
0,lo_lead,Note Off,6,c#4,
0.3164555,lo_lead,Note On,6,b3,
0,lo_lead,Note On,6,b3,
0,lo_lead,Note On,6,b3,
0.210970333333333,lo_lead,Note Off,6,b3,
0,lo_lead,Note Off,6,b3,
0,lo_lead,Note Off,6,b3,
0.105485166666667,lo_lead,Note On,6,g4,
0,lo_lead,Note On,6,g4,
0,lo_lead,Note On,6,g4,
0.105485166666667,lo_lead,Note Off,6,g4,
0,lo_lead,Note Off,6,g4,
0,lo_lead,Note Off,6,g4,
0.0527425833333333,lo_lead,Note On,6,a4,
0,lo_lead,Note On,6,a4,
0,lo_lead,Note On,6,a4,
0.105485166666667,lo_lead,Note Off,6,a4,
0,lo_lead,Note Off,6,a4,
0,lo_lead,Note Off,6,a4,
0.0527425833333333,lo_lead,Note On,6,a#4,
0,lo_lead,Note On,6,a#4,
0,lo_lead,Note On,6,a#4,
0.0659282291666667,lo_lead,Note Off,6,a#4,
0,lo_lead,Note Off,6,a#4,
0,lo_lead,Note Off,6,a#4,
0.0395569375,lo_lead,Note On,6,a4,
0,lo_lead,Note On,6,a4,
0,lo_lead,Note On,6,a4,
0.0659282291666667,lo_lead,Note Off,6,a4,
0,lo_lead,Note Off,6,a4,
0,lo_lead,Note Off,6,a4,
0.0395569375,lo_lead,Note On,6,g4,
0,lo_lead,Note On,6,g4,
0,lo_lead,Note On,6,g4,
0.0659282291666667,lo_lead,Note Off,6,g4,
0,lo_lead,Note Off,6,g4,
0,lo_lead,Note Off,6,g4,
0.0395569375,lo_lead,Note On,6,a4,
0,lo_lead,Note On,6,a4,
0,lo_lead,Note On,6,a4,
0.105485166666667,lo_lead,Note Off,6,a4,
0,lo_lead,Note Off,6,a4,
0,lo_lead,Note Off,6,a4,
0.0527425833333333,lo_lead,Note On,6,e4,
0,lo_lead,Note On,6,e4,
0,lo_lead,Note On,6,e4,
0.105485166666667,lo_lead,Note Off,6,e4,
0,lo_lead,Note Off,6,e4,
0,lo_lead,Note Off,6,e4,
0.0527425833333333,lo_lead,Note On,6,e3,
0,lo_lead,Note On,6,e3,
0,lo_lead,Note On,6,e3,
0.210970333333333,lo_lead,Note Off,6,e3,
0,lo_lead,Note Off,6,e3,
0,lo_lead,Note Off,6,e3,
0.105485166666667,lo_lead,Note On,6,e4,
0,lo_lead,Note On,6,e4,
0,lo_lead,Note On,6,e4,
0.632911,lo_lead,Note Off,6,e4,
0,lo_lead,Note Off,6,e4,
0,lo_lead,Note Off,6,e4,
0.3164555,lo_lead,Note On,6,d4,
0,lo_lead,Note On,6,d4,
0,lo_lead,Note On,6,d4,
0.210970333333333,lo_lead,Note Off,6,d4,
0,lo_lead,Note Off,6,d4,
0,lo_lead,Note Off,6,d4,
0.105485166666667,lo_lead,Note On,6,d4,
0,lo_lead,Note On,6,d4,
0,lo_lead,Note On,6,d4,
0.632911,lo_lead,Note Off,6,d4,
0,lo_lead,Note Off,6,d4,
0,lo_lead,Note Off,6,d4,
0.3164555,lo_lead,Note On,6,c#4,
0,lo_lead,Note On,6,c#4,
0,lo_lead,Note On,6,c#4,
0.210970333333333,lo_lead,Note Off,6,c#4,
0,lo_lead,Note Off,6,c#4,
0,lo_lead,Note Off,6,c#4,
0.105485166666667,lo_lead,Note On,6,c#4,
0,lo_lead,Note On,6,c#4,
0,lo_lead,Note On,6,c#4,
0.632911,lo_lead,Note Off,6,c#4,
0,lo_lead,Note Off,6,c#4,
0,lo_lead,Note Off,6,c#4,
0.632911,lo_lead,Note On,6,d5,
0,lo_lead,Note On,6,d5,
0,lo_lead,Note On,6,d5,
0.210970333333333,lo_lead,Note Off,6,d5,
0,lo_lead,Note Off,6,d5,
0,lo_lead,Note Off,6,d5,
0.421940666666667,lo_lead,Note On,6,d5,
0,lo_lead,Note On,6,d5,
0,lo_lead,Note On,6,d5,
0.210970333333333,lo_lead,Note Off,6,d5,
0,lo_lead,Note Off,6,d5,
0,lo_lead,Note Off,6,d5,
0.105485166666667,lo_lead,Note On,6,e5,
0,lo_lead,Note On,6,e5,
0,lo_lead,Note On,6,e5,
0.843881333333333,lo_lead,Note Off,6,e5,
0,lo_lead,Note Off,6,e5,
0,lo_lead,Note Off,6,e5,
0.421940666666667,lo_lead,Note On,6,e5,
0,lo_lead,Note On,6,e5,
0,lo_lead,Note On,6,e5,
0.105485166666667,lo_lead,Note Off,6,e5,
0,lo_lead,Note Off,6,e5,
0,lo_lead,Note Off,6,e5,
0.0527425833333333,lo_lead,Note On,6,g5,
0,lo_lead,Note On,6,g5,
0,lo_lead,Note On,6,g5,
0.105485166666667,lo_lead,Note Off,6,g5,
0,lo_lead,Note Off,6,g5,
0,lo_lead,Note Off,6,g5,
0.0527425833333333,lo_lead,Note On,6,e5,
0,lo_lead,Note On,6,e5,
0,lo_lead,Note On,6,e5,
0.105485166666667,lo_lead,Note Off,6,e5,
0,lo_lead,Note Off,6,e5,
0,lo_lead,Note Off,6,e5,
0.210970333333333,lo_lead,Note On,6,e5,
0,lo_lead,Note On,6,e5,
0,lo_lead,Note On,6,e5,
0.421940666666667,lo_lead,Note Off,6,e5,
0,lo_lead,Note Off,6,e5,
0,lo_lead,Note Off,6,e5,
0.210970333333333,lo_lead,Note On,6,e5,
0,lo_lead,Note On,6,e5,
0,lo_lead,Note On,6,e5,
0.105485166666667,lo_lead,Note Off,6,e5,
0,lo_lead,Note Off,6,e5,
0,lo_lead,Note Off,6,e5,
0.0527425833333333,lo_lead,Note On,6,g5,
0,lo_lead,Note On,6,g5,
0,lo_lead,Note On,6,g5,
0.105485166666667,lo_lead,Note Off,6,g5,
0,lo_lead,Note Off,6,g5,
0,lo_lead,Note Off,6,g5,
0.0527425833333333,lo_lead,Note On,6,a5,
0,lo_lead,Note On,6,a5,
0,lo_lead,Note On,6,a5,
0.0527425833333333,lo_lead,Note Off,6,a5,
0,lo_lead,Note Off,6,a5,
0,lo_lead,Note Off,6,a5,
0.0263712916666667,lo_lead,Note On,6,a#5,
0,lo_lead,Note On,6,a#5,
0,lo_lead,Note On,6,a#5,
0.0527425833333333,lo_lead,Note Off,6,a#5,
0,lo_lead,Note Off,6,a#5,
0,lo_lead,Note Off,6,a#5,
0.0263712916666667,lo_lead,Note On,6,a5,
0,lo_lead,Note On,6,a5,
0,lo_lead,Note On,6,a5,
0.0527425833333333,lo_lead,Note Off,6,a5,
0,lo_lead,Note Off,6,a5,
0,lo_lead,Note Off,6,a5,
0.0263712916666667,lo_lead,Note On,6,g#5,
0,lo_lead,Note On,6,g#5,
0,lo_lead,Note On,6,g#5,
0.0527425833333333,lo_lead,Note Off,6,g#5,
0,lo_lead,Note Off,6,g#5,
0,lo_lead,Note Off,6,g#5,
0.184599041666667,lo_lead,Note On,6,a5,
0,lo_lead,Note On,6,a5,
0,lo_lead,Note On,6,a5,
0.105485166666667,lo_lead,Note Off,6,a5,
0,lo_lead,Note Off,6,a5,
0,lo_lead,Note Off,6,a5,
0.0527425833333333,lo_lead,Note On,6,e5,
0,lo_lead,Note On,6,e5,
0,lo_lead,Note On,6,e5,
0.105485166666667,lo_lead,Note Off,6,e5,
0,lo_lead,Note Off,6,e5,
0,lo_lead,Note Off,6,e5,
0.0527425833333333,lo_lead,Note On,6,d5,
0,lo_lead,Note On,6,d5,
0,lo_lead,Note On,6,d5,
0.105485166666667,lo_lead,Note Off,6,d5,
0,lo_lead,Note Off,6,d5,
0,lo_lead,Note Off,6,d5,
0.0527425833333333,lo_lead,Note On,6,e5,
0,lo_lead,Note On,6,e5,
0,lo_lead,Note On,6,e5,
0.421940666666667,lo_lead,Note Off,6,e5,
0,lo_lead,Note Off,6,e5,
0,lo_lead,Note Off,6,e5,
0.369198083333333,lo_lead,Note On,6,g#5,
0,lo_lead,Note On,6,g#5,
0,lo_lead,Note On,6,g#5,
0.105485166666667,lo_lead,Note Off,6,g#5,
0,lo_lead,Note Off,6,g#5,
0,lo_lead,Note Off,6,g#5,
0.0527425833333333,lo_lead,Note On,6,e5,
0,lo_lead,Note On,6,e5,
0,lo_lead,Note On,6,e5,
0.105485166666667,lo_lead,Note Off,6,e5,
0,lo_lead,Note Off,6,e5,
0,lo_lead,Note Off,6,e5,
0.0527425833333333,lo_lead,Note On,6,g#5,
0,lo_lead,Note On,6,g#5,
0,lo_lead,Note On,6,g#5,
0.105485166666667,lo_lead,Note Off,6,g#5,
0,lo_lead,Note Off,6,g#5,
0,lo_lead,Note Off,6,g#5,
0.0527425833333333,lo_lead,Note On,6,a5,
0,lo_lead,Note On,6,a5,
0,lo_lead,Note On,6,a5,
0.105485166666667,lo_lead,Note Off,6,a5,
0,lo_lead,Note Off,6,a5,
0,lo_lead,Note Off,6,a5,
0.0527425833333333,lo_lead,Note On,6,b5,
0,lo_lead,Note On,6,b5,
0,lo_lead,Note On,6,b5,
0.105485166666667,lo_lead,Note Off,6,b5,
0,lo_lead,Note Off,6,b5,
0,lo_lead,Note Off,6,b5,
0.0527425833333333,lo_lead,Note On,6,b5,
0,lo_lead,Note On,6,d#6,
0,lo_lead,Note On,6,b5,
0,lo_lead,Note On,6,d#6,
0,lo_lead,Note On,6,b5,
0,lo_lead,Note On,6,d#6,
0.105485166666667,lo_lead,Note Off,6,b5,
0,lo_lead,Note Off,6,d#6,
0,lo_lead,Note Off,6,b5,
0,lo_lead,Note Off,6,d#6,
0,lo_lead,Note Off,6,b5,
0,lo_lead,Note Off,6,d#6,
0.0527425833333333,lo_lead,Note On,6,d#6,
0,lo_lead,Note On,6,b5,
0,lo_lead,Note On,6,d#6,
0,lo_lead,Note On,6,b5,
0,lo_lead,Note On,6,d#6,
0,lo_lead,Note On,6,b5,
0.632911,lo_lead,Note Off,6,d#6,
0,lo_lead,Note Off,6,b5,
0,lo_lead,Note Off,6,d#6,
0,lo_lead,Note Off,6,b5,
0,lo_lead,Note Off,6,d#6,
0,lo_lead,Note Off,6,b5,
0.15822775,lo_lead,Note On,6,b5,
0,lo_lead,Note On,6,d#6,
0,lo_lead,Note On,6,b5,
0,lo_lead,Note On,6,d#6,
0,lo_lead,Note On,6,b5,
0,lo_lead,Note On,6,d#6,
0.0527425833333333,lo_lead,Note Off,6,b5,
0,lo_lead,Note Off,6,d#6,
0,lo_lead,Note Off,6,b5,
0,lo_lead,Note Off,6,d#6,
0,lo_lead,Note Off,6,b5,
0,lo_lead,Note Off,6,d#6,
0.0263712916666667,lo_lead,Note On,6,d#6,
0,lo_lead,Note On,6,d#6,
0,lo_lead,Note On,6,d#6,
0.0527425833333333,lo_lead,Note Off,6,d#6,
0,lo_lead,Note Off,6,d#6,
0,lo_lead,Note Off,6,d#6,
0.0263712916666667,lo_lead,Note On,6,a5,
0,lo_lead,Note On,6,a5,
0,lo_lead,Note On,6,a5,
0.0527425833333333,lo_lead,Note Off,6,a5,
0,lo_lead,Note Off,6,a5,
0,lo_lead,Note Off,6,a5,
0.0263712916666667,lo_lead,Note On,6,b5,
0,lo_lead,Note On,6,b5,
0,lo_lead,Note On,6,b5,
0.0527425833333333,lo_lead,Note Off,6,b5,
0,lo_lead,Note Off,6,b5,
0,lo_lead,Note Off,6,b5,
1.13396554166667,lo_lead,Note On,6,g#5,
0,lo_lead,Note On,6,d#5,
0,lo_lead,Note On,6,g#5,
0,lo_lead,Note On,6,d#5,
0,lo_lead,Note On,6,g#5,
0,lo_lead,Note On,6,d#5,
0.210970333333333,lo_lead,Note Off,6,g#5,
0,lo_lead,Note Off,6,d#5,
0,lo_lead,Note Off,6,g#5,
0,lo_lead,Note Off,6,d#5,
0,lo_lead,Note Off,6,g#5,
0,lo_lead,Note Off,6,d#5,
0.105485166666667,lo_lead,Note On,6,e5,
0,lo_lead,Note On,6,e5,
0,lo_lead,Note On,6,e5,
0.105485166666667,lo_lead,Note Off,6,e5,
0,lo_lead,Note Off,6,e5,
0,lo_lead,Note Off,6,e5,
0.0527425833333333,lo_lead,Note On,6,g#5,
0,lo_lead,Note On,6,g#5,
0,lo_lead,Note On,6,g#5,
0.105485166666667,lo_lead,Note Off,6,g#5,
0,lo_lead,Note Off,6,g#5,
0,lo_lead,Note Off,6,g#5,
0.0527425833333333,lo_lead,Note On,6,e5,
0,lo_lead,Note On,6,e5,
0,lo_lead,Note On,6,e5,
0.105485166666667,lo_lead,Note Off,6,e5,
0,lo_lead,Note Off,6,e5,
0,lo_lead,Note Off,6,e5,
0.0527425833333333,lo_lead,Note On,6,a5,
0,lo_lead,Note On,6,a5,
0,lo_lead,Note On,6,a5,
0.105485166666667,lo_lead,Note Off,6,a5,
0,lo_lead,Note Off,6,a5,
0,lo_lead,Note Off,6,a5,
0.0527425833333333,lo_lead,Note On,6,g#5,
0,lo_lead,Note On,6,g#5,
0,lo_lead,Note On,6,g#5,
0.105485166666667,lo_lead,Note Off,6,g#5,
0,lo_lead,Note Off,6,g#5,
0,lo_lead,Note Off,6,g#5,
0.0527425833333333,lo_lead,Note On,6,a5,
0,lo_lead,Note On,6,a5,
0,lo_lead,Note On,6,a5,
0.105485166666667,lo_lead,Note Off,6,a5,
0,lo_lead,Note Off,6,a5,
0,lo_lead,Note Off,6,a5,
0.0527425833333333,lo_lead,Note On,6,b5,
0,lo_lead,Note On,6,b5,
0,lo_lead,Note On,6,b5,
0.105485166666667,lo_lead,Note Off,6,b5,
0,lo_lead,Note Off,6,b5,
0,lo_lead,Note Off,6,b5,
0.0527425833333333,lo_lead,Note On,6,d6,
0,lo_lead,Note On,6,d6,
0,lo_lead,Note On,6,d6,
0.105485166666667,lo_lead,Note Off,6,d6,
0,lo_lead,Note Off,6,d6,
0,lo_lead,Note Off,6,d6,
0.0527425833333333,lo_lead,Note On,6,b5,
0,lo_lead,Note On,6,b5,
0,lo_lead,Note On,6,b5,
0.632911,lo_lead,Note Off,6,b5,
0,lo_lead,Note Off,6,b5,
0,lo_lead,Note Off,6,b5,
0.3164555,lo_lead,Note On,6,b5,
0,lo_lead,Note On,6,b5,
0,lo_lead,Note On,6,b5,
0.105485166666667,lo_lead,Note Off,6,b5,
0,lo_lead,Note Off,6,b5,
0,lo_lead,Note Off,6,b5,
0.0527425833333333,lo_lead,Note On,6,e6,
0,lo_lead,Note On,6,e6,
0,lo_lead,Note On,6,e6,
0.105485166666667,lo_lead,Note Off,6,e6,
0,lo_lead,Note Off,6,e6,
0,lo_lead,Note Off,6,e6,
0.0527425833333333,lo_lead,Note On,6,e6,
0,lo_lead,Note On,6,e6,
0,lo_lead,Note On,6,e6,
0.105485166666667,lo_lead,Note Off,6,e6,
0,lo_lead,Note Off,6,e6,
0,lo_lead,Note Off,6,e6,
0.0527425833333333,lo_lead,Note On,6,e6,
0,lo_lead,Note On,6,e6,
0,lo_lead,Note On,6,e6,
0.105485166666667,lo_lead,Note Off,6,e6,
0,lo_lead,Note Off,6,e6,
0,lo_lead,Note Off,6,e6,
0.0527425833333333,lo_lead,Note On,6,e6,
0,lo_lead,Note On,6,e6,
0,lo_lead,Note On,6,e6,
0.210970333333333,lo_lead,Note Off,6,e6,
0,lo_lead,Note Off,6,e6,
0,lo_lead,Note Off,6,e6,
0.105485166666667,lo_lead,Note On,6,e6,
0,lo_lead,Note On,6,e6,
0,lo_lead,Note On,6,e6,
0.105485166666667,lo_lead,Note Off,6,e6,
0,lo_lead,Note Off,6,e6,
0,lo_lead,Note Off,6,e6,
0.0527425833333333,lo_lead,Note On,6,e6,
0,lo_lead,Note On,6,e6,
0,lo_lead,Note On,6,e6,
0.210970333333333,lo_lead,Note Off,6,e6,
0,lo_lead,Note Off,6,e6,
0,lo_lead,Note Off,6,e6,
0.105485166666667,lo_lead,Note On,6,e6,
0,lo_lead,Note On,6,e6,
0,lo_lead,Note On,6,e6,
0.0659282291666667,lo_lead,Note Off,6,e6,
0,lo_lead,Note Off,6,e6,
0,lo_lead,Note Off,6,e6,
0.0395569375,lo_lead,Note On,6,d#6,
0,lo_lead,Note On,6,d#6,
0,lo_lead,Note On,6,d#6,
0.0659282291666667,lo_lead,Note Off,6,d#6,
0,lo_lead,Note Off,6,d#6,
0,lo_lead,Note Off,6,d#6,
0.0395569375,lo_lead,Note On,6,b5,
0,lo_lead,Note On,6,b5,
0,lo_lead,Note On,6,b5,
0.0659282291666667,lo_lead,Note Off,6,b5,
0,lo_lead,Note Off,6,b5,
0,lo_lead,Note Off,6,b5,
0.0395569375,lo_lead,Note On,6,a5,
0,lo_lead,Note On,6,a5,
0,lo_lead,Note On,6,a5,
0.0659282291666667,lo_lead,Note Off,6,a5,
0,lo_lead,Note Off,6,a5,
0,lo_lead,Note Off,6,a5,
0.0395569375,lo_lead,Note On,6,b5,
0,lo_lead,Note On,6,b5,
0,lo_lead,Note On,6,b5,
0.0659282291666667,lo_lead,Note Off,6,b5,
0,lo_lead,Note Off,6,b5,
0,lo_lead,Note Off,6,b5,
0.0395569375,lo_lead,Note On,6,g5,
0,lo_lead,Note On,6,g5,
0,lo_lead,Note On,6,g5,
0.0659282291666667,lo_lead,Note Off,6,g5,
0,lo_lead,Note Off,6,g5,
0,lo_lead,Note Off,6,g5,
0.0395569375,lo_lead,Note On,6,b5,
0,lo_lead,Note On,6,b5,
0,lo_lead,Note On,6,b5,
0.210970333333333,lo_lead,Note Off,6,b5,
0,lo_lead,Note Off,6,b5,
0,lo_lead,Note Off,6,b5,
0.105485166666667,lo_lead,Note On,6,d#6,
0,lo_lead,Note On,6,d#6,
0,lo_lead,Note On,6,d#6,
0.105485166666667,lo_lead,Note Off,6,d#6,
0,lo_lead,Note Off,6,d#6,
0,lo_lead,Note Off,6,d#6,
0.0527425833333333,lo_lead,Note On,6,b5,
0,lo_lead,Note On,6,b5,
0,lo_lead,Note On,6,b5,
0.210970333333333,lo_lead,Note Off,6,b5,
0,lo_lead,Note Off,6,b5,
0,lo_lead,Note Off,6,b5,
0.105485166666667,lo_lead,Note On,6,b5,
0,lo_lead,Note On,6,g6,
0,lo_lead,Note On,6,b5,
0,lo_lead,Note On,6,g6,
0,lo_lead,Note On,6,b5,
0,lo_lead,Note On,6,g6,
0.105485166666667,lo_lead,Note Off,6,b5,
0,lo_lead,Note Off,6,g6,
0,lo_lead,Note Off,6,b5,
0,lo_lead,Note Off,6,g6,
0,lo_lead,Note Off,6,b5,
0,lo_lead,Note Off,6,g6,
0.0527425833333333,lo_lead,Note On,6,b5,
0,lo_lead,Note On,6,b5,
0,lo_lead,Note On,6,b5,
0.0659282291666667,lo_lead,Note Off,6,b5,
0,lo_lead,Note Off,6,b5,
0,lo_lead,Note Off,6,b5,
0.0395569375,lo_lead,Note On,6,a5,
0,lo_lead,Note On,6,a5,
0,lo_lead,Note On,6,a5,
0.0659282291666667,lo_lead,Note Off,6,a5,
0,lo_lead,Note Off,6,a5,
0,lo_lead,Note Off,6,a5,
0.0395569375,lo_lead,Note On,6,g5,
0,lo_lead,Note On,6,g5,
0,lo_lead,Note On,6,g5,
0.0659282291666667,lo_lead,Note Off,6,g5,
0,lo_lead,Note Off,6,g5,
0,lo_lead,Note Off,6,g5,
0.0395569375,lo_lead,Note On,6,a5,
0,lo_lead,Note On,6,a5,
0,lo_lead,Note On,6,a5,
0.105485166666667,lo_lead,Note Off,6,a5,
0,lo_lead,Note Off,6,a5,
0,lo_lead,Note Off,6,a5,
0.0527425833333333,lo_lead,Note On,6,e5,
0,lo_lead,Note On,6,e5,
0,lo_lead,Note On,6,e5,
0.105485166666667,lo_lead,Note Off,6,e5,
0,lo_lead,Note Off,6,e5,
0,lo_lead,Note Off,6,e5,
0.0527425833333333,lo_lead,Note On,6,a5,
0,lo_lead,Note On,6,a5,
0,lo_lead,Note On,6,a5,
0.632911,lo_lead,Note Off,6,a5,
0,lo_lead,Note Off,6,a5,
0,lo_lead,Note Off,6,a5,
0.15822775,lo_lead,Note On,6,d5,
0,lo_lead,Note On,6,d5,
0,lo_lead,Note On,6,d5,
0.105485166666667,lo_lead,Note Off,6,d5,
0,lo_lead,Note Off,6,d5,
0,lo_lead,Note Off,6,d5,
0.0527425833333333,lo_lead,Note On,6,d#5,
0,lo_lead,Note On,6,d#5,
0,lo_lead,Note On,6,d#5,
0.105485166666667,lo_lead,Note Off,6,d#5,
0,lo_lead,Note Off,6,d#5,
0,lo_lead,Note Off,6,d#5,
0.0527425833333333,lo_lead,Note On,6,e5,
0,lo_lead,Note On,6,e5,
0,lo_lead,Note On,6,e5,
0.105485166666667,lo_lead,Note Off,6,e5,
0,lo_lead,Note Off,6,e5,
0,lo_lead,Note Off,6,e5,
0.0527425833333333,lo_lead,Note On,6,g5,
0,lo_lead,Note On,6,g5,
0,lo_lead,Note On,6,g5,
0.105485166666667,lo_lead,Note Off,6,g5,
0,lo_lead,Note Off,6,g5,
0,lo_lead,Note Off,6,g5,
0.0527425833333333,lo_lead,Note On,6,e5,
0,lo_lead,Note On,6,e5,
0,lo_lead,Note On,6,e5,
0.105485166666667,lo_lead,Note Off,6,e5,
0,lo_lead,Note Off,6,e5,
0,lo_lead,Note Off,6,e5,
0.0527425833333333,lo_lead,Note On,6,a5,
0,lo_lead,Note On,6,c#6,
0,lo_lead,Note On,6,a5,
0,lo_lead,Note On,6,c#6,
0,lo_lead,Note On,6,a5,
0,lo_lead,Note On,6,c#6,
0.105485166666667,lo_lead,Note Off,6,a5,
0,lo_lead,Note Off,6,c#6,
0,lo_lead,Note Off,6,a5,
0,lo_lead,Note Off,6,c#6,
0,lo_lead,Note Off,6,a5,
0,lo_lead,Note Off,6,c#6,
0.0527425833333333,lo_lead,Note On,6,e5,
0,lo_lead,Note On,6,e5,
0,lo_lead,Note On,6,e5,
0.105485166666667,lo_lead,Note Off,6,e5,
0,lo_lead,Note Off,6,e5,
0,lo_lead,Note Off,6,e5,
0.0527425833333333,lo_lead,Note On,6,g5,
0,lo_lead,Note On,6,g5,
0,lo_lead,Note On,6,g5,
0.105485166666667,lo_lead,Note Off,6,g5,
0,lo_lead,Note Off,6,g5,
0,lo_lead,Note Off,6,g5,
0.0527425833333333,lo_lead,Note On,6,a5,
0,lo_lead,Note On,6,a5,
0,lo_lead,Note On,6,a5,
0.105485166666667,lo_lead,Note Off,6,a5,
0,lo_lead,Note Off,6,a5,
0,lo_lead,Note Off,6,a5,
0.0527425833333333,lo_lead,Note On,6,b5,
0,lo_lead,Note On,6,b5,
0,lo_lead,Note On,6,b5,
0.105485166666667,lo_lead,Note Off,6,b5,
0,lo_lead,Note Off,6,b5,
0,lo_lead,Note Off,6,b5,
0.0527425833333333,lo_lead,Note On,6,d6,
0,lo_lead,Note On,6,d6,
0,lo_lead,Note On,6,d6,
0.105485166666667,lo_lead,Note Off,6,d6,
0,lo_lead,Note Off,6,d6,
0,lo_lead,Note Off,6,d6,
0.0527425833333333,lo_lead,Note On,6,b5,
0,lo_lead,Note On,6,b5,
0,lo_lead,Note On,6,b5,
0.0527425833333333,lo_lead,Note Off,6,b5,
0,lo_lead,Note Off,6,b5,
0,lo_lead,Note Off,6,b5,
0.0263712916666667,lo_lead,Note On,6,a5,
0,lo_lead,Note On,6,a5,
0,lo_lead,Note On,6,a5,
0.0527425833333333,lo_lead,Note Off,6,a5,
0,lo_lead,Note Off,6,a5,
0,lo_lead,Note Off,6,a5,
0.184599041666667,lo_lead,Note On,6,g#5,
0,lo_lead,Note On,6,g#5,
0,lo_lead,Note On,6,g#5,
0.105485166666667,lo_lead,Note Off,6,g#5,
0,lo_lead,Note Off,6,g#5,
0,lo_lead,Note Off,6,g#5,
0.0527425833333333,lo_lead,Note On,6,a5,
0,lo_lead,Note On,6,a5,
0,lo_lead,Note On,6,a5,
0.105485166666667,lo_lead,Note Off,6,a5,
0,lo_lead,Note Off,6,a5,
0,lo_lead,Note Off,6,a5,
0.0527425833333333,lo_lead,Note On,6,e5,
0,lo_lead,Note On,6,e5,
0,lo_lead,Note On,6,e5,
0.3164555,lo_lead,Note Off,6,e5,
0,lo_lead,Note Off,6,e5,
0,lo_lead,Note Off,6,e5,
0.47468325,lo_lead,Note On,6,e6,
0,lo_lead,Note On,6,e6,
0,lo_lead,Note On,6,e6,
0.369198083333333,lo_lead,Note On,6,e6,
0,lo_lead,Note On,6,e6,
0,lo_lead,Note On,6,e6,
0.0659282291666667,lo_lead,Note Off,6,e6,
0,lo_lead,Note Off,6,e6,
0,lo_lead,Note Off,6,e6,
0.145042104166667,lo_lead,Note On,6,d#6,
0,lo_lead,Note On,6,d#6,
0,lo_lead,Note On,6,d#6,
0.0527425833333333,lo_lead,Note Off,6,e6,
0,lo_lead,Note Off,6,e6,
0,lo_lead,Note Off,6,e6,
0.0131856458333333,lo_lead,Note Off,6,d#6,
0,lo_lead,Note Off,6,d#6,
0,lo_lead,Note Off,6,d#6,
0.0395569375,lo_lead,Note On,6,b5,
0,lo_lead,Note On,6,b5,
0,lo_lead,Note On,6,b5,
0.0659282291666667,lo_lead,Note Off,6,b5,
0,lo_lead,Note Off,6,b5,
0,lo_lead,Note Off,6,b5,
0.250527270833333,lo_lead,Note On,6,a5,
0,lo_lead,Note On,6,a5,
0,lo_lead,Note On,6,a5,
0.0659282291666667,lo_lead,Note Off,6,a5,
0,lo_lead,Note Off,6,a5,
0,lo_lead,Note Off,6,a5,
0.145042104166667,lo_lead,Note On,6,b5,
0,lo_lead,Note On,6,b5,
0,lo_lead,Note On,6,b5,
0.0659282291666667,lo_lead,Note Off,6,b5,
0,lo_lead,Note Off,6,b5,
0,lo_lead,Note Off,6,b5,
0.0395569375,lo_lead,Note On,6,g5,
0,lo_lead,Note On,6,g5,
0,lo_lead,Note On,6,g5,
0.0659282291666667,lo_lead,Note Off,6,g5,
0,lo_lead,Note Off,6,g5,
0,lo_lead,Note Off,6,g5,
0.3560124375,lo_lead,Note On,6,e5,
0,lo_lead,Note On,6,e5,
0,lo_lead,Note On,6,e5,
0.421940666666667,lo_lead,Note Off,6,e5,
0,lo_lead,Note Off,6,e5,
0,lo_lead,Note Off,6,e5,
0.210970333333333,lo_lead,Note On,6,b4,
0,lo_lead,Note On,6,b4,
0,lo_lead,Note On,6,b4,
0.105485166666667,lo_lead,Note Off,6,b4,
0,lo_lead,Note Off,6,b4,
0,lo_lead,Note Off,6,b4,
0.0527425833333333,lo_lead,Note On,6,e5,
0,lo_lead,Note On,6,e5,
0,lo_lead,Note On,6,e5,
0.105485166666667,lo_lead,Note Off,6,e5,
0,lo_lead,Note Off,6,e5,
0,lo_lead,Note Off,6,e5,
0.0527425833333333,lo_lead,Note On,6,d5,
0,lo_lead,Note On,6,d5,
0,lo_lead,Note On,6,d5,
0.105485166666667,lo_lead,Note Off,6,d5,
0,lo_lead,Note Off,6,d5,
0,lo_lead,Note Off,6,d5,
0.0527425833333333,lo_lead,Note On,6,b4,
0,lo_lead,Note On,6,e5,
0,lo_lead,Note On,6,b4,
0,lo_lead,Note On,6,e5,
0,lo_lead,Note On,6,b4,
0,lo_lead,Note On,6,e5,
0.632911,lo_lead,Note Off,6,b4,
0,lo_lead,Note Off,6,e5,
0,lo_lead,Note Off,6,b4,
0,lo_lead,Note Off,6,e5,
0,lo_lead,Note Off,6,b4,
0,lo_lead,Note Off,6,e5,
0.3164555,lo_lead,Note On,6,e5,
0,lo_lead,Note On,6,e5,
0,lo_lead,Note On,6,e5,
0.210970333333333,lo_lead,Note Off,6,e5,
0,lo_lead,Note Off,6,e5,
0,lo_lead,Note Off,6,e5,
0.105485166666667,lo_lead,Note On,6,d5,
0,lo_lead,Note On,6,e5,
0,lo_lead,Note On,6,d5,
0,lo_lead,Note On,6,e5,
0,lo_lead,Note On,6,d5,
0,lo_lead,Note On,6,e5,
0.105485166666667,lo_lead,Note Off,6,d5,
0,lo_lead,Note Off,6,e5,
0,lo_lead,Note Off,6,d5,
0,lo_lead,Note Off,6,e5,
0,lo_lead,Note Off,6,d5,
0,lo_lead,Note Off,6,e5,
0.0527425833333333,lo_lead,Note On,6,d5,
0,lo_lead,Note On,6,d5,
0,lo_lead,Note On,6,d5,
0.421940666666667,lo_lead,Note Off,6,d5,
0,lo_lead,Note Off,6,d5,
0,lo_lead,Note Off,6,d5,
0.210970333333333,lo_lead,Note On,6,e5,
0,lo_lead,Note On,6,c#5,
0,lo_lead,Note On,6,e5,
0,lo_lead,Note On,6,c#5,
0,lo_lead,Note On,6,e5,
0,lo_lead,Note On,6,c#5,
0.105485166666667,lo_lead,Note Off,6,c#5,
0,lo_lead,Note Off,6,c#5,
0,lo_lead,Note Off,6,c#5,
0.0527425833333333,lo_lead,Note On,6,b4,
0,lo_lead,Note On,6,b4,
0,lo_lead,Note On,6,b4,
0.0527425833333333,lo_lead,Note Off,6,e5,
0,lo_lead,Note Off,6,e5,
0,lo_lead,Note Off,6,e5,
0.0527425833333333,lo_lead,Note Off,6,b4,
0,lo_lead,Note Off,6,b4,
0,lo_lead,Note Off,6,b4,
0.0527425833333333,lo_lead,Note On,6,c#5,
0,lo_lead,Note On,6,e5,
0,lo_lead,Note On,6,c#5,
0,lo_lead,Note On,6,e5,
0,lo_lead,Note On,6,c#5,
0,lo_lead,Note On,6,e5,
0.105485166666667,lo_lead,Note Off,6,c#5,
0,lo_lead,Note Off,6,e5,
0,lo_lead,Note Off,6,c#5,
0,lo_lead,Note Off,6,e5,
0,lo_lead,Note Off,6,c#5,
0,lo_lead,Note Off,6,e5,
0.0527425833333333,lo_lead,Note On,6,e5,
0,lo_lead,Note On,6,c#5,
0,lo_lead,Note On,6,e5,
0,lo_lead,Note On,6,c#5,
0,lo_lead,Note On,6,e5,
0,lo_lead,Note On,6,c#5,
0.421940666666667,lo_lead,Note Off,6,e5,
0,lo_lead,Note Off,6,c#5,
0,lo_lead,Note Off,6,e5,
0,lo_lead,Note Off,6,c#5,
0,lo_lead,Note Off,6,e5,
0,lo_lead,Note Off,6,c#5,
0.210970333333333,lo_lead,Note On,6,b5,
0,lo_lead,Note On,6,b5,
0,lo_lead,Note On,6,b5,
0.210970333333333,lo_lead,Note Off,6,b5,
0,lo_lead,Note Off,6,b5,
0,lo_lead,Note Off,6,b5,
0.105485166666667,lo_lead,Note On,6,b5,
0,lo_lead,Note On,6,b5,
0,lo_lead,Note On,6,b5,
0.105485166666667,lo_lead,Note Off,6,b5,
0,lo_lead,Note Off,6,b5,
0,lo_lead,Note Off,6,b5,
0.0527425833333333,lo_lead,Note On,6,e6,
0,lo_lead,Note On,6,e6,
0,lo_lead,Note On,6,e6,
0.105485166666667,lo_lead,Note Off,6,e6,
0,lo_lead,Note Off,6,e6,
0,lo_lead,Note Off,6,e6,
0.0527425833333333,lo_lead,Note On,6,e6,
0,lo_lead,Note On,6,e6,
0,lo_lead,Note On,6,e6,
0.3164555,lo_lead,Note Off,6,e6,
0,lo_lead,Note Off,6,e6,
0,lo_lead,Note Off,6,e6,
0.15822775,lo_lead,Note On,6,g#5,
0,lo_lead,Note On,6,g#5,
0,lo_lead,Note On,6,g#5,
0.210970333333333,lo_lead,Note Off,6,g#5,
0,lo_lead,Note Off,6,g#5,
0,lo_lead,Note Off,6,g#5,
0.105485166666667,lo_lead,Note On,6,e5,
0,lo_lead,Note On,6,e5,
0,lo_lead,Note On,6,e5,
0.105485166666667,lo_lead,Note Off,6,e5,
0,lo_lead,Note Off,6,e5,
0,lo_lead,Note Off,6,e5,
0.0527425833333333,lo_lead,Note On,6,d5,
0,lo_lead,Note On,6,d5,
0,lo_lead,Note On,6,d5,
0.105485166666667,lo_lead,Note Off,6,d5,
0,lo_lead,Note Off,6,d5,
0,lo_lead,Note Off,6,d5,
0.0527425833333333,lo_lead,Note On,6,d5,
0,lo_lead,Note On,6,d5,
0,lo_lead,Note On,6,d5,
0.105485166666667,lo_lead,Note Off,6,d5,
0,lo_lead,Note Off,6,d5,
0,lo_lead,Note Off,6,d5,
0.0527425833333333,lo_lead,Note On,6,e5,
0,lo_lead,Note On,6,e5,
0,lo_lead,Note On,6,e5,
0.421940666666667,lo_lead,Note Off,6,e5,
0,lo_lead,Note Off,6,e5,
0,lo_lead,Note Off,6,e5,
0.210970333333333,lo_lead,Note On,6,e5,
0,lo_lead,Note On,6,e5,
0,lo_lead,Note On,6,e5,
0.105485166666667,lo_lead,Note Off,6,e5,
0,lo_lead,Note Off,6,e5,
0,lo_lead,Note Off,6,e5,
0.0527425833333333,lo_lead,Note On,6,b4,
0,lo_lead,Note On,6,b4,
0,lo_lead,Note On,6,b4,
0.105485166666667,lo_lead,Note Off,6,b4,
0,lo_lead,Note Off,6,b4,
0,lo_lead,Note Off,6,b4,
0.0527425833333333,lo_lead,Note On,6,c#5,
0,lo_lead,Note On,6,c#5,
0,lo_lead,Note On,6,c#5,
0.105485166666667,lo_lead,Note Off,6,c#5,
0,lo_lead,Note Off,6,c#5,
0,lo_lead,Note Off,6,c#5,
0.0527425833333333,lo_lead,Note On,6,e5,
0,lo_lead,Note On,6,d5,
0,lo_lead,Note On,6,e5,
0,lo_lead,Note On,6,d5,
0,lo_lead,Note On,6,e5,
0,lo_lead,Note On,6,d5,
0.632911,lo_lead,Note Off,6,e5,
0,lo_lead,Note Off,6,d5,
0,lo_lead,Note Off,6,e5,
0,lo_lead,Note Off,6,d5,
0,lo_lead,Note Off,6,e5,
0,lo_lead,Note Off,6,d5,
0.3164555,lo_lead,Note On,6,e5,
0,lo_lead,Note On,6,c#5,
0,lo_lead,Note On,6,e5,
0,lo_lead,Note On,6,c#5,
0,lo_lead,Note On,6,e5,
0,lo_lead,Note On,6,c#5,
0.105485166666667,lo_lead,Note Off,6,e5,
0,lo_lead,Note Off,6,c#5,
0,lo_lead,Note Off,6,e5,
0,lo_lead,Note Off,6,c#5,
0,lo_lead,Note Off,6,e5,
0,lo_lead,Note Off,6,c#5,
0.0527425833333333,lo_lead,Note On,6,b4,
0,lo_lead,Note On,6,b4,
0,lo_lead,Note On,6,b4,
0.105485166666667,lo_lead,Note Off,6,b4,
0,lo_lead,Note Off,6,b4,
0,lo_lead,Note Off,6,b4,
0.0527425833333333,lo_lead,Note On,6,b4,
0,lo_lead,Note On,6,b4,
0,lo_lead,Note On,6,b4,
0.105485166666667,lo_lead,Note Off,6,b4,
0,lo_lead,Note Off,6,b4,
0,lo_lead,Note Off,6,b4,
0.0527425833333333,lo_lead,Note On,6,c#5,
0,lo_lead,Note On,6,e5,
0,lo_lead,Note On,6,c#5,
0,lo_lead,Note On,6,e5,
0,lo_lead,Note On,6,c#5,
0,lo_lead,Note On,6,e5,
0.421940666666667,lo_lead,Note Off,6,c#5,
0,lo_lead,Note Off,6,e5,
0,lo_lead,Note Off,6,c#5,
0,lo_lead,Note Off,6,e5,
0,lo_lead,Note Off,6,c#5,
0,lo_lead,Note Off,6,e5,
0.527425833333333,lo_lead,Note On,6,a#5,
0,lo_lead,Note On,6,d6,
0,lo_lead,Note On,6,a#5,
0,lo_lead,Note On,6,d6,
0,lo_lead,Note On,6,a#5,
0,lo_lead,Note On,6,d6,
0.210970333333333,lo_lead,Note Off,6,a#5,
0,lo_lead,Note Off,6,d6,
0,lo_lead,Note Off,6,a#5,
0,lo_lead,Note Off,6,d6,
0,lo_lead,Note Off,6,a#5,
0,lo_lead,Note Off,6,d6,
0.105485166666667,lo_lead,Note On,6,a5,
0,lo_lead,Note On,6,c#6,
0,lo_lead,Note On,6,a5,
0,lo_lead,Note On,6,c#6,
0,lo_lead,Note On,6,a5,
0,lo_lead,Note On,6,c#6,
0.105485166666667,lo_lead,Note Off,6,a5,
0,lo_lead,Note Off,6,c#6,
0,lo_lead,Note Off,6,a5,
0,lo_lead,Note Off,6,c#6,
0,lo_lead,Note Off,6,a5,
0,lo_lead,Note Off,6,c#6,
0.0527425833333333,lo_lead,Note On,6,g#5,
0,lo_lead,Note On,6,b5,
0,lo_lead,Note On,6,g#5,
0,lo_lead,Note On,6,b5,
0,lo_lead,Note On,6,g#5,
0,lo_lead,Note On,6,b5,
0.210970333333333,lo_lead,Note Off,6,g#5,
0,lo_lead,Note Off,6,b5,
0,lo_lead,Note Off,6,g#5,
0,lo_lead,Note Off,6,b5,
0,lo_lead,Note Off,6,g#5,
0,lo_lead,Note Off,6,b5,
0.105485166666667,lo_lead,Note On,6,a#5,
0,lo_lead,Note On,6,d6,
0,lo_lead,Note On,6,a#5,
0,lo_lead,Note On,6,d6,
0,lo_lead,Note On,6,a#5,
0,lo_lead,Note On,6,d6,
0.210970333333333,lo_lead,Note Off,6,a#5,
0,lo_lead,Note Off,6,d6,
0,lo_lead,Note Off,6,a#5,
0,lo_lead,Note Off,6,d6,
0,lo_lead,Note Off,6,a#5,
0,lo_lead,Note Off,6,d6,
0,met_drum,Program Change,9,c0,
0,met_drum,Note On,9,c3,
0,met_drum,Note On,9,a#3,
0,met_drum,Note On,9,c#4,
0.210970333333333,met_drum,Note Off,9,a#3,
0.105485166666667,met_drum,Note On,9,f#3,
0.105485166666667,met_drum,Note Off,9,c3,
0,met_drum,Note Off,9,c#4,
0.105485166666667,met_drum,Note Off,9,f#3,
0.105485166666667,met_drum,Note On,9,a#3,
0.210970333333333,met_drum,Note Off,9,a#3,
0.105485166666667,met_drum,Note On,9,f#3,
0.210970333333333,met_drum,Note Off,9,f#3,
0.105485166666667,met_drum,Note On,9,d3,
0,met_drum,Note On,9,a#3,
0.210970333333333,met_drum,Note Off,9,a#3,
0.105485166666667,met_drum,Note On,9,f#3,
0.105485166666667,met_drum,Note Off,9,d3,
0.105485166666667,met_drum,Note Off,9,f#3,
0.105485166666667,met_drum,Note On,9,d3,
0,met_drum,Note On,9,a#3,
0.210970333333333,met_drum,Note Off,9,a#3,
0.105485166666667,met_drum,Note On,9,f#3,
0,met_drum,Note On,9,d3,
0.105485166666667,met_drum,Note Off,9,d3,
0.105485166666667,met_drum,Note Off,9,f#3,
0,met_drum,Note Off,9,d3,
0.105485166666667,met_drum,Note On,9,c3,
0,met_drum,Note On,9,a#3,
0,met_drum,Note On,9,c#4,
0.210970333333333,met_drum,Note Off,9,a#3,
0.105485166666667,met_drum,Note On,9,f#3,
0.105485166666667,met_drum,Note Off,9,c3,
0,met_drum,Note Off,9,c#4,
0.105485166666667,met_drum,Note Off,9,f#3,
0.105485166666667,met_drum,Note On,9,d3,
0,met_drum,Note On,9,a#3,
0.210970333333333,met_drum,Note Off,9,a#3,
0.105485166666667,met_drum,Note On,9,f#3,
0.105485166666667,met_drum,Note Off,9,d3,
0.105485166666667,met_drum,Note Off,9,f#3,
0.105485166666667,met_drum,Note On,9,d3,
0,met_drum,Note On,9,a#3,
0.210970333333333,met_drum,Note Off,9,a#3,
0.105485166666667,met_drum,Note On,9,f#3,
0.105485166666667,met_drum,Note Off,9,d3,
0.105485166666667,met_drum,Note Off,9,f#3,
0.105485166666667,met_drum,Note On,9,d3,
0,met_drum,Note On,9,a#3,
0.210970333333333,met_drum,Note Off,9,a#3,
0.105485166666667,met_drum,Note On,9,f#3,
0.105485166666667,met_drum,Note Off,9,d3,
0.105485166666667,met_drum,Note Off,9,f#3,
0.105485166666667,met_drum,Note On,9,c3,
0,met_drum,Note On,9,a#3,
0,met_drum,Note On,9,c#4,
0.210970333333333,met_drum,Note Off,9,a#3,
0.105485166666667,met_drum,Note On,9,f#3,
0.105485166666667,met_drum,Note Off,9,c3,
0,met_drum,Note Off,9,c#4,
0.105485166666667,met_drum,Note Off,9,f#3,
0.105485166666667,met_drum,Note On,9,d3,
0,met_drum,Note On,9,a#3,
0.210970333333333,met_drum,Note Off,9,a#3,
0.105485166666667,met_drum,Note On,9,f#3,
0.105485166666667,met_drum,Note Off,9,d3,
0.105485166666667,met_drum,Note Off,9,f#3,
0.105485166666667,met_drum,Note On,9,d3,
0,met_drum,Note On,9,a#3,
0.210970333333333,met_drum,Note Off,9,a#3,
0.105485166666667,met_drum,Note On,9,f#3,
0.105485166666667,met_drum,Note Off,9,d3,
0.105485166666667,met_drum,Note Off,9,f#3,
0.105485166666667,met_drum,Note On,9,d3,
0,met_drum,Note On,9,a#3,
0.210970333333333,met_drum,Note Off,9,a#3,
0.105485166666667,met_drum,Note On,9,f#3,
0.105485166666667,met_drum,Note Off,9,d3,
0.105485166666667,met_drum,Note Off,9,f#3,
0.105485166666667,met_drum,Note On,9,c3,
0,met_drum,Note On,9,a#3,
0,met_drum,Note On,9,c#4,
0.210970333333333,met_drum,Note Off,9,a#3,
0.105485166666667,met_drum,Note On,9,f#3,
0.105485166666667,met_drum,Note Off,9,c3,
0,met_drum,Note Off,9,c#4,
0.105485166666667,met_drum,Note Off,9,f#3,
0.105485166666667,met_drum,Note On,9,d3,
0,met_drum,Note On,9,a#3,
0.210970333333333,met_drum,Note Off,9,a#3,
0.105485166666667,met_drum,Note On,9,f#3,
0.105485166666667,met_drum,Note Off,9,d3,
0.105485166666667,met_drum,Note Off,9,f#3,
0.105485166666667,met_drum,Note On,9,d3,
0,met_drum,Note On,9,a#3,
0.210970333333333,met_drum,Note Off,9,a#3,
0.105485166666667,met_drum,Note On,9,f#3,
0.105485166666667,met_drum,Note Off,9,d3,
0.105485166666667,met_drum,Note Off,9,f#3,
0.105485166666667,met_drum,Note On,9,d3,
0,met_drum,Note On,9,a#3,
0.210970333333333,met_drum,Note Off,9,a#3,
0.105485166666667,met_drum,Note On,9,f#3,
0.105485166666667,met_drum,Note Off,9,d3,
0.105485166666667,met_drum,Note Off,9,f#3,
0.105485166666667,met_drum,Note On,9,c3,
0,met_drum,Note On,9,a#3,
0,met_drum,Note On,9,c#4,
0.210970333333333,met_drum,Note Off,9,a#3,
0.105485166666667,met_drum,Note On,9,f#3,
0.105485166666667,met_drum,Note Off,9,c3,
0,met_drum,Note Off,9,c#4,
0.105485166666667,met_drum,Note Off,9,f#3,
0.105485166666667,met_drum,Note On,9,d3,
0,met_drum,Note On,9,a#3,
0.210970333333333,met_drum,Note Off,9,a#3,
0.105485166666667,met_drum,Note On,9,f#3,
0.105485166666667,met_drum,Note Off,9,d3,
0.105485166666667,met_drum,Note Off,9,f#3,
0.105485166666667,met_drum,Note On,9,d3,
0,met_drum,Note On,9,a#3,
0.210970333333333,met_drum,Note Off,9,a#3,
0.105485166666667,met_drum,Note On,9,f#3,
0.105485166666667,met_drum,Note Off,9,d3,
0.105485166666667,met_drum,Note Off,9,f#3,
0.105485166666667,met_drum,Note On,9,d3,
0,met_drum,Note On,9,a#3,
0.210970333333333,met_drum,Note Off,9,a#3,
0.105485166666667,met_drum,Note On,9,f#3,
0.105485166666667,met_drum,Note Off,9,d3,
0.105485166666667,met_drum,Note Off,9,f#3,
0.105485166666667,met_drum,Note On,9,c3,
0,met_drum,Note On,9,a#3,
0,met_drum,Note On,9,c#4,
0.210970333333333,met_drum,Note Off,9,a#3,
0.105485166666667,met_drum,Note On,9,f#3,
0.105485166666667,met_drum,Note Off,9,c3,
0,met_drum,Note Off,9,c#4,
0.105485166666667,met_drum,Note Off,9,f#3,
0.105485166666667,met_drum,Note On,9,d3,
0,met_drum,Note On,9,a#3,
0.210970333333333,met_drum,Note Off,9,a#3,
0.105485166666667,met_drum,Note On,9,f#3,
0.105485166666667,met_drum,Note Off,9,d3,
0.105485166666667,met_drum,Note Off,9,f#3,
0.105485166666667,met_drum,Note On,9,d3,
0,met_drum,Note On,9,a#3,
0.210970333333333,met_drum,Note Off,9,a#3,
0.105485166666667,met_drum,Note On,9,f#3,
0.105485166666667,met_drum,Note Off,9,d3,
0.105485166666667,met_drum,Note Off,9,f#3,
0.105485166666667,met_drum,Note On,9,d3,
0,met_drum,Note On,9,a#3,
0.210970333333333,met_drum,Note Off,9,a#3,
0.105485166666667,met_drum,Note On,9,f#3,
0.105485166666667,met_drum,Note Off,9,d3,
0.105485166666667,met_drum,Note Off,9,f#3,
0.105485166666667,met_drum,Note On,9,c3,
0,met_drum,Note On,9,a#3,
0,met_drum,Note On,9,c#4,
0.210970333333333,met_drum,Note Off,9,a#3,
0.105485166666667,met_drum,Note On,9,f#3,
0.105485166666667,met_drum,Note Off,9,c3,
0,met_drum,Note Off,9,c#4,
0.105485166666667,met_drum,Note Off,9,f#3,
0.105485166666667,met_drum,Note On,9,d3,
0,met_drum,Note On,9,a#3,
0.210970333333333,met_drum,Note Off,9,a#3,
0.105485166666667,met_drum,Note On,9,f#3,
0.105485166666667,met_drum,Note Off,9,d3,
0.105485166666667,met_drum,Note Off,9,f#3,
0.105485166666667,met_drum,Note On,9,d3,
0,met_drum,Note On,9,a#3,
0.210970333333333,met_drum,Note Off,9,a#3,
0.105485166666667,met_drum,Note On,9,f#3,
0.105485166666667,met_drum,Note Off,9,d3,
0.105485166666667,met_drum,Note Off,9,f#3,
0.105485166666667,met_drum,Note On,9,d3,
0,met_drum,Note On,9,a#3,
0.210970333333333,met_drum,Note Off,9,a#3,
0.105485166666667,met_drum,Note On,9,f#3,
0.105485166666667,met_drum,Note Off,9,d3,
0.105485166666667,met_drum,Note Off,9,f#3,
0.105485166666667,met_drum,Note On,9,c3,
0,met_drum,Note On,9,a#3,
0,met_drum,Note On,9,c#4,
0.210970333333333,met_drum,Note Off,9,a#3,
0.105485166666667,met_drum,Note On,9,f#3,
0.105485166666667,met_drum,Note Off,9,c3,
0,met_drum,Note Off,9,c#4,
0.105485166666667,met_drum,Note Off,9,f#3,
0.105485166666667,met_drum,Note On,9,d3,
0,met_drum,Note On,9,a#3,
0.210970333333333,met_drum,Note Off,9,a#3,
0.105485166666667,met_drum,Note On,9,f#3,
0.105485166666667,met_drum,Note Off,9,d3,
0.105485166666667,met_drum,Note Off,9,f#3,
0.105485166666667,met_drum,Note On,9,d3,
0,met_drum,Note On,9,a#3,
0.210970333333333,met_drum,Note Off,9,a#3,
0.105485166666667,met_drum,Note On,9,f#3,
0.105485166666667,met_drum,Note Off,9,d3,
0.105485166666667,met_drum,Note Off,9,f#3,
0.105485166666667,met_drum,Note On,9,d3,
0,met_drum,Note On,9,a#3,
0.210970333333333,met_drum,Note Off,9,a#3,
0.105485166666667,met_drum,Note On,9,f#3,
0.105485166666667,met_drum,Note Off,9,d3,
0.105485166666667,met_drum,Note Off,9,f#3,
0.105485166666667,met_drum,Note On,9,c3,
0,met_drum,Note On,9,a#3,
0,met_drum,Note On,9,c#4,
0.210970333333333,met_drum,Note Off,9,a#3,
0.105485166666667,met_drum,Note On,9,f#3,
0.105485166666667,met_drum,Note Off,9,c3,
0,met_drum,Note Off,9,c#4,
0.105485166666667,met_drum,Note Off,9,f#3,
0.105485166666667,met_drum,Note On,9,d3,
0,met_drum,Note On,9,a#3,
0.210970333333333,met_drum,Note Off,9,a#3,
0.105485166666667,met_drum,Note On,9,f#3,
0.105485166666667,met_drum,Note Off,9,d3,
0.105485166666667,met_drum,Note Off,9,f#3,
0.105485166666667,met_drum,Note On,9,d3,
0,met_drum,Note On,9,a#3,
0.210970333333333,met_drum,Note Off,9,a#3,
0.105485166666667,met_drum,Note On,9,f#3,
0.105485166666667,met_drum,Note Off,9,d3,
0.105485166666667,met_drum,Note Off,9,f#3,
0.105485166666667,met_drum,Note On,9,d3,
0,met_drum,Note On,9,a#3,
0.210970333333333,met_drum,Note Off,9,a#3,
0.105485166666667,met_drum,Note On,9,f#3,
0.105485166666667,met_drum,Note Off,9,d3,
0.105485166666667,met_drum,Note Off,9,f#3,
0.105485166666667,met_drum,Note On,9,c3,
0,met_drum,Note On,9,a#3,
0,met_drum,Note On,9,c#4,
0.210970333333333,met_drum,Note Off,9,a#3,
0.105485166666667,met_drum,Note On,9,f#3,
0.105485166666667,met_drum,Note Off,9,c3,
0,met_drum,Note Off,9,c#4,
0.105485166666667,met_drum,Note Off,9,f#3,
0.105485166666667,met_drum,Note On,9,d3,
0,met_drum,Note On,9,a#3,
0.210970333333333,met_drum,Note Off,9,a#3,
0.105485166666667,met_drum,Note On,9,f#3,
0.105485166666667,met_drum,Note Off,9,d3,
0.105485166666667,met_drum,Note Off,9,f#3,
0.105485166666667,met_drum,Note On,9,d3,
0,met_drum,Note On,9,a#3,
0.210970333333333,met_drum,Note Off,9,a#3,
0.105485166666667,met_drum,Note On,9,f#3,
0.105485166666667,met_drum,Note Off,9,d3,
0.105485166666667,met_drum,Note Off,9,f#3,
0.105485166666667,met_drum,Note On,9,d3,
0,met_drum,Note On,9,a#3,
0.210970333333333,met_drum,Note Off,9,a#3,
0.105485166666667,met_drum,Note On,9,f#3,
0.105485166666667,met_drum,Note Off,9,d3,
0.105485166666667,met_drum,Note Off,9,f#3,
0.105485166666667,met_drum,Note On,9,c3,
0,met_drum,Note On,9,a#3,
0,met_drum,Note On,9,c#4,
0.210970333333333,met_drum,Note Off,9,a#3,
0.105485166666667,met_drum,Note On,9,f#3,
0.105485166666667,met_drum,Note Off,9,c3,
0,met_drum,Note Off,9,c#4,
0.105485166666667,met_drum,Note Off,9,f#3,
0.105485166666667,met_drum,Note On,9,d3,
0,met_drum,Note On,9,a#3,
0.210970333333333,met_drum,Note Off,9,a#3,
0.105485166666667,met_drum,Note On,9,f#3,
0.105485166666667,met_drum,Note Off,9,d3,
0.105485166666667,met_drum,Note Off,9,f#3,
0.105485166666667,met_drum,Note On,9,d3,
0,met_drum,Note On,9,a#3,
0.210970333333333,met_drum,Note Off,9,a#3,
0.105485166666667,met_drum,Note On,9,f#3,
0.105485166666667,met_drum,Note Off,9,d3,
0.105485166666667,met_drum,Note Off,9,f#3,
0.105485166666667,met_drum,Note On,9,d3,
0,met_drum,Note On,9,a#3,
0.210970333333333,met_drum,Note Off,9,a#3,
0.105485166666667,met_drum,Note On,9,f#3,
0.105485166666667,met_drum,Note Off,9,d3,
0.105485166666667,met_drum,Note Off,9,f#3,
0.105485166666667,met_drum,Note On,9,c3,
0,met_drum,Note On,9,a#3,
0,met_drum,Note On,9,c#4,
0.210970333333333,met_drum,Note Off,9,a#3,
0.105485166666667,met_drum,Note On,9,f#3,
0.105485166666667,met_drum,Note Off,9,c3,
0,met_drum,Note Off,9,c#4,
0.105485166666667,met_drum,Note Off,9,f#3,
0.105485166666667,met_drum,Note On,9,d3,
0,met_drum,Note On,9,a#3,
0.210970333333333,met_drum,Note Off,9,a#3,
0.105485166666667,met_drum,Note On,9,f#3,
0.105485166666667,met_drum,Note Off,9,d3,
0.105485166666667,met_drum,Note Off,9,f#3,
0.105485166666667,met_drum,Note On,9,d3,
0,met_drum,Note On,9,a#3,
0.210970333333333,met_drum,Note Off,9,a#3,
0.105485166666667,met_drum,Note On,9,f#3,
0.105485166666667,met_drum,Note Off,9,d3,
0.105485166666667,met_drum,Note Off,9,f#3,
0.105485166666667,met_drum,Note On,9,d3,
0,met_drum,Note On,9,a#3,
0.210970333333333,met_drum,Note Off,9,a#3,
0.105485166666667,met_drum,Note On,9,f#3,
0.105485166666667,met_drum,Note Off,9,d3,
0.105485166666667,met_drum,Note Off,9,f#3,
0.105485166666667,met_drum,Note On,9,c3,
0,met_drum,Note On,9,a#3,
0,met_drum,Note On,9,c#4,
0.210970333333333,met_drum,Note Off,9,a#3,
0.105485166666667,met_drum,Note On,9,f#3,
0.105485166666667,met_drum,Note Off,9,c3,
0,met_drum,Note Off,9,c#4,
0.105485166666667,met_drum,Note Off,9,f#3,
0.105485166666667,met_drum,Note On,9,d3,
0,met_drum,Note On,9,a#3,
0.210970333333333,met_drum,Note Off,9,a#3,
0.105485166666667,met_drum,Note On,9,f#3,
0.105485166666667,met_drum,Note Off,9,d3,
0.105485166666667,met_drum,Note Off,9,f#3,
0.105485166666667,met_drum,Note On,9,d3,
0,met_drum,Note On,9,a#3,
0.210970333333333,met_drum,Note Off,9,a#3,
0.105485166666667,met_drum,Note On,9,f#3,
0.105485166666667,met_drum,Note Off,9,d3,
0.105485166666667,met_drum,Note Off,9,f#3,
0.105485166666667,met_drum,Note On,9,d3,
0,met_drum,Note On,9,a#3,
0.210970333333333,met_drum,Note Off,9,a#3,
0.105485166666667,met_drum,Note On,9,f#3,
0.105485166666667,met_drum,Note Off,9,d3,
0.105485166666667,met_drum,Note Off,9,f#3,
0.105485166666667,met_drum,Note On,9,c3,
0,met_drum,Note On,9,a#3,
0,met_drum,Note On,9,c#4,
0.210970333333333,met_drum,Note Off,9,a#3,
0.105485166666667,met_drum,Note On,9,f#3,
0.105485166666667,met_drum,Note Off,9,c3,
0,met_drum,Note Off,9,c#4,
0.105485166666667,met_drum,Note Off,9,f#3,
0.105485166666667,met_drum,Note On,9,d3,
0,met_drum,Note On,9,a#3,
0.210970333333333,met_drum,Note Off,9,a#3,
0.105485166666667,met_drum,Note On,9,f#3,
0.105485166666667,met_drum,Note Off,9,d3,
0.105485166666667,met_drum,Note Off,9,f#3,
0.105485166666667,met_drum,Note On,9,d3,
0,met_drum,Note On,9,a#3,
0.210970333333333,met_drum,Note Off,9,a#3,
0.105485166666667,met_drum,Note On,9,f#3,
0.105485166666667,met_drum,Note Off,9,d3,
0.105485166666667,met_drum,Note Off,9,f#3,
0.105485166666667,met_drum,Note On,9,d3,
0,met_drum,Note On,9,a#3,
0.210970333333333,met_drum,Note Off,9,a#3,
0.105485166666667,met_drum,Note On,9,f#3,
0.105485166666667,met_drum,Note Off,9,d3,
0.105485166666667,met_drum,Note Off,9,f#3,
0.105485166666667,met_drum,Note On,9,c3,
0,met_drum,Note On,9,a#3,
0,met_drum,Note On,9,c#4,
0.210970333333333,met_drum,Note Off,9,a#3,
0.105485166666667,met_drum,Note On,9,f#3,
0.105485166666667,met_drum,Note Off,9,c3,
0,met_drum,Note Off,9,c#4,
0.105485166666667,met_drum,Note Off,9,f#3,
0.105485166666667,met_drum,Note On,9,d3,
0,met_drum,Note On,9,a#3,
0.210970333333333,met_drum,Note Off,9,a#3,
0.105485166666667,met_drum,Note On,9,f#3,
0.105485166666667,met_drum,Note Off,9,d3,
0.105485166666667,met_drum,Note Off,9,f#3,
0.105485166666667,met_drum,Note On,9,d3,
0,met_drum,Note On,9,a#3,
0.210970333333333,met_drum,Note Off,9,a#3,
0.105485166666667,met_drum,Note On,9,f#3,
0.105485166666667,met_drum,Note Off,9,d3,
0.105485166666667,met_drum,Note Off,9,f#3,
0.105485166666667,met_drum,Note On,9,d3,
0,met_drum,Note On,9,a#3,
0.210970333333333,met_drum,Note Off,9,a#3,
0.105485166666667,met_drum,Note On,9,f#3,
0.105485166666667,met_drum,Note Off,9,d3,
0.105485166666667,met_drum,Note Off,9,f#3,
0.105485166666667,met_drum,Note On,9,c3,
0,met_drum,Note On,9,a#3,
0,met_drum,Note On,9,c#4,
0.210970333333333,met_drum,Note Off,9,a#3,
0.105485166666667,met_drum,Note On,9,f#3,
0.105485166666667,met_drum,Note Off,9,c3,
0,met_drum,Note Off,9,c#4,
0.105485166666667,met_drum,Note Off,9,f#3,
0.105485166666667,met_drum,Note On,9,d3,
0,met_drum,Note On,9,a#3,
0.210970333333333,met_drum,Note Off,9,a#3,
0.105485166666667,met_drum,Note On,9,f#3,
0.105485166666667,met_drum,Note Off,9,d3,
0.105485166666667,met_drum,Note Off,9,f#3,
0.105485166666667,met_drum,Note On,9,d3,
0,met_drum,Note On,9,a#3,
0.210970333333333,met_drum,Note Off,9,a#3,
0.105485166666667,met_drum,Note On,9,f#3,
0.105485166666667,met_drum,Note Off,9,d3,
0.105485166666667,met_drum,Note Off,9,f#3,
0.105485166666667,met_drum,Note On,9,d3,
0,met_drum,Note On,9,a#3,
0.210970333333333,met_drum,Note Off,9,a#3,
0.105485166666667,met_drum,Note On,9,f#3,
0.105485166666667,met_drum,Note Off,9,d3,
0.105485166666667,met_drum,Note Off,9,f#3,
0.105485166666667,met_drum,Note On,9,c3,
0,met_drum,Note On,9,a#3,
0,met_drum,Note On,9,c#4,
0.210970333333333,met_drum,Note Off,9,a#3,
0.105485166666667,met_drum,Note On,9,f#3,
0.105485166666667,met_drum,Note Off,9,c3,
0,met_drum,Note Off,9,c#4,
0.105485166666667,met_drum,Note Off,9,f#3,
0.105485166666667,met_drum,Note On,9,d3,
0,met_drum,Note On,9,a#3,
0.210970333333333,met_drum,Note Off,9,a#3,
0.105485166666667,met_drum,Note On,9,f#3,
0.105485166666667,met_drum,Note Off,9,d3,
0.105485166666667,met_drum,Note Off,9,f#3,
0.105485166666667,met_drum,Note On,9,d3,
0,met_drum,Note On,9,a#3,
0.210970333333333,met_drum,Note Off,9,a#3,
0.105485166666667,met_drum,Note On,9,f#3,
0.105485166666667,met_drum,Note Off,9,d3,
0.105485166666667,met_drum,Note Off,9,f#3,
0.105485166666667,met_drum,Note On,9,d3,
0,met_drum,Note On,9,a#3,
0.210970333333333,met_drum,Note Off,9,a#3,
0.105485166666667,met_drum,Note On,9,f#3,
0.105485166666667,met_drum,Note Off,9,d3,
0.105485166666667,met_drum,Note Off,9,f#3,
0.105485166666667,met_drum,Note On,9,c3,
0,met_drum,Note On,9,a#3,
0,met_drum,Note On,9,c#4,
0.210970333333333,met_drum,Note Off,9,a#3,
0.105485166666667,met_drum,Note On,9,f#3,
0.105485166666667,met_drum,Note Off,9,c3,
0,met_drum,Note Off,9,c#4,
0.105485166666667,met_drum,Note Off,9,f#3,
0.105485166666667,met_drum,Note On,9,d3,
0,met_drum,Note On,9,a#3,
0.210970333333333,met_drum,Note Off,9,a#3,
0.105485166666667,met_drum,Note On,9,f#3,
0.105485166666667,met_drum,Note Off,9,d3,
0.105485166666667,met_drum,Note Off,9,f#3,
0.105485166666667,met_drum,Note On,9,d3,
0,met_drum,Note On,9,a#3,
0.210970333333333,met_drum,Note Off,9,a#3,
0.105485166666667,met_drum,Note On,9,f#3,
0.105485166666667,met_drum,Note Off,9,d3,
0.105485166666667,met_drum,Note Off,9,f#3,
0.105485166666667,met_drum,Note On,9,d3,
0,met_drum,Note On,9,a#3,
0.210970333333333,met_drum,Note Off,9,a#3,
0.105485166666667,met_drum,Note On,9,f#3,
0.105485166666667,met_drum,Note Off,9,d3,
0.105485166666667,met_drum,Note Off,9,f#3,
0.105485166666667,met_drum,Note On,9,c3,
0,met_drum,Note On,9,a#3,
0,met_drum,Note On,9,c#4,
0.210970333333333,met_drum,Note Off,9,a#3,
0.105485166666667,met_drum,Note On,9,f#3,
0.105485166666667,met_drum,Note Off,9,c3,
0,met_drum,Note Off,9,c#4,
0.105485166666667,met_drum,Note Off,9,f#3,
0.105485166666667,met_drum,Note On,9,d3,
0,met_drum,Note On,9,a#3,
0.210970333333333,met_drum,Note Off,9,a#3,
0.105485166666667,met_drum,Note On,9,f#3,
0.105485166666667,met_drum,Note Off,9,d3,
0.105485166666667,met_drum,Note Off,9,f#3,
0.105485166666667,met_drum,Note On,9,d3,
0,met_drum,Note On,9,a#3,
0.210970333333333,met_drum,Note Off,9,a#3,
0.105485166666667,met_drum,Note On,9,f#3,
0.105485166666667,met_drum,Note Off,9,d3,
0.105485166666667,met_drum,Note Off,9,f#3,
0.105485166666667,met_drum,Note On,9,d3,
0,met_drum,Note On,9,a#3,
0.210970333333333,met_drum,Note Off,9,a#3,
0.105485166666667,met_drum,Note On,9,f#3,
0.105485166666667,met_drum,Note Off,9,d3,
0.105485166666667,met_drum,Note Off,9,f#3,
0.105485166666667,met_drum,Note On,9,c3,
0,met_drum,Note On,9,a#3,
0,met_drum,Note On,9,c#4,
0.210970333333333,met_drum,Note Off,9,a#3,
0.105485166666667,met_drum,Note On,9,f#3,
0.105485166666667,met_drum,Note Off,9,c3,
0,met_drum,Note Off,9,c#4,
0.105485166666667,met_drum,Note Off,9,f#3,
0.105485166666667,met_drum,Note On,9,d3,
0,met_drum,Note On,9,a#3,
0.210970333333333,met_drum,Note Off,9,a#3,
0.105485166666667,met_drum,Note On,9,f#3,
0.105485166666667,met_drum,Note Off,9,d3,
0.105485166666667,met_drum,Note Off,9,f#3,
0.105485166666667,met_drum,Note On,9,d3,
0,met_drum,Note On,9,a#3,
0.210970333333333,met_drum,Note Off,9,a#3,
0.105485166666667,met_drum,Note On,9,f#3,
0.105485166666667,met_drum,Note Off,9,d3,
0.105485166666667,met_drum,Note Off,9,f#3,
0.105485166666667,met_drum,Note On,9,d3,
0,met_drum,Note On,9,a#3,
0.210970333333333,met_drum,Note Off,9,a#3,
0.105485166666667,met_drum,Note On,9,f#3,
0.105485166666667,met_drum,Note Off,9,d3,
0.105485166666667,met_drum,Note Off,9,f#3,
0.105485166666667,met_drum,Note On,9,c3,
0,met_drum,Note On,9,a#3,
0,met_drum,Note On,9,c#4,
0.210970333333333,met_drum,Note Off,9,a#3,
0.105485166666667,met_drum,Note On,9,f#3,
0.105485166666667,met_drum,Note Off,9,c3,
0,met_drum,Note Off,9,c#4,
0.105485166666667,met_drum,Note Off,9,f#3,
0.105485166666667,met_drum,Note On,9,d3,
0,met_drum,Note On,9,a#3,
0.210970333333333,met_drum,Note Off,9,a#3,
0.105485166666667,met_drum,Note On,9,f#3,
0.105485166666667,met_drum,Note Off,9,d3,
0.105485166666667,met_drum,Note Off,9,f#3,
0.105485166666667,met_drum,Note On,9,d3,
0,met_drum,Note On,9,a#3,
0.210970333333333,met_drum,Note Off,9,a#3,
0.105485166666667,met_drum,Note On,9,f#3,
0.105485166666667,met_drum,Note Off,9,d3,
0.105485166666667,met_drum,Note Off,9,f#3,
0.105485166666667,met_drum,Note On,9,d3,
0,met_drum,Note On,9,a#3,
0.210970333333333,met_drum,Note Off,9,a#3,
0.105485166666667,met_drum,Note On,9,f#3,
0.105485166666667,met_drum,Note Off,9,d3,
0.105485166666667,met_drum,Note Off,9,f#3,
0.105485166666667,met_drum,Note On,9,c3,
0,met_drum,Note On,9,a#3,
0,met_drum,Note On,9,c#4,
0.210970333333333,met_drum,Note Off,9,a#3,
0.105485166666667,met_drum,Note On,9,f#3,
0.105485166666667,met_drum,Note Off,9,c3,
0,met_drum,Note Off,9,c#4,
0.105485166666667,met_drum,Note Off,9,f#3,
0.105485166666667,met_drum,Note On,9,d3,
0,met_drum,Note On,9,a#3,
0.210970333333333,met_drum,Note Off,9,a#3,
0.105485166666667,met_drum,Note On,9,f#3,
0.105485166666667,met_drum,Note Off,9,d3,
0.105485166666667,met_drum,Note Off,9,f#3,
0.105485166666667,met_drum,Note On,9,d3,
0,met_drum,Note On,9,a#3,
0.210970333333333,met_drum,Note Off,9,a#3,
0.105485166666667,met_drum,Note On,9,f#3,
0.105485166666667,met_drum,Note Off,9,d3,
0.105485166666667,met_drum,Note Off,9,f#3,
0.105485166666667,met_drum,Note On,9,d3,
0,met_drum,Note On,9,a#3,
0.210970333333333,met_drum,Note Off,9,a#3,
0.105485166666667,met_drum,Note On,9,f#3,
0.105485166666667,met_drum,Note Off,9,d3,
0.105485166666667,met_drum,Note Off,9,f#3,
0.105485166666667,met_drum,Note On,9,c3,
0,met_drum,Note On,9,a#3,
0,met_drum,Note On,9,c#4,
0.210970333333333,met_drum,Note Off,9,a#3,
0.105485166666667,met_drum,Note On,9,f#3,
0.105485166666667,met_drum,Note Off,9,c3,
0,met_drum,Note Off,9,c#4,
0.105485166666667,met_drum,Note Off,9,f#3,
0.105485166666667,met_drum,Note On,9,d3,
0,met_drum,Note On,9,a#3,
0.210970333333333,met_drum,Note Off,9,a#3,
0.105485166666667,met_drum,Note On,9,f#3,
0.105485166666667,met_drum,Note Off,9,d3,
0.105485166666667,met_drum,Note Off,9,f#3,
0.105485166666667,met_drum,Note On,9,d3,
0,met_drum,Note On,9,a#3,
0.210970333333333,met_drum,Note Off,9,a#3,
0.105485166666667,met_drum,Note On,9,f#3,
0.105485166666667,met_drum,Note Off,9,d3,
0.105485166666667,met_drum,Note Off,9,f#3,
0.105485166666667,met_drum,Note On,9,d3,
0,met_drum,Note On,9,a#3,
0.210970333333333,met_drum,Note Off,9,a#3,
0.105485166666667,met_drum,Note On,9,f#3,
0.105485166666667,met_drum,Note Off,9,d3,
0.105485166666667,met_drum,Note Off,9,f#3,
0.105485166666667,met_drum,Note On,9,c3,
0,met_drum,Note On,9,a#3,
0,met_drum,Note On,9,c#4,
0.210970333333333,met_drum,Note Off,9,a#3,
0.105485166666667,met_drum,Note On,9,f#3,
0.105485166666667,met_drum,Note Off,9,c3,
0,met_drum,Note Off,9,c#4,
0.105485166666667,met_drum,Note Off,9,f#3,
0.105485166666667,met_drum,Note On,9,d3,
0,met_drum,Note On,9,a#3,
0.210970333333333,met_drum,Note Off,9,a#3,
0.105485166666667,met_drum,Note On,9,f#3,
0.105485166666667,met_drum,Note Off,9,d3,
0.105485166666667,met_drum,Note Off,9,f#3,
0.105485166666667,met_drum,Note On,9,d3,
0,met_drum,Note On,9,a#3,
0.210970333333333,met_drum,Note Off,9,a#3,
0.105485166666667,met_drum,Note On,9,f#3,
0.105485166666667,met_drum,Note Off,9,d3,
0.105485166666667,met_drum,Note Off,9,f#3,
0.105485166666667,met_drum,Note On,9,d3,
0,met_drum,Note On,9,a#3,
0.210970333333333,met_drum,Note Off,9,a#3,
0.105485166666667,met_drum,Note On,9,f#3,
0.105485166666667,met_drum,Note Off,9,d3,
0.105485166666667,met_drum,Note Off,9,f#3,
0.105485166666667,met_drum,Note On,9,c3,
0,met_drum,Note On,9,a#3,
0,met_drum,Note On,9,c#4,
0.210970333333333,met_drum,Note Off,9,a#3,
0.105485166666667,met_drum,Note On,9,f#3,
0.105485166666667,met_drum,Note Off,9,c3,
0,met_drum,Note Off,9,c#4,
0.105485166666667,met_drum,Note Off,9,f#3,
0.105485166666667,met_drum,Note On,9,d3,
0,met_drum,Note On,9,a#3,
0.210970333333333,met_drum,Note Off,9,a#3,
0.105485166666667,met_drum,Note On,9,f#3,
0.105485166666667,met_drum,Note Off,9,d3,
0.105485166666667,met_drum,Note Off,9,f#3,
0.105485166666667,met_drum,Note On,9,d3,
0,met_drum,Note On,9,a#3,
0.210970333333333,met_drum,Note Off,9,a#3,
0.105485166666667,met_drum,Note On,9,f#3,
0.105485166666667,met_drum,Note Off,9,d3,
0.105485166666667,met_drum,Note Off,9,f#3,
0.105485166666667,met_drum,Note On,9,d3,
0,met_drum,Note On,9,a#3,
0.210970333333333,met_drum,Note Off,9,a#3,
0.105485166666667,met_drum,Note On,9,f#3,
0.105485166666667,met_drum,Note Off,9,d3,
0.105485166666667,met_drum,Note Off,9,f#3,
0.105485166666667,met_drum,Note On,9,c3,
0,met_drum,Note On,9,a#3,
0,met_drum,Note On,9,c#4,
0.210970333333333,met_drum,Note Off,9,a#3,
0.105485166666667,met_drum,Note On,9,f#3,
0.105485166666667,met_drum,Note Off,9,c3,
0,met_drum,Note Off,9,c#4,
0.105485166666667,met_drum,Note Off,9,f#3,
0.105485166666667,met_drum,Note On,9,d3,
0,met_drum,Note On,9,a#3,
0.210970333333333,met_drum,Note Off,9,a#3,
0.105485166666667,met_drum,Note On,9,f#3,
0.105485166666667,met_drum,Note Off,9,d3,
0.105485166666667,met_drum,Note Off,9,f#3,
0.105485166666667,met_drum,Note On,9,d3,
0,met_drum,Note On,9,a#3,
0.210970333333333,met_drum,Note Off,9,a#3,
0.105485166666667,met_drum,Note On,9,f#3,
0.105485166666667,met_drum,Note Off,9,d3,
0.105485166666667,met_drum,Note Off,9,f#3,
0.105485166666667,met_drum,Note On,9,d3,
0,met_drum,Note On,9,a#3,
0.210970333333333,met_drum,Note Off,9,a#3,
0.105485166666667,met_drum,Note On,9,f#3,
0.105485166666667,met_drum,Note Off,9,d3,
0.105485166666667,met_drum,Note Off,9,f#3,
0.105485166666667,met_drum,Note On,9,c3,
0,met_drum,Note On,9,a#3,
0,met_drum,Note On,9,c#4,
0.210970333333333,met_drum,Note Off,9,a#3,
0.105485166666667,met_drum,Note On,9,f#3,
0.105485166666667,met_drum,Note Off,9,c3,
0,met_drum,Note Off,9,c#4,
0.105485166666667,met_drum,Note Off,9,f#3,
0.105485166666667,met_drum,Note On,9,d3,
0,met_drum,Note On,9,a#3,
0.210970333333333,met_drum,Note Off,9,a#3,
0.105485166666667,met_drum,Note On,9,f#3,
0.105485166666667,met_drum,Note Off,9,d3,
0.105485166666667,met_drum,Note Off,9,f#3,
0.105485166666667,met_drum,Note On,9,d3,
0,met_drum,Note On,9,a#3,
0.210970333333333,met_drum,Note Off,9,a#3,
0.105485166666667,met_drum,Note On,9,f#3,
0.105485166666667,met_drum,Note Off,9,d3,
0.105485166666667,met_drum,Note Off,9,f#3,
0.105485166666667,met_drum,Note On,9,d3,
0,met_drum,Note On,9,a#3,
0.210970333333333,met_drum,Note Off,9,a#3,
0.105485166666667,met_drum,Note On,9,f#3,
0.105485166666667,met_drum,Note Off,9,d3,
0.105485166666667,met_drum,Note Off,9,f#3,
0.105485166666667,met_drum,Note On,9,c3,
0,met_drum,Note On,9,a#3,
0,met_drum,Note On,9,c#4,
0.210970333333333,met_drum,Note Off,9,a#3,
0.105485166666667,met_drum,Note On,9,f#3,
0.105485166666667,met_drum,Note Off,9,c3,
0,met_drum,Note Off,9,c#4,
0.105485166666667,met_drum,Note Off,9,f#3,
0.105485166666667,met_drum,Note On,9,d3,
0,met_drum,Note On,9,a#3,
0.210970333333333,met_drum,Note Off,9,a#3,
0.105485166666667,met_drum,Note On,9,f#3,
0.105485166666667,met_drum,Note Off,9,d3,
0.105485166666667,met_drum,Note Off,9,f#3,
0.105485166666667,met_drum,Note On,9,d3,
0,met_drum,Note On,9,a#3,
0.210970333333333,met_drum,Note Off,9,a#3,
0.105485166666667,met_drum,Note On,9,f#3,
0.105485166666667,met_drum,Note Off,9,d3,
0.105485166666667,met_drum,Note Off,9,f#3,
0.105485166666667,met_drum,Note On,9,d3,
0,met_drum,Note On,9,a#3,
0.210970333333333,met_drum,Note Off,9,a#3,
0.105485166666667,met_drum,Note On,9,f#3,
0.105485166666667,met_drum,Note Off,9,d3,
0.105485166666667,met_drum,Note Off,9,f#3,
0.105485166666667,met_drum,Note On,9,c3,
0,met_drum,Note On,9,a#3,
0,met_drum,Note On,9,c#4,
0.210970333333333,met_drum,Note Off,9,a#3,
0.105485166666667,met_drum,Note On,9,f#3,
0.105485166666667,met_drum,Note Off,9,c3,
0,met_drum,Note Off,9,c#4,
0.105485166666667,met_drum,Note Off,9,f#3,
0.105485166666667,met_drum,Note On,9,d3,
0,met_drum,Note On,9,a#3,
0.210970333333333,met_drum,Note Off,9,a#3,
0.105485166666667,met_drum,Note On,9,f#3,
0.105485166666667,met_drum,Note Off,9,d3,
0.105485166666667,met_drum,Note Off,9,f#3,
0.105485166666667,met_drum,Note On,9,d3,
0,met_drum,Note On,9,a#3,
0.210970333333333,met_drum,Note Off,9,a#3,
0.105485166666667,met_drum,Note On,9,f#3,
0.105485166666667,met_drum,Note Off,9,d3,
0.105485166666667,met_drum,Note Off,9,f#3,
0.105485166666667,met_drum,Note On,9,d3,
0,met_drum,Note On,9,a#3,
0.210970333333333,met_drum,Note Off,9,a#3,
0.105485166666667,met_drum,Note On,9,f#3,
0.105485166666667,met_drum,Note Off,9,d3,
0.105485166666667,met_drum,Note Off,9,f#3,
0.105485166666667,met_drum,Note On,9,c3,
0,met_drum,Note On,9,a#3,
0,met_drum,Note On,9,c#4,
0.210970333333333,met_drum,Note Off,9,a#3,
0.105485166666667,met_drum,Note On,9,f#3,
0.105485166666667,met_drum,Note Off,9,c3,
0,met_drum,Note Off,9,c#4,
0.105485166666667,met_drum,Note Off,9,f#3,
0.105485166666667,met_drum,Note On,9,d3,
0,met_drum,Note On,9,a#3,
0.210970333333333,met_drum,Note Off,9,a#3,
0.105485166666667,met_drum,Note On,9,f#3,
0.105485166666667,met_drum,Note Off,9,d3,
0.105485166666667,met_drum,Note Off,9,f#3,
0.105485166666667,met_drum,Note On,9,d3,
0,met_drum,Note On,9,a#3,
0.210970333333333,met_drum,Note Off,9,a#3,
0.105485166666667,met_drum,Note On,9,f#3,
0.105485166666667,met_drum,Note Off,9,d3,
0.105485166666667,met_drum,Note Off,9,f#3,
0.105485166666667,met_drum,Note On,9,d3,
0,met_drum,Note On,9,a#3,
0.210970333333333,met_drum,Note Off,9,a#3,
0.105485166666667,met_drum,Note On,9,f#3,
0.105485166666667,met_drum,Note Off,9,d3,
0.105485166666667,met_drum,Note Off,9,f#3,
0.105485166666667,met_drum,Note On,9,c3,
0,met_drum,Note On,9,a#3,
0,met_drum,Note On,9,c#4,
0.210970333333333,met_drum,Note Off,9,a#3,
0.105485166666667,met_drum,Note On,9,f#3,
0.105485166666667,met_drum,Note Off,9,c3,
0,met_drum,Note Off,9,c#4,
0.105485166666667,met_drum,Note Off,9,f#3,
0.105485166666667,met_drum,Note On,9,d3,
0,met_drum,Note On,9,a#3,
0.210970333333333,met_drum,Note Off,9,a#3,
0.105485166666667,met_drum,Note On,9,f#3,
0.105485166666667,met_drum,Note Off,9,d3,
0.105485166666667,met_drum,Note Off,9,f#3,
0.105485166666667,met_drum,Note On,9,d3,
0,met_drum,Note On,9,a#3,
0.210970333333333,met_drum,Note Off,9,a#3,
0.105485166666667,met_drum,Note On,9,f#3,
0.105485166666667,met_drum,Note Off,9,d3,
0.105485166666667,met_drum,Note Off,9,f#3,
0.105485166666667,met_drum,Note On,9,d3,
0,met_drum,Note On,9,a#3,
0.210970333333333,met_drum,Note Off,9,a#3,
0.105485166666667,met_drum,Note On,9,f#3,
0.105485166666667,met_drum,Note Off,9,d3,
0.105485166666667,met_drum,Note Off,9,f#3,
0.105485166666667,met_drum,Note On,9,c3,
0,met_drum,Note On,9,a#3,
0,met_drum,Note On,9,c#4,
0.210970333333333,met_drum,Note Off,9,a#3,
0.105485166666667,met_drum,Note On,9,f#3,
0.105485166666667,met_drum,Note Off,9,c3,
0,met_drum,Note Off,9,c#4,
0.105485166666667,met_drum,Note Off,9,f#3,
0.105485166666667,met_drum,Note On,9,d3,
0,met_drum,Note On,9,a#3,
0.210970333333333,met_drum,Note Off,9,a#3,
0.105485166666667,met_drum,Note On,9,f#3,
0.105485166666667,met_drum,Note Off,9,d3,
0.105485166666667,met_drum,Note Off,9,f#3,
0.105485166666667,met_drum,Note On,9,d3,
0,met_drum,Note On,9,a#3,
0.210970333333333,met_drum,Note Off,9,a#3,
0.105485166666667,met_drum,Note On,9,f#3,
0.105485166666667,met_drum,Note Off,9,d3,
0.105485166666667,met_drum,Note Off,9,f#3,
0.105485166666667,met_drum,Note On,9,d3,
0,met_drum,Note On,9,a#3,
0.210970333333333,met_drum,Note Off,9,a#3,
0.105485166666667,met_drum,Note On,9,f#3,
0.105485166666667,met_drum,Note Off,9,d3,
0.105485166666667,met_drum,Note Off,9,f#3,
0.105485166666667,met_drum,Note On,9,c3,
0,met_drum,Note On,9,a#3,
0,met_drum,Note On,9,c#4,
0.210970333333333,met_drum,Note Off,9,a#3,
0.105485166666667,met_drum,Note On,9,f#3,
0.105485166666667,met_drum,Note Off,9,c3,
0,met_drum,Note Off,9,c#4,
0.105485166666667,met_drum,Note Off,9,f#3,
0.105485166666667,met_drum,Note On,9,d3,
0,met_drum,Note On,9,a#3,
0.210970333333333,met_drum,Note Off,9,a#3,
0.105485166666667,met_drum,Note On,9,f#3,
0.105485166666667,met_drum,Note Off,9,d3,
0.105485166666667,met_drum,Note Off,9,f#3,
0.105485166666667,met_drum,Note On,9,d3,
0,met_drum,Note On,9,a#3,
0.210970333333333,met_drum,Note Off,9,a#3,
0.105485166666667,met_drum,Note On,9,f#3,
0.105485166666667,met_drum,Note Off,9,d3,
0.105485166666667,met_drum,Note Off,9,f#3,
0.105485166666667,met_drum,Note On,9,d3,
0,met_drum,Note On,9,a#3,
0.210970333333333,met_drum,Note Off,9,a#3,
0.105485166666667,met_drum,Note On,9,f#3,
0.105485166666667,met_drum,Note Off,9,d3,
0.105485166666667,met_drum,Note Off,9,f#3,
0.105485166666667,met_drum,Note On,9,c3,
0,met_drum,Note On,9,a#3,
0,met_drum,Note On,9,c#4,
0.210970333333333,met_drum,Note Off,9,a#3,
0.105485166666667,met_drum,Note On,9,f#3,
0.105485166666667,met_drum,Note Off,9,c3,
0,met_drum,Note Off,9,c#4,
0.105485166666667,met_drum,Note Off,9,f#3,
0.105485166666667,met_drum,Note On,9,d3,
0,met_drum,Note On,9,a#3,
0.210970333333333,met_drum,Note Off,9,a#3,
0.105485166666667,met_drum,Note On,9,f#3,
0.105485166666667,met_drum,Note Off,9,d3,
0.105485166666667,met_drum,Note Off,9,f#3,
0.105485166666667,met_drum,Note On,9,d3,
0,met_drum,Note On,9,a#3,
0.210970333333333,met_drum,Note Off,9,a#3,
0.105485166666667,met_drum,Note On,9,f#3,
0.105485166666667,met_drum,Note Off,9,d3,
0.105485166666667,met_drum,Note Off,9,f#3,
0.105485166666667,met_drum,Note On,9,d3,
0,met_drum,Note On,9,a#3,
0.210970333333333,met_drum,Note Off,9,a#3,
0.105485166666667,met_drum,Note On,9,f#3,
0.105485166666667,met_drum,Note Off,9,d3,
0.105485166666667,met_drum,Note Off,9,f#3,
0.105485166666667,met_drum,Note On,9,c3,
0,met_drum,Note On,9,a#3,
0,met_drum,Note On,9,c#4,
0.210970333333333,met_drum,Note Off,9,a#3,
0.105485166666667,met_drum,Note On,9,f#3,
0.105485166666667,met_drum,Note Off,9,c3,
0,met_drum,Note Off,9,c#4,
0.105485166666667,met_drum,Note Off,9,f#3,
0.105485166666667,met_drum,Note On,9,d3,
0,met_drum,Note On,9,a#3,
0.210970333333333,met_drum,Note Off,9,a#3,
0.105485166666667,met_drum,Note On,9,f#3,
0.105485166666667,met_drum,Note Off,9,d3,
0.105485166666667,met_drum,Note Off,9,f#3,
0.105485166666667,met_drum,Note On,9,d3,
0,met_drum,Note On,9,a#3,
0.210970333333333,met_drum,Note Off,9,a#3,
0.105485166666667,met_drum,Note On,9,f#3,
0.105485166666667,met_drum,Note Off,9,d3,
0.105485166666667,met_drum,Note Off,9,f#3,
0.105485166666667,met_drum,Note On,9,d3,
0,met_drum,Note On,9,a#3,
0.210970333333333,met_drum,Note Off,9,a#3,
0.105485166666667,met_drum,Note On,9,f#3,
0.105485166666667,met_drum,Note Off,9,d3,
0.105485166666667,met_drum,Note Off,9,f#3,
0.105485166666667,met_drum,Note On,9,c3,
0,met_drum,Note On,9,a#3,
0,met_drum,Note On,9,c#4,
0.210970333333333,met_drum,Note Off,9,a#3,
0.105485166666667,met_drum,Note On,9,f#3,
0.105485166666667,met_drum,Note Off,9,c3,
0,met_drum,Note Off,9,c#4,
0.105485166666667,met_drum,Note Off,9,f#3,
0.105485166666667,met_drum,Note On,9,d3,
0,met_drum,Note On,9,a#3,
0.210970333333333,met_drum,Note Off,9,a#3,
0.105485166666667,met_drum,Note On,9,f#3,
0.105485166666667,met_drum,Note Off,9,d3,
0.105485166666667,met_drum,Note Off,9,f#3,
0.105485166666667,met_drum,Note On,9,d3,
0,met_drum,Note On,9,a#3,
0.210970333333333,met_drum,Note Off,9,a#3,
0.105485166666667,met_drum,Note On,9,f#3,
0.105485166666667,met_drum,Note Off,9,d3,
0.105485166666667,met_drum,Note Off,9,f#3,
0.105485166666667,met_drum,Note On,9,d3,
0,met_drum,Note On,9,a#3,
0.210970333333333,met_drum,Note Off,9,a#3,
0.105485166666667,met_drum,Note On,9,f#3,
0.105485166666667,met_drum,Note Off,9,d3,
0.105485166666667,met_drum,Note Off,9,f#3,
43.1434331666667,met_drum,Note On,9,c3,
0,met_drum,Note On,9,a#3,
0,met_drum,Note On,9,c#4,
0.210970333333333,met_drum,Note Off,9,a#3,
0.105485166666667,met_drum,Note On,9,f#3,
0.105485166666667,met_drum,Note Off,9,c3,
0,met_drum,Note Off,9,c#4,
0.105485166666667,met_drum,Note Off,9,f#3,
0.105485166666667,met_drum,Note On,9,d3,
0,met_drum,Note On,9,a#3,
0.210970333333333,met_drum,Note Off,9,a#3,
0.105485166666667,met_drum,Note On,9,f#3,
0.105485166666667,met_drum,Note Off,9,d3,
0.105485166666667,met_drum,Note Off,9,f#3,
0.105485166666667,met_drum,Note On,9,d3,
0,met_drum,Note On,9,a#3,
0.210970333333333,met_drum,Note Off,9,a#3,
0.105485166666667,met_drum,Note On,9,f#3,
0.105485166666667,met_drum,Note Off,9,d3,
0.105485166666667,met_drum,Note Off,9,f#3,
0.105485166666667,met_drum,Note On,9,d3,
0,met_drum,Note On,9,a#3,
0.210970333333333,met_drum,Note Off,9,a#3,
0.105485166666667,met_drum,Note On,9,f#3,
0.105485166666667,met_drum,Note Off,9,d3,
0.105485166666667,met_drum,Note Off,9,f#3,
0.105485166666667,met_drum,Note On,9,c3,
0,met_drum,Note On,9,a#3,
0,met_drum,Note On,9,c#4,
0.210970333333333,met_drum,Note Off,9,a#3,
0.105485166666667,met_drum,Note On,9,f#3,
0.105485166666667,met_drum,Note Off,9,c3,
0,met_drum,Note Off,9,c#4,
0.105485166666667,met_drum,Note Off,9,f#3,
0.105485166666667,met_drum,Note On,9,d3,
0,met_drum,Note On,9,a#3,
0.210970333333333,met_drum,Note Off,9,a#3,
0.105485166666667,met_drum,Note On,9,f#3,
0.105485166666667,met_drum,Note Off,9,d3,
0.105485166666667,met_drum,Note Off,9,f#3,
0.105485166666667,met_drum,Note On,9,d3,
0,met_drum,Note On,9,a#3,
0.210970333333333,met_drum,Note Off,9,a#3,
0.105485166666667,met_drum,Note On,9,f#3,
0.105485166666667,met_drum,Note Off,9,d3,
0.105485166666667,met_drum,Note Off,9,f#3,
0.105485166666667,met_drum,Note On,9,d3,
0,met_drum,Note On,9,a#3,
0.210970333333333,met_drum,Note Off,9,a#3,
0.105485166666667,met_drum,Note On,9,f#3,
0.105485166666667,met_drum,Note Off,9,d3,
0.105485166666667,met_drum,Note Off,9,f#3,
0.105485166666667,met_drum,Note On,9,c3,
0,met_drum,Note On,9,a#3,
0,met_drum,Note On,9,c#4,
0.210970333333333,met_drum,Note Off,9,a#3,
0.105485166666667,met_drum,Note On,9,f#3,
0.105485166666667,met_drum,Note Off,9,c3,
0,met_drum,Note Off,9,c#4,
0.105485166666667,met_drum,Note Off,9,f#3,
0.105485166666667,met_drum,Note On,9,d3,
0,met_drum,Note On,9,a#3,
0.210970333333333,met_drum,Note Off,9,a#3,
0.105485166666667,met_drum,Note On,9,f#3,
0.105485166666667,met_drum,Note Off,9,d3,
0.105485166666667,met_drum,Note Off,9,f#3,
0.105485166666667,met_drum,Note On,9,d3,
0,met_drum,Note On,9,a#3,
0.210970333333333,met_drum,Note Off,9,a#3,
0.105485166666667,met_drum,Note On,9,f#3,
0.105485166666667,met_drum,Note Off,9,d3,
0.105485166666667,met_drum,Note Off,9,f#3,
0.105485166666667,met_drum,Note On,9,d3,
0,met_drum,Note On,9,a#3,
0.210970333333333,met_drum,Note Off,9,a#3,
0.105485166666667,met_drum,Note On,9,f#3,
0.105485166666667,met_drum,Note Off,9,d3,
0.105485166666667,met_drum,Note Off,9,f#3,
0.105485166666667,met_drum,Note On,9,c3,
0,met_drum,Note On,9,a#3,
0,met_drum,Note On,9,c#4,
0.210970333333333,met_drum,Note Off,9,a#3,
0.105485166666667,met_drum,Note On,9,f#3,
0.105485166666667,met_drum,Note Off,9,c3,
0,met_drum,Note Off,9,c#4,
0.105485166666667,met_drum,Note Off,9,f#3,
0.105485166666667,met_drum,Note On,9,d3,
0,met_drum,Note On,9,a#3,
0.210970333333333,met_drum,Note Off,9,a#3,
0.105485166666667,met_drum,Note On,9,f#3,
0.105485166666667,met_drum,Note Off,9,d3,
0.105485166666667,met_drum,Note Off,9,f#3,
0.105485166666667,met_drum,Note On,9,d3,
0,met_drum,Note On,9,a#3,
0.210970333333333,met_drum,Note Off,9,a#3,
0.105485166666667,met_drum,Note On,9,f#3,
0.105485166666667,met_drum,Note Off,9,d3,
0.105485166666667,met_drum,Note Off,9,f#3,
0.105485166666667,met_drum,Note On,9,d3,
0,met_drum,Note On,9,a#3,
0.210970333333333,met_drum,Note Off,9,a#3,
0.105485166666667,met_drum,Note On,9,f#3,
0.105485166666667,met_drum,Note Off,9,d3,
0.105485166666667,met_drum,Note Off,9,f#3,
0.105485166666667,met_drum,Note On,9,c3,
0,met_drum,Note On,9,a#3,
0,met_drum,Note On,9,c#4,
0.210970333333333,met_drum,Note Off,9,a#3,
0.105485166666667,met_drum,Note On,9,f#3,
0.105485166666667,met_drum,Note Off,9,c3,
0,met_drum,Note Off,9,c#4,
0.105485166666667,met_drum,Note Off,9,f#3,
0.105485166666667,met_drum,Note On,9,d3,
0,met_drum,Note On,9,a#3,
0.210970333333333,met_drum,Note Off,9,a#3,
0.105485166666667,met_drum,Note On,9,f#3,
0.105485166666667,met_drum,Note Off,9,d3,
0.105485166666667,met_drum,Note Off,9,f#3,
0.105485166666667,met_drum,Note On,9,d3,
0,met_drum,Note On,9,a#3,
0.210970333333333,met_drum,Note Off,9,a#3,
0.105485166666667,met_drum,Note On,9,f#3,
0.105485166666667,met_drum,Note Off,9,d3,
0.105485166666667,met_drum,Note Off,9,f#3,
0.105485166666667,met_drum,Note On,9,d3,
0,met_drum,Note On,9,a#3,
0.210970333333333,met_drum,Note Off,9,a#3,
0.105485166666667,met_drum,Note On,9,f#3,
0.105485166666667,met_drum,Note Off,9,d3,
0.105485166666667,met_drum,Note Off,9,f#3,
0.105485166666667,met_drum,Note On,9,c3,
0,met_drum,Note On,9,a#3,
0,met_drum,Note On,9,c#4,
0.210970333333333,met_drum,Note Off,9,a#3,
0.105485166666667,met_drum,Note On,9,f#3,
0.105485166666667,met_drum,Note Off,9,c3,
0,met_drum,Note Off,9,c#4,
0.105485166666667,met_drum,Note Off,9,f#3,
0.105485166666667,met_drum,Note On,9,d3,
0,met_drum,Note On,9,a#3,
0.210970333333333,met_drum,Note Off,9,a#3,
0.105485166666667,met_drum,Note On,9,f#3,
0.105485166666667,met_drum,Note Off,9,d3,
0.105485166666667,met_drum,Note Off,9,f#3,
0.105485166666667,met_drum,Note On,9,d3,
0,met_drum,Note On,9,a#3,
0.210970333333333,met_drum,Note Off,9,a#3,
0.105485166666667,met_drum,Note On,9,f#3,
0.105485166666667,met_drum,Note Off,9,d3,
0.105485166666667,met_drum,Note Off,9,f#3,
0.105485166666667,met_drum,Note On,9,d3,
0,met_drum,Note On,9,a#3,
0.210970333333333,met_drum,Note Off,9,a#3,
0.105485166666667,met_drum,Note On,9,f#3,
0.105485166666667,met_drum,Note Off,9,d3,
0.105485166666667,met_drum,Note Off,9,f#3,
0.105485166666667,met_drum,Note On,9,c3,
0,met_drum,Note On,9,a#3,
0,met_drum,Note On,9,c#4,
0.210970333333333,met_drum,Note Off,9,a#3,
0.105485166666667,met_drum,Note On,9,f#3,
0.105485166666667,met_drum,Note Off,9,c3,
0,met_drum,Note Off,9,c#4,
0.105485166666667,met_drum,Note Off,9,f#3,
0.105485166666667,met_drum,Note On,9,d3,
0,met_drum,Note On,9,a#3,
0.210970333333333,met_drum,Note Off,9,a#3,
0.105485166666667,met_drum,Note On,9,f#3,
0.105485166666667,met_drum,Note Off,9,d3,
0.105485166666667,met_drum,Note Off,9,f#3,
0.105485166666667,met_drum,Note On,9,d3,
0,met_drum,Note On,9,a#3,
0.210970333333333,met_drum,Note Off,9,a#3,
0.105485166666667,met_drum,Note On,9,f#3,
0.105485166666667,met_drum,Note Off,9,d3,
0.105485166666667,met_drum,Note Off,9,f#3,
0.105485166666667,met_drum,Note On,9,d3,
0,met_drum,Note On,9,a#3,
0.210970333333333,met_drum,Note Off,9,a#3,
0.105485166666667,met_drum,Note On,9,f#3,
0.105485166666667,met_drum,Note Off,9,d3,
0.105485166666667,met_drum,Note Off,9,f#3,
0,voc -bu,Program Change,10,c0,
12.65822,voc -bu,Note On,10,e6,
0,voc -bu,Note On,10,e6,
0,voc -bu,Note On,10,e6,
0,voc -bu,Note On,10,e6,
0,voc -bu,Note On,10,e6,
0,voc -bu,Note On,10,e5,
0,voc -bu,Note On,10,e5,
0,voc -bu,Note On,10,e5,
0,voc -bu,Note On,10,e5,
0,voc -bu,Note On,10,e5,
0.105485166666667,voc -bu,Note Off,10,e6,
0,voc -bu,Note Off,10,e6,
0,voc -bu,Note Off,10,e6,
0,voc -bu,Note Off,10,e6,
0,voc -bu,Note Off,10,e6,
0,voc -bu,Note Off,10,e5,
0,voc -bu,Note Off,10,e5,
0,voc -bu,Note Off,10,e5,
0,voc -bu,Note Off,10,e5,
0,voc -bu,Note Off,10,e5,
0.0527425833333333,voc -bu,Note On,10,e6,
0,voc -bu,Note On,10,e6,
0,voc -bu,Note On,10,e6,
0,voc -bu,Note On,10,e6,
0,voc -bu,Note On,10,e6,
0,voc -bu,Note On,10,e5,
0,voc -bu,Note On,10,e5,
0,voc -bu,Note On,10,e5,
0,voc -bu,Note On,10,e5,
0,voc -bu,Note On,10,e5,
0.210970333333333,voc -bu,Note Off,10,e6,
0,voc -bu,Note Off,10,e6,
0,voc -bu,Note Off,10,e6,
0,voc -bu,Note Off,10,e6,
0,voc -bu,Note Off,10,e6,
0,voc -bu,Note Off,10,e5,
0,voc -bu,Note Off,10,e5,
0,voc -bu,Note Off,10,e5,
0,voc -bu,Note Off,10,e5,
0,voc -bu,Note Off,10,e5,
0.105485166666667,voc -bu,Note On,10,e6,
0,voc -bu,Note On,10,e6,
0,voc -bu,Note On,10,e6,
0,voc -bu,Note On,10,e6,
0,voc -bu,Note On,10,e6,
0,voc -bu,Note On,10,e5,
0,voc -bu,Note On,10,e5,
0,voc -bu,Note On,10,e5,
0,voc -bu,Note On,10,e5,
0,voc -bu,Note On,10,e5,
0.421940666666667,voc -bu,Note Off,10,e6,
0,voc -bu,Note Off,10,e6,
0,voc -bu,Note Off,10,e6,
0,voc -bu,Note Off,10,e6,
0,voc -bu,Note Off,10,e6,
0,voc -bu,Note Off,10,e5,
0,voc -bu,Note Off,10,e5,
0,voc -bu,Note Off,10,e5,
0,voc -bu,Note Off,10,e5,
0,voc -bu,Note Off,10,e5,
0.527425833333333,voc -bu,Note On,10,d6,
0,voc -bu,Note On,10,d6,
0,voc -bu,Note On,10,d6,
0,voc -bu,Note On,10,d6,
0,voc -bu,Note On,10,d6,
0,voc -bu,Note On,10,d5,
0,voc -bu,Note On,10,d5,
0,voc -bu,Note On,10,d5,
0,voc -bu,Note On,10,d5,
0,voc -bu,Note On,10,d5,
0.105485166666667,voc -bu,Note Off,10,d6,
0,voc -bu,Note Off,10,d6,
0,voc -bu,Note Off,10,d6,
0,voc -bu,Note Off,10,d6,
0,voc -bu,Note Off,10,d6,
0,voc -bu,Note Off,10,d5,
0,voc -bu,Note Off,10,d5,
0,voc -bu,Note Off,10,d5,
0,voc -bu,Note Off,10,d5,
0,voc -bu,Note Off,10,d5,
0.0527425833333333,voc -bu,Note On,10,d6,
0,voc -bu,Note On,10,d6,
0,voc -bu,Note On,10,d6,
0,voc -bu,Note On,10,d6,
0,voc -bu,Note On,10,d6,
0,voc -bu,Note On,10,d5,
0,voc -bu,Note On,10,d5,
0,voc -bu,Note On,10,d5,
0,voc -bu,Note On,10,d5,
0,voc -bu,Note On,10,d5,
0.105485166666667,voc -bu,Note Off,10,d6,
0,voc -bu,Note Off,10,d6,
0,voc -bu,Note Off,10,d6,
0,voc -bu,Note Off,10,d6,
0,voc -bu,Note Off,10,d6,
0,voc -bu,Note Off,10,d5,
0,voc -bu,Note Off,10,d5,
0,voc -bu,Note Off,10,d5,
0,voc -bu,Note Off,10,d5,
0,voc -bu,Note Off,10,d5,
0.0527425833333333,voc -bu,Note On,10,d6,
0,voc -bu,Note On,10,d6,
0,voc -bu,Note On,10,d6,
0,voc -bu,Note On,10,d6,
0,voc -bu,Note On,10,d6,
0,voc -bu,Note On,10,d5,
0,voc -bu,Note On,10,d5,
0,voc -bu,Note On,10,d5,
0,voc -bu,Note On,10,d5,
0,voc -bu,Note On,10,d5,
0.105485166666667,voc -bu,Note Off,10,d6,
0,voc -bu,Note Off,10,d6,
0,voc -bu,Note Off,10,d6,
0,voc -bu,Note Off,10,d6,
0,voc -bu,Note Off,10,d6,
0,voc -bu,Note Off,10,d5,
0,voc -bu,Note Off,10,d5,
0,voc -bu,Note Off,10,d5,
0,voc -bu,Note Off,10,d5,
0,voc -bu,Note Off,10,d5,
0.0527425833333333,voc -bu,Note On,10,d6,
0,voc -bu,Note On,10,d6,
0,voc -bu,Note On,10,d6,
0,voc -bu,Note On,10,d6,
0,voc -bu,Note On,10,d6,
0,voc -bu,Note On,10,d5,
0,voc -bu,Note On,10,d5,
0,voc -bu,Note On,10,d5,
0,voc -bu,Note On,10,d5,
0,voc -bu,Note On,10,d5,
0.421940666666667,voc -bu,Note Off,10,d6,
0,voc -bu,Note Off,10,d6,
0,voc -bu,Note Off,10,d6,
0,voc -bu,Note Off,10,d6,
0,voc -bu,Note Off,10,d6,
0,voc -bu,Note Off,10,d5,
0,voc -bu,Note Off,10,d5,
0,voc -bu,Note Off,10,d5,
0,voc -bu,Note Off,10,d5,
0,voc -bu,Note Off,10,d5,
0.369198083333333,voc -bu,Note On,10,e6,
0,voc -bu,Note On,10,e6,
0,voc -bu,Note On,10,e6,
0,voc -bu,Note On,10,e6,
0,voc -bu,Note On,10,e6,
0,voc -bu,Note On,10,e5,
0,voc -bu,Note On,10,e5,
0,voc -bu,Note On,10,e5,
0,voc -bu,Note On,10,e5,
0,voc -bu,Note On,10,e5,
0.105485166666667,voc -bu,Note Off,10,e6,
0,voc -bu,Note Off,10,e6,
0,voc -bu,Note Off,10,e6,
0,voc -bu,Note Off,10,e6,
0,voc -bu,Note Off,10,e6,
0,voc -bu,Note Off,10,e5,
0,voc -bu,Note Off,10,e5,
0,voc -bu,Note Off,10,e5,
0,voc -bu,Note Off,10,e5,
0,voc -bu,Note Off,10,e5,
0.0527425833333333,voc -bu,Note On,10,e6,
0,voc -bu,Note On,10,e6,
0,voc -bu,Note On,10,e6,
0,voc -bu,Note On,10,e6,
0,voc -bu,Note On,10,e6,
0,voc -bu,Note On,10,e5,
0,voc -bu,Note On,10,e5,
0,voc -bu,Note On,10,e5,
0,voc -bu,Note On,10,e5,
0,voc -bu,Note On,10,e5,
0.105485166666667,voc -bu,Note Off,10,e6,
0,voc -bu,Note Off,10,e6,
0,voc -bu,Note Off,10,e6,
0,voc -bu,Note Off,10,e6,
0,voc -bu,Note Off,10,e6,
0,voc -bu,Note Off,10,e5,
0,voc -bu,Note Off,10,e5,
0,voc -bu,Note Off,10,e5,
0,voc -bu,Note Off,10,e5,
0,voc -bu,Note Off,10,e5,
0.0527425833333333,voc -bu,Note On,10,e6,
0,voc -bu,Note On,10,e6,
0,voc -bu,Note On,10,e6,
0,voc -bu,Note On,10,e6,
0,voc -bu,Note On,10,e6,
0,voc -bu,Note On,10,e5,
0,voc -bu,Note On,10,e5,
0,voc -bu,Note On,10,e5,
0,voc -bu,Note On,10,e5,
0,voc -bu,Note On,10,e5,
0.105485166666667,voc -bu,Note Off,10,e6,
0,voc -bu,Note Off,10,e6,
0,voc -bu,Note Off,10,e6,
0,voc -bu,Note Off,10,e6,
0,voc -bu,Note Off,10,e6,
0,voc -bu,Note Off,10,e5,
0,voc -bu,Note Off,10,e5,
0,voc -bu,Note Off,10,e5,
0,voc -bu,Note Off,10,e5,
0,voc -bu,Note Off,10,e5,
0.0527425833333333,voc -bu,Note On,10,e6,
0,voc -bu,Note On,10,e6,
0,voc -bu,Note On,10,e6,
0,voc -bu,Note On,10,e6,
0,voc -bu,Note On,10,e6,
0,voc -bu,Note On,10,e5,
0,voc -bu,Note On,10,e5,
0,voc -bu,Note On,10,e5,
0,voc -bu,Note On,10,e5,
0,voc -bu,Note On,10,e5,
0.210970333333333,voc -bu,Note Off,10,e6,
0,voc -bu,Note Off,10,e6,
0,voc -bu,Note Off,10,e6,
0,voc -bu,Note Off,10,e6,
0,voc -bu,Note Off,10,e6,
0,voc -bu,Note Off,10,e5,
0,voc -bu,Note Off,10,e5,
0,voc -bu,Note Off,10,e5,
0,voc -bu,Note Off,10,e5,
0,voc -bu,Note Off,10,e5,
0.105485166666667,voc -bu,Note On,10,b5,
0,voc -bu,Note On,10,b5,
0,voc -bu,Note On,10,b5,
0,voc -bu,Note On,10,b5,
0,voc -bu,Note On,10,b5,
0,voc -bu,Note On,10,b4,
0,voc -bu,Note On,10,b4,
0,voc -bu,Note On,10,b4,
0,voc -bu,Note On,10,b4,
0,voc -bu,Note On,10,b4,
0.210970333333333,voc -bu,Note Off,10,b5,
0,voc -bu,Note Off,10,b5,
0,voc -bu,Note Off,10,b5,
0,voc -bu,Note Off,10,b5,
0,voc -bu,Note Off,10,b5,
0,voc -bu,Note Off,10,b4,
0,voc -bu,Note Off,10,b4,
0,voc -bu,Note Off,10,b4,
0,voc -bu,Note Off,10,b4,
0,voc -bu,Note Off,10,b4,
0.105485166666667,voc -bu,Note On,10,a5,
0,voc -bu,Note On,10,a5,
0,voc -bu,Note On,10,a5,
0,voc -bu,Note On,10,a5,
0,voc -bu,Note On,10,a5,
0,voc -bu,Note On,10,a4,
0,voc -bu,Note On,10,a4,
0,voc -bu,Note On,10,a4,
0,voc -bu,Note On,10,a4,
0,voc -bu,Note On,10,a4,
0.105485166666667,voc -bu,Note Off,10,a5,
0,voc -bu,Note Off,10,a5,
0,voc -bu,Note Off,10,a5,
0,voc -bu,Note Off,10,a5,
0,voc -bu,Note Off,10,a5,
0,voc -bu,Note Off,10,a4,
0,voc -bu,Note Off,10,a4,
0,voc -bu,Note Off,10,a4,
0,voc -bu,Note Off,10,a4,
0,voc -bu,Note Off,10,a4,
0.0527425833333333,voc -bu,Note On,10,g#5,
0,voc -bu,Note On,10,g#5,
0,voc -bu,Note On,10,g#5,
0,voc -bu,Note On,10,g#5,
0,voc -bu,Note On,10,g#5,
0,voc -bu,Note On,10,g#4,
0,voc -bu,Note On,10,g#4,
0,voc -bu,Note On,10,g#4,
0,voc -bu,Note On,10,g#4,
0,voc -bu,Note On,10,g#4,
0.105485166666667,voc -bu,Note Off,10,g#5,
0,voc -bu,Note Off,10,g#5,
0,voc -bu,Note Off,10,g#5,
0,voc -bu,Note Off,10,g#5,
0,voc -bu,Note Off,10,g#5,
0,voc -bu,Note Off,10,g#4,
0,voc -bu,Note Off,10,g#4,
0,voc -bu,Note Off,10,g#4,
0,voc -bu,Note Off,10,g#4,
0,voc -bu,Note Off,10,g#4,
0.0527425833333333,voc -bu,Note On,10,b5,
0,voc -bu,Note On,10,b5,
0,voc -bu,Note On,10,b5,
0,voc -bu,Note On,10,b5,
0,voc -bu,Note On,10,b5,
0,voc -bu,Note On,10,b4,
0,voc -bu,Note On,10,b4,
0,voc -bu,Note On,10,b4,
0,voc -bu,Note On,10,b4,
0,voc -bu,Note On,10,b4,
0.210970333333333,voc -bu,Note Off,10,b5,
0,voc -bu,Note Off,10,b5,
0,voc -bu,Note Off,10,b5,
0,voc -bu,Note Off,10,b5,
0,voc -bu,Note Off,10,b5,
0,voc -bu,Note Off,10,b4,
0,voc -bu,Note Off,10,b4,
0,voc -bu,Note Off,10,b4,
0,voc -bu,Note Off,10,b4,
0,voc -bu,Note Off,10,b4,
0.105485166666667,voc -bu,Note On,10,a5,
0,voc -bu,Note On,10,a5,
0,voc -bu,Note On,10,a5,
0,voc -bu,Note On,10,a5,
0,voc -bu,Note On,10,a5,
0,voc -bu,Note On,10,a4,
0,voc -bu,Note On,10,a4,
0,voc -bu,Note On,10,a4,
0,voc -bu,Note On,10,a4,
0,voc -bu,Note On,10,a4,
0.210970333333333,voc -bu,Note Off,10,a5,
0,voc -bu,Note Off,10,a5,
0,voc -bu,Note Off,10,a5,
0,voc -bu,Note Off,10,a5,
0,voc -bu,Note Off,10,a5,
0,voc -bu,Note Off,10,a4,
0,voc -bu,Note Off,10,a4,
0,voc -bu,Note Off,10,a4,
0,voc -bu,Note Off,10,a4,
0,voc -bu,Note Off,10,a4,
0.105485166666667,voc -bu,Note On,10,e5,
0,voc -bu,Note On,10,e5,
0,voc -bu,Note On,10,e5,
0,voc -bu,Note On,10,e5,
0,voc -bu,Note On,10,e5,
0,voc -bu,Note On,10,e4,
0,voc -bu,Note On,10,e4,
0,voc -bu,Note On,10,e4,
0,voc -bu,Note On,10,e4,
0,voc -bu,Note On,10,e4,
0.421940666666667,voc -bu,Note Off,10,e5,
0,voc -bu,Note Off,10,e5,
0,voc -bu,Note Off,10,e5,
0,voc -bu,Note Off,10,e5,
0,voc -bu,Note Off,10,e5,
0,voc -bu,Note Off,10,e4,
0,voc -bu,Note Off,10,e4,
0,voc -bu,Note Off,10,e4,
0,voc -bu,Note Off,10,e4,
0,voc -bu,Note Off,10,e4,
0.210970333333333,voc -bu,Note On,10,d6,
0,voc -bu,Note On,10,d6,
0,voc -bu,Note On,10,d6,
0,voc -bu,Note On,10,d6,
0,voc -bu,Note On,10,d6,
0,voc -bu,Note On,10,d5,
0,voc -bu,Note On,10,d5,
0,voc -bu,Note On,10,d5,
0,voc -bu,Note On,10,d5,
0,voc -bu,Note On,10,d5,
0.210970333333333,voc -bu,Note Off,10,d6,
0,voc -bu,Note Off,10,d6,
0,voc -bu,Note Off,10,d6,
0,voc -bu,Note Off,10,d6,
0,voc -bu,Note Off,10,d6,
0,voc -bu,Note Off,10,d5,
0,voc -bu,Note Off,10,d5,
0,voc -bu,Note Off,10,d5,
0,voc -bu,Note Off,10,d5,
0,voc -bu,Note Off,10,d5,
0.105485166666667,voc -bu,Note On,10,d6,
0,voc -bu,Note On,10,d6,
0,voc -bu,Note On,10,d6,
0,voc -bu,Note On,10,d6,
0,voc -bu,Note On,10,d6,
0,voc -bu,Note On,10,d5,
0,voc -bu,Note On,10,d5,
0,voc -bu,Note On,10,d5,
0,voc -bu,Note On,10,d5,
0,voc -bu,Note On,10,d5,
0.421940666666667,voc -bu,Note Off,10,d6,
0,voc -bu,Note Off,10,d6,
0,voc -bu,Note Off,10,d6,
0,voc -bu,Note Off,10,d6,
0,voc -bu,Note Off,10,d6,
0,voc -bu,Note Off,10,d5,
0,voc -bu,Note Off,10,d5,
0,voc -bu,Note Off,10,d5,
0,voc -bu,Note Off,10,d5,
0,voc -bu,Note Off,10,d5,
0.369198083333333,voc -bu,Note On,10,d6,
0,voc -bu,Note On,10,d6,
0,voc -bu,Note On,10,d6,
0,voc -bu,Note On,10,d6,
0,voc -bu,Note On,10,d6,
0,voc -bu,Note On,10,d5,
0,voc -bu,Note On,10,d5,
0,voc -bu,Note On,10,d5,
0,voc -bu,Note On,10,d5,
0,voc -bu,Note On,10,d5,
0.105485166666667,voc -bu,Note Off,10,d6,
0,voc -bu,Note Off,10,d6,
0,voc -bu,Note Off,10,d6,
0,voc -bu,Note Off,10,d6,
0,voc -bu,Note Off,10,d6,
0,voc -bu,Note Off,10,d5,
0,voc -bu,Note Off,10,d5,
0,voc -bu,Note Off,10,d5,
0,voc -bu,Note Off,10,d5,
0,voc -bu,Note Off,10,d5,
0.0527425833333333,voc -bu,Note On,10,d6,
0,voc -bu,Note On,10,d6,
0,voc -bu,Note On,10,d6,
0,voc -bu,Note On,10,d6,
0,voc -bu,Note On,10,d6,
0,voc -bu,Note On,10,d5,
0,voc -bu,Note On,10,d5,
0,voc -bu,Note On,10,d5,
0,voc -bu,Note On,10,d5,
0,voc -bu,Note On,10,d5,
0.105485166666667,voc -bu,Note Off,10,d6,
0,voc -bu,Note Off,10,d6,
0,voc -bu,Note Off,10,d6,
0,voc -bu,Note Off,10,d6,
0,voc -bu,Note Off,10,d6,
0,voc -bu,Note Off,10,d5,
0,voc -bu,Note Off,10,d5,
0,voc -bu,Note Off,10,d5,
0,voc -bu,Note Off,10,d5,
0,voc -bu,Note Off,10,d5,
0.0527425833333333,voc -bu,Note On,10,d6,
0,voc -bu,Note On,10,d6,
0,voc -bu,Note On,10,d6,
0,voc -bu,Note On,10,d6,
0,voc -bu,Note On,10,d6,
0,voc -bu,Note On,10,d5,
0,voc -bu,Note On,10,d5,
0,voc -bu,Note On,10,d5,
0,voc -bu,Note On,10,d5,
0,voc -bu,Note On,10,d5,
0.421940666666667,voc -bu,Note Off,10,d6,
0,voc -bu,Note Off,10,d6,
0,voc -bu,Note Off,10,d6,
0,voc -bu,Note Off,10,d6,
0,voc -bu,Note Off,10,d6,
0,voc -bu,Note Off,10,d5,
0,voc -bu,Note Off,10,d5,
0,voc -bu,Note Off,10,d5,
0,voc -bu,Note Off,10,d5,
0,voc -bu,Note Off,10,d5,
0.685653583333333,voc -bu,Note On,10,b5,
0,voc -bu,Note On,10,b5,
0,voc -bu,Note On,10,b5,
0,voc -bu,Note On,10,b5,
0,voc -bu,Note On,10,b5,
0,voc -bu,Note On,10,b4,
0,voc -bu,Note On,10,b4,
0,voc -bu,Note On,10,b4,
0,voc -bu,Note On,10,b4,
0,voc -bu,Note On,10,b4,
0.210970333333333,voc -bu,Note Off,10,b5,
0,voc -bu,Note Off,10,b5,
0,voc -bu,Note Off,10,b5,
0,voc -bu,Note Off,10,b5,
0,voc -bu,Note Off,10,b5,
0,voc -bu,Note Off,10,b4,
0,voc -bu,Note Off,10,b4,
0,voc -bu,Note Off,10,b4,
0,voc -bu,Note Off,10,b4,
0,voc -bu,Note Off,10,b4,
0.105485166666667,voc -bu,Note On,10,b5,
0,voc -bu,Note On,10,b5,
0,voc -bu,Note On,10,b5,
0,voc -bu,Note On,10,b5,
0,voc -bu,Note On,10,b5,
0,voc -bu,Note On,10,b4,
0,voc -bu,Note On,10,b4,
0,voc -bu,Note On,10,b4,
0,voc -bu,Note On,10,b4,
0,voc -bu,Note On,10,b4,
0.210970333333333,voc -bu,Note Off,10,b5,
0,voc -bu,Note Off,10,b5,
0,voc -bu,Note Off,10,b5,
0,voc -bu,Note Off,10,b5,
0,voc -bu,Note Off,10,b5,
0,voc -bu,Note Off,10,b4,
0,voc -bu,Note Off,10,b4,
0,voc -bu,Note Off,10,b4,
0,voc -bu,Note Off,10,b4,
0,voc -bu,Note Off,10,b4,
0.105485166666667,voc -bu,Note On,10,b5,
0,voc -bu,Note On,10,b5,
0,voc -bu,Note On,10,b5,
0,voc -bu,Note On,10,b5,
0,voc -bu,Note On,10,b5,
0,voc -bu,Note On,10,b4,
0,voc -bu,Note On,10,b4,
0,voc -bu,Note On,10,b4,
0,voc -bu,Note On,10,b4,
0,voc -bu,Note On,10,b4,
0.210970333333333,voc -bu,Note Off,10,b5,
0,voc -bu,Note Off,10,b5,
0,voc -bu,Note Off,10,b5,
0,voc -bu,Note Off,10,b5,
0,voc -bu,Note Off,10,b5,
0,voc -bu,Note Off,10,b4,
0,voc -bu,Note Off,10,b4,
0,voc -bu,Note Off,10,b4,
0,voc -bu,Note Off,10,b4,
0,voc -bu,Note Off,10,b4,
0.105485166666667,voc -bu,Note On,10,d6,
0,voc -bu,Note On,10,d6,
0,voc -bu,Note On,10,d6,
0,voc -bu,Note On,10,d6,
0,voc -bu,Note On,10,d6,
0,voc -bu,Note On,10,d5,
0,voc -bu,Note On,10,d5,
0,voc -bu,Note On,10,d5,
0,voc -bu,Note On,10,d5,
0,voc -bu,Note On,10,d5,
0.105485166666667,voc -bu,Note Off,10,d6,
0,voc -bu,Note Off,10,d6,
0,voc -bu,Note Off,10,d6,
0,voc -bu,Note Off,10,d6,
0,voc -bu,Note Off,10,d6,
0,voc -bu,Note Off,10,d5,
0,voc -bu,Note Off,10,d5,
0,voc -bu,Note Off,10,d5,
0,voc -bu,Note Off,10,d5,
0,voc -bu,Note Off,10,d5,
0.0527425833333333,voc -bu,Note On,10,c#6,
0,voc -bu,Note On,10,c#6,
0,voc -bu,Note On,10,c#6,
0,voc -bu,Note On,10,c#6,
0,voc -bu,Note On,10,c#6,
0,voc -bu,Note On,10,c#5,
0,voc -bu,Note On,10,c#5,
0,voc -bu,Note On,10,c#5,
0,voc -bu,Note On,10,c#5,
0,voc -bu,Note On,10,c#5,
0.105485166666667,voc -bu,Note Off,10,c#6,
0,voc -bu,Note Off,10,c#6,
0,voc -bu,Note Off,10,c#6,
0,voc -bu,Note Off,10,c#6,
0,voc -bu,Note Off,10,c#6,
0,voc -bu,Note Off,10,c#5,
0,voc -bu,Note Off,10,c#5,
0,voc -bu,Note Off,10,c#5,
0,voc -bu,Note Off,10,c#5,
0,voc -bu,Note Off,10,c#5,
0.0527425833333333,voc -bu,Note On,10,b5,
0,voc -bu,Note On,10,b5,
0,voc -bu,Note On,10,b5,
0,voc -bu,Note On,10,b5,
0,voc -bu,Note On,10,b5,
0,voc -bu,Note On,10,b4,
0,voc -bu,Note On,10,b4,
0,voc -bu,Note On,10,b4,
0,voc -bu,Note On,10,b4,
0,voc -bu,Note On,10,b4,
0.105485166666667,voc -bu,Note Off,10,b5,
0,voc -bu,Note Off,10,b5,
0,voc -bu,Note Off,10,b5,
0,voc -bu,Note Off,10,b5,
0,voc -bu,Note Off,10,b5,
0,voc -bu,Note Off,10,b4,
0,voc -bu,Note Off,10,b4,
0,voc -bu,Note Off,10,b4,
0,voc -bu,Note Off,10,b4,
0,voc -bu,Note Off,10,b4,
0.0527425833333333,voc -bu,Note On,10,b5,
0,voc -bu,Note On,10,b5,
0,voc -bu,Note On,10,b5,
0,voc -bu,Note On,10,b5,
0,voc -bu,Note On,10,b5,
0,voc -bu,Note On,10,b4,
0,voc -bu,Note On,10,b4,
0,voc -bu,Note On,10,b4,
0,voc -bu,Note On,10,b4,
0,voc -bu,Note On,10,b4,
0.210970333333333,voc -bu,Note Off,10,b5,
0,voc -bu,Note Off,10,b5,
0,voc -bu,Note Off,10,b5,
0,voc -bu,Note Off,10,b5,
0,voc -bu,Note Off,10,b5,
0,voc -bu,Note Off,10,b4,
0,voc -bu,Note Off,10,b4,
0,voc -bu,Note Off,10,b4,
0,voc -bu,Note Off,10,b4,
0,voc -bu,Note Off,10,b4,
0.105485166666667,voc -bu,Note On,10,b5,
0,voc -bu,Note On,10,b5,
0,voc -bu,Note On,10,b5,
0,voc -bu,Note On,10,b5,
0,voc -bu,Note On,10,b5,
0,voc -bu,Note On,10,b4,
0,voc -bu,Note On,10,b4,
0,voc -bu,Note On,10,b4,
0,voc -bu,Note On,10,b4,
0,voc -bu,Note On,10,b4,
0.105485166666667,voc -bu,Note Off,10,b5,
0,voc -bu,Note Off,10,b5,
0,voc -bu,Note Off,10,b5,
0,voc -bu,Note Off,10,b5,
0,voc -bu,Note Off,10,b5,
0,voc -bu,Note Off,10,b4,
0,voc -bu,Note Off,10,b4,
0,voc -bu,Note Off,10,b4,
0,voc -bu,Note Off,10,b4,
0,voc -bu,Note Off,10,b4,
0.0527425833333333,voc -bu,Note On,10,b5,
0,voc -bu,Note On,10,b5,
0,voc -bu,Note On,10,b5,
0,voc -bu,Note On,10,b5,
0,voc -bu,Note On,10,b5,
0,voc -bu,Note On,10,b4,
0,voc -bu,Note On,10,b4,
0,voc -bu,Note On,10,b4,
0,voc -bu,Note On,10,b4,
0,voc -bu,Note On,10,b4,
0.210970333333333,voc -bu,Note Off,10,b5,
0,voc -bu,Note Off,10,b5,
0,voc -bu,Note Off,10,b5,
0,voc -bu,Note Off,10,b5,
0,voc -bu,Note Off,10,b5,
0,voc -bu,Note Off,10,b4,
0,voc -bu,Note Off,10,b4,
0,voc -bu,Note Off,10,b4,
0,voc -bu,Note Off,10,b4,
0,voc -bu,Note Off,10,b4,
0.105485166666667,voc -bu,Note On,10,d6,
0,voc -bu,Note On,10,d6,
0,voc -bu,Note On,10,d6,
0,voc -bu,Note On,10,d6,
0,voc -bu,Note On,10,d6,
0,voc -bu,Note On,10,d5,
0,voc -bu,Note On,10,d5,
0,voc -bu,Note On,10,d5,
0,voc -bu,Note On,10,d5,
0,voc -bu,Note On,10,d5,
0.105485166666667,voc -bu,Note Off,10,d6,
0,voc -bu,Note Off,10,d6,
0,voc -bu,Note Off,10,d6,
0,voc -bu,Note Off,10,d6,
0,voc -bu,Note Off,10,d6,
0,voc -bu,Note Off,10,d5,
0,voc -bu,Note Off,10,d5,
0,voc -bu,Note Off,10,d5,
0,voc -bu,Note Off,10,d5,
0,voc -bu,Note Off,10,d5,
0.0527425833333333,voc -bu,Note On,10,d6,
0,voc -bu,Note On,10,d6,
0,voc -bu,Note On,10,d6,
0,voc -bu,Note On,10,d6,
0,voc -bu,Note On,10,d6,
0,voc -bu,Note On,10,d5,
0,voc -bu,Note On,10,d5,
0,voc -bu,Note On,10,d5,
0,voc -bu,Note On,10,d5,
0,voc -bu,Note On,10,d5,
0.105485166666667,voc -bu,Note Off,10,d6,
0,voc -bu,Note Off,10,d6,
0,voc -bu,Note Off,10,d6,
0,voc -bu,Note Off,10,d6,
0,voc -bu,Note Off,10,d6,
0,voc -bu,Note Off,10,d5,
0,voc -bu,Note Off,10,d5,
0,voc -bu,Note Off,10,d5,
0,voc -bu,Note Off,10,d5,
0,voc -bu,Note Off,10,d5,
0.0527425833333333,voc -bu,Note On,10,d6,
0,voc -bu,Note On,10,d6,
0,voc -bu,Note On,10,d6,
0,voc -bu,Note On,10,d6,
0,voc -bu,Note On,10,d6,
0,voc -bu,Note On,10,d5,
0,voc -bu,Note On,10,d5,
0,voc -bu,Note On,10,d5,
0,voc -bu,Note On,10,d5,
0,voc -bu,Note On,10,d5,
0.105485166666667,voc -bu,Note Off,10,d6,
0,voc -bu,Note Off,10,d6,
0,voc -bu,Note Off,10,d6,
0,voc -bu,Note Off,10,d6,
0,voc -bu,Note Off,10,d6,
0,voc -bu,Note Off,10,d5,
0,voc -bu,Note Off,10,d5,
0,voc -bu,Note Off,10,d5,
0,voc -bu,Note Off,10,d5,
0,voc -bu,Note Off,10,d5,
0.0527425833333333,voc -bu,Note On,10,d6,
0,voc -bu,Note On,10,d6,
0,voc -bu,Note On,10,d6,
0,voc -bu,Note On,10,d6,
0,voc -bu,Note On,10,d6,
0,voc -bu,Note On,10,d5,
0,voc -bu,Note On,10,d5,
0,voc -bu,Note On,10,d5,
0,voc -bu,Note On,10,d5,
0,voc -bu,Note On,10,d5,
0.105485166666667,voc -bu,Note Off,10,d6,
0,voc -bu,Note Off,10,d6,
0,voc -bu,Note Off,10,d6,
0,voc -bu,Note Off,10,d6,
0,voc -bu,Note Off,10,d6,
0,voc -bu,Note Off,10,d5,
0,voc -bu,Note Off,10,d5,
0,voc -bu,Note Off,10,d5,
0,voc -bu,Note Off,10,d5,
0,voc -bu,Note Off,10,d5,
0.0527425833333333,voc -bu,Note On,10,d6,
0,voc -bu,Note On,10,d6,
0,voc -bu,Note On,10,d6,
0,voc -bu,Note On,10,d6,
0,voc -bu,Note On,10,d6,
0,voc -bu,Note On,10,d5,
0,voc -bu,Note On,10,d5,
0,voc -bu,Note On,10,d5,
0,voc -bu,Note On,10,d5,
0,voc -bu,Note On,10,d5,
0.210970333333333,voc -bu,Note Off,10,d6,
0,voc -bu,Note Off,10,d6,
0,voc -bu,Note Off,10,d6,
0,voc -bu,Note Off,10,d6,
0,voc -bu,Note Off,10,d6,
0,voc -bu,Note Off,10,d5,
0,voc -bu,Note Off,10,d5,
0,voc -bu,Note Off,10,d5,
0,voc -bu,Note Off,10,d5,
0,voc -bu,Note Off,10,d5,
0.105485166666667,voc -bu,Note On,10,a5,
0,voc -bu,Note On,10,a5,
0,voc -bu,Note On,10,a5,
0,voc -bu,Note On,10,a5,
0,voc -bu,Note On,10,a5,
0,voc -bu,Note On,10,a4,
0,voc -bu,Note On,10,a4,
0,voc -bu,Note On,10,a4,
0,voc -bu,Note On,10,a4,
0,voc -bu,Note On,10,a4,
0.105485166666667,voc -bu,Note Off,10,a5,
0,voc -bu,Note Off,10,a5,
0,voc -bu,Note Off,10,a5,
0,voc -bu,Note Off,10,a5,
0,voc -bu,Note Off,10,a5,
0,voc -bu,Note Off,10,a4,
0,voc -bu,Note Off,10,a4,
0,voc -bu,Note Off,10,a4,
0,voc -bu,Note Off,10,a4,
0,voc -bu,Note Off,10,a4,
0.0527425833333333,voc -bu,Note On,10,g5,
0,voc -bu,Note On,10,g5,
0,voc -bu,Note On,10,g5,
0,voc -bu,Note On,10,g5,
0,voc -bu,Note On,10,g5,
0,voc -bu,Note On,10,g4,
0,voc -bu,Note On,10,g4,
0,voc -bu,Note On,10,g4,
0,voc -bu,Note On,10,g4,
0,voc -bu,Note On,10,g4,
0.105485166666667,voc -bu,Note Off,10,g5,
0,voc -bu,Note Off,10,g5,
0,voc -bu,Note Off,10,g5,
0,voc -bu,Note Off,10,g5,
0,voc -bu,Note Off,10,g5,
0,voc -bu,Note Off,10,g4,
0,voc -bu,Note Off,10,g4,
0,voc -bu,Note Off,10,g4,
0,voc -bu,Note Off,10,g4,
0,voc -bu,Note Off,10,g4,
0.0527425833333333,voc -bu,Note On,10,a5,
0,voc -bu,Note On,10,a5,
0,voc -bu,Note On,10,a5,
0,voc -bu,Note On,10,a5,
0,voc -bu,Note On,10,a5,
0,voc -bu,Note On,10,a4,
0,voc -bu,Note On,10,a4,
0,voc -bu,Note On,10,a4,
0,voc -bu,Note On,10,a4,
0,voc -bu,Note On,10,a4,
0.105485166666667,voc -bu,Note Off,10,a5,
0,voc -bu,Note Off,10,a5,
0,voc -bu,Note Off,10,a5,
0,voc -bu,Note Off,10,a5,
0,voc -bu,Note Off,10,a5,
0,voc -bu,Note Off,10,a4,
0,voc -bu,Note Off,10,a4,
0,voc -bu,Note Off,10,a4,
0,voc -bu,Note Off,10,a4,
0,voc -bu,Note Off,10,a4,
0.0527425833333333,voc -bu,Note On,10,g5,
0,voc -bu,Note On,10,g5,
0,voc -bu,Note On,10,g5,
0,voc -bu,Note On,10,g5,
0,voc -bu,Note On,10,g5,
0,voc -bu,Note On,10,g4,
0,voc -bu,Note On,10,g4,
0,voc -bu,Note On,10,g4,
0,voc -bu,Note On,10,g4,
0,voc -bu,Note On,10,g4,
0.105485166666667,voc -bu,Note Off,10,g5,
0,voc -bu,Note Off,10,g5,
0,voc -bu,Note Off,10,g5,
0,voc -bu,Note Off,10,g5,
0,voc -bu,Note Off,10,g5,
0,voc -bu,Note Off,10,g4,
0,voc -bu,Note Off,10,g4,
0,voc -bu,Note Off,10,g4,
0,voc -bu,Note Off,10,g4,
0,voc -bu,Note Off,10,g4,
0.0527425833333333,voc -bu,Note On,10,b5,
0,voc -bu,Note On,10,b5,
0,voc -bu,Note On,10,b5,
0,voc -bu,Note On,10,b5,
0,voc -bu,Note On,10,b5,
0,voc -bu,Note On,10,b4,
0,voc -bu,Note On,10,b4,
0,voc -bu,Note On,10,b4,
0,voc -bu,Note On,10,b4,
0,voc -bu,Note On,10,b4,
0.210970333333333,voc -bu,Note Off,10,b5,
0,voc -bu,Note Off,10,b5,
0,voc -bu,Note Off,10,b5,
0,voc -bu,Note Off,10,b5,
0,voc -bu,Note Off,10,b5,
0,voc -bu,Note Off,10,b4,
0,voc -bu,Note Off,10,b4,
0,voc -bu,Note Off,10,b4,
0,voc -bu,Note Off,10,b4,
0,voc -bu,Note Off,10,b4,
0.105485166666667,voc -bu,Note On,10,g5,
0,voc -bu,Note On,10,g5,
0,voc -bu,Note On,10,g5,
0,voc -bu,Note On,10,g5,
0,voc -bu,Note On,10,g5,
0,voc -bu,Note On,10,g4,
0,voc -bu,Note On,10,g4,
0,voc -bu,Note On,10,g4,
0,voc -bu,Note On,10,g4,
0,voc -bu,Note On,10,g4,
0.15822775,voc -bu,Note On,10,e5,
0,voc -bu,Note On,10,e5,
0,voc -bu,Note On,10,e5,
0,voc -bu,Note On,10,e5,
0,voc -bu,Note On,10,e5,
0,voc -bu,Note On,10,e4,
0,voc -bu,Note On,10,e4,
0,voc -bu,Note On,10,e4,
0,voc -bu,Note On,10,e4,
0,voc -bu,Note On,10,e4,
0.263712916666667,voc -bu,Note Off,10,g5,
0,voc -bu,Note Off,10,g5,
0,voc -bu,Note Off,10,g5,
0,voc -bu,Note Off,10,g5,
0,voc -bu,Note Off,10,g5,
0,voc -bu,Note Off,10,g4,
0,voc -bu,Note Off,10,g4,
0,voc -bu,Note Off,10,g4,
0,voc -bu,Note Off,10,g4,
0,voc -bu,Note Off,10,g4,
0.0527425833333333,voc -bu,Note Off,10,e5,
0,voc -bu,Note Off,10,e5,
0,voc -bu,Note Off,10,e5,
0,voc -bu,Note Off,10,e5,
0,voc -bu,Note Off,10,e5,
0,voc -bu,Note Off,10,e4,
0,voc -bu,Note Off,10,e4,
0,voc -bu,Note Off,10,e4,
0,voc -bu,Note Off,10,e4,
0,voc -bu,Note Off,10,e4,
0.3164555,voc -bu,Note On,10,b5,
0,voc -bu,Note On,10,b5,
0,voc -bu,Note On,10,b5,
0,voc -bu,Note On,10,b5,
0,voc -bu,Note On,10,b5,
0,voc -bu,Note On,10,b4,
0,voc -bu,Note On,10,b4,
0,voc -bu,Note On,10,b4,
0,voc -bu,Note On,10,b4,
0,voc -bu,Note On,10,b4,
0.105485166666667,voc -bu,Note Off,10,b5,
0,voc -bu,Note Off,10,b5,
0,voc -bu,Note Off,10,b5,
0,voc -bu,Note Off,10,b5,
0,voc -bu,Note Off,10,b5,
0,voc -bu,Note Off,10,b4,
0,voc -bu,Note Off,10,b4,
0,voc -bu,Note Off,10,b4,
0,voc -bu,Note Off,10,b4,
0,voc -bu,Note Off,10,b4,
0.0527425833333333,voc -bu,Note On,10,b5,
0,voc -bu,Note On,10,b5,
0,voc -bu,Note On,10,b5,
0,voc -bu,Note On,10,b5,
0,voc -bu,Note On,10,b5,
0,voc -bu,Note On,10,b4,
0,voc -bu,Note On,10,b4,
0,voc -bu,Note On,10,b4,
0,voc -bu,Note On,10,b4,
0,voc -bu,Note On,10,b4,
0.105485166666667,voc -bu,Note Off,10,b5,
0,voc -bu,Note Off,10,b5,
0,voc -bu,Note Off,10,b5,
0,voc -bu,Note Off,10,b5,
0,voc -bu,Note Off,10,b5,
0,voc -bu,Note Off,10,b4,
0,voc -bu,Note Off,10,b4,
0,voc -bu,Note Off,10,b4,
0,voc -bu,Note Off,10,b4,
0,voc -bu,Note Off,10,b4,
0.0527425833333333,voc -bu,Note On,10,b5,
0,voc -bu,Note On,10,b5,
0,voc -bu,Note On,10,b5,
0,voc -bu,Note On,10,b5,
0,voc -bu,Note On,10,b5,
0,voc -bu,Note On,10,b4,
0,voc -bu,Note On,10,b4,
0,voc -bu,Note On,10,b4,
0,voc -bu,Note On,10,b4,
0,voc -bu,Note On,10,b4,
0.105485166666667,voc -bu,Note Off,10,b5,
0,voc -bu,Note Off,10,b5,
0,voc -bu,Note Off,10,b5,
0,voc -bu,Note Off,10,b5,
0,voc -bu,Note Off,10,b5,
0,voc -bu,Note Off,10,b4,
0,voc -bu,Note Off,10,b4,
0,voc -bu,Note Off,10,b4,
0,voc -bu,Note Off,10,b4,
0,voc -bu,Note Off,10,b4,
0.0527425833333333,voc -bu,Note On,10,a5,
0,voc -bu,Note On,10,a5,
0,voc -bu,Note On,10,a5,
0,voc -bu,Note On,10,a5,
0,voc -bu,Note On,10,a5,
0,voc -bu,Note On,10,a4,
0,voc -bu,Note On,10,a4,
0,voc -bu,Note On,10,a4,
0,voc -bu,Note On,10,a4,
0,voc -bu,Note On,10,a4,
0.210970333333333,voc -bu,Note Off,10,a5,
0,voc -bu,Note Off,10,a5,
0,voc -bu,Note Off,10,a5,
0,voc -bu,Note Off,10,a5,
0,voc -bu,Note Off,10,a5,
0,voc -bu,Note Off,10,a4,
0,voc -bu,Note Off,10,a4,
0,voc -bu,Note Off,10,a4,
0,voc -bu,Note Off,10,a4,
0,voc -bu,Note Off,10,a4,
0.105485166666667,voc -bu,Note On,10,b5,
0,voc -bu,Note On,10,b5,
0,voc -bu,Note On,10,b5,
0,voc -bu,Note On,10,b5,
0,voc -bu,Note On,10,b5,
0,voc -bu,Note On,10,b4,
0,voc -bu,Note On,10,b4,
0,voc -bu,Note On,10,b4,
0,voc -bu,Note On,10,b4,
0,voc -bu,Note On,10,b4,
0.105485166666667,voc -bu,Note Off,10,b5,
0,voc -bu,Note Off,10,b5,
0,voc -bu,Note Off,10,b5,
0,voc -bu,Note Off,10,b5,
0,voc -bu,Note Off,10,b5,
0,voc -bu,Note Off,10,b4,
0,voc -bu,Note Off,10,b4,
0,voc -bu,Note Off,10,b4,
0,voc -bu,Note Off,10,b4,
0,voc -bu,Note Off,10,b4,
0.0527425833333333,voc -bu,Note On,10,b5,
0,voc -bu,Note On,10,b5,
0,voc -bu,Note On,10,b5,
0,voc -bu,Note On,10,b5,
0,voc -bu,Note On,10,b5,
0,voc -bu,Note On,10,b4,
0,voc -bu,Note On,10,b4,
0,voc -bu,Note On,10,b4,
0,voc -bu,Note On,10,b4,
0,voc -bu,Note On,10,b4,
0.105485166666667,voc -bu,Note Off,10,b5,
0,voc -bu,Note Off,10,b5,
0,voc -bu,Note Off,10,b5,
0,voc -bu,Note Off,10,b5,
0,voc -bu,Note Off,10,b5,
0,voc -bu,Note Off,10,b4,
0,voc -bu,Note Off,10,b4,
0,voc -bu,Note Off,10,b4,
0,voc -bu,Note Off,10,b4,
0,voc -bu,Note Off,10,b4,
0.0527425833333333,voc -bu,Note On,10,d6,
0,voc -bu,Note On,10,d6,
0,voc -bu,Note On,10,d6,
0,voc -bu,Note On,10,d6,
0,voc -bu,Note On,10,d6,
0,voc -bu,Note On,10,d5,
0,voc -bu,Note On,10,d5,
0,voc -bu,Note On,10,d5,
0,voc -bu,Note On,10,d5,
0,voc -bu,Note On,10,d5,
0.105485166666667,voc -bu,Note Off,10,d6,
0,voc -bu,Note Off,10,d6,
0,voc -bu,Note Off,10,d6,
0,voc -bu,Note Off,10,d6,
0,voc -bu,Note Off,10,d6,
0,voc -bu,Note Off,10,d5,
0,voc -bu,Note Off,10,d5,
0,voc -bu,Note Off,10,d5,
0,voc -bu,Note Off,10,d5,
0,voc -bu,Note Off,10,d5,
0.0527425833333333,voc -bu,Note On,10,d6,
0,voc -bu,Note On,10,d6,
0,voc -bu,Note On,10,d6,
0,voc -bu,Note On,10,d6,
0,voc -bu,Note On,10,d6,
0,voc -bu,Note On,10,d5,
0,voc -bu,Note On,10,d5,
0,voc -bu,Note On,10,d5,
0,voc -bu,Note On,10,d5,
0,voc -bu,Note On,10,d5,
0.105485166666667,voc -bu,Note Off,10,d6,
0,voc -bu,Note Off,10,d6,
0,voc -bu,Note Off,10,d6,
0,voc -bu,Note Off,10,d6,
0,voc -bu,Note Off,10,d6,
0,voc -bu,Note Off,10,d5,
0,voc -bu,Note Off,10,d5,
0,voc -bu,Note Off,10,d5,
0,voc -bu,Note Off,10,d5,
0,voc -bu,Note Off,10,d5,
0.0527425833333333,voc -bu,Note On,10,d6,
0,voc -bu,Note On,10,d6,
0,voc -bu,Note On,10,d6,
0,voc -bu,Note On,10,d6,
0,voc -bu,Note On,10,d6,
0,voc -bu,Note On,10,d5,
0,voc -bu,Note On,10,d5,
0,voc -bu,Note On,10,d5,
0,voc -bu,Note On,10,d5,
0,voc -bu,Note On,10,d5,
0.210970333333333,voc -bu,Note Off,10,d6,
0,voc -bu,Note Off,10,d6,
0,voc -bu,Note Off,10,d6,
0,voc -bu,Note Off,10,d6,
0,voc -bu,Note Off,10,d6,
0,voc -bu,Note Off,10,d5,
0,voc -bu,Note Off,10,d5,
0,voc -bu,Note Off,10,d5,
0,voc -bu,Note Off,10,d5,
0,voc -bu,Note Off,10,d5,
0.263712916666667,voc -bu,Note On,10,e6,
0,voc -bu,Note On,10,e6,
0,voc -bu,Note On,10,e6,
0,voc -bu,Note On,10,e6,
0,voc -bu,Note On,10,e6,
0,voc -bu,Note On,10,e5,
0,voc -bu,Note On,10,e5,
0,voc -bu,Note On,10,e5,
0,voc -bu,Note On,10,e5,
0,voc -bu,Note On,10,e5,
0.105485166666667,voc -bu,Note Off,10,e6,
0,voc -bu,Note Off,10,e6,
0,voc -bu,Note Off,10,e6,
0,voc -bu,Note Off,10,e6,
0,voc -bu,Note Off,10,e6,
0,voc -bu,Note Off,10,e5,
0,voc -bu,Note Off,10,e5,
0,voc -bu,Note Off,10,e5,
0,voc -bu,Note Off,10,e5,
0,voc -bu,Note Off,10,e5,
0.0527425833333333,voc -bu,Note On,10,e6,
0,voc -bu,Note On,10,e6,
0,voc -bu,Note On,10,e6,
0,voc -bu,Note On,10,e6,
0,voc -bu,Note On,10,e6,
0,voc -bu,Note On,10,e5,
0,voc -bu,Note On,10,e5,
0,voc -bu,Note On,10,e5,
0,voc -bu,Note On,10,e5,
0,voc -bu,Note On,10,e5,
0.210970333333333,voc -bu,Note Off,10,e6,
0,voc -bu,Note Off,10,e6,
0,voc -bu,Note Off,10,e6,
0,voc -bu,Note Off,10,e6,
0,voc -bu,Note Off,10,e6,
0,voc -bu,Note Off,10,e5,
0,voc -bu,Note Off,10,e5,
0,voc -bu,Note Off,10,e5,
0,voc -bu,Note Off,10,e5,
0,voc -bu,Note Off,10,e5,
0.421940666666667,voc -bu,Note On,10,e6,
0,voc -bu,Note On,10,e6,
0,voc -bu,Note On,10,e6,
0,voc -bu,Note On,10,e6,
0,voc -bu,Note On,10,e6,
0,voc -bu,Note On,10,e5,
0,voc -bu,Note On,10,e5,
0,voc -bu,Note On,10,e5,
0,voc -bu,Note On,10,e5,
0,voc -bu,Note On,10,e5,
0.210970333333333,voc -bu,Note Off,10,e6,
0,voc -bu,Note Off,10,e6,
0,voc -bu,Note Off,10,e6,
0,voc -bu,Note Off,10,e6,
0,voc -bu,Note Off,10,e6,
0,voc -bu,Note Off,10,e5,
0,voc -bu,Note Off,10,e5,
0,voc -bu,Note Off,10,e5,
0,voc -bu,Note Off,10,e5,
0,voc -bu,Note Off,10,e5,
0.105485166666667,voc -bu,Note On,10,e6,
0,voc -bu,Note On,10,e6,
0,voc -bu,Note On,10,e6,
0,voc -bu,Note On,10,e6,
0,voc -bu,Note On,10,e6,
0,voc -bu,Note On,10,e5,
0,voc -bu,Note On,10,e5,
0,voc -bu,Note On,10,e5,
0,voc -bu,Note On,10,e5,
0,voc -bu,Note On,10,e5,
0.421940666666667,voc -bu,Note Off,10,e6,
0,voc -bu,Note Off,10,e6,
0,voc -bu,Note Off,10,e6,
0,voc -bu,Note Off,10,e6,
0,voc -bu,Note Off,10,e6,
0,voc -bu,Note Off,10,e5,
0,voc -bu,Note Off,10,e5,
0,voc -bu,Note Off,10,e5,
0,voc -bu,Note Off,10,e5,
0,voc -bu,Note Off,10,e5,
0.527425833333333,voc -bu,Note On,10,d6,
0,voc -bu,Note On,10,d6,
0,voc -bu,Note On,10,d6,
0,voc -bu,Note On,10,d6,
0,voc -bu,Note On,10,d6,
0,voc -bu,Note On,10,d5,
0,voc -bu,Note On,10,d5,
0,voc -bu,Note On,10,d5,
0,voc -bu,Note On,10,d5,
0,voc -bu,Note On,10,d5,
0.210970333333333,voc -bu,Note Off,10,d6,
0,voc -bu,Note Off,10,d6,
0,voc -bu,Note Off,10,d6,
0,voc -bu,Note Off,10,d6,
0,voc -bu,Note Off,10,d6,
0,voc -bu,Note Off,10,d5,
0,voc -bu,Note Off,10,d5,
0,voc -bu,Note Off,10,d5,
0,voc -bu,Note Off,10,d5,
0,voc -bu,Note Off,10,d5,
0.105485166666667,voc -bu,Note On,10,e6,
0,voc -bu,Note On,10,e6,
0,voc -bu,Note On,10,e6,
0,voc -bu,Note On,10,e6,
0,voc -bu,Note On,10,e6,
0,voc -bu,Note On,10,e5,
0,voc -bu,Note On,10,e5,
0,voc -bu,Note On,10,e5,
0,voc -bu,Note On,10,e5,
0,voc -bu,Note On,10,e5,
0.210970333333333,voc -bu,Note Off,10,e6,
0,voc -bu,Note Off,10,e6,
0,voc -bu,Note Off,10,e6,
0,voc -bu,Note Off,10,e6,
0,voc -bu,Note Off,10,e6,
0,voc -bu,Note Off,10,e5,
0,voc -bu,Note Off,10,e5,
0,voc -bu,Note Off,10,e5,
0,voc -bu,Note Off,10,e5,
0,voc -bu,Note Off,10,e5,
0.105485166666667,voc -bu,Note On,10,b5,
0,voc -bu,Note On,10,b5,
0,voc -bu,Note On,10,b5,
0,voc -bu,Note On,10,b5,
0,voc -bu,Note On,10,b5,
0,voc -bu,Note On,10,b4,
0,voc -bu,Note On,10,b4,
0,voc -bu,Note On,10,b4,
0,voc -bu,Note On,10,b4,
0,voc -bu,Note On,10,b4,
0.210970333333333,voc -bu,Note Off,10,b5,
0,voc -bu,Note Off,10,b5,
0,voc -bu,Note Off,10,b5,
0,voc -bu,Note Off,10,b5,
0,voc -bu,Note Off,10,b5,
0,voc -bu,Note Off,10,b4,
0,voc -bu,Note Off,10,b4,
0,voc -bu,Note Off,10,b4,
0,voc -bu,Note Off,10,b4,
0,voc -bu,Note Off,10,b4,
0.105485166666667,voc -bu,Note On,10,b5,
0,voc -bu,Note On,10,b5,
0,voc -bu,Note On,10,b5,
0,voc -bu,Note On,10,b5,
0,voc -bu,Note On,10,b5,
0,voc -bu,Note On,10,b4,
0,voc -bu,Note On,10,b4,
0,voc -bu,Note On,10,b4,
0,voc -bu,Note On,10,b4,
0,voc -bu,Note On,10,b4,
0.105485166666667,voc -bu,Note Off,10,b5,
0,voc -bu,Note Off,10,b5,
0,voc -bu,Note Off,10,b5,
0,voc -bu,Note Off,10,b5,
0,voc -bu,Note Off,10,b5,
0,voc -bu,Note Off,10,b4,
0,voc -bu,Note Off,10,b4,
0,voc -bu,Note Off,10,b4,
0,voc -bu,Note Off,10,b4,
0,voc -bu,Note Off,10,b4,
0.0527425833333333,voc -bu,Note On,10,b5,
0,voc -bu,Note On,10,b5,
0,voc -bu,Note On,10,b5,
0,voc -bu,Note On,10,b5,
0,voc -bu,Note On,10,b5,
0,voc -bu,Note On,10,b4,
0,voc -bu,Note On,10,b4,
0,voc -bu,Note On,10,b4,
0,voc -bu,Note On,10,b4,
0,voc -bu,Note On,10,b4,
0.105485166666667,voc -bu,Note Off,10,b5,
0,voc -bu,Note Off,10,b5,
0,voc -bu,Note Off,10,b5,
0,voc -bu,Note Off,10,b5,
0,voc -bu,Note Off,10,b5,
0,voc -bu,Note Off,10,b4,
0,voc -bu,Note Off,10,b4,
0,voc -bu,Note Off,10,b4,
0,voc -bu,Note Off,10,b4,
0,voc -bu,Note Off,10,b4,
0.0527425833333333,voc -bu,Note On,10,b5,
0,voc -bu,Note On,10,b5,
0,voc -bu,Note On,10,b5,
0,voc -bu,Note On,10,b5,
0,voc -bu,Note On,10,b5,
0,voc -bu,Note On,10,b4,
0,voc -bu,Note On,10,b4,
0,voc -bu,Note On,10,b4,
0,voc -bu,Note On,10,b4,
0,voc -bu,Note On,10,b4,
0.105485166666667,voc -bu,Note Off,10,b5,
0,voc -bu,Note Off,10,b5,
0,voc -bu,Note Off,10,b5,
0,voc -bu,Note Off,10,b5,
0,voc -bu,Note Off,10,b5,
0,voc -bu,Note Off,10,b4,
0,voc -bu,Note Off,10,b4,
0,voc -bu,Note Off,10,b4,
0,voc -bu,Note Off,10,b4,
0,voc -bu,Note Off,10,b4,
0.0527425833333333,voc -bu,Note On,10,b5,
0,voc -bu,Note On,10,b5,
0,voc -bu,Note On,10,b5,
0,voc -bu,Note On,10,b5,
0,voc -bu,Note On,10,b5,
0,voc -bu,Note On,10,b4,
0,voc -bu,Note On,10,b4,
0,voc -bu,Note On,10,b4,
0,voc -bu,Note On,10,b4,
0,voc -bu,Note On,10,b4,
0.105485166666667,voc -bu,Note Off,10,b5,
0,voc -bu,Note Off,10,b5,
0,voc -bu,Note Off,10,b5,
0,voc -bu,Note Off,10,b5,
0,voc -bu,Note Off,10,b5,
0,voc -bu,Note Off,10,b4,
0,voc -bu,Note Off,10,b4,
0,voc -bu,Note Off,10,b4,
0,voc -bu,Note Off,10,b4,
0,voc -bu,Note Off,10,b4,
0.0527425833333333,voc -bu,Note On,10,b5,
0,voc -bu,Note On,10,b5,
0,voc -bu,Note On,10,b5,
0,voc -bu,Note On,10,b5,
0,voc -bu,Note On,10,b5,
0,voc -bu,Note On,10,b4,
0,voc -bu,Note On,10,b4,
0,voc -bu,Note On,10,b4,
0,voc -bu,Note On,10,b4,
0,voc -bu,Note On,10,b4,
0.105485166666667,voc -bu,Note Off,10,b5,
0,voc -bu,Note Off,10,b5,
0,voc -bu,Note Off,10,b5,
0,voc -bu,Note Off,10,b5,
0,voc -bu,Note Off,10,b5,
0,voc -bu,Note Off,10,b4,
0,voc -bu,Note Off,10,b4,
0,voc -bu,Note Off,10,b4,
0,voc -bu,Note Off,10,b4,
0,voc -bu,Note Off,10,b4,
0.0527425833333333,voc -bu,Note On,10,b5,
0,voc -bu,Note On,10,b5,
0,voc -bu,Note On,10,b5,
0,voc -bu,Note On,10,b5,
0,voc -bu,Note On,10,b5,
0,voc -bu,Note On,10,b4,
0,voc -bu,Note On,10,b4,
0,voc -bu,Note On,10,b4,
0,voc -bu,Note On,10,b4,
0,voc -bu,Note On,10,b4,
0.105485166666667,voc -bu,Note Off,10,b5,
0,voc -bu,Note Off,10,b5,
0,voc -bu,Note Off,10,b5,
0,voc -bu,Note Off,10,b5,
0,voc -bu,Note Off,10,b5,
0,voc -bu,Note Off,10,b4,
0,voc -bu,Note Off,10,b4,
0,voc -bu,Note Off,10,b4,
0,voc -bu,Note Off,10,b4,
0,voc -bu,Note Off,10,b4,
0.0527425833333333,voc -bu,Note On,10,b5,
0,voc -bu,Note On,10,b5,
0,voc -bu,Note On,10,b5,
0,voc -bu,Note On,10,b5,
0,voc -bu,Note On,10,b5,
0,voc -bu,Note On,10,b4,
0,voc -bu,Note On,10,b4,
0,voc -bu,Note On,10,b4,
0,voc -bu,Note On,10,b4,
0,voc -bu,Note On,10,b4,
0.105485166666667,voc -bu,Note Off,10,b5,
0,voc -bu,Note Off,10,b5,
0,voc -bu,Note Off,10,b5,
0,voc -bu,Note Off,10,b5,
0,voc -bu,Note Off,10,b5,
0,voc -bu,Note Off,10,b4,
0,voc -bu,Note Off,10,b4,
0,voc -bu,Note Off,10,b4,
0,voc -bu,Note Off,10,b4,
0,voc -bu,Note Off,10,b4,
0.0527425833333333,voc -bu,Note On,10,b5,
0,voc -bu,Note On,10,b5,
0,voc -bu,Note On,10,b5,
0,voc -bu,Note On,10,b5,
0,voc -bu,Note On,10,b5,
0,voc -bu,Note On,10,b4,
0,voc -bu,Note On,10,b4,
0,voc -bu,Note On,10,b4,
0,voc -bu,Note On,10,b4,
0,voc -bu,Note On,10,b4,
0.105485166666667,voc -bu,Note Off,10,b5,
0,voc -bu,Note Off,10,b5,
0,voc -bu,Note Off,10,b5,
0,voc -bu,Note Off,10,b5,
0,voc -bu,Note Off,10,b5,
0,voc -bu,Note Off,10,b4,
0,voc -bu,Note Off,10,b4,
0,voc -bu,Note Off,10,b4,
0,voc -bu,Note Off,10,b4,
0,voc -bu,Note Off,10,b4,
0.0527425833333333,voc -bu,Note On,10,d6,
0,voc -bu,Note On,10,d6,
0,voc -bu,Note On,10,d6,
0,voc -bu,Note On,10,d6,
0,voc -bu,Note On,10,d6,
0,voc -bu,Note On,10,d5,
0,voc -bu,Note On,10,d5,
0,voc -bu,Note On,10,d5,
0,voc -bu,Note On,10,d5,
0,voc -bu,Note On,10,d5,
0.105485166666667,voc -bu,Note Off,10,d6,
0,voc -bu,Note Off,10,d6,
0,voc -bu,Note Off,10,d6,
0,voc -bu,Note Off,10,d6,
0,voc -bu,Note Off,10,d6,
0,voc -bu,Note Off,10,d5,
0,voc -bu,Note Off,10,d5,
0,voc -bu,Note Off,10,d5,
0,voc -bu,Note Off,10,d5,
0,voc -bu,Note Off,10,d5,
0.0527425833333333,voc -bu,Note On,10,d6,
0,voc -bu,Note On,10,d6,
0,voc -bu,Note On,10,d6,
0,voc -bu,Note On,10,d6,
0,voc -bu,Note On,10,d6,
0,voc -bu,Note On,10,d5,
0,voc -bu,Note On,10,d5,
0,voc -bu,Note On,10,d5,
0,voc -bu,Note On,10,d5,
0,voc -bu,Note On,10,d5,
0.105485166666667,voc -bu,Note Off,10,d6,
0,voc -bu,Note Off,10,d6,
0,voc -bu,Note Off,10,d6,
0,voc -bu,Note Off,10,d6,
0,voc -bu,Note Off,10,d6,
0,voc -bu,Note Off,10,d5,
0,voc -bu,Note Off,10,d5,
0,voc -bu,Note Off,10,d5,
0,voc -bu,Note Off,10,d5,
0,voc -bu,Note Off,10,d5,
0.0527425833333333,voc -bu,Note On,10,b5,
0,voc -bu,Note On,10,b5,
0,voc -bu,Note On,10,b5,
0,voc -bu,Note On,10,b5,
0,voc -bu,Note On,10,b5,
0,voc -bu,Note On,10,b4,
0,voc -bu,Note On,10,b4,
0,voc -bu,Note On,10,b4,
0,voc -bu,Note On,10,b4,
0,voc -bu,Note On,10,b4,
0.210970333333333,voc -bu,Note Off,10,b5,
0,voc -bu,Note Off,10,b5,
0,voc -bu,Note Off,10,b5,
0,voc -bu,Note Off,10,b5,
0,voc -bu,Note Off,10,b5,
0,voc -bu,Note Off,10,b4,
0,voc -bu,Note Off,10,b4,
0,voc -bu,Note Off,10,b4,
0,voc -bu,Note Off,10,b4,
0,voc -bu,Note Off,10,b4,
0.263712916666667,voc -bu,Note On,10,b5,
0,voc -bu,Note On,10,b5,
0,voc -bu,Note On,10,b5,
0,voc -bu,Note On,10,b5,
0,voc -bu,Note On,10,b5,
0,voc -bu,Note On,10,b4,
0,voc -bu,Note On,10,b4,
0,voc -bu,Note On,10,b4,
0,voc -bu,Note On,10,b4,
0,voc -bu,Note On,10,b4,
0.105485166666667,voc -bu,Note Off,10,b5,
0,voc -bu,Note Off,10,b5,
0,voc -bu,Note Off,10,b5,
0,voc -bu,Note Off,10,b5,
0,voc -bu,Note Off,10,b5,
0,voc -bu,Note Off,10,b4,
0,voc -bu,Note Off,10,b4,
0,voc -bu,Note Off,10,b4,
0,voc -bu,Note Off,10,b4,
0,voc -bu,Note Off,10,b4,
0.0527425833333333,voc -bu,Note On,10,d6,
0,voc -bu,Note On,10,d6,
0,voc -bu,Note On,10,d6,
0,voc -bu,Note On,10,d6,
0,voc -bu,Note On,10,d6,
0,voc -bu,Note On,10,d5,
0,voc -bu,Note On,10,d5,
0,voc -bu,Note On,10,d5,
0,voc -bu,Note On,10,d5,
0,voc -bu,Note On,10,d5,
0.210970333333333,voc -bu,Note Off,10,d6,
0,voc -bu,Note Off,10,d6,
0,voc -bu,Note Off,10,d6,
0,voc -bu,Note Off,10,d6,
0,voc -bu,Note Off,10,d6,
0,voc -bu,Note Off,10,d5,
0,voc -bu,Note Off,10,d5,
0,voc -bu,Note Off,10,d5,
0,voc -bu,Note Off,10,d5,
0,voc -bu,Note Off,10,d5,
0.105485166666667,voc -bu,Note On,10,b5,
0,voc -bu,Note On,10,b5,
0,voc -bu,Note On,10,b5,
0,voc -bu,Note On,10,b5,
0,voc -bu,Note On,10,b5,
0,voc -bu,Note On,10,b4,
0,voc -bu,Note On,10,b4,
0,voc -bu,Note On,10,b4,
0,voc -bu,Note On,10,b4,
0,voc -bu,Note On,10,b4,
0.421940666666667,voc -bu,Note Off,10,b5,
0,voc -bu,Note Off,10,b5,
0,voc -bu,Note Off,10,b5,
0,voc -bu,Note Off,10,b5,
0,voc -bu,Note Off,10,b5,
0,voc -bu,Note Off,10,b4,
0,voc -bu,Note Off,10,b4,
0,voc -bu,Note Off,10,b4,
0,voc -bu,Note Off,10,b4,
0,voc -bu,Note Off,10,b4,
1.47679233333333,voc -bu,Note On,10,b5,
0,voc -bu,Note On,10,b5,
0,voc -bu,Note On,10,b5,
0,voc -bu,Note On,10,b5,
0,voc -bu,Note On,10,b5,
0,voc -bu,Note On,10,b4,
0,voc -bu,Note On,10,b4,
0,voc -bu,Note On,10,b4,
0,voc -bu,Note On,10,b4,
0,voc -bu,Note On,10,b4,
0.105485166666667,voc -bu,Note Off,10,b5,
0,voc -bu,Note Off,10,b5,
0,voc -bu,Note Off,10,b5,
0,voc -bu,Note Off,10,b5,
0,voc -bu,Note Off,10,b5,
0,voc -bu,Note Off,10,b4,
0,voc -bu,Note Off,10,b4,
0,voc -bu,Note Off,10,b4,
0,voc -bu,Note Off,10,b4,
0,voc -bu,Note Off,10,b4,
0.0527425833333333,voc -bu,Note On,10,b5,
0,voc -bu,Note On,10,b5,
0,voc -bu,Note On,10,b5,
0,voc -bu,Note On,10,b5,
0,voc -bu,Note On,10,b5,
0,voc -bu,Note On,10,b4,
0,voc -bu,Note On,10,b4,
0,voc -bu,Note On,10,b4,
0,voc -bu,Note On,10,b4,
0,voc -bu,Note On,10,b4,
0.3164555,voc -bu,Note Off,10,b5,
0,voc -bu,Note Off,10,b5,
0,voc -bu,Note Off,10,b5,
0,voc -bu,Note Off,10,b5,
0,voc -bu,Note Off,10,b5,
0,voc -bu,Note Off,10,b4,
0,voc -bu,Note Off,10,b4,
0,voc -bu,Note Off,10,b4,
0,voc -bu,Note Off,10,b4,
0,voc -bu,Note Off,10,b4,
0.15822775,voc -bu,Note On,10,d6,
0,voc -bu,Note On,10,d6,
0,voc -bu,Note On,10,d6,
0,voc -bu,Note On,10,d6,
0,voc -bu,Note On,10,d6,
0,voc -bu,Note On,10,d5,
0,voc -bu,Note On,10,d5,
0,voc -bu,Note On,10,d5,
0,voc -bu,Note On,10,d5,
0,voc -bu,Note On,10,d5,
0.15822775,voc -bu,Note On,10,b5,
0,voc -bu,Note On,10,b5,
0,voc -bu,Note On,10,b5,
0,voc -bu,Note On,10,b5,
0,voc -bu,Note On,10,b5,
0,voc -bu,Note On,10,b4,
0,voc -bu,Note On,10,b4,
0,voc -bu,Note On,10,b4,
0,voc -bu,Note On,10,b4,
0,voc -bu,Note On,10,b4,
0.263712916666667,voc -bu,Note Off,10,d6,
0,voc -bu,Note Off,10,d6,
0,voc -bu,Note Off,10,d6,
0,voc -bu,Note Off,10,d6,
0,voc -bu,Note Off,10,d6,
0,voc -bu,Note Off,10,d5,
0,voc -bu,Note Off,10,d5,
0,voc -bu,Note Off,10,d5,
0,voc -bu,Note Off,10,d5,
0,voc -bu,Note Off,10,d5,
0.0527425833333333,voc -bu,Note Off,10,b5,
0,voc -bu,Note Off,10,b5,
0,voc -bu,Note Off,10,b5,
0,voc -bu,Note Off,10,b5,
0,voc -bu,Note Off,10,b5,
0,voc -bu,Note Off,10,b4,
0,voc -bu,Note Off,10,b4,
0,voc -bu,Note Off,10,b4,
0,voc -bu,Note Off,10,b4,
0,voc -bu,Note Off,10,b4,
1.42404975,voc -bu,Note On,10,e6,
0,voc -bu,Note On,10,e6,
0,voc -bu,Note On,10,e6,
0,voc -bu,Note On,10,e6,
0,voc -bu,Note On,10,e6,
0,voc -bu,Note On,10,e5,
0,voc -bu,Note On,10,e5,
0,voc -bu,Note On,10,e5,
0,voc -bu,Note On,10,e5,
0,voc -bu,Note On,10,e5,
0.105485166666667,voc -bu,Note Off,10,e6,
0,voc -bu,Note Off,10,e6,
0,voc -bu,Note Off,10,e6,
0,voc -bu,Note Off,10,e6,
0,voc -bu,Note Off,10,e6,
0,voc -bu,Note Off,10,e5,
0,voc -bu,Note Off,10,e5,
0,voc -bu,Note Off,10,e5,
0,voc -bu,Note Off,10,e5,
0,voc -bu,Note Off,10,e5,
0.0527425833333333,voc -bu,Note On,10,e6,
0,voc -bu,Note On,10,e6,
0,voc -bu,Note On,10,e6,
0,voc -bu,Note On,10,e6,
0,voc -bu,Note On,10,e6,
0,voc -bu,Note On,10,e5,
0,voc -bu,Note On,10,e5,
0,voc -bu,Note On,10,e5,
0,voc -bu,Note On,10,e5,
0,voc -bu,Note On,10,e5,
0.3164555,voc -bu,Note Off,10,e6,
0,voc -bu,Note Off,10,e6,
0,voc -bu,Note Off,10,e6,
0,voc -bu,Note Off,10,e6,
0,voc -bu,Note Off,10,e6,
0,voc -bu,Note Off,10,e5,
0,voc -bu,Note Off,10,e5,
0,voc -bu,Note Off,10,e5,
0,voc -bu,Note Off,10,e5,
0,voc -bu,Note Off,10,e5,
0.15822775,voc -bu,Note On,10,b5,
0,voc -bu,Note On,10,b5,
0,voc -bu,Note On,10,b5,
0,voc -bu,Note On,10,b5,
0,voc -bu,Note On,10,b5,
0,voc -bu,Note On,10,b4,
0,voc -bu,Note On,10,b4,
0,voc -bu,Note On,10,b4,
0,voc -bu,Note On,10,b4,
0,voc -bu,Note On,10,b4,
0.421940666666667,voc -bu,Note Off,10,b5,
0,voc -bu,Note Off,10,b5,
0,voc -bu,Note Off,10,b5,
0,voc -bu,Note Off,10,b5,
0,voc -bu,Note Off,10,b5,
0,voc -bu,Note Off,10,b4,
0,voc -bu,Note Off,10,b4,
0,voc -bu,Note Off,10,b4,
0,voc -bu,Note Off,10,b4,
0,voc -bu,Note Off,10,b4,
1.47679233333333,voc -bu,Note On,10,b5,
0,voc -bu,Note On,10,b5,
0,voc -bu,Note On,10,b5,
0,voc -bu,Note On,10,b5,
0,voc -bu,Note On,10,b5,
0,voc -bu,Note On,10,b4,
0,voc -bu,Note On,10,b4,
0,voc -bu,Note On,10,b4,
0,voc -bu,Note On,10,b4,
0,voc -bu,Note On,10,b4,
0.105485166666667,voc -bu,Note Off,10,b5,
0,voc -bu,Note Off,10,b5,
0,voc -bu,Note Off,10,b5,
0,voc -bu,Note Off,10,b5,
0,voc -bu,Note Off,10,b5,
0,voc -bu,Note Off,10,b4,
0,voc -bu,Note Off,10,b4,
0,voc -bu,Note Off,10,b4,
0,voc -bu,Note Off,10,b4,
0,voc -bu,Note Off,10,b4,
0.0527425833333333,voc -bu,Note On,10,b5,
0,voc -bu,Note On,10,b5,
0,voc -bu,Note On,10,b5,
0,voc -bu,Note On,10,b5,
0,voc -bu,Note On,10,b5,
0,voc -bu,Note On,10,b4,
0,voc -bu,Note On,10,b4,
0,voc -bu,Note On,10,b4,
0,voc -bu,Note On,10,b4,
0,voc -bu,Note On,10,b4,
0.3164555,voc -bu,Note Off,10,b5,
0,voc -bu,Note Off,10,b5,
0,voc -bu,Note Off,10,b5,
0,voc -bu,Note Off,10,b5,
0,voc -bu,Note Off,10,b5,
0,voc -bu,Note Off,10,b4,
0,voc -bu,Note Off,10,b4,
0,voc -bu,Note Off,10,b4,
0,voc -bu,Note Off,10,b4,
0,voc -bu,Note Off,10,b4,
0.15822775,voc -bu,Note On,10,d6,
0,voc -bu,Note On,10,d6,
0,voc -bu,Note On,10,d6,
0,voc -bu,Note On,10,d6,
0,voc -bu,Note On,10,d6,
0,voc -bu,Note On,10,d5,
0,voc -bu,Note On,10,d5,
0,voc -bu,Note On,10,d5,
0,voc -bu,Note On,10,d5,
0,voc -bu,Note On,10,d5,
0.421940666666667,voc -bu,Note Off,10,d6,
0,voc -bu,Note Off,10,d6,
0,voc -bu,Note Off,10,d6,
0,voc -bu,Note Off,10,d6,
0,voc -bu,Note Off,10,d6,
0,voc -bu,Note Off,10,d5,
0,voc -bu,Note Off,10,d5,
0,voc -bu,Note Off,10,d5,
0,voc -bu,Note Off,10,d5,
0,voc -bu,Note Off,10,d5,
2.42615883333333,voc -bu,Note On,10,a5,
0,voc -bu,Note On,10,a5,
0,voc -bu,Note On,10,a5,
0,voc -bu,Note On,10,a5,
0,voc -bu,Note On,10,a5,
0,voc -bu,Note On,10,a4,
0,voc -bu,Note On,10,a4,
0,voc -bu,Note On,10,a4,
0,voc -bu,Note On,10,a4,
0,voc -bu,Note On,10,a4,
0.632911,voc -bu,Note Off,10,a5,
0,voc -bu,Note Off,10,a5,
0,voc -bu,Note Off,10,a5,
0,voc -bu,Note Off,10,a5,
0,voc -bu,Note Off,10,a5,
0,voc -bu,Note Off,10,a4,
0,voc -bu,Note Off,10,a4,
0,voc -bu,Note Off,10,a4,
0,voc -bu,Note Off,10,a4,
0,voc -bu,Note Off,10,a4,
0,voc -bu,Note On,10,b5,
0,voc -bu,Note On,10,b5,
0,voc -bu,Note On,10,b5,
0,voc -bu,Note On,10,b5,
0,voc -bu,Note On,10,b5,
0,voc -bu,Note On,10,b4,
0,voc -bu,Note On,10,b4,
0,voc -bu,Note On,10,b4,
0,voc -bu,Note On,10,b4,
0,voc -bu,Note On,10,b4,
0.210970333333333,voc -bu,Note Off,10,b5,
0,voc -bu,Note Off,10,b5,
0,voc -bu,Note Off,10,b5,
0,voc -bu,Note Off,10,b5,
0,voc -bu,Note Off,10,b5,
0,voc -bu,Note Off,10,b4,
0,voc -bu,Note Off,10,b4,
0,voc -bu,Note Off,10,b4,
0,voc -bu,Note Off,10,b4,
0,voc -bu,Note Off,10,b4,
0.105485166666667,voc -bu,Note On,10,c#6,
0,voc -bu,Note On,10,c#6,
0,voc -bu,Note On,10,c#6,
0,voc -bu,Note On,10,c#6,
0,voc -bu,Note On,10,c#6,
0,voc -bu,Note On,10,c#5,
0,voc -bu,Note On,10,c#5,
0,voc -bu,Note On,10,c#5,
0,voc -bu,Note On,10,c#5,
0,voc -bu,Note On,10,c#5,
0.3164555,voc -bu,Note Off,10,c#6,
0,voc -bu,Note Off,10,c#6,
0,voc -bu,Note Off,10,c#6,
0,voc -bu,Note Off,10,c#6,
0,voc -bu,Note Off,10,c#6,
0,voc -bu,Note Off,10,c#5,
0,voc -bu,Note Off,10,c#5,
0,voc -bu,Note Off,10,c#5,
0,voc -bu,Note Off,10,c#5,
0,voc -bu,Note Off,10,c#5,
0.15822775,voc -bu,Note On,10,b5,
0,voc -bu,Note On,10,b5,
0,voc -bu,Note On,10,b5,
0,voc -bu,Note On,10,b5,
0,voc -bu,Note On,10,b5,
0,voc -bu,Note On,10,b4,
0,voc -bu,Note On,10,b4,
0,voc -bu,Note On,10,b4,
0,voc -bu,Note On,10,b4,
0,voc -bu,Note On,10,b4,
0.210970333333333,voc -bu,Note Off,10,b5,
0,voc -bu,Note Off,10,b5,
0,voc -bu,Note Off,10,b5,
0,voc -bu,Note Off,10,b5,
0,voc -bu,Note Off,10,b5,
0,voc -bu,Note Off,10,b4,
0,voc -bu,Note Off,10,b4,
0,voc -bu,Note Off,10,b4,
0,voc -bu,Note Off,10,b4,
0,voc -bu,Note Off,10,b4,
0.263712916666667,voc -bu,Note On,10,c#6,
0,voc -bu,Note On,10,c#6,
0,voc -bu,Note On,10,c#6,
0,voc -bu,Note On,10,c#6,
0,voc -bu,Note On,10,c#6,
0,voc -bu,Note On,10,c#5,
0,voc -bu,Note On,10,c#5,
0,voc -bu,Note On,10,c#5,
0,voc -bu,Note On,10,c#5,
0,voc -bu,Note On,10,c#5,
0.210970333333333,voc -bu,Note Off,10,c#6,
0,voc -bu,Note Off,10,c#6,
0,voc -bu,Note Off,10,c#6,
0,voc -bu,Note Off,10,c#6,
0,voc -bu,Note Off,10,c#6,
0,voc -bu,Note Off,10,c#5,
0,voc -bu,Note Off,10,c#5,
0,voc -bu,Note Off,10,c#5,
0,voc -bu,Note Off,10,c#5,
0,voc -bu,Note Off,10,c#5,
0.421940666666667,voc -bu,Note On,10,a5,
0,voc -bu,Note On,10,a5,
0,voc -bu,Note On,10,a5,
0,voc -bu,Note On,10,a5,
0,voc -bu,Note On,10,a5,
0,voc -bu,Note On,10,a4,
0,voc -bu,Note On,10,a4,
0,voc -bu,Note On,10,a4,
0,voc -bu,Note On,10,a4,
0,voc -bu,Note On,10,a4,
0.632911,voc -bu,Note Off,10,a5,
0,voc -bu,Note Off,10,a5,
0,voc -bu,Note Off,10,a5,
0,voc -bu,Note Off,10,a5,
0,voc -bu,Note Off,10,a5,
0,voc -bu,Note Off,10,a4,
0,voc -bu,Note Off,10,a4,
0,voc -bu,Note Off,10,a4,
0,voc -bu,Note Off,10,a4,
0,voc -bu,Note Off,10,a4,
0,voc -bu,Note On,10,b5,
0,voc -bu,Note On,10,b5,
0,voc -bu,Note On,10,b5,
0,voc -bu,Note On,10,b5,
0,voc -bu,Note On,10,b5,
0,voc -bu,Note On,10,b4,
0,voc -bu,Note On,10,b4,
0,voc -bu,Note On,10,b4,
0,voc -bu,Note On,10,b4,
0,voc -bu,Note On,10,b4,
0.210970333333333,voc -bu,Note Off,10,b5,
0,voc -bu,Note Off,10,b5,
0,voc -bu,Note Off,10,b5,
0,voc -bu,Note Off,10,b5,
0,voc -bu,Note Off,10,b5,
0,voc -bu,Note Off,10,b4,
0,voc -bu,Note Off,10,b4,
0,voc -bu,Note Off,10,b4,
0,voc -bu,Note Off,10,b4,
0,voc -bu,Note Off,10,b4,
0.105485166666667,voc -bu,Note On,10,c#6,
0,voc -bu,Note On,10,c#6,
0,voc -bu,Note On,10,c#6,
0,voc -bu,Note On,10,c#6,
0,voc -bu,Note On,10,c#6,
0,voc -bu,Note On,10,c#5,
0,voc -bu,Note On,10,c#5,
0,voc -bu,Note On,10,c#5,
0,voc -bu,Note On,10,c#5,
0,voc -bu,Note On,10,c#5,
0.3164555,voc -bu,Note Off,10,c#6,
0,voc -bu,Note Off,10,c#6,
0,voc -bu,Note Off,10,c#6,
0,voc -bu,Note Off,10,c#6,
0,voc -bu,Note Off,10,c#6,
0,voc -bu,Note Off,10,c#5,
0,voc -bu,Note Off,10,c#5,
0,voc -bu,Note Off,10,c#5,
0,voc -bu,Note Off,10,c#5,
0,voc -bu,Note Off,10,c#5,
0.15822775,voc -bu,Note On,10,b5,
0,voc -bu,Note On,10,b5,
0,voc -bu,Note On,10,b5,
0,voc -bu,Note On,10,b5,
0,voc -bu,Note On,10,b5,
0,voc -bu,Note On,10,b4,
0,voc -bu,Note On,10,b4,
0,voc -bu,Note On,10,b4,
0,voc -bu,Note On,10,b4,
0,voc -bu,Note On,10,b4,
0.210970333333333,voc -bu,Note Off,10,b5,
0,voc -bu,Note Off,10,b5,
0,voc -bu,Note Off,10,b5,
0,voc -bu,Note Off,10,b5,
0,voc -bu,Note Off,10,b5,
0,voc -bu,Note Off,10,b4,
0,voc -bu,Note Off,10,b4,
0,voc -bu,Note Off,10,b4,
0,voc -bu,Note Off,10,b4,
0,voc -bu,Note Off,10,b4,
0.105485166666667,voc -bu,Note On,10,c#6,
0,voc -bu,Note On,10,c#6,
0,voc -bu,Note On,10,c#6,
0,voc -bu,Note On,10,c#6,
0,voc -bu,Note On,10,c#6,
0,voc -bu,Note On,10,c#5,
0,voc -bu,Note On,10,c#5,
0,voc -bu,Note On,10,c#5,
0,voc -bu,Note On,10,c#5,
0,voc -bu,Note On,10,c#5,
0.105485166666667,voc -bu,Note Off,10,c#6,
0,voc -bu,Note Off,10,c#6,
0,voc -bu,Note Off,10,c#6,
0,voc -bu,Note Off,10,c#6,
0,voc -bu,Note Off,10,c#6,
0,voc -bu,Note Off,10,c#5,
0,voc -bu,Note Off,10,c#5,
0,voc -bu,Note Off,10,c#5,
0,voc -bu,Note Off,10,c#5,
0,voc -bu,Note Off,10,c#5,
0.0527425833333333,voc -bu,Note On,10,c#6,
0,voc -bu,Note On,10,c#6,
0,voc -bu,Note On,10,c#6,
0,voc -bu,Note On,10,c#6,
0,voc -bu,Note On,10,c#6,
0,voc -bu,Note On,10,c#5,
0,voc -bu,Note On,10,c#5,
0,voc -bu,Note On,10,c#5,
0,voc -bu,Note On,10,c#5,
0,voc -bu,Note On,10,c#5,
0.210970333333333,voc -bu,Note Off,10,c#6,
0,voc -bu,Note Off,10,c#6,
0,voc -bu,Note Off,10,c#6,
0,voc -bu,Note Off,10,c#6,
0,voc -bu,Note Off,10,c#6,
0,voc -bu,Note Off,10,c#5,
0,voc -bu,Note Off,10,c#5,
0,voc -bu,Note Off,10,c#5,
0,voc -bu,Note Off,10,c#5,
0,voc -bu,Note Off,10,c#5,
0.105485166666667,voc -bu,Note On,10,d6,
0,voc -bu,Note On,10,d6,
0,voc -bu,Note On,10,d6,
0,voc -bu,Note On,10,d6,
0,voc -bu,Note On,10,d6,
0,voc -bu,Note On,10,d5,
0,voc -bu,Note On,10,d5,
0,voc -bu,Note On,10,d5,
0,voc -bu,Note On,10,d5,
0,voc -bu,Note On,10,d5,
0.105485166666667,voc -bu,Note Off,10,d6,
0,voc -bu,Note Off,10,d6,
0,voc -bu,Note Off,10,d6,
0,voc -bu,Note Off,10,d6,
0,voc -bu,Note Off,10,d6,
0,voc -bu,Note Off,10,d5,
0,voc -bu,Note Off,10,d5,
0,voc -bu,Note Off,10,d5,
0,voc -bu,Note Off,10,d5,
0,voc -bu,Note Off,10,d5,
0.0527425833333333,voc -bu,Note On,10,d6,
0,voc -bu,Note On,10,d6,
0,voc -bu,Note On,10,d6,
0,voc -bu,Note On,10,d6,
0,voc -bu,Note On,10,d6,
0,voc -bu,Note On,10,d5,
0,voc -bu,Note On,10,d5,
0,voc -bu,Note On,10,d5,
0,voc -bu,Note On,10,d5,
0,voc -bu,Note On,10,d5,
0.210970333333333,voc -bu,Note Off,10,d6,
0,voc -bu,Note Off,10,d6,
0,voc -bu,Note Off,10,d6,
0,voc -bu,Note Off,10,d6,
0,voc -bu,Note Off,10,d6,
0,voc -bu,Note Off,10,d5,
0,voc -bu,Note Off,10,d5,
0,voc -bu,Note Off,10,d5,
0,voc -bu,Note Off,10,d5,
0,voc -bu,Note Off,10,d5,
0.105485166666667,voc -bu,Note On,10,d6,
0,voc -bu,Note On,10,d6,
0,voc -bu,Note On,10,d6,
0,voc -bu,Note On,10,d6,
0,voc -bu,Note On,10,d6,
0,voc -bu,Note On,10,d5,
0,voc -bu,Note On,10,d5,
0,voc -bu,Note On,10,d5,
0,voc -bu,Note On,10,d5,
0,voc -bu,Note On,10,d5,
0.421940666666667,voc -bu,Note Off,10,d6,
0,voc -bu,Note Off,10,d6,
0,voc -bu,Note Off,10,d6,
0,voc -bu,Note Off,10,d6,
0,voc -bu,Note Off,10,d6,
0,voc -bu,Note Off,10,d5,
0,voc -bu,Note Off,10,d5,
0,voc -bu,Note Off,10,d5,
0,voc -bu,Note Off,10,d5,
0,voc -bu,Note Off,10,d5,
1.16033683333333,voc -bu,Note On,10,d6,
0,voc -bu,Note On,10,d6,
0,voc -bu,Note On,10,d6,
0,voc -bu,Note On,10,d6,
0,voc -bu,Note On,10,d6,
0,voc -bu,Note On,10,d5,
0,voc -bu,Note On,10,d5,
0,voc -bu,Note On,10,d5,
0,voc -bu,Note On,10,d5,
0,voc -bu,Note On,10,d5,
0.105485166666667,voc -bu,Note Off,10,d6,
0,voc -bu,Note Off,10,d6,
0,voc -bu,Note Off,10,d6,
0,voc -bu,Note Off,10,d6,
0,voc -bu,Note Off,10,d6,
0,voc -bu,Note Off,10,d5,
0,voc -bu,Note Off,10,d5,
0,voc -bu,Note Off,10,d5,
0,voc -bu,Note Off,10,d5,
0,voc -bu,Note Off,10,d5,
0.0527425833333333,voc -bu,Note On,10,d6,
0,voc -bu,Note On,10,d6,
0,voc -bu,Note On,10,d6,
0,voc -bu,Note On,10,d6,
0,voc -bu,Note On,10,d6,
0,voc -bu,Note On,10,d5,
0,voc -bu,Note On,10,d5,
0,voc -bu,Note On,10,d5,
0,voc -bu,Note On,10,d5,
0,voc -bu,Note On,10,d5,
0.210970333333333,voc -bu,Note Off,10,d6,
0,voc -bu,Note Off,10,d6,
0,voc -bu,Note Off,10,d6,
0,voc -bu,Note Off,10,d6,
0,voc -bu,Note Off,10,d6,
0,voc -bu,Note Off,10,d5,
0,voc -bu,Note Off,10,d5,
0,voc -bu,Note Off,10,d5,
0,voc -bu,Note Off,10,d5,
0,voc -bu,Note Off,10,d5,
0.105485166666667,voc -bu,Note On,10,f#6,
0,voc -bu,Note On,10,f#6,
0,voc -bu,Note On,10,f#6,
0,voc -bu,Note On,10,f#6,
0,voc -bu,Note On,10,f#6,
0,voc -bu,Note On,10,f#5,
0,voc -bu,Note On,10,f#5,
0,voc -bu,Note On,10,f#5,
0,voc -bu,Note On,10,f#5,
0,voc -bu,Note On,10,f#5,
0.3164555,voc -bu,Note Off,10,f#6,
0,voc -bu,Note Off,10,f#6,
0,voc -bu,Note Off,10,f#6,
0,voc -bu,Note Off,10,f#6,
0,voc -bu,Note Off,10,f#6,
0,voc -bu,Note Off,10,f#5,
0,voc -bu,Note Off,10,f#5,
0,voc -bu,Note Off,10,f#5,
0,voc -bu,Note Off,10,f#5,
0,voc -bu,Note Off,10,f#5,
0.15822775,voc -bu,Note On,10,d6,
0,voc -bu,Note On,10,d6,
0,voc -bu,Note On,10,d6,
0,voc -bu,Note On,10,d6,
0,voc -bu,Note On,10,d6,
0,voc -bu,Note On,10,d5,
0,voc -bu,Note On,10,d5,
0,voc -bu,Note On,10,d5,
0,voc -bu,Note On,10,d5,
0,voc -bu,Note On,10,d5,
0.3164555,voc -bu,Note Off,10,d6,
0,voc -bu,Note Off,10,d6,
0,voc -bu,Note Off,10,d6,
0,voc -bu,Note Off,10,d6,
0,voc -bu,Note Off,10,d6,
0,voc -bu,Note Off,10,d5,
0,voc -bu,Note Off,10,d5,
0,voc -bu,Note Off,10,d5,
0,voc -bu,Note Off,10,d5,
0,voc -bu,Note Off,10,d5,
0.15822775,voc -bu,Note On,10,d6,
0,voc -bu,Note On,10,d6,
0,voc -bu,Note On,10,d6,
0,voc -bu,Note On,10,d6,
0,voc -bu,Note On,10,d6,
0,voc -bu,Note On,10,d5,
0,voc -bu,Note On,10,d5,
0,voc -bu,Note On,10,d5,
0,voc -bu,Note On,10,d5,
0,voc -bu,Note On,10,d5,
0.632911,voc -bu,Note Off,10,d6,
0,voc -bu,Note Off,10,d6,
0,voc -bu,Note Off,10,d6,
0,voc -bu,Note Off,10,d6,
0,voc -bu,Note Off,10,d6,
0,voc -bu,Note Off,10,d5,
0,voc -bu,Note Off,10,d5,
0,voc -bu,Note Off,10,d5,
0,voc -bu,Note Off,10,d5,
0,voc -bu,Note Off,10,d5,
0.9493665,voc -bu,Note On,10,e6,
0,voc -bu,Note On,10,e6,
0,voc -bu,Note On,10,e6,
0,voc -bu,Note On,10,e6,
0,voc -bu,Note On,10,e6,
0,voc -bu,Note On,10,e5,
0,voc -bu,Note On,10,e5,
0,voc -bu,Note On,10,e5,
0,voc -bu,Note On,10,e5,
0,voc -bu,Note On,10,e5,
0.105485166666667,voc -bu,Note Off,10,e6,
0,voc -bu,Note Off,10,e6,
0,voc -bu,Note Off,10,e6,
0,voc -bu,Note Off,10,e6,
0,voc -bu,Note Off,10,e6,
0,voc -bu,Note Off,10,e5,
0,voc -bu,Note Off,10,e5,
0,voc -bu,Note Off,10,e5,
0,voc -bu,Note Off,10,e5,
0,voc -bu,Note Off,10,e5,
0.0527425833333333,voc -bu,Note On,10,e6,
0,voc -bu,Note On,10,e6,
0,voc -bu,Note On,10,e6,
0,voc -bu,Note On,10,e6,
0,voc -bu,Note On,10,e6,
0,voc -bu,Note On,10,e5,
0,voc -bu,Note On,10,e5,
0,voc -bu,Note On,10,e5,
0,voc -bu,Note On,10,e5,
0,voc -bu,Note On,10,e5,
0.210970333333333,voc -bu,Note Off,10,e6,
0,voc -bu,Note Off,10,e6,
0,voc -bu,Note Off,10,e6,
0,voc -bu,Note Off,10,e6,
0,voc -bu,Note Off,10,e6,
0,voc -bu,Note Off,10,e5,
0,voc -bu,Note Off,10,e5,
0,voc -bu,Note Off,10,e5,
0,voc -bu,Note Off,10,e5,
0,voc -bu,Note Off,10,e5,
0.105485166666667,voc -bu,Note On,10,e6,
0,voc -bu,Note On,10,e6,
0,voc -bu,Note On,10,e6,
0,voc -bu,Note On,10,e6,
0,voc -bu,Note On,10,e6,
0,voc -bu,Note On,10,e5,
0,voc -bu,Note On,10,e5,
0,voc -bu,Note On,10,e5,
0,voc -bu,Note On,10,e5,
0,voc -bu,Note On,10,e5,
0.421940666666667,voc -bu,Note Off,10,e6,
0,voc -bu,Note Off,10,e6,
0,voc -bu,Note Off,10,e6,
0,voc -bu,Note Off,10,e6,
0,voc -bu,Note Off,10,e6,
0,voc -bu,Note Off,10,e5,
0,voc -bu,Note Off,10,e5,
0,voc -bu,Note Off,10,e5,
0,voc -bu,Note Off,10,e5,
0,voc -bu,Note Off,10,e5,
0.527425833333333,voc -bu,Note On,10,d6,
0,voc -bu,Note On,10,d6,
0,voc -bu,Note On,10,d6,
0,voc -bu,Note On,10,d6,
0,voc -bu,Note On,10,d6,
0,voc -bu,Note On,10,d5,
0,voc -bu,Note On,10,d5,
0,voc -bu,Note On,10,d5,
0,voc -bu,Note On,10,d5,
0,voc -bu,Note On,10,d5,
0.105485166666667,voc -bu,Note Off,10,d6,
0,voc -bu,Note Off,10,d6,
0,voc -bu,Note Off,10,d6,
0,voc -bu,Note Off,10,d6,
0,voc -bu,Note Off,10,d6,
0,voc -bu,Note Off,10,d5,
0,voc -bu,Note Off,10,d5,
0,voc -bu,Note Off,10,d5,
0,voc -bu,Note Off,10,d5,
0,voc -bu,Note Off,10,d5,
0.0527425833333333,voc -bu,Note On,10,d6,
0,voc -bu,Note On,10,d6,
0,voc -bu,Note On,10,d6,
0,voc -bu,Note On,10,d6,
0,voc -bu,Note On,10,d6,
0,voc -bu,Note On,10,d5,
0,voc -bu,Note On,10,d5,
0,voc -bu,Note On,10,d5,
0,voc -bu,Note On,10,d5,
0,voc -bu,Note On,10,d5,
0.105485166666667,voc -bu,Note Off,10,d6,
0,voc -bu,Note Off,10,d6,
0,voc -bu,Note Off,10,d6,
0,voc -bu,Note Off,10,d6,
0,voc -bu,Note Off,10,d6,
0,voc -bu,Note Off,10,d5,
0,voc -bu,Note Off,10,d5,
0,voc -bu,Note Off,10,d5,
0,voc -bu,Note Off,10,d5,
0,voc -bu,Note Off,10,d5,
0.0527425833333333,voc -bu,Note On,10,d6,
0,voc -bu,Note On,10,d6,
0,voc -bu,Note On,10,d6,
0,voc -bu,Note On,10,d6,
0,voc -bu,Note On,10,d6,
0,voc -bu,Note On,10,d5,
0,voc -bu,Note On,10,d5,
0,voc -bu,Note On,10,d5,
0,voc -bu,Note On,10,d5,
0,voc -bu,Note On,10,d5,
0.105485166666667,voc -bu,Note Off,10,d6,
0,voc -bu,Note Off,10,d6,
0,voc -bu,Note Off,10,d6,
0,voc -bu,Note Off,10,d6,
0,voc -bu,Note Off,10,d6,
0,voc -bu,Note Off,10,d5,
0,voc -bu,Note Off,10,d5,
0,voc -bu,Note Off,10,d5,
0,voc -bu,Note Off,10,d5,
0,voc -bu,Note Off,10,d5,
0.0527425833333333,voc -bu,Note On,10,d6,
0,voc -bu,Note On,10,d6,
0,voc -bu,Note On,10,d6,
0,voc -bu,Note On,10,d6,
0,voc -bu,Note On,10,d6,
0,voc -bu,Note On,10,d5,
0,voc -bu,Note On,10,d5,
0,voc -bu,Note On,10,d5,
0,voc -bu,Note On,10,d5,
0,voc -bu,Note On,10,d5,
0.421940666666667,voc -bu,Note Off,10,d6,
0,voc -bu,Note Off,10,d6,
0,voc -bu,Note Off,10,d6,
0,voc -bu,Note Off,10,d6,
0,voc -bu,Note Off,10,d6,
0,voc -bu,Note Off,10,d5,
0,voc -bu,Note Off,10,d5,
0,voc -bu,Note Off,10,d5,
0,voc -bu,Note Off,10,d5,
0,voc -bu,Note Off,10,d5,
0.369198083333333,voc -bu,Note On,10,e6,
0,voc -bu,Note On,10,e6,
0,voc -bu,Note On,10,e6,
0,voc -bu,Note On,10,e6,
0,voc -bu,Note On,10,e6,
0,voc -bu,Note On,10,e5,
0,voc -bu,Note On,10,e5,
0,voc -bu,Note On,10,e5,
0,voc -bu,Note On,10,e5,
0,voc -bu,Note On,10,e5,
0.105485166666667,voc -bu,Note Off,10,e6,
0,voc -bu,Note Off,10,e6,
0,voc -bu,Note Off,10,e6,
0,voc -bu,Note Off,10,e6,
0,voc -bu,Note Off,10,e6,
0,voc -bu,Note Off,10,e5,
0,voc -bu,Note Off,10,e5,
0,voc -bu,Note Off,10,e5,
0,voc -bu,Note Off,10,e5,
0,voc -bu,Note Off,10,e5,
0.0527425833333333,voc -bu,Note On,10,e6,
0,voc -bu,Note On,10,e6,
0,voc -bu,Note On,10,e6,
0,voc -bu,Note On,10,e6,
0,voc -bu,Note On,10,e6,
0,voc -bu,Note On,10,e5,
0,voc -bu,Note On,10,e5,
0,voc -bu,Note On,10,e5,
0,voc -bu,Note On,10,e5,
0,voc -bu,Note On,10,e5,
0.105485166666667,voc -bu,Note Off,10,e6,
0,voc -bu,Note Off,10,e6,
0,voc -bu,Note Off,10,e6,
0,voc -bu,Note Off,10,e6,
0,voc -bu,Note Off,10,e6,
0,voc -bu,Note Off,10,e5,
0,voc -bu,Note Off,10,e5,
0,voc -bu,Note Off,10,e5,
0,voc -bu,Note Off,10,e5,
0,voc -bu,Note Off,10,e5,
0.0527425833333333,voc -bu,Note On,10,e6,
0,voc -bu,Note On,10,e6,
0,voc -bu,Note On,10,e6,
0,voc -bu,Note On,10,e6,
0,voc -bu,Note On,10,e6,
0,voc -bu,Note On,10,e5,
0,voc -bu,Note On,10,e5,
0,voc -bu,Note On,10,e5,
0,voc -bu,Note On,10,e5,
0,voc -bu,Note On,10,e5,
0.105485166666667,voc -bu,Note Off,10,e6,
0,voc -bu,Note Off,10,e6,
0,voc -bu,Note Off,10,e6,
0,voc -bu,Note Off,10,e6,
0,voc -bu,Note Off,10,e6,
0,voc -bu,Note Off,10,e5,
0,voc -bu,Note Off,10,e5,
0,voc -bu,Note Off,10,e5,
0,voc -bu,Note Off,10,e5,
0,voc -bu,Note Off,10,e5,
0.0527425833333333,voc -bu,Note On,10,e6,
0,voc -bu,Note On,10,e6,
0,voc -bu,Note On,10,e6,
0,voc -bu,Note On,10,e6,
0,voc -bu,Note On,10,e6,
0,voc -bu,Note On,10,e5,
0,voc -bu,Note On,10,e5,
0,voc -bu,Note On,10,e5,
0,voc -bu,Note On,10,e5,
0,voc -bu,Note On,10,e5,
0.210970333333333,voc -bu,Note Off,10,e6,
0,voc -bu,Note Off,10,e6,
0,voc -bu,Note Off,10,e6,
0,voc -bu,Note Off,10,e6,
0,voc -bu,Note Off,10,e6,
0,voc -bu,Note Off,10,e5,
0,voc -bu,Note Off,10,e5,
0,voc -bu,Note Off,10,e5,
0,voc -bu,Note Off,10,e5,
0,voc -bu,Note Off,10,e5,
0.105485166666667,voc -bu,Note On,10,b5,
0,voc -bu,Note On,10,b5,
0,voc -bu,Note On,10,b5,
0,voc -bu,Note On,10,b5,
0,voc -bu,Note On,10,b5,
0,voc -bu,Note On,10,b4,
0,voc -bu,Note On,10,b4,
0,voc -bu,Note On,10,b4,
0,voc -bu,Note On,10,b4,
0,voc -bu,Note On,10,b4,
0.210970333333333,voc -bu,Note Off,10,b5,
0,voc -bu,Note Off,10,b5,
0,voc -bu,Note Off,10,b5,
0,voc -bu,Note Off,10,b5,
0,voc -bu,Note Off,10,b5,
0,voc -bu,Note Off,10,b4,
0,voc -bu,Note Off,10,b4,
0,voc -bu,Note Off,10,b4,
0,voc -bu,Note Off,10,b4,
0,voc -bu,Note Off,10,b4,
0.105485166666667,voc -bu,Note On,10,a5,
0,voc -bu,Note On,10,a5,
0,voc -bu,Note On,10,a5,
0,voc -bu,Note On,10,a5,
0,voc -bu,Note On,10,a5,
0,voc -bu,Note On,10,a4,
0,voc -bu,Note On,10,a4,
0,voc -bu,Note On,10,a4,
0,voc -bu,Note On,10,a4,
0,voc -bu,Note On,10,a4,
0.105485166666667,voc -bu,Note Off,10,a5,
0,voc -bu,Note Off,10,a5,
0,voc -bu,Note Off,10,a5,
0,voc -bu,Note Off,10,a5,
0,voc -bu,Note Off,10,a5,
0,voc -bu,Note Off,10,a4,
0,voc -bu,Note Off,10,a4,
0,voc -bu,Note Off,10,a4,
0,voc -bu,Note Off,10,a4,
0,voc -bu,Note Off,10,a4,
0.0527425833333333,voc -bu,Note On,10,g#5,
0,voc -bu,Note On,10,g#5,
0,voc -bu,Note On,10,g#5,
0,voc -bu,Note On,10,g#5,
0,voc -bu,Note On,10,g#5,
0,voc -bu,Note On,10,g#4,
0,voc -bu,Note On,10,g#4,
0,voc -bu,Note On,10,g#4,
0,voc -bu,Note On,10,g#4,
0,voc -bu,Note On,10,g#4,
0.105485166666667,voc -bu,Note Off,10,g#5,
0,voc -bu,Note Off,10,g#5,
0,voc -bu,Note Off,10,g#5,
0,voc -bu,Note Off,10,g#5,
0,voc -bu,Note Off,10,g#5,
0,voc -bu,Note Off,10,g#4,
0,voc -bu,Note Off,10,g#4,
0,voc -bu,Note Off,10,g#4,
0,voc -bu,Note Off,10,g#4,
0,voc -bu,Note Off,10,g#4,
0.0527425833333333,voc -bu,Note On,10,b5,
0,voc -bu,Note On,10,b5,
0,voc -bu,Note On,10,b5,
0,voc -bu,Note On,10,b5,
0,voc -bu,Note On,10,b5,
0,voc -bu,Note On,10,b4,
0,voc -bu,Note On,10,b4,
0,voc -bu,Note On,10,b4,
0,voc -bu,Note On,10,b4,
0,voc -bu,Note On,10,b4,
0.210970333333333,voc -bu,Note Off,10,b5,
0,voc -bu,Note Off,10,b5,
0,voc -bu,Note Off,10,b5,
0,voc -bu,Note Off,10,b5,
0,voc -bu,Note Off,10,b5,
0,voc -bu,Note Off,10,b4,
0,voc -bu,Note Off,10,b4,
0,voc -bu,Note Off,10,b4,
0,voc -bu,Note Off,10,b4,
0,voc -bu,Note Off,10,b4,
0.105485166666667,voc -bu,Note On,10,a5,
0,voc -bu,Note On,10,a5,
0,voc -bu,Note On,10,a5,
0,voc -bu,Note On,10,a5,
0,voc -bu,Note On,10,a5,
0,voc -bu,Note On,10,a4,
0,voc -bu,Note On,10,a4,
0,voc -bu,Note On,10,a4,
0,voc -bu,Note On,10,a4,
0,voc -bu,Note On,10,a4,
0.210970333333333,voc -bu,Note Off,10,a5,
0,voc -bu,Note Off,10,a5,
0,voc -bu,Note Off,10,a5,
0,voc -bu,Note Off,10,a5,
0,voc -bu,Note Off,10,a5,
0,voc -bu,Note Off,10,a4,
0,voc -bu,Note Off,10,a4,
0,voc -bu,Note Off,10,a4,
0,voc -bu,Note Off,10,a4,
0,voc -bu,Note Off,10,a4,
0.105485166666667,voc -bu,Note On,10,e5,
0,voc -bu,Note On,10,e5,
0,voc -bu,Note On,10,e5,
0,voc -bu,Note On,10,e5,
0,voc -bu,Note On,10,e5,
0,voc -bu,Note On,10,e4,
0,voc -bu,Note On,10,e4,
0,voc -bu,Note On,10,e4,
0,voc -bu,Note On,10,e4,
0,voc -bu,Note On,10,e4,
0.421940666666667,voc -bu,Note Off,10,e5,
0,voc -bu,Note Off,10,e5,
0,voc -bu,Note Off,10,e5,
0,voc -bu,Note Off,10,e5,
0,voc -bu,Note Off,10,e5,
0,voc -bu,Note Off,10,e4,
0,voc -bu,Note Off,10,e4,
0,voc -bu,Note Off,10,e4,
0,voc -bu,Note Off,10,e4,
0,voc -bu,Note Off,10,e4,
0.210970333333333,voc -bu,Note On,10,d6,
0,voc -bu,Note On,10,d6,
0,voc -bu,Note On,10,d6,
0,voc -bu,Note On,10,d6,
0,voc -bu,Note On,10,d6,
0,voc -bu,Note On,10,d5,
0,voc -bu,Note On,10,d5,
0,voc -bu,Note On,10,d5,
0,voc -bu,Note On,10,d5,
0,voc -bu,Note On,10,d5,
0.210970333333333,voc -bu,Note Off,10,d6,
0,voc -bu,Note Off,10,d6,
0,voc -bu,Note Off,10,d6,
0,voc -bu,Note Off,10,d6,
0,voc -bu,Note Off,10,d6,
0,voc -bu,Note Off,10,d5,
0,voc -bu,Note Off,10,d5,
0,voc -bu,Note Off,10,d5,
0,voc -bu,Note Off,10,d5,
0,voc -bu,Note Off,10,d5,
0.105485166666667,voc -bu,Note On,10,d6,
0,voc -bu,Note On,10,d6,
0,voc -bu,Note On,10,d6,
0,voc -bu,Note On,10,d6,
0,voc -bu,Note On,10,d6,
0,voc -bu,Note On,10,d5,
0,voc -bu,Note On,10,d5,
0,voc -bu,Note On,10,d5,
0,voc -bu,Note On,10,d5,
0,voc -bu,Note On,10,d5,
0.421940666666667,voc -bu,Note Off,10,d6,
0,voc -bu,Note Off,10,d6,
0,voc -bu,Note Off,10,d6,
0,voc -bu,Note Off,10,d6,
0,voc -bu,Note Off,10,d6,
0,voc -bu,Note Off,10,d5,
0,voc -bu,Note Off,10,d5,
0,voc -bu,Note Off,10,d5,
0,voc -bu,Note Off,10,d5,
0,voc -bu,Note Off,10,d5,
0.369198083333333,voc -bu,Note On,10,d6,
0,voc -bu,Note On,10,d6,
0,voc -bu,Note On,10,d6,
0,voc -bu,Note On,10,d6,
0,voc -bu,Note On,10,d6,
0,voc -bu,Note On,10,d5,
0,voc -bu,Note On,10,d5,
0,voc -bu,Note On,10,d5,
0,voc -bu,Note On,10,d5,
0,voc -bu,Note On,10,d5,
0.105485166666667,voc -bu,Note Off,10,d6,
0,voc -bu,Note Off,10,d6,
0,voc -bu,Note Off,10,d6,
0,voc -bu,Note Off,10,d6,
0,voc -bu,Note Off,10,d6,
0,voc -bu,Note Off,10,d5,
0,voc -bu,Note Off,10,d5,
0,voc -bu,Note Off,10,d5,
0,voc -bu,Note Off,10,d5,
0,voc -bu,Note Off,10,d5,
0.0527425833333333,voc -bu,Note On,10,d6,
0,voc -bu,Note On,10,d6,
0,voc -bu,Note On,10,d6,
0,voc -bu,Note On,10,d6,
0,voc -bu,Note On,10,d6,
0,voc -bu,Note On,10,d5,
0,voc -bu,Note On,10,d5,
0,voc -bu,Note On,10,d5,
0,voc -bu,Note On,10,d5,
0,voc -bu,Note On,10,d5,
0.105485166666667,voc -bu,Note Off,10,d6,
0,voc -bu,Note Off,10,d6,
0,voc -bu,Note Off,10,d6,
0,voc -bu,Note Off,10,d6,
0,voc -bu,Note Off,10,d6,
0,voc -bu,Note Off,10,d5,
0,voc -bu,Note Off,10,d5,
0,voc -bu,Note Off,10,d5,
0,voc -bu,Note Off,10,d5,
0,voc -bu,Note Off,10,d5,
0.0527425833333333,voc -bu,Note On,10,d6,
0,voc -bu,Note On,10,d6,
0,voc -bu,Note On,10,d6,
0,voc -bu,Note On,10,d6,
0,voc -bu,Note On,10,d6,
0,voc -bu,Note On,10,d5,
0,voc -bu,Note On,10,d5,
0,voc -bu,Note On,10,d5,
0,voc -bu,Note On,10,d5,
0,voc -bu,Note On,10,d5,
0.421940666666667,voc -bu,Note Off,10,d6,
0,voc -bu,Note Off,10,d6,
0,voc -bu,Note Off,10,d6,
0,voc -bu,Note Off,10,d6,
0,voc -bu,Note Off,10,d6,
0,voc -bu,Note Off,10,d5,
0,voc -bu,Note Off,10,d5,
0,voc -bu,Note Off,10,d5,
0,voc -bu,Note Off,10,d5,
0,voc -bu,Note Off,10,d5,
0.685653583333333,voc -bu,Note On,10,b5,
0,voc -bu,Note On,10,b5,
0,voc -bu,Note On,10,b5,
0,voc -bu,Note On,10,b5,
0,voc -bu,Note On,10,b5,
0,voc -bu,Note On,10,b4,
0,voc -bu,Note On,10,b4,
0,voc -bu,Note On,10,b4,
0,voc -bu,Note On,10,b4,
0,voc -bu,Note On,10,b4,
0.210970333333333,voc -bu,Note Off,10,b5,
0,voc -bu,Note Off,10,b5,
0,voc -bu,Note Off,10,b5,
0,voc -bu,Note Off,10,b5,
0,voc -bu,Note Off,10,b5,
0,voc -bu,Note Off,10,b4,
0,voc -bu,Note Off,10,b4,
0,voc -bu,Note Off,10,b4,
0,voc -bu,Note Off,10,b4,
0,voc -bu,Note Off,10,b4,
0.105485166666667,voc -bu,Note On,10,b5,
0,voc -bu,Note On,10,b5,
0,voc -bu,Note On,10,b5,
0,voc -bu,Note On,10,b5,
0,voc -bu,Note On,10,b5,
0,voc -bu,Note On,10,b4,
0,voc -bu,Note On,10,b4,
0,voc -bu,Note On,10,b4,
0,voc -bu,Note On,10,b4,
0,voc -bu,Note On,10,b4,
0.210970333333333,voc -bu,Note Off,10,b5,
0,voc -bu,Note Off,10,b5,
0,voc -bu,Note Off,10,b5,
0,voc -bu,Note Off,10,b5,
0,voc -bu,Note Off,10,b5,
0,voc -bu,Note Off,10,b4,
0,voc -bu,Note Off,10,b4,
0,voc -bu,Note Off,10,b4,
0,voc -bu,Note Off,10,b4,
0,voc -bu,Note Off,10,b4,
0.105485166666667,voc -bu,Note On,10,b5,
0,voc -bu,Note On,10,b5,
0,voc -bu,Note On,10,b5,
0,voc -bu,Note On,10,b5,
0,voc -bu,Note On,10,b5,
0,voc -bu,Note On,10,b4,
0,voc -bu,Note On,10,b4,
0,voc -bu,Note On,10,b4,
0,voc -bu,Note On,10,b4,
0,voc -bu,Note On,10,b4,
0.210970333333333,voc -bu,Note Off,10,b5,
0,voc -bu,Note Off,10,b5,
0,voc -bu,Note Off,10,b5,
0,voc -bu,Note Off,10,b5,
0,voc -bu,Note Off,10,b5,
0,voc -bu,Note Off,10,b4,
0,voc -bu,Note Off,10,b4,
0,voc -bu,Note Off,10,b4,
0,voc -bu,Note Off,10,b4,
0,voc -bu,Note Off,10,b4,
0.105485166666667,voc -bu,Note On,10,d6,
0,voc -bu,Note On,10,d6,
0,voc -bu,Note On,10,d6,
0,voc -bu,Note On,10,d6,
0,voc -bu,Note On,10,d6,
0,voc -bu,Note On,10,d5,
0,voc -bu,Note On,10,d5,
0,voc -bu,Note On,10,d5,
0,voc -bu,Note On,10,d5,
0,voc -bu,Note On,10,d5,
0.105485166666667,voc -bu,Note Off,10,d6,
0,voc -bu,Note Off,10,d6,
0,voc -bu,Note Off,10,d6,
0,voc -bu,Note Off,10,d6,
0,voc -bu,Note Off,10,d6,
0,voc -bu,Note Off,10,d5,
0,voc -bu,Note Off,10,d5,
0,voc -bu,Note Off,10,d5,
0,voc -bu,Note Off,10,d5,
0,voc -bu,Note Off,10,d5,
0.0527425833333333,voc -bu,Note On,10,c#6,
0,voc -bu,Note On,10,c#6,
0,voc -bu,Note On,10,c#6,
0,voc -bu,Note On,10,c#6,
0,voc -bu,Note On,10,c#6,
0,voc -bu,Note On,10,c#5,
0,voc -bu,Note On,10,c#5,
0,voc -bu,Note On,10,c#5,
0,voc -bu,Note On,10,c#5,
0,voc -bu,Note On,10,c#5,
0.105485166666667,voc -bu,Note Off,10,c#6,
0,voc -bu,Note Off,10,c#6,
0,voc -bu,Note Off,10,c#6,
0,voc -bu,Note Off,10,c#6,
0,voc -bu,Note Off,10,c#6,
0,voc -bu,Note Off,10,c#5,
0,voc -bu,Note Off,10,c#5,
0,voc -bu,Note Off,10,c#5,
0,voc -bu,Note Off,10,c#5,
0,voc -bu,Note Off,10,c#5,
0.0527425833333333,voc -bu,Note On,10,b5,
0,voc -bu,Note On,10,b5,
0,voc -bu,Note On,10,b5,
0,voc -bu,Note On,10,b5,
0,voc -bu,Note On,10,b5,
0,voc -bu,Note On,10,b4,
0,voc -bu,Note On,10,b4,
0,voc -bu,Note On,10,b4,
0,voc -bu,Note On,10,b4,
0,voc -bu,Note On,10,b4,
0.105485166666667,voc -bu,Note Off,10,b5,
0,voc -bu,Note Off,10,b5,
0,voc -bu,Note Off,10,b5,
0,voc -bu,Note Off,10,b5,
0,voc -bu,Note Off,10,b5,
0,voc -bu,Note Off,10,b4,
0,voc -bu,Note Off,10,b4,
0,voc -bu,Note Off,10,b4,
0,voc -bu,Note Off,10,b4,
0,voc -bu,Note Off,10,b4,
0.0527425833333333,voc -bu,Note On,10,b5,
0,voc -bu,Note On,10,b5,
0,voc -bu,Note On,10,b5,
0,voc -bu,Note On,10,b5,
0,voc -bu,Note On,10,b5,
0,voc -bu,Note On,10,b4,
0,voc -bu,Note On,10,b4,
0,voc -bu,Note On,10,b4,
0,voc -bu,Note On,10,b4,
0,voc -bu,Note On,10,b4,
0.210970333333333,voc -bu,Note Off,10,b5,
0,voc -bu,Note Off,10,b5,
0,voc -bu,Note Off,10,b5,
0,voc -bu,Note Off,10,b5,
0,voc -bu,Note Off,10,b5,
0,voc -bu,Note Off,10,b4,
0,voc -bu,Note Off,10,b4,
0,voc -bu,Note Off,10,b4,
0,voc -bu,Note Off,10,b4,
0,voc -bu,Note Off,10,b4,
0.105485166666667,voc -bu,Note On,10,b5,
0,voc -bu,Note On,10,b5,
0,voc -bu,Note On,10,b5,
0,voc -bu,Note On,10,b5,
0,voc -bu,Note On,10,b5,
0,voc -bu,Note On,10,b4,
0,voc -bu,Note On,10,b4,
0,voc -bu,Note On,10,b4,
0,voc -bu,Note On,10,b4,
0,voc -bu,Note On,10,b4,
0.105485166666667,voc -bu,Note Off,10,b5,
0,voc -bu,Note Off,10,b5,
0,voc -bu,Note Off,10,b5,
0,voc -bu,Note Off,10,b5,
0,voc -bu,Note Off,10,b5,
0,voc -bu,Note Off,10,b4,
0,voc -bu,Note Off,10,b4,
0,voc -bu,Note Off,10,b4,
0,voc -bu,Note Off,10,b4,
0,voc -bu,Note Off,10,b4,
0.0527425833333333,voc -bu,Note On,10,b5,
0,voc -bu,Note On,10,b5,
0,voc -bu,Note On,10,b5,
0,voc -bu,Note On,10,b5,
0,voc -bu,Note On,10,b5,
0,voc -bu,Note On,10,b4,
0,voc -bu,Note On,10,b4,
0,voc -bu,Note On,10,b4,
0,voc -bu,Note On,10,b4,
0,voc -bu,Note On,10,b4,
0.210970333333333,voc -bu,Note Off,10,b5,
0,voc -bu,Note Off,10,b5,
0,voc -bu,Note Off,10,b5,
0,voc -bu,Note Off,10,b5,
0,voc -bu,Note Off,10,b5,
0,voc -bu,Note Off,10,b4,
0,voc -bu,Note Off,10,b4,
0,voc -bu,Note Off,10,b4,
0,voc -bu,Note Off,10,b4,
0,voc -bu,Note Off,10,b4,
0.105485166666667,voc -bu,Note On,10,d6,
0,voc -bu,Note On,10,d6,
0,voc -bu,Note On,10,d6,
0,voc -bu,Note On,10,d6,
0,voc -bu,Note On,10,d6,
0,voc -bu,Note On,10,d5,
0,voc -bu,Note On,10,d5,
0,voc -bu,Note On,10,d5,
0,voc -bu,Note On,10,d5,
0,voc -bu,Note On,10,d5,
0.105485166666667,voc -bu,Note Off,10,d6,
0,voc -bu,Note Off,10,d6,
0,voc -bu,Note Off,10,d6,
0,voc -bu,Note Off,10,d6,
0,voc -bu,Note Off,10,d6,
0,voc -bu,Note Off,10,d5,
0,voc -bu,Note Off,10,d5,
0,voc -bu,Note Off,10,d5,
0,voc -bu,Note Off,10,d5,
0,voc -bu,Note Off,10,d5,
0.0527425833333333,voc -bu,Note On,10,d6,
0,voc -bu,Note On,10,d6,
0,voc -bu,Note On,10,d6,
0,voc -bu,Note On,10,d6,
0,voc -bu,Note On,10,d6,
0,voc -bu,Note On,10,d5,
0,voc -bu,Note On,10,d5,
0,voc -bu,Note On,10,d5,
0,voc -bu,Note On,10,d5,
0,voc -bu,Note On,10,d5,
0.105485166666667,voc -bu,Note Off,10,d6,
0,voc -bu,Note Off,10,d6,
0,voc -bu,Note Off,10,d6,
0,voc -bu,Note Off,10,d6,
0,voc -bu,Note Off,10,d6,
0,voc -bu,Note Off,10,d5,
0,voc -bu,Note Off,10,d5,
0,voc -bu,Note Off,10,d5,
0,voc -bu,Note Off,10,d5,
0,voc -bu,Note Off,10,d5,
0.0527425833333333,voc -bu,Note On,10,d6,
0,voc -bu,Note On,10,d6,
0,voc -bu,Note On,10,d6,
0,voc -bu,Note On,10,d6,
0,voc -bu,Note On,10,d6,
0,voc -bu,Note On,10,d5,
0,voc -bu,Note On,10,d5,
0,voc -bu,Note On,10,d5,
0,voc -bu,Note On,10,d5,
0,voc -bu,Note On,10,d5,
0.105485166666667,voc -bu,Note Off,10,d6,
0,voc -bu,Note Off,10,d6,
0,voc -bu,Note Off,10,d6,
0,voc -bu,Note Off,10,d6,
0,voc -bu,Note Off,10,d6,
0,voc -bu,Note Off,10,d5,
0,voc -bu,Note Off,10,d5,
0,voc -bu,Note Off,10,d5,
0,voc -bu,Note Off,10,d5,
0,voc -bu,Note Off,10,d5,
0.0527425833333333,voc -bu,Note On,10,d6,
0,voc -bu,Note On,10,d6,
0,voc -bu,Note On,10,d6,
0,voc -bu,Note On,10,d6,
0,voc -bu,Note On,10,d6,
0,voc -bu,Note On,10,d5,
0,voc -bu,Note On,10,d5,
0,voc -bu,Note On,10,d5,
0,voc -bu,Note On,10,d5,
0,voc -bu,Note On,10,d5,
0.105485166666667,voc -bu,Note Off,10,d6,
0,voc -bu,Note Off,10,d6,
0,voc -bu,Note Off,10,d6,
0,voc -bu,Note Off,10,d6,
0,voc -bu,Note Off,10,d6,
0,voc -bu,Note Off,10,d5,
0,voc -bu,Note Off,10,d5,
0,voc -bu,Note Off,10,d5,
0,voc -bu,Note Off,10,d5,
0,voc -bu,Note Off,10,d5,
0.0527425833333333,voc -bu,Note On,10,d6,
0,voc -bu,Note On,10,d6,
0,voc -bu,Note On,10,d6,
0,voc -bu,Note On,10,d6,
0,voc -bu,Note On,10,d6,
0,voc -bu,Note On,10,d5,
0,voc -bu,Note On,10,d5,
0,voc -bu,Note On,10,d5,
0,voc -bu,Note On,10,d5,
0,voc -bu,Note On,10,d5,
0.210970333333333,voc -bu,Note Off,10,d6,
0,voc -bu,Note Off,10,d6,
0,voc -bu,Note Off,10,d6,
0,voc -bu,Note Off,10,d6,
0,voc -bu,Note Off,10,d6,
0,voc -bu,Note Off,10,d5,
0,voc -bu,Note Off,10,d5,
0,voc -bu,Note Off,10,d5,
0,voc -bu,Note Off,10,d5,
0,voc -bu,Note Off,10,d5,
0.105485166666667,voc -bu,Note On,10,a5,
0,voc -bu,Note On,10,a5,
0,voc -bu,Note On,10,a5,
0,voc -bu,Note On,10,a5,
0,voc -bu,Note On,10,a5,
0,voc -bu,Note On,10,a4,
0,voc -bu,Note On,10,a4,
0,voc -bu,Note On,10,a4,
0,voc -bu,Note On,10,a4,
0,voc -bu,Note On,10,a4,
0.105485166666667,voc -bu,Note Off,10,a5,
0,voc -bu,Note Off,10,a5,
0,voc -bu,Note Off,10,a5,
0,voc -bu,Note Off,10,a5,
0,voc -bu,Note Off,10,a5,
0,voc -bu,Note Off,10,a4,
0,voc -bu,Note Off,10,a4,
0,voc -bu,Note Off,10,a4,
0,voc -bu,Note Off,10,a4,
0,voc -bu,Note Off,10,a4,
0.0527425833333333,voc -bu,Note On,10,g5,
0,voc -bu,Note On,10,g5,
0,voc -bu,Note On,10,g5,
0,voc -bu,Note On,10,g5,
0,voc -bu,Note On,10,g5,
0,voc -bu,Note On,10,g4,
0,voc -bu,Note On,10,g4,
0,voc -bu,Note On,10,g4,
0,voc -bu,Note On,10,g4,
0,voc -bu,Note On,10,g4,
0.105485166666667,voc -bu,Note Off,10,g5,
0,voc -bu,Note Off,10,g5,
0,voc -bu,Note Off,10,g5,
0,voc -bu,Note Off,10,g5,
0,voc -bu,Note Off,10,g5,
0,voc -bu,Note Off,10,g4,
0,voc -bu,Note Off,10,g4,
0,voc -bu,Note Off,10,g4,
0,voc -bu,Note Off,10,g4,
0,voc -bu,Note Off,10,g4,
0.0527425833333333,voc -bu,Note On,10,a5,
0,voc -bu,Note On,10,a5,
0,voc -bu,Note On,10,a5,
0,voc -bu,Note On,10,a5,
0,voc -bu,Note On,10,a5,
0,voc -bu,Note On,10,a4,
0,voc -bu,Note On,10,a4,
0,voc -bu,Note On,10,a4,
0,voc -bu,Note On,10,a4,
0,voc -bu,Note On,10,a4,
0.105485166666667,voc -bu,Note Off,10,a5,
0,voc -bu,Note Off,10,a5,
0,voc -bu,Note Off,10,a5,
0,voc -bu,Note Off,10,a5,
0,voc -bu,Note Off,10,a5,
0,voc -bu,Note Off,10,a4,
0,voc -bu,Note Off,10,a4,
0,voc -bu,Note Off,10,a4,
0,voc -bu,Note Off,10,a4,
0,voc -bu,Note Off,10,a4,
0.0527425833333333,voc -bu,Note On,10,g5,
0,voc -bu,Note On,10,g5,
0,voc -bu,Note On,10,g5,
0,voc -bu,Note On,10,g5,
0,voc -bu,Note On,10,g5,
0,voc -bu,Note On,10,g4,
0,voc -bu,Note On,10,g4,
0,voc -bu,Note On,10,g4,
0,voc -bu,Note On,10,g4,
0,voc -bu,Note On,10,g4,
0.105485166666667,voc -bu,Note Off,10,g5,
0,voc -bu,Note Off,10,g5,
0,voc -bu,Note Off,10,g5,
0,voc -bu,Note Off,10,g5,
0,voc -bu,Note Off,10,g5,
0,voc -bu,Note Off,10,g4,
0,voc -bu,Note Off,10,g4,
0,voc -bu,Note Off,10,g4,
0,voc -bu,Note Off,10,g4,
0,voc -bu,Note Off,10,g4,
0.0527425833333333,voc -bu,Note On,10,b5,
0,voc -bu,Note On,10,b5,
0,voc -bu,Note On,10,b5,
0,voc -bu,Note On,10,b5,
0,voc -bu,Note On,10,b5,
0,voc -bu,Note On,10,b4,
0,voc -bu,Note On,10,b4,
0,voc -bu,Note On,10,b4,
0,voc -bu,Note On,10,b4,
0,voc -bu,Note On,10,b4,
0.210970333333333,voc -bu,Note Off,10,b5,
0,voc -bu,Note Off,10,b5,
0,voc -bu,Note Off,10,b5,
0,voc -bu,Note Off,10,b5,
0,voc -bu,Note Off,10,b5,
0,voc -bu,Note Off,10,b4,
0,voc -bu,Note Off,10,b4,
0,voc -bu,Note Off,10,b4,
0,voc -bu,Note Off,10,b4,
0,voc -bu,Note Off,10,b4,
0.105485166666667,voc -bu,Note On,10,g5,
0,voc -bu,Note On,10,g5,
0,voc -bu,Note On,10,g5,
0,voc -bu,Note On,10,g5,
0,voc -bu,Note On,10,g5,
0,voc -bu,Note On,10,g4,
0,voc -bu,Note On,10,g4,
0,voc -bu,Note On,10,g4,
0,voc -bu,Note On,10,g4,
0,voc -bu,Note On,10,g4,
0.15822775,voc -bu,Note On,10,e5,
0,voc -bu,Note On,10,e5,
0,voc -bu,Note On,10,e5,
0,voc -bu,Note On,10,e5,
0,voc -bu,Note On,10,e5,
0,voc -bu,Note On,10,e4,
0,voc -bu,Note On,10,e4,
0,voc -bu,Note On,10,e4,
0,voc -bu,Note On,10,e4,
0,voc -bu,Note On,10,e4,
0.263712916666667,voc -bu,Note Off,10,g5,
0,voc -bu,Note Off,10,g5,
0,voc -bu,Note Off,10,g5,
0,voc -bu,Note Off,10,g5,
0,voc -bu,Note Off,10,g5,
0,voc -bu,Note Off,10,g4,
0,voc -bu,Note Off,10,g4,
0,voc -bu,Note Off,10,g4,
0,voc -bu,Note Off,10,g4,
0,voc -bu,Note Off,10,g4,
0.0527425833333333,voc -bu,Note Off,10,e5,
0,voc -bu,Note Off,10,e5,
0,voc -bu,Note Off,10,e5,
0,voc -bu,Note Off,10,e5,
0,voc -bu,Note Off,10,e5,
0,voc -bu,Note Off,10,e4,
0,voc -bu,Note Off,10,e4,
0,voc -bu,Note Off,10,e4,
0,voc -bu,Note Off,10,e4,
0,voc -bu,Note Off,10,e4,
0.3164555,voc -bu,Note On,10,b5,
0,voc -bu,Note On,10,b5,
0,voc -bu,Note On,10,b5,
0,voc -bu,Note On,10,b5,
0,voc -bu,Note On,10,b5,
0,voc -bu,Note On,10,b4,
0,voc -bu,Note On,10,b4,
0,voc -bu,Note On,10,b4,
0,voc -bu,Note On,10,b4,
0,voc -bu,Note On,10,b4,
0.105485166666667,voc -bu,Note Off,10,b5,
0,voc -bu,Note Off,10,b5,
0,voc -bu,Note Off,10,b5,
0,voc -bu,Note Off,10,b5,
0,voc -bu,Note Off,10,b5,
0,voc -bu,Note Off,10,b4,
0,voc -bu,Note Off,10,b4,
0,voc -bu,Note Off,10,b4,
0,voc -bu,Note Off,10,b4,
0,voc -bu,Note Off,10,b4,
0.0527425833333333,voc -bu,Note On,10,b5,
0,voc -bu,Note On,10,b5,
0,voc -bu,Note On,10,b5,
0,voc -bu,Note On,10,b5,
0,voc -bu,Note On,10,b5,
0,voc -bu,Note On,10,b4,
0,voc -bu,Note On,10,b4,
0,voc -bu,Note On,10,b4,
0,voc -bu,Note On,10,b4,
0,voc -bu,Note On,10,b4,
0.105485166666667,voc -bu,Note Off,10,b5,
0,voc -bu,Note Off,10,b5,
0,voc -bu,Note Off,10,b5,
0,voc -bu,Note Off,10,b5,
0,voc -bu,Note Off,10,b5,
0,voc -bu,Note Off,10,b4,
0,voc -bu,Note Off,10,b4,
0,voc -bu,Note Off,10,b4,
0,voc -bu,Note Off,10,b4,
0,voc -bu,Note Off,10,b4,
0.0527425833333333,voc -bu,Note On,10,b5,
0,voc -bu,Note On,10,b5,
0,voc -bu,Note On,10,b5,
0,voc -bu,Note On,10,b5,
0,voc -bu,Note On,10,b5,
0,voc -bu,Note On,10,b4,
0,voc -bu,Note On,10,b4,
0,voc -bu,Note On,10,b4,
0,voc -bu,Note On,10,b4,
0,voc -bu,Note On,10,b4,
0.105485166666667,voc -bu,Note Off,10,b5,
0,voc -bu,Note Off,10,b5,
0,voc -bu,Note Off,10,b5,
0,voc -bu,Note Off,10,b5,
0,voc -bu,Note Off,10,b5,
0,voc -bu,Note Off,10,b4,
0,voc -bu,Note Off,10,b4,
0,voc -bu,Note Off,10,b4,
0,voc -bu,Note Off,10,b4,
0,voc -bu,Note Off,10,b4,
0.0527425833333333,voc -bu,Note On,10,a5,
0,voc -bu,Note On,10,a5,
0,voc -bu,Note On,10,a5,
0,voc -bu,Note On,10,a5,
0,voc -bu,Note On,10,a5,
0,voc -bu,Note On,10,a4,
0,voc -bu,Note On,10,a4,
0,voc -bu,Note On,10,a4,
0,voc -bu,Note On,10,a4,
0,voc -bu,Note On,10,a4,
0.210970333333333,voc -bu,Note Off,10,a5,
0,voc -bu,Note Off,10,a5,
0,voc -bu,Note Off,10,a5,
0,voc -bu,Note Off,10,a5,
0,voc -bu,Note Off,10,a5,
0,voc -bu,Note Off,10,a4,
0,voc -bu,Note Off,10,a4,
0,voc -bu,Note Off,10,a4,
0,voc -bu,Note Off,10,a4,
0,voc -bu,Note Off,10,a4,
0.105485166666667,voc -bu,Note On,10,b5,
0,voc -bu,Note On,10,b5,
0,voc -bu,Note On,10,b5,
0,voc -bu,Note On,10,b5,
0,voc -bu,Note On,10,b5,
0,voc -bu,Note On,10,b4,
0,voc -bu,Note On,10,b4,
0,voc -bu,Note On,10,b4,
0,voc -bu,Note On,10,b4,
0,voc -bu,Note On,10,b4,
0.105485166666667,voc -bu,Note Off,10,b5,
0,voc -bu,Note Off,10,b5,
0,voc -bu,Note Off,10,b5,
0,voc -bu,Note Off,10,b5,
0,voc -bu,Note Off,10,b5,
0,voc -bu,Note Off,10,b4,
0,voc -bu,Note Off,10,b4,
0,voc -bu,Note Off,10,b4,
0,voc -bu,Note Off,10,b4,
0,voc -bu,Note Off,10,b4,
0.0527425833333333,voc -bu,Note On,10,b5,
0,voc -bu,Note On,10,b5,
0,voc -bu,Note On,10,b5,
0,voc -bu,Note On,10,b5,
0,voc -bu,Note On,10,b5,
0,voc -bu,Note On,10,b4,
0,voc -bu,Note On,10,b4,
0,voc -bu,Note On,10,b4,
0,voc -bu,Note On,10,b4,
0,voc -bu,Note On,10,b4,
0.105485166666667,voc -bu,Note Off,10,b5,
0,voc -bu,Note Off,10,b5,
0,voc -bu,Note Off,10,b5,
0,voc -bu,Note Off,10,b5,
0,voc -bu,Note Off,10,b5,
0,voc -bu,Note Off,10,b4,
0,voc -bu,Note Off,10,b4,
0,voc -bu,Note Off,10,b4,
0,voc -bu,Note Off,10,b4,
0,voc -bu,Note Off,10,b4,
0.0527425833333333,voc -bu,Note On,10,d6,
0,voc -bu,Note On,10,d6,
0,voc -bu,Note On,10,d6,
0,voc -bu,Note On,10,d6,
0,voc -bu,Note On,10,d6,
0,voc -bu,Note On,10,d5,
0,voc -bu,Note On,10,d5,
0,voc -bu,Note On,10,d5,
0,voc -bu,Note On,10,d5,
0,voc -bu,Note On,10,d5,
0.105485166666667,voc -bu,Note Off,10,d6,
0,voc -bu,Note Off,10,d6,
0,voc -bu,Note Off,10,d6,
0,voc -bu,Note Off,10,d6,
0,voc -bu,Note Off,10,d6,
0,voc -bu,Note Off,10,d5,
0,voc -bu,Note Off,10,d5,
0,voc -bu,Note Off,10,d5,
0,voc -bu,Note Off,10,d5,
0,voc -bu,Note Off,10,d5,
0.0527425833333333,voc -bu,Note On,10,d6,
0,voc -bu,Note On,10,d6,
0,voc -bu,Note On,10,d6,
0,voc -bu,Note On,10,d6,
0,voc -bu,Note On,10,d6,
0,voc -bu,Note On,10,d5,
0,voc -bu,Note On,10,d5,
0,voc -bu,Note On,10,d5,
0,voc -bu,Note On,10,d5,
0,voc -bu,Note On,10,d5,
0.105485166666667,voc -bu,Note Off,10,d6,
0,voc -bu,Note Off,10,d6,
0,voc -bu,Note Off,10,d6,
0,voc -bu,Note Off,10,d6,
0,voc -bu,Note Off,10,d6,
0,voc -bu,Note Off,10,d5,
0,voc -bu,Note Off,10,d5,
0,voc -bu,Note Off,10,d5,
0,voc -bu,Note Off,10,d5,
0,voc -bu,Note Off,10,d5,
0.0527425833333333,voc -bu,Note On,10,d6,
0,voc -bu,Note On,10,d6,
0,voc -bu,Note On,10,d6,
0,voc -bu,Note On,10,d6,
0,voc -bu,Note On,10,d6,
0,voc -bu,Note On,10,d5,
0,voc -bu,Note On,10,d5,
0,voc -bu,Note On,10,d5,
0,voc -bu,Note On,10,d5,
0,voc -bu,Note On,10,d5,
0.210970333333333,voc -bu,Note Off,10,d6,
0,voc -bu,Note Off,10,d6,
0,voc -bu,Note Off,10,d6,
0,voc -bu,Note Off,10,d6,
0,voc -bu,Note Off,10,d6,
0,voc -bu,Note Off,10,d5,
0,voc -bu,Note Off,10,d5,
0,voc -bu,Note Off,10,d5,
0,voc -bu,Note Off,10,d5,
0,voc -bu,Note Off,10,d5,
0.263712916666667,voc -bu,Note On,10,e6,
0,voc -bu,Note On,10,e6,
0,voc -bu,Note On,10,e6,
0,voc -bu,Note On,10,e6,
0,voc -bu,Note On,10,e6,
0,voc -bu,Note On,10,e5,
0,voc -bu,Note On,10,e5,
0,voc -bu,Note On,10,e5,
0,voc -bu,Note On,10,e5,
0,voc -bu,Note On,10,e5,
0.105485166666667,voc -bu,Note Off,10,e6,
0,voc -bu,Note Off,10,e6,
0,voc -bu,Note Off,10,e6,
0,voc -bu,Note Off,10,e6,
0,voc -bu,Note Off,10,e6,
0,voc -bu,Note Off,10,e5,
0,voc -bu,Note Off,10,e5,
0,voc -bu,Note Off,10,e5,
0,voc -bu,Note Off,10,e5,
0,voc -bu,Note Off,10,e5,
0.0527425833333333,voc -bu,Note On,10,e6,
0,voc -bu,Note On,10,e6,
0,voc -bu,Note On,10,e6,
0,voc -bu,Note On,10,e6,
0,voc -bu,Note On,10,e6,
0,voc -bu,Note On,10,e5,
0,voc -bu,Note On,10,e5,
0,voc -bu,Note On,10,e5,
0,voc -bu,Note On,10,e5,
0,voc -bu,Note On,10,e5,
0.210970333333333,voc -bu,Note Off,10,e6,
0,voc -bu,Note Off,10,e6,
0,voc -bu,Note Off,10,e6,
0,voc -bu,Note Off,10,e6,
0,voc -bu,Note Off,10,e6,
0,voc -bu,Note Off,10,e5,
0,voc -bu,Note Off,10,e5,
0,voc -bu,Note Off,10,e5,
0,voc -bu,Note Off,10,e5,
0,voc -bu,Note Off,10,e5,
0.421940666666667,voc -bu,Note On,10,e6,
0,voc -bu,Note On,10,e6,
0,voc -bu,Note On,10,e6,
0,voc -bu,Note On,10,e6,
0,voc -bu,Note On,10,e6,
0,voc -bu,Note On,10,e5,
0,voc -bu,Note On,10,e5,
0,voc -bu,Note On,10,e5,
0,voc -bu,Note On,10,e5,
0,voc -bu,Note On,10,e5,
0.210970333333333,voc -bu,Note Off,10,e6,
0,voc -bu,Note Off,10,e6,
0,voc -bu,Note Off,10,e6,
0,voc -bu,Note Off,10,e6,
0,voc -bu,Note Off,10,e6,
0,voc -bu,Note Off,10,e5,
0,voc -bu,Note Off,10,e5,
0,voc -bu,Note Off,10,e5,
0,voc -bu,Note Off,10,e5,
0,voc -bu,Note Off,10,e5,
0.105485166666667,voc -bu,Note On,10,e6,
0,voc -bu,Note On,10,e6,
0,voc -bu,Note On,10,e6,
0,voc -bu,Note On,10,e6,
0,voc -bu,Note On,10,e6,
0,voc -bu,Note On,10,e5,
0,voc -bu,Note On,10,e5,
0,voc -bu,Note On,10,e5,
0,voc -bu,Note On,10,e5,
0,voc -bu,Note On,10,e5,
0.421940666666667,voc -bu,Note Off,10,e6,
0,voc -bu,Note Off,10,e6,
0,voc -bu,Note Off,10,e6,
0,voc -bu,Note Off,10,e6,
0,voc -bu,Note Off,10,e6,
0,voc -bu,Note Off,10,e5,
0,voc -bu,Note Off,10,e5,
0,voc -bu,Note Off,10,e5,
0,voc -bu,Note Off,10,e5,
0,voc -bu,Note Off,10,e5,
0.527425833333333,voc -bu,Note On,10,d6,
0,voc -bu,Note On,10,d6,
0,voc -bu,Note On,10,d6,
0,voc -bu,Note On,10,d6,
0,voc -bu,Note On,10,d6,
0,voc -bu,Note On,10,d5,
0,voc -bu,Note On,10,d5,
0,voc -bu,Note On,10,d5,
0,voc -bu,Note On,10,d5,
0,voc -bu,Note On,10,d5,
0.210970333333333,voc -bu,Note Off,10,d6,
0,voc -bu,Note Off,10,d6,
0,voc -bu,Note Off,10,d6,
0,voc -bu,Note Off,10,d6,
0,voc -bu,Note Off,10,d6,
0,voc -bu,Note Off,10,d5,
0,voc -bu,Note Off,10,d5,
0,voc -bu,Note Off,10,d5,
0,voc -bu,Note Off,10,d5,
0,voc -bu,Note Off,10,d5,
0.105485166666667,voc -bu,Note On,10,e6,
0,voc -bu,Note On,10,e6,
0,voc -bu,Note On,10,e6,
0,voc -bu,Note On,10,e6,
0,voc -bu,Note On,10,e6,
0,voc -bu,Note On,10,e5,
0,voc -bu,Note On,10,e5,
0,voc -bu,Note On,10,e5,
0,voc -bu,Note On,10,e5,
0,voc -bu,Note On,10,e5,
0.210970333333333,voc -bu,Note Off,10,e6,
0,voc -bu,Note Off,10,e6,
0,voc -bu,Note Off,10,e6,
0,voc -bu,Note Off,10,e6,
0,voc -bu,Note Off,10,e6,
0,voc -bu,Note Off,10,e5,
0,voc -bu,Note Off,10,e5,
0,voc -bu,Note Off,10,e5,
0,voc -bu,Note Off,10,e5,
0,voc -bu,Note Off,10,e5,
0.105485166666667,voc -bu,Note On,10,b5,
0,voc -bu,Note On,10,b5,
0,voc -bu,Note On,10,b5,
0,voc -bu,Note On,10,b5,
0,voc -bu,Note On,10,b5,
0,voc -bu,Note On,10,b4,
0,voc -bu,Note On,10,b4,
0,voc -bu,Note On,10,b4,
0,voc -bu,Note On,10,b4,
0,voc -bu,Note On,10,b4,
0.210970333333333,voc -bu,Note Off,10,b5,
0,voc -bu,Note Off,10,b5,
0,voc -bu,Note Off,10,b5,
0,voc -bu,Note Off,10,b5,
0,voc -bu,Note Off,10,b5,
0,voc -bu,Note Off,10,b4,
0,voc -bu,Note Off,10,b4,
0,voc -bu,Note Off,10,b4,
0,voc -bu,Note Off,10,b4,
0,voc -bu,Note Off,10,b4,
0.105485166666667,voc -bu,Note On,10,b5,
0,voc -bu,Note On,10,b5,
0,voc -bu,Note On,10,b5,
0,voc -bu,Note On,10,b5,
0,voc -bu,Note On,10,b5,
0,voc -bu,Note On,10,b4,
0,voc -bu,Note On,10,b4,
0,voc -bu,Note On,10,b4,
0,voc -bu,Note On,10,b4,
0,voc -bu,Note On,10,b4,
0.105485166666667,voc -bu,Note Off,10,b5,
0,voc -bu,Note Off,10,b5,
0,voc -bu,Note Off,10,b5,
0,voc -bu,Note Off,10,b5,
0,voc -bu,Note Off,10,b5,
0,voc -bu,Note Off,10,b4,
0,voc -bu,Note Off,10,b4,
0,voc -bu,Note Off,10,b4,
0,voc -bu,Note Off,10,b4,
0,voc -bu,Note Off,10,b4,
0.0527425833333333,voc -bu,Note On,10,b5,
0,voc -bu,Note On,10,b5,
0,voc -bu,Note On,10,b5,
0,voc -bu,Note On,10,b5,
0,voc -bu,Note On,10,b5,
0,voc -bu,Note On,10,b4,
0,voc -bu,Note On,10,b4,
0,voc -bu,Note On,10,b4,
0,voc -bu,Note On,10,b4,
0,voc -bu,Note On,10,b4,
0.105485166666667,voc -bu,Note Off,10,b5,
0,voc -bu,Note Off,10,b5,
0,voc -bu,Note Off,10,b5,
0,voc -bu,Note Off,10,b5,
0,voc -bu,Note Off,10,b5,
0,voc -bu,Note Off,10,b4,
0,voc -bu,Note Off,10,b4,
0,voc -bu,Note Off,10,b4,
0,voc -bu,Note Off,10,b4,
0,voc -bu,Note Off,10,b4,
0.0527425833333333,voc -bu,Note On,10,b5,
0,voc -bu,Note On,10,b5,
0,voc -bu,Note On,10,b5,
0,voc -bu,Note On,10,b5,
0,voc -bu,Note On,10,b5,
0,voc -bu,Note On,10,b4,
0,voc -bu,Note On,10,b4,
0,voc -bu,Note On,10,b4,
0,voc -bu,Note On,10,b4,
0,voc -bu,Note On,10,b4,
0.105485166666667,voc -bu,Note Off,10,b5,
0,voc -bu,Note Off,10,b5,
0,voc -bu,Note Off,10,b5,
0,voc -bu,Note Off,10,b5,
0,voc -bu,Note Off,10,b5,
0,voc -bu,Note Off,10,b4,
0,voc -bu,Note Off,10,b4,
0,voc -bu,Note Off,10,b4,
0,voc -bu,Note Off,10,b4,
0,voc -bu,Note Off,10,b4,
0.0527425833333333,voc -bu,Note On,10,b5,
0,voc -bu,Note On,10,b5,
0,voc -bu,Note On,10,b5,
0,voc -bu,Note On,10,b5,
0,voc -bu,Note On,10,b5,
0,voc -bu,Note On,10,b4,
0,voc -bu,Note On,10,b4,
0,voc -bu,Note On,10,b4,
0,voc -bu,Note On,10,b4,
0,voc -bu,Note On,10,b4,
0.105485166666667,voc -bu,Note Off,10,b5,
0,voc -bu,Note Off,10,b5,
0,voc -bu,Note Off,10,b5,
0,voc -bu,Note Off,10,b5,
0,voc -bu,Note Off,10,b5,
0,voc -bu,Note Off,10,b4,
0,voc -bu,Note Off,10,b4,
0,voc -bu,Note Off,10,b4,
0,voc -bu,Note Off,10,b4,
0,voc -bu,Note Off,10,b4,
0.0527425833333333,voc -bu,Note On,10,b5,
0,voc -bu,Note On,10,b5,
0,voc -bu,Note On,10,b5,
0,voc -bu,Note On,10,b5,
0,voc -bu,Note On,10,b5,
0,voc -bu,Note On,10,b4,
0,voc -bu,Note On,10,b4,
0,voc -bu,Note On,10,b4,
0,voc -bu,Note On,10,b4,
0,voc -bu,Note On,10,b4,
0.105485166666667,voc -bu,Note Off,10,b5,
0,voc -bu,Note Off,10,b5,
0,voc -bu,Note Off,10,b5,
0,voc -bu,Note Off,10,b5,
0,voc -bu,Note Off,10,b5,
0,voc -bu,Note Off,10,b4,
0,voc -bu,Note Off,10,b4,
0,voc -bu,Note Off,10,b4,
0,voc -bu,Note Off,10,b4,
0,voc -bu,Note Off,10,b4,
0.0527425833333333,voc -bu,Note On,10,b5,
0,voc -bu,Note On,10,b5,
0,voc -bu,Note On,10,b5,
0,voc -bu,Note On,10,b5,
0,voc -bu,Note On,10,b5,
0,voc -bu,Note On,10,b4,
0,voc -bu,Note On,10,b4,
0,voc -bu,Note On,10,b4,
0,voc -bu,Note On,10,b4,
0,voc -bu,Note On,10,b4,
0.105485166666667,voc -bu,Note Off,10,b5,
0,voc -bu,Note Off,10,b5,
0,voc -bu,Note Off,10,b5,
0,voc -bu,Note Off,10,b5,
0,voc -bu,Note Off,10,b5,
0,voc -bu,Note Off,10,b4,
0,voc -bu,Note Off,10,b4,
0,voc -bu,Note Off,10,b4,
0,voc -bu,Note Off,10,b4,
0,voc -bu,Note Off,10,b4,
0.0527425833333333,voc -bu,Note On,10,b5,
0,voc -bu,Note On,10,b5,
0,voc -bu,Note On,10,b5,
0,voc -bu,Note On,10,b5,
0,voc -bu,Note On,10,b5,
0,voc -bu,Note On,10,b4,
0,voc -bu,Note On,10,b4,
0,voc -bu,Note On,10,b4,
0,voc -bu,Note On,10,b4,
0,voc -bu,Note On,10,b4,
0.105485166666667,voc -bu,Note Off,10,b5,
0,voc -bu,Note Off,10,b5,
0,voc -bu,Note Off,10,b5,
0,voc -bu,Note Off,10,b5,
0,voc -bu,Note Off,10,b5,
0,voc -bu,Note Off,10,b4,
0,voc -bu,Note Off,10,b4,
0,voc -bu,Note Off,10,b4,
0,voc -bu,Note Off,10,b4,
0,voc -bu,Note Off,10,b4,
0.0527425833333333,voc -bu,Note On,10,b5,
0,voc -bu,Note On,10,b5,
0,voc -bu,Note On,10,b5,
0,voc -bu,Note On,10,b5,
0,voc -bu,Note On,10,b5,
0,voc -bu,Note On,10,b4,
0,voc -bu,Note On,10,b4,
0,voc -bu,Note On,10,b4,
0,voc -bu,Note On,10,b4,
0,voc -bu,Note On,10,b4,
0.105485166666667,voc -bu,Note Off,10,b5,
0,voc -bu,Note Off,10,b5,
0,voc -bu,Note Off,10,b5,
0,voc -bu,Note Off,10,b5,
0,voc -bu,Note Off,10,b5,
0,voc -bu,Note Off,10,b4,
0,voc -bu,Note Off,10,b4,
0,voc -bu,Note Off,10,b4,
0,voc -bu,Note Off,10,b4,
0,voc -bu,Note Off,10,b4,
0.0527425833333333,voc -bu,Note On,10,d6,
0,voc -bu,Note On,10,d6,
0,voc -bu,Note On,10,d6,
0,voc -bu,Note On,10,d6,
0,voc -bu,Note On,10,d6,
0,voc -bu,Note On,10,d5,
0,voc -bu,Note On,10,d5,
0,voc -bu,Note On,10,d5,
0,voc -bu,Note On,10,d5,
0,voc -bu,Note On,10,d5,
0.105485166666667,voc -bu,Note Off,10,d6,
0,voc -bu,Note Off,10,d6,
0,voc -bu,Note Off,10,d6,
0,voc -bu,Note Off,10,d6,
0,voc -bu,Note Off,10,d6,
0,voc -bu,Note Off,10,d5,
0,voc -bu,Note Off,10,d5,
0,voc -bu,Note Off,10,d5,
0,voc -bu,Note Off,10,d5,
0,voc -bu,Note Off,10,d5,
0.0527425833333333,voc -bu,Note On,10,d6,
0,voc -bu,Note On,10,d6,
0,voc -bu,Note On,10,d6,
0,voc -bu,Note On,10,d6,
0,voc -bu,Note On,10,d6,
0,voc -bu,Note On,10,d5,
0,voc -bu,Note On,10,d5,
0,voc -bu,Note On,10,d5,
0,voc -bu,Note On,10,d5,
0,voc -bu,Note On,10,d5,
0.105485166666667,voc -bu,Note Off,10,d6,
0,voc -bu,Note Off,10,d6,
0,voc -bu,Note Off,10,d6,
0,voc -bu,Note Off,10,d6,
0,voc -bu,Note Off,10,d6,
0,voc -bu,Note Off,10,d5,
0,voc -bu,Note Off,10,d5,
0,voc -bu,Note Off,10,d5,
0,voc -bu,Note Off,10,d5,
0,voc -bu,Note Off,10,d5,
0.0527425833333333,voc -bu,Note On,10,b5,
0,voc -bu,Note On,10,b5,
0,voc -bu,Note On,10,b5,
0,voc -bu,Note On,10,b5,
0,voc -bu,Note On,10,b5,
0,voc -bu,Note On,10,b4,
0,voc -bu,Note On,10,b4,
0,voc -bu,Note On,10,b4,
0,voc -bu,Note On,10,b4,
0,voc -bu,Note On,10,b4,
0.210970333333333,voc -bu,Note Off,10,b5,
0,voc -bu,Note Off,10,b5,
0,voc -bu,Note Off,10,b5,
0,voc -bu,Note Off,10,b5,
0,voc -bu,Note Off,10,b5,
0,voc -bu,Note Off,10,b4,
0,voc -bu,Note Off,10,b4,
0,voc -bu,Note Off,10,b4,
0,voc -bu,Note Off,10,b4,
0,voc -bu,Note Off,10,b4,
0.263712916666667,voc -bu,Note On,10,b5,
0,voc -bu,Note On,10,b5,
0,voc -bu,Note On,10,b5,
0,voc -bu,Note On,10,b5,
0,voc -bu,Note On,10,b5,
0,voc -bu,Note On,10,b4,
0,voc -bu,Note On,10,b4,
0,voc -bu,Note On,10,b4,
0,voc -bu,Note On,10,b4,
0,voc -bu,Note On,10,b4,
0.105485166666667,voc -bu,Note Off,10,b5,
0,voc -bu,Note Off,10,b5,
0,voc -bu,Note Off,10,b5,
0,voc -bu,Note Off,10,b5,
0,voc -bu,Note Off,10,b5,
0,voc -bu,Note Off,10,b4,
0,voc -bu,Note Off,10,b4,
0,voc -bu,Note Off,10,b4,
0,voc -bu,Note Off,10,b4,
0,voc -bu,Note Off,10,b4,
0.0527425833333333,voc -bu,Note On,10,d6,
0,voc -bu,Note On,10,d6,
0,voc -bu,Note On,10,d6,
0,voc -bu,Note On,10,d6,
0,voc -bu,Note On,10,d6,
0,voc -bu,Note On,10,d5,
0,voc -bu,Note On,10,d5,
0,voc -bu,Note On,10,d5,
0,voc -bu,Note On,10,d5,
0,voc -bu,Note On,10,d5,
0.210970333333333,voc -bu,Note Off,10,d6,
0,voc -bu,Note Off,10,d6,
0,voc -bu,Note Off,10,d6,
0,voc -bu,Note Off,10,d6,
0,voc -bu,Note Off,10,d6,
0,voc -bu,Note Off,10,d5,
0,voc -bu,Note Off,10,d5,
0,voc -bu,Note Off,10,d5,
0,voc -bu,Note Off,10,d5,
0,voc -bu,Note Off,10,d5,
0.105485166666667,voc -bu,Note On,10,b5,
0,voc -bu,Note On,10,b5,
0,voc -bu,Note On,10,b5,
0,voc -bu,Note On,10,b5,
0,voc -bu,Note On,10,b5,
0,voc -bu,Note On,10,b4,
0,voc -bu,Note On,10,b4,
0,voc -bu,Note On,10,b4,
0,voc -bu,Note On,10,b4,
0,voc -bu,Note On,10,b4,
0.421940666666667,voc -bu,Note Off,10,b5,
0,voc -bu,Note Off,10,b5,
0,voc -bu,Note Off,10,b5,
0,voc -bu,Note Off,10,b5,
0,voc -bu,Note Off,10,b5,
0,voc -bu,Note Off,10,b4,
0,voc -bu,Note Off,10,b4,
0,voc -bu,Note Off,10,b4,
0,voc -bu,Note Off,10,b4,
0,voc -bu,Note Off,10,b4,
1.47679233333333,voc -bu,Note On,10,b5,
0,voc -bu,Note On,10,b5,
0,voc -bu,Note On,10,b5,
0,voc -bu,Note On,10,b5,
0,voc -bu,Note On,10,b5,
0,voc -bu,Note On,10,b4,
0,voc -bu,Note On,10,b4,
0,voc -bu,Note On,10,b4,
0,voc -bu,Note On,10,b4,
0,voc -bu,Note On,10,b4,
0.105485166666667,voc -bu,Note Off,10,b5,
0,voc -bu,Note Off,10,b5,
0,voc -bu,Note Off,10,b5,
0,voc -bu,Note Off,10,b5,
0,voc -bu,Note Off,10,b5,
0,voc -bu,Note Off,10,b4,
0,voc -bu,Note Off,10,b4,
0,voc -bu,Note Off,10,b4,
0,voc -bu,Note Off,10,b4,
0,voc -bu,Note Off,10,b4,
0.0527425833333333,voc -bu,Note On,10,b5,
0,voc -bu,Note On,10,b5,
0,voc -bu,Note On,10,b5,
0,voc -bu,Note On,10,b5,
0,voc -bu,Note On,10,b5,
0,voc -bu,Note On,10,b4,
0,voc -bu,Note On,10,b4,
0,voc -bu,Note On,10,b4,
0,voc -bu,Note On,10,b4,
0,voc -bu,Note On,10,b4,
0.3164555,voc -bu,Note Off,10,b5,
0,voc -bu,Note Off,10,b5,
0,voc -bu,Note Off,10,b5,
0,voc -bu,Note Off,10,b5,
0,voc -bu,Note Off,10,b5,
0,voc -bu,Note Off,10,b4,
0,voc -bu,Note Off,10,b4,
0,voc -bu,Note Off,10,b4,
0,voc -bu,Note Off,10,b4,
0,voc -bu,Note Off,10,b4,
0.15822775,voc -bu,Note On,10,d6,
0,voc -bu,Note On,10,d6,
0,voc -bu,Note On,10,d6,
0,voc -bu,Note On,10,d6,
0,voc -bu,Note On,10,d6,
0,voc -bu,Note On,10,d5,
0,voc -bu,Note On,10,d5,
0,voc -bu,Note On,10,d5,
0,voc -bu,Note On,10,d5,
0,voc -bu,Note On,10,d5,
0.15822775,voc -bu,Note On,10,b5,
0,voc -bu,Note On,10,b5,
0,voc -bu,Note On,10,b5,
0,voc -bu,Note On,10,b5,
0,voc -bu,Note On,10,b5,
0,voc -bu,Note On,10,b4,
0,voc -bu,Note On,10,b4,
0,voc -bu,Note On,10,b4,
0,voc -bu,Note On,10,b4,
0,voc -bu,Note On,10,b4,
0.263712916666667,voc -bu,Note Off,10,d6,
0,voc -bu,Note Off,10,d6,
0,voc -bu,Note Off,10,d6,
0,voc -bu,Note Off,10,d6,
0,voc -bu,Note Off,10,d6,
0,voc -bu,Note Off,10,d5,
0,voc -bu,Note Off,10,d5,
0,voc -bu,Note Off,10,d5,
0,voc -bu,Note Off,10,d5,
0,voc -bu,Note Off,10,d5,
0.0527425833333333,voc -bu,Note Off,10,b5,
0,voc -bu,Note Off,10,b5,
0,voc -bu,Note Off,10,b5,
0,voc -bu,Note Off,10,b5,
0,voc -bu,Note Off,10,b5,
0,voc -bu,Note Off,10,b4,
0,voc -bu,Note Off,10,b4,
0,voc -bu,Note Off,10,b4,
0,voc -bu,Note Off,10,b4,
0,voc -bu,Note Off,10,b4,
1.42404975,voc -bu,Note On,10,e6,
0,voc -bu,Note On,10,e6,
0,voc -bu,Note On,10,e6,
0,voc -bu,Note On,10,e6,
0,voc -bu,Note On,10,e6,
0,voc -bu,Note On,10,e5,
0,voc -bu,Note On,10,e5,
0,voc -bu,Note On,10,e5,
0,voc -bu,Note On,10,e5,
0,voc -bu,Note On,10,e5,
0.105485166666667,voc -bu,Note Off,10,e6,
0,voc -bu,Note Off,10,e6,
0,voc -bu,Note Off,10,e6,
0,voc -bu,Note Off,10,e6,
0,voc -bu,Note Off,10,e6,
0,voc -bu,Note Off,10,e5,
0,voc -bu,Note Off,10,e5,
0,voc -bu,Note Off,10,e5,
0,voc -bu,Note Off,10,e5,
0,voc -bu,Note Off,10,e5,
0.0527425833333333,voc -bu,Note On,10,e6,
0,voc -bu,Note On,10,e6,
0,voc -bu,Note On,10,e6,
0,voc -bu,Note On,10,e6,
0,voc -bu,Note On,10,e6,
0,voc -bu,Note On,10,e5,
0,voc -bu,Note On,10,e5,
0,voc -bu,Note On,10,e5,
0,voc -bu,Note On,10,e5,
0,voc -bu,Note On,10,e5,
0.3164555,voc -bu,Note Off,10,e6,
0,voc -bu,Note Off,10,e6,
0,voc -bu,Note Off,10,e6,
0,voc -bu,Note Off,10,e6,
0,voc -bu,Note Off,10,e6,
0,voc -bu,Note Off,10,e5,
0,voc -bu,Note Off,10,e5,
0,voc -bu,Note Off,10,e5,
0,voc -bu,Note Off,10,e5,
0,voc -bu,Note Off,10,e5,
0.15822775,voc -bu,Note On,10,b5,
0,voc -bu,Note On,10,b5,
0,voc -bu,Note On,10,b5,
0,voc -bu,Note On,10,b5,
0,voc -bu,Note On,10,b5,
0,voc -bu,Note On,10,b4,
0,voc -bu,Note On,10,b4,
0,voc -bu,Note On,10,b4,
0,voc -bu,Note On,10,b4,
0,voc -bu,Note On,10,b4,
0.421940666666667,voc -bu,Note Off,10,b5,
0,voc -bu,Note Off,10,b5,
0,voc -bu,Note Off,10,b5,
0,voc -bu,Note Off,10,b5,
0,voc -bu,Note Off,10,b5,
0,voc -bu,Note Off,10,b4,
0,voc -bu,Note Off,10,b4,
0,voc -bu,Note Off,10,b4,
0,voc -bu,Note Off,10,b4,
0,voc -bu,Note Off,10,b4,
1.47679233333333,voc -bu,Note On,10,b5,
0,voc -bu,Note On,10,b5,
0,voc -bu,Note On,10,b5,
0,voc -bu,Note On,10,b5,
0,voc -bu,Note On,10,b5,
0,voc -bu,Note On,10,b4,
0,voc -bu,Note On,10,b4,
0,voc -bu,Note On,10,b4,
0,voc -bu,Note On,10,b4,
0,voc -bu,Note On,10,b4,
0.105485166666667,voc -bu,Note Off,10,b5,
0,voc -bu,Note Off,10,b5,
0,voc -bu,Note Off,10,b5,
0,voc -bu,Note Off,10,b5,
0,voc -bu,Note Off,10,b5,
0,voc -bu,Note Off,10,b4,
0,voc -bu,Note Off,10,b4,
0,voc -bu,Note Off,10,b4,
0,voc -bu,Note Off,10,b4,
0,voc -bu,Note Off,10,b4,
0.0527425833333333,voc -bu,Note On,10,b5,
0,voc -bu,Note On,10,b5,
0,voc -bu,Note On,10,b5,
0,voc -bu,Note On,10,b5,
0,voc -bu,Note On,10,b5,
0,voc -bu,Note On,10,b4,
0,voc -bu,Note On,10,b4,
0,voc -bu,Note On,10,b4,
0,voc -bu,Note On,10,b4,
0,voc -bu,Note On,10,b4,
0.3164555,voc -bu,Note Off,10,b5,
0,voc -bu,Note Off,10,b5,
0,voc -bu,Note Off,10,b5,
0,voc -bu,Note Off,10,b5,
0,voc -bu,Note Off,10,b5,
0,voc -bu,Note Off,10,b4,
0,voc -bu,Note Off,10,b4,
0,voc -bu,Note Off,10,b4,
0,voc -bu,Note Off,10,b4,
0,voc -bu,Note Off,10,b4,
0.15822775,voc -bu,Note On,10,d6,
0,voc -bu,Note On,10,d6,
0,voc -bu,Note On,10,d6,
0,voc -bu,Note On,10,d6,
0,voc -bu,Note On,10,d6,
0,voc -bu,Note On,10,d5,
0,voc -bu,Note On,10,d5,
0,voc -bu,Note On,10,d5,
0,voc -bu,Note On,10,d5,
0,voc -bu,Note On,10,d5,
0.421940666666667,voc -bu,Note Off,10,d6,
0,voc -bu,Note Off,10,d6,
0,voc -bu,Note Off,10,d6,
0,voc -bu,Note Off,10,d6,
0,voc -bu,Note Off,10,d6,
0,voc -bu,Note Off,10,d5,
0,voc -bu,Note Off,10,d5,
0,voc -bu,Note Off,10,d5,
0,voc -bu,Note Off,10,d5,
0,voc -bu,Note Off,10,d5,
2.42615883333333,voc -bu,Note On,10,a5,
0,voc -bu,Note On,10,a5,
0,voc -bu,Note On,10,a5,
0,voc -bu,Note On,10,a5,
0,voc -bu,Note On,10,a5,
0,voc -bu,Note On,10,a4,
0,voc -bu,Note On,10,a4,
0,voc -bu,Note On,10,a4,
0,voc -bu,Note On,10,a4,
0,voc -bu,Note On,10,a4,
0.632911,voc -bu,Note Off,10,a5,
0,voc -bu,Note Off,10,a5,
0,voc -bu,Note Off,10,a5,
0,voc -bu,Note Off,10,a5,
0,voc -bu,Note Off,10,a5,
0,voc -bu,Note Off,10,a4,
0,voc -bu,Note Off,10,a4,
0,voc -bu,Note Off,10,a4,
0,voc -bu,Note Off,10,a4,
0,voc -bu,Note Off,10,a4,
0,voc -bu,Note On,10,b5,
0,voc -bu,Note On,10,b5,
0,voc -bu,Note On,10,b5,
0,voc -bu,Note On,10,b5,
0,voc -bu,Note On,10,b5,
0,voc -bu,Note On,10,b4,
0,voc -bu,Note On,10,b4,
0,voc -bu,Note On,10,b4,
0,voc -bu,Note On,10,b4,
0,voc -bu,Note On,10,b4,
0.210970333333333,voc -bu,Note Off,10,b5,
0,voc -bu,Note Off,10,b5,
0,voc -bu,Note Off,10,b5,
0,voc -bu,Note Off,10,b5,
0,voc -bu,Note Off,10,b5,
0,voc -bu,Note Off,10,b4,
0,voc -bu,Note Off,10,b4,
0,voc -bu,Note Off,10,b4,
0,voc -bu,Note Off,10,b4,
0,voc -bu,Note Off,10,b4,
0.105485166666667,voc -bu,Note On,10,c#6,
0,voc -bu,Note On,10,c#6,
0,voc -bu,Note On,10,c#6,
0,voc -bu,Note On,10,c#6,
0,voc -bu,Note On,10,c#6,
0,voc -bu,Note On,10,c#5,
0,voc -bu,Note On,10,c#5,
0,voc -bu,Note On,10,c#5,
0,voc -bu,Note On,10,c#5,
0,voc -bu,Note On,10,c#5,
0.3164555,voc -bu,Note Off,10,c#6,
0,voc -bu,Note Off,10,c#6,
0,voc -bu,Note Off,10,c#6,
0,voc -bu,Note Off,10,c#6,
0,voc -bu,Note Off,10,c#6,
0,voc -bu,Note Off,10,c#5,
0,voc -bu,Note Off,10,c#5,
0,voc -bu,Note Off,10,c#5,
0,voc -bu,Note Off,10,c#5,
0,voc -bu,Note Off,10,c#5,
0.15822775,voc -bu,Note On,10,b5,
0,voc -bu,Note On,10,b5,
0,voc -bu,Note On,10,b5,
0,voc -bu,Note On,10,b5,
0,voc -bu,Note On,10,b5,
0,voc -bu,Note On,10,b4,
0,voc -bu,Note On,10,b4,
0,voc -bu,Note On,10,b4,
0,voc -bu,Note On,10,b4,
0,voc -bu,Note On,10,b4,
0.210970333333333,voc -bu,Note Off,10,b5,
0,voc -bu,Note Off,10,b5,
0,voc -bu,Note Off,10,b5,
0,voc -bu,Note Off,10,b5,
0,voc -bu,Note Off,10,b5,
0,voc -bu,Note Off,10,b4,
0,voc -bu,Note Off,10,b4,
0,voc -bu,Note Off,10,b4,
0,voc -bu,Note Off,10,b4,
0,voc -bu,Note Off,10,b4,
0.263712916666667,voc -bu,Note On,10,c#6,
0,voc -bu,Note On,10,c#6,
0,voc -bu,Note On,10,c#6,
0,voc -bu,Note On,10,c#6,
0,voc -bu,Note On,10,c#6,
0,voc -bu,Note On,10,c#5,
0,voc -bu,Note On,10,c#5,
0,voc -bu,Note On,10,c#5,
0,voc -bu,Note On,10,c#5,
0,voc -bu,Note On,10,c#5,
0.210970333333333,voc -bu,Note Off,10,c#6,
0,voc -bu,Note Off,10,c#6,
0,voc -bu,Note Off,10,c#6,
0,voc -bu,Note Off,10,c#6,
0,voc -bu,Note Off,10,c#6,
0,voc -bu,Note Off,10,c#5,
0,voc -bu,Note Off,10,c#5,
0,voc -bu,Note Off,10,c#5,
0,voc -bu,Note Off,10,c#5,
0,voc -bu,Note Off,10,c#5,
0.421940666666667,voc -bu,Note On,10,a5,
0,voc -bu,Note On,10,a5,
0,voc -bu,Note On,10,a5,
0,voc -bu,Note On,10,a5,
0,voc -bu,Note On,10,a5,
0,voc -bu,Note On,10,a4,
0,voc -bu,Note On,10,a4,
0,voc -bu,Note On,10,a4,
0,voc -bu,Note On,10,a4,
0,voc -bu,Note On,10,a4,
0.632911,voc -bu,Note Off,10,a5,
0,voc -bu,Note Off,10,a5,
0,voc -bu,Note Off,10,a5,
0,voc -bu,Note Off,10,a5,
0,voc -bu,Note Off,10,a5,
0,voc -bu,Note Off,10,a4,
0,voc -bu,Note Off,10,a4,
0,voc -bu,Note Off,10,a4,
0,voc -bu,Note Off,10,a4,
0,voc -bu,Note Off,10,a4,
0,voc -bu,Note On,10,b5,
0,voc -bu,Note On,10,b5,
0,voc -bu,Note On,10,b5,
0,voc -bu,Note On,10,b5,
0,voc -bu,Note On,10,b5,
0,voc -bu,Note On,10,b4,
0,voc -bu,Note On,10,b4,
0,voc -bu,Note On,10,b4,
0,voc -bu,Note On,10,b4,
0,voc -bu,Note On,10,b4,
0.210970333333333,voc -bu,Note Off,10,b5,
0,voc -bu,Note Off,10,b5,
0,voc -bu,Note Off,10,b5,
0,voc -bu,Note Off,10,b5,
0,voc -bu,Note Off,10,b5,
0,voc -bu,Note Off,10,b4,
0,voc -bu,Note Off,10,b4,
0,voc -bu,Note Off,10,b4,
0,voc -bu,Note Off,10,b4,
0,voc -bu,Note Off,10,b4,
0.105485166666667,voc -bu,Note On,10,c#6,
0,voc -bu,Note On,10,c#6,
0,voc -bu,Note On,10,c#6,
0,voc -bu,Note On,10,c#6,
0,voc -bu,Note On,10,c#6,
0,voc -bu,Note On,10,c#5,
0,voc -bu,Note On,10,c#5,
0,voc -bu,Note On,10,c#5,
0,voc -bu,Note On,10,c#5,
0,voc -bu,Note On,10,c#5,
0.3164555,voc -bu,Note Off,10,c#6,
0,voc -bu,Note Off,10,c#6,
0,voc -bu,Note Off,10,c#6,
0,voc -bu,Note Off,10,c#6,
0,voc -bu,Note Off,10,c#6,
0,voc -bu,Note Off,10,c#5,
0,voc -bu,Note Off,10,c#5,
0,voc -bu,Note Off,10,c#5,
0,voc -bu,Note Off,10,c#5,
0,voc -bu,Note Off,10,c#5,
0.15822775,voc -bu,Note On,10,b5,
0,voc -bu,Note On,10,b5,
0,voc -bu,Note On,10,b5,
0,voc -bu,Note On,10,b5,
0,voc -bu,Note On,10,b5,
0,voc -bu,Note On,10,b4,
0,voc -bu,Note On,10,b4,
0,voc -bu,Note On,10,b4,
0,voc -bu,Note On,10,b4,
0,voc -bu,Note On,10,b4,
0.210970333333333,voc -bu,Note Off,10,b5,
0,voc -bu,Note Off,10,b5,
0,voc -bu,Note Off,10,b5,
0,voc -bu,Note Off,10,b5,
0,voc -bu,Note Off,10,b5,
0,voc -bu,Note Off,10,b4,
0,voc -bu,Note Off,10,b4,
0,voc -bu,Note Off,10,b4,
0,voc -bu,Note Off,10,b4,
0,voc -bu,Note Off,10,b4,
0.105485166666667,voc -bu,Note On,10,c#6,
0,voc -bu,Note On,10,c#6,
0,voc -bu,Note On,10,c#6,
0,voc -bu,Note On,10,c#6,
0,voc -bu,Note On,10,c#6,
0,voc -bu,Note On,10,c#5,
0,voc -bu,Note On,10,c#5,
0,voc -bu,Note On,10,c#5,
0,voc -bu,Note On,10,c#5,
0,voc -bu,Note On,10,c#5,
0.105485166666667,voc -bu,Note Off,10,c#6,
0,voc -bu,Note Off,10,c#6,
0,voc -bu,Note Off,10,c#6,
0,voc -bu,Note Off,10,c#6,
0,voc -bu,Note Off,10,c#6,
0,voc -bu,Note Off,10,c#5,
0,voc -bu,Note Off,10,c#5,
0,voc -bu,Note Off,10,c#5,
0,voc -bu,Note Off,10,c#5,
0,voc -bu,Note Off,10,c#5,
0.0527425833333333,voc -bu,Note On,10,c#6,
0,voc -bu,Note On,10,c#6,
0,voc -bu,Note On,10,c#6,
0,voc -bu,Note On,10,c#6,
0,voc -bu,Note On,10,c#6,
0,voc -bu,Note On,10,c#5,
0,voc -bu,Note On,10,c#5,
0,voc -bu,Note On,10,c#5,
0,voc -bu,Note On,10,c#5,
0,voc -bu,Note On,10,c#5,
0.210970333333333,voc -bu,Note Off,10,c#6,
0,voc -bu,Note Off,10,c#6,
0,voc -bu,Note Off,10,c#6,
0,voc -bu,Note Off,10,c#6,
0,voc -bu,Note Off,10,c#6,
0,voc -bu,Note Off,10,c#5,
0,voc -bu,Note Off,10,c#5,
0,voc -bu,Note Off,10,c#5,
0,voc -bu,Note Off,10,c#5,
0,voc -bu,Note Off,10,c#5,
0.105485166666667,voc -bu,Note On,10,d6,
0,voc -bu,Note On,10,d6,
0,voc -bu,Note On,10,d6,
0,voc -bu,Note On,10,d6,
0,voc -bu,Note On,10,d6,
0,voc -bu,Note On,10,d5,
0,voc -bu,Note On,10,d5,
0,voc -bu,Note On,10,d5,
0,voc -bu,Note On,10,d5,
0,voc -bu,Note On,10,d5,
0.105485166666667,voc -bu,Note Off,10,d6,
0,voc -bu,Note Off,10,d6,
0,voc -bu,Note Off,10,d6,
0,voc -bu,Note Off,10,d6,
0,voc -bu,Note Off,10,d6,
0,voc -bu,Note Off,10,d5,
0,voc -bu,Note Off,10,d5,
0,voc -bu,Note Off,10,d5,
0,voc -bu,Note Off,10,d5,
0,voc -bu,Note Off,10,d5,
0.0527425833333333,voc -bu,Note On,10,d6,
0,voc -bu,Note On,10,d6,
0,voc -bu,Note On,10,d6,
0,voc -bu,Note On,10,d6,
0,voc -bu,Note On,10,d6,
0,voc -bu,Note On,10,d5,
0,voc -bu,Note On,10,d5,
0,voc -bu,Note On,10,d5,
0,voc -bu,Note On,10,d5,
0,voc -bu,Note On,10,d5,
0.210970333333333,voc -bu,Note Off,10,d6,
0,voc -bu,Note Off,10,d6,
0,voc -bu,Note Off,10,d6,
0,voc -bu,Note Off,10,d6,
0,voc -bu,Note Off,10,d6,
0,voc -bu,Note Off,10,d5,
0,voc -bu,Note Off,10,d5,
0,voc -bu,Note Off,10,d5,
0,voc -bu,Note Off,10,d5,
0,voc -bu,Note Off,10,d5,
0.105485166666667,voc -bu,Note On,10,d6,
0,voc -bu,Note On,10,d6,
0,voc -bu,Note On,10,d6,
0,voc -bu,Note On,10,d6,
0,voc -bu,Note On,10,d6,
0,voc -bu,Note On,10,d5,
0,voc -bu,Note On,10,d5,
0,voc -bu,Note On,10,d5,
0,voc -bu,Note On,10,d5,
0,voc -bu,Note On,10,d5,
0.421940666666667,voc -bu,Note Off,10,d6,
0,voc -bu,Note Off,10,d6,
0,voc -bu,Note Off,10,d6,
0,voc -bu,Note Off,10,d6,
0,voc -bu,Note Off,10,d6,
0,voc -bu,Note Off,10,d5,
0,voc -bu,Note Off,10,d5,
0,voc -bu,Note Off,10,d5,
0,voc -bu,Note Off,10,d5,
0,voc -bu,Note Off,10,d5,
1.16033683333333,voc -bu,Note On,10,d6,
0,voc -bu,Note On,10,d6,
0,voc -bu,Note On,10,d6,
0,voc -bu,Note On,10,d6,
0,voc -bu,Note On,10,d6,
0,voc -bu,Note On,10,d5,
0,voc -bu,Note On,10,d5,
0,voc -bu,Note On,10,d5,
0,voc -bu,Note On,10,d5,
0,voc -bu,Note On,10,d5,
0.105485166666667,voc -bu,Note Off,10,d6,
0,voc -bu,Note Off,10,d6,
0,voc -bu,Note Off,10,d6,
0,voc -bu,Note Off,10,d6,
0,voc -bu,Note Off,10,d6,
0,voc -bu,Note Off,10,d5,
0,voc -bu,Note Off,10,d5,
0,voc -bu,Note Off,10,d5,
0,voc -bu,Note Off,10,d5,
0,voc -bu,Note Off,10,d5,
0.0527425833333333,voc -bu,Note On,10,d6,
0,voc -bu,Note On,10,d6,
0,voc -bu,Note On,10,d6,
0,voc -bu,Note On,10,d6,
0,voc -bu,Note On,10,d6,
0,voc -bu,Note On,10,d5,
0,voc -bu,Note On,10,d5,
0,voc -bu,Note On,10,d5,
0,voc -bu,Note On,10,d5,
0,voc -bu,Note On,10,d5,
0.210970333333333,voc -bu,Note Off,10,d6,
0,voc -bu,Note Off,10,d6,
0,voc -bu,Note Off,10,d6,
0,voc -bu,Note Off,10,d6,
0,voc -bu,Note Off,10,d6,
0,voc -bu,Note Off,10,d5,
0,voc -bu,Note Off,10,d5,
0,voc -bu,Note Off,10,d5,
0,voc -bu,Note Off,10,d5,
0,voc -bu,Note Off,10,d5,
0.105485166666667,voc -bu,Note On,10,f#6,
0,voc -bu,Note On,10,f#6,
0,voc -bu,Note On,10,f#6,
0,voc -bu,Note On,10,f#6,
0,voc -bu,Note On,10,f#6,
0,voc -bu,Note On,10,f#5,
0,voc -bu,Note On,10,f#5,
0,voc -bu,Note On,10,f#5,
0,voc -bu,Note On,10,f#5,
0,voc -bu,Note On,10,f#5,
0.3164555,voc -bu,Note Off,10,f#6,
0,voc -bu,Note Off,10,f#6,
0,voc -bu,Note Off,10,f#6,
0,voc -bu,Note Off,10,f#6,
0,voc -bu,Note Off,10,f#6,
0,voc -bu,Note Off,10,f#5,
0,voc -bu,Note Off,10,f#5,
0,voc -bu,Note Off,10,f#5,
0,voc -bu,Note Off,10,f#5,
0,voc -bu,Note Off,10,f#5,
0.15822775,voc -bu,Note On,10,d6,
0,voc -bu,Note On,10,d6,
0,voc -bu,Note On,10,d6,
0,voc -bu,Note On,10,d6,
0,voc -bu,Note On,10,d6,
0,voc -bu,Note On,10,d5,
0,voc -bu,Note On,10,d5,
0,voc -bu,Note On,10,d5,
0,voc -bu,Note On,10,d5,
0,voc -bu,Note On,10,d5,
0.3164555,voc -bu,Note Off,10,d6,
0,voc -bu,Note Off,10,d6,
0,voc -bu,Note Off,10,d6,
0,voc -bu,Note Off,10,d6,
0,voc -bu,Note Off,10,d6,
0,voc -bu,Note Off,10,d5,
0,voc -bu,Note Off,10,d5,
0,voc -bu,Note Off,10,d5,
0,voc -bu,Note Off,10,d5,
0,voc -bu,Note Off,10,d5,
0.15822775,voc -bu,Note On,10,d6,
0,voc -bu,Note On,10,d6,
0,voc -bu,Note On,10,d6,
0,voc -bu,Note On,10,d6,
0,voc -bu,Note On,10,d6,
0,voc -bu,Note On,10,d5,
0,voc -bu,Note On,10,d5,
0,voc -bu,Note On,10,d5,
0,voc -bu,Note On,10,d5,
0,voc -bu,Note On,10,d5,
0.632911,voc -bu,Note Off,10,d6,
0,voc -bu,Note Off,10,d6,
0,voc -bu,Note Off,10,d6,
0,voc -bu,Note Off,10,d6,
0,voc -bu,Note Off,10,d6,
0,voc -bu,Note Off,10,d5,
0,voc -bu,Note Off,10,d5,
0,voc -bu,Note Off,10,d5,
0,voc -bu,Note Off,10,d5,
0,voc -bu,Note Off,10,d5,
41.4556705,voc -bu,Note On,10,b5,
0,voc -bu,Note On,10,b5,
0,voc -bu,Note On,10,b5,
0,voc -bu,Note On,10,b5,
0,voc -bu,Note On,10,b5,
0,voc -bu,Note On,10,b4,
0,voc -bu,Note On,10,b4,
0,voc -bu,Note On,10,b4,
0,voc -bu,Note On,10,b4,
0,voc -bu,Note On,10,b4,
0.421940666666667,voc -bu,Note Off,10,b5,
0,voc -bu,Note Off,10,b5,
0,voc -bu,Note Off,10,b5,
0,voc -bu,Note Off,10,b5,
0,voc -bu,Note Off,10,b5,
0,voc -bu,Note Off,10,b4,
0,voc -bu,Note Off,10,b4,
0,voc -bu,Note Off,10,b4,
0,voc -bu,Note Off,10,b4,
0,voc -bu,Note Off,10,b4,
1.47679233333333,voc -bu,Note On,10,b5,
0,voc -bu,Note On,10,b5,
0,voc -bu,Note On,10,b5,
0,voc -bu,Note On,10,b5,
0,voc -bu,Note On,10,b5,
0,voc -bu,Note On,10,b4,
0,voc -bu,Note On,10,b4,
0,voc -bu,Note On,10,b4,
0,voc -bu,Note On,10,b4,
0,voc -bu,Note On,10,b4,
0.105485166666667,voc -bu,Note Off,10,b5,
0,voc -bu,Note Off,10,b5,
0,voc -bu,Note Off,10,b5,
0,voc -bu,Note Off,10,b5,
0,voc -bu,Note Off,10,b5,
0,voc -bu,Note Off,10,b4,
0,voc -bu,Note Off,10,b4,
0,voc -bu,Note Off,10,b4,
0,voc -bu,Note Off,10,b4,
0,voc -bu,Note Off,10,b4,
0.0527425833333333,voc -bu,Note On,10,b5,
0,voc -bu,Note On,10,b5,
0,voc -bu,Note On,10,b5,
0,voc -bu,Note On,10,b5,
0,voc -bu,Note On,10,b5,
0,voc -bu,Note On,10,b4,
0,voc -bu,Note On,10,b4,
0,voc -bu,Note On,10,b4,
0,voc -bu,Note On,10,b4,
0,voc -bu,Note On,10,b4,
0.3164555,voc -bu,Note Off,10,b5,
0,voc -bu,Note Off,10,b5,
0,voc -bu,Note Off,10,b5,
0,voc -bu,Note Off,10,b5,
0,voc -bu,Note Off,10,b5,
0,voc -bu,Note Off,10,b4,
0,voc -bu,Note Off,10,b4,
0,voc -bu,Note Off,10,b4,
0,voc -bu,Note Off,10,b4,
0,voc -bu,Note Off,10,b4,
0.15822775,voc -bu,Note On,10,d6,
0,voc -bu,Note On,10,d6,
0,voc -bu,Note On,10,d6,
0,voc -bu,Note On,10,d6,
0,voc -bu,Note On,10,d6,
0,voc -bu,Note On,10,d5,
0,voc -bu,Note On,10,d5,
0,voc -bu,Note On,10,d5,
0,voc -bu,Note On,10,d5,
0,voc -bu,Note On,10,d5,
0.15822775,voc -bu,Note On,10,b5,
0,voc -bu,Note On,10,b5,
0,voc -bu,Note On,10,b5,
0,voc -bu,Note On,10,b5,
0,voc -bu,Note On,10,b5,
0,voc -bu,Note On,10,b4,
0,voc -bu,Note On,10,b4,
0,voc -bu,Note On,10,b4,
0,voc -bu,Note On,10,b4,
0,voc -bu,Note On,10,b4,
0.263712916666667,voc -bu,Note Off,10,d6,
0,voc -bu,Note Off,10,d6,
0,voc -bu,Note Off,10,d6,
0,voc -bu,Note Off,10,d6,
0,voc -bu,Note Off,10,d6,
0,voc -bu,Note Off,10,d5,
0,voc -bu,Note Off,10,d5,
0,voc -bu,Note Off,10,d5,
0,voc -bu,Note Off,10,d5,
0,voc -bu,Note Off,10,d5,
0.0527425833333333,voc -bu,Note Off,10,b5,
0,voc -bu,Note Off,10,b5,
0,voc -bu,Note Off,10,b5,
0,voc -bu,Note Off,10,b5,
0,voc -bu,Note Off,10,b5,
0,voc -bu,Note Off,10,b4,
0,voc -bu,Note Off,10,b4,
0,voc -bu,Note Off,10,b4,
0,voc -bu,Note Off,10,b4,
0,voc -bu,Note Off,10,b4,
1.42404975,voc -bu,Note On,10,e6,
0,voc -bu,Note On,10,e6,
0,voc -bu,Note On,10,e6,
0,voc -bu,Note On,10,e6,
0,voc -bu,Note On,10,e6,
0,voc -bu,Note On,10,e5,
0,voc -bu,Note On,10,e5,
0,voc -bu,Note On,10,e5,
0,voc -bu,Note On,10,e5,
0,voc -bu,Note On,10,e5,
0.105485166666667,voc -bu,Note Off,10,e6,
0,voc -bu,Note Off,10,e6,
0,voc -bu,Note Off,10,e6,
0,voc -bu,Note Off,10,e6,
0,voc -bu,Note Off,10,e6,
0,voc -bu,Note Off,10,e5,
0,voc -bu,Note Off,10,e5,
0,voc -bu,Note Off,10,e5,
0,voc -bu,Note Off,10,e5,
0,voc -bu,Note Off,10,e5,
0.0527425833333333,voc -bu,Note On,10,e6,
0,voc -bu,Note On,10,e6,
0,voc -bu,Note On,10,e6,
0,voc -bu,Note On,10,e6,
0,voc -bu,Note On,10,e6,
0,voc -bu,Note On,10,e5,
0,voc -bu,Note On,10,e5,
0,voc -bu,Note On,10,e5,
0,voc -bu,Note On,10,e5,
0,voc -bu,Note On,10,e5,
0.3164555,voc -bu,Note Off,10,e6,
0,voc -bu,Note Off,10,e6,
0,voc -bu,Note Off,10,e6,
0,voc -bu,Note Off,10,e6,
0,voc -bu,Note Off,10,e6,
0,voc -bu,Note Off,10,e5,
0,voc -bu,Note Off,10,e5,
0,voc -bu,Note Off,10,e5,
0,voc -bu,Note Off,10,e5,
0,voc -bu,Note Off,10,e5,
0.15822775,voc -bu,Note On,10,b5,
0,voc -bu,Note On,10,b5,
0,voc -bu,Note On,10,b5,
0,voc -bu,Note On,10,b5,
0,voc -bu,Note On,10,b5,
0,voc -bu,Note On,10,b4,
0,voc -bu,Note On,10,b4,
0,voc -bu,Note On,10,b4,
0,voc -bu,Note On,10,b4,
0,voc -bu,Note On,10,b4,
0.421940666666667,voc -bu,Note Off,10,b5,
0,voc -bu,Note Off,10,b5,
0,voc -bu,Note Off,10,b5,
0,voc -bu,Note Off,10,b5,
0,voc -bu,Note Off,10,b5,
0,voc -bu,Note Off,10,b4,
0,voc -bu,Note Off,10,b4,
0,voc -bu,Note Off,10,b4,
0,voc -bu,Note Off,10,b4,
0,voc -bu,Note Off,10,b4,
1.47679233333333,voc -bu,Note On,10,b5,
0,voc -bu,Note On,10,b5,
0,voc -bu,Note On,10,b5,
0,voc -bu,Note On,10,b5,
0,voc -bu,Note On,10,b5,
0,voc -bu,Note On,10,b4,
0,voc -bu,Note On,10,b4,
0,voc -bu,Note On,10,b4,
0,voc -bu,Note On,10,b4,
0,voc -bu,Note On,10,b4,
0.105485166666667,voc -bu,Note Off,10,b5,
0,voc -bu,Note Off,10,b5,
0,voc -bu,Note Off,10,b5,
0,voc -bu,Note Off,10,b5,
0,voc -bu,Note Off,10,b5,
0,voc -bu,Note Off,10,b4,
0,voc -bu,Note Off,10,b4,
0,voc -bu,Note Off,10,b4,
0,voc -bu,Note Off,10,b4,
0,voc -bu,Note Off,10,b4,
0.0527425833333333,voc -bu,Note On,10,b5,
0,voc -bu,Note On,10,b5,
0,voc -bu,Note On,10,b5,
0,voc -bu,Note On,10,b5,
0,voc -bu,Note On,10,b5,
0,voc -bu,Note On,10,b4,
0,voc -bu,Note On,10,b4,
0,voc -bu,Note On,10,b4,
0,voc -bu,Note On,10,b4,
0,voc -bu,Note On,10,b4,
0.3164555,voc -bu,Note Off,10,b5,
0,voc -bu,Note Off,10,b5,
0,voc -bu,Note Off,10,b5,
0,voc -bu,Note Off,10,b5,
0,voc -bu,Note Off,10,b5,
0,voc -bu,Note Off,10,b4,
0,voc -bu,Note Off,10,b4,
0,voc -bu,Note Off,10,b4,
0,voc -bu,Note Off,10,b4,
0,voc -bu,Note Off,10,b4,
0.15822775,voc -bu,Note On,10,d6,
0,voc -bu,Note On,10,d6,
0,voc -bu,Note On,10,d6,
0,voc -bu,Note On,10,d6,
0,voc -bu,Note On,10,d6,
0,voc -bu,Note On,10,d5,
0,voc -bu,Note On,10,d5,
0,voc -bu,Note On,10,d5,
0,voc -bu,Note On,10,d5,
0,voc -bu,Note On,10,d5,
0.421940666666667,voc -bu,Note Off,10,d6,
0,voc -bu,Note Off,10,d6,
0,voc -bu,Note Off,10,d6,
0,voc -bu,Note Off,10,d6,
0,voc -bu,Note Off,10,d6,
0,voc -bu,Note Off,10,d5,
0,voc -bu,Note Off,10,d5,
0,voc -bu,Note Off,10,d5,
0,voc -bu,Note Off,10,d5,
0,voc -bu,Note Off,10,d5,
2.42615883333333,voc -bu,Note On,10,a5,
0,voc -bu,Note On,10,a5,
0,voc -bu,Note On,10,a5,
0,voc -bu,Note On,10,a5,
0,voc -bu,Note On,10,a5,
0,voc -bu,Note On,10,a4,
0,voc -bu,Note On,10,a4,
0,voc -bu,Note On,10,a4,
0,voc -bu,Note On,10,a4,
0,voc -bu,Note On,10,a4,
0.632911,voc -bu,Note Off,10,a5,
0,voc -bu,Note Off,10,a5,
0,voc -bu,Note Off,10,a5,
0,voc -bu,Note Off,10,a5,
0,voc -bu,Note Off,10,a5,
0,voc -bu,Note Off,10,a4,
0,voc -bu,Note Off,10,a4,
0,voc -bu,Note Off,10,a4,
0,voc -bu,Note Off,10,a4,
0,voc -bu,Note Off,10,a4,
0,voc -bu,Note On,10,b5,
0,voc -bu,Note On,10,b5,
0,voc -bu,Note On,10,b5,
0,voc -bu,Note On,10,b5,
0,voc -bu,Note On,10,b5,
0,voc -bu,Note On,10,b4,
0,voc -bu,Note On,10,b4,
0,voc -bu,Note On,10,b4,
0,voc -bu,Note On,10,b4,
0,voc -bu,Note On,10,b4,
0.210970333333333,voc -bu,Note Off,10,b5,
0,voc -bu,Note Off,10,b5,
0,voc -bu,Note Off,10,b5,
0,voc -bu,Note Off,10,b5,
0,voc -bu,Note Off,10,b5,
0,voc -bu,Note Off,10,b4,
0,voc -bu,Note Off,10,b4,
0,voc -bu,Note Off,10,b4,
0,voc -bu,Note Off,10,b4,
0,voc -bu,Note Off,10,b4,
0.105485166666667,voc -bu,Note On,10,c#6,
0,voc -bu,Note On,10,c#6,
0,voc -bu,Note On,10,c#6,
0,voc -bu,Note On,10,c#6,
0,voc -bu,Note On,10,c#6,
0,voc -bu,Note On,10,c#5,
0,voc -bu,Note On,10,c#5,
0,voc -bu,Note On,10,c#5,
0,voc -bu,Note On,10,c#5,
0,voc -bu,Note On,10,c#5,
0.3164555,voc -bu,Note Off,10,c#6,
0,voc -bu,Note Off,10,c#6,
0,voc -bu,Note Off,10,c#6,
0,voc -bu,Note Off,10,c#6,
0,voc -bu,Note Off,10,c#6,
0,voc -bu,Note Off,10,c#5,
0,voc -bu,Note Off,10,c#5,
0,voc -bu,Note Off,10,c#5,
0,voc -bu,Note Off,10,c#5,
0,voc -bu,Note Off,10,c#5,
0.15822775,voc -bu,Note On,10,b5,
0,voc -bu,Note On,10,b5,
0,voc -bu,Note On,10,b5,
0,voc -bu,Note On,10,b5,
0,voc -bu,Note On,10,b5,
0,voc -bu,Note On,10,b4,
0,voc -bu,Note On,10,b4,
0,voc -bu,Note On,10,b4,
0,voc -bu,Note On,10,b4,
0,voc -bu,Note On,10,b4,
0.210970333333333,voc -bu,Note Off,10,b5,
0,voc -bu,Note Off,10,b5,
0,voc -bu,Note Off,10,b5,
0,voc -bu,Note Off,10,b5,
0,voc -bu,Note Off,10,b5,
0,voc -bu,Note Off,10,b4,
0,voc -bu,Note Off,10,b4,
0,voc -bu,Note Off,10,b4,
0,voc -bu,Note Off,10,b4,
0,voc -bu,Note Off,10,b4,
0.263712916666667,voc -bu,Note On,10,c#6,
0,voc -bu,Note On,10,c#6,
0,voc -bu,Note On,10,c#6,
0,voc -bu,Note On,10,c#6,
0,voc -bu,Note On,10,c#6,
0,voc -bu,Note On,10,c#5,
0,voc -bu,Note On,10,c#5,
0,voc -bu,Note On,10,c#5,
0,voc -bu,Note On,10,c#5,
0,voc -bu,Note On,10,c#5,
0.210970333333333,voc -bu,Note Off,10,c#6,
0,voc -bu,Note Off,10,c#6,
0,voc -bu,Note Off,10,c#6,
0,voc -bu,Note Off,10,c#6,
0,voc -bu,Note Off,10,c#6,
0,voc -bu,Note Off,10,c#5,
0,voc -bu,Note Off,10,c#5,
0,voc -bu,Note Off,10,c#5,
0,voc -bu,Note Off,10,c#5,
0,voc -bu,Note Off,10,c#5,
0.421940666666667,voc -bu,Note On,10,a5,
0,voc -bu,Note On,10,a5,
0,voc -bu,Note On,10,a5,
0,voc -bu,Note On,10,a5,
0,voc -bu,Note On,10,a5,
0,voc -bu,Note On,10,a4,
0,voc -bu,Note On,10,a4,
0,voc -bu,Note On,10,a4,
0,voc -bu,Note On,10,a4,
0,voc -bu,Note On,10,a4,
0.632911,voc -bu,Note Off,10,a5,
0,voc -bu,Note Off,10,a5,
0,voc -bu,Note Off,10,a5,
0,voc -bu,Note Off,10,a5,
0,voc -bu,Note Off,10,a5,
0,voc -bu,Note Off,10,a4,
0,voc -bu,Note Off,10,a4,
0,voc -bu,Note Off,10,a4,
0,voc -bu,Note Off,10,a4,
0,voc -bu,Note Off,10,a4,
0,voc -bu,Note On,10,b5,
0,voc -bu,Note On,10,b5,
0,voc -bu,Note On,10,b5,
0,voc -bu,Note On,10,b5,
0,voc -bu,Note On,10,b5,
0,voc -bu,Note On,10,b4,
0,voc -bu,Note On,10,b4,
0,voc -bu,Note On,10,b4,
0,voc -bu,Note On,10,b4,
0,voc -bu,Note On,10,b4,
0.210970333333333,voc -bu,Note Off,10,b5,
0,voc -bu,Note Off,10,b5,
0,voc -bu,Note Off,10,b5,
0,voc -bu,Note Off,10,b5,
0,voc -bu,Note Off,10,b5,
0,voc -bu,Note Off,10,b4,
0,voc -bu,Note Off,10,b4,
0,voc -bu,Note Off,10,b4,
0,voc -bu,Note Off,10,b4,
0,voc -bu,Note Off,10,b4,
0.105485166666667,voc -bu,Note On,10,c#6,
0,voc -bu,Note On,10,c#6,
0,voc -bu,Note On,10,c#6,
0,voc -bu,Note On,10,c#6,
0,voc -bu,Note On,10,c#6,
0,voc -bu,Note On,10,c#5,
0,voc -bu,Note On,10,c#5,
0,voc -bu,Note On,10,c#5,
0,voc -bu,Note On,10,c#5,
0,voc -bu,Note On,10,c#5,
0.3164555,voc -bu,Note Off,10,c#6,
0,voc -bu,Note Off,10,c#6,
0,voc -bu,Note Off,10,c#6,
0,voc -bu,Note Off,10,c#6,
0,voc -bu,Note Off,10,c#6,
0,voc -bu,Note Off,10,c#5,
0,voc -bu,Note Off,10,c#5,
0,voc -bu,Note Off,10,c#5,
0,voc -bu,Note Off,10,c#5,
0,voc -bu,Note Off,10,c#5,
0.15822775,voc -bu,Note On,10,b5,
0,voc -bu,Note On,10,b5,
0,voc -bu,Note On,10,b5,
0,voc -bu,Note On,10,b5,
0,voc -bu,Note On,10,b5,
0,voc -bu,Note On,10,b4,
0,voc -bu,Note On,10,b4,
0,voc -bu,Note On,10,b4,
0,voc -bu,Note On,10,b4,
0,voc -bu,Note On,10,b4,
0.210970333333333,voc -bu,Note Off,10,b5,
0,voc -bu,Note Off,10,b5,
0,voc -bu,Note Off,10,b5,
0,voc -bu,Note Off,10,b5,
0,voc -bu,Note Off,10,b5,
0,voc -bu,Note Off,10,b4,
0,voc -bu,Note Off,10,b4,
0,voc -bu,Note Off,10,b4,
0,voc -bu,Note Off,10,b4,
0,voc -bu,Note Off,10,b4,
0.105485166666667,voc -bu,Note On,10,c#6,
0,voc -bu,Note On,10,c#6,
0,voc -bu,Note On,10,c#6,
0,voc -bu,Note On,10,c#6,
0,voc -bu,Note On,10,c#6,
0,voc -bu,Note On,10,c#5,
0,voc -bu,Note On,10,c#5,
0,voc -bu,Note On,10,c#5,
0,voc -bu,Note On,10,c#5,
0,voc -bu,Note On,10,c#5,
0.105485166666667,voc -bu,Note Off,10,c#6,
0,voc -bu,Note Off,10,c#6,
0,voc -bu,Note Off,10,c#6,
0,voc -bu,Note Off,10,c#6,
0,voc -bu,Note Off,10,c#6,
0,voc -bu,Note Off,10,c#5,
0,voc -bu,Note Off,10,c#5,
0,voc -bu,Note Off,10,c#5,
0,voc -bu,Note Off,10,c#5,
0,voc -bu,Note Off,10,c#5,
0.0527425833333333,voc -bu,Note On,10,c#6,
0,voc -bu,Note On,10,c#6,
0,voc -bu,Note On,10,c#6,
0,voc -bu,Note On,10,c#6,
0,voc -bu,Note On,10,c#6,
0,voc -bu,Note On,10,c#5,
0,voc -bu,Note On,10,c#5,
0,voc -bu,Note On,10,c#5,
0,voc -bu,Note On,10,c#5,
0,voc -bu,Note On,10,c#5,
0.210970333333333,voc -bu,Note Off,10,c#6,
0,voc -bu,Note Off,10,c#6,
0,voc -bu,Note Off,10,c#6,
0,voc -bu,Note Off,10,c#6,
0,voc -bu,Note Off,10,c#6,
0,voc -bu,Note Off,10,c#5,
0,voc -bu,Note Off,10,c#5,
0,voc -bu,Note Off,10,c#5,
0,voc -bu,Note Off,10,c#5,
0,voc -bu,Note Off,10,c#5,
0.105485166666667,voc -bu,Note On,10,d6,
0,voc -bu,Note On,10,d6,
0,voc -bu,Note On,10,d6,
0,voc -bu,Note On,10,d6,
0,voc -bu,Note On,10,d6,
0,voc -bu,Note On,10,d5,
0,voc -bu,Note On,10,d5,
0,voc -bu,Note On,10,d5,
0,voc -bu,Note On,10,d5,
0,voc -bu,Note On,10,d5,
0.105485166666667,voc -bu,Note Off,10,d6,
0,voc -bu,Note Off,10,d6,
0,voc -bu,Note Off,10,d6,
0,voc -bu,Note Off,10,d6,
0,voc -bu,Note Off,10,d6,
0,voc -bu,Note Off,10,d5,
0,voc -bu,Note Off,10,d5,
0,voc -bu,Note Off,10,d5,
0,voc -bu,Note Off,10,d5,
0,voc -bu,Note Off,10,d5,
0.0527425833333333,voc -bu,Note On,10,d6,
0,voc -bu,Note On,10,d6,
0,voc -bu,Note On,10,d6,
0,voc -bu,Note On,10,d6,
0,voc -bu,Note On,10,d6,
0,voc -bu,Note On,10,d5,
0,voc -bu,Note On,10,d5,
0,voc -bu,Note On,10,d5,
0,voc -bu,Note On,10,d5,
0,voc -bu,Note On,10,d5,
0.210970333333333,voc -bu,Note Off,10,d6,
0,voc -bu,Note Off,10,d6,
0,voc -bu,Note Off,10,d6,
0,voc -bu,Note Off,10,d6,
0,voc -bu,Note Off,10,d6,
0,voc -bu,Note Off,10,d5,
0,voc -bu,Note Off,10,d5,
0,voc -bu,Note Off,10,d5,
0,voc -bu,Note Off,10,d5,
0,voc -bu,Note Off,10,d5,
0.105485166666667,voc -bu,Note On,10,d6,
0,voc -bu,Note On,10,d6,
0,voc -bu,Note On,10,d6,
0,voc -bu,Note On,10,d6,
0,voc -bu,Note On,10,d6,
0,voc -bu,Note On,10,d5,
0,voc -bu,Note On,10,d5,
0,voc -bu,Note On,10,d5,
0,voc -bu,Note On,10,d5,
0,voc -bu,Note On,10,d5,
0.421940666666667,voc -bu,Note Off,10,d6,
0,voc -bu,Note Off,10,d6,
0,voc -bu,Note Off,10,d6,
0,voc -bu,Note Off,10,d6,
0,voc -bu,Note Off,10,d6,
0,voc -bu,Note Off,10,d5,
0,voc -bu,Note Off,10,d5,
0,voc -bu,Note Off,10,d5,
0,voc -bu,Note Off,10,d5,
0,voc -bu,Note Off,10,d5,
1.16033683333333,voc -bu,Note On,10,d6,
0,voc -bu,Note On,10,d6,
0,voc -bu,Note On,10,d6,
0,voc -bu,Note On,10,d6,
0,voc -bu,Note On,10,d6,
0,voc -bu,Note On,10,d5,
0,voc -bu,Note On,10,d5,
0,voc -bu,Note On,10,d5,
0,voc -bu,Note On,10,d5,
0,voc -bu,Note On,10,d5,
0.105485166666667,voc -bu,Note Off,10,d6,
0,voc -bu,Note Off,10,d6,
0,voc -bu,Note Off,10,d6,
0,voc -bu,Note Off,10,d6,
0,voc -bu,Note Off,10,d6,
0,voc -bu,Note Off,10,d5,
0,voc -bu,Note Off,10,d5,
0,voc -bu,Note Off,10,d5,
0,voc -bu,Note Off,10,d5,
0,voc -bu,Note Off,10,d5,
0.0527425833333333,voc -bu,Note On,10,d6,
0,voc -bu,Note On,10,d6,
0,voc -bu,Note On,10,d6,
0,voc -bu,Note On,10,d6,
0,voc -bu,Note On,10,d6,
0,voc -bu,Note On,10,d5,
0,voc -bu,Note On,10,d5,
0,voc -bu,Note On,10,d5,
0,voc -bu,Note On,10,d5,
0,voc -bu,Note On,10,d5,
0.210970333333333,voc -bu,Note Off,10,d6,
0,voc -bu,Note Off,10,d6,
0,voc -bu,Note Off,10,d6,
0,voc -bu,Note Off,10,d6,
0,voc -bu,Note Off,10,d6,
0,voc -bu,Note Off,10,d5,
0,voc -bu,Note Off,10,d5,
0,voc -bu,Note Off,10,d5,
0,voc -bu,Note Off,10,d5,
0,voc -bu,Note Off,10,d5,
22.2573701666667,voc -bu,Note On,10,e6,
0.105485166666667,voc -bu,Note Off,10,e6,
0.0527425833333333,voc -bu,Note On,10,e6,
0.3164555,voc -bu,Note Off,10,e6,
0.47468325,voc -bu,Note On,10,a5,
0.632911,voc -bu,Note On,10,b5,
0.210970333333333,voc -bu,Note Off,10,b5,
0.105485166666667,voc -bu,Note On,10,d#6,
0.3164555,voc -bu,Note Off,10,a5,
0,voc -bu,Note Off,10,d#6,
0.15822775,voc -bu,Note On,10,b5,
0.3164555,voc -bu,Note Off,10,b5,
0.15822775,voc -bu,Note On,10,d#6,
0.210970333333333,voc -bu,Note Off,10,d#6,
0.421940666666667,voc -bu,Note On,10,a5,
0.632911,voc -bu,Note On,10,b5,
0.210970333333333,voc -bu,Note Off,10,b5,
0.105485166666667,voc -bu,Note On,10,d#6,
0.3164555,voc -bu,Note Off,10,a5,
0,voc -bu,Note Off,10,d#6,
0.15822775,voc -bu,Note On,10,b5,
0.3164555,voc -bu,Note Off,10,b5,
0.15822775,voc -bu,Note On,10,d#6,
0.210970333333333,voc -bu,Note Off,10,d#6,
0.421940666666667,voc -bu,Note On,10,g6,
0.632911,voc -bu,Note On,10,e6,
0.210970333333333,voc -bu,Note Off,10,e6,
0.105485166666667,voc -bu,Note On,10,e6,
0.3164555,voc -bu,Note Off,10,g6,
0,voc -bu,Note Off,10,e6,
0.15822775,voc -bu,Note On,10,e6,
0.3164555,voc -bu,Note Off,10,e6,
0.15822775,voc -bu,Note On,10,e6,
0.210970333333333,voc -bu,Note Off,10,e6,
0.421940666666667,voc -bu,Note On,10,g6,
0.632911,voc -bu,Note On,10,e6,
0.210970333333333,voc -bu,Note Off,10,e6,
0.105485166666667,voc -bu,Note On,10,e6,
0.3164555,voc -bu,Note Off,10,g6,
0,voc -bu,Note Off,10,e6,
0.15822775,voc -bu,Note On,10,e6,
0.3164555,voc -bu,Note Off,10,e6,
0.15822775,voc -bu,Note On,10,e6,
0.210970333333333,voc -bu,Note Off,10,e6,
0.421940666666667,voc -bu,Note On,10,a5,
0.632911,voc -bu,Note On,10,b5,
0.210970333333333,voc -bu,Note Off,10,b5,
0.105485166666667,voc -bu,Note On,10,d#6,
0.3164555,voc -bu,Note Off,10,a5,
0,voc -bu,Note Off,10,d#6,
0.15822775,voc -bu,Note On,10,b5,
0.3164555,voc -bu,Note Off,10,b5,
0.15822775,voc -bu,Note On,10,d#6,
0.210970333333333,voc -bu,Note Off,10,d#6,
0.421940666666667,voc -bu,Note On,10,a5,
0.632911,voc -bu,Note On,10,b5,
0.210970333333333,voc -bu,Note Off,10,b5,
0.105485166666667,voc -bu,Note On,10,d#6,
0.3164555,voc -bu,Note Off,10,a5,
0,voc -bu,Note Off,10,d#6,
0.15822775,voc -bu,Note On,10,b5,
0.3164555,voc -bu,Note Off,10,b5,
0.15822775,voc -bu,Note On,10,d#6,
0.210970333333333,voc -bu,Note Off,10,d#6,
0, 20,Program Change,1,c0,
